<?xml version="1.0" encoding="utf-8" standalone="no"?>
<!DOCTYPE svg PUBLIC "-//W3C//DTD SVG 1.1//EN"
  "http://www.w3.org/Graphics/SVG/1.1/DTD/svg11.dtd">
<svg xmlns:xlink="http://www.w3.org/1999/xlink" width="567.006334pt" height="280.598828pt" viewBox="0 0 567.006334 280.598828" xmlns="http://www.w3.org/2000/svg" version="1.1">
 <metadata>
  <rdf:RDF xmlns:dc="http://purl.org/dc/elements/1.1/" xmlns:cc="http://creativecommons.org/ns#" xmlns:rdf="http://www.w3.org/1999/02/22-rdf-syntax-ns#">
   <cc:Work>
    <dc:type rdf:resource="http://purl.org/dc/dcmitype/StillImage"/>
    <dc:date>2026-07-06T14:44:52.889590</dc:date>
    <dc:format>image/svg+xml</dc:format>
    <dc:creator>
     <cc:Agent>
      <dc:title>Matplotlib v3.11.0, https://matplotlib.org/</dc:title>
     </cc:Agent>
    </dc:creator>
   </cc:Work>
  </rdf:RDF>
 </metadata>
 <defs>
  <style type="text/css">*{stroke-linejoin: round; stroke-linecap: butt}</style>
 </defs>
 <g id="figure_1">
  <g id="patch_1">
   <path d="M 0 280.598828 
L 567.006334 280.598828 
L 567.006334 0 
L 0 0 
L 0 280.598828 
z
" style="fill: none"/>
  </g>
  <g id="axes_1">
   <g id="patch_2">
    <path d="M 45.103125 241.397969 
L 468.765125 241.397969 
L 468.765125 23.077969 
L 45.103125 23.077969 
L 45.103125 241.397969 
z
" style="fill: none"/>
   </g>
   <g id="matplotlib.axis_1">
    <g id="xtick_1">
     <g id="line2d_1">
      <defs>
       <path id="m794dc543c6" d="M 0 0 
L 0 3.5 
" style="stroke: #1a1a1a; stroke-width: 0.8"/>
      </defs>
      <g>
       <use xlink:href="#m794dc543c6" x="53.250471" y="241.397969" style="fill: #1a1a1a; stroke: #1a1a1a; stroke-width: 0.8"/>
      </g>
     </g>
     <g id="text_1">
      <!-- 0.0 -->
      <g style="fill: #1a1a1a" transform="translate(45.298909 255.995625) scale(0.1 -0.1)">
       <defs>
        <path id="DejaVuSans-13" d="M 2034 4250 
Q 1547 4250 1301 3770 
Q 1056 3291 1056 2328 
Q 1056 1369 1301 889 
Q 1547 409 2034 409 
Q 2525 409 2770 889 
Q 3016 1369 3016 2328 
Q 3016 3291 2770 3770 
Q 2525 4250 2034 4250 
z
M 2034 4750 
Q 2819 4750 3233 4129 
Q 3647 3509 3647 2328 
Q 3647 1150 3233 529 
Q 2819 -91 2034 -91 
Q 1250 -91 836 529 
Q 422 1150 422 2328 
Q 422 3509 836 4129 
Q 1250 4750 2034 4750 
z
" transform="scale(0.015625)"/>
        <path id="DejaVuSans-11" d="M 684 794 
L 1344 794 
L 1344 0 
L 684 0 
L 684 794 
z
" transform="scale(0.015625)"/>
       </defs>
       <use xlink:href="#DejaVuSans-13"/>
       <use xlink:href="#DejaVuSans-11" transform="translate(63.625 0)"/>
       <use xlink:href="#DejaVuSans-13" transform="translate(95.40625 0)"/>
      </g>
     </g>
    </g>
    <g id="xtick_2">
     <g id="line2d_2">
      <g>
       <use xlink:href="#m794dc543c6" x="134.723933" y="241.397969" style="fill: #1a1a1a; stroke: #1a1a1a; stroke-width: 0.8"/>
      </g>
     </g>
     <g id="text_2">
      <!-- 0.2 -->
      <g style="fill: #1a1a1a" transform="translate(126.77237 255.995625) scale(0.1 -0.1)">
       <defs>
        <path id="DejaVuSans-15" d="M 1228 531 
L 3431 531 
L 3431 0 
L 469 0 
L 469 531 
Q 828 903 1448 1529 
Q 2069 2156 2228 2338 
Q 2531 2678 2651 2914 
Q 2772 3150 2772 3378 
Q 2772 3750 2511 3984 
Q 2250 4219 1831 4219 
Q 1534 4219 1204 4116 
Q 875 4013 500 3803 
L 500 4441 
Q 881 4594 1212 4672 
Q 1544 4750 1819 4750 
Q 2544 4750 2975 4387 
Q 3406 4025 3406 3419 
Q 3406 3131 3298 2873 
Q 3191 2616 2906 2266 
Q 2828 2175 2409 1742 
Q 1991 1309 1228 531 
z
" transform="scale(0.015625)"/>
       </defs>
       <use xlink:href="#DejaVuSans-13"/>
       <use xlink:href="#DejaVuSans-11" transform="translate(63.625 0)"/>
       <use xlink:href="#DejaVuSans-15" transform="translate(95.40625 0)"/>
      </g>
     </g>
    </g>
    <g id="xtick_3">
     <g id="line2d_3">
      <g>
       <use xlink:href="#m794dc543c6" x="216.197394" y="241.397969" style="fill: #1a1a1a; stroke: #1a1a1a; stroke-width: 0.8"/>
      </g>
     </g>
     <g id="text_3">
      <!-- 0.4 -->
      <g style="fill: #1a1a1a" transform="translate(208.245832 255.995625) scale(0.1 -0.1)">
       <defs>
        <path id="DejaVuSans-17" d="M 2419 4116 
L 825 1625 
L 2419 1625 
L 2419 4116 
z
M 2253 4666 
L 3047 4666 
L 3047 1625 
L 3713 1625 
L 3713 1100 
L 3047 1100 
L 3047 0 
L 2419 0 
L 2419 1100 
L 313 1100 
L 313 1709 
L 2253 4666 
z
" transform="scale(0.015625)"/>
       </defs>
       <use xlink:href="#DejaVuSans-13"/>
       <use xlink:href="#DejaVuSans-11" transform="translate(63.625 0)"/>
       <use xlink:href="#DejaVuSans-17" transform="translate(95.40625 0)"/>
      </g>
     </g>
    </g>
    <g id="xtick_4">
     <g id="line2d_4">
      <g>
       <use xlink:href="#m794dc543c6" x="297.670856" y="241.397969" style="fill: #1a1a1a; stroke: #1a1a1a; stroke-width: 0.8"/>
      </g>
     </g>
     <g id="text_4">
      <!-- 0.6 -->
      <g style="fill: #1a1a1a" transform="translate(289.719293 255.995625) scale(0.1 -0.1)">
       <defs>
        <path id="DejaVuSans-19" d="M 2113 2584 
Q 1688 2584 1439 2293 
Q 1191 2003 1191 1497 
Q 1191 994 1439 701 
Q 1688 409 2113 409 
Q 2538 409 2786 701 
Q 3034 994 3034 1497 
Q 3034 2003 2786 2293 
Q 2538 2584 2113 2584 
z
M 3366 4563 
L 3366 3988 
Q 3128 4100 2886 4159 
Q 2644 4219 2406 4219 
Q 1781 4219 1451 3797 
Q 1122 3375 1075 2522 
Q 1259 2794 1537 2939 
Q 1816 3084 2150 3084 
Q 2853 3084 3261 2657 
Q 3669 2231 3669 1497 
Q 3669 778 3244 343 
Q 2819 -91 2113 -91 
Q 1303 -91 875 529 
Q 447 1150 447 2328 
Q 447 3434 972 4092 
Q 1497 4750 2381 4750 
Q 2619 4750 2861 4703 
Q 3103 4656 3366 4563 
z
" transform="scale(0.015625)"/>
       </defs>
       <use xlink:href="#DejaVuSans-13"/>
       <use xlink:href="#DejaVuSans-11" transform="translate(63.625 0)"/>
       <use xlink:href="#DejaVuSans-19" transform="translate(95.40625 0)"/>
      </g>
     </g>
    </g>
    <g id="xtick_5">
     <g id="line2d_5">
      <g>
       <use xlink:href="#m794dc543c6" x="379.144317" y="241.397969" style="fill: #1a1a1a; stroke: #1a1a1a; stroke-width: 0.8"/>
      </g>
     </g>
     <g id="text_5">
      <!-- 0.8 -->
      <g style="fill: #1a1a1a" transform="translate(371.192755 255.995625) scale(0.1 -0.1)">
       <defs>
        <path id="DejaVuSans-1b" d="M 2034 2216 
Q 1584 2216 1326 1975 
Q 1069 1734 1069 1313 
Q 1069 891 1326 650 
Q 1584 409 2034 409 
Q 2484 409 2743 651 
Q 3003 894 3003 1313 
Q 3003 1734 2745 1975 
Q 2488 2216 2034 2216 
z
M 1403 2484 
Q 997 2584 770 2862 
Q 544 3141 544 3541 
Q 544 4100 942 4425 
Q 1341 4750 2034 4750 
Q 2731 4750 3128 4425 
Q 3525 4100 3525 3541 
Q 3525 3141 3298 2862 
Q 3072 2584 2669 2484 
Q 3125 2378 3379 2068 
Q 3634 1759 3634 1313 
Q 3634 634 3220 271 
Q 2806 -91 2034 -91 
Q 1263 -91 848 271 
Q 434 634 434 1313 
Q 434 1759 690 2068 
Q 947 2378 1403 2484 
z
M 1172 3481 
Q 1172 3119 1398 2916 
Q 1625 2713 2034 2713 
Q 2441 2713 2670 2916 
Q 2900 3119 2900 3481 
Q 2900 3844 2670 4047 
Q 2441 4250 2034 4250 
Q 1625 4250 1398 4047 
Q 1172 3844 1172 3481 
z
" transform="scale(0.015625)"/>
       </defs>
       <use xlink:href="#DejaVuSans-13"/>
       <use xlink:href="#DejaVuSans-11" transform="translate(63.625 0)"/>
       <use xlink:href="#DejaVuSans-1b" transform="translate(95.40625 0)"/>
      </g>
     </g>
    </g>
    <g id="xtick_6">
     <g id="line2d_6">
      <g>
       <use xlink:href="#m794dc543c6" x="460.617779" y="241.397969" style="fill: #1a1a1a; stroke: #1a1a1a; stroke-width: 0.8"/>
      </g>
     </g>
     <g id="text_6">
      <!-- 1.0 -->
      <g style="fill: #1a1a1a" transform="translate(452.666216 255.995625) scale(0.1 -0.1)">
       <defs>
        <path id="DejaVuSans-14" d="M 794 531 
L 1825 531 
L 1825 4091 
L 703 3866 
L 703 4441 
L 1819 4666 
L 2450 4666 
L 2450 531 
L 3481 531 
L 3481 0 
L 794 0 
L 794 531 
z
" transform="scale(0.015625)"/>
       </defs>
       <use xlink:href="#DejaVuSans-14"/>
       <use xlink:href="#DejaVuSans-11" transform="translate(63.625 0)"/>
       <use xlink:href="#DejaVuSans-13" transform="translate(95.40625 0)"/>
      </g>
     </g>
    </g>
    <g id="text_7">
     <!-- Model complexity -->
     <g style="fill: #1a1a1a" transform="translate(208.422406 270.75625) scale(0.11 -0.11)">
      <defs>
       <path id="DejaVuSans-30" d="M 628 4666 
L 1569 4666 
L 2759 1491 
L 3956 4666 
L 4897 4666 
L 4897 0 
L 4281 0 
L 4281 4097 
L 3078 897 
L 2444 897 
L 1241 4097 
L 1241 0 
L 628 0 
L 628 4666 
z
" transform="scale(0.015625)"/>
       <path id="DejaVuSans-52" d="M 1959 3097 
Q 1497 3097 1228 2736 
Q 959 2375 959 1747 
Q 959 1119 1226 758 
Q 1494 397 1959 397 
Q 2419 397 2687 759 
Q 2956 1122 2956 1747 
Q 2956 2369 2687 2733 
Q 2419 3097 1959 3097 
z
M 1959 3584 
Q 2709 3584 3137 3096 
Q 3566 2609 3566 1747 
Q 3566 888 3137 398 
Q 2709 -91 1959 -91 
Q 1206 -91 779 398 
Q 353 888 353 1747 
Q 353 2609 779 3096 
Q 1206 3584 1959 3584 
z
" transform="scale(0.015625)"/>
       <path id="DejaVuSans-47" d="M 2906 2969 
L 2906 4863 
L 3481 4863 
L 3481 0 
L 2906 0 
L 2906 525 
Q 2725 213 2448 61 
Q 2172 -91 1784 -91 
Q 1150 -91 751 415 
Q 353 922 353 1747 
Q 353 2572 751 3078 
Q 1150 3584 1784 3584 
Q 2172 3584 2448 3432 
Q 2725 3281 2906 2969 
z
M 947 1747 
Q 947 1113 1208 752 
Q 1469 391 1925 391 
Q 2381 391 2643 752 
Q 2906 1113 2906 1747 
Q 2906 2381 2643 2742 
Q 2381 3103 1925 3103 
Q 1469 3103 1208 2742 
Q 947 2381 947 1747 
z
" transform="scale(0.015625)"/>
       <path id="DejaVuSans-48" d="M 3597 1894 
L 3597 1613 
L 953 1613 
Q 991 1019 1311 708 
Q 1631 397 2203 397 
Q 2534 397 2845 478 
Q 3156 559 3463 722 
L 3463 178 
Q 3153 47 2828 -22 
Q 2503 -91 2169 -91 
Q 1331 -91 842 396 
Q 353 884 353 1716 
Q 353 2575 817 3079 
Q 1281 3584 2069 3584 
Q 2775 3584 3186 3129 
Q 3597 2675 3597 1894 
z
M 3022 2063 
Q 3016 2534 2758 2815 
Q 2500 3097 2075 3097 
Q 1594 3097 1305 2825 
Q 1016 2553 972 2059 
L 3022 2063 
z
" transform="scale(0.015625)"/>
       <path id="DejaVuSans-4f" d="M 603 4863 
L 1178 4863 
L 1178 0 
L 603 0 
L 603 4863 
z
" transform="scale(0.015625)"/>
       <path id="DejaVuSans-3" transform="scale(0.015625)"/>
       <path id="DejaVuSans-46" d="M 3122 3366 
L 3122 2828 
Q 2878 2963 2633 3030 
Q 2388 3097 2138 3097 
Q 1578 3097 1268 2742 
Q 959 2388 959 1747 
Q 959 1106 1268 751 
Q 1578 397 2138 397 
Q 2388 397 2633 464 
Q 2878 531 3122 666 
L 3122 134 
Q 2881 22 2623 -34 
Q 2366 -91 2075 -91 
Q 1284 -91 818 406 
Q 353 903 353 1747 
Q 353 2603 823 3093 
Q 1294 3584 2113 3584 
Q 2378 3584 2631 3529 
Q 2884 3475 3122 3366 
z
" transform="scale(0.015625)"/>
       <path id="DejaVuSans-50" d="M 3328 2828 
Q 3544 3216 3844 3400 
Q 4144 3584 4550 3584 
Q 5097 3584 5394 3201 
Q 5691 2819 5691 2113 
L 5691 0 
L 5113 0 
L 5113 2094 
Q 5113 2597 4934 2840 
Q 4756 3084 4391 3084 
Q 3944 3084 3684 2787 
Q 3425 2491 3425 1978 
L 3425 0 
L 2847 0 
L 2847 2094 
Q 2847 2600 2669 2842 
Q 2491 3084 2119 3084 
Q 1678 3084 1418 2786 
Q 1159 2488 1159 1978 
L 1159 0 
L 581 0 
L 581 3500 
L 1159 3500 
L 1159 2956 
Q 1356 3278 1631 3431 
Q 1906 3584 2284 3584 
Q 2666 3584 2933 3390 
Q 3200 3197 3328 2828 
z
" transform="scale(0.015625)"/>
       <path id="DejaVuSans-53" d="M 1159 525 
L 1159 -1331 
L 581 -1331 
L 581 3500 
L 1159 3500 
L 1159 2969 
Q 1341 3281 1617 3432 
Q 1894 3584 2278 3584 
Q 2916 3584 3314 3078 
Q 3713 2572 3713 1747 
Q 3713 922 3314 415 
Q 2916 -91 2278 -91 
Q 1894 -91 1617 61 
Q 1341 213 1159 525 
z
M 3116 1747 
Q 3116 2381 2855 2742 
Q 2594 3103 2138 3103 
Q 1681 3103 1420 2742 
Q 1159 2381 1159 1747 
Q 1159 1113 1420 752 
Q 1681 391 2138 391 
Q 2594 391 2855 752 
Q 3116 1113 3116 1747 
z
" transform="scale(0.015625)"/>
       <path id="DejaVuSans-5b" d="M 3513 3500 
L 2247 1797 
L 3578 0 
L 2900 0 
L 1881 1375 
L 863 0 
L 184 0 
L 1544 1831 
L 300 3500 
L 978 3500 
L 1906 2253 
L 2834 3500 
L 3513 3500 
z
" transform="scale(0.015625)"/>
       <path id="DejaVuSans-4c" d="M 603 3500 
L 1178 3500 
L 1178 0 
L 603 0 
L 603 3500 
z
M 603 4863 
L 1178 4863 
L 1178 4134 
L 603 4134 
L 603 4863 
z
" transform="scale(0.015625)"/>
       <path id="DejaVuSans-57" d="M 1172 4494 
L 1172 3500 
L 2356 3500 
L 2356 3053 
L 1172 3053 
L 1172 1153 
Q 1172 725 1289 603 
Q 1406 481 1766 481 
L 2356 481 
L 2356 0 
L 1766 0 
Q 1100 0 847 248 
Q 594 497 594 1153 
L 594 3053 
L 172 3053 
L 172 3500 
L 594 3500 
L 594 4494 
L 1172 4494 
z
" transform="scale(0.015625)"/>
       <path id="DejaVuSans-5c" d="M 2059 -325 
Q 1816 -950 1584 -1140 
Q 1353 -1331 966 -1331 
L 506 -1331 
L 506 -850 
L 844 -850 
Q 1081 -850 1212 -737 
Q 1344 -625 1503 -206 
L 1606 56 
L 191 3500 
L 800 3500 
L 1894 763 
L 2988 3500 
L 3597 3500 
L 2059 -325 
z
" transform="scale(0.015625)"/>
      </defs>
      <use xlink:href="#DejaVuSans-30"/>
      <use xlink:href="#DejaVuSans-52" transform="translate(86.28125 0)"/>
      <use xlink:href="#DejaVuSans-47" transform="translate(147.46875 0)"/>
      <use xlink:href="#DejaVuSans-48" transform="translate(210.953125 0)"/>
      <use xlink:href="#DejaVuSans-4f" transform="translate(272.484375 0)"/>
      <use xlink:href="#DejaVuSans-3" transform="translate(300.265625 0)"/>
      <use xlink:href="#DejaVuSans-46" transform="translate(332.046875 0)"/>
      <use xlink:href="#DejaVuSans-52" transform="translate(387.03125 0)"/>
      <use xlink:href="#DejaVuSans-50" transform="translate(448.21875 0)"/>
      <use xlink:href="#DejaVuSans-53" transform="translate(545.625 0)"/>
      <use xlink:href="#DejaVuSans-4f" transform="translate(609.109375 0)"/>
      <use xlink:href="#DejaVuSans-48" transform="translate(636.890625 0)"/>
      <use xlink:href="#DejaVuSans-5b" transform="translate(696.671875 0)"/>
      <use xlink:href="#DejaVuSans-4c" transform="translate(755.859375 0)"/>
      <use xlink:href="#DejaVuSans-57" transform="translate(783.640625 0)"/>
      <use xlink:href="#DejaVuSans-5c" transform="translate(822.84375 0)"/>
     </g>
    </g>
   </g>
   <g id="matplotlib.axis_2">
    <g id="ytick_1">
     <g id="line2d_7">
      <defs>
       <path id="mdd6b8be4e5" d="M 0 0 
L -3.5 0 
" style="stroke: #1a1a1a; stroke-width: 0.8"/>
      </defs>
      <g>
       <use xlink:href="#mdd6b8be4e5" x="45.103125" y="241.397969" style="fill: #1a1a1a; stroke: #1a1a1a; stroke-width: 0.8"/>
      </g>
     </g>
     <g id="text_8">
      <!-- 0.0 -->
      <g style="fill: #1a1a1a" transform="translate(22.2 245.196797) scale(0.1 -0.1)">
       <use xlink:href="#DejaVuSans-13"/>
       <use xlink:href="#DejaVuSans-11" transform="translate(63.625 0)"/>
       <use xlink:href="#DejaVuSans-13" transform="translate(95.40625 0)"/>
      </g>
     </g>
    </g>
    <g id="ytick_2">
     <g id="line2d_8">
      <g>
       <use xlink:href="#mdd6b8be4e5" x="45.103125" y="201.703423" style="fill: #1a1a1a; stroke: #1a1a1a; stroke-width: 0.8"/>
      </g>
     </g>
     <g id="text_9">
      <!-- 0.2 -->
      <g style="fill: #1a1a1a" transform="translate(22.2 205.502251) scale(0.1 -0.1)">
       <use xlink:href="#DejaVuSans-13"/>
       <use xlink:href="#DejaVuSans-11" transform="translate(63.625 0)"/>
       <use xlink:href="#DejaVuSans-15" transform="translate(95.40625 0)"/>
      </g>
     </g>
    </g>
    <g id="ytick_3">
     <g id="line2d_9">
      <g>
       <use xlink:href="#mdd6b8be4e5" x="45.103125" y="162.008878" style="fill: #1a1a1a; stroke: #1a1a1a; stroke-width: 0.8"/>
      </g>
     </g>
     <g id="text_10">
      <!-- 0.4 -->
      <g style="fill: #1a1a1a" transform="translate(22.2 165.807706) scale(0.1 -0.1)">
       <use xlink:href="#DejaVuSans-13"/>
       <use xlink:href="#DejaVuSans-11" transform="translate(63.625 0)"/>
       <use xlink:href="#DejaVuSans-17" transform="translate(95.40625 0)"/>
      </g>
     </g>
    </g>
    <g id="ytick_4">
     <g id="line2d_10">
      <g>
       <use xlink:href="#mdd6b8be4e5" x="45.103125" y="122.314332" style="fill: #1a1a1a; stroke: #1a1a1a; stroke-width: 0.8"/>
      </g>
     </g>
     <g id="text_11">
      <!-- 0.6 -->
      <g style="fill: #1a1a1a" transform="translate(22.2 126.113161) scale(0.1 -0.1)">
       <use xlink:href="#DejaVuSans-13"/>
       <use xlink:href="#DejaVuSans-11" transform="translate(63.625 0)"/>
       <use xlink:href="#DejaVuSans-19" transform="translate(95.40625 0)"/>
      </g>
     </g>
    </g>
    <g id="ytick_5">
     <g id="line2d_11">
      <g>
       <use xlink:href="#mdd6b8be4e5" x="45.103125" y="82.619787" style="fill: #1a1a1a; stroke: #1a1a1a; stroke-width: 0.8"/>
      </g>
     </g>
     <g id="text_12">
      <!-- 0.8 -->
      <g style="fill: #1a1a1a" transform="translate(22.2 86.418615) scale(0.1 -0.1)">
       <use xlink:href="#DejaVuSans-13"/>
       <use xlink:href="#DejaVuSans-11" transform="translate(63.625 0)"/>
       <use xlink:href="#DejaVuSans-1b" transform="translate(95.40625 0)"/>
      </g>
     </g>
    </g>
    <g id="ytick_6">
     <g id="line2d_12">
      <g>
       <use xlink:href="#mdd6b8be4e5" x="45.103125" y="42.925241" style="fill: #1a1a1a; stroke: #1a1a1a; stroke-width: 0.8"/>
      </g>
     </g>
     <g id="text_13">
      <!-- 1.0 -->
      <g style="fill: #1a1a1a" transform="translate(22.2 46.72407) scale(0.1 -0.1)">
       <use xlink:href="#DejaVuSans-14"/>
       <use xlink:href="#DejaVuSans-11" transform="translate(63.625 0)"/>
       <use xlink:href="#DejaVuSans-13" transform="translate(95.40625 0)"/>
      </g>
     </g>
    </g>
    <g id="text_14">
     <!-- Error -->
     <g style="fill: #1a1a1a" transform="translate(15.557422 145.644219) rotate(-90) scale(0.11 -0.11)">
      <defs>
       <path id="DejaVuSans-28" d="M 628 4666 
L 3578 4666 
L 3578 4134 
L 1259 4134 
L 1259 2753 
L 3481 2753 
L 3481 2222 
L 1259 2222 
L 1259 531 
L 3634 531 
L 3634 0 
L 628 0 
L 628 4666 
z
" transform="scale(0.015625)"/>
       <path id="DejaVuSans-55" d="M 2631 2963 
Q 2534 3019 2420 3045 
Q 2306 3072 2169 3072 
Q 1681 3072 1420 2755 
Q 1159 2438 1159 1844 
L 1159 0 
L 581 0 
L 581 3500 
L 1159 3500 
L 1159 2956 
Q 1341 3275 1631 3429 
Q 1922 3584 2338 3584 
Q 2397 3584 2469 3576 
Q 2541 3569 2628 3553 
L 2631 2963 
z
" transform="scale(0.015625)"/>
      </defs>
      <use xlink:href="#DejaVuSans-28"/>
      <use xlink:href="#DejaVuSans-55" transform="translate(63.1875 0)"/>
      <use xlink:href="#DejaVuSans-55" transform="translate(102.546875 0)"/>
      <use xlink:href="#DejaVuSans-52" transform="translate(141.453125 0)"/>
      <use xlink:href="#DejaVuSans-55" transform="translate(202.640625 0)"/>
     </g>
    </g>
   </g>
   <g id="line2d_13">
    <path d="M 53.250471 42.925241 
L 57.365292 46.914541 
L 61.480114 50.863341 
L 65.594935 54.771639 
L 69.709756 58.639438 
L 73.824578 62.466735 
L 77.939399 66.253533 
L 82.05422 69.999829 
L 86.169041 73.705626 
L 90.283863 77.370921 
L 94.398684 80.995717 
L 98.513505 84.580011 
L 102.628327 88.123806 
L 106.743148 91.627099 
L 110.857969 95.089893 
L 114.972791 98.512185 
L 119.087612 101.893978 
L 123.202433 105.235269 
L 127.317254 108.53606 
L 131.432076 111.796351 
L 135.546897 115.016141 
L 139.661718 118.195431 
L 143.77654 121.33422 
L 147.891361 124.432509 
L 152.006182 127.490297 
L 156.121003 130.507585 
L 160.235825 133.484372 
L 164.350646 136.420658 
L 168.465467 139.316445 
L 172.580289 142.17173 
L 176.69511 144.986515 
L 180.809931 147.7608 
L 184.924752 150.494584 
L 189.039574 153.187868 
L 193.154395 155.840651 
L 197.269216 158.452933 
L 201.384038 161.024716 
L 205.498859 163.555997 
L 209.61368 166.046778 
L 213.728501 168.497059 
L 217.843323 170.906839 
L 221.958144 173.276118 
L 226.072965 175.604898 
L 230.187787 177.893176 
L 234.302608 180.140954 
L 238.417429 182.348232 
L 242.53225 184.515009 
L 246.647072 186.641285 
L 250.761893 188.727061 
L 254.876714 190.772337 
L 258.991536 192.777112 
L 263.106357 194.741386 
L 267.221178 196.66516 
L 271.336 198.548434 
L 275.450821 200.391207 
L 279.565642 202.193479 
L 283.680463 203.955251 
L 287.795285 205.676523 
L 291.910106 207.357294 
L 296.024927 208.997564 
L 300.139749 210.597334 
L 304.25457 212.156604 
L 308.369391 213.675373 
L 312.484212 215.153641 
L 316.599034 216.591409 
L 320.713855 217.988677 
L 324.828676 219.345443 
L 328.943498 220.66171 
L 333.058319 221.937476 
L 337.17314 223.172741 
L 341.287961 224.367506 
L 345.402783 225.521771 
L 349.517604 226.635534 
L 353.632425 227.708798 
L 357.747247 228.741561 
L 361.862068 229.733823 
L 365.976889 230.685585 
L 370.09171 231.596846 
L 374.206532 232.467607 
L 378.321353 233.297868 
L 382.436174 234.087628 
L 386.550996 234.836887 
L 390.665817 235.545646 
L 394.780638 236.213904 
L 398.895459 236.841662 
L 403.010281 237.428919 
L 407.125102 237.975676 
L 411.239923 238.481932 
L 415.354745 238.947688 
L 419.469566 239.372943 
L 423.584387 239.757698 
L 427.699209 240.101953 
L 431.81403 240.405706 
L 435.928851 240.66896 
L 440.043672 240.891712 
L 444.158494 241.073965 
L 448.273315 241.215716 
L 452.388136 241.316968 
L 456.502958 241.377718 
L 460.617779 241.397969 
" clip-path="url(#p3912670f07)" style="fill: none; stroke: #e74c3c; stroke-width: 2; stroke-linecap: square"/>
   </g>
   <g id="line2d_14">
    <path d="M 53.250471 241.397969 
L 57.365292 241.377718 
L 61.480114 241.316968 
L 65.594935 241.215716 
L 69.709756 241.073965 
L 73.824578 240.891712 
L 77.939399 240.66896 
L 82.05422 240.405706 
L 86.169041 240.101953 
L 90.283863 239.757698 
L 94.398684 239.372943 
L 98.513505 238.947688 
L 102.628327 238.481932 
L 106.743148 237.975676 
L 110.857969 237.428919 
L 114.972791 236.841662 
L 119.087612 236.213904 
L 123.202433 235.545646 
L 127.317254 234.836887 
L 131.432076 234.087628 
L 135.546897 233.297868 
L 139.661718 232.467607 
L 143.77654 231.596846 
L 147.891361 230.685585 
L 152.006182 229.733823 
L 156.121003 228.741561 
L 160.235825 227.708798 
L 164.350646 226.635534 
L 168.465467 225.521771 
L 172.580289 224.367506 
L 176.69511 223.172741 
L 180.809931 221.937476 
L 184.924752 220.66171 
L 189.039574 219.345443 
L 193.154395 217.988677 
L 197.269216 216.591409 
L 201.384038 215.153641 
L 205.498859 213.675373 
L 209.61368 212.156604 
L 213.728501 210.597334 
L 217.843323 208.997564 
L 221.958144 207.357294 
L 226.072965 205.676523 
L 230.187787 203.955251 
L 234.302608 202.193479 
L 238.417429 200.391207 
L 242.53225 198.548434 
L 246.647072 196.66516 
L 250.761893 194.741386 
L 254.876714 192.777112 
L 258.991536 190.772337 
L 263.106357 188.727061 
L 267.221178 186.641285 
L 271.336 184.515009 
L 275.450821 182.348232 
L 279.565642 180.140954 
L 283.680463 177.893176 
L 287.795285 175.604898 
L 291.910106 173.276118 
L 296.024927 170.906839 
L 300.139749 168.497059 
L 304.25457 166.046778 
L 308.369391 163.555997 
L 312.484212 161.024716 
L 316.599034 158.452933 
L 320.713855 155.840651 
L 324.828676 153.187868 
L 328.943498 150.494584 
L 333.058319 147.7608 
L 337.17314 144.986515 
L 341.287961 142.17173 
L 345.402783 139.316445 
L 349.517604 136.420658 
L 353.632425 133.484372 
L 357.747247 130.507585 
L 361.862068 127.490297 
L 365.976889 124.432509 
L 370.09171 121.33422 
L 374.206532 118.195431 
L 378.321353 115.016141 
L 382.436174 111.796351 
L 386.550996 108.53606 
L 390.665817 105.235269 
L 394.780638 101.893978 
L 398.895459 98.512185 
L 403.010281 95.089893 
L 407.125102 91.627099 
L 411.239923 88.123806 
L 415.354745 84.580011 
L 419.469566 80.995717 
L 423.584387 77.370921 
L 427.699209 73.705626 
L 431.81403 69.999829 
L 435.928851 66.253533 
L 440.043672 62.466735 
L 444.158494 58.639438 
L 448.273315 54.771639 
L 452.388136 50.863341 
L 456.502958 46.914541 
L 460.617779 42.925241 
" clip-path="url(#p3912670f07)" style="fill: none; stroke: #3498db; stroke-width: 2; stroke-linecap: square"/>
   </g>
   <g id="line2d_15">
    <path d="M 53.250471 33.001605 
L 57.365292 36.970655 
L 61.480114 40.858703 
L 65.594935 44.665751 
L 69.709756 48.391797 
L 73.824578 52.036843 
L 77.939399 55.600887 
L 82.05422 59.083931 
L 86.169041 62.485973 
L 90.283863 65.807015 
L 94.398684 69.047055 
L 98.513505 72.206094 
L 102.628327 75.284133 
L 106.743148 78.28117 
L 110.857969 81.197207 
L 114.972791 84.032242 
L 119.087612 86.786276 
L 123.202433 89.45931 
L 127.317254 92.051342 
L 131.432076 94.562373 
L 135.546897 96.992404 
L 139.661718 99.341433 
L 143.77654 101.609461 
L 147.891361 103.796489 
L 152.006182 105.902515 
L 156.121003 107.92754 
L 160.235825 109.871565 
L 164.350646 111.734588 
L 168.465467 113.51661 
L 172.580289 115.217631 
L 176.69511 116.837652 
L 180.809931 118.376671 
L 184.924752 119.834689 
L 189.039574 121.211706 
L 193.154395 122.507722 
L 197.269216 123.722737 
L 201.384038 124.856752 
L 205.498859 125.909765 
L 209.61368 126.881777 
L 213.728501 127.772788 
L 217.843323 128.582798 
L 221.958144 129.311807 
L 226.072965 129.959815 
L 230.187787 130.526822 
L 234.302608 131.012828 
L 238.417429 131.417834 
L 242.53225 131.741838 
L 246.647072 131.984841 
L 250.761893 132.146843 
L 254.876714 132.227844 
L 258.991536 132.227844 
L 263.106357 132.146843 
L 267.221178 131.984841 
L 271.336 131.741838 
L 275.450821 131.417834 
L 279.565642 131.012828 
L 283.680463 130.526822 
L 287.795285 129.959815 
L 291.910106 129.311807 
L 296.024927 128.582798 
L 300.139749 127.772788 
L 304.25457 126.881777 
L 308.369391 125.909765 
L 312.484212 124.856752 
L 316.599034 123.722737 
L 320.713855 122.507722 
L 324.828676 121.211706 
L 328.943498 119.834689 
L 333.058319 118.376671 
L 337.17314 116.837652 
L 341.287961 115.217631 
L 345.402783 113.51661 
L 349.517604 111.734588 
L 353.632425 109.871565 
L 357.747247 107.92754 
L 361.862068 105.902515 
L 365.976889 103.796489 
L 370.09171 101.609461 
L 374.206532 99.341433 
L 378.321353 96.992404 
L 382.436174 94.562373 
L 386.550996 92.051342 
L 390.665817 89.45931 
L 394.780638 86.786276 
L 398.895459 84.032242 
L 403.010281 81.197207 
L 407.125102 78.28117 
L 411.239923 75.284133 
L 415.354745 72.206094 
L 419.469566 69.047055 
L 423.584387 65.807015 
L 427.699209 62.485973 
L 431.81403 59.083931 
L 435.928851 55.600887 
L 440.043672 52.036843 
L 444.158494 48.391797 
L 448.273315 44.665751 
L 452.388136 40.858703 
L 456.502958 36.970655 
L 460.617779 33.001605 
" clip-path="url(#p3912670f07)" style="fill: none; stroke-dasharray: 9.25,4; stroke-dashoffset: 0; stroke: #2c3e50; stroke-width: 2.5"/>
   </g>
   <g id="line2d_16">
    <path d="M 236.56576 241.397969 
L 236.56576 23.077969 
" clip-path="url(#p3912670f07)" style="fill: none; stroke-dasharray: 1.5,2.475; stroke-dashoffset: 0; stroke: #808080; stroke-opacity: 0.3; stroke-width: 1.5"/>
   </g>
   <g id="patch_3">
    <path d="M 45.103125 241.397969 
L 45.103125 23.077969 
" style="fill: none; stroke: #000000; stroke-width: 0.8; stroke-linejoin: miter; stroke-linecap: square"/>
   </g>
   <g id="patch_4">
    <path d="M 468.765125 241.397969 
L 468.765125 23.077969 
" style="fill: none; stroke: #000000; stroke-width: 0.8; stroke-linejoin: miter; stroke-linecap: square"/>
   </g>
   <g id="patch_5">
    <path d="M 45.103125 241.397969 
L 468.765125 241.397969 
" style="fill: none; stroke: #000000; stroke-width: 0.8; stroke-linejoin: miter; stroke-linecap: square"/>
   </g>
   <g id="patch_6">
    <path d="M 45.103125 23.077969 
L 468.765125 23.077969 
" style="fill: none; stroke: #000000; stroke-width: 0.8; stroke-linejoin: miter; stroke-linecap: square"/>
   </g>
   <g id="text_15">
    <!-- Sweet spot -->
    <g style="fill: #808080" transform="translate(211.578103 52.848878) scale(0.09 -0.09)">
     <defs>
      <path id="DejaVuSans-Oblique-36" d="M 3859 4513 
L 3738 3897 
Q 3422 4066 3111 4152 
Q 2800 4238 2509 4238 
Q 1944 4238 1609 3991 
Q 1275 3744 1275 3334 
Q 1275 3109 1398 2989 
Q 1522 2869 2034 2731 
L 2413 2638 
Q 3053 2472 3303 2217 
Q 3553 1963 3553 1503 
Q 3553 797 2998 353 
Q 2444 -91 1538 -91 
Q 1166 -91 791 -17 
Q 416 56 38 206 
L 166 856 
Q 513 641 861 531 
Q 1209 422 1556 422 
Q 2147 422 2503 684 
Q 2859 947 2859 1369 
Q 2859 1650 2717 1795 
Q 2575 1941 2106 2059 
L 1728 2156 
Q 1081 2325 845 2545 
Q 609 2766 609 3163 
Q 609 3859 1145 4304 
Q 1681 4750 2541 4750 
Q 2875 4750 3203 4690 
Q 3531 4631 3859 4513 
z
" transform="scale(0.015625)"/>
      <path id="DejaVuSans-Oblique-5a" d="M 544 3500 
L 1113 3500 
L 1259 684 
L 2566 3500 
L 3231 3500 
L 3425 684 
L 4666 3500 
L 5241 3500 
L 3641 0 
L 2969 0 
L 2797 2900 
L 1459 0 
L 781 0 
L 544 3500 
z
" transform="scale(0.015625)"/>
      <path id="DejaVuSans-Oblique-48" d="M 3078 2063 
Q 3088 2113 3092 2166 
Q 3097 2219 3097 2272 
Q 3097 2653 2873 2875 
Q 2650 3097 2266 3097 
Q 1838 3097 1509 2826 
Q 1181 2556 1013 2059 
L 3078 2063 
z
M 3578 1613 
L 903 1613 
Q 884 1494 878 1425 
Q 872 1356 872 1306 
Q 872 872 1139 634 
Q 1406 397 1894 397 
Q 2269 397 2603 481 
Q 2938 566 3225 728 
L 3116 159 
Q 2806 34 2476 -28 
Q 2147 -91 1806 -91 
Q 1078 -91 686 257 
Q 294 606 294 1247 
Q 294 1794 489 2264 
Q 684 2734 1063 3103 
Q 1306 3334 1642 3459 
Q 1978 3584 2356 3584 
Q 2950 3584 3301 3228 
Q 3653 2872 3653 2272 
Q 3653 2128 3634 1964 
Q 3616 1800 3578 1613 
z
" transform="scale(0.015625)"/>
      <path id="DejaVuSans-Oblique-57" d="M 2706 3500 
L 2619 3053 
L 1472 3053 
L 1100 1153 
Q 1081 1047 1072 975 
Q 1063 903 1063 863 
Q 1063 663 1183 572 
Q 1303 481 1569 481 
L 2150 481 
L 2053 0 
L 1503 0 
Q 991 0 739 200 
Q 488 400 488 806 
Q 488 878 497 964 
Q 506 1050 525 1153 
L 897 3053 
L 409 3053 
L 500 3500 
L 978 3500 
L 1172 4494 
L 1747 4494 
L 1556 3500 
L 2706 3500 
z
" transform="scale(0.015625)"/>
      <path id="DejaVuSans-Oblique-3" transform="scale(0.015625)"/>
      <path id="DejaVuSans-Oblique-56" d="M 3200 3397 
L 3091 2853 
Q 2863 2978 2609 3040 
Q 2356 3103 2088 3103 
Q 1634 3103 1373 2948 
Q 1113 2794 1113 2528 
Q 1113 2219 1719 2053 
Q 1766 2041 1788 2034 
L 1972 1978 
Q 2547 1819 2739 1644 
Q 2931 1469 2931 1166 
Q 2931 609 2489 259 
Q 2047 -91 1331 -91 
Q 1053 -91 747 -37 
Q 441 16 72 128 
L 184 722 
Q 500 559 806 475 
Q 1113 391 1394 391 
Q 1816 391 2080 572 
Q 2344 753 2344 1031 
Q 2344 1331 1650 1516 
L 1591 1531 
L 1394 1581 
Q 956 1697 753 1886 
Q 550 2075 550 2369 
Q 550 2928 970 3256 
Q 1391 3584 2113 3584 
Q 2397 3584 2667 3537 
Q 2938 3491 3200 3397 
z
" transform="scale(0.015625)"/>
      <path id="DejaVuSans-Oblique-53" d="M 3175 2156 
Q 3175 2616 2975 2859 
Q 2775 3103 2400 3103 
Q 2144 3103 1911 2972 
Q 1678 2841 1497 2591 
Q 1319 2344 1212 1994 
Q 1106 1644 1106 1300 
Q 1106 863 1306 627 
Q 1506 391 1875 391 
Q 2147 391 2380 519 
Q 2613 647 2778 891 
Q 2956 1147 3065 1494 
Q 3175 1841 3175 2156 
z
M 1394 2969 
Q 1625 3272 1939 3428 
Q 2253 3584 2638 3584 
Q 3175 3584 3472 3232 
Q 3769 2881 3769 2247 
Q 3769 1728 3584 1258 
Q 3400 788 3053 416 
Q 2822 169 2531 39 
Q 2241 -91 1919 -91 
Q 1547 -91 1294 64 
Q 1041 219 916 525 
L 556 -1331 
L -19 -1331 
L 922 3500 
L 1497 3500 
L 1394 2969 
z
" transform="scale(0.015625)"/>
      <path id="DejaVuSans-Oblique-52" d="M 1625 -91 
Q 1009 -91 651 289 
Q 294 669 294 1325 
Q 294 1706 417 2101 
Q 541 2497 738 2766 
Q 1047 3184 1428 3384 
Q 1809 3584 2291 3584 
Q 2888 3584 3255 3212 
Q 3622 2841 3622 2241 
Q 3622 1825 3500 1412 
Q 3378 1000 3181 728 
Q 2875 309 2494 109 
Q 2113 -91 1625 -91 
z
M 891 1344 
Q 891 869 1089 633 
Q 1288 397 1691 397 
Q 2269 397 2648 901 
Q 3028 1406 3028 2181 
Q 3028 2634 2825 2865 
Q 2622 3097 2228 3097 
Q 1903 3097 1650 2945 
Q 1397 2794 1197 2484 
Q 1050 2253 970 1956 
Q 891 1659 891 1344 
z
" transform="scale(0.015625)"/>
     </defs>
     <use xlink:href="#DejaVuSans-Oblique-36"/>
     <use xlink:href="#DejaVuSans-Oblique-5a" transform="translate(63.484375 0)"/>
     <use xlink:href="#DejaVuSans-Oblique-48" transform="translate(145.265625 0)"/>
     <use xlink:href="#DejaVuSans-Oblique-48" transform="translate(206.796875 0)"/>
     <use xlink:href="#DejaVuSans-Oblique-57" transform="translate(268.328125 0)"/>
     <use xlink:href="#DejaVuSans-Oblique-3" transform="translate(307.53125 0)"/>
     <use xlink:href="#DejaVuSans-Oblique-56" transform="translate(339.3125 0)"/>
     <use xlink:href="#DejaVuSans-Oblique-53" transform="translate(391.40625 0)"/>
     <use xlink:href="#DejaVuSans-Oblique-52" transform="translate(454.890625 0)"/>
     <use xlink:href="#DejaVuSans-Oblique-57" transform="translate(516.078125 0)"/>
    </g>
   </g>
   <g id="text_16">
    <!-- Bias-Variance Tradeoff -->
    <g style="fill: #1a1a1a" transform="translate(175.134672 17.077969) scale(0.13 -0.13)">
     <defs>
      <path id="DejaVuSans-Bold-25" d="M 2456 2859 
Q 2741 2859 2887 2984 
Q 3034 3109 3034 3353 
Q 3034 3594 2887 3720 
Q 2741 3847 2456 3847 
L 1791 3847 
L 1791 2859 
L 2456 2859 
z
M 2497 819 
Q 2859 819 3042 972 
Q 3225 1125 3225 1434 
Q 3225 1738 3044 1889 
Q 2863 2041 2497 2041 
L 1791 2041 
L 1791 819 
L 2497 819 
z
M 3616 2497 
Q 4003 2384 4215 2081 
Q 4428 1778 4428 1338 
Q 4428 663 3972 331 
Q 3516 0 2584 0 
L 588 0 
L 588 4666 
L 2394 4666 
Q 3366 4666 3802 4372 
Q 4238 4078 4238 3431 
Q 4238 3091 4078 2852 
Q 3919 2613 3616 2497 
z
" transform="scale(0.015625)"/>
      <path id="DejaVuSans-Bold-4c" d="M 538 3500 
L 1656 3500 
L 1656 0 
L 538 0 
L 538 3500 
z
M 538 4863 
L 1656 4863 
L 1656 3950 
L 538 3950 
L 538 4863 
z
" transform="scale(0.015625)"/>
      <path id="DejaVuSans-Bold-44" d="M 2106 1575 
Q 1756 1575 1579 1456 
Q 1403 1338 1403 1106 
Q 1403 894 1545 773 
Q 1688 653 1941 653 
Q 2256 653 2472 879 
Q 2688 1106 2688 1447 
L 2688 1575 
L 2106 1575 
z
M 3816 1997 
L 3816 0 
L 2688 0 
L 2688 519 
Q 2463 200 2181 54 
Q 1900 -91 1497 -91 
Q 953 -91 614 226 
Q 275 544 275 1050 
Q 275 1666 698 1953 
Q 1122 2241 2028 2241 
L 2688 2241 
L 2688 2328 
Q 2688 2594 2478 2717 
Q 2269 2841 1825 2841 
Q 1466 2841 1156 2769 
Q 847 2697 581 2553 
L 581 3406 
Q 941 3494 1303 3539 
Q 1666 3584 2028 3584 
Q 2975 3584 3395 3211 
Q 3816 2838 3816 1997 
z
" transform="scale(0.015625)"/>
      <path id="DejaVuSans-Bold-56" d="M 3272 3391 
L 3272 2541 
Q 2913 2691 2578 2766 
Q 2244 2841 1947 2841 
Q 1628 2841 1473 2761 
Q 1319 2681 1319 2516 
Q 1319 2381 1436 2309 
Q 1553 2238 1856 2203 
L 2053 2175 
Q 2913 2066 3209 1816 
Q 3506 1566 3506 1031 
Q 3506 472 3093 190 
Q 2681 -91 1863 -91 
Q 1516 -91 1145 -36 
Q 775 19 384 128 
L 384 978 
Q 719 816 1070 734 
Q 1422 653 1784 653 
Q 2113 653 2278 743 
Q 2444 834 2444 1013 
Q 2444 1163 2330 1236 
Q 2216 1309 1875 1350 
L 1678 1375 
Q 931 1469 631 1722 
Q 331 1975 331 2491 
Q 331 3047 712 3315 
Q 1094 3584 1881 3584 
Q 2191 3584 2531 3537 
Q 2872 3491 3272 3391 
z
" transform="scale(0.015625)"/>
      <path id="DejaVuSans-Bold-10" d="M 347 2297 
L 2309 2297 
L 2309 1388 
L 347 1388 
L 347 2297 
z
" transform="scale(0.015625)"/>
      <path id="DejaVuSans-Bold-39" d="M 31 4666 
L 1241 4666 
L 2478 1222 
L 3713 4666 
L 4922 4666 
L 3194 0 
L 1759 0 
L 31 4666 
z
" transform="scale(0.015625)"/>
      <path id="DejaVuSans-Bold-55" d="M 3138 2547 
Q 2991 2616 2845 2648 
Q 2700 2681 2553 2681 
Q 2122 2681 1889 2404 
Q 1656 2128 1656 1613 
L 1656 0 
L 538 0 
L 538 3500 
L 1656 3500 
L 1656 2925 
Q 1872 3269 2151 3426 
Q 2431 3584 2822 3584 
Q 2878 3584 2943 3579 
Q 3009 3575 3134 3559 
L 3138 2547 
z
" transform="scale(0.015625)"/>
      <path id="DejaVuSans-Bold-51" d="M 4056 2131 
L 4056 0 
L 2931 0 
L 2931 347 
L 2931 1631 
Q 2931 2084 2911 2256 
Q 2891 2428 2841 2509 
Q 2775 2619 2662 2680 
Q 2550 2741 2406 2741 
Q 2056 2741 1856 2470 
Q 1656 2200 1656 1722 
L 1656 0 
L 538 0 
L 538 3500 
L 1656 3500 
L 1656 2988 
Q 1909 3294 2193 3439 
Q 2478 3584 2822 3584 
Q 3428 3584 3742 3212 
Q 4056 2841 4056 2131 
z
" transform="scale(0.015625)"/>
      <path id="DejaVuSans-Bold-46" d="M 3366 3391 
L 3366 2478 
Q 3138 2634 2908 2709 
Q 2678 2784 2431 2784 
Q 1963 2784 1702 2511 
Q 1441 2238 1441 1747 
Q 1441 1256 1702 982 
Q 1963 709 2431 709 
Q 2694 709 2930 787 
Q 3166 866 3366 1019 
L 3366 103 
Q 3103 6 2833 -42 
Q 2563 -91 2291 -91 
Q 1344 -91 809 395 
Q 275 881 275 1747 
Q 275 2613 809 3098 
Q 1344 3584 2291 3584 
Q 2566 3584 2833 3536 
Q 3100 3488 3366 3391 
z
" transform="scale(0.015625)"/>
      <path id="DejaVuSans-Bold-48" d="M 4031 1759 
L 4031 1441 
L 1416 1441 
Q 1456 1047 1700 850 
Q 1944 653 2381 653 
Q 2734 653 3104 758 
Q 3475 863 3866 1075 
L 3866 213 
Q 3469 63 3072 -14 
Q 2675 -91 2278 -91 
Q 1328 -91 801 392 
Q 275 875 275 1747 
Q 275 2603 792 3093 
Q 1309 3584 2216 3584 
Q 3041 3584 3536 3087 
Q 4031 2591 4031 1759 
z
M 2881 2131 
Q 2881 2450 2695 2645 
Q 2509 2841 2209 2841 
Q 1884 2841 1681 2658 
Q 1478 2475 1428 2131 
L 2881 2131 
z
" transform="scale(0.015625)"/>
      <path id="DejaVuSans-Bold-3" transform="scale(0.015625)"/>
      <path id="DejaVuSans-Bold-37" d="M 31 4666 
L 4331 4666 
L 4331 3756 
L 2784 3756 
L 2784 0 
L 1581 0 
L 1581 3756 
L 31 3756 
L 31 4666 
z
" transform="scale(0.015625)"/>
      <path id="DejaVuSans-Bold-47" d="M 2919 2988 
L 2919 4863 
L 4044 4863 
L 4044 0 
L 2919 0 
L 2919 506 
Q 2688 197 2409 53 
Q 2131 -91 1766 -91 
Q 1119 -91 703 423 
Q 288 938 288 1747 
Q 288 2556 703 3070 
Q 1119 3584 1766 3584 
Q 2128 3584 2408 3439 
Q 2688 3294 2919 2988 
z
M 2181 722 
Q 2541 722 2730 984 
Q 2919 1247 2919 1747 
Q 2919 2247 2730 2509 
Q 2541 2772 2181 2772 
Q 1825 2772 1636 2509 
Q 1447 2247 1447 1747 
Q 1447 1247 1636 984 
Q 1825 722 2181 722 
z
" transform="scale(0.015625)"/>
      <path id="DejaVuSans-Bold-52" d="M 2203 2784 
Q 1831 2784 1636 2517 
Q 1441 2250 1441 1747 
Q 1441 1244 1636 976 
Q 1831 709 2203 709 
Q 2569 709 2762 976 
Q 2956 1244 2956 1747 
Q 2956 2250 2762 2517 
Q 2569 2784 2203 2784 
z
M 2203 3584 
Q 3106 3584 3614 3096 
Q 4122 2609 4122 1747 
Q 4122 884 3614 396 
Q 3106 -91 2203 -91 
Q 1297 -91 786 396 
Q 275 884 275 1747 
Q 275 2609 786 3096 
Q 1297 3584 2203 3584 
z
" transform="scale(0.015625)"/>
      <path id="DejaVuSans-Bold-13aa" d="M 2841 4863 
L 2841 4128 
L 2222 4128 
Q 1984 4128 1891 4044 
Q 1797 3956 1797 3744 
L 1797 3500 
L 3078 3500 
L 3078 3744 
Q 3078 4316 3397 4588 
Q 3716 4863 4384 4863 
L 5241 4863 
L 5241 4128 
L 4622 4128 
Q 4384 4128 4291 4044 
Q 4197 3956 4197 3744 
L 4197 3500 
L 5153 3500 
L 5153 2700 
L 4197 2700 
L 4197 0 
L 3078 0 
L 3078 2700 
L 1797 2700 
L 1797 0 
L 678 0 
L 678 2700 
L 122 2700 
L 122 3500 
L 678 3500 
L 678 3744 
Q 678 4316 997 4588 
Q 1316 4863 1984 4863 
L 2841 4863 
z
" transform="scale(0.015625)"/>
     </defs>
     <use xlink:href="#DejaVuSans-Bold-25"/>
     <use xlink:href="#DejaVuSans-Bold-4c" transform="translate(76.21875 0)"/>
     <use xlink:href="#DejaVuSans-Bold-44" transform="translate(110.5 0)"/>
     <use xlink:href="#DejaVuSans-Bold-56" transform="translate(177.984375 0)"/>
     <use xlink:href="#DejaVuSans-Bold-10" transform="translate(237.5 0)"/>
     <use xlink:href="#DejaVuSans-Bold-39" transform="translate(271.71875 0)"/>
     <use xlink:href="#DejaVuSans-Bold-44" transform="translate(343.640625 0)"/>
     <use xlink:href="#DejaVuSans-Bold-55" transform="translate(411.125 0)"/>
     <use xlink:href="#DejaVuSans-Bold-4c" transform="translate(460.4375 0)"/>
     <use xlink:href="#DejaVuSans-Bold-44" transform="translate(494.71875 0)"/>
     <use xlink:href="#DejaVuSans-Bold-51" transform="translate(562.203125 0)"/>
     <use xlink:href="#DejaVuSans-Bold-46" transform="translate(633.390625 0)"/>
     <use xlink:href="#DejaVuSans-Bold-48" transform="translate(692.671875 0)"/>
     <use xlink:href="#DejaVuSans-Bold-3" transform="translate(760.5 0)"/>
     <use xlink:href="#DejaVuSans-Bold-37" transform="translate(795.3125 0)"/>
     <use xlink:href="#DejaVuSans-Bold-55" transform="translate(852.546875 0)"/>
     <use xlink:href="#DejaVuSans-Bold-44" transform="translate(901.859375 0)"/>
     <use xlink:href="#DejaVuSans-Bold-47" transform="translate(969.34375 0)"/>
     <use xlink:href="#DejaVuSans-Bold-48" transform="translate(1040.921875 0)"/>
     <use xlink:href="#DejaVuSans-Bold-52" transform="translate(1108.75 0)"/>
     <use xlink:href="#DejaVuSans-Bold-13aa" transform="translate(1177.453125 0)"/>
    </g>
   </g>
   <g id="legend_1">
    <g id="patch_7">
     <path d="M 483.538365 70.780078 
L 558.006334 70.780078 
Q 559.806334 70.780078 559.806334 68.980078 
L 559.806334 29.377969 
Q 559.806334 27.577969 558.006334 27.577969 
L 483.538365 27.577969 
Q 481.738365 27.577969 481.738365 29.377969 
L 481.738365 68.980078 
Q 481.738365 70.780078 483.538365 70.780078 
z
" style="fill: #ffffff; opacity: 0.9; stroke: #cccccc; stroke-linejoin: miter"/>
    </g>
    <g id="line2d_17">
     <path d="M 485.338365 34.866562 
L 494.338365 34.866562 
L 503.338365 34.866562 
" style="fill: none; stroke: #e74c3c; stroke-width: 2; stroke-linecap: square"/>
    </g>
    <g id="text_17">
     <!-- Bias -->
     <g style="fill: #1a1a1a" transform="translate(510.538365 38.016562) scale(0.09 -0.09)">
      <defs>
       <path id="DejaVuSans-25" d="M 1259 2228 
L 1259 519 
L 2272 519 
Q 2781 519 3026 730 
Q 3272 941 3272 1375 
Q 3272 1813 3026 2020 
Q 2781 2228 2272 2228 
L 1259 2228 
z
M 1259 4147 
L 1259 2741 
L 2194 2741 
Q 2656 2741 2882 2914 
Q 3109 3088 3109 3444 
Q 3109 3797 2882 3972 
Q 2656 4147 2194 4147 
L 1259 4147 
z
M 628 4666 
L 2241 4666 
Q 2963 4666 3353 4366 
Q 3744 4066 3744 3513 
Q 3744 3084 3544 2831 
Q 3344 2578 2956 2516 
Q 3422 2416 3680 2098 
Q 3938 1781 3938 1306 
Q 3938 681 3513 340 
Q 3088 0 2303 0 
L 628 0 
L 628 4666 
z
" transform="scale(0.015625)"/>
       <path id="DejaVuSans-44" d="M 2194 1759 
Q 1497 1759 1228 1600 
Q 959 1441 959 1056 
Q 959 750 1161 570 
Q 1363 391 1709 391 
Q 2188 391 2477 730 
Q 2766 1069 2766 1631 
L 2766 1759 
L 2194 1759 
z
M 3341 1997 
L 3341 0 
L 2766 0 
L 2766 531 
Q 2569 213 2275 61 
Q 1981 -91 1556 -91 
Q 1019 -91 701 211 
Q 384 513 384 1019 
Q 384 1609 779 1909 
Q 1175 2209 1959 2209 
L 2766 2209 
L 2766 2266 
Q 2766 2663 2505 2880 
Q 2244 3097 1772 3097 
Q 1472 3097 1187 3025 
Q 903 2953 641 2809 
L 641 3341 
Q 956 3463 1253 3523 
Q 1550 3584 1831 3584 
Q 2591 3584 2966 3190 
Q 3341 2797 3341 1997 
z
" transform="scale(0.015625)"/>
       <path id="DejaVuSans-56" d="M 2834 3397 
L 2834 2853 
Q 2591 2978 2328 3040 
Q 2066 3103 1784 3103 
Q 1356 3103 1142 2972 
Q 928 2841 928 2578 
Q 928 2378 1081 2264 
Q 1234 2150 1697 2047 
L 1894 2003 
Q 2506 1872 2764 1633 
Q 3022 1394 3022 966 
Q 3022 478 2636 193 
Q 2250 -91 1575 -91 
Q 1294 -91 989 -36 
Q 684 19 347 128 
L 347 722 
Q 666 556 975 473 
Q 1284 391 1588 391 
Q 1994 391 2212 530 
Q 2431 669 2431 922 
Q 2431 1156 2273 1281 
Q 2116 1406 1581 1522 
L 1381 1569 
Q 847 1681 609 1914 
Q 372 2147 372 2553 
Q 372 3047 722 3315 
Q 1072 3584 1716 3584 
Q 2034 3584 2315 3537 
Q 2597 3491 2834 3397 
z
" transform="scale(0.015625)"/>
      </defs>
      <use xlink:href="#DejaVuSans-25"/>
      <use xlink:href="#DejaVuSans-4c" transform="translate(68.609375 0)"/>
      <use xlink:href="#DejaVuSans-44" transform="translate(96.390625 0)"/>
      <use xlink:href="#DejaVuSans-56" transform="translate(157.671875 0)"/>
     </g>
    </g>
    <g id="line2d_18">
     <path d="M 485.338365 48.367266 
L 494.338365 48.367266 
L 503.338365 48.367266 
" style="fill: none; stroke: #3498db; stroke-width: 2; stroke-linecap: square"/>
    </g>
    <g id="text_18">
     <!-- Variance -->
     <g style="fill: #1a1a1a" transform="translate(510.538365 51.517266) scale(0.09 -0.09)">
      <defs>
       <path id="DejaVuSans-39" d="M 1831 0 
L 50 4666 
L 709 4666 
L 2188 738 
L 3669 4666 
L 4325 4666 
L 2547 0 
L 1831 0 
z
" transform="scale(0.015625)"/>
       <path id="DejaVuSans-51" d="M 3513 2113 
L 3513 0 
L 2938 0 
L 2938 2094 
Q 2938 2591 2744 2837 
Q 2550 3084 2163 3084 
Q 1697 3084 1428 2787 
Q 1159 2491 1159 1978 
L 1159 0 
L 581 0 
L 581 3500 
L 1159 3500 
L 1159 2956 
Q 1366 3272 1645 3428 
Q 1925 3584 2291 3584 
Q 2894 3584 3203 3211 
Q 3513 2838 3513 2113 
z
" transform="scale(0.015625)"/>
      </defs>
      <use xlink:href="#DejaVuSans-39"/>
      <use xlink:href="#DejaVuSans-44" transform="translate(60.640625 0)"/>
      <use xlink:href="#DejaVuSans-55" transform="translate(121.921875 0)"/>
      <use xlink:href="#DejaVuSans-4c" transform="translate(163.03125 0)"/>
      <use xlink:href="#DejaVuSans-44" transform="translate(190.8125 0)"/>
      <use xlink:href="#DejaVuSans-51" transform="translate(252.09375 0)"/>
      <use xlink:href="#DejaVuSans-46" transform="translate(315.46875 0)"/>
      <use xlink:href="#DejaVuSans-48" transform="translate(370.453125 0)"/>
     </g>
    </g>
    <g id="line2d_19">
     <path d="M 485.338365 61.867969 
L 494.338365 61.867969 
L 503.338365 61.867969 
" style="fill: none; stroke-dasharray: 9.25,4; stroke-dashoffset: 0; stroke: #2c3e50; stroke-width: 2.5"/>
    </g>
    <g id="text_19">
     <!-- Total error -->
     <g style="fill: #1a1a1a" transform="translate(510.538365 65.017969) scale(0.09 -0.09)">
      <defs>
       <path id="DejaVuSans-37" d="M -19 4666 
L 3928 4666 
L 3928 4134 
L 2272 4134 
L 2272 0 
L 1638 0 
L 1638 4134 
L -19 4134 
L -19 4666 
z
" transform="scale(0.015625)"/>
      </defs>
      <use xlink:href="#DejaVuSans-37"/>
      <use xlink:href="#DejaVuSans-52" transform="translate(44.09375 0)"/>
      <use xlink:href="#DejaVuSans-57" transform="translate(105.28125 0)"/>
      <use xlink:href="#DejaVuSans-44" transform="translate(144.484375 0)"/>
      <use xlink:href="#DejaVuSans-4f" transform="translate(205.765625 0)"/>
      <use xlink:href="#DejaVuSans-3" transform="translate(233.546875 0)"/>
      <use xlink:href="#DejaVuSans-48" transform="translate(265.328125 0)"/>
      <use xlink:href="#DejaVuSans-55" transform="translate(326.859375 0)"/>
      <use xlink:href="#DejaVuSans-55" transform="translate(366.21875 0)"/>
      <use xlink:href="#DejaVuSans-52" transform="translate(405.125 0)"/>
      <use xlink:href="#DejaVuSans-55" transform="translate(466.3125 0)"/>
     </g>
    </g>
   </g>
  </g>
 </g>
 <defs>
  <clipPath id="p3912670f07">
   <rect x="45.103125" y="23.077969" width="423.662" height="218.32"/>
  </clipPath>
 </defs>
</svg>
