<?xml version="1.0" encoding="utf-8" standalone="no"?>
<!DOCTYPE svg PUBLIC "-//W3C//DTD SVG 1.1//EN"
  "http://www.w3.org/Graphics/SVG/1.1/DTD/svg11.dtd">
<svg xmlns:xlink="http://www.w3.org/1999/xlink" width="572.4pt" height="322.237813pt" viewBox="0 0 572.4 322.237813" xmlns="http://www.w3.org/2000/svg" version="1.1">
 <metadata>
  <rdf:RDF xmlns:dc="http://purl.org/dc/elements/1.1/" xmlns:cc="http://creativecommons.org/ns#" xmlns:rdf="http://www.w3.org/1999/02/22-rdf-syntax-ns#">
   <cc:Work>
    <dc:type rdf:resource="http://purl.org/dc/dcmitype/StillImage"/>
    <dc:date>2026-07-06T17:32:28.633677</dc:date>
    <dc:format>image/svg+xml</dc:format>
    <dc:creator>
     <cc:Agent>
      <dc:title>Matplotlib v3.11.0, https://matplotlib.org/</dc:title>
     </cc:Agent>
    </dc:creator>
   </cc:Work>
  </rdf:RDF>
 </metadata>
 <defs>
  <style type="text/css">*{stroke-linejoin: round; stroke-linecap: butt}</style>
 </defs>
 <g id="figure_1">
  <g id="patch_1">
   <path d="M 0 322.237813 
L 572.4 322.237813 
L 572.4 0 
L 0 0 
L 0 322.237813 
z
" style="fill: none"/>
  </g>
  <g id="axes_1">
   <g id="patch_2">
    <path d="M 134.018182 84.415669 
Q 134.018182 89.119823 134.018182 91.58791 
" style="fill: none; stroke: #888888; stroke-width: 2; stroke-linecap: round"/>
    <path d="M 136.018182 87.58791 
L 134.018182 91.58791 
L 132.018182 87.58791 
" style="fill: none; stroke: #888888; stroke-width: 2; stroke-linecap: round"/>
   </g>
   <g id="patch_3">
    <path d="M 75.388768 136.320455 
Q 102.311277 144.559091 127.095593 152.143411 
" style="fill: none; stroke: #888888; stroke-width: 2; stroke-linecap: round"/>
    <path d="M 123.855913 149.060479 
L 127.095593 152.143411 
L 122.685439 152.885396 
" style="fill: none; stroke: #888888; stroke-width: 2; stroke-linecap: round"/>
   </g>
   <g id="patch_4">
    <path d="M 192.647596 136.320455 
Q 165.725086 144.559091 140.94077 152.143411 
" style="fill: none; stroke: #888888; stroke-width: 2; stroke-linecap: round"/>
    <path d="M 145.350924 152.885396 
L 140.94077 152.143411 
L 144.18045 149.060479 
" style="fill: none; stroke: #888888; stroke-width: 2; stroke-linecap: round"/>
   </g>
   <g id="patch_5">
    <path d="M 134.018182 195.295669 
Q 134.018182 199.999823 134.018182 202.46791 
" style="fill: none; stroke: #888888; stroke-width: 2; stroke-linecap: round"/>
    <path d="M 136.018182 198.46791 
L 134.018182 202.46791 
L 132.018182 198.46791 
" style="fill: none; stroke: #888888; stroke-width: 2; stroke-linecap: round"/>
   </g>
   <g id="patch_6">
    <path d="M 134.018182 250.735669 
Q 134.018182 255.439823 134.018182 257.90791 
" style="fill: none; stroke: #888888; stroke-width: 2; stroke-linecap: round"/>
    <path d="M 136.018182 253.90791 
L 134.018182 257.90791 
L 132.018182 253.90791 
" style="fill: none; stroke: #888888; stroke-width: 2; stroke-linecap: round"/>
   </g>
   <g id="patch_7">
    <path d="M 103.581818 75.259812 
L 164.454545 75.259812 
Q 165.722727 75.259812 165.722727 73.873812 
L 165.722727 57.241812 
Q 165.722727 55.855812 164.454545 55.855812 
L 103.581818 55.855812 
Q 102.313636 55.855812 102.313636 57.241812 
L 102.313636 73.873812 
Q 102.313636 75.259812 103.581818 75.259812 
z
" clip-path="url(#p3f19a07e5d)" style="fill: #e0e0e0; stroke: #555555; stroke-width: 1.5; stroke-linejoin: miter"/>
   </g>
   <g id="patch_8">
    <path d="M 97.240909 186.139813 
L 170.795455 186.139813 
Q 172.063636 186.139813 172.063636 184.753813 
L 172.063636 168.121812 
Q 172.063636 166.735812 170.795455 166.735812 
L 97.240909 166.735812 
Q 95.972727 166.735812 95.972727 168.121812 
L 95.972727 184.753813 
Q 95.972727 186.139813 97.240909 186.139813 
z
" clip-path="url(#p3f19a07e5d)" style="fill: #e0e0e0; stroke: #555555; stroke-width: 1.5; stroke-linejoin: miter"/>
   </g>
   <g id="patch_9">
    <path d="M 103.581818 241.579813 
L 164.454545 241.579813 
Q 165.722727 241.579813 165.722727 240.193813 
L 165.722727 223.561813 
Q 165.722727 222.175813 164.454545 222.175813 
L 103.581818 222.175813 
Q 102.313636 222.175813 102.313636 223.561813 
L 102.313636 240.193813 
Q 102.313636 241.579813 103.581818 241.579813 
z
" clip-path="url(#p3f19a07e5d)" style="fill: #e0e0e0; stroke: #555555; stroke-width: 1.5; stroke-linejoin: miter"/>
   </g>
   <g id="patch_10">
    <path d="M 97.240909 297.019813 
L 170.795455 297.019813 
Q 172.063636 297.019813 172.063636 295.633813 
L 172.063636 279.001813 
Q 172.063636 277.615813 170.795455 277.615813 
L 97.240909 277.615813 
Q 95.972727 277.615813 95.972727 279.001813 
L 95.972727 295.633813 
Q 95.972727 297.019813 97.240909 297.019813 
z
" clip-path="url(#p3f19a07e5d)" style="fill: #e0e0e0; stroke: #555555; stroke-width: 1.5; stroke-linejoin: miter"/>
   </g>
   <g id="text_1">
    <!-- Input -->
    <g style="fill: #1a1a1a" transform="translate(122.365994 67.895703) scale(0.09 -0.09)">
     <defs>
      <path id="DejaVuSans-2c" d="M 628 4666 
L 1259 4666 
L 1259 0 
L 628 0 
L 628 4666 
z
" transform="scale(0.015625)"/>
      <path id="DejaVuSans-51" d="M 3513 2113 
L 3513 0 
L 2938 0 
L 2938 2094 
Q 2938 2591 2744 2837 
Q 2550 3084 2163 3084 
Q 1697 3084 1428 2787 
Q 1159 2491 1159 1978 
L 1159 0 
L 581 0 
L 581 3500 
L 1159 3500 
L 1159 2956 
Q 1366 3272 1645 3428 
Q 1925 3584 2291 3584 
Q 2894 3584 3203 3211 
Q 3513 2838 3513 2113 
z
" transform="scale(0.015625)"/>
      <path id="DejaVuSans-53" d="M 1159 525 
L 1159 -1331 
L 581 -1331 
L 581 3500 
L 1159 3500 
L 1159 2969 
Q 1341 3281 1617 3432 
Q 1894 3584 2278 3584 
Q 2916 3584 3314 3078 
Q 3713 2572 3713 1747 
Q 3713 922 3314 415 
Q 2916 -91 2278 -91 
Q 1894 -91 1617 61 
Q 1341 213 1159 525 
z
M 3116 1747 
Q 3116 2381 2855 2742 
Q 2594 3103 2138 3103 
Q 1681 3103 1420 2742 
Q 1159 2381 1159 1747 
Q 1159 1113 1420 752 
Q 1681 391 2138 391 
Q 2594 391 2855 752 
Q 3116 1113 3116 1747 
z
" transform="scale(0.015625)"/>
      <path id="DejaVuSans-58" d="M 544 1381 
L 544 3500 
L 1119 3500 
L 1119 1403 
Q 1119 906 1312 657 
Q 1506 409 1894 409 
Q 2359 409 2629 706 
Q 2900 1003 2900 1516 
L 2900 3500 
L 3475 3500 
L 3475 0 
L 2900 0 
L 2900 538 
Q 2691 219 2414 64 
Q 2138 -91 1772 -91 
Q 1169 -91 856 284 
Q 544 659 544 1381 
z
M 1991 3584 
L 1991 3584 
z
" transform="scale(0.015625)"/>
      <path id="DejaVuSans-57" d="M 1172 4494 
L 1172 3500 
L 2356 3500 
L 2356 3053 
L 1172 3053 
L 1172 1153 
Q 1172 725 1289 603 
Q 1406 481 1766 481 
L 2356 481 
L 2356 0 
L 1766 0 
Q 1100 0 847 248 
Q 594 497 594 1153 
L 594 3053 
L 172 3053 
L 172 3500 
L 594 3500 
L 594 4494 
L 1172 4494 
z
" transform="scale(0.015625)"/>
     </defs>
     <use xlink:href="#DejaVuSans-2c"/>
     <use xlink:href="#DejaVuSans-51" transform="translate(29.5 0)"/>
     <use xlink:href="#DejaVuSans-53" transform="translate(92.875 0)"/>
     <use xlink:href="#DejaVuSans-58" transform="translate(156.359375 0)"/>
     <use xlink:href="#DejaVuSans-57" transform="translate(219.734375 0)"/>
    </g>
   </g>
   <g id="text_2">
    <g id="patch_11">
     <path d="M 58.732216 125.319687 
L 82.485966 125.319687 
Q 84.885966 125.319687 84.885966 122.919687 
L 84.885966 114.919062 
Q 84.885966 112.519062 82.485966 112.519062 
L 58.732216 112.519062 
Q 56.332216 112.519062 56.332216 114.919062 
L 56.332216 122.919687 
Q 56.332216 125.319687 58.732216 125.319687 
z
" style="fill: #e8f4f8; stroke: #888888; stroke-linejoin: miter"/>
    </g>
    <!-- Q Proj -->
    <g style="fill: #2c3e50" transform="translate(58.732216 120.997812) scale(0.08 -0.08)">
     <defs>
      <path id="DejaVuSans-34" d="M 2522 4238 
Q 1834 4238 1429 3725 
Q 1025 3213 1025 2328 
Q 1025 1447 1429 934 
Q 1834 422 2522 422 
Q 3209 422 3611 934 
Q 4013 1447 4013 2328 
Q 4013 3213 3611 3725 
Q 3209 4238 2522 4238 
z
M 3406 84 
L 4238 -825 
L 3475 -825 
L 2784 -78 
Q 2681 -84 2626 -87 
Q 2572 -91 2522 -91 
Q 1538 -91 948 567 
Q 359 1225 359 2328 
Q 359 3434 948 4092 
Q 1538 4750 2522 4750 
Q 3503 4750 4090 4092 
Q 4678 3434 4678 2328 
Q 4678 1516 4351 937 
Q 4025 359 3406 84 
z
" transform="scale(0.015625)"/>
      <path id="DejaVuSans-3" transform="scale(0.015625)"/>
      <path id="DejaVuSans-33" d="M 1259 4147 
L 1259 2394 
L 2053 2394 
Q 2494 2394 2734 2622 
Q 2975 2850 2975 3272 
Q 2975 3691 2734 3919 
Q 2494 4147 2053 4147 
L 1259 4147 
z
M 628 4666 
L 2053 4666 
Q 2838 4666 3239 4311 
Q 3641 3956 3641 3272 
Q 3641 2581 3239 2228 
Q 2838 1875 2053 1875 
L 1259 1875 
L 1259 0 
L 628 0 
L 628 4666 
z
" transform="scale(0.015625)"/>
      <path id="DejaVuSans-55" d="M 2631 2963 
Q 2534 3019 2420 3045 
Q 2306 3072 2169 3072 
Q 1681 3072 1420 2755 
Q 1159 2438 1159 1844 
L 1159 0 
L 581 0 
L 581 3500 
L 1159 3500 
L 1159 2956 
Q 1341 3275 1631 3429 
Q 1922 3584 2338 3584 
Q 2397 3584 2469 3576 
Q 2541 3569 2628 3553 
L 2631 2963 
z
" transform="scale(0.015625)"/>
      <path id="DejaVuSans-52" d="M 1959 3097 
Q 1497 3097 1228 2736 
Q 959 2375 959 1747 
Q 959 1119 1226 758 
Q 1494 397 1959 397 
Q 2419 397 2687 759 
Q 2956 1122 2956 1747 
Q 2956 2369 2687 2733 
Q 2419 3097 1959 3097 
z
M 1959 3584 
Q 2709 3584 3137 3096 
Q 3566 2609 3566 1747 
Q 3566 888 3137 398 
Q 2709 -91 1959 -91 
Q 1206 -91 779 398 
Q 353 888 353 1747 
Q 353 2609 779 3096 
Q 1206 3584 1959 3584 
z
" transform="scale(0.015625)"/>
      <path id="DejaVuSans-4d" d="M 603 3500 
L 1178 3500 
L 1178 -63 
Q 1178 -731 923 -1031 
Q 669 -1331 103 -1331 
L -116 -1331 
L -116 -844 
L 38 -844 
Q 366 -844 484 -692 
Q 603 -541 603 -63 
L 603 3500 
z
M 603 4863 
L 1178 4863 
L 1178 4134 
L 603 4134 
L 603 4863 
z
" transform="scale(0.015625)"/>
     </defs>
     <use xlink:href="#DejaVuSans-34"/>
     <use xlink:href="#DejaVuSans-3" transform="translate(78.71875 0)"/>
     <use xlink:href="#DejaVuSans-33" transform="translate(110.5 0)"/>
     <use xlink:href="#DejaVuSans-55" transform="translate(169.046875 0)"/>
     <use xlink:href="#DejaVuSans-52" transform="translate(207.953125 0)"/>
     <use xlink:href="#DejaVuSans-4d" transform="translate(269.140625 0)"/>
    </g>
   </g>
   <g id="text_3">
    <g id="patch_12">
     <path d="M 122.666932 125.319687 
L 145.369432 125.319687 
Q 147.769432 125.319687 147.769432 122.919687 
L 147.769432 114.919062 
Q 147.769432 112.519062 145.369432 112.519062 
L 122.666932 112.519062 
Q 120.266932 112.519062 120.266932 114.919062 
L 120.266932 122.919687 
Q 120.266932 125.319687 122.666932 125.319687 
z
" style="fill: #e8f4f8; stroke: #888888; stroke-linejoin: miter"/>
    </g>
    <!-- K Proj -->
    <g style="fill: #2c3e50" transform="translate(122.666932 120.997812) scale(0.08 -0.08)">
     <defs>
      <path id="DejaVuSans-2e" d="M 628 4666 
L 1259 4666 
L 1259 2694 
L 3353 4666 
L 4166 4666 
L 1850 2491 
L 4331 0 
L 3500 0 
L 1259 2247 
L 1259 0 
L 628 0 
L 628 4666 
z
" transform="scale(0.015625)"/>
     </defs>
     <use xlink:href="#DejaVuSans-2e"/>
     <use xlink:href="#DejaVuSans-3" transform="translate(65.578125 0)"/>
     <use xlink:href="#DejaVuSans-33" transform="translate(97.359375 0)"/>
     <use xlink:href="#DejaVuSans-55" transform="translate(155.90625 0)"/>
     <use xlink:href="#DejaVuSans-52" transform="translate(194.8125 0)"/>
     <use xlink:href="#DejaVuSans-4d" transform="translate(256 0)"/>
    </g>
   </g>
   <g id="text_4">
    <g id="patch_13">
     <path d="M 185.962898 125.319687 
L 208.891648 125.319687 
Q 211.291648 125.319687 211.291648 122.919687 
L 211.291648 114.919062 
Q 211.291648 112.519062 208.891648 112.519062 
L 185.962898 112.519062 
Q 183.562898 112.519062 183.562898 114.919062 
L 183.562898 122.919687 
Q 183.562898 125.319687 185.962898 125.319687 
z
" style="fill: #e8f4f8; stroke: #888888; stroke-linejoin: miter"/>
    </g>
    <!-- V Proj -->
    <g style="fill: #2c3e50" transform="translate(185.962898 120.997812) scale(0.08 -0.08)">
     <defs>
      <path id="DejaVuSans-39" d="M 1831 0 
L 50 4666 
L 709 4666 
L 2188 738 
L 3669 4666 
L 4325 4666 
L 2547 0 
L 1831 0 
z
" transform="scale(0.015625)"/>
     </defs>
     <use xlink:href="#DejaVuSans-39"/>
     <use xlink:href="#DejaVuSans-3" transform="translate(68.40625 0)"/>
     <use xlink:href="#DejaVuSans-33" transform="translate(100.1875 0)"/>
     <use xlink:href="#DejaVuSans-55" transform="translate(158.734375 0)"/>
     <use xlink:href="#DejaVuSans-52" transform="translate(197.640625 0)"/>
     <use xlink:href="#DejaVuSans-4d" transform="translate(258.828125 0)"/>
    </g>
   </g>
   <g id="text_5">
    <!-- Q · Kᵀ / √dₖ -->
    <g style="fill: #1a1a1a" transform="translate(112.211932 178.72125) scale(0.08 -0.08)">
     <defs>
      <path id="DejaVuSans-79" d="M 684 2619 
L 1344 2619 
L 1344 1825 
L 684 1825 
L 684 2619 
z
" transform="scale(0.015625)"/>
      <path id="DejaVuSans-8a3" d="M -13 4700 
L 2475 4700 
L 2475 4403 
L 1431 4403 
L 1431 2088 
L 1031 2088 
L 1031 4403 
L -13 4403 
L -13 4700 
z
" transform="scale(0.015625)"/>
      <path id="DejaVuSans-12" d="M 1625 4666 
L 2156 4666 
L 531 -594 
L 0 -594 
L 1625 4666 
z
" transform="scale(0.015625)"/>
      <path id="DejaVuSans-ca4" d="M 3488 5191 
L 4078 5191 
L 4078 4891 
L 3719 4891 
L 1863 -128 
L 1656 -128 
L 659 2631 
L 269 2491 
L 191 2741 
L 1075 3047 
L 1875 831 
L 3488 5191 
z
" transform="scale(0.015625)"/>
      <path id="DejaVuSans-47" d="M 2906 2969 
L 2906 4863 
L 3481 4863 
L 3481 0 
L 2906 0 
L 2906 525 
Q 2725 213 2448 61 
Q 2172 -91 1784 -91 
Q 1150 -91 751 415 
Q 353 922 353 1747 
Q 353 2572 751 3078 
Q 1150 3584 1784 3584 
Q 2172 3584 2448 3432 
Q 2725 3281 2906 2969 
z
M 947 1747 
Q 947 1113 1208 752 
Q 1469 391 1925 391 
Q 2381 391 2643 752 
Q 2906 1113 2906 1747 
Q 2906 2381 2643 2742 
Q 2381 3103 1925 3103 
Q 1469 3103 1208 2742 
Q 947 2381 947 1747 
z
" transform="scale(0.015625)"/>
      <path id="DejaVuSans-b70" d="M 366 2721 
L 731 2721 
L 731 1115 
L 1813 1959 
L 2275 1959 
L 1103 1043 
L 2322 0 
L 1850 0 
L 731 956 
L 731 0 
L 366 0 
L 366 2721 
z
" transform="scale(0.015625)"/>
     </defs>
     <use xlink:href="#DejaVuSans-34"/>
     <use xlink:href="#DejaVuSans-3" transform="translate(78.71875 0)"/>
     <use xlink:href="#DejaVuSans-79" transform="translate(110.5 0)"/>
     <use xlink:href="#DejaVuSans-3" transform="translate(142.28125 0)"/>
     <use xlink:href="#DejaVuSans-2e" transform="translate(174.0625 0)"/>
     <use xlink:href="#DejaVuSans-8a3" transform="translate(239.640625 0)"/>
     <use xlink:href="#DejaVuSans-3" transform="translate(278.125 0)"/>
     <use xlink:href="#DejaVuSans-12" transform="translate(309.90625 0)"/>
     <use xlink:href="#DejaVuSans-3" transform="translate(343.59375 0)"/>
     <use xlink:href="#DejaVuSans-ca4" transform="translate(375.375 0)"/>
     <use xlink:href="#DejaVuSans-47" transform="translate(439.09375 0)"/>
     <use xlink:href="#DejaVuSans-b70" transform="translate(502.578125 0)"/>
    </g>
   </g>
   <g id="text_6">
    <!-- Softmax -->
    <g style="fill: #1a1a1a" transform="translate(115.334041 234.216055) scale(0.09 -0.09)">
     <defs>
      <path id="DejaVuSans-36" d="M 3425 4513 
L 3425 3897 
Q 3066 4069 2747 4153 
Q 2428 4238 2131 4238 
Q 1616 4238 1336 4038 
Q 1056 3838 1056 3469 
Q 1056 3159 1242 3001 
Q 1428 2844 1947 2747 
L 2328 2669 
Q 3034 2534 3370 2195 
Q 3706 1856 3706 1288 
Q 3706 609 3251 259 
Q 2797 -91 1919 -91 
Q 1588 -91 1214 -16 
Q 841 59 441 206 
L 441 856 
Q 825 641 1194 531 
Q 1563 422 1919 422 
Q 2459 422 2753 634 
Q 3047 847 3047 1241 
Q 3047 1584 2836 1778 
Q 2625 1972 2144 2069 
L 1759 2144 
Q 1053 2284 737 2584 
Q 422 2884 422 3419 
Q 422 4038 858 4394 
Q 1294 4750 2059 4750 
Q 2388 4750 2728 4690 
Q 3069 4631 3425 4513 
z
" transform="scale(0.015625)"/>
      <path id="DejaVuSans-49" d="M 2375 4863 
L 2375 4384 
L 1825 4384 
Q 1516 4384 1395 4259 
Q 1275 4134 1275 3809 
L 1275 3500 
L 2222 3500 
L 2222 3053 
L 1275 3053 
L 1275 0 
L 697 0 
L 697 3053 
L 147 3053 
L 147 3500 
L 697 3500 
L 697 3744 
Q 697 4328 969 4595 
Q 1241 4863 1831 4863 
L 2375 4863 
z
" transform="scale(0.015625)"/>
      <path id="DejaVuSans-50" d="M 3328 2828 
Q 3544 3216 3844 3400 
Q 4144 3584 4550 3584 
Q 5097 3584 5394 3201 
Q 5691 2819 5691 2113 
L 5691 0 
L 5113 0 
L 5113 2094 
Q 5113 2597 4934 2840 
Q 4756 3084 4391 3084 
Q 3944 3084 3684 2787 
Q 3425 2491 3425 1978 
L 3425 0 
L 2847 0 
L 2847 2094 
Q 2847 2600 2669 2842 
Q 2491 3084 2119 3084 
Q 1678 3084 1418 2786 
Q 1159 2488 1159 1978 
L 1159 0 
L 581 0 
L 581 3500 
L 1159 3500 
L 1159 2956 
Q 1356 3278 1631 3431 
Q 1906 3584 2284 3584 
Q 2666 3584 2933 3390 
Q 3200 3197 3328 2828 
z
" transform="scale(0.015625)"/>
      <path id="DejaVuSans-44" d="M 2194 1759 
Q 1497 1759 1228 1600 
Q 959 1441 959 1056 
Q 959 750 1161 570 
Q 1363 391 1709 391 
Q 2188 391 2477 730 
Q 2766 1069 2766 1631 
L 2766 1759 
L 2194 1759 
z
M 3341 1997 
L 3341 0 
L 2766 0 
L 2766 531 
Q 2569 213 2275 61 
Q 1981 -91 1556 -91 
Q 1019 -91 701 211 
Q 384 513 384 1019 
Q 384 1609 779 1909 
Q 1175 2209 1959 2209 
L 2766 2209 
L 2766 2266 
Q 2766 2663 2505 2880 
Q 2244 3097 1772 3097 
Q 1472 3097 1187 3025 
Q 903 2953 641 2809 
L 641 3341 
Q 956 3463 1253 3523 
Q 1550 3584 1831 3584 
Q 2591 3584 2966 3190 
Q 3341 2797 3341 1997 
z
" transform="scale(0.015625)"/>
      <path id="DejaVuSans-5b" d="M 3513 3500 
L 2247 1797 
L 3578 0 
L 2900 0 
L 1881 1375 
L 863 0 
L 184 0 
L 1544 1831 
L 300 3500 
L 978 3500 
L 1906 2253 
L 2834 3500 
L 3513 3500 
z
" transform="scale(0.015625)"/>
     </defs>
     <use xlink:href="#DejaVuSans-36"/>
     <use xlink:href="#DejaVuSans-52" transform="translate(63.484375 0)"/>
     <use xlink:href="#DejaVuSans-49" transform="translate(124.671875 0)"/>
     <use xlink:href="#DejaVuSans-57" transform="translate(158.125 0)"/>
     <use xlink:href="#DejaVuSans-50" transform="translate(197.328125 0)"/>
     <use xlink:href="#DejaVuSans-44" transform="translate(294.734375 0)"/>
     <use xlink:href="#DejaVuSans-5b" transform="translate(356.015625 0)"/>
    </g>
   </g>
   <g id="text_7">
    <!-- Weighted Sum -->
    <g style="fill: #1a1a1a" transform="translate(101.192791 289.656055) scale(0.09 -0.09)">
     <defs>
      <path id="DejaVuSans-3a" d="M 213 4666 
L 850 4666 
L 1831 722 
L 2809 4666 
L 3519 4666 
L 4500 722 
L 5478 4666 
L 6119 4666 
L 4947 0 
L 4153 0 
L 3169 4050 
L 2175 0 
L 1381 0 
L 213 4666 
z
" transform="scale(0.015625)"/>
      <path id="DejaVuSans-48" d="M 3597 1894 
L 3597 1613 
L 953 1613 
Q 991 1019 1311 708 
Q 1631 397 2203 397 
Q 2534 397 2845 478 
Q 3156 559 3463 722 
L 3463 178 
Q 3153 47 2828 -22 
Q 2503 -91 2169 -91 
Q 1331 -91 842 396 
Q 353 884 353 1716 
Q 353 2575 817 3079 
Q 1281 3584 2069 3584 
Q 2775 3584 3186 3129 
Q 3597 2675 3597 1894 
z
M 3022 2063 
Q 3016 2534 2758 2815 
Q 2500 3097 2075 3097 
Q 1594 3097 1305 2825 
Q 1016 2553 972 2059 
L 3022 2063 
z
" transform="scale(0.015625)"/>
      <path id="DejaVuSans-4c" d="M 603 3500 
L 1178 3500 
L 1178 0 
L 603 0 
L 603 3500 
z
M 603 4863 
L 1178 4863 
L 1178 4134 
L 603 4134 
L 603 4863 
z
" transform="scale(0.015625)"/>
      <path id="DejaVuSans-4a" d="M 2906 1791 
Q 2906 2416 2648 2759 
Q 2391 3103 1925 3103 
Q 1463 3103 1205 2759 
Q 947 2416 947 1791 
Q 947 1169 1205 825 
Q 1463 481 1925 481 
Q 2391 481 2648 825 
Q 2906 1169 2906 1791 
z
M 3481 434 
Q 3481 -459 3084 -895 
Q 2688 -1331 1869 -1331 
Q 1566 -1331 1297 -1286 
Q 1028 -1241 775 -1147 
L 775 -588 
Q 1028 -725 1275 -790 
Q 1522 -856 1778 -856 
Q 2344 -856 2625 -561 
Q 2906 -266 2906 331 
L 2906 616 
Q 2728 306 2450 153 
Q 2172 0 1784 0 
Q 1141 0 747 490 
Q 353 981 353 1791 
Q 353 2603 747 3093 
Q 1141 3584 1784 3584 
Q 2172 3584 2450 3431 
Q 2728 3278 2906 2969 
L 2906 3500 
L 3481 3500 
L 3481 434 
z
" transform="scale(0.015625)"/>
      <path id="DejaVuSans-4b" d="M 3513 2113 
L 3513 0 
L 2938 0 
L 2938 2094 
Q 2938 2591 2744 2837 
Q 2550 3084 2163 3084 
Q 1697 3084 1428 2787 
Q 1159 2491 1159 1978 
L 1159 0 
L 581 0 
L 581 4863 
L 1159 4863 
L 1159 2956 
Q 1366 3272 1645 3428 
Q 1925 3584 2291 3584 
Q 2894 3584 3203 3211 
Q 3513 2838 3513 2113 
z
" transform="scale(0.015625)"/>
     </defs>
     <use xlink:href="#DejaVuSans-3a"/>
     <use xlink:href="#DejaVuSans-48" transform="translate(93.015625 0)"/>
     <use xlink:href="#DejaVuSans-4c" transform="translate(154.546875 0)"/>
     <use xlink:href="#DejaVuSans-4a" transform="translate(182.328125 0)"/>
     <use xlink:href="#DejaVuSans-4b" transform="translate(245.8125 0)"/>
     <use xlink:href="#DejaVuSans-57" transform="translate(309.1875 0)"/>
     <use xlink:href="#DejaVuSans-48" transform="translate(348.390625 0)"/>
     <use xlink:href="#DejaVuSans-47" transform="translate(409.921875 0)"/>
     <use xlink:href="#DejaVuSans-3" transform="translate(473.40625 0)"/>
     <use xlink:href="#DejaVuSans-36" transform="translate(505.1875 0)"/>
     <use xlink:href="#DejaVuSans-58" transform="translate(568.671875 0)"/>
     <use xlink:href="#DejaVuSans-50" transform="translate(632.046875 0)"/>
    </g>
   </g>
   <g id="text_8">
    <!-- Single-Head Attention -->
    <g transform="translate(46.375994 17.837812) scale(0.14 -0.14)">
     <defs>
      <path id="DejaVuSans-Bold-36" d="M 3834 4519 
L 3834 3531 
Q 3450 3703 3084 3790 
Q 2719 3878 2394 3878 
Q 1963 3878 1756 3759 
Q 1550 3641 1550 3391 
Q 1550 3203 1689 3098 
Q 1828 2994 2194 2919 
L 2706 2816 
Q 3484 2659 3812 2340 
Q 4141 2022 4141 1434 
Q 4141 663 3683 286 
Q 3225 -91 2284 -91 
Q 1841 -91 1394 -6 
Q 947 78 500 244 
L 500 1259 
Q 947 1022 1364 901 
Q 1781 781 2169 781 
Q 2563 781 2772 912 
Q 2981 1044 2981 1288 
Q 2981 1506 2839 1625 
Q 2697 1744 2272 1838 
L 1806 1941 
Q 1106 2091 782 2419 
Q 459 2747 459 3303 
Q 459 4000 909 4375 
Q 1359 4750 2203 4750 
Q 2588 4750 2994 4692 
Q 3400 4634 3834 4519 
z
" transform="scale(0.015625)"/>
      <path id="DejaVuSans-Bold-4c" d="M 538 3500 
L 1656 3500 
L 1656 0 
L 538 0 
L 538 3500 
z
M 538 4863 
L 1656 4863 
L 1656 3950 
L 538 3950 
L 538 4863 
z
" transform="scale(0.015625)"/>
      <path id="DejaVuSans-Bold-51" d="M 4056 2131 
L 4056 0 
L 2931 0 
L 2931 347 
L 2931 1631 
Q 2931 2084 2911 2256 
Q 2891 2428 2841 2509 
Q 2775 2619 2662 2680 
Q 2550 2741 2406 2741 
Q 2056 2741 1856 2470 
Q 1656 2200 1656 1722 
L 1656 0 
L 538 0 
L 538 3500 
L 1656 3500 
L 1656 2988 
Q 1909 3294 2193 3439 
Q 2478 3584 2822 3584 
Q 3428 3584 3742 3212 
Q 4056 2841 4056 2131 
z
" transform="scale(0.015625)"/>
      <path id="DejaVuSans-Bold-4a" d="M 2919 594 
Q 2688 288 2409 144 
Q 2131 0 1766 0 
Q 1125 0 706 504 
Q 288 1009 288 1791 
Q 288 2575 706 3076 
Q 1125 3578 1766 3578 
Q 2131 3578 2409 3434 
Q 2688 3291 2919 2981 
L 2919 3500 
L 4044 3500 
L 4044 353 
Q 4044 -491 3511 -936 
Q 2978 -1381 1966 -1381 
Q 1638 -1381 1331 -1331 
Q 1025 -1281 716 -1178 
L 716 -306 
Q 1009 -475 1290 -558 
Q 1572 -641 1856 -641 
Q 2406 -641 2662 -400 
Q 2919 -159 2919 353 
L 2919 594 
z
M 2181 2772 
Q 1834 2772 1640 2515 
Q 1447 2259 1447 1791 
Q 1447 1309 1634 1061 
Q 1822 813 2181 813 
Q 2531 813 2725 1069 
Q 2919 1325 2919 1791 
Q 2919 2259 2725 2515 
Q 2531 2772 2181 2772 
z
" transform="scale(0.015625)"/>
      <path id="DejaVuSans-Bold-4f" d="M 538 4863 
L 1656 4863 
L 1656 0 
L 538 0 
L 538 4863 
z
" transform="scale(0.015625)"/>
      <path id="DejaVuSans-Bold-48" d="M 4031 1759 
L 4031 1441 
L 1416 1441 
Q 1456 1047 1700 850 
Q 1944 653 2381 653 
Q 2734 653 3104 758 
Q 3475 863 3866 1075 
L 3866 213 
Q 3469 63 3072 -14 
Q 2675 -91 2278 -91 
Q 1328 -91 801 392 
Q 275 875 275 1747 
Q 275 2603 792 3093 
Q 1309 3584 2216 3584 
Q 3041 3584 3536 3087 
Q 4031 2591 4031 1759 
z
M 2881 2131 
Q 2881 2450 2695 2645 
Q 2509 2841 2209 2841 
Q 1884 2841 1681 2658 
Q 1478 2475 1428 2131 
L 2881 2131 
z
" transform="scale(0.015625)"/>
      <path id="DejaVuSans-Bold-10" d="M 347 2297 
L 2309 2297 
L 2309 1388 
L 347 1388 
L 347 2297 
z
" transform="scale(0.015625)"/>
      <path id="DejaVuSans-Bold-2b" d="M 588 4666 
L 1791 4666 
L 1791 2888 
L 3566 2888 
L 3566 4666 
L 4769 4666 
L 4769 0 
L 3566 0 
L 3566 1978 
L 1791 1978 
L 1791 0 
L 588 0 
L 588 4666 
z
" transform="scale(0.015625)"/>
      <path id="DejaVuSans-Bold-44" d="M 2106 1575 
Q 1756 1575 1579 1456 
Q 1403 1338 1403 1106 
Q 1403 894 1545 773 
Q 1688 653 1941 653 
Q 2256 653 2472 879 
Q 2688 1106 2688 1447 
L 2688 1575 
L 2106 1575 
z
M 3816 1997 
L 3816 0 
L 2688 0 
L 2688 519 
Q 2463 200 2181 54 
Q 1900 -91 1497 -91 
Q 953 -91 614 226 
Q 275 544 275 1050 
Q 275 1666 698 1953 
Q 1122 2241 2028 2241 
L 2688 2241 
L 2688 2328 
Q 2688 2594 2478 2717 
Q 2269 2841 1825 2841 
Q 1466 2841 1156 2769 
Q 847 2697 581 2553 
L 581 3406 
Q 941 3494 1303 3539 
Q 1666 3584 2028 3584 
Q 2975 3584 3395 3211 
Q 3816 2838 3816 1997 
z
" transform="scale(0.015625)"/>
      <path id="DejaVuSans-Bold-47" d="M 2919 2988 
L 2919 4863 
L 4044 4863 
L 4044 0 
L 2919 0 
L 2919 506 
Q 2688 197 2409 53 
Q 2131 -91 1766 -91 
Q 1119 -91 703 423 
Q 288 938 288 1747 
Q 288 2556 703 3070 
Q 1119 3584 1766 3584 
Q 2128 3584 2408 3439 
Q 2688 3294 2919 2988 
z
M 2181 722 
Q 2541 722 2730 984 
Q 2919 1247 2919 1747 
Q 2919 2247 2730 2509 
Q 2541 2772 2181 2772 
Q 1825 2772 1636 2509 
Q 1447 2247 1447 1747 
Q 1447 1247 1636 984 
Q 1825 722 2181 722 
z
" transform="scale(0.015625)"/>
      <path id="DejaVuSans-Bold-3" transform="scale(0.015625)"/>
      <path id="DejaVuSans-Bold-24" d="M 3419 850 
L 1538 850 
L 1241 0 
L 31 0 
L 1759 4666 
L 3194 4666 
L 4922 0 
L 3713 0 
L 3419 850 
z
M 1838 1716 
L 3116 1716 
L 2478 3572 
L 1838 1716 
z
" transform="scale(0.015625)"/>
      <path id="DejaVuSans-Bold-57" d="M 1759 4494 
L 1759 3500 
L 2913 3500 
L 2913 2700 
L 1759 2700 
L 1759 1216 
Q 1759 972 1856 886 
Q 1953 800 2241 800 
L 2816 800 
L 2816 0 
L 1856 0 
Q 1194 0 917 276 
Q 641 553 641 1216 
L 641 2700 
L 84 2700 
L 84 3500 
L 641 3500 
L 641 4494 
L 1759 4494 
z
" transform="scale(0.015625)"/>
      <path id="DejaVuSans-Bold-52" d="M 2203 2784 
Q 1831 2784 1636 2517 
Q 1441 2250 1441 1747 
Q 1441 1244 1636 976 
Q 1831 709 2203 709 
Q 2569 709 2762 976 
Q 2956 1244 2956 1747 
Q 2956 2250 2762 2517 
Q 2569 2784 2203 2784 
z
M 2203 3584 
Q 3106 3584 3614 3096 
Q 4122 2609 4122 1747 
Q 4122 884 3614 396 
Q 3106 -91 2203 -91 
Q 1297 -91 786 396 
Q 275 884 275 1747 
Q 275 2609 786 3096 
Q 1297 3584 2203 3584 
z
" transform="scale(0.015625)"/>
     </defs>
     <use xlink:href="#DejaVuSans-Bold-36"/>
     <use xlink:href="#DejaVuSans-Bold-4c" transform="translate(72.015625 0)"/>
     <use xlink:href="#DejaVuSans-Bold-51" transform="translate(106.296875 0)"/>
     <use xlink:href="#DejaVuSans-Bold-4a" transform="translate(177.484375 0)"/>
     <use xlink:href="#DejaVuSans-Bold-4f" transform="translate(249.0625 0)"/>
     <use xlink:href="#DejaVuSans-Bold-48" transform="translate(283.34375 0)"/>
     <use xlink:href="#DejaVuSans-Bold-10" transform="translate(351.171875 0)"/>
     <use xlink:href="#DejaVuSans-Bold-2b" transform="translate(392.671875 0)"/>
     <use xlink:href="#DejaVuSans-Bold-48" transform="translate(476.359375 0)"/>
     <use xlink:href="#DejaVuSans-Bold-44" transform="translate(544.1875 0)"/>
     <use xlink:href="#DejaVuSans-Bold-47" transform="translate(611.671875 0)"/>
     <use xlink:href="#DejaVuSans-Bold-3" transform="translate(683.25 0)"/>
     <use xlink:href="#DejaVuSans-Bold-24" transform="translate(718.0625 0)"/>
     <use xlink:href="#DejaVuSans-Bold-57" transform="translate(795.453125 0)"/>
     <use xlink:href="#DejaVuSans-Bold-57" transform="translate(843.25 0)"/>
     <use xlink:href="#DejaVuSans-Bold-48" transform="translate(891.046875 0)"/>
     <use xlink:href="#DejaVuSans-Bold-51" transform="translate(958.875 0)"/>
     <use xlink:href="#DejaVuSans-Bold-57" transform="translate(1030.0625 0)"/>
     <use xlink:href="#DejaVuSans-Bold-4c" transform="translate(1077.859375 0)"/>
     <use xlink:href="#DejaVuSans-Bold-52" transform="translate(1112.140625 0)"/>
     <use xlink:href="#DejaVuSans-Bold-51" transform="translate(1180.84375 0)"/>
    </g>
   </g>
  </g>
  <g id="axes_2">
   <g id="line2d_1">
    <path d="M 349.609091 107.137812 
L 438.381818 134.857812 
" clip-path="url(#p96fbe648e5)" style="fill: none; stroke: #888888; stroke-linecap: square"/>
   </g>
   <g id="line2d_2">
    <path d="M 413.018182 107.137812 
L 438.381818 134.857812 
" clip-path="url(#p96fbe648e5)" style="fill: none; stroke: #888888; stroke-linecap: square"/>
   </g>
   <g id="line2d_3">
    <path d="M 476.427273 107.137812 
L 438.381818 134.857812 
" clip-path="url(#p96fbe648e5)" style="fill: none; stroke: #888888; stroke-linecap: square"/>
   </g>
   <g id="line2d_4">
    <path d="M 539.836364 107.137812 
L 438.381818 134.857812 
" clip-path="url(#p96fbe648e5)" style="fill: none; stroke: #888888; stroke-linecap: square"/>
   </g>
   <g id="patch_14">
    <path d="M 438.381818 181.435669 
Q 438.381818 186.139823 438.381818 188.60791 
" style="fill: none; stroke: #888888; stroke-width: 2; stroke-linecap: round"/>
    <path d="M 440.381818 184.60791 
L 438.381818 188.60791 
L 436.381818 184.60791 
" style="fill: none; stroke: #888888; stroke-width: 2; stroke-linecap: round"/>
   </g>
   <g id="patch_15">
    <path d="M 331.854545 102.979812 
L 367.363636 102.979812 
Q 368.631818 102.979812 368.631818 101.593812 
L 368.631818 84.961813 
Q 368.631818 83.575812 367.363636 83.575812 
L 331.854545 83.575812 
Q 330.586364 83.575812 330.586364 84.961813 
L 330.586364 101.593812 
Q 330.586364 102.979812 331.854545 102.979812 
z
" clip-path="url(#p96fbe648e5)" style="fill: #e8f4f8; stroke: #555555; stroke-width: 1.5; stroke-linejoin: miter"/>
   </g>
   <g id="patch_16">
    <path d="M 395.263636 102.979812 
L 430.772727 102.979812 
Q 432.040909 102.979812 432.040909 101.593812 
L 432.040909 84.961813 
Q 432.040909 83.575812 430.772727 83.575812 
L 395.263636 83.575812 
Q 393.995455 83.575812 393.995455 84.961813 
L 393.995455 101.593812 
Q 393.995455 102.979812 395.263636 102.979812 
z
" clip-path="url(#p96fbe648e5)" style="fill: #e8f4f8; stroke: #555555; stroke-width: 1.5; stroke-linejoin: miter"/>
   </g>
   <g id="patch_17">
    <path d="M 458.672727 102.979812 
L 494.181818 102.979812 
Q 495.45 102.979812 495.45 101.593812 
L 495.45 84.961813 
Q 495.45 83.575812 494.181818 83.575812 
L 458.672727 83.575812 
Q 457.404545 83.575812 457.404545 84.961813 
L 457.404545 101.593812 
Q 457.404545 102.979812 458.672727 102.979812 
z
" clip-path="url(#p96fbe648e5)" style="fill: #e8f4f8; stroke: #555555; stroke-width: 1.5; stroke-linejoin: miter"/>
   </g>
   <g id="patch_18">
    <path d="M 522.081818 102.979812 
L 557.590909 102.979812 
Q 558.859091 102.979812 558.859091 101.593812 
L 558.859091 84.961813 
Q 558.859091 83.575812 557.590909 83.575812 
L 522.081818 83.575812 
Q 520.813636 83.575812 520.813636 84.961813 
L 520.813636 101.593812 
Q 520.813636 102.979812 522.081818 102.979812 
z
" clip-path="url(#p96fbe648e5)" style="fill: #e8f4f8; stroke: #555555; stroke-width: 1.5; stroke-linejoin: miter"/>
   </g>
   <g id="patch_19">
    <path d="M 401.604545 172.279812 
L 475.159091 172.279812 
Q 476.427273 172.279812 476.427273 170.893812 
L 476.427273 154.261812 
Q 476.427273 152.875812 475.159091 152.875812 
L 401.604545 152.875812 
Q 400.336364 152.875812 400.336364 154.261812 
L 400.336364 170.893812 
Q 400.336364 172.279812 401.604545 172.279812 
z
" clip-path="url(#p96fbe648e5)" style="fill: #e0e0e0; stroke: #555555; stroke-width: 1.5; stroke-linejoin: miter"/>
   </g>
   <g id="patch_20">
    <path d="M 395.263636 227.719813 
L 481.5 227.719813 
Q 482.768182 227.719813 482.768182 226.333813 
L 482.768182 209.701813 
Q 482.768182 208.315813 481.5 208.315813 
L 395.263636 208.315813 
Q 393.995455 208.315813 393.995455 209.701813 
L 393.995455 226.333813 
Q 393.995455 227.719813 395.263636 227.719813 
z
" clip-path="url(#p96fbe648e5)" style="fill: #e0e0e0; stroke: #555555; stroke-width: 1.5; stroke-linejoin: miter"/>
   </g>
   <g id="text_9">
    <!-- Head 1 -->
    <g style="fill: #1a1a1a" transform="translate(337.117372 95.096445) scale(0.07 -0.07)">
     <defs>
      <path id="DejaVuSans-2b" d="M 628 4666 
L 1259 4666 
L 1259 2753 
L 3553 2753 
L 3553 4666 
L 4184 4666 
L 4184 0 
L 3553 0 
L 3553 2222 
L 1259 2222 
L 1259 0 
L 628 0 
L 628 4666 
z
" transform="scale(0.015625)"/>
      <path id="DejaVuSans-14" d="M 794 531 
L 1825 531 
L 1825 4091 
L 703 3866 
L 703 4441 
L 1819 4666 
L 2450 4666 
L 2450 531 
L 3481 531 
L 3481 0 
L 794 0 
L 794 531 
z
" transform="scale(0.015625)"/>
     </defs>
     <use xlink:href="#DejaVuSans-2b"/>
     <use xlink:href="#DejaVuSans-48" transform="translate(75.203125 0)"/>
     <use xlink:href="#DejaVuSans-44" transform="translate(136.734375 0)"/>
     <use xlink:href="#DejaVuSans-47" transform="translate(198.015625 0)"/>
     <use xlink:href="#DejaVuSans-3" transform="translate(261.5 0)"/>
     <use xlink:href="#DejaVuSans-14" transform="translate(293.28125 0)"/>
    </g>
   </g>
   <g id="text_10">
    <!-- Head 2 -->
    <g style="fill: #1a1a1a" transform="translate(400.526463 95.096445) scale(0.07 -0.07)">
     <defs>
      <path id="DejaVuSans-15" d="M 1228 531 
L 3431 531 
L 3431 0 
L 469 0 
L 469 531 
Q 828 903 1448 1529 
Q 2069 2156 2228 2338 
Q 2531 2678 2651 2914 
Q 2772 3150 2772 3378 
Q 2772 3750 2511 3984 
Q 2250 4219 1831 4219 
Q 1534 4219 1204 4116 
Q 875 4013 500 3803 
L 500 4441 
Q 881 4594 1212 4672 
Q 1544 4750 1819 4750 
Q 2544 4750 2975 4387 
Q 3406 4025 3406 3419 
Q 3406 3131 3298 2873 
Q 3191 2616 2906 2266 
Q 2828 2175 2409 1742 
Q 1991 1309 1228 531 
z
" transform="scale(0.015625)"/>
     </defs>
     <use xlink:href="#DejaVuSans-2b"/>
     <use xlink:href="#DejaVuSans-48" transform="translate(75.203125 0)"/>
     <use xlink:href="#DejaVuSans-44" transform="translate(136.734375 0)"/>
     <use xlink:href="#DejaVuSans-47" transform="translate(198.015625 0)"/>
     <use xlink:href="#DejaVuSans-3" transform="translate(261.5 0)"/>
     <use xlink:href="#DejaVuSans-15" transform="translate(293.28125 0)"/>
    </g>
   </g>
   <g id="text_11">
    <!-- Head 3 -->
    <g style="fill: #1a1a1a" transform="translate(463.935554 95.096445) scale(0.07 -0.07)">
     <defs>
      <path id="DejaVuSans-16" d="M 2597 2516 
Q 3050 2419 3304 2112 
Q 3559 1806 3559 1356 
Q 3559 666 3084 287 
Q 2609 -91 1734 -91 
Q 1441 -91 1130 -33 
Q 819 25 488 141 
L 488 750 
Q 750 597 1062 519 
Q 1375 441 1716 441 
Q 2309 441 2620 675 
Q 2931 909 2931 1356 
Q 2931 1769 2642 2001 
Q 2353 2234 1838 2234 
L 1294 2234 
L 1294 2753 
L 1863 2753 
Q 2328 2753 2575 2939 
Q 2822 3125 2822 3475 
Q 2822 3834 2567 4026 
Q 2313 4219 1838 4219 
Q 1578 4219 1281 4162 
Q 984 4106 628 3988 
L 628 4550 
Q 988 4650 1302 4700 
Q 1616 4750 1894 4750 
Q 2613 4750 3031 4423 
Q 3450 4097 3450 3541 
Q 3450 3153 3228 2886 
Q 3006 2619 2597 2516 
z
" transform="scale(0.015625)"/>
     </defs>
     <use xlink:href="#DejaVuSans-2b"/>
     <use xlink:href="#DejaVuSans-48" transform="translate(75.203125 0)"/>
     <use xlink:href="#DejaVuSans-44" transform="translate(136.734375 0)"/>
     <use xlink:href="#DejaVuSans-47" transform="translate(198.015625 0)"/>
     <use xlink:href="#DejaVuSans-3" transform="translate(261.5 0)"/>
     <use xlink:href="#DejaVuSans-16" transform="translate(293.28125 0)"/>
    </g>
   </g>
   <g id="text_12">
    <!-- Head 4 -->
    <g style="fill: #1a1a1a" transform="translate(527.344645 95.096445) scale(0.07 -0.07)">
     <defs>
      <path id="DejaVuSans-17" d="M 2419 4116 
L 825 1625 
L 2419 1625 
L 2419 4116 
z
M 2253 4666 
L 3047 4666 
L 3047 1625 
L 3713 1625 
L 3713 1100 
L 3047 1100 
L 3047 0 
L 2419 0 
L 2419 1100 
L 313 1100 
L 313 1709 
L 2253 4666 
z
" transform="scale(0.015625)"/>
     </defs>
     <use xlink:href="#DejaVuSans-2b"/>
     <use xlink:href="#DejaVuSans-48" transform="translate(75.203125 0)"/>
     <use xlink:href="#DejaVuSans-44" transform="translate(136.734375 0)"/>
     <use xlink:href="#DejaVuSans-47" transform="translate(198.015625 0)"/>
     <use xlink:href="#DejaVuSans-3" transform="translate(261.5 0)"/>
     <use xlink:href="#DejaVuSans-17" transform="translate(293.28125 0)"/>
    </g>
   </g>
   <g id="text_13">
    <!-- Concat -->
    <g style="fill: #1a1a1a" transform="translate(422.638146 164.915703) scale(0.09 -0.09)">
     <defs>
      <path id="DejaVuSans-26" d="M 4122 4306 
L 4122 3641 
Q 3803 3938 3442 4084 
Q 3081 4231 2675 4231 
Q 1875 4231 1450 3742 
Q 1025 3253 1025 2328 
Q 1025 1406 1450 917 
Q 1875 428 2675 428 
Q 3081 428 3442 575 
Q 3803 722 4122 1019 
L 4122 359 
Q 3791 134 3420 21 
Q 3050 -91 2638 -91 
Q 1578 -91 968 557 
Q 359 1206 359 2328 
Q 359 3453 968 4101 
Q 1578 4750 2638 4750 
Q 3056 4750 3426 4639 
Q 3797 4528 4122 4306 
z
" transform="scale(0.015625)"/>
      <path id="DejaVuSans-46" d="M 3122 3366 
L 3122 2828 
Q 2878 2963 2633 3030 
Q 2388 3097 2138 3097 
Q 1578 3097 1268 2742 
Q 959 2388 959 1747 
Q 959 1106 1268 751 
Q 1578 397 2138 397 
Q 2388 397 2633 464 
Q 2878 531 3122 666 
L 3122 134 
Q 2881 22 2623 -34 
Q 2366 -91 2075 -91 
Q 1284 -91 818 406 
Q 353 903 353 1747 
Q 353 2603 823 3093 
Q 1294 3584 2113 3584 
Q 2378 3584 2631 3529 
Q 2884 3475 3122 3366 
z
" transform="scale(0.015625)"/>
     </defs>
     <use xlink:href="#DejaVuSans-26"/>
     <use xlink:href="#DejaVuSans-52" transform="translate(69.828125 0)"/>
     <use xlink:href="#DejaVuSans-51" transform="translate(131.015625 0)"/>
     <use xlink:href="#DejaVuSans-46" transform="translate(194.390625 0)"/>
     <use xlink:href="#DejaVuSans-44" transform="translate(249.375 0)"/>
     <use xlink:href="#DejaVuSans-57" transform="translate(310.65625 0)"/>
    </g>
   </g>
   <g id="text_14">
    <!-- Output Projection -->
    <g style="fill: #1a1a1a" transform="translate(403.436818 220.09625) scale(0.08 -0.08)">
     <defs>
      <path id="DejaVuSans-32" d="M 2522 4238 
Q 1834 4238 1429 3725 
Q 1025 3213 1025 2328 
Q 1025 1447 1429 934 
Q 1834 422 2522 422 
Q 3209 422 3611 934 
Q 4013 1447 4013 2328 
Q 4013 3213 3611 3725 
Q 3209 4238 2522 4238 
z
M 2522 4750 
Q 3503 4750 4090 4092 
Q 4678 3434 4678 2328 
Q 4678 1225 4090 567 
Q 3503 -91 2522 -91 
Q 1538 -91 948 565 
Q 359 1222 359 2328 
Q 359 3434 948 4092 
Q 1538 4750 2522 4750 
z
" transform="scale(0.015625)"/>
     </defs>
     <use xlink:href="#DejaVuSans-32"/>
     <use xlink:href="#DejaVuSans-58" transform="translate(78.71875 0)"/>
     <use xlink:href="#DejaVuSans-57" transform="translate(142.09375 0)"/>
     <use xlink:href="#DejaVuSans-53" transform="translate(181.296875 0)"/>
     <use xlink:href="#DejaVuSans-58" transform="translate(244.78125 0)"/>
     <use xlink:href="#DejaVuSans-57" transform="translate(308.15625 0)"/>
     <use xlink:href="#DejaVuSans-3" transform="translate(347.359375 0)"/>
     <use xlink:href="#DejaVuSans-33" transform="translate(379.140625 0)"/>
     <use xlink:href="#DejaVuSans-55" transform="translate(437.6875 0)"/>
     <use xlink:href="#DejaVuSans-52" transform="translate(476.59375 0)"/>
     <use xlink:href="#DejaVuSans-4d" transform="translate(537.78125 0)"/>
     <use xlink:href="#DejaVuSans-48" transform="translate(565.5625 0)"/>
     <use xlink:href="#DejaVuSans-46" transform="translate(627.09375 0)"/>
     <use xlink:href="#DejaVuSans-57" transform="translate(682.078125 0)"/>
     <use xlink:href="#DejaVuSans-4c" transform="translate(721.28125 0)"/>
     <use xlink:href="#DejaVuSans-52" transform="translate(749.0625 0)"/>
     <use xlink:href="#DejaVuSans-51" transform="translate(810.25 0)"/>
    </g>
   </g>
   <g id="text_15">
    <!-- Multi-Head Attention -->
    <g transform="translate(355.227287 17.837812) scale(0.14 -0.14)">
     <defs>
      <path id="DejaVuSans-Bold-30" d="M 588 4666 
L 2119 4666 
L 3181 2169 
L 4250 4666 
L 5778 4666 
L 5778 0 
L 4641 0 
L 4641 3413 
L 3566 897 
L 2803 897 
L 1728 3413 
L 1728 0 
L 588 0 
L 588 4666 
z
" transform="scale(0.015625)"/>
      <path id="DejaVuSans-Bold-58" d="M 500 1363 
L 500 3500 
L 1625 3500 
L 1625 3150 
Q 1625 2866 1622 2436 
Q 1619 2006 1619 1863 
Q 1619 1441 1641 1255 
Q 1663 1069 1716 984 
Q 1784 875 1895 815 
Q 2006 756 2150 756 
Q 2500 756 2700 1025 
Q 2900 1294 2900 1772 
L 2900 3500 
L 4019 3500 
L 4019 0 
L 2900 0 
L 2900 506 
Q 2647 200 2364 54 
Q 2081 -91 1741 -91 
Q 1134 -91 817 281 
Q 500 653 500 1363 
z
" transform="scale(0.015625)"/>
     </defs>
     <use xlink:href="#DejaVuSans-Bold-30"/>
     <use xlink:href="#DejaVuSans-Bold-58" transform="translate(99.515625 0)"/>
     <use xlink:href="#DejaVuSans-Bold-4f" transform="translate(170.703125 0)"/>
     <use xlink:href="#DejaVuSans-Bold-57" transform="translate(204.984375 0)"/>
     <use xlink:href="#DejaVuSans-Bold-4c" transform="translate(252.78125 0)"/>
     <use xlink:href="#DejaVuSans-Bold-10" transform="translate(287.0625 0)"/>
     <use xlink:href="#DejaVuSans-Bold-2b" transform="translate(328.5625 0)"/>
     <use xlink:href="#DejaVuSans-Bold-48" transform="translate(412.25 0)"/>
     <use xlink:href="#DejaVuSans-Bold-44" transform="translate(480.078125 0)"/>
     <use xlink:href="#DejaVuSans-Bold-47" transform="translate(547.5625 0)"/>
     <use xlink:href="#DejaVuSans-Bold-3" transform="translate(619.140625 0)"/>
     <use xlink:href="#DejaVuSans-Bold-24" transform="translate(653.953125 0)"/>
     <use xlink:href="#DejaVuSans-Bold-57" transform="translate(731.34375 0)"/>
     <use xlink:href="#DejaVuSans-Bold-57" transform="translate(779.140625 0)"/>
     <use xlink:href="#DejaVuSans-Bold-48" transform="translate(826.9375 0)"/>
     <use xlink:href="#DejaVuSans-Bold-51" transform="translate(894.765625 0)"/>
     <use xlink:href="#DejaVuSans-Bold-57" transform="translate(965.953125 0)"/>
     <use xlink:href="#DejaVuSans-Bold-4c" transform="translate(1013.75 0)"/>
     <use xlink:href="#DejaVuSans-Bold-52" transform="translate(1048.03125 0)"/>
     <use xlink:href="#DejaVuSans-Bold-51" transform="translate(1116.734375 0)"/>
    </g>
   </g>
  </g>
 </g>
 <defs>
  <clipPath id="p3f19a07e5d">
   <rect x="7.2" y="37.837812" width="253.636364" height="277.2"/>
  </clipPath>
  <clipPath id="p96fbe648e5">
   <rect x="311.563636" y="37.837812" width="253.636364" height="277.2"/>
  </clipPath>
 </defs>
</svg>
