<?xml version="1.0" encoding="utf-8" standalone="no"?>
<!DOCTYPE svg PUBLIC "-//W3C//DTD SVG 1.1//EN"
  "http://www.w3.org/Graphics/SVG/1.1/DTD/svg11.dtd">
<svg xmlns:xlink="http://www.w3.org/1999/xlink" width="349.2pt" height="347.04pt" viewBox="0 0 349.2 347.04" xmlns="http://www.w3.org/2000/svg" version="1.1">
 <metadata>
  <rdf:RDF xmlns:dc="http://purl.org/dc/elements/1.1/" xmlns:cc="http://creativecommons.org/ns#" xmlns:rdf="http://www.w3.org/1999/02/22-rdf-syntax-ns#">
   <cc:Work>
    <dc:type rdf:resource="http://purl.org/dc/dcmitype/StillImage"/>
    <dc:date>2026-07-06T17:32:29.257988</dc:date>
    <dc:format>image/svg+xml</dc:format>
    <dc:creator>
     <cc:Agent>
      <dc:title>Matplotlib v3.11.0, https://matplotlib.org/</dc:title>
     </cc:Agent>
    </dc:creator>
   </cc:Work>
  </rdf:RDF>
 </metadata>
 <defs>
  <style type="text/css">*{stroke-linejoin: round; stroke-linecap: butt}</style>
 </defs>
 <g id="figure_1">
  <g id="patch_1">
   <path d="M 0 347.04 
L 349.2 347.04 
L 349.2 -0 
L 0 -0 
L 0 347.04 
z
" style="fill: none"/>
  </g>
  <g id="axes_1">
   <g id="patch_2">
    <path d="M 179.47058 91.489137 
Q 224.818515 102.002056 268.532726 112.136232 
" style="fill: none; stroke: #888888; stroke-width: 1.5; stroke-linecap: round"/>
    <path d="M 265.087744 109.284548 
L 268.532726 112.136232 
L 264.184389 113.181207 
" style="fill: none; stroke: #888888; stroke-width: 1.5; stroke-linecap: round"/>
   </g>
   <g id="patch_3">
    <path d="M 275.04 171.866545 
Q 275.04 173.519279 275.04 173.494962 
" style="fill: none; stroke: #888888; stroke-width: 1.5; stroke-linecap: round"/>
    <path d="M 277.04 169.494962 
L 275.04 173.494962 
L 273.04 169.494962 
" style="fill: none; stroke: #888888; stroke-width: 1.5; stroke-linecap: round"/>
   </g>
   <g id="patch_4">
    <path d="M 270.108116 247.517477 
Q 224.821332 255.016579 181.189068 262.241707 
" style="fill: none; stroke: #888888; stroke-width: 1.5; stroke-linecap: round"/>
    <path d="M 185.462063 263.561371 
L 181.189068 262.241707 
L 184.808596 259.615109 
" style="fill: none; stroke: #888888; stroke-width: 1.5; stroke-linecap: round"/>
   </g>
   <g id="patch_5">
    <path d="M 170.434413 260.573658 
Q 124.381761 230.069967 79.72727 200.492368 
" style="fill: none; stroke: #888888; stroke-width: 1.5; stroke-linecap: round"/>
    <path d="M 81.957646 204.368632 
L 79.72727 200.492368 
L 84.166507 201.033826 
" style="fill: none; stroke: #888888; stroke-width: 1.5; stroke-linecap: round"/>
   </g>
   <g id="patch_6">
    <path d="M 74.16 175.173455 
Q 74.16 173.520721 74.16 173.545038 
" style="fill: none; stroke: #888888; stroke-width: 1.5; stroke-linecap: round"/>
    <path d="M 72.16 177.545038 
L 74.16 173.545038 
L 76.16 177.545038 
" style="fill: none; stroke: #888888; stroke-width: 1.5; stroke-linecap: round"/>
   </g>
   <g id="patch_7">
    <path d="M 79.03058 112.515663 
Q 124.378515 102.002744 168.092726 91.868568 
" style="fill: none; stroke: #888888; stroke-width: 1.5; stroke-linecap: round"/>
    <path d="M 163.744389 90.823593 
L 168.092726 91.868568 
L 164.647744 94.720252 
" style="fill: none; stroke: #888888; stroke-width: 1.5; stroke-linecap: round"/>
   </g>
   <g id="patch_8">
    <path d="M 135.4284 77.0544 
L 213.7716 77.0544 
Q 216.45 77.0544 216.45 74.39328 
L 216.45 39.79872 
Q 216.45 37.1376 213.7716 37.1376 
L 135.4284 37.1376 
Q 132.75 37.1376 132.75 39.79872 
L 132.75 74.39328 
Q 132.75 77.0544 135.4284 77.0544 
z
" clip-path="url(#p78e3eff196)" style="fill: #e8f4f8; stroke: #555555; stroke-width: 1.5; stroke-linejoin: miter"/>
   </g>
   <g id="patch_9">
    <path d="M 235.8684 160.2144 
L 314.2116 160.2144 
Q 316.89 160.2144 316.89 157.55328 
L 316.89 122.95872 
Q 316.89 120.2976 314.2116 120.2976 
L 235.8684 120.2976 
Q 233.19 120.2976 233.19 122.95872 
L 233.19 157.55328 
Q 233.19 160.2144 235.8684 160.2144 
z
" clip-path="url(#p78e3eff196)" style="fill: #d5f5e3; stroke: #555555; stroke-width: 1.5; stroke-linejoin: miter"/>
   </g>
   <g id="patch_10">
    <path d="M 235.8684 243.3744 
L 314.2116 243.3744 
Q 316.89 243.3744 316.89 240.71328 
L 316.89 206.11872 
Q 316.89 203.4576 314.2116 203.4576 
L 235.8684 203.4576 
Q 233.19 203.4576 233.19 206.11872 
L 233.19 240.71328 
Q 233.19 243.3744 235.8684 243.3744 
z
" clip-path="url(#p78e3eff196)" style="fill: #fef9e7; stroke: #555555; stroke-width: 1.5; stroke-linejoin: miter"/>
   </g>
   <g id="patch_11">
    <path d="M 135.4284 326.5344 
L 213.7716 326.5344 
Q 216.45 326.5344 216.45 323.87328 
L 216.45 289.27872 
Q 216.45 286.6176 213.7716 286.6176 
L 135.4284 286.6176 
Q 132.75 286.6176 132.75 289.27872 
L 132.75 323.87328 
Q 132.75 326.5344 135.4284 326.5344 
z
" clip-path="url(#p78e3eff196)" style="fill: #fdebd0; stroke: #555555; stroke-width: 1.5; stroke-linejoin: miter"/>
   </g>
   <g id="patch_12">
    <path d="M 34.9884 243.3744 
L 113.3316 243.3744 
Q 116.01 243.3744 116.01 240.71328 
L 116.01 206.11872 
Q 116.01 203.4576 113.3316 203.4576 
L 34.9884 203.4576 
Q 32.31 203.4576 32.31 206.11872 
L 32.31 240.71328 
Q 32.31 243.3744 34.9884 243.3744 
z
" clip-path="url(#p78e3eff196)" style="fill: #e8daef; stroke: #555555; stroke-width: 1.5; stroke-linejoin: miter"/>
   </g>
   <g id="patch_13">
    <path d="M 34.9884 160.2144 
L 113.3316 160.2144 
Q 116.01 160.2144 116.01 157.55328 
L 116.01 122.95872 
Q 116.01 120.2976 113.3316 120.2976 
L 34.9884 120.2976 
Q 32.31 120.2976 32.31 122.95872 
L 32.31 157.55328 
Q 32.31 160.2144 34.9884 160.2144 
z
" clip-path="url(#p78e3eff196)" style="fill: #fadbd8; stroke: #555555; stroke-width: 1.5; stroke-linejoin: miter"/>
   </g>
   <g id="text_1">
    <!-- Frame -->
    <g style="fill: #1a1a1a" transform="translate(162.916406 54.543217) scale(0.075 -0.075)">
     <defs>
      <path id="DejaVuSans-29" d="M 628 4666 
L 3309 4666 
L 3309 4134 
L 1259 4134 
L 1259 2759 
L 3109 2759 
L 3109 2228 
L 1259 2228 
L 1259 0 
L 628 0 
L 628 4666 
z
" transform="scale(0.015625)"/>
      <path id="DejaVuSans-55" d="M 2631 2963 
Q 2534 3019 2420 3045 
Q 2306 3072 2169 3072 
Q 1681 3072 1420 2755 
Q 1159 2438 1159 1844 
L 1159 0 
L 581 0 
L 581 3500 
L 1159 3500 
L 1159 2956 
Q 1341 3275 1631 3429 
Q 1922 3584 2338 3584 
Q 2397 3584 2469 3576 
Q 2541 3569 2628 3553 
L 2631 2963 
z
" transform="scale(0.015625)"/>
      <path id="DejaVuSans-44" d="M 2194 1759 
Q 1497 1759 1228 1600 
Q 959 1441 959 1056 
Q 959 750 1161 570 
Q 1363 391 1709 391 
Q 2188 391 2477 730 
Q 2766 1069 2766 1631 
L 2766 1759 
L 2194 1759 
z
M 3341 1997 
L 3341 0 
L 2766 0 
L 2766 531 
Q 2569 213 2275 61 
Q 1981 -91 1556 -91 
Q 1019 -91 701 211 
Q 384 513 384 1019 
Q 384 1609 779 1909 
Q 1175 2209 1959 2209 
L 2766 2209 
L 2766 2266 
Q 2766 2663 2505 2880 
Q 2244 3097 1772 3097 
Q 1472 3097 1187 3025 
Q 903 2953 641 2809 
L 641 3341 
Q 956 3463 1253 3523 
Q 1550 3584 1831 3584 
Q 2591 3584 2966 3190 
Q 3341 2797 3341 1997 
z
" transform="scale(0.015625)"/>
      <path id="DejaVuSans-50" d="M 3328 2828 
Q 3544 3216 3844 3400 
Q 4144 3584 4550 3584 
Q 5097 3584 5394 3201 
Q 5691 2819 5691 2113 
L 5691 0 
L 5113 0 
L 5113 2094 
Q 5113 2597 4934 2840 
Q 4756 3084 4391 3084 
Q 3944 3084 3684 2787 
Q 3425 2491 3425 1978 
L 3425 0 
L 2847 0 
L 2847 2094 
Q 2847 2600 2669 2842 
Q 2491 3084 2119 3084 
Q 1678 3084 1418 2786 
Q 1159 2488 1159 1978 
L 1159 0 
L 581 0 
L 581 3500 
L 1159 3500 
L 1159 2956 
Q 1356 3278 1631 3431 
Q 1906 3584 2284 3584 
Q 2666 3584 2933 3390 
Q 3200 3197 3328 2828 
z
" transform="scale(0.015625)"/>
      <path id="DejaVuSans-48" d="M 3597 1894 
L 3597 1613 
L 953 1613 
Q 991 1019 1311 708 
Q 1631 397 2203 397 
Q 2534 397 2845 478 
Q 3156 559 3463 722 
L 3463 178 
Q 3153 47 2828 -22 
Q 2503 -91 2169 -91 
Q 1331 -91 842 396 
Q 353 884 353 1716 
Q 353 2575 817 3079 
Q 1281 3584 2069 3584 
Q 2775 3584 3186 3129 
Q 3597 2675 3597 1894 
z
M 3022 2063 
Q 3016 2534 2758 2815 
Q 2500 3097 2075 3097 
Q 1594 3097 1305 2825 
Q 1016 2553 972 2059 
L 3022 2063 
z
" transform="scale(0.015625)"/>
     </defs>
     <use xlink:href="#DejaVuSans-29"/>
     <use xlink:href="#DejaVuSans-55" transform="translate(50.234375 0)"/>
     <use xlink:href="#DejaVuSans-44" transform="translate(91.34375 0)"/>
     <use xlink:href="#DejaVuSans-50" transform="translate(152.625 0)"/>
     <use xlink:href="#DejaVuSans-48" transform="translate(250.03125 0)"/>
    </g>
    <!-- Problem &amp; Metric -->
    <g style="fill: #1a1a1a" transform="translate(142.301953 63.545268) scale(0.075 -0.075)">
     <defs>
      <path id="DejaVuSans-33" d="M 1259 4147 
L 1259 2394 
L 2053 2394 
Q 2494 2394 2734 2622 
Q 2975 2850 2975 3272 
Q 2975 3691 2734 3919 
Q 2494 4147 2053 4147 
L 1259 4147 
z
M 628 4666 
L 2053 4666 
Q 2838 4666 3239 4311 
Q 3641 3956 3641 3272 
Q 3641 2581 3239 2228 
Q 2838 1875 2053 1875 
L 1259 1875 
L 1259 0 
L 628 0 
L 628 4666 
z
" transform="scale(0.015625)"/>
      <path id="DejaVuSans-52" d="M 1959 3097 
Q 1497 3097 1228 2736 
Q 959 2375 959 1747 
Q 959 1119 1226 758 
Q 1494 397 1959 397 
Q 2419 397 2687 759 
Q 2956 1122 2956 1747 
Q 2956 2369 2687 2733 
Q 2419 3097 1959 3097 
z
M 1959 3584 
Q 2709 3584 3137 3096 
Q 3566 2609 3566 1747 
Q 3566 888 3137 398 
Q 2709 -91 1959 -91 
Q 1206 -91 779 398 
Q 353 888 353 1747 
Q 353 2609 779 3096 
Q 1206 3584 1959 3584 
z
" transform="scale(0.015625)"/>
      <path id="DejaVuSans-45" d="M 3116 1747 
Q 3116 2381 2855 2742 
Q 2594 3103 2138 3103 
Q 1681 3103 1420 2742 
Q 1159 2381 1159 1747 
Q 1159 1113 1420 752 
Q 1681 391 2138 391 
Q 2594 391 2855 752 
Q 3116 1113 3116 1747 
z
M 1159 2969 
Q 1341 3281 1617 3432 
Q 1894 3584 2278 3584 
Q 2916 3584 3314 3078 
Q 3713 2572 3713 1747 
Q 3713 922 3314 415 
Q 2916 -91 2278 -91 
Q 1894 -91 1617 61 
Q 1341 213 1159 525 
L 1159 0 
L 581 0 
L 581 4863 
L 1159 4863 
L 1159 2969 
z
" transform="scale(0.015625)"/>
      <path id="DejaVuSans-4f" d="M 603 4863 
L 1178 4863 
L 1178 0 
L 603 0 
L 603 4863 
z
" transform="scale(0.015625)"/>
      <path id="DejaVuSans-3" transform="scale(0.015625)"/>
      <path id="DejaVuSans-9" d="M 1556 2509 
Q 1272 2256 1139 2004 
Q 1006 1753 1006 1478 
Q 1006 1022 1337 719 
Q 1669 416 2169 416 
Q 2466 416 2725 514 
Q 2984 613 3213 813 
L 1556 2509 
z
M 1997 2859 
L 3584 1234 
Q 3769 1513 3872 1830 
Q 3975 2147 3994 2503 
L 4575 2503 
Q 4538 2091 4375 1687 
Q 4213 1284 3922 891 
L 4794 0 
L 4006 0 
L 3559 459 
Q 3234 181 2878 45 
Q 2522 -91 2113 -91 
Q 1359 -91 881 339 
Q 403 769 403 1441 
Q 403 1841 612 2192 
Q 822 2544 1241 2853 
Q 1091 3050 1012 3245 
Q 934 3441 934 3628 
Q 934 4134 1281 4442 
Q 1628 4750 2203 4750 
Q 2463 4750 2720 4694 
Q 2978 4638 3244 4525 
L 3244 3956 
Q 2972 4103 2725 4179 
Q 2478 4256 2266 4256 
Q 1938 4256 1733 4082 
Q 1528 3909 1528 3634 
Q 1528 3475 1620 3314 
Q 1713 3153 1997 2859 
z
" transform="scale(0.015625)"/>
      <path id="DejaVuSans-30" d="M 628 4666 
L 1569 4666 
L 2759 1491 
L 3956 4666 
L 4897 4666 
L 4897 0 
L 4281 0 
L 4281 4097 
L 3078 897 
L 2444 897 
L 1241 4097 
L 1241 0 
L 628 0 
L 628 4666 
z
" transform="scale(0.015625)"/>
      <path id="DejaVuSans-57" d="M 1172 4494 
L 1172 3500 
L 2356 3500 
L 2356 3053 
L 1172 3053 
L 1172 1153 
Q 1172 725 1289 603 
Q 1406 481 1766 481 
L 2356 481 
L 2356 0 
L 1766 0 
Q 1100 0 847 248 
Q 594 497 594 1153 
L 594 3053 
L 172 3053 
L 172 3500 
L 594 3500 
L 594 4494 
L 1172 4494 
z
" transform="scale(0.015625)"/>
      <path id="DejaVuSans-4c" d="M 603 3500 
L 1178 3500 
L 1178 0 
L 603 0 
L 603 3500 
z
M 603 4863 
L 1178 4863 
L 1178 4134 
L 603 4134 
L 603 4863 
z
" transform="scale(0.015625)"/>
      <path id="DejaVuSans-46" d="M 3122 3366 
L 3122 2828 
Q 2878 2963 2633 3030 
Q 2388 3097 2138 3097 
Q 1578 3097 1268 2742 
Q 959 2388 959 1747 
Q 959 1106 1268 751 
Q 1578 397 2138 397 
Q 2388 397 2633 464 
Q 2878 531 3122 666 
L 3122 134 
Q 2881 22 2623 -34 
Q 2366 -91 2075 -91 
Q 1284 -91 818 406 
Q 353 903 353 1747 
Q 353 2603 823 3093 
Q 1294 3584 2113 3584 
Q 2378 3584 2631 3529 
Q 2884 3475 3122 3366 
z
" transform="scale(0.015625)"/>
     </defs>
     <use xlink:href="#DejaVuSans-33"/>
     <use xlink:href="#DejaVuSans-55" transform="translate(58.546875 0)"/>
     <use xlink:href="#DejaVuSans-52" transform="translate(97.453125 0)"/>
     <use xlink:href="#DejaVuSans-45" transform="translate(158.640625 0)"/>
     <use xlink:href="#DejaVuSans-4f" transform="translate(222.125 0)"/>
     <use xlink:href="#DejaVuSans-48" transform="translate(249.90625 0)"/>
     <use xlink:href="#DejaVuSans-50" transform="translate(311.4375 0)"/>
     <use xlink:href="#DejaVuSans-3" transform="translate(408.84375 0)"/>
     <use xlink:href="#DejaVuSans-9" transform="translate(440.625 0)"/>
     <use xlink:href="#DejaVuSans-3" transform="translate(518.609375 0)"/>
     <use xlink:href="#DejaVuSans-30" transform="translate(550.390625 0)"/>
     <use xlink:href="#DejaVuSans-48" transform="translate(636.671875 0)"/>
     <use xlink:href="#DejaVuSans-57" transform="translate(698.203125 0)"/>
     <use xlink:href="#DejaVuSans-55" transform="translate(737.40625 0)"/>
     <use xlink:href="#DejaVuSans-4c" transform="translate(778.515625 0)"/>
     <use xlink:href="#DejaVuSans-46" transform="translate(806.296875 0)"/>
    </g>
   </g>
   <g id="text_2">
    <!-- Data -->
    <g style="fill: #1a1a1a" transform="translate(266.086289 137.703217) scale(0.075 -0.075)">
     <defs>
      <path id="DejaVuSans-27" d="M 1259 4147 
L 1259 519 
L 2022 519 
Q 2988 519 3436 956 
Q 3884 1394 3884 2338 
Q 3884 3275 3436 3711 
Q 2988 4147 2022 4147 
L 1259 4147 
z
M 628 4666 
L 1925 4666 
Q 3281 4666 3915 4102 
Q 4550 3538 4550 2338 
Q 4550 1131 3912 565 
Q 3275 0 1925 0 
L 628 0 
L 628 4666 
z
" transform="scale(0.015625)"/>
     </defs>
     <use xlink:href="#DejaVuSans-27"/>
     <use xlink:href="#DejaVuSans-44" transform="translate(77 0)"/>
     <use xlink:href="#DejaVuSans-57" transform="translate(138.28125 0)"/>
     <use xlink:href="#DejaVuSans-44" transform="translate(177.484375 0)"/>
    </g>
    <!-- Collect &amp; Validate -->
    <g style="fill: #1a1a1a" transform="translate(241.783945 146.705268) scale(0.075 -0.075)">
     <defs>
      <path id="DejaVuSans-26" d="M 4122 4306 
L 4122 3641 
Q 3803 3938 3442 4084 
Q 3081 4231 2675 4231 
Q 1875 4231 1450 3742 
Q 1025 3253 1025 2328 
Q 1025 1406 1450 917 
Q 1875 428 2675 428 
Q 3081 428 3442 575 
Q 3803 722 4122 1019 
L 4122 359 
Q 3791 134 3420 21 
Q 3050 -91 2638 -91 
Q 1578 -91 968 557 
Q 359 1206 359 2328 
Q 359 3453 968 4101 
Q 1578 4750 2638 4750 
Q 3056 4750 3426 4639 
Q 3797 4528 4122 4306 
z
" transform="scale(0.015625)"/>
      <path id="DejaVuSans-39" d="M 1831 0 
L 50 4666 
L 709 4666 
L 2188 738 
L 3669 4666 
L 4325 4666 
L 2547 0 
L 1831 0 
z
" transform="scale(0.015625)"/>
      <path id="DejaVuSans-47" d="M 2906 2969 
L 2906 4863 
L 3481 4863 
L 3481 0 
L 2906 0 
L 2906 525 
Q 2725 213 2448 61 
Q 2172 -91 1784 -91 
Q 1150 -91 751 415 
Q 353 922 353 1747 
Q 353 2572 751 3078 
Q 1150 3584 1784 3584 
Q 2172 3584 2448 3432 
Q 2725 3281 2906 2969 
z
M 947 1747 
Q 947 1113 1208 752 
Q 1469 391 1925 391 
Q 2381 391 2643 752 
Q 2906 1113 2906 1747 
Q 2906 2381 2643 2742 
Q 2381 3103 1925 3103 
Q 1469 3103 1208 2742 
Q 947 2381 947 1747 
z
" transform="scale(0.015625)"/>
     </defs>
     <use xlink:href="#DejaVuSans-26"/>
     <use xlink:href="#DejaVuSans-52" transform="translate(69.828125 0)"/>
     <use xlink:href="#DejaVuSans-4f" transform="translate(131.015625 0)"/>
     <use xlink:href="#DejaVuSans-4f" transform="translate(158.796875 0)"/>
     <use xlink:href="#DejaVuSans-48" transform="translate(186.578125 0)"/>
     <use xlink:href="#DejaVuSans-46" transform="translate(248.109375 0)"/>
     <use xlink:href="#DejaVuSans-57" transform="translate(303.09375 0)"/>
     <use xlink:href="#DejaVuSans-3" transform="translate(342.296875 0)"/>
     <use xlink:href="#DejaVuSans-9" transform="translate(374.078125 0)"/>
     <use xlink:href="#DejaVuSans-3" transform="translate(452.0625 0)"/>
     <use xlink:href="#DejaVuSans-39" transform="translate(483.84375 0)"/>
     <use xlink:href="#DejaVuSans-44" transform="translate(544.484375 0)"/>
     <use xlink:href="#DejaVuSans-4f" transform="translate(605.765625 0)"/>
     <use xlink:href="#DejaVuSans-4c" transform="translate(633.546875 0)"/>
     <use xlink:href="#DejaVuSans-47" transform="translate(661.328125 0)"/>
     <use xlink:href="#DejaVuSans-44" transform="translate(724.8125 0)"/>
     <use xlink:href="#DejaVuSans-57" transform="translate(786.09375 0)"/>
     <use xlink:href="#DejaVuSans-48" transform="translate(825.296875 0)"/>
    </g>
   </g>
   <g id="text_3">
    <!-- Model -->
    <g style="fill: #1a1a1a" transform="translate(263.780039 220.86351) scale(0.075 -0.075)">
     <use xlink:href="#DejaVuSans-30"/>
     <use xlink:href="#DejaVuSans-52" transform="translate(86.28125 0)"/>
     <use xlink:href="#DejaVuSans-47" transform="translate(147.46875 0)"/>
     <use xlink:href="#DejaVuSans-48" transform="translate(210.953125 0)"/>
     <use xlink:href="#DejaVuSans-4f" transform="translate(272.484375 0)"/>
    </g>
    <!-- Build &amp; Tune -->
    <g style="fill: #1a1a1a" transform="translate(251.536875 229.865561) scale(0.075 -0.075)">
     <defs>
      <path id="DejaVuSans-25" d="M 1259 2228 
L 1259 519 
L 2272 519 
Q 2781 519 3026 730 
Q 3272 941 3272 1375 
Q 3272 1813 3026 2020 
Q 2781 2228 2272 2228 
L 1259 2228 
z
M 1259 4147 
L 1259 2741 
L 2194 2741 
Q 2656 2741 2882 2914 
Q 3109 3088 3109 3444 
Q 3109 3797 2882 3972 
Q 2656 4147 2194 4147 
L 1259 4147 
z
M 628 4666 
L 2241 4666 
Q 2963 4666 3353 4366 
Q 3744 4066 3744 3513 
Q 3744 3084 3544 2831 
Q 3344 2578 2956 2516 
Q 3422 2416 3680 2098 
Q 3938 1781 3938 1306 
Q 3938 681 3513 340 
Q 3088 0 2303 0 
L 628 0 
L 628 4666 
z
" transform="scale(0.015625)"/>
      <path id="DejaVuSans-58" d="M 544 1381 
L 544 3500 
L 1119 3500 
L 1119 1403 
Q 1119 906 1312 657 
Q 1506 409 1894 409 
Q 2359 409 2629 706 
Q 2900 1003 2900 1516 
L 2900 3500 
L 3475 3500 
L 3475 0 
L 2900 0 
L 2900 538 
Q 2691 219 2414 64 
Q 2138 -91 1772 -91 
Q 1169 -91 856 284 
Q 544 659 544 1381 
z
M 1991 3584 
L 1991 3584 
z
" transform="scale(0.015625)"/>
      <path id="DejaVuSans-37" d="M -19 4666 
L 3928 4666 
L 3928 4134 
L 2272 4134 
L 2272 0 
L 1638 0 
L 1638 4134 
L -19 4134 
L -19 4666 
z
" transform="scale(0.015625)"/>
      <path id="DejaVuSans-51" d="M 3513 2113 
L 3513 0 
L 2938 0 
L 2938 2094 
Q 2938 2591 2744 2837 
Q 2550 3084 2163 3084 
Q 1697 3084 1428 2787 
Q 1159 2491 1159 1978 
L 1159 0 
L 581 0 
L 581 3500 
L 1159 3500 
L 1159 2956 
Q 1366 3272 1645 3428 
Q 1925 3584 2291 3584 
Q 2894 3584 3203 3211 
Q 3513 2838 3513 2113 
z
" transform="scale(0.015625)"/>
     </defs>
     <use xlink:href="#DejaVuSans-25"/>
     <use xlink:href="#DejaVuSans-58" transform="translate(68.609375 0)"/>
     <use xlink:href="#DejaVuSans-4c" transform="translate(131.984375 0)"/>
     <use xlink:href="#DejaVuSans-4f" transform="translate(159.765625 0)"/>
     <use xlink:href="#DejaVuSans-47" transform="translate(187.546875 0)"/>
     <use xlink:href="#DejaVuSans-3" transform="translate(251.03125 0)"/>
     <use xlink:href="#DejaVuSans-9" transform="translate(282.8125 0)"/>
     <use xlink:href="#DejaVuSans-3" transform="translate(360.796875 0)"/>
     <use xlink:href="#DejaVuSans-37" transform="translate(392.578125 0)"/>
     <use xlink:href="#DejaVuSans-58" transform="translate(438.46875 0)"/>
     <use xlink:href="#DejaVuSans-51" transform="translate(501.84375 0)"/>
     <use xlink:href="#DejaVuSans-48" transform="translate(565.21875 0)"/>
    </g>
   </g>
   <g id="text_4">
    <!-- Evaluate -->
    <g style="fill: #1a1a1a" transform="translate(158.218945 304.02351) scale(0.075 -0.075)">
     <defs>
      <path id="DejaVuSans-28" d="M 628 4666 
L 3578 4666 
L 3578 4134 
L 1259 4134 
L 1259 2753 
L 3481 2753 
L 3481 2222 
L 1259 2222 
L 1259 531 
L 3634 531 
L 3634 0 
L 628 0 
L 628 4666 
z
" transform="scale(0.015625)"/>
      <path id="DejaVuSans-59" d="M 191 3500 
L 800 3500 
L 1894 563 
L 2988 3500 
L 3597 3500 
L 2284 0 
L 1503 0 
L 191 3500 
z
" transform="scale(0.015625)"/>
     </defs>
     <use xlink:href="#DejaVuSans-28"/>
     <use xlink:href="#DejaVuSans-59" transform="translate(63.1875 0)"/>
     <use xlink:href="#DejaVuSans-44" transform="translate(122.375 0)"/>
     <use xlink:href="#DejaVuSans-4f" transform="translate(183.65625 0)"/>
     <use xlink:href="#DejaVuSans-58" transform="translate(211.4375 0)"/>
     <use xlink:href="#DejaVuSans-44" transform="translate(274.8125 0)"/>
     <use xlink:href="#DejaVuSans-57" transform="translate(336.09375 0)"/>
     <use xlink:href="#DejaVuSans-48" transform="translate(375.296875 0)"/>
    </g>
    <!-- Offline + Online -->
    <g style="fill: #1a1a1a" transform="translate(144.674414 313.025561) scale(0.075 -0.075)">
     <defs>
      <path id="DejaVuSans-32" d="M 2522 4238 
Q 1834 4238 1429 3725 
Q 1025 3213 1025 2328 
Q 1025 1447 1429 934 
Q 1834 422 2522 422 
Q 3209 422 3611 934 
Q 4013 1447 4013 2328 
Q 4013 3213 3611 3725 
Q 3209 4238 2522 4238 
z
M 2522 4750 
Q 3503 4750 4090 4092 
Q 4678 3434 4678 2328 
Q 4678 1225 4090 567 
Q 3503 -91 2522 -91 
Q 1538 -91 948 565 
Q 359 1222 359 2328 
Q 359 3434 948 4092 
Q 1538 4750 2522 4750 
z
" transform="scale(0.015625)"/>
      <path id="DejaVuSans-13b2" d="M 2375 4863 
L 2375 4384 
L 1825 4384 
Q 1516 4384 1394 4259 
Q 1275 4134 1275 3809 
L 1275 3500 
L 2853 3500 
L 2853 3744 
Q 2853 4328 3125 4595 
Q 3397 4863 3988 4863 
L 5588 4863 
L 5588 0 
L 5009 0 
L 5009 4384 
L 3981 4384 
Q 3672 4384 3551 4259 
Q 3431 4134 3431 3809 
L 3431 3500 
L 4378 3500 
L 4378 3053 
L 3431 3053 
L 3431 0 
L 2853 0 
L 2853 3053 
L 1275 3053 
L 1275 0 
L 697 0 
L 697 3053 
L 147 3053 
L 147 3500 
L 697 3500 
L 697 3744 
Q 697 4328 969 4595 
Q 1241 4863 1831 4863 
L 2375 4863 
z
" transform="scale(0.015625)"/>
      <path id="DejaVuSans-e" d="M 2944 4013 
L 2944 2272 
L 4684 2272 
L 4684 1741 
L 2944 1741 
L 2944 0 
L 2419 0 
L 2419 1741 
L 678 1741 
L 678 2272 
L 2419 2272 
L 2419 4013 
L 2944 4013 
z
" transform="scale(0.015625)"/>
     </defs>
     <use xlink:href="#DejaVuSans-32"/>
     <use xlink:href="#DejaVuSans-13b2" transform="translate(78.71875 0)"/>
     <use xlink:href="#DejaVuSans-4c" transform="translate(175.40625 0)"/>
     <use xlink:href="#DejaVuSans-51" transform="translate(203.1875 0)"/>
     <use xlink:href="#DejaVuSans-48" transform="translate(266.5625 0)"/>
     <use xlink:href="#DejaVuSans-3" transform="translate(328.09375 0)"/>
     <use xlink:href="#DejaVuSans-e" transform="translate(359.875 0)"/>
     <use xlink:href="#DejaVuSans-3" transform="translate(443.671875 0)"/>
     <use xlink:href="#DejaVuSans-32" transform="translate(475.453125 0)"/>
     <use xlink:href="#DejaVuSans-51" transform="translate(554.171875 0)"/>
     <use xlink:href="#DejaVuSans-4f" transform="translate(617.546875 0)"/>
     <use xlink:href="#DejaVuSans-4c" transform="translate(645.328125 0)"/>
     <use xlink:href="#DejaVuSans-51" transform="translate(673.109375 0)"/>
     <use xlink:href="#DejaVuSans-48" transform="translate(736.484375 0)"/>
    </g>
   </g>
   <g id="text_5">
    <!-- Deploy -->
    <g style="fill: #1a1a1a" transform="translate(61.028555 220.86351) scale(0.075 -0.075)">
     <defs>
      <path id="DejaVuSans-53" d="M 1159 525 
L 1159 -1331 
L 581 -1331 
L 581 3500 
L 1159 3500 
L 1159 2969 
Q 1341 3281 1617 3432 
Q 1894 3584 2278 3584 
Q 2916 3584 3314 3078 
Q 3713 2572 3713 1747 
Q 3713 922 3314 415 
Q 2916 -91 2278 -91 
Q 1894 -91 1617 61 
Q 1341 213 1159 525 
z
M 3116 1747 
Q 3116 2381 2855 2742 
Q 2594 3103 2138 3103 
Q 1681 3103 1420 2742 
Q 1159 2381 1159 1747 
Q 1159 1113 1420 752 
Q 1681 391 2138 391 
Q 2594 391 2855 752 
Q 3116 1113 3116 1747 
z
" transform="scale(0.015625)"/>
      <path id="DejaVuSans-5c" d="M 2059 -325 
Q 1816 -950 1584 -1140 
Q 1353 -1331 966 -1331 
L 506 -1331 
L 506 -850 
L 844 -850 
Q 1081 -850 1212 -737 
Q 1344 -625 1503 -206 
L 1606 56 
L 191 3500 
L 800 3500 
L 1894 763 
L 2988 3500 
L 3597 3500 
L 2059 -325 
z
" transform="scale(0.015625)"/>
     </defs>
     <use xlink:href="#DejaVuSans-27"/>
     <use xlink:href="#DejaVuSans-48" transform="translate(77 0)"/>
     <use xlink:href="#DejaVuSans-53" transform="translate(138.53125 0)"/>
     <use xlink:href="#DejaVuSans-4f" transform="translate(202.015625 0)"/>
     <use xlink:href="#DejaVuSans-52" transform="translate(229.796875 0)"/>
     <use xlink:href="#DejaVuSans-5c" transform="translate(290.984375 0)"/>
    </g>
    <!-- Canary → Shadow -->
    <g style="fill: #1a1a1a" transform="translate(40.484414 229.865561) scale(0.075 -0.075)">
     <defs>
      <path id="DejaVuSans-c1c" d="M 5050 2147 
L 5050 1866 
L 3822 638 
L 3447 1013 
L 4175 1741 
L 366 1741 
L 366 2272 
L 4175 2272 
L 3447 3000 
L 3822 3375 
L 5050 2147 
z
" transform="scale(0.015625)"/>
      <path id="DejaVuSans-36" d="M 3425 4513 
L 3425 3897 
Q 3066 4069 2747 4153 
Q 2428 4238 2131 4238 
Q 1616 4238 1336 4038 
Q 1056 3838 1056 3469 
Q 1056 3159 1242 3001 
Q 1428 2844 1947 2747 
L 2328 2669 
Q 3034 2534 3370 2195 
Q 3706 1856 3706 1288 
Q 3706 609 3251 259 
Q 2797 -91 1919 -91 
Q 1588 -91 1214 -16 
Q 841 59 441 206 
L 441 856 
Q 825 641 1194 531 
Q 1563 422 1919 422 
Q 2459 422 2753 634 
Q 3047 847 3047 1241 
Q 3047 1584 2836 1778 
Q 2625 1972 2144 2069 
L 1759 2144 
Q 1053 2284 737 2584 
Q 422 2884 422 3419 
Q 422 4038 858 4394 
Q 1294 4750 2059 4750 
Q 2388 4750 2728 4690 
Q 3069 4631 3425 4513 
z
" transform="scale(0.015625)"/>
      <path id="DejaVuSans-4b" d="M 3513 2113 
L 3513 0 
L 2938 0 
L 2938 2094 
Q 2938 2591 2744 2837 
Q 2550 3084 2163 3084 
Q 1697 3084 1428 2787 
Q 1159 2491 1159 1978 
L 1159 0 
L 581 0 
L 581 4863 
L 1159 4863 
L 1159 2956 
Q 1366 3272 1645 3428 
Q 1925 3584 2291 3584 
Q 2894 3584 3203 3211 
Q 3513 2838 3513 2113 
z
" transform="scale(0.015625)"/>
      <path id="DejaVuSans-5a" d="M 269 3500 
L 844 3500 
L 1563 769 
L 2278 3500 
L 2956 3500 
L 3675 769 
L 4391 3500 
L 4966 3500 
L 4050 0 
L 3372 0 
L 2619 2869 
L 1863 0 
L 1184 0 
L 269 3500 
z
" transform="scale(0.015625)"/>
     </defs>
     <use xlink:href="#DejaVuSans-26"/>
     <use xlink:href="#DejaVuSans-44" transform="translate(69.828125 0)"/>
     <use xlink:href="#DejaVuSans-51" transform="translate(131.109375 0)"/>
     <use xlink:href="#DejaVuSans-44" transform="translate(194.484375 0)"/>
     <use xlink:href="#DejaVuSans-55" transform="translate(255.765625 0)"/>
     <use xlink:href="#DejaVuSans-5c" transform="translate(296.875 0)"/>
     <use xlink:href="#DejaVuSans-3" transform="translate(356.0625 0)"/>
     <use xlink:href="#DejaVuSans-c1c" transform="translate(387.84375 0)"/>
     <use xlink:href="#DejaVuSans-3" transform="translate(471.640625 0)"/>
     <use xlink:href="#DejaVuSans-36" transform="translate(503.421875 0)"/>
     <use xlink:href="#DejaVuSans-4b" transform="translate(566.90625 0)"/>
     <use xlink:href="#DejaVuSans-44" transform="translate(630.28125 0)"/>
     <use xlink:href="#DejaVuSans-47" transform="translate(691.5625 0)"/>
     <use xlink:href="#DejaVuSans-52" transform="translate(755.046875 0)"/>
     <use xlink:href="#DejaVuSans-5a" transform="translate(816.234375 0)"/>
    </g>
   </g>
   <g id="text_6">
    <!-- Monitor -->
    <g style="fill: #1a1a1a" transform="translate(59.905312 137.70351) scale(0.075 -0.075)">
     <use xlink:href="#DejaVuSans-30"/>
     <use xlink:href="#DejaVuSans-52" transform="translate(86.28125 0)"/>
     <use xlink:href="#DejaVuSans-51" transform="translate(147.46875 0)"/>
     <use xlink:href="#DejaVuSans-4c" transform="translate(210.84375 0)"/>
     <use xlink:href="#DejaVuSans-57" transform="translate(238.625 0)"/>
     <use xlink:href="#DejaVuSans-52" transform="translate(277.828125 0)"/>
     <use xlink:href="#DejaVuSans-55" transform="translate(339.015625 0)"/>
    </g>
    <!-- Drift &amp; Performance -->
    <g style="fill: #1a1a1a" transform="translate(36.892617 146.705561) scale(0.075 -0.075)">
     <defs>
      <path id="DejaVuSans-49" d="M 2375 4863 
L 2375 4384 
L 1825 4384 
Q 1516 4384 1395 4259 
Q 1275 4134 1275 3809 
L 1275 3500 
L 2222 3500 
L 2222 3053 
L 1275 3053 
L 1275 0 
L 697 0 
L 697 3053 
L 147 3053 
L 147 3500 
L 697 3500 
L 697 3744 
Q 697 4328 969 4595 
Q 1241 4863 1831 4863 
L 2375 4863 
z
" transform="scale(0.015625)"/>
     </defs>
     <use xlink:href="#DejaVuSans-27"/>
     <use xlink:href="#DejaVuSans-55" transform="translate(77 0)"/>
     <use xlink:href="#DejaVuSans-4c" transform="translate(118.109375 0)"/>
     <use xlink:href="#DejaVuSans-49" transform="translate(145.890625 0)"/>
     <use xlink:href="#DejaVuSans-57" transform="translate(179.34375 0)"/>
     <use xlink:href="#DejaVuSans-3" transform="translate(218.546875 0)"/>
     <use xlink:href="#DejaVuSans-9" transform="translate(250.328125 0)"/>
     <use xlink:href="#DejaVuSans-3" transform="translate(328.3125 0)"/>
     <use xlink:href="#DejaVuSans-33" transform="translate(360.09375 0)"/>
     <use xlink:href="#DejaVuSans-48" transform="translate(416.828125 0)"/>
     <use xlink:href="#DejaVuSans-55" transform="translate(478.359375 0)"/>
     <use xlink:href="#DejaVuSans-49" transform="translate(519.46875 0)"/>
     <use xlink:href="#DejaVuSans-52" transform="translate(554.671875 0)"/>
     <use xlink:href="#DejaVuSans-55" transform="translate(615.859375 0)"/>
     <use xlink:href="#DejaVuSans-50" transform="translate(655.21875 0)"/>
     <use xlink:href="#DejaVuSans-44" transform="translate(752.625 0)"/>
     <use xlink:href="#DejaVuSans-51" transform="translate(813.90625 0)"/>
     <use xlink:href="#DejaVuSans-46" transform="translate(877.28125 0)"/>
     <use xlink:href="#DejaVuSans-48" transform="translate(932.265625 0)"/>
    </g>
   </g>
   <g id="text_7">
    <!-- ML Project Lifecycle -->
    <g transform="translate(106.887188 23.832) scale(0.12 -0.12)">
     <defs>
      <path id="DejaVuSans-Bold-30" d="M 588 4666 
L 2119 4666 
L 3181 2169 
L 4250 4666 
L 5778 4666 
L 5778 0 
L 4641 0 
L 4641 3413 
L 3566 897 
L 2803 897 
L 1728 3413 
L 1728 0 
L 588 0 
L 588 4666 
z
" transform="scale(0.015625)"/>
      <path id="DejaVuSans-Bold-2f" d="M 588 4666 
L 1791 4666 
L 1791 909 
L 3903 909 
L 3903 0 
L 588 0 
L 588 4666 
z
" transform="scale(0.015625)"/>
      <path id="DejaVuSans-Bold-3" transform="scale(0.015625)"/>
      <path id="DejaVuSans-Bold-33" d="M 588 4666 
L 2584 4666 
Q 3475 4666 3951 4270 
Q 4428 3875 4428 3144 
Q 4428 2409 3951 2014 
Q 3475 1619 2584 1619 
L 1791 1619 
L 1791 0 
L 588 0 
L 588 4666 
z
M 1791 3794 
L 1791 2491 
L 2456 2491 
Q 2806 2491 2997 2661 
Q 3188 2831 3188 3144 
Q 3188 3456 2997 3625 
Q 2806 3794 2456 3794 
L 1791 3794 
z
" transform="scale(0.015625)"/>
      <path id="DejaVuSans-Bold-55" d="M 3138 2547 
Q 2991 2616 2845 2648 
Q 2700 2681 2553 2681 
Q 2122 2681 1889 2404 
Q 1656 2128 1656 1613 
L 1656 0 
L 538 0 
L 538 3500 
L 1656 3500 
L 1656 2925 
Q 1872 3269 2151 3426 
Q 2431 3584 2822 3584 
Q 2878 3584 2943 3579 
Q 3009 3575 3134 3559 
L 3138 2547 
z
" transform="scale(0.015625)"/>
      <path id="DejaVuSans-Bold-52" d="M 2203 2784 
Q 1831 2784 1636 2517 
Q 1441 2250 1441 1747 
Q 1441 1244 1636 976 
Q 1831 709 2203 709 
Q 2569 709 2762 976 
Q 2956 1244 2956 1747 
Q 2956 2250 2762 2517 
Q 2569 2784 2203 2784 
z
M 2203 3584 
Q 3106 3584 3614 3096 
Q 4122 2609 4122 1747 
Q 4122 884 3614 396 
Q 3106 -91 2203 -91 
Q 1297 -91 786 396 
Q 275 884 275 1747 
Q 275 2609 786 3096 
Q 1297 3584 2203 3584 
z
" transform="scale(0.015625)"/>
      <path id="DejaVuSans-Bold-4d" d="M 538 3500 
L 1656 3500 
L 1656 63 
Q 1656 -641 1318 -1011 
Q 981 -1381 341 -1381 
L -213 -1381 
L -213 -647 
L -19 -647 
Q 300 -647 419 -503 
Q 538 -359 538 63 
L 538 3500 
z
M 538 4863 
L 1656 4863 
L 1656 3950 
L 538 3950 
L 538 4863 
z
" transform="scale(0.015625)"/>
      <path id="DejaVuSans-Bold-48" d="M 4031 1759 
L 4031 1441 
L 1416 1441 
Q 1456 1047 1700 850 
Q 1944 653 2381 653 
Q 2734 653 3104 758 
Q 3475 863 3866 1075 
L 3866 213 
Q 3469 63 3072 -14 
Q 2675 -91 2278 -91 
Q 1328 -91 801 392 
Q 275 875 275 1747 
Q 275 2603 792 3093 
Q 1309 3584 2216 3584 
Q 3041 3584 3536 3087 
Q 4031 2591 4031 1759 
z
M 2881 2131 
Q 2881 2450 2695 2645 
Q 2509 2841 2209 2841 
Q 1884 2841 1681 2658 
Q 1478 2475 1428 2131 
L 2881 2131 
z
" transform="scale(0.015625)"/>
      <path id="DejaVuSans-Bold-46" d="M 3366 3391 
L 3366 2478 
Q 3138 2634 2908 2709 
Q 2678 2784 2431 2784 
Q 1963 2784 1702 2511 
Q 1441 2238 1441 1747 
Q 1441 1256 1702 982 
Q 1963 709 2431 709 
Q 2694 709 2930 787 
Q 3166 866 3366 1019 
L 3366 103 
Q 3103 6 2833 -42 
Q 2563 -91 2291 -91 
Q 1344 -91 809 395 
Q 275 881 275 1747 
Q 275 2613 809 3098 
Q 1344 3584 2291 3584 
Q 2566 3584 2833 3536 
Q 3100 3488 3366 3391 
z
" transform="scale(0.015625)"/>
      <path id="DejaVuSans-Bold-57" d="M 1759 4494 
L 1759 3500 
L 2913 3500 
L 2913 2700 
L 1759 2700 
L 1759 1216 
Q 1759 972 1856 886 
Q 1953 800 2241 800 
L 2816 800 
L 2816 0 
L 1856 0 
Q 1194 0 917 276 
Q 641 553 641 1216 
L 641 2700 
L 84 2700 
L 84 3500 
L 641 3500 
L 641 4494 
L 1759 4494 
z
" transform="scale(0.015625)"/>
      <path id="DejaVuSans-Bold-4c" d="M 538 3500 
L 1656 3500 
L 1656 0 
L 538 0 
L 538 3500 
z
M 538 4863 
L 1656 4863 
L 1656 3950 
L 538 3950 
L 538 4863 
z
" transform="scale(0.015625)"/>
      <path id="DejaVuSans-Bold-49" d="M 2841 4863 
L 2841 4128 
L 2222 4128 
Q 1984 4128 1890 4042 
Q 1797 3956 1797 3744 
L 1797 3500 
L 2753 3500 
L 2753 2700 
L 1797 2700 
L 1797 0 
L 678 0 
L 678 2700 
L 122 2700 
L 122 3500 
L 678 3500 
L 678 3744 
Q 678 4316 997 4589 
Q 1316 4863 1984 4863 
L 2841 4863 
z
" transform="scale(0.015625)"/>
      <path id="DejaVuSans-Bold-5c" d="M 78 3500 
L 1197 3500 
L 2138 1125 
L 2938 3500 
L 4056 3500 
L 2584 -331 
Q 2363 -916 2067 -1148 
Q 1772 -1381 1288 -1381 
L 641 -1381 
L 641 -647 
L 991 -647 
Q 1275 -647 1404 -556 
Q 1534 -466 1606 -231 
L 1638 -134 
L 78 3500 
z
" transform="scale(0.015625)"/>
      <path id="DejaVuSans-Bold-4f" d="M 538 4863 
L 1656 4863 
L 1656 0 
L 538 0 
L 538 4863 
z
" transform="scale(0.015625)"/>
     </defs>
     <use xlink:href="#DejaVuSans-Bold-30"/>
     <use xlink:href="#DejaVuSans-Bold-2f" transform="translate(99.515625 0)"/>
     <use xlink:href="#DejaVuSans-Bold-3" transform="translate(163.234375 0)"/>
     <use xlink:href="#DejaVuSans-Bold-33" transform="translate(198.046875 0)"/>
     <use xlink:href="#DejaVuSans-Bold-55" transform="translate(271.34375 0)"/>
     <use xlink:href="#DejaVuSans-Bold-52" transform="translate(320.65625 0)"/>
     <use xlink:href="#DejaVuSans-Bold-4d" transform="translate(389.359375 0)"/>
     <use xlink:href="#DejaVuSans-Bold-48" transform="translate(423.640625 0)"/>
     <use xlink:href="#DejaVuSans-Bold-46" transform="translate(491.46875 0)"/>
     <use xlink:href="#DejaVuSans-Bold-57" transform="translate(550.75 0)"/>
     <use xlink:href="#DejaVuSans-Bold-3" transform="translate(598.546875 0)"/>
     <use xlink:href="#DejaVuSans-Bold-2f" transform="translate(633.359375 0)"/>
     <use xlink:href="#DejaVuSans-Bold-4c" transform="translate(697.078125 0)"/>
     <use xlink:href="#DejaVuSans-Bold-49" transform="translate(731.359375 0)"/>
     <use xlink:href="#DejaVuSans-Bold-48" transform="translate(774.859375 0)"/>
     <use xlink:href="#DejaVuSans-Bold-46" transform="translate(842.6875 0)"/>
     <use xlink:href="#DejaVuSans-Bold-5c" transform="translate(901.96875 0)"/>
     <use xlink:href="#DejaVuSans-Bold-46" transform="translate(967.15625 0)"/>
     <use xlink:href="#DejaVuSans-Bold-4f" transform="translate(1026.4375 0)"/>
     <use xlink:href="#DejaVuSans-Bold-48" transform="translate(1060.71875 0)"/>
    </g>
   </g>
  </g>
 </g>
 <defs>
  <clipPath id="p78e3eff196">
   <rect x="7.2" y="7.2" width="334.8" height="332.64"/>
  </clipPath>
 </defs>
</svg>
