<?xml version="1.0" encoding="utf-8" standalone="no"?>
<!DOCTYPE svg PUBLIC "-//W3C//DTD SVG 1.1//EN"
  "http://www.w3.org/Graphics/SVG/1.1/DTD/svg11.dtd">
<svg xmlns:xlink="http://www.w3.org/1999/xlink" width="572.4pt" height="294.517812pt" viewBox="0 0 572.4 294.517812" xmlns="http://www.w3.org/2000/svg" version="1.1">
 <metadata>
  <rdf:RDF xmlns:dc="http://purl.org/dc/elements/1.1/" xmlns:cc="http://creativecommons.org/ns#" xmlns:rdf="http://www.w3.org/1999/02/22-rdf-syntax-ns#">
   <cc:Work>
    <dc:type rdf:resource="http://purl.org/dc/dcmitype/StillImage"/>
    <dc:date>2026-07-06T17:32:28.525643</dc:date>
    <dc:format>image/svg+xml</dc:format>
    <dc:creator>
     <cc:Agent>
      <dc:title>Matplotlib v3.11.0, https://matplotlib.org/</dc:title>
     </cc:Agent>
    </dc:creator>
   </cc:Work>
  </rdf:RDF>
 </metadata>
 <defs>
  <style type="text/css">*{stroke-linejoin: round; stroke-linecap: butt}</style>
 </defs>
 <g id="figure_1">
  <g id="patch_1">
   <path d="M 0 294.517812 
L 572.4 294.517812 
L 572.4 0 
L 0 0 
L 0 294.517812 
z
" style="fill: none"/>
  </g>
  <g id="axes_1">
   <g id="patch_2">
    <path d="M 57.852346 125.155812 
Q 61.731381 125.155812 63.374347 125.155812 
" style="fill: none; stroke: #888888; stroke-width: 2; stroke-linecap: round"/>
    <path d="M 59.374347 123.155812 
L 63.374347 125.155812 
L 59.374347 127.155812 
" style="fill: none; stroke: #888888; stroke-width: 2; stroke-linecap: round"/>
   </g>
   <g id="patch_3">
    <path d="M 121.261437 125.155812 
Q 125.140472 125.155812 126.783438 125.155812 
" style="fill: none; stroke: #888888; stroke-width: 2; stroke-linecap: round"/>
    <path d="M 122.783438 123.155812 
L 126.783438 125.155812 
L 122.783438 127.155812 
" style="fill: none; stroke: #888888; stroke-width: 2; stroke-linecap: round"/>
   </g>
   <g id="patch_4">
    <path d="M 95.972727 207.484212 
C 97.990682 207.484212 99.926258 206.695609 101.353167 205.292082 
C 102.780076 203.888556 103.581818 201.984699 103.581818 199.999812 
C 103.581818 198.014926 102.780076 196.111069 101.353167 194.707543 
C 99.926258 193.304016 97.990682 192.515412 95.972727 192.515412 
C 93.954773 192.515412 92.019197 193.304016 90.592287 194.707543 
C 89.165378 196.111069 88.363636 198.014926 88.363636 199.999812 
C 88.363636 201.984699 89.165378 203.888556 90.592287 205.292082 
C 92.019197 206.695609 93.954773 207.484212 95.972727 207.484212 
z
" clip-path="url(#pb4ebf642f3)" style="fill: #e74c3c; opacity: 0.3; stroke: #e74c3c; stroke-linejoin: miter"/>
   </g>
   <g id="patch_5">
    <path d="M 14.809091 135.135012 
L 50.318182 135.135012 
Q 51.586364 135.135012 51.586364 133.887612 
L 51.586364 116.424012 
Q 51.586364 115.176612 50.318182 115.176612 
L 14.809091 115.176612 
Q 13.540909 115.176612 13.540909 116.424012 
L 13.540909 133.887612 
Q 13.540909 135.135012 14.809091 135.135012 
z
" clip-path="url(#pb4ebf642f3)" style="fill: #e8f4f8; stroke: #555555; stroke-width: 1.5; stroke-linejoin: miter"/>
   </g>
   <g id="patch_6">
    <path d="M 78.218182 135.135012 
L 113.727273 135.135012 
Q 114.995455 135.135012 114.995455 133.887612 
L 114.995455 116.424012 
Q 114.995455 115.176612 113.727273 115.176612 
L 78.218182 115.176612 
Q 76.95 115.176612 76.95 116.424012 
L 76.95 133.887612 
Q 76.95 135.135012 78.218182 135.135012 
z
" clip-path="url(#pb4ebf642f3)" style="fill: #e8f4f8; stroke: #555555; stroke-width: 1.5; stroke-linejoin: miter"/>
   </g>
   <g id="patch_7">
    <path d="M 141.627273 135.135012 
L 177.136364 135.135012 
Q 178.404545 135.135012 178.404545 133.887612 
L 178.404545 116.424012 
Q 178.404545 115.176612 177.136364 115.176612 
L 141.627273 115.176612 
Q 140.359091 115.176612 140.359091 116.424012 
L 140.359091 133.887612 
Q 140.359091 135.135012 141.627273 135.135012 
z
" clip-path="url(#pb4ebf642f3)" style="fill: #e8f4f8; stroke: #555555; stroke-width: 1.5; stroke-linejoin: miter"/>
   </g>
   <g id="text_1">
    <!-- rnn -->
    <g style="fill: #1a1a1a" transform="translate(26.749808 122.773215) scale(0.07 -0.07)">
     <defs>
      <path id="DejaVuSans-55" d="M 2631 2963 
Q 2534 3019 2420 3045 
Q 2306 3072 2169 3072 
Q 1681 3072 1420 2755 
Q 1159 2438 1159 1844 
L 1159 0 
L 581 0 
L 581 3500 
L 1159 3500 
L 1159 2956 
Q 1341 3275 1631 3429 
Q 1922 3584 2338 3584 
Q 2397 3584 2469 3576 
Q 2541 3569 2628 3553 
L 2631 2963 
z
" transform="scale(0.015625)"/>
      <path id="DejaVuSans-51" d="M 3513 2113 
L 3513 0 
L 2938 0 
L 2938 2094 
Q 2938 2591 2744 2837 
Q 2550 3084 2163 3084 
Q 1697 3084 1428 2787 
Q 1159 2491 1159 1978 
L 1159 0 
L 581 0 
L 581 3500 
L 1159 3500 
L 1159 2956 
Q 1366 3272 1645 3428 
Q 1925 3584 2291 3584 
Q 2894 3584 3203 3211 
Q 3513 2838 3513 2113 
z
" transform="scale(0.015625)"/>
     </defs>
     <use xlink:href="#DejaVuSans-55"/>
     <use xlink:href="#DejaVuSans-51" transform="translate(39.359375 0)"/>
     <use xlink:href="#DejaVuSans-51" transform="translate(102.734375 0)"/>
    </g>
    <!-- cell -->
    <g style="fill: #1a1a1a" transform="translate(26.540902 131.175129) scale(0.07 -0.07)">
     <defs>
      <path id="DejaVuSans-46" d="M 3122 3366 
L 3122 2828 
Q 2878 2963 2633 3030 
Q 2388 3097 2138 3097 
Q 1578 3097 1268 2742 
Q 959 2388 959 1747 
Q 959 1106 1268 751 
Q 1578 397 2138 397 
Q 2388 397 2633 464 
Q 2878 531 3122 666 
L 3122 134 
Q 2881 22 2623 -34 
Q 2366 -91 2075 -91 
Q 1284 -91 818 406 
Q 353 903 353 1747 
Q 353 2603 823 3093 
Q 1294 3584 2113 3584 
Q 2378 3584 2631 3529 
Q 2884 3475 3122 3366 
z
" transform="scale(0.015625)"/>
      <path id="DejaVuSans-48" d="M 3597 1894 
L 3597 1613 
L 953 1613 
Q 991 1019 1311 708 
Q 1631 397 2203 397 
Q 2534 397 2845 478 
Q 3156 559 3463 722 
L 3463 178 
Q 3153 47 2828 -22 
Q 2503 -91 2169 -91 
Q 1331 -91 842 396 
Q 353 884 353 1716 
Q 353 2575 817 3079 
Q 1281 3584 2069 3584 
Q 2775 3584 3186 3129 
Q 3597 2675 3597 1894 
z
M 3022 2063 
Q 3016 2534 2758 2815 
Q 2500 3097 2075 3097 
Q 1594 3097 1305 2825 
Q 1016 2553 972 2059 
L 3022 2063 
z
" transform="scale(0.015625)"/>
      <path id="DejaVuSans-4f" d="M 603 4863 
L 1178 4863 
L 1178 0 
L 603 0 
L 603 4863 
z
" transform="scale(0.015625)"/>
     </defs>
     <use xlink:href="#DejaVuSans-46"/>
     <use xlink:href="#DejaVuSans-48" transform="translate(54.984375 0)"/>
     <use xlink:href="#DejaVuSans-4f" transform="translate(116.515625 0)"/>
     <use xlink:href="#DejaVuSans-4f" transform="translate(144.296875 0)"/>
    </g>
   </g>
   <g id="text_2">
    <!-- x(t-1) -->
    <g style="fill: #555555" transform="translate(22.899261 162.577812) scale(0.07 -0.07)">
     <defs>
      <path id="DejaVuSans-5b" d="M 3513 3500 
L 2247 1797 
L 3578 0 
L 2900 0 
L 1881 1375 
L 863 0 
L 184 0 
L 1544 1831 
L 300 3500 
L 978 3500 
L 1906 2253 
L 2834 3500 
L 3513 3500 
z
" transform="scale(0.015625)"/>
      <path id="DejaVuSans-b" d="M 1984 4856 
Q 1566 4138 1362 3434 
Q 1159 2731 1159 2009 
Q 1159 1288 1364 580 
Q 1569 -128 1984 -844 
L 1484 -844 
Q 1016 -109 783 600 
Q 550 1309 550 2009 
Q 550 2706 781 3412 
Q 1013 4119 1484 4856 
L 1984 4856 
z
" transform="scale(0.015625)"/>
      <path id="DejaVuSans-57" d="M 1172 4494 
L 1172 3500 
L 2356 3500 
L 2356 3053 
L 1172 3053 
L 1172 1153 
Q 1172 725 1289 603 
Q 1406 481 1766 481 
L 2356 481 
L 2356 0 
L 1766 0 
Q 1100 0 847 248 
Q 594 497 594 1153 
L 594 3053 
L 172 3053 
L 172 3500 
L 594 3500 
L 594 4494 
L 1172 4494 
z
" transform="scale(0.015625)"/>
      <path id="DejaVuSans-10" d="M 313 2009 
L 1997 2009 
L 1997 1497 
L 313 1497 
L 313 2009 
z
" transform="scale(0.015625)"/>
      <path id="DejaVuSans-14" d="M 794 531 
L 1825 531 
L 1825 4091 
L 703 3866 
L 703 4441 
L 1819 4666 
L 2450 4666 
L 2450 531 
L 3481 531 
L 3481 0 
L 794 0 
L 794 531 
z
" transform="scale(0.015625)"/>
      <path id="DejaVuSans-c" d="M 513 4856 
L 1013 4856 
Q 1481 4119 1714 3412 
Q 1947 2706 1947 2009 
Q 1947 1309 1714 600 
Q 1481 -109 1013 -844 
L 513 -844 
Q 928 -128 1133 580 
Q 1338 1288 1338 2009 
Q 1338 2731 1133 3434 
Q 928 4138 513 4856 
z
" transform="scale(0.015625)"/>
     </defs>
     <use xlink:href="#DejaVuSans-5b"/>
     <use xlink:href="#DejaVuSans-b" transform="translate(59.1875 0)"/>
     <use xlink:href="#DejaVuSans-57" transform="translate(98.203125 0)"/>
     <use xlink:href="#DejaVuSans-10" transform="translate(137.40625 0)"/>
     <use xlink:href="#DejaVuSans-14" transform="translate(173.484375 0)"/>
     <use xlink:href="#DejaVuSans-c" transform="translate(237.109375 0)"/>
    </g>
   </g>
   <g id="text_3">
    <!-- h(t-1) -->
    <g style="fill: #555555" transform="translate(22.752699 182.536212) scale(0.07 -0.07)">
     <defs>
      <path id="DejaVuSans-4b" d="M 3513 2113 
L 3513 0 
L 2938 0 
L 2938 2094 
Q 2938 2591 2744 2837 
Q 2550 3084 2163 3084 
Q 1697 3084 1428 2787 
Q 1159 2491 1159 1978 
L 1159 0 
L 581 0 
L 581 4863 
L 1159 4863 
L 1159 2956 
Q 1366 3272 1645 3428 
Q 1925 3584 2291 3584 
Q 2894 3584 3203 3211 
Q 3513 2838 3513 2113 
z
" transform="scale(0.015625)"/>
     </defs>
     <use xlink:href="#DejaVuSans-4b"/>
     <use xlink:href="#DejaVuSans-b" transform="translate(63.375 0)"/>
     <use xlink:href="#DejaVuSans-57" transform="translate(102.390625 0)"/>
     <use xlink:href="#DejaVuSans-10" transform="translate(141.59375 0)"/>
     <use xlink:href="#DejaVuSans-14" transform="translate(177.671875 0)"/>
     <use xlink:href="#DejaVuSans-c" transform="translate(241.296875 0)"/>
    </g>
   </g>
   <g id="text_4">
    <!-- rnn -->
    <g style="fill: #1a1a1a" transform="translate(90.158899 122.773215) scale(0.07 -0.07)">
     <use xlink:href="#DejaVuSans-55"/>
     <use xlink:href="#DejaVuSans-51" transform="translate(39.359375 0)"/>
     <use xlink:href="#DejaVuSans-51" transform="translate(102.734375 0)"/>
    </g>
    <!-- cell -->
    <g style="fill: #1a1a1a" transform="translate(89.949993 131.175129) scale(0.07 -0.07)">
     <use xlink:href="#DejaVuSans-46"/>
     <use xlink:href="#DejaVuSans-48" transform="translate(54.984375 0)"/>
     <use xlink:href="#DejaVuSans-4f" transform="translate(116.515625 0)"/>
     <use xlink:href="#DejaVuSans-4f" transform="translate(144.296875 0)"/>
    </g>
   </g>
   <g id="text_5">
    <!-- x(t) -->
    <g style="fill: #555555" transform="translate(89.797962 162.577812) scale(0.07 -0.07)">
     <use xlink:href="#DejaVuSans-5b"/>
     <use xlink:href="#DejaVuSans-b" transform="translate(59.1875 0)"/>
     <use xlink:href="#DejaVuSans-57" transform="translate(98.203125 0)"/>
     <use xlink:href="#DejaVuSans-c" transform="translate(137.40625 0)"/>
    </g>
   </g>
   <g id="text_6">
    <!-- h(t) -->
    <g style="fill: #555555" transform="translate(89.651399 182.536212) scale(0.07 -0.07)">
     <use xlink:href="#DejaVuSans-4b"/>
     <use xlink:href="#DejaVuSans-b" transform="translate(63.375 0)"/>
     <use xlink:href="#DejaVuSans-57" transform="translate(102.390625 0)"/>
     <use xlink:href="#DejaVuSans-c" transform="translate(141.59375 0)"/>
    </g>
   </g>
   <g id="text_7">
    <!-- rnn -->
    <g style="fill: #1a1a1a" transform="translate(153.56799 122.773215) scale(0.07 -0.07)">
     <use xlink:href="#DejaVuSans-55"/>
     <use xlink:href="#DejaVuSans-51" transform="translate(39.359375 0)"/>
     <use xlink:href="#DejaVuSans-51" transform="translate(102.734375 0)"/>
    </g>
    <!-- cell -->
    <g style="fill: #1a1a1a" transform="translate(153.359084 131.175129) scale(0.07 -0.07)">
     <use xlink:href="#DejaVuSans-46"/>
     <use xlink:href="#DejaVuSans-48" transform="translate(54.984375 0)"/>
     <use xlink:href="#DejaVuSans-4f" transform="translate(116.515625 0)"/>
     <use xlink:href="#DejaVuSans-4f" transform="translate(144.296875 0)"/>
    </g>
   </g>
   <g id="text_8">
    <!-- x(t+1) -->
    <g style="fill: #555555" transform="translate(148.047287 162.577812) scale(0.07 -0.07)">
     <defs>
      <path id="DejaVuSans-e" d="M 2944 4013 
L 2944 2272 
L 4684 2272 
L 4684 1741 
L 2944 1741 
L 2944 0 
L 2419 0 
L 2419 1741 
L 678 1741 
L 678 2272 
L 2419 2272 
L 2419 4013 
L 2944 4013 
z
" transform="scale(0.015625)"/>
     </defs>
     <use xlink:href="#DejaVuSans-5b"/>
     <use xlink:href="#DejaVuSans-b" transform="translate(59.1875 0)"/>
     <use xlink:href="#DejaVuSans-57" transform="translate(98.203125 0)"/>
     <use xlink:href="#DejaVuSans-e" transform="translate(137.40625 0)"/>
     <use xlink:href="#DejaVuSans-14" transform="translate(221.203125 0)"/>
     <use xlink:href="#DejaVuSans-c" transform="translate(284.828125 0)"/>
    </g>
   </g>
   <g id="text_9">
    <!-- h(t+1) -->
    <g style="fill: #555555" transform="translate(147.900724 182.536212) scale(0.07 -0.07)">
     <use xlink:href="#DejaVuSans-4b"/>
     <use xlink:href="#DejaVuSans-b" transform="translate(63.375 0)"/>
     <use xlink:href="#DejaVuSans-57" transform="translate(102.390625 0)"/>
     <use xlink:href="#DejaVuSans-e" transform="translate(141.59375 0)"/>
     <use xlink:href="#DejaVuSans-14" transform="translate(225.390625 0)"/>
     <use xlink:href="#DejaVuSans-c" transform="translate(289.015625 0)"/>
    </g>
   </g>
   <g id="text_10">
    <!-- Hidden state passes -->
    <g style="fill: #666666" transform="translate(55.400227 205.742188) scale(0.08 -0.08)">
     <defs>
      <path id="DejaVuSans-Oblique-2b" d="M 1081 4666 
L 1716 4666 
L 1344 2753 
L 3634 2753 
L 4006 4666 
L 4641 4666 
L 3731 0 
L 3097 0 
L 3531 2222 
L 1241 2222 
L 806 0 
L 172 0 
L 1081 4666 
z
" transform="scale(0.015625)"/>
      <path id="DejaVuSans-Oblique-4c" d="M 1172 4863 
L 1747 4863 
L 1606 4134 
L 1031 4134 
L 1172 4863 
z
M 909 3500 
L 1484 3500 
L 800 0 
L 225 0 
L 909 3500 
z
" transform="scale(0.015625)"/>
      <path id="DejaVuSans-Oblique-47" d="M 2675 525 
Q 2444 222 2128 65 
Q 1813 -91 1428 -91 
Q 903 -91 598 267 
Q 294 625 294 1247 
Q 294 1766 478 2236 
Q 663 2706 1013 3078 
Q 1244 3325 1534 3454 
Q 1825 3584 2144 3584 
Q 2481 3584 2739 3421 
Q 2997 3259 3138 2956 
L 3513 4863 
L 4091 4863 
L 3144 0 
L 2566 0 
L 2675 525 
z
M 891 1350 
Q 891 897 1095 644 
Q 1300 391 1663 391 
Q 1931 391 2161 520 
Q 2391 650 2566 903 
Q 2750 1166 2856 1509 
Q 2963 1853 2963 2188 
Q 2963 2622 2758 2865 
Q 2553 3109 2194 3109 
Q 1922 3109 1687 2981 
Q 1453 2853 1288 2613 
Q 1106 2353 998 2009 
Q 891 1666 891 1350 
z
" transform="scale(0.015625)"/>
      <path id="DejaVuSans-Oblique-48" d="M 3078 2063 
Q 3088 2113 3092 2166 
Q 3097 2219 3097 2272 
Q 3097 2653 2873 2875 
Q 2650 3097 2266 3097 
Q 1838 3097 1509 2826 
Q 1181 2556 1013 2059 
L 3078 2063 
z
M 3578 1613 
L 903 1613 
Q 884 1494 878 1425 
Q 872 1356 872 1306 
Q 872 872 1139 634 
Q 1406 397 1894 397 
Q 2269 397 2603 481 
Q 2938 566 3225 728 
L 3116 159 
Q 2806 34 2476 -28 
Q 2147 -91 1806 -91 
Q 1078 -91 686 257 
Q 294 606 294 1247 
Q 294 1794 489 2264 
Q 684 2734 1063 3103 
Q 1306 3334 1642 3459 
Q 1978 3584 2356 3584 
Q 2950 3584 3301 3228 
Q 3653 2872 3653 2272 
Q 3653 2128 3634 1964 
Q 3616 1800 3578 1613 
z
" transform="scale(0.015625)"/>
      <path id="DejaVuSans-Oblique-51" d="M 3566 2113 
L 3156 0 
L 2578 0 
L 2988 2091 
Q 3016 2238 3031 2350 
Q 3047 2463 3047 2528 
Q 3047 2791 2881 2937 
Q 2716 3084 2419 3084 
Q 1956 3084 1622 2776 
Q 1288 2469 1184 1941 
L 800 0 
L 225 0 
L 903 3500 
L 1478 3500 
L 1363 2950 
Q 1603 3253 1940 3418 
Q 2278 3584 2650 3584 
Q 3113 3584 3367 3334 
Q 3622 3084 3622 2631 
Q 3622 2519 3608 2391 
Q 3594 2263 3566 2113 
z
" transform="scale(0.015625)"/>
      <path id="DejaVuSans-Oblique-3" transform="scale(0.015625)"/>
      <path id="DejaVuSans-Oblique-56" d="M 3200 3397 
L 3091 2853 
Q 2863 2978 2609 3040 
Q 2356 3103 2088 3103 
Q 1634 3103 1373 2948 
Q 1113 2794 1113 2528 
Q 1113 2219 1719 2053 
Q 1766 2041 1788 2034 
L 1972 1978 
Q 2547 1819 2739 1644 
Q 2931 1469 2931 1166 
Q 2931 609 2489 259 
Q 2047 -91 1331 -91 
Q 1053 -91 747 -37 
Q 441 16 72 128 
L 184 722 
Q 500 559 806 475 
Q 1113 391 1394 391 
Q 1816 391 2080 572 
Q 2344 753 2344 1031 
Q 2344 1331 1650 1516 
L 1591 1531 
L 1394 1581 
Q 956 1697 753 1886 
Q 550 2075 550 2369 
Q 550 2928 970 3256 
Q 1391 3584 2113 3584 
Q 2397 3584 2667 3537 
Q 2938 3491 3200 3397 
z
" transform="scale(0.015625)"/>
      <path id="DejaVuSans-Oblique-57" d="M 2706 3500 
L 2619 3053 
L 1472 3053 
L 1100 1153 
Q 1081 1047 1072 975 
Q 1063 903 1063 863 
Q 1063 663 1183 572 
Q 1303 481 1569 481 
L 2150 481 
L 2053 0 
L 1503 0 
Q 991 0 739 200 
Q 488 400 488 806 
Q 488 878 497 964 
Q 506 1050 525 1153 
L 897 3053 
L 409 3053 
L 500 3500 
L 978 3500 
L 1172 4494 
L 1747 4494 
L 1556 3500 
L 2706 3500 
z
" transform="scale(0.015625)"/>
      <path id="DejaVuSans-Oblique-44" d="M 3438 1997 
L 3047 0 
L 2472 0 
L 2578 531 
Q 2325 219 2001 64 
Q 1678 -91 1281 -91 
Q 834 -91 548 182 
Q 263 456 263 884 
Q 263 1497 752 1853 
Q 1241 2209 2100 2209 
L 2900 2209 
L 2931 2363 
Q 2938 2388 2941 2417 
Q 2944 2447 2944 2509 
Q 2944 2788 2717 2942 
Q 2491 3097 2081 3097 
Q 1800 3097 1504 3025 
Q 1209 2953 897 2809 
L 997 3341 
Q 1322 3463 1633 3523 
Q 1944 3584 2234 3584 
Q 2853 3584 3176 3315 
Q 3500 3047 3500 2534 
Q 3500 2431 3484 2292 
Q 3469 2153 3438 1997 
z
M 2816 1759 
L 2241 1759 
Q 1534 1759 1195 1570 
Q 856 1381 856 984 
Q 856 709 1029 553 
Q 1203 397 1509 397 
Q 1978 397 2328 733 
Q 2678 1069 2791 1631 
L 2816 1759 
z
" transform="scale(0.015625)"/>
      <path id="DejaVuSans-Oblique-53" d="M 3175 2156 
Q 3175 2616 2975 2859 
Q 2775 3103 2400 3103 
Q 2144 3103 1911 2972 
Q 1678 2841 1497 2591 
Q 1319 2344 1212 1994 
Q 1106 1644 1106 1300 
Q 1106 863 1306 627 
Q 1506 391 1875 391 
Q 2147 391 2380 519 
Q 2613 647 2778 891 
Q 2956 1147 3065 1494 
Q 3175 1841 3175 2156 
z
M 1394 2969 
Q 1625 3272 1939 3428 
Q 2253 3584 2638 3584 
Q 3175 3584 3472 3232 
Q 3769 2881 3769 2247 
Q 3769 1728 3584 1258 
Q 3400 788 3053 416 
Q 2822 169 2531 39 
Q 2241 -91 1919 -91 
Q 1547 -91 1294 64 
Q 1041 219 916 525 
L 556 -1331 
L -19 -1331 
L 922 3500 
L 1497 3500 
L 1394 2969 
z
" transform="scale(0.015625)"/>
     </defs>
     <use xlink:href="#DejaVuSans-Oblique-2b"/>
     <use xlink:href="#DejaVuSans-Oblique-4c" transform="translate(75.203125 0)"/>
     <use xlink:href="#DejaVuSans-Oblique-47" transform="translate(102.984375 0)"/>
     <use xlink:href="#DejaVuSans-Oblique-47" transform="translate(166.46875 0)"/>
     <use xlink:href="#DejaVuSans-Oblique-48" transform="translate(229.953125 0)"/>
     <use xlink:href="#DejaVuSans-Oblique-51" transform="translate(291.484375 0)"/>
     <use xlink:href="#DejaVuSans-Oblique-3" transform="translate(354.859375 0)"/>
     <use xlink:href="#DejaVuSans-Oblique-56" transform="translate(386.640625 0)"/>
     <use xlink:href="#DejaVuSans-Oblique-57" transform="translate(438.734375 0)"/>
     <use xlink:href="#DejaVuSans-Oblique-44" transform="translate(477.9375 0)"/>
     <use xlink:href="#DejaVuSans-Oblique-57" transform="translate(539.21875 0)"/>
     <use xlink:href="#DejaVuSans-Oblique-48" transform="translate(578.421875 0)"/>
     <use xlink:href="#DejaVuSans-Oblique-3" transform="translate(639.953125 0)"/>
     <use xlink:href="#DejaVuSans-Oblique-53" transform="translate(671.734375 0)"/>
     <use xlink:href="#DejaVuSans-Oblique-44" transform="translate(735.21875 0)"/>
     <use xlink:href="#DejaVuSans-Oblique-56" transform="translate(796.5 0)"/>
     <use xlink:href="#DejaVuSans-Oblique-56" transform="translate(848.59375 0)"/>
     <use xlink:href="#DejaVuSans-Oblique-48" transform="translate(900.6875 0)"/>
     <use xlink:href="#DejaVuSans-Oblique-56" transform="translate(962.21875 0)"/>
    </g>
    <!-- context across timesteps$\rightarrow$ -->
    <g style="fill: #666666" transform="translate(40.652727 215.345625) scale(0.08 -0.08)">
     <defs>
      <path id="DejaVuSans-Oblique-46" d="M 3431 3366 
L 3316 2797 
Q 3109 2947 2876 3022 
Q 2644 3097 2394 3097 
Q 2119 3097 1870 3000 
Q 1622 2903 1453 2725 
Q 1184 2453 1037 2087 
Q 891 1722 891 1331 
Q 891 859 1127 628 
Q 1363 397 1844 397 
Q 2081 397 2348 469 
Q 2616 541 2906 684 
L 2797 116 
Q 2547 13 2283 -39 
Q 2019 -91 1741 -91 
Q 1044 -91 669 257 
Q 294 606 294 1253 
Q 294 1797 489 2255 
Q 684 2713 1069 3078 
Q 1331 3328 1684 3456 
Q 2038 3584 2456 3584 
Q 2700 3584 2940 3529 
Q 3181 3475 3431 3366 
z
" transform="scale(0.015625)"/>
      <path id="DejaVuSans-Oblique-52" d="M 1625 -91 
Q 1009 -91 651 289 
Q 294 669 294 1325 
Q 294 1706 417 2101 
Q 541 2497 738 2766 
Q 1047 3184 1428 3384 
Q 1809 3584 2291 3584 
Q 2888 3584 3255 3212 
Q 3622 2841 3622 2241 
Q 3622 1825 3500 1412 
Q 3378 1000 3181 728 
Q 2875 309 2494 109 
Q 2113 -91 1625 -91 
z
M 891 1344 
Q 891 869 1089 633 
Q 1288 397 1691 397 
Q 2269 397 2648 901 
Q 3028 1406 3028 2181 
Q 3028 2634 2825 2865 
Q 2622 3097 2228 3097 
Q 1903 3097 1650 2945 
Q 1397 2794 1197 2484 
Q 1050 2253 970 1956 
Q 891 1659 891 1344 
z
" transform="scale(0.015625)"/>
      <path id="DejaVuSans-Oblique-5b" d="M 3841 3500 
L 2234 1784 
L 3219 0 
L 2559 0 
L 1819 1388 
L 531 0 
L -166 0 
L 1556 1844 
L 641 3500 
L 1300 3500 
L 1972 2234 
L 3144 3500 
L 3841 3500 
z
" transform="scale(0.015625)"/>
      <path id="DejaVuSans-Oblique-55" d="M 2853 2969 
Q 2766 3016 2653 3041 
Q 2541 3066 2413 3066 
Q 1953 3066 1609 2717 
Q 1266 2369 1153 1784 
L 800 0 
L 225 0 
L 909 3500 
L 1484 3500 
L 1375 2956 
Q 1603 3259 1920 3421 
Q 2238 3584 2597 3584 
Q 2691 3584 2781 3573 
Q 2872 3563 2963 3538 
L 2853 2969 
z
" transform="scale(0.015625)"/>
      <path id="DejaVuSans-Oblique-50" d="M 5747 2113 
L 5338 0 
L 4763 0 
L 5166 2094 
Q 5191 2228 5203 2325 
Q 5216 2422 5216 2491 
Q 5216 2772 5059 2928 
Q 4903 3084 4622 3084 
Q 4203 3084 3875 2770 
Q 3547 2456 3450 1953 
L 3066 0 
L 2491 0 
L 2900 2094 
Q 2925 2209 2937 2307 
Q 2950 2406 2950 2484 
Q 2950 2769 2794 2926 
Q 2638 3084 2363 3084 
Q 1938 3084 1609 2770 
Q 1281 2456 1184 1953 
L 800 0 
L 225 0 
L 909 3500 
L 1484 3500 
L 1375 2956 
Q 1609 3263 1923 3423 
Q 2238 3584 2597 3584 
Q 2978 3584 3223 3384 
Q 3469 3184 3519 2828 
Q 3781 3197 4126 3390 
Q 4472 3584 4856 3584 
Q 5306 3584 5551 3325 
Q 5797 3066 5797 2591 
Q 5797 2488 5784 2364 
Q 5772 2241 5747 2113 
z
" transform="scale(0.015625)"/>
      <path id="DejaVuSans-c1c" d="M 5050 2147 
L 5050 1866 
L 3822 638 
L 3447 1013 
L 4175 1741 
L 366 1741 
L 366 2272 
L 4175 2272 
L 3447 3000 
L 3822 3375 
L 5050 2147 
z
" transform="scale(0.015625)"/>
     </defs>
     <use xlink:href="#DejaVuSans-Oblique-46" transform="translate(0 0.015625)"/>
     <use xlink:href="#DejaVuSans-Oblique-52" transform="translate(54.980469 0.015625)"/>
     <use xlink:href="#DejaVuSans-Oblique-51" transform="translate(116.162109 0.015625)"/>
     <use xlink:href="#DejaVuSans-Oblique-57" transform="translate(179.541016 0.015625)"/>
     <use xlink:href="#DejaVuSans-Oblique-48" transform="translate(218.75 0.015625)"/>
     <use xlink:href="#DejaVuSans-Oblique-5b" transform="translate(280.273438 0.015625)"/>
     <use xlink:href="#DejaVuSans-Oblique-57" transform="translate(339.453125 0.015625)"/>
     <use xlink:href="#DejaVuSans-Oblique-3" transform="translate(378.662109 0.015625)"/>
     <use xlink:href="#DejaVuSans-Oblique-44" transform="translate(410.449219 0.015625)"/>
     <use xlink:href="#DejaVuSans-Oblique-46" transform="translate(471.728516 0.015625)"/>
     <use xlink:href="#DejaVuSans-Oblique-55" transform="translate(526.708984 0.015625)"/>
     <use xlink:href="#DejaVuSans-Oblique-52" transform="translate(567.822266 0.015625)"/>
     <use xlink:href="#DejaVuSans-Oblique-56" transform="translate(629.003906 0.015625)"/>
     <use xlink:href="#DejaVuSans-Oblique-56" transform="translate(681.103516 0.015625)"/>
     <use xlink:href="#DejaVuSans-Oblique-3" transform="translate(733.203125 0.015625)"/>
     <use xlink:href="#DejaVuSans-Oblique-57" transform="translate(764.990234 0.015625)"/>
     <use xlink:href="#DejaVuSans-Oblique-4c" transform="translate(804.199219 0.015625)"/>
     <use xlink:href="#DejaVuSans-Oblique-50" transform="translate(831.982422 0.015625)"/>
     <use xlink:href="#DejaVuSans-Oblique-48" transform="translate(929.394531 0.015625)"/>
     <use xlink:href="#DejaVuSans-Oblique-56" transform="translate(990.917969 0.015625)"/>
     <use xlink:href="#DejaVuSans-Oblique-57" transform="translate(1043.017578 0.015625)"/>
     <use xlink:href="#DejaVuSans-Oblique-48" transform="translate(1082.226562 0.015625)"/>
     <use xlink:href="#DejaVuSans-Oblique-53" transform="translate(1143.75 0.015625)"/>
     <use xlink:href="#DejaVuSans-Oblique-56" transform="translate(1207.226562 0.015625)"/>
     <use xlink:href="#DejaVuSans-c1c" transform="translate(1278.808594 0.015625)"/>
    </g>
    <!-- Vanishing gradient problem -->
    <g style="fill: #666666" transform="translate(40.558352 224.947812) scale(0.08 -0.08)">
     <defs>
      <path id="DejaVuSans-Oblique-39" d="M 1319 0 
L 500 4666 
L 1119 4666 
L 1797 653 
L 4063 4666 
L 4750 4666 
L 2053 0 
L 1319 0 
z
" transform="scale(0.015625)"/>
      <path id="DejaVuSans-Oblique-4b" d="M 3566 2113 
L 3156 0 
L 2578 0 
L 2988 2091 
Q 3016 2238 3031 2350 
Q 3047 2463 3047 2528 
Q 3047 2791 2881 2937 
Q 2716 3084 2419 3084 
Q 1956 3084 1617 2771 
Q 1278 2459 1178 1941 
L 800 0 
L 225 0 
L 1172 4863 
L 1747 4863 
L 1375 2950 
Q 1594 3244 1934 3414 
Q 2275 3584 2650 3584 
Q 3113 3584 3367 3334 
Q 3622 3084 3622 2631 
Q 3622 2519 3608 2391 
Q 3594 2263 3566 2113 
z
" transform="scale(0.015625)"/>
      <path id="DejaVuSans-Oblique-4a" d="M 3816 3500 
L 3219 434 
Q 3047 -456 2561 -893 
Q 2075 -1331 1253 -1331 
Q 950 -1331 690 -1286 
Q 431 -1241 206 -1147 
L 313 -588 
Q 525 -725 762 -790 
Q 1000 -856 1269 -856 
Q 1816 -856 2167 -557 
Q 2519 -259 2631 300 
L 2681 563 
Q 2441 288 2122 144 
Q 1803 0 1434 0 
Q 903 0 598 351 
Q 294 703 294 1319 
Q 294 1803 478 2267 
Q 663 2731 997 3091 
Q 1219 3328 1514 3456 
Q 1809 3584 2131 3584 
Q 2484 3584 2746 3420 
Q 3009 3256 3138 2956 
L 3238 3500 
L 3816 3500 
z
M 2950 2216 
Q 2950 2641 2750 2872 
Q 2550 3103 2181 3103 
Q 1953 3103 1747 3012 
Q 1541 2922 1394 2759 
Q 1156 2491 1023 2127 
Q 891 1763 891 1375 
Q 891 944 1092 712 
Q 1294 481 1672 481 
Q 2219 481 2584 976 
Q 2950 1472 2950 2216 
z
" transform="scale(0.015625)"/>
      <path id="DejaVuSans-Oblique-45" d="M 3169 2138 
Q 3169 2591 2961 2847 
Q 2753 3103 2388 3103 
Q 2122 3103 1889 2973 
Q 1656 2844 1484 2597 
Q 1303 2338 1198 1995 
Q 1094 1653 1094 1313 
Q 1094 881 1298 636 
Q 1503 391 1863 391 
Q 2134 391 2365 517 
Q 2597 644 2772 891 
Q 2950 1147 3059 1487 
Q 3169 1828 3169 2138 
z
M 1381 2969 
Q 1594 3256 1914 3420 
Q 2234 3584 2584 3584 
Q 3122 3584 3439 3221 
Q 3756 2859 3756 2241 
Q 3756 1734 3570 1259 
Q 3384 784 3041 416 
Q 2816 172 2522 40 
Q 2228 -91 1906 -91 
Q 1566 -91 1316 65 
Q 1066 222 909 531 
L 806 0 
L 231 0 
L 1178 4863 
L 1753 4863 
L 1381 2969 
z
" transform="scale(0.015625)"/>
      <path id="DejaVuSans-Oblique-4f" d="M 1172 4863 
L 1747 4863 
L 800 0 
L 225 0 
L 1172 4863 
z
" transform="scale(0.015625)"/>
     </defs>
     <use xlink:href="#DejaVuSans-Oblique-39"/>
     <use xlink:href="#DejaVuSans-Oblique-44" transform="translate(62.015625 0)"/>
     <use xlink:href="#DejaVuSans-Oblique-51" transform="translate(123.296875 0)"/>
     <use xlink:href="#DejaVuSans-Oblique-4c" transform="translate(186.671875 0)"/>
     <use xlink:href="#DejaVuSans-Oblique-56" transform="translate(214.453125 0)"/>
     <use xlink:href="#DejaVuSans-Oblique-4b" transform="translate(266.546875 0)"/>
     <use xlink:href="#DejaVuSans-Oblique-4c" transform="translate(329.921875 0)"/>
     <use xlink:href="#DejaVuSans-Oblique-51" transform="translate(357.703125 0)"/>
     <use xlink:href="#DejaVuSans-Oblique-4a" transform="translate(421.078125 0)"/>
     <use xlink:href="#DejaVuSans-Oblique-3" transform="translate(484.5625 0)"/>
     <use xlink:href="#DejaVuSans-Oblique-4a" transform="translate(516.34375 0)"/>
     <use xlink:href="#DejaVuSans-Oblique-55" transform="translate(579.828125 0)"/>
     <use xlink:href="#DejaVuSans-Oblique-44" transform="translate(620.9375 0)"/>
     <use xlink:href="#DejaVuSans-Oblique-47" transform="translate(682.21875 0)"/>
     <use xlink:href="#DejaVuSans-Oblique-4c" transform="translate(745.703125 0)"/>
     <use xlink:href="#DejaVuSans-Oblique-48" transform="translate(773.484375 0)"/>
     <use xlink:href="#DejaVuSans-Oblique-51" transform="translate(835.015625 0)"/>
     <use xlink:href="#DejaVuSans-Oblique-57" transform="translate(898.390625 0)"/>
     <use xlink:href="#DejaVuSans-Oblique-3" transform="translate(937.59375 0)"/>
     <use xlink:href="#DejaVuSans-Oblique-53" transform="translate(969.375 0)"/>
     <use xlink:href="#DejaVuSans-Oblique-55" transform="translate(1032.859375 0)"/>
     <use xlink:href="#DejaVuSans-Oblique-52" transform="translate(1073.96875 0)"/>
     <use xlink:href="#DejaVuSans-Oblique-45" transform="translate(1135.15625 0)"/>
     <use xlink:href="#DejaVuSans-Oblique-4f" transform="translate(1198.640625 0)"/>
     <use xlink:href="#DejaVuSans-Oblique-48" transform="translate(1226.421875 0)"/>
     <use xlink:href="#DejaVuSans-Oblique-50" transform="translate(1287.953125 0)"/>
    </g>
   </g>
   <g id="text_11">
    <!-- RNN (unrolled) -->
    <g transform="translate(75.291463 17.837812) scale(0.14 -0.14)">
     <defs>
      <path id="DejaVuSans-Bold-35" d="M 2297 2597 
Q 2675 2597 2839 2737 
Q 3003 2878 3003 3200 
Q 3003 3519 2839 3656 
Q 2675 3794 2297 3794 
L 1791 3794 
L 1791 2597 
L 2297 2597 
z
M 1791 1766 
L 1791 0 
L 588 0 
L 588 4666 
L 2425 4666 
Q 3347 4666 3776 4356 
Q 4206 4047 4206 3378 
Q 4206 2916 3982 2619 
Q 3759 2322 3309 2181 
Q 3556 2125 3751 1926 
Q 3947 1728 4147 1325 
L 4800 0 
L 3519 0 
L 2950 1159 
Q 2778 1509 2601 1637 
Q 2425 1766 2131 1766 
L 1791 1766 
z
" transform="scale(0.015625)"/>
      <path id="DejaVuSans-Bold-31" d="M 588 4666 
L 1931 4666 
L 3628 1466 
L 3628 4666 
L 4769 4666 
L 4769 0 
L 3425 0 
L 1728 3200 
L 1728 0 
L 588 0 
L 588 4666 
z
" transform="scale(0.015625)"/>
      <path id="DejaVuSans-Bold-3" transform="scale(0.015625)"/>
      <path id="DejaVuSans-Bold-b" d="M 2413 -844 
L 1484 -844 
Q 1006 -72 778 623 
Q 550 1319 550 2003 
Q 550 2688 779 3389 
Q 1009 4091 1484 4856 
L 2413 4856 
Q 2013 4116 1813 3408 
Q 1613 2700 1613 2009 
Q 1613 1319 1811 609 
Q 2009 -100 2413 -844 
z
" transform="scale(0.015625)"/>
      <path id="DejaVuSans-Bold-58" d="M 500 1363 
L 500 3500 
L 1625 3500 
L 1625 3150 
Q 1625 2866 1622 2436 
Q 1619 2006 1619 1863 
Q 1619 1441 1641 1255 
Q 1663 1069 1716 984 
Q 1784 875 1895 815 
Q 2006 756 2150 756 
Q 2500 756 2700 1025 
Q 2900 1294 2900 1772 
L 2900 3500 
L 4019 3500 
L 4019 0 
L 2900 0 
L 2900 506 
Q 2647 200 2364 54 
Q 2081 -91 1741 -91 
Q 1134 -91 817 281 
Q 500 653 500 1363 
z
" transform="scale(0.015625)"/>
      <path id="DejaVuSans-Bold-51" d="M 4056 2131 
L 4056 0 
L 2931 0 
L 2931 347 
L 2931 1631 
Q 2931 2084 2911 2256 
Q 2891 2428 2841 2509 
Q 2775 2619 2662 2680 
Q 2550 2741 2406 2741 
Q 2056 2741 1856 2470 
Q 1656 2200 1656 1722 
L 1656 0 
L 538 0 
L 538 3500 
L 1656 3500 
L 1656 2988 
Q 1909 3294 2193 3439 
Q 2478 3584 2822 3584 
Q 3428 3584 3742 3212 
Q 4056 2841 4056 2131 
z
" transform="scale(0.015625)"/>
      <path id="DejaVuSans-Bold-55" d="M 3138 2547 
Q 2991 2616 2845 2648 
Q 2700 2681 2553 2681 
Q 2122 2681 1889 2404 
Q 1656 2128 1656 1613 
L 1656 0 
L 538 0 
L 538 3500 
L 1656 3500 
L 1656 2925 
Q 1872 3269 2151 3426 
Q 2431 3584 2822 3584 
Q 2878 3584 2943 3579 
Q 3009 3575 3134 3559 
L 3138 2547 
z
" transform="scale(0.015625)"/>
      <path id="DejaVuSans-Bold-52" d="M 2203 2784 
Q 1831 2784 1636 2517 
Q 1441 2250 1441 1747 
Q 1441 1244 1636 976 
Q 1831 709 2203 709 
Q 2569 709 2762 976 
Q 2956 1244 2956 1747 
Q 2956 2250 2762 2517 
Q 2569 2784 2203 2784 
z
M 2203 3584 
Q 3106 3584 3614 3096 
Q 4122 2609 4122 1747 
Q 4122 884 3614 396 
Q 3106 -91 2203 -91 
Q 1297 -91 786 396 
Q 275 884 275 1747 
Q 275 2609 786 3096 
Q 1297 3584 2203 3584 
z
" transform="scale(0.015625)"/>
      <path id="DejaVuSans-Bold-4f" d="M 538 4863 
L 1656 4863 
L 1656 0 
L 538 0 
L 538 4863 
z
" transform="scale(0.015625)"/>
      <path id="DejaVuSans-Bold-48" d="M 4031 1759 
L 4031 1441 
L 1416 1441 
Q 1456 1047 1700 850 
Q 1944 653 2381 653 
Q 2734 653 3104 758 
Q 3475 863 3866 1075 
L 3866 213 
Q 3469 63 3072 -14 
Q 2675 -91 2278 -91 
Q 1328 -91 801 392 
Q 275 875 275 1747 
Q 275 2603 792 3093 
Q 1309 3584 2216 3584 
Q 3041 3584 3536 3087 
Q 4031 2591 4031 1759 
z
M 2881 2131 
Q 2881 2450 2695 2645 
Q 2509 2841 2209 2841 
Q 1884 2841 1681 2658 
Q 1478 2475 1428 2131 
L 2881 2131 
z
" transform="scale(0.015625)"/>
      <path id="DejaVuSans-Bold-47" d="M 2919 2988 
L 2919 4863 
L 4044 4863 
L 4044 0 
L 2919 0 
L 2919 506 
Q 2688 197 2409 53 
Q 2131 -91 1766 -91 
Q 1119 -91 703 423 
Q 288 938 288 1747 
Q 288 2556 703 3070 
Q 1119 3584 1766 3584 
Q 2128 3584 2408 3439 
Q 2688 3294 2919 2988 
z
M 2181 722 
Q 2541 722 2730 984 
Q 2919 1247 2919 1747 
Q 2919 2247 2730 2509 
Q 2541 2772 2181 2772 
Q 1825 2772 1636 2509 
Q 1447 2247 1447 1747 
Q 1447 1247 1636 984 
Q 1825 722 2181 722 
z
" transform="scale(0.015625)"/>
      <path id="DejaVuSans-Bold-c" d="M 513 -844 
Q 913 -100 1113 609 
Q 1313 1319 1313 2009 
Q 1313 2700 1113 3408 
Q 913 4116 513 4856 
L 1441 4856 
Q 1916 4091 2145 3389 
Q 2375 2688 2375 2003 
Q 2375 1319 2147 623 
Q 1919 -72 1441 -844 
L 513 -844 
z
" transform="scale(0.015625)"/>
     </defs>
     <use xlink:href="#DejaVuSans-Bold-35"/>
     <use xlink:href="#DejaVuSans-Bold-31" transform="translate(77 0)"/>
     <use xlink:href="#DejaVuSans-Bold-31" transform="translate(160.6875 0)"/>
     <use xlink:href="#DejaVuSans-Bold-3" transform="translate(244.375 0)"/>
     <use xlink:href="#DejaVuSans-Bold-b" transform="translate(279.1875 0)"/>
     <use xlink:href="#DejaVuSans-Bold-58" transform="translate(324.890625 0)"/>
     <use xlink:href="#DejaVuSans-Bold-51" transform="translate(396.078125 0)"/>
     <use xlink:href="#DejaVuSans-Bold-55" transform="translate(467.265625 0)"/>
     <use xlink:href="#DejaVuSans-Bold-52" transform="translate(516.578125 0)"/>
     <use xlink:href="#DejaVuSans-Bold-4f" transform="translate(585.28125 0)"/>
     <use xlink:href="#DejaVuSans-Bold-4f" transform="translate(619.5625 0)"/>
     <use xlink:href="#DejaVuSans-Bold-48" transform="translate(653.84375 0)"/>
     <use xlink:href="#DejaVuSans-Bold-47" transform="translate(721.671875 0)"/>
     <use xlink:href="#DejaVuSans-Bold-c" transform="translate(793.25 0)"/>
    </g>
   </g>
  </g>
  <g id="axes_2">
   <g id="line2d_1">
    <path d="M 336.927273 100.207812 
L 539.836364 100.207812 
" clip-path="url(#p1328d08f63)" style="fill: none; stroke: #e74c3c; stroke-opacity: 0.5; stroke-width: 3; stroke-linecap: square"/>
   </g>
   <g id="patch_8">
    <path d="M 349.609091 142.63403 
Q 349.609091 145.121521 349.609091 145.372945 
" style="fill: none; stroke: #888888; stroke-width: 2; stroke-linecap: round"/>
    <path d="M 351.609091 141.372945 
L 349.609091 145.372945 
L 347.609091 141.372945 
" style="fill: none; stroke: #888888; stroke-width: 2; stroke-linecap: round"/>
   </g>
   <g id="patch_9">
    <path d="M 438.381818 142.63403 
Q 438.381818 145.121521 438.381818 145.372945 
" style="fill: none; stroke: #888888; stroke-width: 2; stroke-linecap: round"/>
    <path d="M 440.381818 141.372945 
L 438.381818 145.372945 
L 436.381818 141.372945 
" style="fill: none; stroke: #888888; stroke-width: 2; stroke-linecap: round"/>
   </g>
   <g id="patch_10">
    <path d="M 527.154545 142.63403 
Q 527.154545 145.121521 527.154545 145.372945 
" style="fill: none; stroke: #888888; stroke-width: 2; stroke-linecap: round"/>
    <path d="M 529.154545 141.372945 
L 527.154545 145.372945 
L 525.154545 141.372945 
" style="fill: none; stroke: #888888; stroke-width: 2; stroke-linecap: round"/>
   </g>
   <g id="patch_11">
    <path d="M 325.513636 177.546612 
L 373.704545 177.546612 
Q 374.972727 177.546612 374.972727 176.299212 
L 374.972727 148.856412 
Q 374.972727 147.609012 373.704545 147.609012 
L 325.513636 147.609012 
Q 324.245455 147.609012 324.245455 148.856412 
L 324.245455 176.299212 
Q 324.245455 177.546612 325.513636 177.546612 
z
" clip-path="url(#p1328d08f63)" style="fill: #fef9e7; stroke: #555555; stroke-width: 1.5; stroke-linejoin: miter"/>
   </g>
   <g id="patch_12">
    <path d="M 414.286364 177.546612 
L 462.477273 177.546612 
Q 463.745455 177.546612 463.745455 176.299212 
L 463.745455 148.856412 
Q 463.745455 147.609012 462.477273 147.609012 
L 414.286364 147.609012 
Q 413.018182 147.609012 413.018182 148.856412 
L 413.018182 176.299212 
Q 413.018182 177.546612 414.286364 177.546612 
z
" clip-path="url(#p1328d08f63)" style="fill: #fef9e7; stroke: #555555; stroke-width: 1.5; stroke-linejoin: miter"/>
   </g>
   <g id="patch_13">
    <path d="M 503.059091 177.546612 
L 551.25 177.546612 
Q 552.518182 177.546612 552.518182 176.299212 
L 552.518182 148.856412 
Q 552.518182 147.609012 551.25 147.609012 
L 503.059091 147.609012 
Q 501.790909 147.609012 501.790909 148.856412 
L 501.790909 176.299212 
Q 501.790909 177.546612 503.059091 177.546612 
z
" clip-path="url(#p1328d08f63)" style="fill: #fef9e7; stroke: #555555; stroke-width: 1.5; stroke-linejoin: miter"/>
   </g>
   <g id="patch_14">
    <path d="M 401.604545 222.453012 
L 475.159091 222.453012 
Q 476.427273 222.453012 476.427273 221.205613 
L 476.427273 203.742012 
Q 476.427273 202.494612 475.159091 202.494612 
L 401.604545 202.494612 
Q 400.336364 202.494612 400.336364 203.742012 
L 400.336364 221.205613 
Q 400.336364 222.453012 401.604545 222.453012 
z
" clip-path="url(#p1328d08f63)" style="fill: #fdebd0; stroke: #555555; stroke-width: 1.5; stroke-linejoin: miter"/>
   </g>
   <g id="text_12">
    <!-- Cell state $c_t$ — gradient highway -->
    <g style="fill: #e74c3c" transform="translate(373.341818 82.744212) scale(0.08 -0.08)">
     <defs>
      <path id="DejaVuSans-Oblique-26" d="M 4447 4306 
L 4319 3641 
Q 4019 3944 3683 4091 
Q 3347 4238 2956 4238 
Q 2422 4238 2017 3981 
Q 1613 3725 1319 3200 
Q 1131 2863 1032 2486 
Q 934 2109 934 1728 
Q 934 1091 1264 756 
Q 1594 422 2222 422 
Q 2656 422 3056 561 
Q 3456 700 3834 978 
L 3688 231 
Q 3316 72 2936 -9 
Q 2556 -91 2175 -91 
Q 1278 -91 773 396 
Q 269 884 269 1753 
Q 269 2309 461 2846 
Q 653 3384 1013 3828 
Q 1394 4300 1883 4525 
Q 2372 4750 3022 4750 
Q 3422 4750 3780 4639 
Q 4138 4528 4447 4306 
z
" transform="scale(0.015625)"/>
      <path id="DejaVuSansDisplay-4" d="M 313 1978 
L 6088 1978 
L 6088 1528 
L 313 1528 
L 313 1978 
z
" transform="scale(0.015625)"/>
      <path id="DejaVuSans-Oblique-5a" d="M 544 3500 
L 1113 3500 
L 1259 684 
L 2566 3500 
L 3231 3500 
L 3425 684 
L 4666 3500 
L 5241 3500 
L 3641 0 
L 2969 0 
L 2797 2900 
L 1459 0 
L 781 0 
L 544 3500 
z
" transform="scale(0.015625)"/>
      <path id="DejaVuSans-Oblique-5c" d="M 1588 -325 
Q 1188 -997 936 -1164 
Q 684 -1331 294 -1331 
L -159 -1331 
L -63 -850 
L 269 -850 
Q 509 -850 678 -719 
Q 847 -588 1056 -206 
L 1234 128 
L 459 3500 
L 1069 3500 
L 1650 819 
L 3256 3500 
L 3859 3500 
L 1588 -325 
z
" transform="scale(0.015625)"/>
     </defs>
     <use xlink:href="#DejaVuSans-Oblique-26" transform="translate(0 0.015625)"/>
     <use xlink:href="#DejaVuSans-Oblique-48" transform="translate(69.824219 0.015625)"/>
     <use xlink:href="#DejaVuSans-Oblique-4f" transform="translate(131.347656 0.015625)"/>
     <use xlink:href="#DejaVuSans-Oblique-4f" transform="translate(159.130859 0.015625)"/>
     <use xlink:href="#DejaVuSans-Oblique-3" transform="translate(186.914062 0.015625)"/>
     <use xlink:href="#DejaVuSans-Oblique-56" transform="translate(218.701172 0.015625)"/>
     <use xlink:href="#DejaVuSans-Oblique-57" transform="translate(270.800781 0.015625)"/>
     <use xlink:href="#DejaVuSans-Oblique-44" transform="translate(310.009766 0.015625)"/>
     <use xlink:href="#DejaVuSans-Oblique-57" transform="translate(371.289062 0.015625)"/>
     <use xlink:href="#DejaVuSans-Oblique-48" transform="translate(410.498047 0.015625)"/>
     <use xlink:href="#DejaVuSans-Oblique-3" transform="translate(472.021484 0.015625)"/>
     <use xlink:href="#DejaVuSans-Oblique-46" transform="translate(503.808594 0.015625)"/>
     <use xlink:href="#DejaVuSans-Oblique-57" transform="translate(558.789062 -14.984326) scale(0.7)"/>
     <use xlink:href="#DejaVuSans-Oblique-3" transform="translate(588.969727 0.015625)"/>
     <use xlink:href="#DejaVuSansDisplay-4" transform="translate(620.756836 0.015625)"/>
     <use xlink:href="#DejaVuSans-Oblique-3" transform="translate(720.756836 0.015625)"/>
     <use xlink:href="#DejaVuSans-Oblique-4a" transform="translate(752.543945 0.015625)"/>
     <use xlink:href="#DejaVuSans-Oblique-55" transform="translate(816.020508 0.015625)"/>
     <use xlink:href="#DejaVuSans-Oblique-44" transform="translate(857.133789 0.015625)"/>
     <use xlink:href="#DejaVuSans-Oblique-47" transform="translate(918.413086 0.015625)"/>
     <use xlink:href="#DejaVuSans-Oblique-4c" transform="translate(981.889648 0.015625)"/>
     <use xlink:href="#DejaVuSans-Oblique-48" transform="translate(1009.672852 0.015625)"/>
     <use xlink:href="#DejaVuSans-Oblique-51" transform="translate(1071.196289 0.015625)"/>
     <use xlink:href="#DejaVuSans-Oblique-57" transform="translate(1134.575195 0.015625)"/>
     <use xlink:href="#DejaVuSans-Oblique-3" transform="translate(1173.78418 0.015625)"/>
     <use xlink:href="#DejaVuSans-Oblique-4b" transform="translate(1205.571289 0.015625)"/>
     <use xlink:href="#DejaVuSans-Oblique-4c" transform="translate(1268.950195 0.015625)"/>
     <use xlink:href="#DejaVuSans-Oblique-4a" transform="translate(1296.733398 0.015625)"/>
     <use xlink:href="#DejaVuSans-Oblique-4b" transform="translate(1360.209961 0.015625)"/>
     <use xlink:href="#DejaVuSans-Oblique-5a" transform="translate(1423.588867 0.015625)"/>
     <use xlink:href="#DejaVuSans-Oblique-44" transform="translate(1505.375977 0.015625)"/>
     <use xlink:href="#DejaVuSans-Oblique-5c" transform="translate(1566.655273 0.015625)"/>
    </g>
   </g>
   <g id="text_13">
    <!-- Forget -->
    <g style="fill: #1a1a1a" transform="translate(338.453935 160.195488) scale(0.07 -0.07)">
     <defs>
      <path id="DejaVuSans-29" d="M 628 4666 
L 3309 4666 
L 3309 4134 
L 1259 4134 
L 1259 2759 
L 3109 2759 
L 3109 2228 
L 1259 2228 
L 1259 0 
L 628 0 
L 628 4666 
z
" transform="scale(0.015625)"/>
      <path id="DejaVuSans-52" d="M 1959 3097 
Q 1497 3097 1228 2736 
Q 959 2375 959 1747 
Q 959 1119 1226 758 
Q 1494 397 1959 397 
Q 2419 397 2687 759 
Q 2956 1122 2956 1747 
Q 2956 2369 2687 2733 
Q 2419 3097 1959 3097 
z
M 1959 3584 
Q 2709 3584 3137 3096 
Q 3566 2609 3566 1747 
Q 3566 888 3137 398 
Q 2709 -91 1959 -91 
Q 1206 -91 779 398 
Q 353 888 353 1747 
Q 353 2609 779 3096 
Q 1206 3584 1959 3584 
z
" transform="scale(0.015625)"/>
      <path id="DejaVuSans-4a" d="M 2906 1791 
Q 2906 2416 2648 2759 
Q 2391 3103 1925 3103 
Q 1463 3103 1205 2759 
Q 947 2416 947 1791 
Q 947 1169 1205 825 
Q 1463 481 1925 481 
Q 2391 481 2648 825 
Q 2906 1169 2906 1791 
z
M 3481 434 
Q 3481 -459 3084 -895 
Q 2688 -1331 1869 -1331 
Q 1566 -1331 1297 -1286 
Q 1028 -1241 775 -1147 
L 775 -588 
Q 1028 -725 1275 -790 
Q 1522 -856 1778 -856 
Q 2344 -856 2625 -561 
Q 2906 -266 2906 331 
L 2906 616 
Q 2728 306 2450 153 
Q 2172 0 1784 0 
Q 1141 0 747 490 
Q 353 981 353 1791 
Q 353 2603 747 3093 
Q 1141 3584 1784 3584 
Q 2172 3584 2450 3431 
Q 2728 3278 2906 2969 
L 2906 3500 
L 3481 3500 
L 3481 434 
z
" transform="scale(0.015625)"/>
     </defs>
     <use xlink:href="#DejaVuSans-29"/>
     <use xlink:href="#DejaVuSans-52" transform="translate(53.953125 0)"/>
     <use xlink:href="#DejaVuSans-55" transform="translate(115.140625 0)"/>
     <use xlink:href="#DejaVuSans-4a" transform="translate(154.5 0)"/>
     <use xlink:href="#DejaVuSans-48" transform="translate(217.984375 0)"/>
     <use xlink:href="#DejaVuSans-57" transform="translate(279.515625 0)"/>
    </g>
    <!-- Gate -->
    <g style="fill: #1a1a1a" transform="translate(341.226591 168.596855) scale(0.07 -0.07)">
     <defs>
      <path id="DejaVuSans-2a" d="M 3809 666 
L 3809 1919 
L 2778 1919 
L 2778 2438 
L 4434 2438 
L 4434 434 
Q 4069 175 3628 42 
Q 3188 -91 2688 -91 
Q 1594 -91 976 548 
Q 359 1188 359 2328 
Q 359 3472 976 4111 
Q 1594 4750 2688 4750 
Q 3144 4750 3555 4637 
Q 3966 4525 4313 4306 
L 4313 3634 
Q 3963 3931 3569 4081 
Q 3175 4231 2741 4231 
Q 1884 4231 1454 3753 
Q 1025 3275 1025 2328 
Q 1025 1384 1454 906 
Q 1884 428 2741 428 
Q 3075 428 3337 486 
Q 3600 544 3809 666 
z
" transform="scale(0.015625)"/>
      <path id="DejaVuSans-44" d="M 2194 1759 
Q 1497 1759 1228 1600 
Q 959 1441 959 1056 
Q 959 750 1161 570 
Q 1363 391 1709 391 
Q 2188 391 2477 730 
Q 2766 1069 2766 1631 
L 2766 1759 
L 2194 1759 
z
M 3341 1997 
L 3341 0 
L 2766 0 
L 2766 531 
Q 2569 213 2275 61 
Q 1981 -91 1556 -91 
Q 1019 -91 701 211 
Q 384 513 384 1019 
Q 384 1609 779 1909 
Q 1175 2209 1959 2209 
L 2766 2209 
L 2766 2266 
Q 2766 2663 2505 2880 
Q 2244 3097 1772 3097 
Q 1472 3097 1187 3025 
Q 903 2953 641 2809 
L 641 3341 
Q 956 3463 1253 3523 
Q 1550 3584 1831 3584 
Q 2591 3584 2966 3190 
Q 3341 2797 3341 1997 
z
" transform="scale(0.015625)"/>
     </defs>
     <use xlink:href="#DejaVuSans-2a"/>
     <use xlink:href="#DejaVuSans-44" transform="translate(77.484375 0)"/>
     <use xlink:href="#DejaVuSans-57" transform="translate(138.765625 0)"/>
     <use xlink:href="#DejaVuSans-48" transform="translate(177.96875 0)"/>
    </g>
   </g>
   <g id="text_14">
    <!-- Input -->
    <g style="fill: #1a1a1a" transform="translate(429.319006 160.195488) scale(0.07 -0.07)">
     <defs>
      <path id="DejaVuSans-2c" d="M 628 4666 
L 1259 4666 
L 1259 0 
L 628 0 
L 628 4666 
z
" transform="scale(0.015625)"/>
      <path id="DejaVuSans-53" d="M 1159 525 
L 1159 -1331 
L 581 -1331 
L 581 3500 
L 1159 3500 
L 1159 2969 
Q 1341 3281 1617 3432 
Q 1894 3584 2278 3584 
Q 2916 3584 3314 3078 
Q 3713 2572 3713 1747 
Q 3713 922 3314 415 
Q 2916 -91 2278 -91 
Q 1894 -91 1617 61 
Q 1341 213 1159 525 
z
M 3116 1747 
Q 3116 2381 2855 2742 
Q 2594 3103 2138 3103 
Q 1681 3103 1420 2742 
Q 1159 2381 1159 1747 
Q 1159 1113 1420 752 
Q 1681 391 2138 391 
Q 2594 391 2855 752 
Q 3116 1113 3116 1747 
z
" transform="scale(0.015625)"/>
      <path id="DejaVuSans-58" d="M 544 1381 
L 544 3500 
L 1119 3500 
L 1119 1403 
Q 1119 906 1312 657 
Q 1506 409 1894 409 
Q 2359 409 2629 706 
Q 2900 1003 2900 1516 
L 2900 3500 
L 3475 3500 
L 3475 0 
L 2900 0 
L 2900 538 
Q 2691 219 2414 64 
Q 2138 -91 1772 -91 
Q 1169 -91 856 284 
Q 544 659 544 1381 
z
M 1991 3584 
L 1991 3584 
z
" transform="scale(0.015625)"/>
     </defs>
     <use xlink:href="#DejaVuSans-2c"/>
     <use xlink:href="#DejaVuSans-51" transform="translate(29.5 0)"/>
     <use xlink:href="#DejaVuSans-53" transform="translate(92.875 0)"/>
     <use xlink:href="#DejaVuSans-58" transform="translate(156.359375 0)"/>
     <use xlink:href="#DejaVuSans-57" transform="translate(219.734375 0)"/>
    </g>
    <!-- Gate -->
    <g style="fill: #1a1a1a" transform="translate(429.999318 168.596855) scale(0.07 -0.07)">
     <use xlink:href="#DejaVuSans-2a"/>
     <use xlink:href="#DejaVuSans-44" transform="translate(77.484375 0)"/>
     <use xlink:href="#DejaVuSans-57" transform="translate(138.765625 0)"/>
     <use xlink:href="#DejaVuSans-48" transform="translate(177.96875 0)"/>
    </g>
   </g>
   <g id="text_15">
    <!-- Output -->
    <g style="fill: #1a1a1a" transform="translate(514.996967 160.195488) scale(0.07 -0.07)">
     <defs>
      <path id="DejaVuSans-32" d="M 2522 4238 
Q 1834 4238 1429 3725 
Q 1025 3213 1025 2328 
Q 1025 1447 1429 934 
Q 1834 422 2522 422 
Q 3209 422 3611 934 
Q 4013 1447 4013 2328 
Q 4013 3213 3611 3725 
Q 3209 4238 2522 4238 
z
M 2522 4750 
Q 3503 4750 4090 4092 
Q 4678 3434 4678 2328 
Q 4678 1225 4090 567 
Q 3503 -91 2522 -91 
Q 1538 -91 948 565 
Q 359 1222 359 2328 
Q 359 3434 948 4092 
Q 1538 4750 2522 4750 
z
" transform="scale(0.015625)"/>
     </defs>
     <use xlink:href="#DejaVuSans-32"/>
     <use xlink:href="#DejaVuSans-58" transform="translate(78.71875 0)"/>
     <use xlink:href="#DejaVuSans-57" transform="translate(142.09375 0)"/>
     <use xlink:href="#DejaVuSans-53" transform="translate(181.296875 0)"/>
     <use xlink:href="#DejaVuSans-58" transform="translate(244.78125 0)"/>
     <use xlink:href="#DejaVuSans-57" transform="translate(308.15625 0)"/>
    </g>
    <!-- Gate -->
    <g style="fill: #1a1a1a" transform="translate(518.772045 168.596855) scale(0.07 -0.07)">
     <use xlink:href="#DejaVuSans-2a"/>
     <use xlink:href="#DejaVuSans-44" transform="translate(77.484375 0)"/>
     <use xlink:href="#DejaVuSans-57" transform="translate(138.765625 0)"/>
     <use xlink:href="#DejaVuSans-48" transform="translate(177.96875 0)"/>
    </g>
   </g>
   <g id="text_16">
    <!-- 3 Gates -->
    <g style="fill: #1a1a1a" transform="translate(424.836818 210.091488) scale(0.07 -0.07)">
     <defs>
      <path id="DejaVuSans-16" d="M 2597 2516 
Q 3050 2419 3304 2112 
Q 3559 1806 3559 1356 
Q 3559 666 3084 287 
Q 2609 -91 1734 -91 
Q 1441 -91 1130 -33 
Q 819 25 488 141 
L 488 750 
Q 750 597 1062 519 
Q 1375 441 1716 441 
Q 2309 441 2620 675 
Q 2931 909 2931 1356 
Q 2931 1769 2642 2001 
Q 2353 2234 1838 2234 
L 1294 2234 
L 1294 2753 
L 1863 2753 
Q 2328 2753 2575 2939 
Q 2822 3125 2822 3475 
Q 2822 3834 2567 4026 
Q 2313 4219 1838 4219 
Q 1578 4219 1281 4162 
Q 984 4106 628 3988 
L 628 4550 
Q 988 4650 1302 4700 
Q 1616 4750 1894 4750 
Q 2613 4750 3031 4423 
Q 3450 4097 3450 3541 
Q 3450 3153 3228 2886 
Q 3006 2619 2597 2516 
z
" transform="scale(0.015625)"/>
      <path id="DejaVuSans-3" transform="scale(0.015625)"/>
      <path id="DejaVuSans-56" d="M 2834 3397 
L 2834 2853 
Q 2591 2978 2328 3040 
Q 2066 3103 1784 3103 
Q 1356 3103 1142 2972 
Q 928 2841 928 2578 
Q 928 2378 1081 2264 
Q 1234 2150 1697 2047 
L 1894 2003 
Q 2506 1872 2764 1633 
Q 3022 1394 3022 966 
Q 3022 478 2636 193 
Q 2250 -91 1575 -91 
Q 1294 -91 989 -36 
Q 684 19 347 128 
L 347 722 
Q 666 556 975 473 
Q 1284 391 1588 391 
Q 1994 391 2212 530 
Q 2431 669 2431 922 
Q 2431 1156 2273 1281 
Q 2116 1406 1581 1522 
L 1381 1569 
Q 847 1681 609 1914 
Q 372 2147 372 2553 
Q 372 3047 722 3315 
Q 1072 3584 1716 3584 
Q 2034 3584 2315 3537 
Q 2597 3491 2834 3397 
z
" transform="scale(0.015625)"/>
     </defs>
     <use xlink:href="#DejaVuSans-16"/>
     <use xlink:href="#DejaVuSans-3" transform="translate(63.625 0)"/>
     <use xlink:href="#DejaVuSans-2a" transform="translate(95.40625 0)"/>
     <use xlink:href="#DejaVuSans-44" transform="translate(172.890625 0)"/>
     <use xlink:href="#DejaVuSans-57" transform="translate(234.171875 0)"/>
     <use xlink:href="#DejaVuSans-48" transform="translate(273.375 0)"/>
     <use xlink:href="#DejaVuSans-56" transform="translate(334.90625 0)"/>
    </g>
    <!-- F, I, O -->
    <g style="fill: #1a1a1a" transform="translate(428.13174 218.492855) scale(0.07 -0.07)">
     <defs>
      <path id="DejaVuSans-f" d="M 750 794 
L 1409 794 
L 1409 256 
L 897 -744 
L 494 -744 
L 750 256 
L 750 794 
z
" transform="scale(0.015625)"/>
     </defs>
     <use xlink:href="#DejaVuSans-29"/>
     <use xlink:href="#DejaVuSans-f" transform="translate(57.515625 0)"/>
     <use xlink:href="#DejaVuSans-3" transform="translate(89.296875 0)"/>
     <use xlink:href="#DejaVuSans-2c" transform="translate(121.078125 0)"/>
     <use xlink:href="#DejaVuSans-f" transform="translate(150.578125 0)"/>
     <use xlink:href="#DejaVuSans-3" transform="translate(182.359375 0)"/>
     <use xlink:href="#DejaVuSans-32" transform="translate(214.140625 0)"/>
    </g>
   </g>
   <g id="text_17">
    <!-- Additive updates $ -->
    <g style="fill: #666666" transform="translate(400.681818 240.293625) scale(0.08 -0.08)">
     <defs>
      <path id="DejaVuSans-Oblique-24" d="M 2356 4666 
L 3072 4666 
L 3938 0 
L 3278 0 
L 3084 1197 
L 984 1197 
L 325 0 
L -341 0 
L 2356 4666 
z
M 2584 4044 
L 1275 1722 
L 2988 1722 
L 2584 4044 
z
" transform="scale(0.015625)"/>
      <path id="DejaVuSans-Oblique-59" d="M 459 3500 
L 1069 3500 
L 1581 525 
L 3256 3500 
L 3866 3500 
L 1875 0 
L 1100 0 
L 459 3500 
z
" transform="scale(0.015625)"/>
      <path id="DejaVuSans-Oblique-58" d="M 428 1388 
L 838 3500 
L 1416 3500 
L 1006 1409 
Q 975 1256 961 1147 
Q 947 1038 947 966 
Q 947 700 1109 554 
Q 1272 409 1569 409 
Q 2031 409 2368 721 
Q 2706 1034 2809 1563 
L 3194 3500 
L 3769 3500 
L 3091 0 
L 2516 0 
L 2631 550 
Q 2388 244 2052 76 
Q 1716 -91 1338 -91 
Q 878 -91 622 161 
Q 366 413 366 863 
Q 366 956 381 1097 
Q 397 1238 428 1388 
z
" transform="scale(0.015625)"/>
      <path id="DejaVuSans-Oblique-7" d="M 1875 453 
Q 2309 472 2562 673 
Q 2816 875 2816 1197 
Q 2816 1459 2656 1603 
Q 2497 1747 2138 1806 
L 1875 453 
z
M 2188 3688 
Q 1775 3644 1540 3444 
Q 1306 3244 1306 2931 
Q 1306 2713 1454 2589 
Q 1603 2466 1941 2406 
L 2188 3688 
z
M 3647 3944 
L 3541 3378 
Q 3272 3522 3011 3600 
Q 2750 3678 2503 3684 
L 2241 2350 
Q 2816 2259 3117 1990 
Q 3419 1722 3419 1300 
Q 3419 753 2972 395 
Q 2525 38 1784 0 
L 1600 -941 
L 1288 -941 
L 1472 0 
Q 1109 9 790 82 
Q 472 156 213 288 
L 319 863 
Q 606 669 918 562 
Q 1231 456 1563 444 
L 1838 1869 
Q 1247 1981 978 2214 
Q 709 2447 709 2841 
Q 709 3359 1139 3718 
Q 1569 4078 2272 4134 
L 2419 4863 
L 2731 4863 
L 2594 4134 
Q 2875 4125 3142 4076 
Q 3409 4028 3647 3944 
z
" transform="scale(0.015625)"/>
     </defs>
     <use xlink:href="#DejaVuSans-Oblique-24"/>
     <use xlink:href="#DejaVuSans-Oblique-47" transform="translate(68.40625 0)"/>
     <use xlink:href="#DejaVuSans-Oblique-47" transform="translate(131.890625 0)"/>
     <use xlink:href="#DejaVuSans-Oblique-4c" transform="translate(195.375 0)"/>
     <use xlink:href="#DejaVuSans-Oblique-57" transform="translate(223.15625 0)"/>
     <use xlink:href="#DejaVuSans-Oblique-4c" transform="translate(262.359375 0)"/>
     <use xlink:href="#DejaVuSans-Oblique-59" transform="translate(290.140625 0)"/>
     <use xlink:href="#DejaVuSans-Oblique-48" transform="translate(349.328125 0)"/>
     <use xlink:href="#DejaVuSans-Oblique-3" transform="translate(410.859375 0)"/>
     <use xlink:href="#DejaVuSans-Oblique-58" transform="translate(442.640625 0)"/>
     <use xlink:href="#DejaVuSans-Oblique-53" transform="translate(506.015625 0)"/>
     <use xlink:href="#DejaVuSans-Oblique-47" transform="translate(569.5 0)"/>
     <use xlink:href="#DejaVuSans-Oblique-44" transform="translate(632.984375 0)"/>
     <use xlink:href="#DejaVuSans-Oblique-57" transform="translate(694.265625 0)"/>
     <use xlink:href="#DejaVuSans-Oblique-48" transform="translate(733.46875 0)"/>
     <use xlink:href="#DejaVuSans-Oblique-56" transform="translate(795 0)"/>
     <use xlink:href="#DejaVuSans-Oblique-3" transform="translate(847.09375 0)"/>
     <use xlink:href="#DejaVuSans-Oblique-7" transform="translate(878.875 0)"/>
    </g>
    <!-- rightarrow$ no vanishing gradient -->
    <g style="fill: #666666" transform="translate(370.064318 249.895812) scale(0.08 -0.08)">
     <use xlink:href="#DejaVuSans-Oblique-55"/>
     <use xlink:href="#DejaVuSans-Oblique-4c" transform="translate(41.109375 0)"/>
     <use xlink:href="#DejaVuSans-Oblique-4a" transform="translate(68.890625 0)"/>
     <use xlink:href="#DejaVuSans-Oblique-4b" transform="translate(132.375 0)"/>
     <use xlink:href="#DejaVuSans-Oblique-57" transform="translate(195.75 0)"/>
     <use xlink:href="#DejaVuSans-Oblique-44" transform="translate(234.953125 0)"/>
     <use xlink:href="#DejaVuSans-Oblique-55" transform="translate(296.234375 0)"/>
     <use xlink:href="#DejaVuSans-Oblique-55" transform="translate(337.34375 0)"/>
     <use xlink:href="#DejaVuSans-Oblique-52" transform="translate(378.453125 0)"/>
     <use xlink:href="#DejaVuSans-Oblique-5a" transform="translate(439.640625 0)"/>
     <use xlink:href="#DejaVuSans-Oblique-7" transform="translate(521.421875 0)"/>
     <use xlink:href="#DejaVuSans-Oblique-3" transform="translate(585.046875 0)"/>
     <use xlink:href="#DejaVuSans-Oblique-51" transform="translate(616.828125 0)"/>
     <use xlink:href="#DejaVuSans-Oblique-52" transform="translate(680.203125 0)"/>
     <use xlink:href="#DejaVuSans-Oblique-3" transform="translate(741.390625 0)"/>
     <use xlink:href="#DejaVuSans-Oblique-59" transform="translate(773.171875 0)"/>
     <use xlink:href="#DejaVuSans-Oblique-44" transform="translate(832.359375 0)"/>
     <use xlink:href="#DejaVuSans-Oblique-51" transform="translate(893.640625 0)"/>
     <use xlink:href="#DejaVuSans-Oblique-4c" transform="translate(957.015625 0)"/>
     <use xlink:href="#DejaVuSans-Oblique-56" transform="translate(984.796875 0)"/>
     <use xlink:href="#DejaVuSans-Oblique-4b" transform="translate(1036.890625 0)"/>
     <use xlink:href="#DejaVuSans-Oblique-4c" transform="translate(1100.265625 0)"/>
     <use xlink:href="#DejaVuSans-Oblique-51" transform="translate(1128.046875 0)"/>
     <use xlink:href="#DejaVuSans-Oblique-4a" transform="translate(1191.421875 0)"/>
     <use xlink:href="#DejaVuSans-Oblique-3" transform="translate(1254.90625 0)"/>
     <use xlink:href="#DejaVuSans-Oblique-4a" transform="translate(1286.6875 0)"/>
     <use xlink:href="#DejaVuSans-Oblique-55" transform="translate(1350.171875 0)"/>
     <use xlink:href="#DejaVuSans-Oblique-44" transform="translate(1391.28125 0)"/>
     <use xlink:href="#DejaVuSans-Oblique-47" transform="translate(1452.5625 0)"/>
     <use xlink:href="#DejaVuSans-Oblique-4c" transform="translate(1516.046875 0)"/>
     <use xlink:href="#DejaVuSans-Oblique-48" transform="translate(1543.828125 0)"/>
     <use xlink:href="#DejaVuSans-Oblique-51" transform="translate(1605.359375 0)"/>
     <use xlink:href="#DejaVuSans-Oblique-57" transform="translate(1668.734375 0)"/>
    </g>
   </g>
   <g id="text_18">
    <!-- LSTM -->
    <g transform="translate(417.139006 17.837812) scale(0.14 -0.14)">
     <defs>
      <path id="DejaVuSans-Bold-2f" d="M 588 4666 
L 1791 4666 
L 1791 909 
L 3903 909 
L 3903 0 
L 588 0 
L 588 4666 
z
" transform="scale(0.015625)"/>
      <path id="DejaVuSans-Bold-36" d="M 3834 4519 
L 3834 3531 
Q 3450 3703 3084 3790 
Q 2719 3878 2394 3878 
Q 1963 3878 1756 3759 
Q 1550 3641 1550 3391 
Q 1550 3203 1689 3098 
Q 1828 2994 2194 2919 
L 2706 2816 
Q 3484 2659 3812 2340 
Q 4141 2022 4141 1434 
Q 4141 663 3683 286 
Q 3225 -91 2284 -91 
Q 1841 -91 1394 -6 
Q 947 78 500 244 
L 500 1259 
Q 947 1022 1364 901 
Q 1781 781 2169 781 
Q 2563 781 2772 912 
Q 2981 1044 2981 1288 
Q 2981 1506 2839 1625 
Q 2697 1744 2272 1838 
L 1806 1941 
Q 1106 2091 782 2419 
Q 459 2747 459 3303 
Q 459 4000 909 4375 
Q 1359 4750 2203 4750 
Q 2588 4750 2994 4692 
Q 3400 4634 3834 4519 
z
" transform="scale(0.015625)"/>
      <path id="DejaVuSans-Bold-37" d="M 31 4666 
L 4331 4666 
L 4331 3756 
L 2784 3756 
L 2784 0 
L 1581 0 
L 1581 3756 
L 31 3756 
L 31 4666 
z
" transform="scale(0.015625)"/>
      <path id="DejaVuSans-Bold-30" d="M 588 4666 
L 2119 4666 
L 3181 2169 
L 4250 4666 
L 5778 4666 
L 5778 0 
L 4641 0 
L 4641 3413 
L 3566 897 
L 2803 897 
L 1728 3413 
L 1728 0 
L 588 0 
L 588 4666 
z
" transform="scale(0.015625)"/>
     </defs>
     <use xlink:href="#DejaVuSans-Bold-2f"/>
     <use xlink:href="#DejaVuSans-Bold-36" transform="translate(63.71875 0)"/>
     <use xlink:href="#DejaVuSans-Bold-37" transform="translate(135.734375 0)"/>
     <use xlink:href="#DejaVuSans-Bold-30" transform="translate(203.953125 0)"/>
    </g>
   </g>
  </g>
 </g>
 <defs>
  <clipPath id="pb4ebf642f3">
   <rect x="7.2" y="37.837812" width="253.636364" height="249.48"/>
  </clipPath>
  <clipPath id="p1328d08f63">
   <rect x="311.563636" y="37.837812" width="253.636364" height="249.48"/>
  </clipPath>
 </defs>
</svg>
