<?xml version="1.0" encoding="utf-8" standalone="no"?>
<!DOCTYPE svg PUBLIC "-//W3C//DTD SVG 1.1//EN"
  "http://www.w3.org/Graphics/SVG/1.1/DTD/svg11.dtd">
<svg xmlns:xlink="http://www.w3.org/1999/xlink" width="572.4pt" height="322.237813pt" viewBox="0 0 572.4 322.237813" xmlns="http://www.w3.org/2000/svg" version="1.1">
 <metadata>
  <rdf:RDF xmlns:dc="http://purl.org/dc/elements/1.1/" xmlns:cc="http://creativecommons.org/ns#" xmlns:rdf="http://www.w3.org/1999/02/22-rdf-syntax-ns#">
   <cc:Work>
    <dc:type rdf:resource="http://purl.org/dc/dcmitype/StillImage"/>
    <dc:date>2026-07-06T17:32:28.711749</dc:date>
    <dc:format>image/svg+xml</dc:format>
    <dc:creator>
     <cc:Agent>
      <dc:title>Matplotlib v3.11.0, https://matplotlib.org/</dc:title>
     </cc:Agent>
    </dc:creator>
   </cc:Work>
  </rdf:RDF>
 </metadata>
 <defs>
  <style type="text/css">*{stroke-linejoin: round; stroke-linecap: butt}</style>
 </defs>
 <g id="figure_1">
  <g id="patch_1">
   <path d="M 0 322.237813 
L 572.4 322.237813 
L 572.4 0 
L 0 0 
L 0 322.237813 
z
" style="fill: none"/>
  </g>
  <g id="axes_1">
   <g id="patch_2">
    <path d="M 134.018182 98.277699 
Q 134.018182 104.3644 134.018182 108.215034 
" style="fill: none; stroke: #888888; stroke-width: 2; stroke-linecap: round"/>
    <path d="M 136.018182 104.215034 
L 134.018182 108.215034 
L 132.018182 104.215034 
" style="fill: none; stroke: #888888; stroke-width: 2; stroke-linecap: round"/>
   </g>
   <g id="patch_3">
    <path d="M 134.018182 167.577699 
Q 134.018182 173.6644 134.018182 177.515034 
" style="fill: none; stroke: #888888; stroke-width: 2; stroke-linecap: round"/>
    <path d="M 136.018182 173.515034 
L 134.018182 177.515034 
L 132.018182 173.515034 
" style="fill: none; stroke: #888888; stroke-width: 2; stroke-linecap: round"/>
   </g>
   <g id="patch_4">
    <path d="M 134.018182 236.877699 
Q 134.018182 242.9644 134.018182 246.815034 
" style="fill: none; stroke: #888888; stroke-width: 2; stroke-linecap: round"/>
    <path d="M 136.018182 242.815034 
L 134.018182 246.815034 
L 132.018182 242.815034 
" style="fill: none; stroke: #888888; stroke-width: 2; stroke-linecap: round"/>
   </g>
   <g id="patch_5">
    <path d="M 103.581818 89.119812 
L 164.454545 89.119812 
Q 165.722727 89.119812 165.722727 87.733812 
L 165.722727 71.101812 
Q 165.722727 69.715812 164.454545 69.715812 
L 103.581818 69.715812 
Q 102.313636 69.715812 102.313636 71.101812 
L 102.313636 87.733812 
Q 102.313636 89.119812 103.581818 89.119812 
z
" clip-path="url(#pe8d21e757c)" style="fill: #e0e0e0; stroke: #555555; stroke-width: 1.5; stroke-linejoin: miter"/>
   </g>
   <g id="patch_6">
    <path d="M 97.240909 159.805813 
L 170.795455 159.805813 
Q 172.063636 159.805813 172.063636 158.419813 
L 172.063636 139.015813 
Q 172.063636 137.629813 170.795455 137.629813 
L 97.240909 137.629813 
Q 95.972727 137.629813 95.972727 139.015813 
L 95.972727 158.419813 
Q 95.972727 159.805813 97.240909 159.805813 
z
" clip-path="url(#pe8d21e757c)" style="fill: #e8f4f8; stroke: #555555; stroke-width: 1.5; stroke-linejoin: miter"/>
   </g>
   <g id="patch_7">
    <path d="M 97.240909 229.105813 
L 170.795455 229.105813 
Q 172.063636 229.105813 172.063636 227.719813 
L 172.063636 208.315812 
Q 172.063636 206.929812 170.795455 206.929812 
L 97.240909 206.929812 
Q 95.972727 206.929812 95.972727 208.315812 
L 95.972727 227.719813 
Q 95.972727 229.105813 97.240909 229.105813 
z
" clip-path="url(#pe8d21e757c)" style="fill: #e0e0e0; stroke: #555555; stroke-width: 1.5; stroke-linejoin: miter"/>
   </g>
   <g id="patch_8">
    <path d="M 97.240909 297.019813 
L 170.795455 297.019813 
Q 172.063636 297.019813 172.063636 295.633813 
L 172.063636 279.001813 
Q 172.063636 277.615813 170.795455 277.615813 
L 97.240909 277.615813 
Q 95.972727 277.615813 95.972727 279.001813 
L 95.972727 295.633813 
Q 95.972727 297.019813 97.240909 297.019813 
z
" clip-path="url(#pe8d21e757c)" style="fill: #e0e0e0; stroke: #555555; stroke-width: 1.5; stroke-linejoin: miter"/>
   </g>
   <g id="text_1">
    <!-- Query -->
    <g style="fill: #1a1a1a" transform="translate(120.341697 81.755703) scale(0.09 -0.09)">
     <defs>
      <path id="DejaVuSans-34" d="M 2522 4238 
Q 1834 4238 1429 3725 
Q 1025 3213 1025 2328 
Q 1025 1447 1429 934 
Q 1834 422 2522 422 
Q 3209 422 3611 934 
Q 4013 1447 4013 2328 
Q 4013 3213 3611 3725 
Q 3209 4238 2522 4238 
z
M 3406 84 
L 4238 -825 
L 3475 -825 
L 2784 -78 
Q 2681 -84 2626 -87 
Q 2572 -91 2522 -91 
Q 1538 -91 948 567 
Q 359 1225 359 2328 
Q 359 3434 948 4092 
Q 1538 4750 2522 4750 
Q 3503 4750 4090 4092 
Q 4678 3434 4678 2328 
Q 4678 1516 4351 937 
Q 4025 359 3406 84 
z
" transform="scale(0.015625)"/>
      <path id="DejaVuSans-58" d="M 544 1381 
L 544 3500 
L 1119 3500 
L 1119 1403 
Q 1119 906 1312 657 
Q 1506 409 1894 409 
Q 2359 409 2629 706 
Q 2900 1003 2900 1516 
L 2900 3500 
L 3475 3500 
L 3475 0 
L 2900 0 
L 2900 538 
Q 2691 219 2414 64 
Q 2138 -91 1772 -91 
Q 1169 -91 856 284 
Q 544 659 544 1381 
z
M 1991 3584 
L 1991 3584 
z
" transform="scale(0.015625)"/>
      <path id="DejaVuSans-48" d="M 3597 1894 
L 3597 1613 
L 953 1613 
Q 991 1019 1311 708 
Q 1631 397 2203 397 
Q 2534 397 2845 478 
Q 3156 559 3463 722 
L 3463 178 
Q 3153 47 2828 -22 
Q 2503 -91 2169 -91 
Q 1331 -91 842 396 
Q 353 884 353 1716 
Q 353 2575 817 3079 
Q 1281 3584 2069 3584 
Q 2775 3584 3186 3129 
Q 3597 2675 3597 1894 
z
M 3022 2063 
Q 3016 2534 2758 2815 
Q 2500 3097 2075 3097 
Q 1594 3097 1305 2825 
Q 1016 2553 972 2059 
L 3022 2063 
z
" transform="scale(0.015625)"/>
      <path id="DejaVuSans-55" d="M 2631 2963 
Q 2534 3019 2420 3045 
Q 2306 3072 2169 3072 
Q 1681 3072 1420 2755 
Q 1159 2438 1159 1844 
L 1159 0 
L 581 0 
L 581 3500 
L 1159 3500 
L 1159 2956 
Q 1341 3275 1631 3429 
Q 1922 3584 2338 3584 
Q 2397 3584 2469 3576 
Q 2541 3569 2628 3553 
L 2631 2963 
z
" transform="scale(0.015625)"/>
      <path id="DejaVuSans-5c" d="M 2059 -325 
Q 1816 -950 1584 -1140 
Q 1353 -1331 966 -1331 
L 506 -1331 
L 506 -850 
L 844 -850 
Q 1081 -850 1212 -737 
Q 1344 -625 1503 -206 
L 1606 56 
L 191 3500 
L 800 3500 
L 1894 763 
L 2988 3500 
L 3597 3500 
L 2059 -325 
z
" transform="scale(0.015625)"/>
     </defs>
     <use xlink:href="#DejaVuSans-34"/>
     <use xlink:href="#DejaVuSans-58" transform="translate(78.71875 0)"/>
     <use xlink:href="#DejaVuSans-48" transform="translate(142.09375 0)"/>
     <use xlink:href="#DejaVuSans-55" transform="translate(203.625 0)"/>
     <use xlink:href="#DejaVuSans-5c" transform="translate(244.734375 0)"/>
    </g>
   </g>
   <g id="text_2">
    <!-- Retrieve from -->
    <g style="fill: #1a1a1a" transform="translate(108.467205 146.165322) scale(0.075 -0.075)">
     <defs>
      <path id="DejaVuSans-35" d="M 2841 2188 
Q 3044 2119 3236 1894 
Q 3428 1669 3622 1275 
L 4263 0 
L 3584 0 
L 2988 1197 
Q 2756 1666 2539 1819 
Q 2322 1972 1947 1972 
L 1259 1972 
L 1259 0 
L 628 0 
L 628 4666 
L 2053 4666 
Q 2853 4666 3247 4331 
Q 3641 3997 3641 3322 
Q 3641 2881 3436 2590 
Q 3231 2300 2841 2188 
z
M 1259 4147 
L 1259 2491 
L 2053 2491 
Q 2509 2491 2742 2702 
Q 2975 2913 2975 3322 
Q 2975 3731 2742 3939 
Q 2509 4147 2053 4147 
L 1259 4147 
z
" transform="scale(0.015625)"/>
      <path id="DejaVuSans-57" d="M 1172 4494 
L 1172 3500 
L 2356 3500 
L 2356 3053 
L 1172 3053 
L 1172 1153 
Q 1172 725 1289 603 
Q 1406 481 1766 481 
L 2356 481 
L 2356 0 
L 1766 0 
Q 1100 0 847 248 
Q 594 497 594 1153 
L 594 3053 
L 172 3053 
L 172 3500 
L 594 3500 
L 594 4494 
L 1172 4494 
z
" transform="scale(0.015625)"/>
      <path id="DejaVuSans-4c" d="M 603 3500 
L 1178 3500 
L 1178 0 
L 603 0 
L 603 3500 
z
M 603 4863 
L 1178 4863 
L 1178 4134 
L 603 4134 
L 603 4863 
z
" transform="scale(0.015625)"/>
      <path id="DejaVuSans-59" d="M 191 3500 
L 800 3500 
L 1894 563 
L 2988 3500 
L 3597 3500 
L 2284 0 
L 1503 0 
L 191 3500 
z
" transform="scale(0.015625)"/>
      <path id="DejaVuSans-3" transform="scale(0.015625)"/>
      <path id="DejaVuSans-49" d="M 2375 4863 
L 2375 4384 
L 1825 4384 
Q 1516 4384 1395 4259 
Q 1275 4134 1275 3809 
L 1275 3500 
L 2222 3500 
L 2222 3053 
L 1275 3053 
L 1275 0 
L 697 0 
L 697 3053 
L 147 3053 
L 147 3500 
L 697 3500 
L 697 3744 
Q 697 4328 969 4595 
Q 1241 4863 1831 4863 
L 2375 4863 
z
" transform="scale(0.015625)"/>
      <path id="DejaVuSans-52" d="M 1959 3097 
Q 1497 3097 1228 2736 
Q 959 2375 959 1747 
Q 959 1119 1226 758 
Q 1494 397 1959 397 
Q 2419 397 2687 759 
Q 2956 1122 2956 1747 
Q 2956 2369 2687 2733 
Q 2419 3097 1959 3097 
z
M 1959 3584 
Q 2709 3584 3137 3096 
Q 3566 2609 3566 1747 
Q 3566 888 3137 398 
Q 2709 -91 1959 -91 
Q 1206 -91 779 398 
Q 353 888 353 1747 
Q 353 2609 779 3096 
Q 1206 3584 1959 3584 
z
" transform="scale(0.015625)"/>
      <path id="DejaVuSans-50" d="M 3328 2828 
Q 3544 3216 3844 3400 
Q 4144 3584 4550 3584 
Q 5097 3584 5394 3201 
Q 5691 2819 5691 2113 
L 5691 0 
L 5113 0 
L 5113 2094 
Q 5113 2597 4934 2840 
Q 4756 3084 4391 3084 
Q 3944 3084 3684 2787 
Q 3425 2491 3425 1978 
L 3425 0 
L 2847 0 
L 2847 2094 
Q 2847 2600 2669 2842 
Q 2491 3084 2119 3084 
Q 1678 3084 1418 2786 
Q 1159 2488 1159 1978 
L 1159 0 
L 581 0 
L 581 3500 
L 1159 3500 
L 1159 2956 
Q 1356 3278 1631 3431 
Q 1906 3584 2284 3584 
Q 2666 3584 2933 3390 
Q 3200 3197 3328 2828 
z
" transform="scale(0.015625)"/>
     </defs>
     <use xlink:href="#DejaVuSans-35"/>
     <use xlink:href="#DejaVuSans-48" transform="translate(65 0)"/>
     <use xlink:href="#DejaVuSans-57" transform="translate(126.53125 0)"/>
     <use xlink:href="#DejaVuSans-55" transform="translate(165.734375 0)"/>
     <use xlink:href="#DejaVuSans-4c" transform="translate(206.84375 0)"/>
     <use xlink:href="#DejaVuSans-48" transform="translate(234.625 0)"/>
     <use xlink:href="#DejaVuSans-59" transform="translate(296.15625 0)"/>
     <use xlink:href="#DejaVuSans-48" transform="translate(355.34375 0)"/>
     <use xlink:href="#DejaVuSans-3" transform="translate(416.875 0)"/>
     <use xlink:href="#DejaVuSans-49" transform="translate(448.65625 0)"/>
     <use xlink:href="#DejaVuSans-55" transform="translate(483.859375 0)"/>
     <use xlink:href="#DejaVuSans-52" transform="translate(522.765625 0)"/>
     <use xlink:href="#DejaVuSans-50" transform="translate(583.953125 0)"/>
    </g>
    <!-- Knowledge Base -->
    <g style="fill: #1a1a1a" transform="translate(103.07951 155.167373) scale(0.075 -0.075)">
     <defs>
      <path id="DejaVuSans-2e" d="M 628 4666 
L 1259 4666 
L 1259 2694 
L 3353 4666 
L 4166 4666 
L 1850 2491 
L 4331 0 
L 3500 0 
L 1259 2247 
L 1259 0 
L 628 0 
L 628 4666 
z
" transform="scale(0.015625)"/>
      <path id="DejaVuSans-51" d="M 3513 2113 
L 3513 0 
L 2938 0 
L 2938 2094 
Q 2938 2591 2744 2837 
Q 2550 3084 2163 3084 
Q 1697 3084 1428 2787 
Q 1159 2491 1159 1978 
L 1159 0 
L 581 0 
L 581 3500 
L 1159 3500 
L 1159 2956 
Q 1366 3272 1645 3428 
Q 1925 3584 2291 3584 
Q 2894 3584 3203 3211 
Q 3513 2838 3513 2113 
z
" transform="scale(0.015625)"/>
      <path id="DejaVuSans-5a" d="M 269 3500 
L 844 3500 
L 1563 769 
L 2278 3500 
L 2956 3500 
L 3675 769 
L 4391 3500 
L 4966 3500 
L 4050 0 
L 3372 0 
L 2619 2869 
L 1863 0 
L 1184 0 
L 269 3500 
z
" transform="scale(0.015625)"/>
      <path id="DejaVuSans-4f" d="M 603 4863 
L 1178 4863 
L 1178 0 
L 603 0 
L 603 4863 
z
" transform="scale(0.015625)"/>
      <path id="DejaVuSans-47" d="M 2906 2969 
L 2906 4863 
L 3481 4863 
L 3481 0 
L 2906 0 
L 2906 525 
Q 2725 213 2448 61 
Q 2172 -91 1784 -91 
Q 1150 -91 751 415 
Q 353 922 353 1747 
Q 353 2572 751 3078 
Q 1150 3584 1784 3584 
Q 2172 3584 2448 3432 
Q 2725 3281 2906 2969 
z
M 947 1747 
Q 947 1113 1208 752 
Q 1469 391 1925 391 
Q 2381 391 2643 752 
Q 2906 1113 2906 1747 
Q 2906 2381 2643 2742 
Q 2381 3103 1925 3103 
Q 1469 3103 1208 2742 
Q 947 2381 947 1747 
z
" transform="scale(0.015625)"/>
      <path id="DejaVuSans-4a" d="M 2906 1791 
Q 2906 2416 2648 2759 
Q 2391 3103 1925 3103 
Q 1463 3103 1205 2759 
Q 947 2416 947 1791 
Q 947 1169 1205 825 
Q 1463 481 1925 481 
Q 2391 481 2648 825 
Q 2906 1169 2906 1791 
z
M 3481 434 
Q 3481 -459 3084 -895 
Q 2688 -1331 1869 -1331 
Q 1566 -1331 1297 -1286 
Q 1028 -1241 775 -1147 
L 775 -588 
Q 1028 -725 1275 -790 
Q 1522 -856 1778 -856 
Q 2344 -856 2625 -561 
Q 2906 -266 2906 331 
L 2906 616 
Q 2728 306 2450 153 
Q 2172 0 1784 0 
Q 1141 0 747 490 
Q 353 981 353 1791 
Q 353 2603 747 3093 
Q 1141 3584 1784 3584 
Q 2172 3584 2450 3431 
Q 2728 3278 2906 2969 
L 2906 3500 
L 3481 3500 
L 3481 434 
z
" transform="scale(0.015625)"/>
      <path id="DejaVuSans-25" d="M 1259 2228 
L 1259 519 
L 2272 519 
Q 2781 519 3026 730 
Q 3272 941 3272 1375 
Q 3272 1813 3026 2020 
Q 2781 2228 2272 2228 
L 1259 2228 
z
M 1259 4147 
L 1259 2741 
L 2194 2741 
Q 2656 2741 2882 2914 
Q 3109 3088 3109 3444 
Q 3109 3797 2882 3972 
Q 2656 4147 2194 4147 
L 1259 4147 
z
M 628 4666 
L 2241 4666 
Q 2963 4666 3353 4366 
Q 3744 4066 3744 3513 
Q 3744 3084 3544 2831 
Q 3344 2578 2956 2516 
Q 3422 2416 3680 2098 
Q 3938 1781 3938 1306 
Q 3938 681 3513 340 
Q 3088 0 2303 0 
L 628 0 
L 628 4666 
z
" transform="scale(0.015625)"/>
      <path id="DejaVuSans-44" d="M 2194 1759 
Q 1497 1759 1228 1600 
Q 959 1441 959 1056 
Q 959 750 1161 570 
Q 1363 391 1709 391 
Q 2188 391 2477 730 
Q 2766 1069 2766 1631 
L 2766 1759 
L 2194 1759 
z
M 3341 1997 
L 3341 0 
L 2766 0 
L 2766 531 
Q 2569 213 2275 61 
Q 1981 -91 1556 -91 
Q 1019 -91 701 211 
Q 384 513 384 1019 
Q 384 1609 779 1909 
Q 1175 2209 1959 2209 
L 2766 2209 
L 2766 2266 
Q 2766 2663 2505 2880 
Q 2244 3097 1772 3097 
Q 1472 3097 1187 3025 
Q 903 2953 641 2809 
L 641 3341 
Q 956 3463 1253 3523 
Q 1550 3584 1831 3584 
Q 2591 3584 2966 3190 
Q 3341 2797 3341 1997 
z
" transform="scale(0.015625)"/>
      <path id="DejaVuSans-56" d="M 2834 3397 
L 2834 2853 
Q 2591 2978 2328 3040 
Q 2066 3103 1784 3103 
Q 1356 3103 1142 2972 
Q 928 2841 928 2578 
Q 928 2378 1081 2264 
Q 1234 2150 1697 2047 
L 1894 2003 
Q 2506 1872 2764 1633 
Q 3022 1394 3022 966 
Q 3022 478 2636 193 
Q 2250 -91 1575 -91 
Q 1294 -91 989 -36 
Q 684 19 347 128 
L 347 722 
Q 666 556 975 473 
Q 1284 391 1588 391 
Q 1994 391 2212 530 
Q 2431 669 2431 922 
Q 2431 1156 2273 1281 
Q 2116 1406 1581 1522 
L 1381 1569 
Q 847 1681 609 1914 
Q 372 2147 372 2553 
Q 372 3047 722 3315 
Q 1072 3584 1716 3584 
Q 2034 3584 2315 3537 
Q 2597 3491 2834 3397 
z
" transform="scale(0.015625)"/>
     </defs>
     <use xlink:href="#DejaVuSans-2e"/>
     <use xlink:href="#DejaVuSans-51" transform="translate(65.578125 0)"/>
     <use xlink:href="#DejaVuSans-52" transform="translate(128.953125 0)"/>
     <use xlink:href="#DejaVuSans-5a" transform="translate(190.140625 0)"/>
     <use xlink:href="#DejaVuSans-4f" transform="translate(271.921875 0)"/>
     <use xlink:href="#DejaVuSans-48" transform="translate(299.703125 0)"/>
     <use xlink:href="#DejaVuSans-47" transform="translate(361.234375 0)"/>
     <use xlink:href="#DejaVuSans-4a" transform="translate(424.71875 0)"/>
     <use xlink:href="#DejaVuSans-48" transform="translate(488.203125 0)"/>
     <use xlink:href="#DejaVuSans-3" transform="translate(549.734375 0)"/>
     <use xlink:href="#DejaVuSans-25" transform="translate(581.515625 0)"/>
     <use xlink:href="#DejaVuSans-44" transform="translate(650.125 0)"/>
     <use xlink:href="#DejaVuSans-56" transform="translate(711.40625 0)"/>
     <use xlink:href="#DejaVuSans-48" transform="translate(763.5 0)"/>
    </g>
   </g>
   <g id="text_3">
    <!-- Context + Query -->
    <g style="fill: #1a1a1a" transform="translate(102.403924 215.465322) scale(0.075 -0.075)">
     <defs>
      <path id="DejaVuSans-26" d="M 4122 4306 
L 4122 3641 
Q 3803 3938 3442 4084 
Q 3081 4231 2675 4231 
Q 1875 4231 1450 3742 
Q 1025 3253 1025 2328 
Q 1025 1406 1450 917 
Q 1875 428 2675 428 
Q 3081 428 3442 575 
Q 3803 722 4122 1019 
L 4122 359 
Q 3791 134 3420 21 
Q 3050 -91 2638 -91 
Q 1578 -91 968 557 
Q 359 1206 359 2328 
Q 359 3453 968 4101 
Q 1578 4750 2638 4750 
Q 3056 4750 3426 4639 
Q 3797 4528 4122 4306 
z
" transform="scale(0.015625)"/>
      <path id="DejaVuSans-5b" d="M 3513 3500 
L 2247 1797 
L 3578 0 
L 2900 0 
L 1881 1375 
L 863 0 
L 184 0 
L 1544 1831 
L 300 3500 
L 978 3500 
L 1906 2253 
L 2834 3500 
L 3513 3500 
z
" transform="scale(0.015625)"/>
      <path id="DejaVuSans-e" d="M 2944 4013 
L 2944 2272 
L 4684 2272 
L 4684 1741 
L 2944 1741 
L 2944 0 
L 2419 0 
L 2419 1741 
L 678 1741 
L 678 2272 
L 2419 2272 
L 2419 4013 
L 2944 4013 
z
" transform="scale(0.015625)"/>
     </defs>
     <use xlink:href="#DejaVuSans-26"/>
     <use xlink:href="#DejaVuSans-52" transform="translate(69.828125 0)"/>
     <use xlink:href="#DejaVuSans-51" transform="translate(131.015625 0)"/>
     <use xlink:href="#DejaVuSans-57" transform="translate(194.390625 0)"/>
     <use xlink:href="#DejaVuSans-48" transform="translate(233.59375 0)"/>
     <use xlink:href="#DejaVuSans-5b" transform="translate(293.375 0)"/>
     <use xlink:href="#DejaVuSans-57" transform="translate(352.5625 0)"/>
     <use xlink:href="#DejaVuSans-3" transform="translate(391.765625 0)"/>
     <use xlink:href="#DejaVuSans-e" transform="translate(423.546875 0)"/>
     <use xlink:href="#DejaVuSans-3" transform="translate(507.34375 0)"/>
     <use xlink:href="#DejaVuSans-34" transform="translate(539.125 0)"/>
     <use xlink:href="#DejaVuSans-58" transform="translate(617.84375 0)"/>
     <use xlink:href="#DejaVuSans-48" transform="translate(681.21875 0)"/>
     <use xlink:href="#DejaVuSans-55" transform="translate(742.75 0)"/>
     <use xlink:href="#DejaVuSans-5c" transform="translate(783.859375 0)"/>
    </g>
    <!-- → LLM -->
    <g style="fill: #1a1a1a" transform="translate(122.269549 224.466787) scale(0.075 -0.075)">
     <defs>
      <path id="DejaVuSans-c1c" d="M 5050 2147 
L 5050 1866 
L 3822 638 
L 3447 1013 
L 4175 1741 
L 366 1741 
L 366 2272 
L 4175 2272 
L 3447 3000 
L 3822 3375 
L 5050 2147 
z
" transform="scale(0.015625)"/>
      <path id="DejaVuSans-2f" d="M 628 4666 
L 1259 4666 
L 1259 531 
L 3531 531 
L 3531 0 
L 628 0 
L 628 4666 
z
" transform="scale(0.015625)"/>
      <path id="DejaVuSans-30" d="M 628 4666 
L 1569 4666 
L 2759 1491 
L 3956 4666 
L 4897 4666 
L 4897 0 
L 4281 0 
L 4281 4097 
L 3078 897 
L 2444 897 
L 1241 4097 
L 1241 0 
L 628 0 
L 628 4666 
z
" transform="scale(0.015625)"/>
     </defs>
     <use xlink:href="#DejaVuSans-c1c"/>
     <use xlink:href="#DejaVuSans-3" transform="translate(83.796875 0)"/>
     <use xlink:href="#DejaVuSans-2f" transform="translate(115.578125 0)"/>
     <use xlink:href="#DejaVuSans-2f" transform="translate(171.296875 0)"/>
     <use xlink:href="#DejaVuSans-30" transform="translate(227.015625 0)"/>
    </g>
   </g>
   <g id="text_4">
    <!-- Answer + Sources -->
    <g style="fill: #1a1a1a" transform="translate(97.569432 289.395938) scale(0.08 -0.08)">
     <defs>
      <path id="DejaVuSans-24" d="M 2188 4044 
L 1331 1722 
L 3047 1722 
L 2188 4044 
z
M 1831 4666 
L 2547 4666 
L 4325 0 
L 3669 0 
L 3244 1197 
L 1141 1197 
L 716 0 
L 50 0 
L 1831 4666 
z
" transform="scale(0.015625)"/>
      <path id="DejaVuSans-36" d="M 3425 4513 
L 3425 3897 
Q 3066 4069 2747 4153 
Q 2428 4238 2131 4238 
Q 1616 4238 1336 4038 
Q 1056 3838 1056 3469 
Q 1056 3159 1242 3001 
Q 1428 2844 1947 2747 
L 2328 2669 
Q 3034 2534 3370 2195 
Q 3706 1856 3706 1288 
Q 3706 609 3251 259 
Q 2797 -91 1919 -91 
Q 1588 -91 1214 -16 
Q 841 59 441 206 
L 441 856 
Q 825 641 1194 531 
Q 1563 422 1919 422 
Q 2459 422 2753 634 
Q 3047 847 3047 1241 
Q 3047 1584 2836 1778 
Q 2625 1972 2144 2069 
L 1759 2144 
Q 1053 2284 737 2584 
Q 422 2884 422 3419 
Q 422 4038 858 4394 
Q 1294 4750 2059 4750 
Q 2388 4750 2728 4690 
Q 3069 4631 3425 4513 
z
" transform="scale(0.015625)"/>
      <path id="DejaVuSans-46" d="M 3122 3366 
L 3122 2828 
Q 2878 2963 2633 3030 
Q 2388 3097 2138 3097 
Q 1578 3097 1268 2742 
Q 959 2388 959 1747 
Q 959 1106 1268 751 
Q 1578 397 2138 397 
Q 2388 397 2633 464 
Q 2878 531 3122 666 
L 3122 134 
Q 2881 22 2623 -34 
Q 2366 -91 2075 -91 
Q 1284 -91 818 406 
Q 353 903 353 1747 
Q 353 2603 823 3093 
Q 1294 3584 2113 3584 
Q 2378 3584 2631 3529 
Q 2884 3475 3122 3366 
z
" transform="scale(0.015625)"/>
     </defs>
     <use xlink:href="#DejaVuSans-24"/>
     <use xlink:href="#DejaVuSans-51" transform="translate(68.40625 0)"/>
     <use xlink:href="#DejaVuSans-56" transform="translate(131.78125 0)"/>
     <use xlink:href="#DejaVuSans-5a" transform="translate(183.875 0)"/>
     <use xlink:href="#DejaVuSans-48" transform="translate(265.65625 0)"/>
     <use xlink:href="#DejaVuSans-55" transform="translate(327.1875 0)"/>
     <use xlink:href="#DejaVuSans-3" transform="translate(368.296875 0)"/>
     <use xlink:href="#DejaVuSans-e" transform="translate(400.078125 0)"/>
     <use xlink:href="#DejaVuSans-3" transform="translate(483.875 0)"/>
     <use xlink:href="#DejaVuSans-36" transform="translate(515.65625 0)"/>
     <use xlink:href="#DejaVuSans-52" transform="translate(579.140625 0)"/>
     <use xlink:href="#DejaVuSans-58" transform="translate(640.328125 0)"/>
     <use xlink:href="#DejaVuSans-55" transform="translate(703.703125 0)"/>
     <use xlink:href="#DejaVuSans-46" transform="translate(742.609375 0)"/>
     <use xlink:href="#DejaVuSans-48" transform="translate(797.59375 0)"/>
     <use xlink:href="#DejaVuSans-56" transform="translate(859.125 0)"/>
    </g>
   </g>
   <g id="text_5">
    <!-- RAG -->
    <g transform="translate(117.465369 17.837812) scale(0.14 -0.14)">
     <defs>
      <path id="DejaVuSans-Bold-35" d="M 2297 2597 
Q 2675 2597 2839 2737 
Q 3003 2878 3003 3200 
Q 3003 3519 2839 3656 
Q 2675 3794 2297 3794 
L 1791 3794 
L 1791 2597 
L 2297 2597 
z
M 1791 1766 
L 1791 0 
L 588 0 
L 588 4666 
L 2425 4666 
Q 3347 4666 3776 4356 
Q 4206 4047 4206 3378 
Q 4206 2916 3982 2619 
Q 3759 2322 3309 2181 
Q 3556 2125 3751 1926 
Q 3947 1728 4147 1325 
L 4800 0 
L 3519 0 
L 2950 1159 
Q 2778 1509 2601 1637 
Q 2425 1766 2131 1766 
L 1791 1766 
z
" transform="scale(0.015625)"/>
      <path id="DejaVuSans-Bold-24" d="M 3419 850 
L 1538 850 
L 1241 0 
L 31 0 
L 1759 4666 
L 3194 4666 
L 4922 0 
L 3713 0 
L 3419 850 
z
M 1838 1716 
L 3116 1716 
L 2478 3572 
L 1838 1716 
z
" transform="scale(0.015625)"/>
      <path id="DejaVuSans-Bold-2a" d="M 4781 347 
Q 4331 128 3847 18 
Q 3363 -91 2847 -91 
Q 1681 -91 1000 561 
Q 319 1213 319 2328 
Q 319 3456 1012 4103 
Q 1706 4750 2913 4750 
Q 3378 4750 3804 4662 
Q 4231 4575 4609 4403 
L 4609 3438 
Q 4219 3659 3833 3768 
Q 3447 3878 3059 3878 
Q 2341 3878 1952 3476 
Q 1563 3075 1563 2328 
Q 1563 1588 1938 1184 
Q 2313 781 3003 781 
Q 3191 781 3352 804 
Q 3513 828 3641 878 
L 3641 1784 
L 2906 1784 
L 2906 2591 
L 4781 2591 
L 4781 347 
z
" transform="scale(0.015625)"/>
     </defs>
     <use xlink:href="#DejaVuSans-Bold-35"/>
     <use xlink:href="#DejaVuSans-Bold-24" transform="translate(77 0)"/>
     <use xlink:href="#DejaVuSans-Bold-2a" transform="translate(154.390625 0)"/>
    </g>
   </g>
  </g>
  <g id="axes_2">
   <g id="patch_9">
    <path d="M 438.381818 98.277699 
Q 438.381818 104.3644 438.381818 108.215034 
" style="fill: none; stroke: #888888; stroke-width: 2; stroke-linecap: round"/>
    <path d="M 440.381818 104.215034 
L 438.381818 108.215034 
L 436.381818 104.215034 
" style="fill: none; stroke: #888888; stroke-width: 2; stroke-linecap: round"/>
   </g>
   <g id="patch_10">
    <path d="M 438.381818 167.577699 
Q 438.381818 173.6644 438.381818 177.515034 
" style="fill: none; stroke: #888888; stroke-width: 2; stroke-linecap: round"/>
    <path d="M 440.381818 173.515034 
L 438.381818 177.515034 
L 436.381818 173.515034 
" style="fill: none; stroke: #888888; stroke-width: 2; stroke-linecap: round"/>
   </g>
   <g id="patch_11">
    <path d="M 401.604545 89.119812 
L 475.159091 89.119812 
Q 476.427273 89.119812 476.427273 87.733812 
L 476.427273 71.101812 
Q 476.427273 69.715812 475.159091 69.715812 
L 401.604545 69.715812 
Q 400.336364 69.715812 400.336364 71.101812 
L 400.336364 87.733812 
Q 400.336364 89.119812 401.604545 89.119812 
z
" clip-path="url(#p5a727d938e)" style="fill: #e0e0e0; stroke: #555555; stroke-width: 1.5; stroke-linejoin: miter"/>
   </g>
   <g id="patch_12">
    <path d="M 401.604545 159.805813 
L 475.159091 159.805813 
Q 476.427273 159.805813 476.427273 158.419813 
L 476.427273 139.015813 
Q 476.427273 137.629813 475.159091 137.629813 
L 401.604545 137.629813 
Q 400.336364 137.629813 400.336364 139.015813 
L 400.336364 158.419813 
Q 400.336364 159.805813 401.604545 159.805813 
z
" clip-path="url(#p5a727d938e)" style="fill: #fdebd0; stroke: #555555; stroke-width: 1.5; stroke-linejoin: miter"/>
   </g>
   <g id="patch_13">
    <path d="M 401.604545 229.105813 
L 475.159091 229.105813 
Q 476.427273 229.105813 476.427273 227.719813 
L 476.427273 208.315812 
Q 476.427273 206.929812 475.159091 206.929812 
L 401.604545 206.929812 
Q 400.336364 206.929812 400.336364 208.315812 
L 400.336364 227.719813 
Q 400.336364 229.105813 401.604545 229.105813 
z
" clip-path="url(#p5a727d938e)" style="fill: #fdebd0; stroke: #555555; stroke-width: 1.5; stroke-linejoin: miter"/>
   </g>
   <g id="patch_14">
    <path d="M 407.945455 297.019813 
L 468.818182 297.019813 
Q 470.086364 297.019813 470.086364 295.633813 
L 470.086364 279.001813 
Q 470.086364 277.615813 468.818182 277.615813 
L 407.945455 277.615813 
Q 406.677273 277.615813 406.677273 279.001813 
L 406.677273 295.633813 
Q 406.677273 297.019813 407.945455 297.019813 
z
" clip-path="url(#p5a727d938e)" style="fill: #e0e0e0; stroke: #555555; stroke-width: 1.5; stroke-linejoin: miter"/>
   </g>
   <g id="text_6">
    <!-- Domain Data -->
    <g style="fill: #1a1a1a" transform="translate(408.745803 81.756055) scale(0.09 -0.09)">
     <defs>
      <path id="DejaVuSans-27" d="M 1259 4147 
L 1259 519 
L 2022 519 
Q 2988 519 3436 956 
Q 3884 1394 3884 2338 
Q 3884 3275 3436 3711 
Q 2988 4147 2022 4147 
L 1259 4147 
z
M 628 4666 
L 1925 4666 
Q 3281 4666 3915 4102 
Q 4550 3538 4550 2338 
Q 4550 1131 3912 565 
Q 3275 0 1925 0 
L 628 0 
L 628 4666 
z
" transform="scale(0.015625)"/>
     </defs>
     <use xlink:href="#DejaVuSans-27"/>
     <use xlink:href="#DejaVuSans-52" transform="translate(77 0)"/>
     <use xlink:href="#DejaVuSans-50" transform="translate(138.1875 0)"/>
     <use xlink:href="#DejaVuSans-44" transform="translate(235.59375 0)"/>
     <use xlink:href="#DejaVuSans-4c" transform="translate(296.875 0)"/>
     <use xlink:href="#DejaVuSans-51" transform="translate(324.65625 0)"/>
     <use xlink:href="#DejaVuSans-3" transform="translate(388.03125 0)"/>
     <use xlink:href="#DejaVuSans-27" transform="translate(419.8125 0)"/>
     <use xlink:href="#DejaVuSans-44" transform="translate(496.8125 0)"/>
     <use xlink:href="#DejaVuSans-57" transform="translate(558.09375 0)"/>
     <use xlink:href="#DejaVuSans-44" transform="translate(597.296875 0)"/>
    </g>
   </g>
   <g id="text_7">
    <!-- Update Weights -->
    <g style="fill: #1a1a1a" transform="translate(408.590412 146.165322) scale(0.075 -0.075)">
     <defs>
      <path id="DejaVuSans-38" d="M 556 4666 
L 1191 4666 
L 1191 1831 
Q 1191 1081 1462 751 
Q 1734 422 2344 422 
Q 2950 422 3222 751 
Q 3494 1081 3494 1831 
L 3494 4666 
L 4128 4666 
L 4128 1753 
Q 4128 841 3676 375 
Q 3225 -91 2344 -91 
Q 1459 -91 1007 375 
Q 556 841 556 1753 
L 556 4666 
z
" transform="scale(0.015625)"/>
      <path id="DejaVuSans-53" d="M 1159 525 
L 1159 -1331 
L 581 -1331 
L 581 3500 
L 1159 3500 
L 1159 2969 
Q 1341 3281 1617 3432 
Q 1894 3584 2278 3584 
Q 2916 3584 3314 3078 
Q 3713 2572 3713 1747 
Q 3713 922 3314 415 
Q 2916 -91 2278 -91 
Q 1894 -91 1617 61 
Q 1341 213 1159 525 
z
M 3116 1747 
Q 3116 2381 2855 2742 
Q 2594 3103 2138 3103 
Q 1681 3103 1420 2742 
Q 1159 2381 1159 1747 
Q 1159 1113 1420 752 
Q 1681 391 2138 391 
Q 2594 391 2855 752 
Q 3116 1113 3116 1747 
z
" transform="scale(0.015625)"/>
      <path id="DejaVuSans-3a" d="M 213 4666 
L 850 4666 
L 1831 722 
L 2809 4666 
L 3519 4666 
L 4500 722 
L 5478 4666 
L 6119 4666 
L 4947 0 
L 4153 0 
L 3169 4050 
L 2175 0 
L 1381 0 
L 213 4666 
z
" transform="scale(0.015625)"/>
      <path id="DejaVuSans-4b" d="M 3513 2113 
L 3513 0 
L 2938 0 
L 2938 2094 
Q 2938 2591 2744 2837 
Q 2550 3084 2163 3084 
Q 1697 3084 1428 2787 
Q 1159 2491 1159 1978 
L 1159 0 
L 581 0 
L 581 4863 
L 1159 4863 
L 1159 2956 
Q 1366 3272 1645 3428 
Q 1925 3584 2291 3584 
Q 2894 3584 3203 3211 
Q 3513 2838 3513 2113 
z
" transform="scale(0.015625)"/>
     </defs>
     <use xlink:href="#DejaVuSans-38"/>
     <use xlink:href="#DejaVuSans-53" transform="translate(73.1875 0)"/>
     <use xlink:href="#DejaVuSans-47" transform="translate(136.671875 0)"/>
     <use xlink:href="#DejaVuSans-44" transform="translate(200.15625 0)"/>
     <use xlink:href="#DejaVuSans-57" transform="translate(261.4375 0)"/>
     <use xlink:href="#DejaVuSans-48" transform="translate(300.640625 0)"/>
     <use xlink:href="#DejaVuSans-3" transform="translate(362.171875 0)"/>
     <use xlink:href="#DejaVuSans-3a" transform="translate(393.953125 0)"/>
     <use xlink:href="#DejaVuSans-48" transform="translate(486.96875 0)"/>
     <use xlink:href="#DejaVuSans-4c" transform="translate(548.5 0)"/>
     <use xlink:href="#DejaVuSans-4a" transform="translate(576.28125 0)"/>
     <use xlink:href="#DejaVuSans-4b" transform="translate(639.765625 0)"/>
     <use xlink:href="#DejaVuSans-57" transform="translate(703.140625 0)"/>
     <use xlink:href="#DejaVuSans-56" transform="translate(742.34375 0)"/>
    </g>
    <!-- via Training -->
    <g style="fill: #1a1a1a" transform="translate(416.834553 155.167373) scale(0.075 -0.075)">
     <defs>
      <path id="DejaVuSans-37" d="M -19 4666 
L 3928 4666 
L 3928 4134 
L 2272 4134 
L 2272 0 
L 1638 0 
L 1638 4134 
L -19 4134 
L -19 4666 
z
" transform="scale(0.015625)"/>
     </defs>
     <use xlink:href="#DejaVuSans-59"/>
     <use xlink:href="#DejaVuSans-4c" transform="translate(59.1875 0)"/>
     <use xlink:href="#DejaVuSans-44" transform="translate(86.96875 0)"/>
     <use xlink:href="#DejaVuSans-3" transform="translate(148.25 0)"/>
     <use xlink:href="#DejaVuSans-37" transform="translate(180.03125 0)"/>
     <use xlink:href="#DejaVuSans-55" transform="translate(226.40625 0)"/>
     <use xlink:href="#DejaVuSans-44" transform="translate(267.515625 0)"/>
     <use xlink:href="#DejaVuSans-4c" transform="translate(328.796875 0)"/>
     <use xlink:href="#DejaVuSans-51" transform="translate(356.578125 0)"/>
     <use xlink:href="#DejaVuSans-4c" transform="translate(419.953125 0)"/>
     <use xlink:href="#DejaVuSans-51" transform="translate(447.734375 0)"/>
     <use xlink:href="#DejaVuSans-4a" transform="translate(511.109375 0)"/>
    </g>
   </g>
   <g id="text_8">
    <!-- Specialized -->
    <g style="fill: #1a1a1a" transform="translate(417.171467 215.465322) scale(0.075 -0.075)">
     <defs>
      <path id="DejaVuSans-5d" d="M 353 3500 
L 3084 3500 
L 3084 2975 
L 922 459 
L 3084 459 
L 3084 0 
L 275 0 
L 275 525 
L 2438 3041 
L 353 3041 
L 353 3500 
z
" transform="scale(0.015625)"/>
     </defs>
     <use xlink:href="#DejaVuSans-36"/>
     <use xlink:href="#DejaVuSans-53" transform="translate(63.484375 0)"/>
     <use xlink:href="#DejaVuSans-48" transform="translate(126.96875 0)"/>
     <use xlink:href="#DejaVuSans-46" transform="translate(188.5 0)"/>
     <use xlink:href="#DejaVuSans-4c" transform="translate(243.484375 0)"/>
     <use xlink:href="#DejaVuSans-44" transform="translate(271.265625 0)"/>
     <use xlink:href="#DejaVuSans-4f" transform="translate(332.546875 0)"/>
     <use xlink:href="#DejaVuSans-4c" transform="translate(360.328125 0)"/>
     <use xlink:href="#DejaVuSans-5d" transform="translate(388.109375 0)"/>
     <use xlink:href="#DejaVuSans-48" transform="translate(440.59375 0)"/>
     <use xlink:href="#DejaVuSans-47" transform="translate(502.125 0)"/>
    </g>
    <!-- Model -->
    <g style="fill: #1a1a1a" transform="translate(427.121857 224.467373) scale(0.075 -0.075)">
     <use xlink:href="#DejaVuSans-30"/>
     <use xlink:href="#DejaVuSans-52" transform="translate(86.28125 0)"/>
     <use xlink:href="#DejaVuSans-47" transform="translate(147.46875 0)"/>
     <use xlink:href="#DejaVuSans-48" transform="translate(210.953125 0)"/>
     <use xlink:href="#DejaVuSans-4f" transform="translate(272.484375 0)"/>
    </g>
   </g>
   <g id="text_9">
    <!-- Answer -->
    <g style="fill: #1a1a1a" transform="translate(421.808459 289.655703) scale(0.09 -0.09)">
     <use xlink:href="#DejaVuSans-24"/>
     <use xlink:href="#DejaVuSans-51" transform="translate(68.40625 0)"/>
     <use xlink:href="#DejaVuSans-56" transform="translate(131.78125 0)"/>
     <use xlink:href="#DejaVuSans-5a" transform="translate(183.875 0)"/>
     <use xlink:href="#DejaVuSans-48" transform="translate(265.65625 0)"/>
     <use xlink:href="#DejaVuSans-55" transform="translate(327.1875 0)"/>
    </g>
   </g>
   <g id="text_10">
    <!-- Query -->
    <g style="fill: #555555" transform="translate(394.771825 262.369813) scale(0.07 -0.07)">
     <use xlink:href="#DejaVuSans-34"/>
     <use xlink:href="#DejaVuSans-58" transform="translate(78.71875 0)"/>
     <use xlink:href="#DejaVuSans-48" transform="translate(142.09375 0)"/>
     <use xlink:href="#DejaVuSans-55" transform="translate(203.625 0)"/>
     <use xlink:href="#DejaVuSans-5c" transform="translate(244.734375 0)"/>
    </g>
   </g>
   <g id="patch_15">
    <path d="M 407.256562 252.058392 
Q 421.897819 258.212806 435.508396 263.933977 
" style="fill: none; stroke: #888888; stroke-linecap: round"/>
    <path d="M 432.595934 260.540223 
L 435.508396 263.933977 
L 431.045916 264.227694 
" style="fill: none; stroke: #888888; stroke-linecap: round"/>
   </g>
   <g id="text_11">
    <!-- Fine-Tuning -->
    <g transform="translate(393.227443 17.837812) scale(0.14 -0.14)">
     <defs>
      <path id="DejaVuSans-Bold-29" d="M 588 4666 
L 3834 4666 
L 3834 3756 
L 1791 3756 
L 1791 2888 
L 3713 2888 
L 3713 1978 
L 1791 1978 
L 1791 0 
L 588 0 
L 588 4666 
z
" transform="scale(0.015625)"/>
      <path id="DejaVuSans-Bold-4c" d="M 538 3500 
L 1656 3500 
L 1656 0 
L 538 0 
L 538 3500 
z
M 538 4863 
L 1656 4863 
L 1656 3950 
L 538 3950 
L 538 4863 
z
" transform="scale(0.015625)"/>
      <path id="DejaVuSans-Bold-51" d="M 4056 2131 
L 4056 0 
L 2931 0 
L 2931 347 
L 2931 1631 
Q 2931 2084 2911 2256 
Q 2891 2428 2841 2509 
Q 2775 2619 2662 2680 
Q 2550 2741 2406 2741 
Q 2056 2741 1856 2470 
Q 1656 2200 1656 1722 
L 1656 0 
L 538 0 
L 538 3500 
L 1656 3500 
L 1656 2988 
Q 1909 3294 2193 3439 
Q 2478 3584 2822 3584 
Q 3428 3584 3742 3212 
Q 4056 2841 4056 2131 
z
" transform="scale(0.015625)"/>
      <path id="DejaVuSans-Bold-48" d="M 4031 1759 
L 4031 1441 
L 1416 1441 
Q 1456 1047 1700 850 
Q 1944 653 2381 653 
Q 2734 653 3104 758 
Q 3475 863 3866 1075 
L 3866 213 
Q 3469 63 3072 -14 
Q 2675 -91 2278 -91 
Q 1328 -91 801 392 
Q 275 875 275 1747 
Q 275 2603 792 3093 
Q 1309 3584 2216 3584 
Q 3041 3584 3536 3087 
Q 4031 2591 4031 1759 
z
M 2881 2131 
Q 2881 2450 2695 2645 
Q 2509 2841 2209 2841 
Q 1884 2841 1681 2658 
Q 1478 2475 1428 2131 
L 2881 2131 
z
" transform="scale(0.015625)"/>
      <path id="DejaVuSans-Bold-10" d="M 347 2297 
L 2309 2297 
L 2309 1388 
L 347 1388 
L 347 2297 
z
" transform="scale(0.015625)"/>
      <path id="DejaVuSans-Bold-37" d="M 31 4666 
L 4331 4666 
L 4331 3756 
L 2784 3756 
L 2784 0 
L 1581 0 
L 1581 3756 
L 31 3756 
L 31 4666 
z
" transform="scale(0.015625)"/>
      <path id="DejaVuSans-Bold-58" d="M 500 1363 
L 500 3500 
L 1625 3500 
L 1625 3150 
Q 1625 2866 1622 2436 
Q 1619 2006 1619 1863 
Q 1619 1441 1641 1255 
Q 1663 1069 1716 984 
Q 1784 875 1895 815 
Q 2006 756 2150 756 
Q 2500 756 2700 1025 
Q 2900 1294 2900 1772 
L 2900 3500 
L 4019 3500 
L 4019 0 
L 2900 0 
L 2900 506 
Q 2647 200 2364 54 
Q 2081 -91 1741 -91 
Q 1134 -91 817 281 
Q 500 653 500 1363 
z
" transform="scale(0.015625)"/>
      <path id="DejaVuSans-Bold-4a" d="M 2919 594 
Q 2688 288 2409 144 
Q 2131 0 1766 0 
Q 1125 0 706 504 
Q 288 1009 288 1791 
Q 288 2575 706 3076 
Q 1125 3578 1766 3578 
Q 2131 3578 2409 3434 
Q 2688 3291 2919 2981 
L 2919 3500 
L 4044 3500 
L 4044 353 
Q 4044 -491 3511 -936 
Q 2978 -1381 1966 -1381 
Q 1638 -1381 1331 -1331 
Q 1025 -1281 716 -1178 
L 716 -306 
Q 1009 -475 1290 -558 
Q 1572 -641 1856 -641 
Q 2406 -641 2662 -400 
Q 2919 -159 2919 353 
L 2919 594 
z
M 2181 2772 
Q 1834 2772 1640 2515 
Q 1447 2259 1447 1791 
Q 1447 1309 1634 1061 
Q 1822 813 2181 813 
Q 2531 813 2725 1069 
Q 2919 1325 2919 1791 
Q 2919 2259 2725 2515 
Q 2531 2772 2181 2772 
z
" transform="scale(0.015625)"/>
     </defs>
     <use xlink:href="#DejaVuSans-Bold-29"/>
     <use xlink:href="#DejaVuSans-Bold-4c" transform="translate(68.3125 0)"/>
     <use xlink:href="#DejaVuSans-Bold-51" transform="translate(102.59375 0)"/>
     <use xlink:href="#DejaVuSans-Bold-48" transform="translate(173.78125 0)"/>
     <use xlink:href="#DejaVuSans-Bold-10" transform="translate(241.609375 0)"/>
     <use xlink:href="#DejaVuSans-Bold-37" transform="translate(268.40625 0)"/>
     <use xlink:href="#DejaVuSans-Bold-58" transform="translate(325.640625 0)"/>
     <use xlink:href="#DejaVuSans-Bold-51" transform="translate(396.828125 0)"/>
     <use xlink:href="#DejaVuSans-Bold-4c" transform="translate(468.015625 0)"/>
     <use xlink:href="#DejaVuSans-Bold-51" transform="translate(502.296875 0)"/>
     <use xlink:href="#DejaVuSans-Bold-4a" transform="translate(573.484375 0)"/>
    </g>
   </g>
  </g>
 </g>
 <defs>
  <clipPath id="pe8d21e757c">
   <rect x="7.2" y="37.837812" width="253.636364" height="277.2"/>
  </clipPath>
  <clipPath id="p5a727d938e">
   <rect x="311.563636" y="37.837812" width="253.636364" height="277.2"/>
  </clipPath>
 </defs>
</svg>
