<?xml version="1.0" encoding="utf-8" standalone="no"?>
<!DOCTYPE svg PUBLIC "-//W3C//DTD SVG 1.1//EN"
  "http://www.w3.org/Graphics/SVG/1.1/DTD/svg11.dtd">
<svg xmlns:xlink="http://www.w3.org/1999/xlink" width="516.6pt" height="236.16pt" viewBox="0 0 516.6 236.16" xmlns="http://www.w3.org/2000/svg" version="1.1">
 <metadata>
  <rdf:RDF xmlns:dc="http://purl.org/dc/elements/1.1/" xmlns:cc="http://creativecommons.org/ns#" xmlns:rdf="http://www.w3.org/1999/02/22-rdf-syntax-ns#">
   <cc:Work>
    <dc:type rdf:resource="http://purl.org/dc/dcmitype/StillImage"/>
    <dc:date>2026-07-06T17:32:28.938235</dc:date>
    <dc:format>image/svg+xml</dc:format>
    <dc:creator>
     <cc:Agent>
      <dc:title>Matplotlib v3.11.0, https://matplotlib.org/</dc:title>
     </cc:Agent>
    </dc:creator>
   </cc:Work>
  </rdf:RDF>
 </metadata>
 <defs>
  <style type="text/css">*{stroke-linejoin: round; stroke-linecap: butt}</style>
 </defs>
 <g id="figure_1">
  <g id="patch_1">
   <path d="M 0 236.16 
L 516.6 236.16 
L 516.6 0 
L 0 0 
L 0 236.16 
z
" style="fill: none"/>
  </g>
  <g id="axes_1">
   <g id="line2d_1">
    <path d="M 52.854545 206.784 
L 189.818182 118.08 
" clip-path="url(#pdfe8483595)" style="fill: none; stroke: #3498db; stroke-width: 2; stroke-linecap: square"/>
   </g>
   <g id="patch_2">
    <path d="M 76.823182 62.64 
L 165.849545 62.64 
Q 166.990909 62.64 166.990909 61.5312 
L 166.990909 41.5728 
Q 166.990909 40.464 165.849545 40.464 
L 76.823182 40.464 
Q 75.681818 40.464 75.681818 41.5728 
L 75.681818 61.5312 
Q 75.681818 62.64 76.823182 62.64 
z
" clip-path="url(#pdfe8483595)" style="fill: #d5f5e3; stroke: #555555; stroke-width: 1.5; stroke-linejoin: miter"/>
   </g>
   <g id="PathCollection_1">
    <defs>
     <path id="me66d477072" d="M 0 2.236068 
C 0.593012 2.236068 1.161816 2.000462 1.581139 1.581139 
C 2.000462 1.161816 2.236068 0.593012 2.236068 0 
C 2.236068 -0.593012 2.000462 -1.161816 1.581139 -1.581139 
C 1.161816 -2.000462 0.593012 -2.236068 0 -2.236068 
C -0.593012 -2.236068 -1.161816 -2.000462 -1.581139 -1.581139 
C -2.000462 -1.161816 -2.236068 -0.593012 -2.236068 0 
C -2.236068 0.593012 -2.000462 1.161816 -1.581139 1.581139 
C -1.161816 2.000462 -0.593012 2.236068 0 2.236068 
z
" style="stroke: #e74c3c"/>
    </defs>
    <g clip-path="url(#pdfe8483595)">
     <use xlink:href="#me66d477072" x="52.854545" y="206.784" style="fill: #e74c3c; stroke: #e74c3c"/>
     <use xlink:href="#me66d477072" x="75.681818" y="173.52" style="fill: #e74c3c; stroke: #e74c3c"/>
     <use xlink:href="#me66d477072" x="98.509091" y="184.608" style="fill: #e74c3c; stroke: #e74c3c"/>
     <use xlink:href="#me66d477072" x="121.336364" y="140.256" style="fill: #e74c3c; stroke: #e74c3c"/>
     <use xlink:href="#me66d477072" x="144.163636" y="151.344" style="fill: #e74c3c; stroke: #e74c3c"/>
     <use xlink:href="#me66d477072" x="166.990909" y="118.08" style="fill: #e74c3c; stroke: #e74c3c"/>
    </g>
   </g>
   <g id="text_1">
    <!-- Linear Regression -->
    <g style="fill: #1a1a1a" transform="translate(70.567614 54.150047) scale(0.1 -0.1)">
     <defs>
      <path id="DejaVuSans-Bold-2f" d="M 588 4666 
L 1791 4666 
L 1791 909 
L 3903 909 
L 3903 0 
L 588 0 
L 588 4666 
z
" transform="scale(0.015625)"/>
      <path id="DejaVuSans-Bold-4c" d="M 538 3500 
L 1656 3500 
L 1656 0 
L 538 0 
L 538 3500 
z
M 538 4863 
L 1656 4863 
L 1656 3950 
L 538 3950 
L 538 4863 
z
" transform="scale(0.015625)"/>
      <path id="DejaVuSans-Bold-51" d="M 4056 2131 
L 4056 0 
L 2931 0 
L 2931 347 
L 2931 1631 
Q 2931 2084 2911 2256 
Q 2891 2428 2841 2509 
Q 2775 2619 2662 2680 
Q 2550 2741 2406 2741 
Q 2056 2741 1856 2470 
Q 1656 2200 1656 1722 
L 1656 0 
L 538 0 
L 538 3500 
L 1656 3500 
L 1656 2988 
Q 1909 3294 2193 3439 
Q 2478 3584 2822 3584 
Q 3428 3584 3742 3212 
Q 4056 2841 4056 2131 
z
" transform="scale(0.015625)"/>
      <path id="DejaVuSans-Bold-48" d="M 4031 1759 
L 4031 1441 
L 1416 1441 
Q 1456 1047 1700 850 
Q 1944 653 2381 653 
Q 2734 653 3104 758 
Q 3475 863 3866 1075 
L 3866 213 
Q 3469 63 3072 -14 
Q 2675 -91 2278 -91 
Q 1328 -91 801 392 
Q 275 875 275 1747 
Q 275 2603 792 3093 
Q 1309 3584 2216 3584 
Q 3041 3584 3536 3087 
Q 4031 2591 4031 1759 
z
M 2881 2131 
Q 2881 2450 2695 2645 
Q 2509 2841 2209 2841 
Q 1884 2841 1681 2658 
Q 1478 2475 1428 2131 
L 2881 2131 
z
" transform="scale(0.015625)"/>
      <path id="DejaVuSans-Bold-44" d="M 2106 1575 
Q 1756 1575 1579 1456 
Q 1403 1338 1403 1106 
Q 1403 894 1545 773 
Q 1688 653 1941 653 
Q 2256 653 2472 879 
Q 2688 1106 2688 1447 
L 2688 1575 
L 2106 1575 
z
M 3816 1997 
L 3816 0 
L 2688 0 
L 2688 519 
Q 2463 200 2181 54 
Q 1900 -91 1497 -91 
Q 953 -91 614 226 
Q 275 544 275 1050 
Q 275 1666 698 1953 
Q 1122 2241 2028 2241 
L 2688 2241 
L 2688 2328 
Q 2688 2594 2478 2717 
Q 2269 2841 1825 2841 
Q 1466 2841 1156 2769 
Q 847 2697 581 2553 
L 581 3406 
Q 941 3494 1303 3539 
Q 1666 3584 2028 3584 
Q 2975 3584 3395 3211 
Q 3816 2838 3816 1997 
z
" transform="scale(0.015625)"/>
      <path id="DejaVuSans-Bold-55" d="M 3138 2547 
Q 2991 2616 2845 2648 
Q 2700 2681 2553 2681 
Q 2122 2681 1889 2404 
Q 1656 2128 1656 1613 
L 1656 0 
L 538 0 
L 538 3500 
L 1656 3500 
L 1656 2925 
Q 1872 3269 2151 3426 
Q 2431 3584 2822 3584 
Q 2878 3584 2943 3579 
Q 3009 3575 3134 3559 
L 3138 2547 
z
" transform="scale(0.015625)"/>
      <path id="DejaVuSans-Bold-3" transform="scale(0.015625)"/>
      <path id="DejaVuSans-Bold-35" d="M 2297 2597 
Q 2675 2597 2839 2737 
Q 3003 2878 3003 3200 
Q 3003 3519 2839 3656 
Q 2675 3794 2297 3794 
L 1791 3794 
L 1791 2597 
L 2297 2597 
z
M 1791 1766 
L 1791 0 
L 588 0 
L 588 4666 
L 2425 4666 
Q 3347 4666 3776 4356 
Q 4206 4047 4206 3378 
Q 4206 2916 3982 2619 
Q 3759 2322 3309 2181 
Q 3556 2125 3751 1926 
Q 3947 1728 4147 1325 
L 4800 0 
L 3519 0 
L 2950 1159 
Q 2778 1509 2601 1637 
Q 2425 1766 2131 1766 
L 1791 1766 
z
" transform="scale(0.015625)"/>
      <path id="DejaVuSans-Bold-4a" d="M 2919 594 
Q 2688 288 2409 144 
Q 2131 0 1766 0 
Q 1125 0 706 504 
Q 288 1009 288 1791 
Q 288 2575 706 3076 
Q 1125 3578 1766 3578 
Q 2131 3578 2409 3434 
Q 2688 3291 2919 2981 
L 2919 3500 
L 4044 3500 
L 4044 353 
Q 4044 -491 3511 -936 
Q 2978 -1381 1966 -1381 
Q 1638 -1381 1331 -1331 
Q 1025 -1281 716 -1178 
L 716 -306 
Q 1009 -475 1290 -558 
Q 1572 -641 1856 -641 
Q 2406 -641 2662 -400 
Q 2919 -159 2919 353 
L 2919 594 
z
M 2181 2772 
Q 1834 2772 1640 2515 
Q 1447 2259 1447 1791 
Q 1447 1309 1634 1061 
Q 1822 813 2181 813 
Q 2531 813 2725 1069 
Q 2919 1325 2919 1791 
Q 2919 2259 2725 2515 
Q 2531 2772 2181 2772 
z
" transform="scale(0.015625)"/>
      <path id="DejaVuSans-Bold-56" d="M 3272 3391 
L 3272 2541 
Q 2913 2691 2578 2766 
Q 2244 2841 1947 2841 
Q 1628 2841 1473 2761 
Q 1319 2681 1319 2516 
Q 1319 2381 1436 2309 
Q 1553 2238 1856 2203 
L 2053 2175 
Q 2913 2066 3209 1816 
Q 3506 1566 3506 1031 
Q 3506 472 3093 190 
Q 2681 -91 1863 -91 
Q 1516 -91 1145 -36 
Q 775 19 384 128 
L 384 978 
Q 719 816 1070 734 
Q 1422 653 1784 653 
Q 2113 653 2278 743 
Q 2444 834 2444 1013 
Q 2444 1163 2330 1236 
Q 2216 1309 1875 1350 
L 1678 1375 
Q 931 1469 631 1722 
Q 331 1975 331 2491 
Q 331 3047 712 3315 
Q 1094 3584 1881 3584 
Q 2191 3584 2531 3537 
Q 2872 3491 3272 3391 
z
" transform="scale(0.015625)"/>
      <path id="DejaVuSans-Bold-52" d="M 2203 2784 
Q 1831 2784 1636 2517 
Q 1441 2250 1441 1747 
Q 1441 1244 1636 976 
Q 1831 709 2203 709 
Q 2569 709 2762 976 
Q 2956 1244 2956 1747 
Q 2956 2250 2762 2517 
Q 2569 2784 2203 2784 
z
M 2203 3584 
Q 3106 3584 3614 3096 
Q 4122 2609 4122 1747 
Q 4122 884 3614 396 
Q 3106 -91 2203 -91 
Q 1297 -91 786 396 
Q 275 884 275 1747 
Q 275 2609 786 3096 
Q 1297 3584 2203 3584 
z
" transform="scale(0.015625)"/>
     </defs>
     <use xlink:href="#DejaVuSans-Bold-2f"/>
     <use xlink:href="#DejaVuSans-Bold-4c" transform="translate(63.71875 0)"/>
     <use xlink:href="#DejaVuSans-Bold-51" transform="translate(98 0)"/>
     <use xlink:href="#DejaVuSans-Bold-48" transform="translate(169.1875 0)"/>
     <use xlink:href="#DejaVuSans-Bold-44" transform="translate(237.015625 0)"/>
     <use xlink:href="#DejaVuSans-Bold-55" transform="translate(304.5 0)"/>
     <use xlink:href="#DejaVuSans-Bold-3" transform="translate(353.8125 0)"/>
     <use xlink:href="#DejaVuSans-Bold-35" transform="translate(388.625 0)"/>
     <use xlink:href="#DejaVuSans-Bold-48" transform="translate(465.625 0)"/>
     <use xlink:href="#DejaVuSans-Bold-4a" transform="translate(533.453125 0)"/>
     <use xlink:href="#DejaVuSans-Bold-55" transform="translate(605.03125 0)"/>
     <use xlink:href="#DejaVuSans-Bold-48" transform="translate(654.34375 0)"/>
     <use xlink:href="#DejaVuSans-Bold-56" transform="translate(722.171875 0)"/>
     <use xlink:href="#DejaVuSans-Bold-56" transform="translate(781.6875 0)"/>
     <use xlink:href="#DejaVuSans-Bold-4c" transform="translate(841.203125 0)"/>
     <use xlink:href="#DejaVuSans-Bold-52" transform="translate(875.484375 0)"/>
     <use xlink:href="#DejaVuSans-Bold-51" transform="translate(944.1875 0)"/>
    </g>
   </g>
   <g id="text_2">
    <!-- $y = w\cdot x + b$ -->
    <g style="fill: #1a1a1a" transform="translate(98.136364 68.58325) scale(0.08 -0.08)">
     <defs>
      <path id="DejaVuSans-Oblique-5c" d="M 1588 -325 
Q 1188 -997 936 -1164 
Q 684 -1331 294 -1331 
L -159 -1331 
L -63 -850 
L 269 -850 
Q 509 -850 678 -719 
Q 847 -588 1056 -206 
L 1234 128 
L 459 3500 
L 1069 3500 
L 1650 819 
L 3256 3500 
L 3859 3500 
L 1588 -325 
z
" transform="scale(0.015625)"/>
      <path id="DejaVuSans-20" d="M 678 2906 
L 4684 2906 
L 4684 2381 
L 678 2381 
L 678 2906 
z
M 678 1631 
L 4684 1631 
L 4684 1100 
L 678 1100 
L 678 1631 
z
" transform="scale(0.015625)"/>
      <path id="DejaVuSans-Oblique-5a" d="M 544 3500 
L 1113 3500 
L 1259 684 
L 2566 3500 
L 3231 3500 
L 3425 684 
L 4666 3500 
L 5241 3500 
L 3641 0 
L 2969 0 
L 2797 2900 
L 1459 0 
L 781 0 
L 544 3500 
z
" transform="scale(0.015625)"/>
      <path id="DejaVuSans-d4f" d="M 684 2619 
L 1344 2619 
L 1344 1825 
L 684 1825 
L 684 2619 
z
" transform="scale(0.015625)"/>
      <path id="DejaVuSans-Oblique-5b" d="M 3841 3500 
L 2234 1784 
L 3219 0 
L 2559 0 
L 1819 1388 
L 531 0 
L -166 0 
L 1556 1844 
L 641 3500 
L 1300 3500 
L 1972 2234 
L 3144 3500 
L 3841 3500 
z
" transform="scale(0.015625)"/>
      <path id="DejaVuSans-e" d="M 2944 4013 
L 2944 2272 
L 4684 2272 
L 4684 1741 
L 2944 1741 
L 2944 0 
L 2419 0 
L 2419 1741 
L 678 1741 
L 678 2272 
L 2419 2272 
L 2419 4013 
L 2944 4013 
z
" transform="scale(0.015625)"/>
      <path id="DejaVuSans-Oblique-45" d="M 3169 2138 
Q 3169 2591 2961 2847 
Q 2753 3103 2388 3103 
Q 2122 3103 1889 2973 
Q 1656 2844 1484 2597 
Q 1303 2338 1198 1995 
Q 1094 1653 1094 1313 
Q 1094 881 1298 636 
Q 1503 391 1863 391 
Q 2134 391 2365 517 
Q 2597 644 2772 891 
Q 2950 1147 3059 1487 
Q 3169 1828 3169 2138 
z
M 1381 2969 
Q 1594 3256 1914 3420 
Q 2234 3584 2584 3584 
Q 3122 3584 3439 3221 
Q 3756 2859 3756 2241 
Q 3756 1734 3570 1259 
Q 3384 784 3041 416 
Q 2816 172 2522 40 
Q 2228 -91 1906 -91 
Q 1566 -91 1316 65 
Q 1066 222 909 531 
L 806 0 
L 231 0 
L 1178 4863 
L 1753 4863 
L 1381 2969 
z
" transform="scale(0.015625)"/>
     </defs>
     <use xlink:href="#DejaVuSans-Oblique-5c" transform="translate(0 0.015625)"/>
     <use xlink:href="#DejaVuSans-20" transform="translate(78.662109 0.015625)"/>
     <use xlink:href="#DejaVuSans-Oblique-5a" transform="translate(181.933594 0.015625)"/>
     <use xlink:href="#DejaVuSans-d4f" transform="translate(283.203125 0.015625)"/>
     <use xlink:href="#DejaVuSans-Oblique-5b" transform="translate(334.472656 0.015625)"/>
     <use xlink:href="#DejaVuSans-e" transform="translate(413.134766 0.015625)"/>
     <use xlink:href="#DejaVuSans-Oblique-45" transform="translate(516.40625 0.015625)"/>
    </g>
    <!-- Continuous output -->
    <g style="fill: #1a1a1a" transform="translate(84.280739 78.185437) scale(0.08 -0.08)">
     <defs>
      <path id="DejaVuSans-26" d="M 4122 4306 
L 4122 3641 
Q 3803 3938 3442 4084 
Q 3081 4231 2675 4231 
Q 1875 4231 1450 3742 
Q 1025 3253 1025 2328 
Q 1025 1406 1450 917 
Q 1875 428 2675 428 
Q 3081 428 3442 575 
Q 3803 722 4122 1019 
L 4122 359 
Q 3791 134 3420 21 
Q 3050 -91 2638 -91 
Q 1578 -91 968 557 
Q 359 1206 359 2328 
Q 359 3453 968 4101 
Q 1578 4750 2638 4750 
Q 3056 4750 3426 4639 
Q 3797 4528 4122 4306 
z
" transform="scale(0.015625)"/>
      <path id="DejaVuSans-52" d="M 1959 3097 
Q 1497 3097 1228 2736 
Q 959 2375 959 1747 
Q 959 1119 1226 758 
Q 1494 397 1959 397 
Q 2419 397 2687 759 
Q 2956 1122 2956 1747 
Q 2956 2369 2687 2733 
Q 2419 3097 1959 3097 
z
M 1959 3584 
Q 2709 3584 3137 3096 
Q 3566 2609 3566 1747 
Q 3566 888 3137 398 
Q 2709 -91 1959 -91 
Q 1206 -91 779 398 
Q 353 888 353 1747 
Q 353 2609 779 3096 
Q 1206 3584 1959 3584 
z
" transform="scale(0.015625)"/>
      <path id="DejaVuSans-51" d="M 3513 2113 
L 3513 0 
L 2938 0 
L 2938 2094 
Q 2938 2591 2744 2837 
Q 2550 3084 2163 3084 
Q 1697 3084 1428 2787 
Q 1159 2491 1159 1978 
L 1159 0 
L 581 0 
L 581 3500 
L 1159 3500 
L 1159 2956 
Q 1366 3272 1645 3428 
Q 1925 3584 2291 3584 
Q 2894 3584 3203 3211 
Q 3513 2838 3513 2113 
z
" transform="scale(0.015625)"/>
      <path id="DejaVuSans-57" d="M 1172 4494 
L 1172 3500 
L 2356 3500 
L 2356 3053 
L 1172 3053 
L 1172 1153 
Q 1172 725 1289 603 
Q 1406 481 1766 481 
L 2356 481 
L 2356 0 
L 1766 0 
Q 1100 0 847 248 
Q 594 497 594 1153 
L 594 3053 
L 172 3053 
L 172 3500 
L 594 3500 
L 594 4494 
L 1172 4494 
z
" transform="scale(0.015625)"/>
      <path id="DejaVuSans-4c" d="M 603 3500 
L 1178 3500 
L 1178 0 
L 603 0 
L 603 3500 
z
M 603 4863 
L 1178 4863 
L 1178 4134 
L 603 4134 
L 603 4863 
z
" transform="scale(0.015625)"/>
      <path id="DejaVuSans-58" d="M 544 1381 
L 544 3500 
L 1119 3500 
L 1119 1403 
Q 1119 906 1312 657 
Q 1506 409 1894 409 
Q 2359 409 2629 706 
Q 2900 1003 2900 1516 
L 2900 3500 
L 3475 3500 
L 3475 0 
L 2900 0 
L 2900 538 
Q 2691 219 2414 64 
Q 2138 -91 1772 -91 
Q 1169 -91 856 284 
Q 544 659 544 1381 
z
M 1991 3584 
L 1991 3584 
z
" transform="scale(0.015625)"/>
      <path id="DejaVuSans-56" d="M 2834 3397 
L 2834 2853 
Q 2591 2978 2328 3040 
Q 2066 3103 1784 3103 
Q 1356 3103 1142 2972 
Q 928 2841 928 2578 
Q 928 2378 1081 2264 
Q 1234 2150 1697 2047 
L 1894 2003 
Q 2506 1872 2764 1633 
Q 3022 1394 3022 966 
Q 3022 478 2636 193 
Q 2250 -91 1575 -91 
Q 1294 -91 989 -36 
Q 684 19 347 128 
L 347 722 
Q 666 556 975 473 
Q 1284 391 1588 391 
Q 1994 391 2212 530 
Q 2431 669 2431 922 
Q 2431 1156 2273 1281 
Q 2116 1406 1581 1522 
L 1381 1569 
Q 847 1681 609 1914 
Q 372 2147 372 2553 
Q 372 3047 722 3315 
Q 1072 3584 1716 3584 
Q 2034 3584 2315 3537 
Q 2597 3491 2834 3397 
z
" transform="scale(0.015625)"/>
      <path id="DejaVuSans-3" transform="scale(0.015625)"/>
      <path id="DejaVuSans-53" d="M 1159 525 
L 1159 -1331 
L 581 -1331 
L 581 3500 
L 1159 3500 
L 1159 2969 
Q 1341 3281 1617 3432 
Q 1894 3584 2278 3584 
Q 2916 3584 3314 3078 
Q 3713 2572 3713 1747 
Q 3713 922 3314 415 
Q 2916 -91 2278 -91 
Q 1894 -91 1617 61 
Q 1341 213 1159 525 
z
M 3116 1747 
Q 3116 2381 2855 2742 
Q 2594 3103 2138 3103 
Q 1681 3103 1420 2742 
Q 1159 2381 1159 1747 
Q 1159 1113 1420 752 
Q 1681 391 2138 391 
Q 2594 391 2855 752 
Q 3116 1113 3116 1747 
z
" transform="scale(0.015625)"/>
     </defs>
     <use xlink:href="#DejaVuSans-26"/>
     <use xlink:href="#DejaVuSans-52" transform="translate(69.828125 0)"/>
     <use xlink:href="#DejaVuSans-51" transform="translate(131.015625 0)"/>
     <use xlink:href="#DejaVuSans-57" transform="translate(194.390625 0)"/>
     <use xlink:href="#DejaVuSans-4c" transform="translate(233.59375 0)"/>
     <use xlink:href="#DejaVuSans-51" transform="translate(261.375 0)"/>
     <use xlink:href="#DejaVuSans-58" transform="translate(324.75 0)"/>
     <use xlink:href="#DejaVuSans-52" transform="translate(388.125 0)"/>
     <use xlink:href="#DejaVuSans-58" transform="translate(449.3125 0)"/>
     <use xlink:href="#DejaVuSans-56" transform="translate(512.6875 0)"/>
     <use xlink:href="#DejaVuSans-3" transform="translate(564.78125 0)"/>
     <use xlink:href="#DejaVuSans-52" transform="translate(596.5625 0)"/>
     <use xlink:href="#DejaVuSans-58" transform="translate(657.75 0)"/>
     <use xlink:href="#DejaVuSans-57" transform="translate(721.125 0)"/>
     <use xlink:href="#DejaVuSans-53" transform="translate(760.328125 0)"/>
     <use xlink:href="#DejaVuSans-58" transform="translate(823.8125 0)"/>
     <use xlink:href="#DejaVuSans-57" transform="translate(887.1875 0)"/>
    </g>
    <!-- MSE loss -->
    <g style="fill: #1a1a1a" transform="translate(103.820739 87.787625) scale(0.08 -0.08)">
     <defs>
      <path id="DejaVuSans-30" d="M 628 4666 
L 1569 4666 
L 2759 1491 
L 3956 4666 
L 4897 4666 
L 4897 0 
L 4281 0 
L 4281 4097 
L 3078 897 
L 2444 897 
L 1241 4097 
L 1241 0 
L 628 0 
L 628 4666 
z
" transform="scale(0.015625)"/>
      <path id="DejaVuSans-36" d="M 3425 4513 
L 3425 3897 
Q 3066 4069 2747 4153 
Q 2428 4238 2131 4238 
Q 1616 4238 1336 4038 
Q 1056 3838 1056 3469 
Q 1056 3159 1242 3001 
Q 1428 2844 1947 2747 
L 2328 2669 
Q 3034 2534 3370 2195 
Q 3706 1856 3706 1288 
Q 3706 609 3251 259 
Q 2797 -91 1919 -91 
Q 1588 -91 1214 -16 
Q 841 59 441 206 
L 441 856 
Q 825 641 1194 531 
Q 1563 422 1919 422 
Q 2459 422 2753 634 
Q 3047 847 3047 1241 
Q 3047 1584 2836 1778 
Q 2625 1972 2144 2069 
L 1759 2144 
Q 1053 2284 737 2584 
Q 422 2884 422 3419 
Q 422 4038 858 4394 
Q 1294 4750 2059 4750 
Q 2388 4750 2728 4690 
Q 3069 4631 3425 4513 
z
" transform="scale(0.015625)"/>
      <path id="DejaVuSans-28" d="M 628 4666 
L 3578 4666 
L 3578 4134 
L 1259 4134 
L 1259 2753 
L 3481 2753 
L 3481 2222 
L 1259 2222 
L 1259 531 
L 3634 531 
L 3634 0 
L 628 0 
L 628 4666 
z
" transform="scale(0.015625)"/>
      <path id="DejaVuSans-4f" d="M 603 4863 
L 1178 4863 
L 1178 0 
L 603 0 
L 603 4863 
z
" transform="scale(0.015625)"/>
     </defs>
     <use xlink:href="#DejaVuSans-30"/>
     <use xlink:href="#DejaVuSans-36" transform="translate(86.28125 0)"/>
     <use xlink:href="#DejaVuSans-28" transform="translate(149.765625 0)"/>
     <use xlink:href="#DejaVuSans-3" transform="translate(212.953125 0)"/>
     <use xlink:href="#DejaVuSans-4f" transform="translate(244.734375 0)"/>
     <use xlink:href="#DejaVuSans-52" transform="translate(272.515625 0)"/>
     <use xlink:href="#DejaVuSans-56" transform="translate(333.703125 0)"/>
     <use xlink:href="#DejaVuSans-56" transform="translate(385.796875 0)"/>
    </g>
    <!-- Closed-form solution -->
    <g style="fill: #1a1a1a" transform="translate(80.020114 97.389812) scale(0.08 -0.08)">
     <defs>
      <path id="DejaVuSans-48" d="M 3597 1894 
L 3597 1613 
L 953 1613 
Q 991 1019 1311 708 
Q 1631 397 2203 397 
Q 2534 397 2845 478 
Q 3156 559 3463 722 
L 3463 178 
Q 3153 47 2828 -22 
Q 2503 -91 2169 -91 
Q 1331 -91 842 396 
Q 353 884 353 1716 
Q 353 2575 817 3079 
Q 1281 3584 2069 3584 
Q 2775 3584 3186 3129 
Q 3597 2675 3597 1894 
z
M 3022 2063 
Q 3016 2534 2758 2815 
Q 2500 3097 2075 3097 
Q 1594 3097 1305 2825 
Q 1016 2553 972 2059 
L 3022 2063 
z
" transform="scale(0.015625)"/>
      <path id="DejaVuSans-47" d="M 2906 2969 
L 2906 4863 
L 3481 4863 
L 3481 0 
L 2906 0 
L 2906 525 
Q 2725 213 2448 61 
Q 2172 -91 1784 -91 
Q 1150 -91 751 415 
Q 353 922 353 1747 
Q 353 2572 751 3078 
Q 1150 3584 1784 3584 
Q 2172 3584 2448 3432 
Q 2725 3281 2906 2969 
z
M 947 1747 
Q 947 1113 1208 752 
Q 1469 391 1925 391 
Q 2381 391 2643 752 
Q 2906 1113 2906 1747 
Q 2906 2381 2643 2742 
Q 2381 3103 1925 3103 
Q 1469 3103 1208 2742 
Q 947 2381 947 1747 
z
" transform="scale(0.015625)"/>
      <path id="DejaVuSans-10" d="M 313 2009 
L 1997 2009 
L 1997 1497 
L 313 1497 
L 313 2009 
z
" transform="scale(0.015625)"/>
      <path id="DejaVuSans-49" d="M 2375 4863 
L 2375 4384 
L 1825 4384 
Q 1516 4384 1395 4259 
Q 1275 4134 1275 3809 
L 1275 3500 
L 2222 3500 
L 2222 3053 
L 1275 3053 
L 1275 0 
L 697 0 
L 697 3053 
L 147 3053 
L 147 3500 
L 697 3500 
L 697 3744 
Q 697 4328 969 4595 
Q 1241 4863 1831 4863 
L 2375 4863 
z
" transform="scale(0.015625)"/>
      <path id="DejaVuSans-55" d="M 2631 2963 
Q 2534 3019 2420 3045 
Q 2306 3072 2169 3072 
Q 1681 3072 1420 2755 
Q 1159 2438 1159 1844 
L 1159 0 
L 581 0 
L 581 3500 
L 1159 3500 
L 1159 2956 
Q 1341 3275 1631 3429 
Q 1922 3584 2338 3584 
Q 2397 3584 2469 3576 
Q 2541 3569 2628 3553 
L 2631 2963 
z
" transform="scale(0.015625)"/>
      <path id="DejaVuSans-50" d="M 3328 2828 
Q 3544 3216 3844 3400 
Q 4144 3584 4550 3584 
Q 5097 3584 5394 3201 
Q 5691 2819 5691 2113 
L 5691 0 
L 5113 0 
L 5113 2094 
Q 5113 2597 4934 2840 
Q 4756 3084 4391 3084 
Q 3944 3084 3684 2787 
Q 3425 2491 3425 1978 
L 3425 0 
L 2847 0 
L 2847 2094 
Q 2847 2600 2669 2842 
Q 2491 3084 2119 3084 
Q 1678 3084 1418 2786 
Q 1159 2488 1159 1978 
L 1159 0 
L 581 0 
L 581 3500 
L 1159 3500 
L 1159 2956 
Q 1356 3278 1631 3431 
Q 1906 3584 2284 3584 
Q 2666 3584 2933 3390 
Q 3200 3197 3328 2828 
z
" transform="scale(0.015625)"/>
     </defs>
     <use xlink:href="#DejaVuSans-26"/>
     <use xlink:href="#DejaVuSans-4f" transform="translate(69.828125 0)"/>
     <use xlink:href="#DejaVuSans-52" transform="translate(97.609375 0)"/>
     <use xlink:href="#DejaVuSans-56" transform="translate(158.796875 0)"/>
     <use xlink:href="#DejaVuSans-48" transform="translate(210.890625 0)"/>
     <use xlink:href="#DejaVuSans-47" transform="translate(272.421875 0)"/>
     <use xlink:href="#DejaVuSans-10" transform="translate(335.90625 0)"/>
     <use xlink:href="#DejaVuSans-49" transform="translate(371.984375 0)"/>
     <use xlink:href="#DejaVuSans-52" transform="translate(407.1875 0)"/>
     <use xlink:href="#DejaVuSans-55" transform="translate(468.375 0)"/>
     <use xlink:href="#DejaVuSans-50" transform="translate(507.734375 0)"/>
     <use xlink:href="#DejaVuSans-3" transform="translate(605.140625 0)"/>
     <use xlink:href="#DejaVuSans-56" transform="translate(636.921875 0)"/>
     <use xlink:href="#DejaVuSans-52" transform="translate(689.015625 0)"/>
     <use xlink:href="#DejaVuSans-4f" transform="translate(750.203125 0)"/>
     <use xlink:href="#DejaVuSans-58" transform="translate(777.984375 0)"/>
     <use xlink:href="#DejaVuSans-57" transform="translate(841.359375 0)"/>
     <use xlink:href="#DejaVuSans-4c" transform="translate(880.5625 0)"/>
     <use xlink:href="#DejaVuSans-52" transform="translate(908.34375 0)"/>
     <use xlink:href="#DejaVuSans-51" transform="translate(969.53125 0)"/>
    </g>
    <!-- (Normal Equation) -->
    <g style="fill: #1a1a1a" transform="translate(84.755739 106.992) scale(0.08 -0.08)">
     <defs>
      <path id="DejaVuSans-b" d="M 1984 4856 
Q 1566 4138 1362 3434 
Q 1159 2731 1159 2009 
Q 1159 1288 1364 580 
Q 1569 -128 1984 -844 
L 1484 -844 
Q 1016 -109 783 600 
Q 550 1309 550 2009 
Q 550 2706 781 3412 
Q 1013 4119 1484 4856 
L 1984 4856 
z
" transform="scale(0.015625)"/>
      <path id="DejaVuSans-31" d="M 628 4666 
L 1478 4666 
L 3547 763 
L 3547 4666 
L 4159 4666 
L 4159 0 
L 3309 0 
L 1241 3903 
L 1241 0 
L 628 0 
L 628 4666 
z
" transform="scale(0.015625)"/>
      <path id="DejaVuSans-44" d="M 2194 1759 
Q 1497 1759 1228 1600 
Q 959 1441 959 1056 
Q 959 750 1161 570 
Q 1363 391 1709 391 
Q 2188 391 2477 730 
Q 2766 1069 2766 1631 
L 2766 1759 
L 2194 1759 
z
M 3341 1997 
L 3341 0 
L 2766 0 
L 2766 531 
Q 2569 213 2275 61 
Q 1981 -91 1556 -91 
Q 1019 -91 701 211 
Q 384 513 384 1019 
Q 384 1609 779 1909 
Q 1175 2209 1959 2209 
L 2766 2209 
L 2766 2266 
Q 2766 2663 2505 2880 
Q 2244 3097 1772 3097 
Q 1472 3097 1187 3025 
Q 903 2953 641 2809 
L 641 3341 
Q 956 3463 1253 3523 
Q 1550 3584 1831 3584 
Q 2591 3584 2966 3190 
Q 3341 2797 3341 1997 
z
" transform="scale(0.015625)"/>
      <path id="DejaVuSans-54" d="M 947 1747 
Q 947 1113 1208 752 
Q 1469 391 1925 391 
Q 2381 391 2643 752 
Q 2906 1113 2906 1747 
Q 2906 2381 2643 2742 
Q 2381 3103 1925 3103 
Q 1469 3103 1208 2742 
Q 947 2381 947 1747 
z
M 2906 525 
Q 2725 213 2448 61 
Q 2172 -91 1784 -91 
Q 1150 -91 751 415 
Q 353 922 353 1747 
Q 353 2572 751 3078 
Q 1150 3584 1784 3584 
Q 2172 3584 2448 3432 
Q 2725 3281 2906 2969 
L 2906 3500 
L 3481 3500 
L 3481 -1331 
L 2906 -1331 
L 2906 525 
z
" transform="scale(0.015625)"/>
      <path id="DejaVuSans-c" d="M 513 4856 
L 1013 4856 
Q 1481 4119 1714 3412 
Q 1947 2706 1947 2009 
Q 1947 1309 1714 600 
Q 1481 -109 1013 -844 
L 513 -844 
Q 928 -128 1133 580 
Q 1338 1288 1338 2009 
Q 1338 2731 1133 3434 
Q 928 4138 513 4856 
z
" transform="scale(0.015625)"/>
     </defs>
     <use xlink:href="#DejaVuSans-b"/>
     <use xlink:href="#DejaVuSans-31" transform="translate(39.015625 0)"/>
     <use xlink:href="#DejaVuSans-52" transform="translate(113.828125 0)"/>
     <use xlink:href="#DejaVuSans-55" transform="translate(175.015625 0)"/>
     <use xlink:href="#DejaVuSans-50" transform="translate(214.375 0)"/>
     <use xlink:href="#DejaVuSans-44" transform="translate(311.78125 0)"/>
     <use xlink:href="#DejaVuSans-4f" transform="translate(373.0625 0)"/>
     <use xlink:href="#DejaVuSans-3" transform="translate(400.84375 0)"/>
     <use xlink:href="#DejaVuSans-28" transform="translate(432.625 0)"/>
     <use xlink:href="#DejaVuSans-54" transform="translate(495.8125 0)"/>
     <use xlink:href="#DejaVuSans-58" transform="translate(559.296875 0)"/>
     <use xlink:href="#DejaVuSans-44" transform="translate(622.671875 0)"/>
     <use xlink:href="#DejaVuSans-57" transform="translate(683.953125 0)"/>
     <use xlink:href="#DejaVuSans-4c" transform="translate(723.15625 0)"/>
     <use xlink:href="#DejaVuSans-52" transform="translate(750.9375 0)"/>
     <use xlink:href="#DejaVuSans-51" transform="translate(812.125 0)"/>
     <use xlink:href="#DejaVuSans-c" transform="translate(875.5 0)"/>
    </g>
   </g>
   <g id="text_3">
    <!-- Line through points -->
    <g style="fill: #666666" transform="translate(87.316364 217.872) scale(0.07 -0.07)">
     <defs>
      <path id="DejaVuSans-2f" d="M 628 4666 
L 1259 4666 
L 1259 531 
L 3531 531 
L 3531 0 
L 628 0 
L 628 4666 
z
" transform="scale(0.015625)"/>
      <path id="DejaVuSans-4b" d="M 3513 2113 
L 3513 0 
L 2938 0 
L 2938 2094 
Q 2938 2591 2744 2837 
Q 2550 3084 2163 3084 
Q 1697 3084 1428 2787 
Q 1159 2491 1159 1978 
L 1159 0 
L 581 0 
L 581 4863 
L 1159 4863 
L 1159 2956 
Q 1366 3272 1645 3428 
Q 1925 3584 2291 3584 
Q 2894 3584 3203 3211 
Q 3513 2838 3513 2113 
z
" transform="scale(0.015625)"/>
      <path id="DejaVuSans-4a" d="M 2906 1791 
Q 2906 2416 2648 2759 
Q 2391 3103 1925 3103 
Q 1463 3103 1205 2759 
Q 947 2416 947 1791 
Q 947 1169 1205 825 
Q 1463 481 1925 481 
Q 2391 481 2648 825 
Q 2906 1169 2906 1791 
z
M 3481 434 
Q 3481 -459 3084 -895 
Q 2688 -1331 1869 -1331 
Q 1566 -1331 1297 -1286 
Q 1028 -1241 775 -1147 
L 775 -588 
Q 1028 -725 1275 -790 
Q 1522 -856 1778 -856 
Q 2344 -856 2625 -561 
Q 2906 -266 2906 331 
L 2906 616 
Q 2728 306 2450 153 
Q 2172 0 1784 0 
Q 1141 0 747 490 
Q 353 981 353 1791 
Q 353 2603 747 3093 
Q 1141 3584 1784 3584 
Q 2172 3584 2450 3431 
Q 2728 3278 2906 2969 
L 2906 3500 
L 3481 3500 
L 3481 434 
z
" transform="scale(0.015625)"/>
     </defs>
     <use xlink:href="#DejaVuSans-2f"/>
     <use xlink:href="#DejaVuSans-4c" transform="translate(55.71875 0)"/>
     <use xlink:href="#DejaVuSans-51" transform="translate(83.5 0)"/>
     <use xlink:href="#DejaVuSans-48" transform="translate(146.875 0)"/>
     <use xlink:href="#DejaVuSans-3" transform="translate(208.40625 0)"/>
     <use xlink:href="#DejaVuSans-57" transform="translate(240.1875 0)"/>
     <use xlink:href="#DejaVuSans-4b" transform="translate(279.390625 0)"/>
     <use xlink:href="#DejaVuSans-55" transform="translate(342.765625 0)"/>
     <use xlink:href="#DejaVuSans-52" transform="translate(381.671875 0)"/>
     <use xlink:href="#DejaVuSans-58" transform="translate(442.859375 0)"/>
     <use xlink:href="#DejaVuSans-4a" transform="translate(506.234375 0)"/>
     <use xlink:href="#DejaVuSans-4b" transform="translate(569.71875 0)"/>
     <use xlink:href="#DejaVuSans-3" transform="translate(633.09375 0)"/>
     <use xlink:href="#DejaVuSans-53" transform="translate(664.875 0)"/>
     <use xlink:href="#DejaVuSans-52" transform="translate(728.359375 0)"/>
     <use xlink:href="#DejaVuSans-4c" transform="translate(789.546875 0)"/>
     <use xlink:href="#DejaVuSans-51" transform="translate(817.328125 0)"/>
     <use xlink:href="#DejaVuSans-57" transform="translate(880.703125 0)"/>
     <use xlink:href="#DejaVuSans-56" transform="translate(919.90625 0)"/>
    </g>
   </g>
  </g>
  <g id="axes_2">
   <g id="line2d_2">
    <path d="M 281.127273 228.947742 
L 283.433058 228.945737 
L 285.738843 228.943406 
L 288.044628 228.940694 
L 290.350413 228.937538 
L 292.656198 228.933868 
L 294.961983 228.929599 
L 297.267769 228.924633 
L 299.573554 228.918858 
L 301.879339 228.912142 
L 304.185124 228.904332 
L 306.490909 228.895252 
L 308.796694 228.884695 
L 311.102479 228.872424 
L 313.408264 228.858163 
L 315.71405 228.841592 
L 318.019835 228.822341 
L 320.32562 228.799983 
L 322.631405 228.774024 
L 324.93719 228.743896 
L 327.242975 228.708942 
L 329.54876 228.66841 
L 331.854545 228.621436 
L 334.160331 228.567029 
L 336.466116 228.504063 
L 338.771901 228.431252 
L 341.077686 228.347141 
L 343.383471 228.25009 
L 345.689256 228.138255 
L 347.995041 228.009582 
L 350.300826 227.861797 
L 352.606612 227.692406 
L 354.912397 227.498697 
L 357.218182 227.277769 
L 359.523967 227.026557 
L 361.829752 226.741891 
L 364.135537 226.420571 
L 366.441322 226.059469 
L 368.747107 225.655659 
L 371.052893 225.206578 
L 373.358678 224.710209 
L 375.664463 224.165281 
L 377.970248 223.571484 
L 380.276033 222.929663 
L 382.581818 222.241987 
L 384.887603 221.512066 
L 387.193388 220.744985 
L 389.499174 219.947246 
L 391.804959 219.126604 
L 394.110744 218.291799 
L 396.416529 217.452201 
L 398.722314 216.617396 
L 401.028099 215.796754 
L 403.333884 214.999015 
L 405.639669 214.231934 
L 407.945455 213.502013 
L 410.25124 212.814337 
L 412.557025 212.172516 
L 414.86281 211.578719 
L 417.168595 211.033791 
L 419.47438 210.537422 
L 421.780165 210.088341 
L 424.08595 209.684531 
L 426.391736 209.323429 
L 428.697521 209.002109 
L 431.003306 208.717443 
L 433.309091 208.466231 
L 435.614876 208.245303 
L 437.920661 208.051594 
L 440.226446 207.882203 
L 442.532231 207.734418 
L 444.838017 207.605745 
L 447.143802 207.49391 
L 449.449587 207.396859 
L 451.755372 207.312748 
L 454.061157 207.239937 
L 456.366942 207.176971 
L 458.672727 207.122564 
L 460.978512 207.07559 
L 463.284298 207.035058 
L 465.590083 207.000104 
L 467.895868 206.969976 
L 470.201653 206.944017 
L 472.507438 206.921659 
L 474.813223 206.902408 
L 477.119008 206.885837 
L 479.424793 206.871576 
L 481.730579 206.859305 
L 484.036364 206.848748 
L 486.342149 206.839668 
L 488.647934 206.831858 
L 490.953719 206.825142 
L 493.259504 206.819367 
L 495.565289 206.814401 
L 497.871074 206.810132 
L 500.17686 206.806462 
L 502.482645 206.803306 
L 504.78843 206.800594 
L 507.094215 206.798263 
L 509.4 206.796258 
" clip-path="url(#p38290cc687)" style="fill: none; stroke: #e74c3c; stroke-width: 2; stroke-linecap: square"/>
   </g>
   <g id="patch_3">
    <path d="M 345.043636 62.64 
L 445.483636 62.64 
Q 446.625 62.64 446.625 61.5312 
L 446.625 41.5728 
Q 446.625 40.464 445.483636 40.464 
L 345.043636 40.464 
Q 343.902273 40.464 343.902273 41.5728 
L 343.902273 61.5312 
Q 343.902273 62.64 345.043636 62.64 
z
" clip-path="url(#p38290cc687)" style="fill: #e8f4f8; stroke: #555555; stroke-width: 1.5; stroke-linejoin: miter"/>
   </g>
   <g id="text_4">
    <!-- Logistic Regression -->
    <g style="fill: #1a1a1a" transform="translate(340.227699 54.150047) scale(0.1 -0.1)">
     <defs>
      <path id="DejaVuSans-Bold-57" d="M 1759 4494 
L 1759 3500 
L 2913 3500 
L 2913 2700 
L 1759 2700 
L 1759 1216 
Q 1759 972 1856 886 
Q 1953 800 2241 800 
L 2816 800 
L 2816 0 
L 1856 0 
Q 1194 0 917 276 
Q 641 553 641 1216 
L 641 2700 
L 84 2700 
L 84 3500 
L 641 3500 
L 641 4494 
L 1759 4494 
z
" transform="scale(0.015625)"/>
      <path id="DejaVuSans-Bold-46" d="M 3366 3391 
L 3366 2478 
Q 3138 2634 2908 2709 
Q 2678 2784 2431 2784 
Q 1963 2784 1702 2511 
Q 1441 2238 1441 1747 
Q 1441 1256 1702 982 
Q 1963 709 2431 709 
Q 2694 709 2930 787 
Q 3166 866 3366 1019 
L 3366 103 
Q 3103 6 2833 -42 
Q 2563 -91 2291 -91 
Q 1344 -91 809 395 
Q 275 881 275 1747 
Q 275 2613 809 3098 
Q 1344 3584 2291 3584 
Q 2566 3584 2833 3536 
Q 3100 3488 3366 3391 
z
" transform="scale(0.015625)"/>
     </defs>
     <use xlink:href="#DejaVuSans-Bold-2f"/>
     <use xlink:href="#DejaVuSans-Bold-52" transform="translate(63.71875 0)"/>
     <use xlink:href="#DejaVuSans-Bold-4a" transform="translate(132.421875 0)"/>
     <use xlink:href="#DejaVuSans-Bold-4c" transform="translate(204 0)"/>
     <use xlink:href="#DejaVuSans-Bold-56" transform="translate(238.28125 0)"/>
     <use xlink:href="#DejaVuSans-Bold-57" transform="translate(297.796875 0)"/>
     <use xlink:href="#DejaVuSans-Bold-4c" transform="translate(345.59375 0)"/>
     <use xlink:href="#DejaVuSans-Bold-46" transform="translate(379.875 0)"/>
     <use xlink:href="#DejaVuSans-Bold-3" transform="translate(439.15625 0)"/>
     <use xlink:href="#DejaVuSans-Bold-35" transform="translate(473.96875 0)"/>
     <use xlink:href="#DejaVuSans-Bold-48" transform="translate(550.96875 0)"/>
     <use xlink:href="#DejaVuSans-Bold-4a" transform="translate(618.796875 0)"/>
     <use xlink:href="#DejaVuSans-Bold-55" transform="translate(690.375 0)"/>
     <use xlink:href="#DejaVuSans-Bold-48" transform="translate(739.6875 0)"/>
     <use xlink:href="#DejaVuSans-Bold-56" transform="translate(807.515625 0)"/>
     <use xlink:href="#DejaVuSans-Bold-56" transform="translate(867.03125 0)"/>
     <use xlink:href="#DejaVuSans-Bold-4c" transform="translate(926.546875 0)"/>
     <use xlink:href="#DejaVuSans-Bold-52" transform="translate(960.828125 0)"/>
     <use xlink:href="#DejaVuSans-Bold-51" transform="translate(1029.53125 0)"/>
    </g>
   </g>
   <g id="text_5">
    <!-- $p = \sigma(w\cdot x + b)$ -->
    <g style="fill: #1a1a1a" transform="translate(366.223636 78.184187) scale(0.08 -0.08)">
     <defs>
      <path id="DejaVuSans-Oblique-53" d="M 3175 2156 
Q 3175 2616 2975 2859 
Q 2775 3103 2400 3103 
Q 2144 3103 1911 2972 
Q 1678 2841 1497 2591 
Q 1319 2344 1212 1994 
Q 1106 1644 1106 1300 
Q 1106 863 1306 627 
Q 1506 391 1875 391 
Q 2147 391 2380 519 
Q 2613 647 2778 891 
Q 2956 1147 3065 1494 
Q 3175 1841 3175 2156 
z
M 1394 2969 
Q 1625 3272 1939 3428 
Q 2253 3584 2638 3584 
Q 3175 3584 3472 3232 
Q 3769 2881 3769 2247 
Q 3769 1728 3584 1258 
Q 3400 788 3053 416 
Q 2822 169 2531 39 
Q 2241 -91 1919 -91 
Q 1547 -91 1294 64 
Q 1041 219 916 525 
L 556 -1331 
L -19 -1331 
L 922 3500 
L 1497 3500 
L 1394 2969 
z
" transform="scale(0.015625)"/>
      <path id="DejaVuSans-Oblique-357" d="M 2219 3044 
Q 1744 3044 1422 2700 
Q 1081 2341 969 1747 
Q 844 1119 1044 756 
Q 1241 397 1706 397 
Q 2166 397 2503 759 
Q 2844 1122 2966 1747 
Q 3075 2319 2881 2700 
Q 2700 3044 2219 3044 
z
M 2309 3503 
L 4219 3500 
L 4106 2925 
L 3463 2925 
Q 3706 2438 3575 1747 
Q 3406 888 2884 400 
Q 2359 -91 1609 -91 
Q 856 -91 525 400 
Q 194 888 363 1747 
Q 528 2609 1050 3097 
Q 1484 3503 2309 3503 
z
" transform="scale(0.015625)"/>
     </defs>
     <use xlink:href="#DejaVuSans-Oblique-53" transform="translate(0 0.015625)"/>
     <use xlink:href="#DejaVuSans-20" transform="translate(82.958984 0.015625)"/>
     <use xlink:href="#DejaVuSans-Oblique-357" transform="translate(186.230469 0.015625)"/>
     <use xlink:href="#DejaVuSans-b" transform="translate(249.609375 0.015625)"/>
     <use xlink:href="#DejaVuSans-Oblique-5a" transform="translate(288.623047 0.015625)"/>
     <use xlink:href="#DejaVuSans-d4f" transform="translate(389.892578 0.015625)"/>
     <use xlink:href="#DejaVuSans-Oblique-5b" transform="translate(441.162109 0.015625)"/>
     <use xlink:href="#DejaVuSans-e" transform="translate(519.824219 0.015625)"/>
     <use xlink:href="#DejaVuSans-Oblique-45" transform="translate(623.095703 0.015625)"/>
     <use xlink:href="#DejaVuSans-c" transform="translate(686.572266 0.015625)"/>
    </g>
    <!-- Probability in $(0,1)$ -->
    <g style="fill: #1a1a1a" transform="translate(357.663636 87.787625) scale(0.08 -0.08)">
     <defs>
      <path id="DejaVuSans-33" d="M 1259 4147 
L 1259 2394 
L 2053 2394 
Q 2494 2394 2734 2622 
Q 2975 2850 2975 3272 
Q 2975 3691 2734 3919 
Q 2494 4147 2053 4147 
L 1259 4147 
z
M 628 4666 
L 2053 4666 
Q 2838 4666 3239 4311 
Q 3641 3956 3641 3272 
Q 3641 2581 3239 2228 
Q 2838 1875 2053 1875 
L 1259 1875 
L 1259 0 
L 628 0 
L 628 4666 
z
" transform="scale(0.015625)"/>
      <path id="DejaVuSans-45" d="M 3116 1747 
Q 3116 2381 2855 2742 
Q 2594 3103 2138 3103 
Q 1681 3103 1420 2742 
Q 1159 2381 1159 1747 
Q 1159 1113 1420 752 
Q 1681 391 2138 391 
Q 2594 391 2855 752 
Q 3116 1113 3116 1747 
z
M 1159 2969 
Q 1341 3281 1617 3432 
Q 1894 3584 2278 3584 
Q 2916 3584 3314 3078 
Q 3713 2572 3713 1747 
Q 3713 922 3314 415 
Q 2916 -91 2278 -91 
Q 1894 -91 1617 61 
Q 1341 213 1159 525 
L 1159 0 
L 581 0 
L 581 4863 
L 1159 4863 
L 1159 2969 
z
" transform="scale(0.015625)"/>
      <path id="DejaVuSans-5c" d="M 2059 -325 
Q 1816 -950 1584 -1140 
Q 1353 -1331 966 -1331 
L 506 -1331 
L 506 -850 
L 844 -850 
Q 1081 -850 1212 -737 
Q 1344 -625 1503 -206 
L 1606 56 
L 191 3500 
L 800 3500 
L 1894 763 
L 2988 3500 
L 3597 3500 
L 2059 -325 
z
" transform="scale(0.015625)"/>
      <path id="DejaVuSans-13" d="M 2034 4250 
Q 1547 4250 1301 3770 
Q 1056 3291 1056 2328 
Q 1056 1369 1301 889 
Q 1547 409 2034 409 
Q 2525 409 2770 889 
Q 3016 1369 3016 2328 
Q 3016 3291 2770 3770 
Q 2525 4250 2034 4250 
z
M 2034 4750 
Q 2819 4750 3233 4129 
Q 3647 3509 3647 2328 
Q 3647 1150 3233 529 
Q 2819 -91 2034 -91 
Q 1250 -91 836 529 
Q 422 1150 422 2328 
Q 422 3509 836 4129 
Q 1250 4750 2034 4750 
z
" transform="scale(0.015625)"/>
      <path id="DejaVuSans-f" d="M 750 794 
L 1409 794 
L 1409 256 
L 897 -744 
L 494 -744 
L 750 256 
L 750 794 
z
" transform="scale(0.015625)"/>
      <path id="DejaVuSans-14" d="M 794 531 
L 1825 531 
L 1825 4091 
L 703 3866 
L 703 4441 
L 1819 4666 
L 2450 4666 
L 2450 531 
L 3481 531 
L 3481 0 
L 794 0 
L 794 531 
z
" transform="scale(0.015625)"/>
     </defs>
     <use xlink:href="#DejaVuSans-33" transform="translate(0 0.015625)"/>
     <use xlink:href="#DejaVuSans-55" transform="translate(58.302734 0.015625)"/>
     <use xlink:href="#DejaVuSans-52" transform="translate(97.416016 0.015625)"/>
     <use xlink:href="#DejaVuSans-45" transform="translate(158.597656 0.015625)"/>
     <use xlink:href="#DejaVuSans-44" transform="translate(222.074219 0.015625)"/>
     <use xlink:href="#DejaVuSans-45" transform="translate(283.353516 0.015625)"/>
     <use xlink:href="#DejaVuSans-4c" transform="translate(346.830078 0.015625)"/>
     <use xlink:href="#DejaVuSans-4f" transform="translate(374.613281 0.015625)"/>
     <use xlink:href="#DejaVuSans-4c" transform="translate(402.396484 0.015625)"/>
     <use xlink:href="#DejaVuSans-57" transform="translate(430.179688 0.015625)"/>
     <use xlink:href="#DejaVuSans-5c" transform="translate(469.388672 0.015625)"/>
     <use xlink:href="#DejaVuSans-3" transform="translate(528.568359 0.015625)"/>
     <use xlink:href="#DejaVuSans-4c" transform="translate(560.355469 0.015625)"/>
     <use xlink:href="#DejaVuSans-51" transform="translate(588.138672 0.015625)"/>
     <use xlink:href="#DejaVuSans-3" transform="translate(651.517578 0.015625)"/>
     <use xlink:href="#DejaVuSans-b" transform="translate(683.304688 0.015625)"/>
     <use xlink:href="#DejaVuSans-13" transform="translate(722.318359 0.015625)"/>
     <use xlink:href="#DejaVuSans-f" transform="translate(785.941406 0.015625)"/>
     <use xlink:href="#DejaVuSans-14" transform="translate(837.210938 0.015625)"/>
     <use xlink:href="#DejaVuSans-c" transform="translate(900.833984 0.015625)"/>
    </g>
    <!-- Cross-entropy loss -->
    <g style="fill: #1a1a1a" transform="translate(358.383636 97.389812) scale(0.08 -0.08)">
     <use xlink:href="#DejaVuSans-26"/>
     <use xlink:href="#DejaVuSans-55" transform="translate(69.828125 0)"/>
     <use xlink:href="#DejaVuSans-52" transform="translate(108.734375 0)"/>
     <use xlink:href="#DejaVuSans-56" transform="translate(169.921875 0)"/>
     <use xlink:href="#DejaVuSans-56" transform="translate(222.015625 0)"/>
     <use xlink:href="#DejaVuSans-10" transform="translate(274.109375 0)"/>
     <use xlink:href="#DejaVuSans-48" transform="translate(310.1875 0)"/>
     <use xlink:href="#DejaVuSans-51" transform="translate(371.71875 0)"/>
     <use xlink:href="#DejaVuSans-57" transform="translate(435.09375 0)"/>
     <use xlink:href="#DejaVuSans-55" transform="translate(474.296875 0)"/>
     <use xlink:href="#DejaVuSans-52" transform="translate(513.203125 0)"/>
     <use xlink:href="#DejaVuSans-53" transform="translate(574.390625 0)"/>
     <use xlink:href="#DejaVuSans-5c" transform="translate(637.875 0)"/>
     <use xlink:href="#DejaVuSans-3" transform="translate(697.0625 0)"/>
     <use xlink:href="#DejaVuSans-4f" transform="translate(728.84375 0)"/>
     <use xlink:href="#DejaVuSans-52" transform="translate(756.625 0)"/>
     <use xlink:href="#DejaVuSans-56" transform="translate(817.8125 0)"/>
     <use xlink:href="#DejaVuSans-56" transform="translate(869.90625 0)"/>
    </g>
    <!-- Convex (global optimum) -->
    <g style="fill: #1a1a1a" transform="translate(344.504261 106.992) scale(0.08 -0.08)">
     <defs>
      <path id="DejaVuSans-59" d="M 191 3500 
L 800 3500 
L 1894 563 
L 2988 3500 
L 3597 3500 
L 2284 0 
L 1503 0 
L 191 3500 
z
" transform="scale(0.015625)"/>
      <path id="DejaVuSans-5b" d="M 3513 3500 
L 2247 1797 
L 3578 0 
L 2900 0 
L 1881 1375 
L 863 0 
L 184 0 
L 1544 1831 
L 300 3500 
L 978 3500 
L 1906 2253 
L 2834 3500 
L 3513 3500 
z
" transform="scale(0.015625)"/>
     </defs>
     <use xlink:href="#DejaVuSans-26"/>
     <use xlink:href="#DejaVuSans-52" transform="translate(69.828125 0)"/>
     <use xlink:href="#DejaVuSans-51" transform="translate(131.015625 0)"/>
     <use xlink:href="#DejaVuSans-59" transform="translate(194.390625 0)"/>
     <use xlink:href="#DejaVuSans-48" transform="translate(253.578125 0)"/>
     <use xlink:href="#DejaVuSans-5b" transform="translate(313.359375 0)"/>
     <use xlink:href="#DejaVuSans-3" transform="translate(372.546875 0)"/>
     <use xlink:href="#DejaVuSans-b" transform="translate(404.328125 0)"/>
     <use xlink:href="#DejaVuSans-4a" transform="translate(443.34375 0)"/>
     <use xlink:href="#DejaVuSans-4f" transform="translate(506.828125 0)"/>
     <use xlink:href="#DejaVuSans-52" transform="translate(534.609375 0)"/>
     <use xlink:href="#DejaVuSans-45" transform="translate(595.796875 0)"/>
     <use xlink:href="#DejaVuSans-44" transform="translate(659.28125 0)"/>
     <use xlink:href="#DejaVuSans-4f" transform="translate(720.5625 0)"/>
     <use xlink:href="#DejaVuSans-3" transform="translate(748.34375 0)"/>
     <use xlink:href="#DejaVuSans-52" transform="translate(780.125 0)"/>
     <use xlink:href="#DejaVuSans-53" transform="translate(841.3125 0)"/>
     <use xlink:href="#DejaVuSans-57" transform="translate(904.796875 0)"/>
     <use xlink:href="#DejaVuSans-4c" transform="translate(944 0)"/>
     <use xlink:href="#DejaVuSans-50" transform="translate(971.78125 0)"/>
     <use xlink:href="#DejaVuSans-58" transform="translate(1069.1875 0)"/>
     <use xlink:href="#DejaVuSans-50" transform="translate(1132.5625 0)"/>
     <use xlink:href="#DejaVuSans-c" transform="translate(1229.96875 0)"/>
    </g>
   </g>
   <g id="text_6">
    <!-- Sigmoid squashes to [0,1] -->
    <g style="fill: #666666" transform="translate(349.527933 217.872) scale(0.07 -0.07)">
     <defs>
      <path id="DejaVuSans-3e" d="M 550 4863 
L 1875 4863 
L 1875 4416 
L 1125 4416 
L 1125 -397 
L 1875 -397 
L 1875 -844 
L 550 -844 
L 550 4863 
z
" transform="scale(0.015625)"/>
      <path id="DejaVuSans-40" d="M 1947 4863 
L 1947 -844 
L 622 -844 
L 622 -397 
L 1369 -397 
L 1369 4416 
L 622 4416 
L 622 4863 
L 1947 4863 
z
" transform="scale(0.015625)"/>
     </defs>
     <use xlink:href="#DejaVuSans-36"/>
     <use xlink:href="#DejaVuSans-4c" transform="translate(63.484375 0)"/>
     <use xlink:href="#DejaVuSans-4a" transform="translate(91.265625 0)"/>
     <use xlink:href="#DejaVuSans-50" transform="translate(154.75 0)"/>
     <use xlink:href="#DejaVuSans-52" transform="translate(252.15625 0)"/>
     <use xlink:href="#DejaVuSans-4c" transform="translate(313.34375 0)"/>
     <use xlink:href="#DejaVuSans-47" transform="translate(341.125 0)"/>
     <use xlink:href="#DejaVuSans-3" transform="translate(404.609375 0)"/>
     <use xlink:href="#DejaVuSans-56" transform="translate(436.390625 0)"/>
     <use xlink:href="#DejaVuSans-54" transform="translate(488.484375 0)"/>
     <use xlink:href="#DejaVuSans-58" transform="translate(551.96875 0)"/>
     <use xlink:href="#DejaVuSans-44" transform="translate(615.34375 0)"/>
     <use xlink:href="#DejaVuSans-56" transform="translate(676.625 0)"/>
     <use xlink:href="#DejaVuSans-4b" transform="translate(728.71875 0)"/>
     <use xlink:href="#DejaVuSans-48" transform="translate(792.09375 0)"/>
     <use xlink:href="#DejaVuSans-56" transform="translate(853.625 0)"/>
     <use xlink:href="#DejaVuSans-3" transform="translate(905.71875 0)"/>
     <use xlink:href="#DejaVuSans-57" transform="translate(937.5 0)"/>
     <use xlink:href="#DejaVuSans-52" transform="translate(976.703125 0)"/>
     <use xlink:href="#DejaVuSans-3" transform="translate(1037.890625 0)"/>
     <use xlink:href="#DejaVuSans-3e" transform="translate(1069.671875 0)"/>
     <use xlink:href="#DejaVuSans-13" transform="translate(1108.6875 0)"/>
     <use xlink:href="#DejaVuSans-f" transform="translate(1172.3125 0)"/>
     <use xlink:href="#DejaVuSans-14" transform="translate(1204.09375 0)"/>
     <use xlink:href="#DejaVuSans-40" transform="translate(1267.71875 0)"/>
    </g>
   </g>
  </g>
 </g>
 <defs>
  <clipPath id="pdfe8483595">
   <rect x="7.2" y="7.2" width="228.272727" height="221.76"/>
  </clipPath>
  <clipPath id="p38290cc687">
   <rect x="281.127273" y="7.2" width="228.272727" height="221.76"/>
  </clipPath>
 </defs>
</svg>
