<?xml version="1.0" encoding="utf-8" standalone="no"?>
<!DOCTYPE svg PUBLIC "-//W3C//DTD SVG 1.1//EN"
  "http://www.w3.org/Graphics/SVG/1.1/DTD/svg11.dtd">
<svg xmlns:xlink="http://www.w3.org/1999/xlink" width="572.4pt" height="208.44pt" viewBox="0 0 572.4 208.44" xmlns="http://www.w3.org/2000/svg" version="1.1">
 <metadata>
  <rdf:RDF xmlns:dc="http://purl.org/dc/elements/1.1/" xmlns:cc="http://creativecommons.org/ns#" xmlns:rdf="http://www.w3.org/1999/02/22-rdf-syntax-ns#">
   <cc:Work>
    <dc:type rdf:resource="http://purl.org/dc/dcmitype/StillImage"/>
    <dc:date>2026-07-06T17:32:28.339352</dc:date>
    <dc:format>image/svg+xml</dc:format>
    <dc:creator>
     <cc:Agent>
      <dc:title>Matplotlib v3.11.0, https://matplotlib.org/</dc:title>
     </cc:Agent>
    </dc:creator>
   </cc:Work>
  </rdf:RDF>
 </metadata>
 <defs>
  <style type="text/css">*{stroke-linejoin: round; stroke-linecap: butt}</style>
 </defs>
 <g id="figure_1">
  <g id="patch_1">
   <path d="M 0 208.44 
L 572.4 208.44 
L 572.4 0 
L 0 0 
L 0 208.44 
z
" style="fill: none"/>
  </g>
  <g id="axes_1">
   <g id="patch_2">
    <path d="M 95.898636 162.432 
Q 109.035892 162.432 120.496097 162.432 
" style="fill: none; stroke: #888888; stroke-width: 1.5; stroke-linecap: round"/>
    <path d="M 116.496097 160.432 
L 120.496097 162.432 
L 116.496097 164.432 
" style="fill: none; stroke: #888888; stroke-width: 1.5; stroke-linecap: round"/>
   </g>
   <g id="patch_3">
    <path d="M 160.068636 162.432 
Q 173.205892 162.432 184.666097 162.432 
" style="fill: none; stroke: #888888; stroke-width: 1.5; stroke-linecap: round"/>
    <path d="M 180.666097 160.432 
L 184.666097 162.432 
L 180.666097 164.432 
" style="fill: none; stroke: #888888; stroke-width: 1.5; stroke-linecap: round"/>
   </g>
   <g id="patch_4">
    <path d="M 224.238636 162.432 
Q 237.375892 162.432 248.836097 162.432 
" style="fill: none; stroke: #888888; stroke-width: 1.5; stroke-linecap: round"/>
    <path d="M 244.836097 160.432 
L 248.836097 162.432 
L 244.836097 164.432 
" style="fill: none; stroke: #888888; stroke-width: 1.5; stroke-linecap: round"/>
   </g>
   <g id="patch_5">
    <path d="M 288.408636 162.432 
Q 301.545892 162.432 313.006097 162.432 
" style="fill: none; stroke: #888888; stroke-width: 1.5; stroke-linecap: round"/>
    <path d="M 309.006097 160.432 
L 313.006097 162.432 
L 309.006097 164.432 
" style="fill: none; stroke: #888888; stroke-width: 1.5; stroke-linecap: round"/>
   </g>
   <g id="patch_6">
    <path d="M 352.578636 162.432 
Q 365.715892 162.432 377.176097 162.432 
" style="fill: none; stroke: #888888; stroke-width: 1.5; stroke-linecap: round"/>
    <path d="M 373.176097 160.432 
L 377.176097 162.432 
L 373.176097 164.432 
" style="fill: none; stroke: #888888; stroke-width: 1.5; stroke-linecap: round"/>
   </g>
   <g id="patch_7">
    <path d="M 416.748636 162.432 
Q 429.885892 162.432 441.346097 162.432 
" style="fill: none; stroke: #888888; stroke-width: 1.5; stroke-linecap: round"/>
    <path d="M 437.346097 160.432 
L 441.346097 162.432 
L 437.346097 164.432 
" style="fill: none; stroke: #888888; stroke-width: 1.5; stroke-linecap: round"/>
   </g>
   <g id="patch_8">
    <path d="M 480.918636 162.432 
Q 494.055892 162.432 505.516097 162.432 
" style="fill: none; stroke: #888888; stroke-width: 1.5; stroke-linecap: round"/>
    <path d="M 501.516097 160.432 
L 505.516097 162.432 
L 501.516097 164.432 
" style="fill: none; stroke: #888888; stroke-width: 1.5; stroke-linecap: round"/>
   </g>
   <g id="patch_9">
    <path d="M 40.68 179.8956 
L 85.32 179.8956 
Q 88.11 179.8956 88.11 178.9254 
L 88.11 145.9386 
Q 88.11 144.9684 85.32 144.9684 
L 40.68 144.9684 
Q 37.89 144.9684 37.89 145.9386 
L 37.89 178.9254 
Q 37.89 179.8956 40.68 179.8956 
z
" clip-path="url(#p48848e26f2)" style="fill: #d5f5e3; stroke: #555555; stroke-width: 1.5; stroke-linejoin: miter"/>
   </g>
   <g id="patch_10">
    <path d="M 104.85 179.8956 
L 149.49 179.8956 
Q 152.28 179.8956 152.28 178.9254 
L 152.28 145.9386 
Q 152.28 144.9684 149.49 144.9684 
L 104.85 144.9684 
Q 102.06 144.9684 102.06 145.9386 
L 102.06 178.9254 
Q 102.06 179.8956 104.85 179.8956 
z
" clip-path="url(#p48848e26f2)" style="fill: #e8f4f8; stroke: #555555; stroke-width: 1.5; stroke-linejoin: miter"/>
   </g>
   <g id="patch_11">
    <path d="M 169.02 179.8956 
L 213.66 179.8956 
Q 216.45 179.8956 216.45 178.9254 
L 216.45 145.9386 
Q 216.45 144.9684 213.66 144.9684 
L 169.02 144.9684 
Q 166.23 144.9684 166.23 145.9386 
L 166.23 178.9254 
Q 166.23 179.8956 169.02 179.8956 
z
" clip-path="url(#p48848e26f2)" style="fill: #fef9e7; stroke: #555555; stroke-width: 1.5; stroke-linejoin: miter"/>
   </g>
   <g id="patch_12">
    <path d="M 233.19 179.8956 
L 277.83 179.8956 
Q 280.62 179.8956 280.62 178.9254 
L 280.62 145.9386 
Q 280.62 144.9684 277.83 144.9684 
L 233.19 144.9684 
Q 230.4 144.9684 230.4 145.9386 
L 230.4 178.9254 
Q 230.4 179.8956 233.19 179.8956 
z
" clip-path="url(#p48848e26f2)" style="fill: #e8f4f8; stroke: #555555; stroke-width: 1.5; stroke-linejoin: miter"/>
   </g>
   <g id="patch_13">
    <path d="M 297.36 179.8956 
L 342 179.8956 
Q 344.79 179.8956 344.79 178.9254 
L 344.79 145.9386 
Q 344.79 144.9684 342 144.9684 
L 297.36 144.9684 
Q 294.57 144.9684 294.57 145.9386 
L 294.57 178.9254 
Q 294.57 179.8956 297.36 179.8956 
z
" clip-path="url(#p48848e26f2)" style="fill: #fef9e7; stroke: #555555; stroke-width: 1.5; stroke-linejoin: miter"/>
   </g>
   <g id="patch_14">
    <path d="M 361.53 179.8956 
L 406.17 179.8956 
Q 408.96 179.8956 408.96 178.9254 
L 408.96 145.9386 
Q 408.96 144.9684 406.17 144.9684 
L 361.53 144.9684 
Q 358.74 144.9684 358.74 145.9386 
L 358.74 178.9254 
Q 358.74 179.8956 361.53 179.8956 
z
" clip-path="url(#p48848e26f2)" style="fill: #fdebd0; stroke: #555555; stroke-width: 1.5; stroke-linejoin: miter"/>
   </g>
   <g id="patch_15">
    <path d="M 425.7 179.8956 
L 470.34 179.8956 
Q 473.13 179.8956 473.13 178.9254 
L 473.13 145.9386 
Q 473.13 144.9684 470.34 144.9684 
L 425.7 144.9684 
Q 422.91 144.9684 422.91 145.9386 
L 422.91 178.9254 
Q 422.91 179.8956 425.7 179.8956 
z
" clip-path="url(#p48848e26f2)" style="fill: #fdebd0; stroke: #555555; stroke-width: 1.5; stroke-linejoin: miter"/>
   </g>
   <g id="patch_16">
    <path d="M 489.87 179.8956 
L 534.51 179.8956 
Q 537.3 179.8956 537.3 178.9254 
L 537.3 145.9386 
Q 537.3 144.9684 534.51 144.9684 
L 489.87 144.9684 
Q 487.08 144.9684 487.08 145.9386 
L 487.08 178.9254 
Q 487.08 179.8956 489.87 179.8956 
z
" clip-path="url(#p48848e26f2)" style="fill: #d5f5e3; stroke: #555555; stroke-width: 1.5; stroke-linejoin: miter"/>
   </g>
   <g id="text_1">
    <!-- Input -->
    <g style="fill: #1a1a1a" transform="translate(54.584531 160.219842) scale(0.065 -0.065)">
     <defs>
      <path id="DejaVuSans-2c" d="M 628 4666 
L 1259 4666 
L 1259 0 
L 628 0 
L 628 4666 
z
" transform="scale(0.015625)"/>
      <path id="DejaVuSans-51" d="M 3513 2113 
L 3513 0 
L 2938 0 
L 2938 2094 
Q 2938 2591 2744 2837 
Q 2550 3084 2163 3084 
Q 1697 3084 1428 2787 
Q 1159 2491 1159 1978 
L 1159 0 
L 581 0 
L 581 3500 
L 1159 3500 
L 1159 2956 
Q 1366 3272 1645 3428 
Q 1925 3584 2291 3584 
Q 2894 3584 3203 3211 
Q 3513 2838 3513 2113 
z
" transform="scale(0.015625)"/>
      <path id="DejaVuSans-53" d="M 1159 525 
L 1159 -1331 
L 581 -1331 
L 581 3500 
L 1159 3500 
L 1159 2969 
Q 1341 3281 1617 3432 
Q 1894 3584 2278 3584 
Q 2916 3584 3314 3078 
Q 3713 2572 3713 1747 
Q 3713 922 3314 415 
Q 2916 -91 2278 -91 
Q 1894 -91 1617 61 
Q 1341 213 1159 525 
z
M 3116 1747 
Q 3116 2381 2855 2742 
Q 2594 3103 2138 3103 
Q 1681 3103 1420 2742 
Q 1159 2381 1159 1747 
Q 1159 1113 1420 752 
Q 1681 391 2138 391 
Q 2594 391 2855 752 
Q 3116 1113 3116 1747 
z
" transform="scale(0.015625)"/>
      <path id="DejaVuSans-58" d="M 544 1381 
L 544 3500 
L 1119 3500 
L 1119 1403 
Q 1119 906 1312 657 
Q 1506 409 1894 409 
Q 2359 409 2629 706 
Q 2900 1003 2900 1516 
L 2900 3500 
L 3475 3500 
L 3475 0 
L 2900 0 
L 2900 538 
Q 2691 219 2414 64 
Q 2138 -91 1772 -91 
Q 1169 -91 856 284 
Q 544 659 544 1381 
z
M 1991 3584 
L 1991 3584 
z
" transform="scale(0.015625)"/>
      <path id="DejaVuSans-57" d="M 1172 4494 
L 1172 3500 
L 2356 3500 
L 2356 3053 
L 1172 3053 
L 1172 1153 
Q 1172 725 1289 603 
Q 1406 481 1766 481 
L 2356 481 
L 2356 0 
L 1766 0 
Q 1100 0 847 248 
Q 594 497 594 1153 
L 594 3053 
L 172 3053 
L 172 3500 
L 594 3500 
L 594 4494 
L 1172 4494 
z
" transform="scale(0.015625)"/>
     </defs>
     <use xlink:href="#DejaVuSans-2c"/>
     <use xlink:href="#DejaVuSans-51" transform="translate(29.5 0)"/>
     <use xlink:href="#DejaVuSans-53" transform="translate(92.875 0)"/>
     <use xlink:href="#DejaVuSans-58" transform="translate(156.359375 0)"/>
     <use xlink:href="#DejaVuSans-57" transform="translate(219.734375 0)"/>
    </g>
    <!-- 32x32 -->
    <g style="fill: #1a1a1a" transform="translate(52.805156 168.021111) scale(0.065 -0.065)">
     <defs>
      <path id="DejaVuSans-16" d="M 2597 2516 
Q 3050 2419 3304 2112 
Q 3559 1806 3559 1356 
Q 3559 666 3084 287 
Q 2609 -91 1734 -91 
Q 1441 -91 1130 -33 
Q 819 25 488 141 
L 488 750 
Q 750 597 1062 519 
Q 1375 441 1716 441 
Q 2309 441 2620 675 
Q 2931 909 2931 1356 
Q 2931 1769 2642 2001 
Q 2353 2234 1838 2234 
L 1294 2234 
L 1294 2753 
L 1863 2753 
Q 2328 2753 2575 2939 
Q 2822 3125 2822 3475 
Q 2822 3834 2567 4026 
Q 2313 4219 1838 4219 
Q 1578 4219 1281 4162 
Q 984 4106 628 3988 
L 628 4550 
Q 988 4650 1302 4700 
Q 1616 4750 1894 4750 
Q 2613 4750 3031 4423 
Q 3450 4097 3450 3541 
Q 3450 3153 3228 2886 
Q 3006 2619 2597 2516 
z
" transform="scale(0.015625)"/>
      <path id="DejaVuSans-15" d="M 1228 531 
L 3431 531 
L 3431 0 
L 469 0 
L 469 531 
Q 828 903 1448 1529 
Q 2069 2156 2228 2338 
Q 2531 2678 2651 2914 
Q 2772 3150 2772 3378 
Q 2772 3750 2511 3984 
Q 2250 4219 1831 4219 
Q 1534 4219 1204 4116 
Q 875 4013 500 3803 
L 500 4441 
Q 881 4594 1212 4672 
Q 1544 4750 1819 4750 
Q 2544 4750 2975 4387 
Q 3406 4025 3406 3419 
Q 3406 3131 3298 2873 
Q 3191 2616 2906 2266 
Q 2828 2175 2409 1742 
Q 1991 1309 1228 531 
z
" transform="scale(0.015625)"/>
      <path id="DejaVuSans-5b" d="M 3513 3500 
L 2247 1797 
L 3578 0 
L 2900 0 
L 1881 1375 
L 863 0 
L 184 0 
L 1544 1831 
L 300 3500 
L 978 3500 
L 1906 2253 
L 2834 3500 
L 3513 3500 
z
" transform="scale(0.015625)"/>
     </defs>
     <use xlink:href="#DejaVuSans-16"/>
     <use xlink:href="#DejaVuSans-15" transform="translate(63.625 0)"/>
     <use xlink:href="#DejaVuSans-5b" transform="translate(127.25 0)"/>
     <use xlink:href="#DejaVuSans-16" transform="translate(186.4375 0)"/>
     <use xlink:href="#DejaVuSans-15" transform="translate(250.0625 0)"/>
    </g>
   </g>
   <g id="text_2">
    <!-- Conv -->
    <g style="fill: #1a1a1a" transform="translate(118.928711 156.319207) scale(0.065 -0.065)">
     <defs>
      <path id="DejaVuSans-26" d="M 4122 4306 
L 4122 3641 
Q 3803 3938 3442 4084 
Q 3081 4231 2675 4231 
Q 1875 4231 1450 3742 
Q 1025 3253 1025 2328 
Q 1025 1406 1450 917 
Q 1875 428 2675 428 
Q 3081 428 3442 575 
Q 3803 722 4122 1019 
L 4122 359 
Q 3791 134 3420 21 
Q 3050 -91 2638 -91 
Q 1578 -91 968 557 
Q 359 1206 359 2328 
Q 359 3453 968 4101 
Q 1578 4750 2638 4750 
Q 3056 4750 3426 4639 
Q 3797 4528 4122 4306 
z
" transform="scale(0.015625)"/>
      <path id="DejaVuSans-52" d="M 1959 3097 
Q 1497 3097 1228 2736 
Q 959 2375 959 1747 
Q 959 1119 1226 758 
Q 1494 397 1959 397 
Q 2419 397 2687 759 
Q 2956 1122 2956 1747 
Q 2956 2369 2687 2733 
Q 2419 3097 1959 3097 
z
M 1959 3584 
Q 2709 3584 3137 3096 
Q 3566 2609 3566 1747 
Q 3566 888 3137 398 
Q 2709 -91 1959 -91 
Q 1206 -91 779 398 
Q 353 888 353 1747 
Q 353 2609 779 3096 
Q 1206 3584 1959 3584 
z
" transform="scale(0.015625)"/>
      <path id="DejaVuSans-59" d="M 191 3500 
L 800 3500 
L 1894 563 
L 2988 3500 
L 3597 3500 
L 2284 0 
L 1503 0 
L 191 3500 
z
" transform="scale(0.015625)"/>
     </defs>
     <use xlink:href="#DejaVuSans-26"/>
     <use xlink:href="#DejaVuSans-52" transform="translate(69.828125 0)"/>
     <use xlink:href="#DejaVuSans-51" transform="translate(131.015625 0)"/>
     <use xlink:href="#DejaVuSans-59" transform="translate(194.390625 0)"/>
    </g>
    <!-- 3x3x6 -->
    <g style="fill: #1a1a1a" transform="translate(117.119375 164.120477) scale(0.065 -0.065)">
     <defs>
      <path id="DejaVuSans-19" d="M 2113 2584 
Q 1688 2584 1439 2293 
Q 1191 2003 1191 1497 
Q 1191 994 1439 701 
Q 1688 409 2113 409 
Q 2538 409 2786 701 
Q 3034 994 3034 1497 
Q 3034 2003 2786 2293 
Q 2538 2584 2113 2584 
z
M 3366 4563 
L 3366 3988 
Q 3128 4100 2886 4159 
Q 2644 4219 2406 4219 
Q 1781 4219 1451 3797 
Q 1122 3375 1075 2522 
Q 1259 2794 1537 2939 
Q 1816 3084 2150 3084 
Q 2853 3084 3261 2657 
Q 3669 2231 3669 1497 
Q 3669 778 3244 343 
Q 2819 -91 2113 -91 
Q 1303 -91 875 529 
Q 447 1150 447 2328 
Q 447 3434 972 4092 
Q 1497 4750 2381 4750 
Q 2619 4750 2861 4703 
Q 3103 4656 3366 4563 
z
" transform="scale(0.015625)"/>
     </defs>
     <use xlink:href="#DejaVuSans-16"/>
     <use xlink:href="#DejaVuSans-5b" transform="translate(63.625 0)"/>
     <use xlink:href="#DejaVuSans-16" transform="translate(122.8125 0)"/>
     <use xlink:href="#DejaVuSans-5b" transform="translate(186.4375 0)"/>
     <use xlink:href="#DejaVuSans-19" transform="translate(245.625 0)"/>
    </g>
    <!-- ReLU -->
    <g style="fill: #1a1a1a" transform="translate(119.030273 171.921746) scale(0.065 -0.065)">
     <defs>
      <path id="DejaVuSans-35" d="M 2841 2188 
Q 3044 2119 3236 1894 
Q 3428 1669 3622 1275 
L 4263 0 
L 3584 0 
L 2988 1197 
Q 2756 1666 2539 1819 
Q 2322 1972 1947 1972 
L 1259 1972 
L 1259 0 
L 628 0 
L 628 4666 
L 2053 4666 
Q 2853 4666 3247 4331 
Q 3641 3997 3641 3322 
Q 3641 2881 3436 2590 
Q 3231 2300 2841 2188 
z
M 1259 4147 
L 1259 2491 
L 2053 2491 
Q 2509 2491 2742 2702 
Q 2975 2913 2975 3322 
Q 2975 3731 2742 3939 
Q 2509 4147 2053 4147 
L 1259 4147 
z
" transform="scale(0.015625)"/>
      <path id="DejaVuSans-48" d="M 3597 1894 
L 3597 1613 
L 953 1613 
Q 991 1019 1311 708 
Q 1631 397 2203 397 
Q 2534 397 2845 478 
Q 3156 559 3463 722 
L 3463 178 
Q 3153 47 2828 -22 
Q 2503 -91 2169 -91 
Q 1331 -91 842 396 
Q 353 884 353 1716 
Q 353 2575 817 3079 
Q 1281 3584 2069 3584 
Q 2775 3584 3186 3129 
Q 3597 2675 3597 1894 
z
M 3022 2063 
Q 3016 2534 2758 2815 
Q 2500 3097 2075 3097 
Q 1594 3097 1305 2825 
Q 1016 2553 972 2059 
L 3022 2063 
z
" transform="scale(0.015625)"/>
      <path id="DejaVuSans-2f" d="M 628 4666 
L 1259 4666 
L 1259 531 
L 3531 531 
L 3531 0 
L 628 0 
L 628 4666 
z
" transform="scale(0.015625)"/>
      <path id="DejaVuSans-38" d="M 556 4666 
L 1191 4666 
L 1191 1831 
Q 1191 1081 1462 751 
Q 1734 422 2344 422 
Q 2950 422 3222 751 
Q 3494 1081 3494 1831 
L 3494 4666 
L 4128 4666 
L 4128 1753 
Q 4128 841 3676 375 
Q 3225 -91 2344 -91 
Q 1459 -91 1007 375 
Q 556 841 556 1753 
L 556 4666 
z
" transform="scale(0.015625)"/>
     </defs>
     <use xlink:href="#DejaVuSans-35"/>
     <use xlink:href="#DejaVuSans-48" transform="translate(65 0)"/>
     <use xlink:href="#DejaVuSans-2f" transform="translate(126.53125 0)"/>
     <use xlink:href="#DejaVuSans-38" transform="translate(177.265625 0)"/>
    </g>
   </g>
   <g id="text_3">
    <!-- Pool -->
    <g style="fill: #1a1a1a" transform="translate(184.616055 156.319461) scale(0.065 -0.065)">
     <defs>
      <path id="DejaVuSans-33" d="M 1259 4147 
L 1259 2394 
L 2053 2394 
Q 2494 2394 2734 2622 
Q 2975 2850 2975 3272 
Q 2975 3691 2734 3919 
Q 2494 4147 2053 4147 
L 1259 4147 
z
M 628 4666 
L 2053 4666 
Q 2838 4666 3239 4311 
Q 3641 3956 3641 3272 
Q 3641 2581 3239 2228 
Q 2838 1875 2053 1875 
L 1259 1875 
L 1259 0 
L 628 0 
L 628 4666 
z
" transform="scale(0.015625)"/>
      <path id="DejaVuSans-4f" d="M 603 4863 
L 1178 4863 
L 1178 0 
L 603 0 
L 603 4863 
z
" transform="scale(0.015625)"/>
     </defs>
     <use xlink:href="#DejaVuSans-33"/>
     <use xlink:href="#DejaVuSans-52" transform="translate(56.734375 0)"/>
     <use xlink:href="#DejaVuSans-52" transform="translate(117.921875 0)"/>
     <use xlink:href="#DejaVuSans-4f" transform="translate(179.109375 0)"/>
    </g>
    <!-- 2x2 -->
    <g style="fill: #1a1a1a" transform="translate(185.280781 164.12073) scale(0.065 -0.065)">
     <use xlink:href="#DejaVuSans-15"/>
     <use xlink:href="#DejaVuSans-5b" transform="translate(63.625 0)"/>
     <use xlink:href="#DejaVuSans-15" transform="translate(122.8125 0)"/>
    </g>
    <!-- Max -->
    <g style="fill: #1a1a1a" transform="translate(184.620625 171.922) scale(0.065 -0.065)">
     <defs>
      <path id="DejaVuSans-30" d="M 628 4666 
L 1569 4666 
L 2759 1491 
L 3956 4666 
L 4897 4666 
L 4897 0 
L 4281 0 
L 4281 4097 
L 3078 897 
L 2444 897 
L 1241 4097 
L 1241 0 
L 628 0 
L 628 4666 
z
" transform="scale(0.015625)"/>
      <path id="DejaVuSans-44" d="M 2194 1759 
Q 1497 1759 1228 1600 
Q 959 1441 959 1056 
Q 959 750 1161 570 
Q 1363 391 1709 391 
Q 2188 391 2477 730 
Q 2766 1069 2766 1631 
L 2766 1759 
L 2194 1759 
z
M 3341 1997 
L 3341 0 
L 2766 0 
L 2766 531 
Q 2569 213 2275 61 
Q 1981 -91 1556 -91 
Q 1019 -91 701 211 
Q 384 513 384 1019 
Q 384 1609 779 1909 
Q 1175 2209 1959 2209 
L 2766 2209 
L 2766 2266 
Q 2766 2663 2505 2880 
Q 2244 3097 1772 3097 
Q 1472 3097 1187 3025 
Q 903 2953 641 2809 
L 641 3341 
Q 956 3463 1253 3523 
Q 1550 3584 1831 3584 
Q 2591 3584 2966 3190 
Q 3341 2797 3341 1997 
z
" transform="scale(0.015625)"/>
     </defs>
     <use xlink:href="#DejaVuSans-30"/>
     <use xlink:href="#DejaVuSans-44" transform="translate(86.28125 0)"/>
     <use xlink:href="#DejaVuSans-5b" transform="translate(147.5625 0)"/>
    </g>
   </g>
   <g id="text_4">
    <!-- Conv -->
    <g style="fill: #1a1a1a" transform="translate(247.268711 156.319207) scale(0.065 -0.065)">
     <use xlink:href="#DejaVuSans-26"/>
     <use xlink:href="#DejaVuSans-52" transform="translate(69.828125 0)"/>
     <use xlink:href="#DejaVuSans-51" transform="translate(131.015625 0)"/>
     <use xlink:href="#DejaVuSans-59" transform="translate(194.390625 0)"/>
    </g>
    <!-- 3x3x16 -->
    <g style="fill: #1a1a1a" transform="translate(243.391562 164.120477) scale(0.065 -0.065)">
     <defs>
      <path id="DejaVuSans-14" d="M 794 531 
L 1825 531 
L 1825 4091 
L 703 3866 
L 703 4441 
L 1819 4666 
L 2450 4666 
L 2450 531 
L 3481 531 
L 3481 0 
L 794 0 
L 794 531 
z
" transform="scale(0.015625)"/>
     </defs>
     <use xlink:href="#DejaVuSans-16"/>
     <use xlink:href="#DejaVuSans-5b" transform="translate(63.625 0)"/>
     <use xlink:href="#DejaVuSans-16" transform="translate(122.8125 0)"/>
     <use xlink:href="#DejaVuSans-5b" transform="translate(186.4375 0)"/>
     <use xlink:href="#DejaVuSans-14" transform="translate(245.625 0)"/>
     <use xlink:href="#DejaVuSans-19" transform="translate(309.25 0)"/>
    </g>
    <!-- ReLU -->
    <g style="fill: #1a1a1a" transform="translate(247.370273 171.921746) scale(0.065 -0.065)">
     <use xlink:href="#DejaVuSans-35"/>
     <use xlink:href="#DejaVuSans-48" transform="translate(65 0)"/>
     <use xlink:href="#DejaVuSans-2f" transform="translate(126.53125 0)"/>
     <use xlink:href="#DejaVuSans-38" transform="translate(177.265625 0)"/>
    </g>
   </g>
   <g id="text_5">
    <!-- Pool -->
    <g style="fill: #1a1a1a" transform="translate(312.956055 156.319461) scale(0.065 -0.065)">
     <use xlink:href="#DejaVuSans-33"/>
     <use xlink:href="#DejaVuSans-52" transform="translate(56.734375 0)"/>
     <use xlink:href="#DejaVuSans-52" transform="translate(117.921875 0)"/>
     <use xlink:href="#DejaVuSans-4f" transform="translate(179.109375 0)"/>
    </g>
    <!-- 2x2 -->
    <g style="fill: #1a1a1a" transform="translate(313.620781 164.12073) scale(0.065 -0.065)">
     <use xlink:href="#DejaVuSans-15"/>
     <use xlink:href="#DejaVuSans-5b" transform="translate(63.625 0)"/>
     <use xlink:href="#DejaVuSans-15" transform="translate(122.8125 0)"/>
    </g>
    <!-- Max -->
    <g style="fill: #1a1a1a" transform="translate(312.960625 171.922) scale(0.065 -0.065)">
     <use xlink:href="#DejaVuSans-30"/>
     <use xlink:href="#DejaVuSans-44" transform="translate(86.28125 0)"/>
     <use xlink:href="#DejaVuSans-5b" transform="translate(147.5625 0)"/>
    </g>
   </g>
   <g id="text_6">
    <!-- Flatten -->
    <g style="fill: #1a1a1a" transform="translate(372.478555 160.220096) scale(0.065 -0.065)">
     <defs>
      <path id="DejaVuSans-29" d="M 628 4666 
L 3309 4666 
L 3309 4134 
L 1259 4134 
L 1259 2759 
L 3109 2759 
L 3109 2228 
L 1259 2228 
L 1259 0 
L 628 0 
L 628 4666 
z
" transform="scale(0.015625)"/>
     </defs>
     <use xlink:href="#DejaVuSans-29"/>
     <use xlink:href="#DejaVuSans-4f" transform="translate(57.515625 0)"/>
     <use xlink:href="#DejaVuSans-44" transform="translate(85.296875 0)"/>
     <use xlink:href="#DejaVuSans-57" transform="translate(146.578125 0)"/>
     <use xlink:href="#DejaVuSans-57" transform="translate(185.78125 0)"/>
     <use xlink:href="#DejaVuSans-48" transform="translate(224.984375 0)"/>
     <use xlink:href="#DejaVuSans-51" transform="translate(286.515625 0)"/>
    </g>
    <!-- 400 -->
    <g style="fill: #1a1a1a" transform="translate(377.646563 168.021365) scale(0.065 -0.065)">
     <defs>
      <path id="DejaVuSans-17" d="M 2419 4116 
L 825 1625 
L 2419 1625 
L 2419 4116 
z
M 2253 4666 
L 3047 4666 
L 3047 1625 
L 3713 1625 
L 3713 1100 
L 3047 1100 
L 3047 0 
L 2419 0 
L 2419 1100 
L 313 1100 
L 313 1709 
L 2253 4666 
z
" transform="scale(0.015625)"/>
      <path id="DejaVuSans-13" d="M 2034 4250 
Q 1547 4250 1301 3770 
Q 1056 3291 1056 2328 
Q 1056 1369 1301 889 
Q 1547 409 2034 409 
Q 2525 409 2770 889 
Q 3016 1369 3016 2328 
Q 3016 3291 2770 3770 
Q 2525 4250 2034 4250 
z
M 2034 4750 
Q 2819 4750 3233 4129 
Q 3647 3509 3647 2328 
Q 3647 1150 3233 529 
Q 2819 -91 2034 -91 
Q 1250 -91 836 529 
Q 422 1150 422 2328 
Q 422 3509 836 4129 
Q 1250 4750 2034 4750 
z
" transform="scale(0.015625)"/>
     </defs>
     <use xlink:href="#DejaVuSans-17"/>
     <use xlink:href="#DejaVuSans-13" transform="translate(63.625 0)"/>
     <use xlink:href="#DejaVuSans-13" transform="translate(127.25 0)"/>
    </g>
   </g>
   <g id="text_7">
    <!-- FC -->
    <g style="fill: #1a1a1a" transform="translate(443.881328 160.219842) scale(0.065 -0.065)">
     <use xlink:href="#DejaVuSans-29"/>
     <use xlink:href="#DejaVuSans-26" transform="translate(57.515625 0)"/>
    </g>
    <!-- 120 -->
    <g style="fill: #1a1a1a" transform="translate(441.816562 168.021111) scale(0.065 -0.065)">
     <use xlink:href="#DejaVuSans-14"/>
     <use xlink:href="#DejaVuSans-15" transform="translate(63.625 0)"/>
     <use xlink:href="#DejaVuSans-13" transform="translate(127.25 0)"/>
    </g>
   </g>
   <g id="text_8">
    <!-- Output -->
    <g style="fill: #1a1a1a" transform="translate(500.90082 160.219842) scale(0.065 -0.065)">
     <defs>
      <path id="DejaVuSans-32" d="M 2522 4238 
Q 1834 4238 1429 3725 
Q 1025 3213 1025 2328 
Q 1025 1447 1429 934 
Q 1834 422 2522 422 
Q 3209 422 3611 934 
Q 4013 1447 4013 2328 
Q 4013 3213 3611 3725 
Q 3209 4238 2522 4238 
z
M 2522 4750 
Q 3503 4750 4090 4092 
Q 4678 3434 4678 2328 
Q 4678 1225 4090 567 
Q 3503 -91 2522 -91 
Q 1538 -91 948 565 
Q 359 1222 359 2328 
Q 359 3434 948 4092 
Q 1538 4750 2522 4750 
z
" transform="scale(0.015625)"/>
     </defs>
     <use xlink:href="#DejaVuSans-32"/>
     <use xlink:href="#DejaVuSans-58" transform="translate(78.71875 0)"/>
     <use xlink:href="#DejaVuSans-57" transform="translate(142.09375 0)"/>
     <use xlink:href="#DejaVuSans-53" transform="translate(181.296875 0)"/>
     <use xlink:href="#DejaVuSans-58" transform="translate(244.78125 0)"/>
     <use xlink:href="#DejaVuSans-57" transform="translate(308.15625 0)"/>
    </g>
    <!-- 10 -->
    <g style="fill: #1a1a1a" transform="translate(508.054375 168.021111) scale(0.065 -0.065)">
     <use xlink:href="#DejaVuSans-14"/>
     <use xlink:href="#DejaVuSans-13" transform="translate(63.625 0)"/>
    </g>
   </g>
   <g id="text_9">
    <!-- ~~ Feature Extraction ~~ -->
    <g style="fill: #999999" transform="translate(121.536875 195.4188) scale(0.08 -0.08)">
     <defs>
      <path id="DejaVuSans-Oblique-61" d="M 4684 2553 
L 4684 1997 
Q 4356 1750 4076 1644 
Q 3797 1538 3494 1538 
Q 3150 1538 2694 1722 
Q 2659 1734 2644 1741 
Q 2622 1750 2575 1766 
Q 2091 1959 1797 1959 
Q 1522 1959 1253 1839 
Q 984 1719 678 1459 
L 678 2016 
Q 1006 2263 1286 2370 
Q 1566 2478 1869 2478 
Q 2213 2478 2672 2291 
Q 2703 2278 2719 2272 
Q 2744 2263 2788 2247 
Q 3272 2053 3566 2053 
Q 3834 2053 4098 2172 
Q 4363 2291 4684 2553 
z
" transform="scale(0.015625)"/>
      <path id="DejaVuSans-Oblique-3" transform="scale(0.015625)"/>
      <path id="DejaVuSans-Oblique-29" d="M 1081 4666 
L 3756 4666 
L 3653 4134 
L 1606 4134 
L 1338 2759 
L 3188 2759 
L 3084 2228 
L 1234 2228 
L 800 0 
L 172 0 
L 1081 4666 
z
" transform="scale(0.015625)"/>
      <path id="DejaVuSans-Oblique-48" d="M 3078 2063 
Q 3088 2113 3092 2166 
Q 3097 2219 3097 2272 
Q 3097 2653 2873 2875 
Q 2650 3097 2266 3097 
Q 1838 3097 1509 2826 
Q 1181 2556 1013 2059 
L 3078 2063 
z
M 3578 1613 
L 903 1613 
Q 884 1494 878 1425 
Q 872 1356 872 1306 
Q 872 872 1139 634 
Q 1406 397 1894 397 
Q 2269 397 2603 481 
Q 2938 566 3225 728 
L 3116 159 
Q 2806 34 2476 -28 
Q 2147 -91 1806 -91 
Q 1078 -91 686 257 
Q 294 606 294 1247 
Q 294 1794 489 2264 
Q 684 2734 1063 3103 
Q 1306 3334 1642 3459 
Q 1978 3584 2356 3584 
Q 2950 3584 3301 3228 
Q 3653 2872 3653 2272 
Q 3653 2128 3634 1964 
Q 3616 1800 3578 1613 
z
" transform="scale(0.015625)"/>
      <path id="DejaVuSans-Oblique-44" d="M 3438 1997 
L 3047 0 
L 2472 0 
L 2578 531 
Q 2325 219 2001 64 
Q 1678 -91 1281 -91 
Q 834 -91 548 182 
Q 263 456 263 884 
Q 263 1497 752 1853 
Q 1241 2209 2100 2209 
L 2900 2209 
L 2931 2363 
Q 2938 2388 2941 2417 
Q 2944 2447 2944 2509 
Q 2944 2788 2717 2942 
Q 2491 3097 2081 3097 
Q 1800 3097 1504 3025 
Q 1209 2953 897 2809 
L 997 3341 
Q 1322 3463 1633 3523 
Q 1944 3584 2234 3584 
Q 2853 3584 3176 3315 
Q 3500 3047 3500 2534 
Q 3500 2431 3484 2292 
Q 3469 2153 3438 1997 
z
M 2816 1759 
L 2241 1759 
Q 1534 1759 1195 1570 
Q 856 1381 856 984 
Q 856 709 1029 553 
Q 1203 397 1509 397 
Q 1978 397 2328 733 
Q 2678 1069 2791 1631 
L 2816 1759 
z
" transform="scale(0.015625)"/>
      <path id="DejaVuSans-Oblique-57" d="M 2706 3500 
L 2619 3053 
L 1472 3053 
L 1100 1153 
Q 1081 1047 1072 975 
Q 1063 903 1063 863 
Q 1063 663 1183 572 
Q 1303 481 1569 481 
L 2150 481 
L 2053 0 
L 1503 0 
Q 991 0 739 200 
Q 488 400 488 806 
Q 488 878 497 964 
Q 506 1050 525 1153 
L 897 3053 
L 409 3053 
L 500 3500 
L 978 3500 
L 1172 4494 
L 1747 4494 
L 1556 3500 
L 2706 3500 
z
" transform="scale(0.015625)"/>
      <path id="DejaVuSans-Oblique-58" d="M 428 1388 
L 838 3500 
L 1416 3500 
L 1006 1409 
Q 975 1256 961 1147 
Q 947 1038 947 966 
Q 947 700 1109 554 
Q 1272 409 1569 409 
Q 2031 409 2368 721 
Q 2706 1034 2809 1563 
L 3194 3500 
L 3769 3500 
L 3091 0 
L 2516 0 
L 2631 550 
Q 2388 244 2052 76 
Q 1716 -91 1338 -91 
Q 878 -91 622 161 
Q 366 413 366 863 
Q 366 956 381 1097 
Q 397 1238 428 1388 
z
" transform="scale(0.015625)"/>
      <path id="DejaVuSans-Oblique-55" d="M 2853 2969 
Q 2766 3016 2653 3041 
Q 2541 3066 2413 3066 
Q 1953 3066 1609 2717 
Q 1266 2369 1153 1784 
L 800 0 
L 225 0 
L 909 3500 
L 1484 3500 
L 1375 2956 
Q 1603 3259 1920 3421 
Q 2238 3584 2597 3584 
Q 2691 3584 2781 3573 
Q 2872 3563 2963 3538 
L 2853 2969 
z
" transform="scale(0.015625)"/>
      <path id="DejaVuSans-Oblique-28" d="M 1081 4666 
L 4031 4666 
L 3928 4134 
L 1606 4134 
L 1338 2753 
L 3566 2753 
L 3463 2222 
L 1234 2222 
L 909 531 
L 3284 531 
L 3181 0 
L 172 0 
L 1081 4666 
z
" transform="scale(0.015625)"/>
      <path id="DejaVuSans-Oblique-5b" d="M 3841 3500 
L 2234 1784 
L 3219 0 
L 2559 0 
L 1819 1388 
L 531 0 
L -166 0 
L 1556 1844 
L 641 3500 
L 1300 3500 
L 1972 2234 
L 3144 3500 
L 3841 3500 
z
" transform="scale(0.015625)"/>
      <path id="DejaVuSans-Oblique-46" d="M 3431 3366 
L 3316 2797 
Q 3109 2947 2876 3022 
Q 2644 3097 2394 3097 
Q 2119 3097 1870 3000 
Q 1622 2903 1453 2725 
Q 1184 2453 1037 2087 
Q 891 1722 891 1331 
Q 891 859 1127 628 
Q 1363 397 1844 397 
Q 2081 397 2348 469 
Q 2616 541 2906 684 
L 2797 116 
Q 2547 13 2283 -39 
Q 2019 -91 1741 -91 
Q 1044 -91 669 257 
Q 294 606 294 1253 
Q 294 1797 489 2255 
Q 684 2713 1069 3078 
Q 1331 3328 1684 3456 
Q 2038 3584 2456 3584 
Q 2700 3584 2940 3529 
Q 3181 3475 3431 3366 
z
" transform="scale(0.015625)"/>
      <path id="DejaVuSans-Oblique-4c" d="M 1172 4863 
L 1747 4863 
L 1606 4134 
L 1031 4134 
L 1172 4863 
z
M 909 3500 
L 1484 3500 
L 800 0 
L 225 0 
L 909 3500 
z
" transform="scale(0.015625)"/>
      <path id="DejaVuSans-Oblique-52" d="M 1625 -91 
Q 1009 -91 651 289 
Q 294 669 294 1325 
Q 294 1706 417 2101 
Q 541 2497 738 2766 
Q 1047 3184 1428 3384 
Q 1809 3584 2291 3584 
Q 2888 3584 3255 3212 
Q 3622 2841 3622 2241 
Q 3622 1825 3500 1412 
Q 3378 1000 3181 728 
Q 2875 309 2494 109 
Q 2113 -91 1625 -91 
z
M 891 1344 
Q 891 869 1089 633 
Q 1288 397 1691 397 
Q 2269 397 2648 901 
Q 3028 1406 3028 2181 
Q 3028 2634 2825 2865 
Q 2622 3097 2228 3097 
Q 1903 3097 1650 2945 
Q 1397 2794 1197 2484 
Q 1050 2253 970 1956 
Q 891 1659 891 1344 
z
" transform="scale(0.015625)"/>
      <path id="DejaVuSans-Oblique-51" d="M 3566 2113 
L 3156 0 
L 2578 0 
L 2988 2091 
Q 3016 2238 3031 2350 
Q 3047 2463 3047 2528 
Q 3047 2791 2881 2937 
Q 2716 3084 2419 3084 
Q 1956 3084 1622 2776 
Q 1288 2469 1184 1941 
L 800 0 
L 225 0 
L 903 3500 
L 1478 3500 
L 1363 2950 
Q 1603 3253 1940 3418 
Q 2278 3584 2650 3584 
Q 3113 3584 3367 3334 
Q 3622 3084 3622 2631 
Q 3622 2519 3608 2391 
Q 3594 2263 3566 2113 
z
" transform="scale(0.015625)"/>
     </defs>
     <use xlink:href="#DejaVuSans-Oblique-61"/>
     <use xlink:href="#DejaVuSans-Oblique-61" transform="translate(83.796875 0)"/>
     <use xlink:href="#DejaVuSans-Oblique-3" transform="translate(167.59375 0)"/>
     <use xlink:href="#DejaVuSans-Oblique-29" transform="translate(199.375 0)"/>
     <use xlink:href="#DejaVuSans-Oblique-48" transform="translate(256.890625 0)"/>
     <use xlink:href="#DejaVuSans-Oblique-44" transform="translate(318.421875 0)"/>
     <use xlink:href="#DejaVuSans-Oblique-57" transform="translate(379.703125 0)"/>
     <use xlink:href="#DejaVuSans-Oblique-58" transform="translate(418.90625 0)"/>
     <use xlink:href="#DejaVuSans-Oblique-55" transform="translate(482.28125 0)"/>
     <use xlink:href="#DejaVuSans-Oblique-48" transform="translate(523.390625 0)"/>
     <use xlink:href="#DejaVuSans-Oblique-3" transform="translate(584.921875 0)"/>
     <use xlink:href="#DejaVuSans-Oblique-28" transform="translate(616.703125 0)"/>
     <use xlink:href="#DejaVuSans-Oblique-5b" transform="translate(679.890625 0)"/>
     <use xlink:href="#DejaVuSans-Oblique-57" transform="translate(739.078125 0)"/>
     <use xlink:href="#DejaVuSans-Oblique-55" transform="translate(778.28125 0)"/>
     <use xlink:href="#DejaVuSans-Oblique-44" transform="translate(819.390625 0)"/>
     <use xlink:href="#DejaVuSans-Oblique-46" transform="translate(880.671875 0)"/>
     <use xlink:href="#DejaVuSans-Oblique-57" transform="translate(935.65625 0)"/>
     <use xlink:href="#DejaVuSans-Oblique-4c" transform="translate(974.859375 0)"/>
     <use xlink:href="#DejaVuSans-Oblique-52" transform="translate(1002.640625 0)"/>
     <use xlink:href="#DejaVuSans-Oblique-51" transform="translate(1063.828125 0)"/>
     <use xlink:href="#DejaVuSans-Oblique-3" transform="translate(1127.203125 0)"/>
     <use xlink:href="#DejaVuSans-Oblique-61" transform="translate(1158.984375 0)"/>
     <use xlink:href="#DejaVuSans-Oblique-61" transform="translate(1242.78125 0)"/>
    </g>
   </g>
   <g id="text_10">
    <!-- ~~ Classification ~~ -->
    <g style="fill: #999999" transform="translate(383.219375 195.4188) scale(0.08 -0.08)">
     <defs>
      <path id="DejaVuSans-Oblique-26" d="M 4447 4306 
L 4319 3641 
Q 4019 3944 3683 4091 
Q 3347 4238 2956 4238 
Q 2422 4238 2017 3981 
Q 1613 3725 1319 3200 
Q 1131 2863 1032 2486 
Q 934 2109 934 1728 
Q 934 1091 1264 756 
Q 1594 422 2222 422 
Q 2656 422 3056 561 
Q 3456 700 3834 978 
L 3688 231 
Q 3316 72 2936 -9 
Q 2556 -91 2175 -91 
Q 1278 -91 773 396 
Q 269 884 269 1753 
Q 269 2309 461 2846 
Q 653 3384 1013 3828 
Q 1394 4300 1883 4525 
Q 2372 4750 3022 4750 
Q 3422 4750 3780 4639 
Q 4138 4528 4447 4306 
z
" transform="scale(0.015625)"/>
      <path id="DejaVuSans-Oblique-4f" d="M 1172 4863 
L 1747 4863 
L 800 0 
L 225 0 
L 1172 4863 
z
" transform="scale(0.015625)"/>
      <path id="DejaVuSans-Oblique-56" d="M 3200 3397 
L 3091 2853 
Q 2863 2978 2609 3040 
Q 2356 3103 2088 3103 
Q 1634 3103 1373 2948 
Q 1113 2794 1113 2528 
Q 1113 2219 1719 2053 
Q 1766 2041 1788 2034 
L 1972 1978 
Q 2547 1819 2739 1644 
Q 2931 1469 2931 1166 
Q 2931 609 2489 259 
Q 2047 -91 1331 -91 
Q 1053 -91 747 -37 
Q 441 16 72 128 
L 184 722 
Q 500 559 806 475 
Q 1113 391 1394 391 
Q 1816 391 2080 572 
Q 2344 753 2344 1031 
Q 2344 1331 1650 1516 
L 1591 1531 
L 1394 1581 
Q 956 1697 753 1886 
Q 550 2075 550 2369 
Q 550 2928 970 3256 
Q 1391 3584 2113 3584 
Q 2397 3584 2667 3537 
Q 2938 3491 3200 3397 
z
" transform="scale(0.015625)"/>
      <path id="DejaVuSans-Oblique-127c" d="M 3525 4863 
L 4103 4863 
L 3963 4134 
L 3384 4134 
L 3525 4863 
z
M 3059 4863 
L 2969 4384 
L 2419 4384 
Q 2106 4384 1964 4261 
Q 1822 4138 1753 3809 
L 1691 3500 
L 3841 3500 
L 3156 0 
L 2578 0 
L 3188 3056 
L 1606 3056 
L 1013 0 
L 434 0 
L 1031 3053 
L 481 3053 
L 563 3500 
L 1113 3500 
L 1159 3744 
Q 1278 4363 1575 4613 
Q 1875 4863 2516 4863 
L 3059 4863 
z
" transform="scale(0.015625)"/>
     </defs>
     <use xlink:href="#DejaVuSans-Oblique-61"/>
     <use xlink:href="#DejaVuSans-Oblique-61" transform="translate(83.796875 0)"/>
     <use xlink:href="#DejaVuSans-Oblique-3" transform="translate(167.59375 0)"/>
     <use xlink:href="#DejaVuSans-Oblique-26" transform="translate(199.375 0)"/>
     <use xlink:href="#DejaVuSans-Oblique-4f" transform="translate(269.203125 0)"/>
     <use xlink:href="#DejaVuSans-Oblique-44" transform="translate(296.984375 0)"/>
     <use xlink:href="#DejaVuSans-Oblique-56" transform="translate(358.265625 0)"/>
     <use xlink:href="#DejaVuSans-Oblique-56" transform="translate(410.359375 0)"/>
     <use xlink:href="#DejaVuSans-Oblique-4c" transform="translate(462.453125 0)"/>
     <use xlink:href="#DejaVuSans-Oblique-127c" transform="translate(490.234375 0)"/>
     <use xlink:href="#DejaVuSans-Oblique-46" transform="translate(554.828125 0)"/>
     <use xlink:href="#DejaVuSans-Oblique-44" transform="translate(609.8125 0)"/>
     <use xlink:href="#DejaVuSans-Oblique-57" transform="translate(671.09375 0)"/>
     <use xlink:href="#DejaVuSans-Oblique-4c" transform="translate(710.296875 0)"/>
     <use xlink:href="#DejaVuSans-Oblique-52" transform="translate(738.078125 0)"/>
     <use xlink:href="#DejaVuSans-Oblique-51" transform="translate(799.265625 0)"/>
     <use xlink:href="#DejaVuSans-Oblique-3" transform="translate(862.640625 0)"/>
     <use xlink:href="#DejaVuSans-Oblique-61" transform="translate(894.421875 0)"/>
     <use xlink:href="#DejaVuSans-Oblique-61" transform="translate(978.21875 0)"/>
    </g>
   </g>
  </g>
 </g>
 <defs>
  <clipPath id="p48848e26f2">
   <rect x="7.2" y="7.2" width="558" height="194.04"/>
  </clipPath>
 </defs>
</svg>
