<?xml version="1.0" encoding="utf-8" standalone="no"?>
<!DOCTYPE svg PUBLIC "-//W3C//DTD SVG 1.1//EN"
  "http://www.w3.org/Graphics/SVG/1.1/DTD/svg11.dtd">
<svg xmlns:xlink="http://www.w3.org/1999/xlink" width="460.8pt" height="180.978675pt" viewBox="0 0 460.8 180.978675" xmlns="http://www.w3.org/2000/svg" version="1.1">
 <metadata>
  <rdf:RDF xmlns:dc="http://purl.org/dc/elements/1.1/" xmlns:cc="http://creativecommons.org/ns#" xmlns:rdf="http://www.w3.org/1999/02/22-rdf-syntax-ns#">
   <cc:Work>
    <dc:type rdf:resource="http://purl.org/dc/dcmitype/StillImage"/>
    <dc:date>2026-07-06T17:32:29.164570</dc:date>
    <dc:format>image/svg+xml</dc:format>
    <dc:creator>
     <cc:Agent>
      <dc:title>Matplotlib v3.11.0, https://matplotlib.org/</dc:title>
     </cc:Agent>
    </dc:creator>
   </cc:Work>
  </rdf:RDF>
 </metadata>
 <defs>
  <style type="text/css">*{stroke-linejoin: round; stroke-linecap: butt}</style>
 </defs>
 <g id="figure_1">
  <g id="patch_1">
   <path d="M 0 180.978675 
L 460.8 180.978675 
L 460.8 0 
L 0 0 
L 0 180.978675 
z
" style="fill: none"/>
  </g>
  <g id="axes_1">
   <g id="patch_2">
    <path d="M 88.087658 140.256 
Q 94.246613 140.256 98.169499 140.256 
" style="fill: none; stroke: #888888; stroke-width: 2; stroke-linecap: round"/>
    <path d="M 94.169499 138.256 
L 98.169499 140.256 
L 94.169499 142.256 
" style="fill: none; stroke: #888888; stroke-width: 2; stroke-linecap: round"/>
   </g>
   <g id="patch_3">
    <path d="M 177.367658 140.256 
Q 183.526613 140.256 187.449499 140.256 
" style="fill: none; stroke: #888888; stroke-width: 2; stroke-linecap: round"/>
    <path d="M 183.449499 138.256 
L 187.449499 140.256 
L 183.449499 142.256 
" style="fill: none; stroke: #888888; stroke-width: 2; stroke-linecap: round"/>
   </g>
   <g id="patch_4">
    <path d="M 266.647658 140.256 
Q 272.806613 140.256 276.729499 140.256 
" style="fill: none; stroke: #888888; stroke-width: 2; stroke-linecap: round"/>
    <path d="M 272.729499 138.256 
L 276.729499 140.256 
L 272.729499 142.256 
" style="fill: none; stroke: #888888; stroke-width: 2; stroke-linecap: round"/>
   </g>
   <g id="patch_5">
    <path d="M 27.288 146.0772 
L 76.392 146.0772 
Q 78.624 146.0772 78.624 145.2456 
L 78.624 135.2664 
Q 78.624 134.4348 76.392 134.4348 
L 27.288 134.4348 
Q 25.056 134.4348 25.056 135.2664 
L 25.056 145.2456 
Q 25.056 146.0772 27.288 146.0772 
z
" clip-path="url(#p402f0685df)" style="fill: #e0e0e0; stroke: #555555; stroke-width: 1.5; stroke-linejoin: miter"/>
   </g>
   <g id="patch_6">
    <path d="M 109.872 146.0772 
L 172.368 146.0772 
Q 174.6 146.0772 174.6 145.2456 
L 174.6 135.2664 
Q 174.6 134.4348 172.368 134.4348 
L 109.872 134.4348 
Q 107.64 134.4348 107.64 135.2664 
L 107.64 145.2456 
Q 107.64 146.0772 109.872 146.0772 
z
" clip-path="url(#p402f0685df)" style="fill: #e8f4f8; stroke: #555555; stroke-width: 1.5; stroke-linejoin: miter"/>
   </g>
   <g id="patch_7">
    <path d="M 199.152 146.0772 
L 261.648 146.0772 
Q 263.88 146.0772 263.88 145.2456 
L 263.88 135.2664 
Q 263.88 134.4348 261.648 134.4348 
L 199.152 134.4348 
Q 196.92 134.4348 196.92 135.2664 
L 196.92 145.2456 
Q 196.92 146.0772 199.152 146.0772 
z
" clip-path="url(#p402f0685df)" style="fill: #e8f4f8; stroke: #555555; stroke-width: 1.5; stroke-linejoin: miter"/>
   </g>
   <g id="patch_8">
    <path d="M 288.432 146.0772 
L 350.928 146.0772 
Q 353.16 146.0772 353.16 145.2456 
L 353.16 135.2664 
Q 353.16 134.4348 350.928 134.4348 
L 288.432 134.4348 
Q 286.2 134.4348 286.2 135.2664 
L 286.2 145.2456 
Q 286.2 146.0772 288.432 146.0772 
z
" clip-path="url(#p402f0685df)" style="fill: #e8f4f8; stroke: #555555; stroke-width: 1.5; stroke-linejoin: miter"/>
   </g>
   <g id="text_1">
    <!-- x -->
    <g style="fill: #1a1a1a" transform="translate(48.880625 142.853656) scale(0.1 -0.1)">
     <defs>
      <path id="DejaVuSans-5b" d="M 3513 3500 
L 2247 1797 
L 3578 0 
L 2900 0 
L 1881 1375 
L 863 0 
L 184 0 
L 1544 1831 
L 300 3500 
L 978 3500 
L 1906 2253 
L 2834 3500 
L 3513 3500 
z
" transform="scale(0.015625)"/>
     </defs>
     <use xlink:href="#DejaVuSans-5b"/>
    </g>
   </g>
   <g id="text_2">
    <!-- Layer 1 -->
    <g style="fill: #1a1a1a" transform="translate(124.279453 142.593891) scale(0.09 -0.09)">
     <defs>
      <path id="DejaVuSans-2f" d="M 628 4666 
L 1259 4666 
L 1259 531 
L 3531 531 
L 3531 0 
L 628 0 
L 628 4666 
z
" transform="scale(0.015625)"/>
      <path id="DejaVuSans-44" d="M 2194 1759 
Q 1497 1759 1228 1600 
Q 959 1441 959 1056 
Q 959 750 1161 570 
Q 1363 391 1709 391 
Q 2188 391 2477 730 
Q 2766 1069 2766 1631 
L 2766 1759 
L 2194 1759 
z
M 3341 1997 
L 3341 0 
L 2766 0 
L 2766 531 
Q 2569 213 2275 61 
Q 1981 -91 1556 -91 
Q 1019 -91 701 211 
Q 384 513 384 1019 
Q 384 1609 779 1909 
Q 1175 2209 1959 2209 
L 2766 2209 
L 2766 2266 
Q 2766 2663 2505 2880 
Q 2244 3097 1772 3097 
Q 1472 3097 1187 3025 
Q 903 2953 641 2809 
L 641 3341 
Q 956 3463 1253 3523 
Q 1550 3584 1831 3584 
Q 2591 3584 2966 3190 
Q 3341 2797 3341 1997 
z
" transform="scale(0.015625)"/>
      <path id="DejaVuSans-5c" d="M 2059 -325 
Q 1816 -950 1584 -1140 
Q 1353 -1331 966 -1331 
L 506 -1331 
L 506 -850 
L 844 -850 
Q 1081 -850 1212 -737 
Q 1344 -625 1503 -206 
L 1606 56 
L 191 3500 
L 800 3500 
L 1894 763 
L 2988 3500 
L 3597 3500 
L 2059 -325 
z
" transform="scale(0.015625)"/>
      <path id="DejaVuSans-48" d="M 3597 1894 
L 3597 1613 
L 953 1613 
Q 991 1019 1311 708 
Q 1631 397 2203 397 
Q 2534 397 2845 478 
Q 3156 559 3463 722 
L 3463 178 
Q 3153 47 2828 -22 
Q 2503 -91 2169 -91 
Q 1331 -91 842 396 
Q 353 884 353 1716 
Q 353 2575 817 3079 
Q 1281 3584 2069 3584 
Q 2775 3584 3186 3129 
Q 3597 2675 3597 1894 
z
M 3022 2063 
Q 3016 2534 2758 2815 
Q 2500 3097 2075 3097 
Q 1594 3097 1305 2825 
Q 1016 2553 972 2059 
L 3022 2063 
z
" transform="scale(0.015625)"/>
      <path id="DejaVuSans-55" d="M 2631 2963 
Q 2534 3019 2420 3045 
Q 2306 3072 2169 3072 
Q 1681 3072 1420 2755 
Q 1159 2438 1159 1844 
L 1159 0 
L 581 0 
L 581 3500 
L 1159 3500 
L 1159 2956 
Q 1341 3275 1631 3429 
Q 1922 3584 2338 3584 
Q 2397 3584 2469 3576 
Q 2541 3569 2628 3553 
L 2631 2963 
z
" transform="scale(0.015625)"/>
      <path id="DejaVuSans-3" transform="scale(0.015625)"/>
      <path id="DejaVuSans-14" d="M 794 531 
L 1825 531 
L 1825 4091 
L 703 3866 
L 703 4441 
L 1819 4666 
L 2450 4666 
L 2450 531 
L 3481 531 
L 3481 0 
L 794 0 
L 794 531 
z
" transform="scale(0.015625)"/>
     </defs>
     <use xlink:href="#DejaVuSans-2f"/>
     <use xlink:href="#DejaVuSans-44" transform="translate(55.71875 0)"/>
     <use xlink:href="#DejaVuSans-5c" transform="translate(117 0)"/>
     <use xlink:href="#DejaVuSans-48" transform="translate(176.1875 0)"/>
     <use xlink:href="#DejaVuSans-55" transform="translate(237.71875 0)"/>
     <use xlink:href="#DejaVuSans-3" transform="translate(278.828125 0)"/>
     <use xlink:href="#DejaVuSans-14" transform="translate(310.609375 0)"/>
    </g>
   </g>
   <g id="text_3">
    <!-- Layer 2 -->
    <g style="fill: #1a1a1a" transform="translate(213.559453 142.593891) scale(0.09 -0.09)">
     <defs>
      <path id="DejaVuSans-15" d="M 1228 531 
L 3431 531 
L 3431 0 
L 469 0 
L 469 531 
Q 828 903 1448 1529 
Q 2069 2156 2228 2338 
Q 2531 2678 2651 2914 
Q 2772 3150 2772 3378 
Q 2772 3750 2511 3984 
Q 2250 4219 1831 4219 
Q 1534 4219 1204 4116 
Q 875 4013 500 3803 
L 500 4441 
Q 881 4594 1212 4672 
Q 1544 4750 1819 4750 
Q 2544 4750 2975 4387 
Q 3406 4025 3406 3419 
Q 3406 3131 3298 2873 
Q 3191 2616 2906 2266 
Q 2828 2175 2409 1742 
Q 1991 1309 1228 531 
z
" transform="scale(0.015625)"/>
     </defs>
     <use xlink:href="#DejaVuSans-2f"/>
     <use xlink:href="#DejaVuSans-44" transform="translate(55.71875 0)"/>
     <use xlink:href="#DejaVuSans-5c" transform="translate(117 0)"/>
     <use xlink:href="#DejaVuSans-48" transform="translate(176.1875 0)"/>
     <use xlink:href="#DejaVuSans-55" transform="translate(237.71875 0)"/>
     <use xlink:href="#DejaVuSans-3" transform="translate(278.828125 0)"/>
     <use xlink:href="#DejaVuSans-15" transform="translate(310.609375 0)"/>
    </g>
   </g>
   <g id="text_4">
    <!-- Loss -->
    <g style="fill: #1a1a1a" transform="translate(309.809531 142.593891) scale(0.09 -0.09)">
     <defs>
      <path id="DejaVuSans-52" d="M 1959 3097 
Q 1497 3097 1228 2736 
Q 959 2375 959 1747 
Q 959 1119 1226 758 
Q 1494 397 1959 397 
Q 2419 397 2687 759 
Q 2956 1122 2956 1747 
Q 2956 2369 2687 2733 
Q 2419 3097 1959 3097 
z
M 1959 3584 
Q 2709 3584 3137 3096 
Q 3566 2609 3566 1747 
Q 3566 888 3137 398 
Q 2709 -91 1959 -91 
Q 1206 -91 779 398 
Q 353 888 353 1747 
Q 353 2609 779 3096 
Q 1206 3584 1959 3584 
z
" transform="scale(0.015625)"/>
      <path id="DejaVuSans-56" d="M 2834 3397 
L 2834 2853 
Q 2591 2978 2328 3040 
Q 2066 3103 1784 3103 
Q 1356 3103 1142 2972 
Q 928 2841 928 2578 
Q 928 2378 1081 2264 
Q 1234 2150 1697 2047 
L 1894 2003 
Q 2506 1872 2764 1633 
Q 3022 1394 3022 966 
Q 3022 478 2636 193 
Q 2250 -91 1575 -91 
Q 1294 -91 989 -36 
Q 684 19 347 128 
L 347 722 
Q 666 556 975 473 
Q 1284 391 1588 391 
Q 1994 391 2212 530 
Q 2431 669 2431 922 
Q 2431 1156 2273 1281 
Q 2116 1406 1581 1522 
L 1381 1569 
Q 847 1681 609 1914 
Q 372 2147 372 2553 
Q 372 3047 722 3315 
Q 1072 3584 1716 3584 
Q 2034 3584 2315 3537 
Q 2597 3491 2834 3397 
z
" transform="scale(0.015625)"/>
     </defs>
     <use xlink:href="#DejaVuSans-2f"/>
     <use xlink:href="#DejaVuSans-52" transform="translate(53.96875 0)"/>
     <use xlink:href="#DejaVuSans-56" transform="translate(115.15625 0)"/>
     <use xlink:href="#DejaVuSans-56" transform="translate(167.25 0)"/>
    </g>
   </g>
   <g id="patch_9">
    <path d="M 139.117412 151.8984 
Q 96.478849 151.8984 56.076353 151.8984 
" style="fill: none; stroke-dasharray: 7.4,3.2; stroke-dashoffset: 0; stroke: #e74c3c; stroke-width: 2; stroke-linecap: round"/>
    <path d="M 60.076353 153.8984 
L 56.076353 151.8984 
L 60.076353 149.8984 
" style="fill: none; stroke-dasharray: 7.4,3.2; stroke-dashoffset: 0; stroke: #e74c3c; stroke-width: 2; stroke-linecap: round"/>
   </g>
   <g id="patch_10">
    <path d="M 228.397412 151.8984 
Q 185.758849 151.8984 145.356353 151.8984 
" style="fill: none; stroke-dasharray: 7.4,3.2; stroke-dashoffset: 0; stroke: #e74c3c; stroke-width: 2; stroke-linecap: round"/>
    <path d="M 149.356353 153.8984 
L 145.356353 151.8984 
L 149.356353 149.8984 
" style="fill: none; stroke-dasharray: 7.4,3.2; stroke-dashoffset: 0; stroke: #e74c3c; stroke-width: 2; stroke-linecap: round"/>
   </g>
   <g id="patch_11">
    <path d="M 317.677412 151.8984 
Q 275.038849 151.8984 234.636353 151.8984 
" style="fill: none; stroke-dasharray: 7.4,3.2; stroke-dashoffset: 0; stroke: #e74c3c; stroke-width: 2; stroke-linecap: round"/>
    <path d="M 238.636353 153.8984 
L 234.636353 151.8984 
L 238.636353 149.8984 
" style="fill: none; stroke-dasharray: 7.4,3.2; stroke-dashoffset: 0; stroke: #e74c3c; stroke-width: 2; stroke-linecap: round"/>
   </g>
   <g id="text_5">
    <!-- Forward (black) →  Backward (red, dashed) ← -->
    <g style="fill: #555555" transform="translate(83.908828 165.204) scale(0.09 -0.09)">
     <defs>
      <path id="DejaVuSans-29" d="M 628 4666 
L 3309 4666 
L 3309 4134 
L 1259 4134 
L 1259 2759 
L 3109 2759 
L 3109 2228 
L 1259 2228 
L 1259 0 
L 628 0 
L 628 4666 
z
" transform="scale(0.015625)"/>
      <path id="DejaVuSans-5a" d="M 269 3500 
L 844 3500 
L 1563 769 
L 2278 3500 
L 2956 3500 
L 3675 769 
L 4391 3500 
L 4966 3500 
L 4050 0 
L 3372 0 
L 2619 2869 
L 1863 0 
L 1184 0 
L 269 3500 
z
" transform="scale(0.015625)"/>
      <path id="DejaVuSans-47" d="M 2906 2969 
L 2906 4863 
L 3481 4863 
L 3481 0 
L 2906 0 
L 2906 525 
Q 2725 213 2448 61 
Q 2172 -91 1784 -91 
Q 1150 -91 751 415 
Q 353 922 353 1747 
Q 353 2572 751 3078 
Q 1150 3584 1784 3584 
Q 2172 3584 2448 3432 
Q 2725 3281 2906 2969 
z
M 947 1747 
Q 947 1113 1208 752 
Q 1469 391 1925 391 
Q 2381 391 2643 752 
Q 2906 1113 2906 1747 
Q 2906 2381 2643 2742 
Q 2381 3103 1925 3103 
Q 1469 3103 1208 2742 
Q 947 2381 947 1747 
z
" transform="scale(0.015625)"/>
      <path id="DejaVuSans-b" d="M 1984 4856 
Q 1566 4138 1362 3434 
Q 1159 2731 1159 2009 
Q 1159 1288 1364 580 
Q 1569 -128 1984 -844 
L 1484 -844 
Q 1016 -109 783 600 
Q 550 1309 550 2009 
Q 550 2706 781 3412 
Q 1013 4119 1484 4856 
L 1984 4856 
z
" transform="scale(0.015625)"/>
      <path id="DejaVuSans-45" d="M 3116 1747 
Q 3116 2381 2855 2742 
Q 2594 3103 2138 3103 
Q 1681 3103 1420 2742 
Q 1159 2381 1159 1747 
Q 1159 1113 1420 752 
Q 1681 391 2138 391 
Q 2594 391 2855 752 
Q 3116 1113 3116 1747 
z
M 1159 2969 
Q 1341 3281 1617 3432 
Q 1894 3584 2278 3584 
Q 2916 3584 3314 3078 
Q 3713 2572 3713 1747 
Q 3713 922 3314 415 
Q 2916 -91 2278 -91 
Q 1894 -91 1617 61 
Q 1341 213 1159 525 
L 1159 0 
L 581 0 
L 581 4863 
L 1159 4863 
L 1159 2969 
z
" transform="scale(0.015625)"/>
      <path id="DejaVuSans-4f" d="M 603 4863 
L 1178 4863 
L 1178 0 
L 603 0 
L 603 4863 
z
" transform="scale(0.015625)"/>
      <path id="DejaVuSans-46" d="M 3122 3366 
L 3122 2828 
Q 2878 2963 2633 3030 
Q 2388 3097 2138 3097 
Q 1578 3097 1268 2742 
Q 959 2388 959 1747 
Q 959 1106 1268 751 
Q 1578 397 2138 397 
Q 2388 397 2633 464 
Q 2878 531 3122 666 
L 3122 134 
Q 2881 22 2623 -34 
Q 2366 -91 2075 -91 
Q 1284 -91 818 406 
Q 353 903 353 1747 
Q 353 2603 823 3093 
Q 1294 3584 2113 3584 
Q 2378 3584 2631 3529 
Q 2884 3475 3122 3366 
z
" transform="scale(0.015625)"/>
      <path id="DejaVuSans-4e" d="M 581 4863 
L 1159 4863 
L 1159 1991 
L 2875 3500 
L 3609 3500 
L 1753 1863 
L 3688 0 
L 2938 0 
L 1159 1709 
L 1159 0 
L 581 0 
L 581 4863 
z
" transform="scale(0.015625)"/>
      <path id="DejaVuSans-c" d="M 513 4856 
L 1013 4856 
Q 1481 4119 1714 3412 
Q 1947 2706 1947 2009 
Q 1947 1309 1714 600 
Q 1481 -109 1013 -844 
L 513 -844 
Q 928 -128 1133 580 
Q 1338 1288 1338 2009 
Q 1338 2731 1133 3434 
Q 928 4138 513 4856 
z
" transform="scale(0.015625)"/>
      <path id="DejaVuSans-c1c" d="M 5050 2147 
L 5050 1866 
L 3822 638 
L 3447 1013 
L 4175 1741 
L 366 1741 
L 366 2272 
L 4175 2272 
L 3447 3000 
L 3822 3375 
L 5050 2147 
z
" transform="scale(0.015625)"/>
      <path id="DejaVuSans-25" d="M 1259 2228 
L 1259 519 
L 2272 519 
Q 2781 519 3026 730 
Q 3272 941 3272 1375 
Q 3272 1813 3026 2020 
Q 2781 2228 2272 2228 
L 1259 2228 
z
M 1259 4147 
L 1259 2741 
L 2194 2741 
Q 2656 2741 2882 2914 
Q 3109 3088 3109 3444 
Q 3109 3797 2882 3972 
Q 2656 4147 2194 4147 
L 1259 4147 
z
M 628 4666 
L 2241 4666 
Q 2963 4666 3353 4366 
Q 3744 4066 3744 3513 
Q 3744 3084 3544 2831 
Q 3344 2578 2956 2516 
Q 3422 2416 3680 2098 
Q 3938 1781 3938 1306 
Q 3938 681 3513 340 
Q 3088 0 2303 0 
L 628 0 
L 628 4666 
z
" transform="scale(0.015625)"/>
      <path id="DejaVuSans-f" d="M 750 794 
L 1409 794 
L 1409 256 
L 897 -744 
L 494 -744 
L 750 256 
L 750 794 
z
" transform="scale(0.015625)"/>
      <path id="DejaVuSans-4b" d="M 3513 2113 
L 3513 0 
L 2938 0 
L 2938 2094 
Q 2938 2591 2744 2837 
Q 2550 3084 2163 3084 
Q 1697 3084 1428 2787 
Q 1159 2491 1159 1978 
L 1159 0 
L 581 0 
L 581 4863 
L 1159 4863 
L 1159 2956 
Q 1366 3272 1645 3428 
Q 1925 3584 2291 3584 
Q 2894 3584 3203 3211 
Q 3513 2838 3513 2113 
z
" transform="scale(0.015625)"/>
      <path id="DejaVuSans-c1a" d="M 313 1866 
L 313 2147 
L 1541 3375 
L 1916 3000 
L 1188 2272 
L 4997 2272 
L 4997 1741 
L 1188 1741 
L 1916 1013 
L 1541 638 
L 313 1866 
z
" transform="scale(0.015625)"/>
     </defs>
     <use xlink:href="#DejaVuSans-29"/>
     <use xlink:href="#DejaVuSans-52" transform="translate(53.953125 0)"/>
     <use xlink:href="#DejaVuSans-55" transform="translate(115.140625 0)"/>
     <use xlink:href="#DejaVuSans-5a" transform="translate(156.25 0)"/>
     <use xlink:href="#DejaVuSans-44" transform="translate(238.03125 0)"/>
     <use xlink:href="#DejaVuSans-55" transform="translate(299.3125 0)"/>
     <use xlink:href="#DejaVuSans-47" transform="translate(338.671875 0)"/>
     <use xlink:href="#DejaVuSans-3" transform="translate(402.15625 0)"/>
     <use xlink:href="#DejaVuSans-b" transform="translate(433.9375 0)"/>
     <use xlink:href="#DejaVuSans-45" transform="translate(472.953125 0)"/>
     <use xlink:href="#DejaVuSans-4f" transform="translate(536.4375 0)"/>
     <use xlink:href="#DejaVuSans-44" transform="translate(564.21875 0)"/>
     <use xlink:href="#DejaVuSans-46" transform="translate(625.5 0)"/>
     <use xlink:href="#DejaVuSans-4e" transform="translate(680.484375 0)"/>
     <use xlink:href="#DejaVuSans-c" transform="translate(738.390625 0)"/>
     <use xlink:href="#DejaVuSans-3" transform="translate(777.40625 0)"/>
     <use xlink:href="#DejaVuSans-c1c" transform="translate(809.1875 0)"/>
     <use xlink:href="#DejaVuSans-3" transform="translate(892.984375 0)"/>
     <use xlink:href="#DejaVuSans-3" transform="translate(924.765625 0)"/>
     <use xlink:href="#DejaVuSans-25" transform="translate(956.546875 0)"/>
     <use xlink:href="#DejaVuSans-44" transform="translate(1025.15625 0)"/>
     <use xlink:href="#DejaVuSans-46" transform="translate(1086.4375 0)"/>
     <use xlink:href="#DejaVuSans-4e" transform="translate(1141.421875 0)"/>
     <use xlink:href="#DejaVuSans-5a" transform="translate(1199.328125 0)"/>
     <use xlink:href="#DejaVuSans-44" transform="translate(1281.109375 0)"/>
     <use xlink:href="#DejaVuSans-55" transform="translate(1342.390625 0)"/>
     <use xlink:href="#DejaVuSans-47" transform="translate(1381.75 0)"/>
     <use xlink:href="#DejaVuSans-3" transform="translate(1445.234375 0)"/>
     <use xlink:href="#DejaVuSans-b" transform="translate(1477.015625 0)"/>
     <use xlink:href="#DejaVuSans-55" transform="translate(1516.03125 0)"/>
     <use xlink:href="#DejaVuSans-48" transform="translate(1554.9375 0)"/>
     <use xlink:href="#DejaVuSans-47" transform="translate(1616.46875 0)"/>
     <use xlink:href="#DejaVuSans-f" transform="translate(1679.953125 0)"/>
     <use xlink:href="#DejaVuSans-3" transform="translate(1711.734375 0)"/>
     <use xlink:href="#DejaVuSans-47" transform="translate(1743.515625 0)"/>
     <use xlink:href="#DejaVuSans-44" transform="translate(1807 0)"/>
     <use xlink:href="#DejaVuSans-56" transform="translate(1868.28125 0)"/>
     <use xlink:href="#DejaVuSans-4b" transform="translate(1920.375 0)"/>
     <use xlink:href="#DejaVuSans-48" transform="translate(1983.75 0)"/>
     <use xlink:href="#DejaVuSans-47" transform="translate(2045.28125 0)"/>
     <use xlink:href="#DejaVuSans-c" transform="translate(2108.765625 0)"/>
     <use xlink:href="#DejaVuSans-3" transform="translate(2147.78125 0)"/>
     <use xlink:href="#DejaVuSans-c1a" transform="translate(2179.5625 0)"/>
    </g>
   </g>
   <g id="text_6">
    <!-- Chain rule: $\partial L/\partial w = \partial L/\partial y \cdot \partial y/\partial z \cdot \partial z/\partial w$ -->
    <g style="fill: #888888" transform="translate(110.24 171.8568) scale(0.08 -0.08)">
     <defs>
      <path id="DejaVuSans-26" d="M 4122 4306 
L 4122 3641 
Q 3803 3938 3442 4084 
Q 3081 4231 2675 4231 
Q 1875 4231 1450 3742 
Q 1025 3253 1025 2328 
Q 1025 1406 1450 917 
Q 1875 428 2675 428 
Q 3081 428 3442 575 
Q 3803 722 4122 1019 
L 4122 359 
Q 3791 134 3420 21 
Q 3050 -91 2638 -91 
Q 1578 -91 968 557 
Q 359 1206 359 2328 
Q 359 3453 968 4101 
Q 1578 4750 2638 4750 
Q 3056 4750 3426 4639 
Q 3797 4528 4122 4306 
z
" transform="scale(0.015625)"/>
      <path id="DejaVuSans-4c" d="M 603 3500 
L 1178 3500 
L 1178 0 
L 603 0 
L 603 3500 
z
M 603 4863 
L 1178 4863 
L 1178 4134 
L 603 4134 
L 603 4863 
z
" transform="scale(0.015625)"/>
      <path id="DejaVuSans-51" d="M 3513 2113 
L 3513 0 
L 2938 0 
L 2938 2094 
Q 2938 2591 2744 2837 
Q 2550 3084 2163 3084 
Q 1697 3084 1428 2787 
Q 1159 2491 1159 1978 
L 1159 0 
L 581 0 
L 581 3500 
L 1159 3500 
L 1159 2956 
Q 1366 3272 1645 3428 
Q 1925 3584 2291 3584 
Q 2894 3584 3203 3211 
Q 3513 2838 3513 2113 
z
" transform="scale(0.015625)"/>
      <path id="DejaVuSans-58" d="M 544 1381 
L 544 3500 
L 1119 3500 
L 1119 1403 
Q 1119 906 1312 657 
Q 1506 409 1894 409 
Q 2359 409 2629 706 
Q 2900 1003 2900 1516 
L 2900 3500 
L 3475 3500 
L 3475 0 
L 2900 0 
L 2900 538 
Q 2691 219 2414 64 
Q 2138 -91 1772 -91 
Q 1169 -91 856 284 
Q 544 659 544 1381 
z
M 1991 3584 
L 1991 3584 
z
" transform="scale(0.015625)"/>
      <path id="DejaVuSans-1d" d="M 750 794 
L 1409 794 
L 1409 0 
L 750 0 
L 750 794 
z
M 750 3309 
L 1409 3309 
L 1409 2516 
L 750 2516 
L 750 3309 
z
" transform="scale(0.015625)"/>
      <path id="DejaVuSans-c8c" d="M 1366 -91 
Q 925 -91 638 175 
Q 297 491 297 1063 
Q 297 1656 597 2119 
Q 906 2594 1463 2594 
Q 1828 2594 2116 2366 
Q 2284 2231 2400 2006 
Q 2441 2259 2441 2547 
Q 2441 2969 2341 3213 
Q 2119 3753 1531 3753 
Q 1309 3753 966 3616 
L 966 4141 
Q 1328 4238 1653 4238 
Q 2491 4238 2847 3469 
Q 3013 3106 3013 2566 
Q 3013 2213 2934 1803 
Q 2738 778 2228 291 
Q 1828 -91 1366 -91 
z
M 831 969 
Q 831 656 969 488 
Q 1116 309 1341 309 
Q 1541 309 1700 450 
Q 1925 644 2091 959 
Q 2228 1219 2297 1497 
Q 2019 2169 1538 2169 
Q 1125 2169 944 1625 
Q 831 1288 831 969 
z
" transform="scale(0.015625)"/>
      <path id="DejaVuSans-Oblique-2f" d="M 1075 4666 
L 1709 4666 
L 909 525 
L 3181 525 
L 3078 0 
L 172 0 
L 1075 4666 
z
" transform="scale(0.015625)"/>
      <path id="DejaVuSans-12" d="M 1625 4666 
L 2156 4666 
L 531 -594 
L 0 -594 
L 1625 4666 
z
" transform="scale(0.015625)"/>
      <path id="DejaVuSans-Oblique-5a" d="M 544 3500 
L 1113 3500 
L 1259 684 
L 2566 3500 
L 3231 3500 
L 3425 684 
L 4666 3500 
L 5241 3500 
L 3641 0 
L 2969 0 
L 2797 2900 
L 1459 0 
L 781 0 
L 544 3500 
z
" transform="scale(0.015625)"/>
      <path id="DejaVuSans-20" d="M 678 2906 
L 4684 2906 
L 4684 2381 
L 678 2381 
L 678 2906 
z
M 678 1631 
L 4684 1631 
L 4684 1100 
L 678 1100 
L 678 1631 
z
" transform="scale(0.015625)"/>
      <path id="DejaVuSans-Oblique-5c" d="M 1588 -325 
Q 1188 -997 936 -1164 
Q 684 -1331 294 -1331 
L -159 -1331 
L -63 -850 
L 269 -850 
Q 509 -850 678 -719 
Q 847 -588 1056 -206 
L 1234 128 
L 459 3500 
L 1069 3500 
L 1650 819 
L 3256 3500 
L 3859 3500 
L 1588 -325 
z
" transform="scale(0.015625)"/>
      <path id="DejaVuSans-d4f" d="M 684 2619 
L 1344 2619 
L 1344 1825 
L 684 1825 
L 684 2619 
z
" transform="scale(0.015625)"/>
      <path id="DejaVuSans-Oblique-5d" d="M 744 3500 
L 3475 3500 
L 3372 2975 
L 738 459 
L 2913 459 
L 2822 0 
L -19 0 
L 84 525 
L 2719 3041 
L 653 3041 
L 744 3500 
z
" transform="scale(0.015625)"/>
     </defs>
     <use xlink:href="#DejaVuSans-26" transform="translate(0 0.015625)"/>
     <use xlink:href="#DejaVuSans-4b" transform="translate(69.824219 0.015625)"/>
     <use xlink:href="#DejaVuSans-44" transform="translate(133.203125 0.015625)"/>
     <use xlink:href="#DejaVuSans-4c" transform="translate(194.482422 0.015625)"/>
     <use xlink:href="#DejaVuSans-51" transform="translate(222.265625 0.015625)"/>
     <use xlink:href="#DejaVuSans-3" transform="translate(285.644531 0.015625)"/>
     <use xlink:href="#DejaVuSans-55" transform="translate(317.431641 0.015625)"/>
     <use xlink:href="#DejaVuSans-58" transform="translate(358.544922 0.015625)"/>
     <use xlink:href="#DejaVuSans-4f" transform="translate(421.923828 0.015625)"/>
     <use xlink:href="#DejaVuSans-48" transform="translate(449.707031 0.015625)"/>
     <use xlink:href="#DejaVuSans-1d" transform="translate(511.230469 0.015625)"/>
     <use xlink:href="#DejaVuSans-3" transform="translate(544.921875 0.015625)"/>
     <use xlink:href="#DejaVuSans-c8c" transform="translate(576.708984 0.015625)"/>
     <use xlink:href="#DejaVuSans-Oblique-2f" transform="translate(628.417969 0.015625)"/>
     <use xlink:href="#DejaVuSans-12" transform="translate(684.130859 0.015625)"/>
     <use xlink:href="#DejaVuSans-c8c" transform="translate(717.822266 0.015625)"/>
     <use xlink:href="#DejaVuSans-Oblique-5a" transform="translate(769.53125 0.015625)"/>
     <use xlink:href="#DejaVuSans-20" transform="translate(870.800781 0.015625)"/>
     <use xlink:href="#DejaVuSans-c8c" transform="translate(974.072266 0.015625)"/>
     <use xlink:href="#DejaVuSans-Oblique-2f" transform="translate(1025.78125 0.015625)"/>
     <use xlink:href="#DejaVuSans-12" transform="translate(1081.494141 0.015625)"/>
     <use xlink:href="#DejaVuSans-c8c" transform="translate(1115.185547 0.015625)"/>
     <use xlink:href="#DejaVuSans-Oblique-5c" transform="translate(1166.894531 0.015625)"/>
     <use xlink:href="#DejaVuSans-d4f" transform="translate(1245.556641 0.015625)"/>
     <use xlink:href="#DejaVuSans-c8c" transform="translate(1296.826172 0.015625)"/>
     <use xlink:href="#DejaVuSans-Oblique-5c" transform="translate(1348.535156 0.015625)"/>
     <use xlink:href="#DejaVuSans-12" transform="translate(1407.714844 0.015625)"/>
     <use xlink:href="#DejaVuSans-c8c" transform="translate(1441.40625 0.015625)"/>
     <use xlink:href="#DejaVuSans-Oblique-5d" transform="translate(1493.115234 0.015625)"/>
     <use xlink:href="#DejaVuSans-d4f" transform="translate(1565.087891 0.015625)"/>
     <use xlink:href="#DejaVuSans-c8c" transform="translate(1616.357422 0.015625)"/>
     <use xlink:href="#DejaVuSans-Oblique-5d" transform="translate(1668.066406 0.015625)"/>
     <use xlink:href="#DejaVuSans-12" transform="translate(1720.556641 0.015625)"/>
     <use xlink:href="#DejaVuSans-c8c" transform="translate(1754.248047 0.015625)"/>
     <use xlink:href="#DejaVuSans-Oblique-5a" transform="translate(1805.957031 0.015625)"/>
    </g>
   </g>
  </g>
 </g>
 <defs>
  <clipPath id="p402f0685df">
   <rect x="7.2" y="7.2" width="446.4" height="166.32"/>
  </clipPath>
 </defs>
</svg>
