<?xml version="1.0" encoding="utf-8" standalone="no"?>
<!DOCTYPE svg PUBLIC "-//W3C//DTD SVG 1.1//EN"
  "http://www.w3.org/Graphics/SVG/1.1/DTD/svg11.dtd">
<svg xmlns:xlink="http://www.w3.org/1999/xlink" width="572.4pt" height="266.797812pt" viewBox="0 0 572.4 266.797812" xmlns="http://www.w3.org/2000/svg" version="1.1">
 <metadata>
  <rdf:RDF xmlns:dc="http://purl.org/dc/elements/1.1/" xmlns:cc="http://creativecommons.org/ns#" xmlns:rdf="http://www.w3.org/1999/02/22-rdf-syntax-ns#">
   <cc:Work>
    <dc:type rdf:resource="http://purl.org/dc/dcmitype/StillImage"/>
    <dc:date>2026-07-06T17:32:29.449583</dc:date>
    <dc:format>image/svg+xml</dc:format>
    <dc:creator>
     <cc:Agent>
      <dc:title>Matplotlib v3.11.0, https://matplotlib.org/</dc:title>
     </cc:Agent>
    </dc:creator>
   </cc:Work>
  </rdf:RDF>
 </metadata>
 <defs>
  <style type="text/css">*{stroke-linejoin: round; stroke-linecap: butt}</style>
 </defs>
 <g id="figure_1">
  <g id="patch_1">
   <path d="M 0 266.797812 
L 572.4 266.797812 
L 572.4 0 
L 0 0 
L 0 266.797812 
z
" style="fill: none"/>
  </g>
  <g id="axes_1">
   <g id="patch_2">
    <path d="M 134.018182 98.277699 
Q 134.018182 104.3644 134.018182 108.215034 
" style="fill: none; stroke: #888888; stroke-width: 2; stroke-linecap: round"/>
    <path d="M 136.018182 104.215034 
L 134.018182 108.215034 
L 132.018182 104.215034 
" style="fill: none; stroke: #888888; stroke-width: 2; stroke-linecap: round"/>
   </g>
   <g id="patch_3">
    <path d="M 134.018182 164.805699 
Q 134.018182 170.8924 134.018182 174.743034 
" style="fill: none; stroke: #888888; stroke-width: 2; stroke-linecap: round"/>
    <path d="M 136.018182 170.743034 
L 134.018182 174.743034 
L 132.018182 170.743034 
" style="fill: none; stroke: #888888; stroke-width: 2; stroke-linecap: round"/>
   </g>
   <g id="patch_4">
    <path d="M 134.018182 231.332616 
Q 134.018182 234.096041 134.018182 234.623398 
" style="fill: none; stroke: #888888; stroke-width: 2; stroke-linecap: round"/>
    <path d="M 136.018182 230.623398 
L 134.018182 234.623398 
L 132.018182 230.623398 
" style="fill: none; stroke: #888888; stroke-width: 2; stroke-linecap: round"/>
   </g>
   <g id="patch_5">
    <path d="M 97.240909 89.951412 
L 170.795455 89.951412 
Q 172.063636 89.951412 172.063636 88.842612 
L 172.063636 75.537012 
Q 172.063636 74.428212 170.795455 74.428212 
L 97.240909 74.428212 
Q 95.972727 74.428212 95.972727 75.537012 
L 95.972727 88.842612 
Q 95.972727 89.951412 97.240909 89.951412 
z
" clip-path="url(#p86cd7fcc85)" style="fill: #e0e0e0; stroke: #555555; stroke-width: 1.5; stroke-linejoin: miter"/>
   </g>
   <g id="patch_6">
    <path d="M 90.9 159.805812 
L 177.136364 159.805812 
Q 178.404545 159.805812 178.404545 158.697012 
L 178.404545 138.738612 
Q 178.404545 137.629812 177.136364 137.629812 
L 90.9 137.629812 
Q 89.631818 137.629812 89.631818 138.738612 
L 89.631818 158.697012 
Q 89.631818 159.805812 90.9 159.805812 
z
" clip-path="url(#p86cd7fcc85)" style="fill: #e8f4f8; stroke: #555555; stroke-width: 1.5; stroke-linejoin: miter"/>
   </g>
   <g id="patch_7">
    <path d="M 97.240909 223.007412 
L 170.795455 223.007412 
Q 172.063636 223.007412 172.063636 221.898612 
L 172.063636 208.593012 
Q 172.063636 207.484212 170.795455 207.484212 
L 97.240909 207.484212 
Q 95.972727 207.484212 95.972727 208.593012 
L 95.972727 221.898612 
Q 95.972727 223.007412 97.240909 223.007412 
z
" clip-path="url(#p86cd7fcc85)" style="fill: #fef9e7; stroke: #555555; stroke-width: 1.5; stroke-linejoin: miter"/>
   </g>
   <g id="patch_8">
    <path d="M 109.922727 258.489013 
L 158.113636 258.489013 
Q 159.381818 258.489013 159.381818 257.380212 
L 159.381818 248.509812 
Q 159.381818 247.401012 158.113636 247.401012 
L 109.922727 247.401012 
Q 108.654545 247.401012 108.654545 248.509812 
L 108.654545 257.380212 
Q 108.654545 258.489013 109.922727 258.489013 
z
" clip-path="url(#p86cd7fcc85)" style="fill: #e0e0e0; stroke: #555555; stroke-width: 1.5; stroke-linejoin: miter"/>
   </g>
   <g id="text_1">
    <!-- Data Lake -->
    <g style="fill: #1a1a1a" transform="translate(111.364197 84.528055) scale(0.09 -0.09)">
     <defs>
      <path id="DejaVuSans-27" d="M 1259 4147 
L 1259 519 
L 2022 519 
Q 2988 519 3436 956 
Q 3884 1394 3884 2338 
Q 3884 3275 3436 3711 
Q 2988 4147 2022 4147 
L 1259 4147 
z
M 628 4666 
L 1925 4666 
Q 3281 4666 3915 4102 
Q 4550 3538 4550 2338 
Q 4550 1131 3912 565 
Q 3275 0 1925 0 
L 628 0 
L 628 4666 
z
" transform="scale(0.015625)"/>
      <path id="DejaVuSans-44" d="M 2194 1759 
Q 1497 1759 1228 1600 
Q 959 1441 959 1056 
Q 959 750 1161 570 
Q 1363 391 1709 391 
Q 2188 391 2477 730 
Q 2766 1069 2766 1631 
L 2766 1759 
L 2194 1759 
z
M 3341 1997 
L 3341 0 
L 2766 0 
L 2766 531 
Q 2569 213 2275 61 
Q 1981 -91 1556 -91 
Q 1019 -91 701 211 
Q 384 513 384 1019 
Q 384 1609 779 1909 
Q 1175 2209 1959 2209 
L 2766 2209 
L 2766 2266 
Q 2766 2663 2505 2880 
Q 2244 3097 1772 3097 
Q 1472 3097 1187 3025 
Q 903 2953 641 2809 
L 641 3341 
Q 956 3463 1253 3523 
Q 1550 3584 1831 3584 
Q 2591 3584 2966 3190 
Q 3341 2797 3341 1997 
z
" transform="scale(0.015625)"/>
      <path id="DejaVuSans-57" d="M 1172 4494 
L 1172 3500 
L 2356 3500 
L 2356 3053 
L 1172 3053 
L 1172 1153 
Q 1172 725 1289 603 
Q 1406 481 1766 481 
L 2356 481 
L 2356 0 
L 1766 0 
Q 1100 0 847 248 
Q 594 497 594 1153 
L 594 3053 
L 172 3053 
L 172 3500 
L 594 3500 
L 594 4494 
L 1172 4494 
z
" transform="scale(0.015625)"/>
      <path id="DejaVuSans-3" transform="scale(0.015625)"/>
      <path id="DejaVuSans-2f" d="M 628 4666 
L 1259 4666 
L 1259 531 
L 3531 531 
L 3531 0 
L 628 0 
L 628 4666 
z
" transform="scale(0.015625)"/>
      <path id="DejaVuSans-4e" d="M 581 4863 
L 1159 4863 
L 1159 1991 
L 2875 3500 
L 3609 3500 
L 1753 1863 
L 3688 0 
L 2938 0 
L 1159 1709 
L 1159 0 
L 581 0 
L 581 4863 
z
" transform="scale(0.015625)"/>
      <path id="DejaVuSans-48" d="M 3597 1894 
L 3597 1613 
L 953 1613 
Q 991 1019 1311 708 
Q 1631 397 2203 397 
Q 2534 397 2845 478 
Q 3156 559 3463 722 
L 3463 178 
Q 3153 47 2828 -22 
Q 2503 -91 2169 -91 
Q 1331 -91 842 396 
Q 353 884 353 1716 
Q 353 2575 817 3079 
Q 1281 3584 2069 3584 
Q 2775 3584 3186 3129 
Q 3597 2675 3597 1894 
z
M 3022 2063 
Q 3016 2534 2758 2815 
Q 2500 3097 2075 3097 
Q 1594 3097 1305 2825 
Q 1016 2553 972 2059 
L 3022 2063 
z
" transform="scale(0.015625)"/>
     </defs>
     <use xlink:href="#DejaVuSans-27"/>
     <use xlink:href="#DejaVuSans-44" transform="translate(77 0)"/>
     <use xlink:href="#DejaVuSans-57" transform="translate(138.28125 0)"/>
     <use xlink:href="#DejaVuSans-44" transform="translate(177.484375 0)"/>
     <use xlink:href="#DejaVuSans-3" transform="translate(238.765625 0)"/>
     <use xlink:href="#DejaVuSans-2f" transform="translate(270.546875 0)"/>
     <use xlink:href="#DejaVuSans-44" transform="translate(326.265625 0)"/>
     <use xlink:href="#DejaVuSans-4e" transform="translate(387.546875 0)"/>
     <use xlink:href="#DejaVuSans-48" transform="translate(441.890625 0)"/>
    </g>
   </g>
   <g id="text_2">
    <!-- Nightly Job -->
    <g style="fill: #666666" transform="translate(112.355057 98.008737) scale(0.08 -0.08)">
     <defs>
      <path id="DejaVuSans-31" d="M 628 4666 
L 1478 4666 
L 3547 763 
L 3547 4666 
L 4159 4666 
L 4159 0 
L 3309 0 
L 1241 3903 
L 1241 0 
L 628 0 
L 628 4666 
z
" transform="scale(0.015625)"/>
      <path id="DejaVuSans-4c" d="M 603 3500 
L 1178 3500 
L 1178 0 
L 603 0 
L 603 3500 
z
M 603 4863 
L 1178 4863 
L 1178 4134 
L 603 4134 
L 603 4863 
z
" transform="scale(0.015625)"/>
      <path id="DejaVuSans-4a" d="M 2906 1791 
Q 2906 2416 2648 2759 
Q 2391 3103 1925 3103 
Q 1463 3103 1205 2759 
Q 947 2416 947 1791 
Q 947 1169 1205 825 
Q 1463 481 1925 481 
Q 2391 481 2648 825 
Q 2906 1169 2906 1791 
z
M 3481 434 
Q 3481 -459 3084 -895 
Q 2688 -1331 1869 -1331 
Q 1566 -1331 1297 -1286 
Q 1028 -1241 775 -1147 
L 775 -588 
Q 1028 -725 1275 -790 
Q 1522 -856 1778 -856 
Q 2344 -856 2625 -561 
Q 2906 -266 2906 331 
L 2906 616 
Q 2728 306 2450 153 
Q 2172 0 1784 0 
Q 1141 0 747 490 
Q 353 981 353 1791 
Q 353 2603 747 3093 
Q 1141 3584 1784 3584 
Q 2172 3584 2450 3431 
Q 2728 3278 2906 2969 
L 2906 3500 
L 3481 3500 
L 3481 434 
z
" transform="scale(0.015625)"/>
      <path id="DejaVuSans-4b" d="M 3513 2113 
L 3513 0 
L 2938 0 
L 2938 2094 
Q 2938 2591 2744 2837 
Q 2550 3084 2163 3084 
Q 1697 3084 1428 2787 
Q 1159 2491 1159 1978 
L 1159 0 
L 581 0 
L 581 4863 
L 1159 4863 
L 1159 2956 
Q 1366 3272 1645 3428 
Q 1925 3584 2291 3584 
Q 2894 3584 3203 3211 
Q 3513 2838 3513 2113 
z
" transform="scale(0.015625)"/>
      <path id="DejaVuSans-4f" d="M 603 4863 
L 1178 4863 
L 1178 0 
L 603 0 
L 603 4863 
z
" transform="scale(0.015625)"/>
      <path id="DejaVuSans-5c" d="M 2059 -325 
Q 1816 -950 1584 -1140 
Q 1353 -1331 966 -1331 
L 506 -1331 
L 506 -850 
L 844 -850 
Q 1081 -850 1212 -737 
Q 1344 -625 1503 -206 
L 1606 56 
L 191 3500 
L 800 3500 
L 1894 763 
L 2988 3500 
L 3597 3500 
L 2059 -325 
z
" transform="scale(0.015625)"/>
      <path id="DejaVuSans-2d" d="M 628 4666 
L 1259 4666 
L 1259 325 
Q 1259 -519 939 -900 
Q 619 -1281 -91 -1281 
L -331 -1281 
L -331 -750 
L -134 -750 
Q 284 -750 456 -515 
Q 628 -281 628 325 
L 628 4666 
z
" transform="scale(0.015625)"/>
      <path id="DejaVuSans-52" d="M 1959 3097 
Q 1497 3097 1228 2736 
Q 959 2375 959 1747 
Q 959 1119 1226 758 
Q 1494 397 1959 397 
Q 2419 397 2687 759 
Q 2956 1122 2956 1747 
Q 2956 2369 2687 2733 
Q 2419 3097 1959 3097 
z
M 1959 3584 
Q 2709 3584 3137 3096 
Q 3566 2609 3566 1747 
Q 3566 888 3137 398 
Q 2709 -91 1959 -91 
Q 1206 -91 779 398 
Q 353 888 353 1747 
Q 353 2609 779 3096 
Q 1206 3584 1959 3584 
z
" transform="scale(0.015625)"/>
      <path id="DejaVuSans-45" d="M 3116 1747 
Q 3116 2381 2855 2742 
Q 2594 3103 2138 3103 
Q 1681 3103 1420 2742 
Q 1159 2381 1159 1747 
Q 1159 1113 1420 752 
Q 1681 391 2138 391 
Q 2594 391 2855 752 
Q 3116 1113 3116 1747 
z
M 1159 2969 
Q 1341 3281 1617 3432 
Q 1894 3584 2278 3584 
Q 2916 3584 3314 3078 
Q 3713 2572 3713 1747 
Q 3713 922 3314 415 
Q 2916 -91 2278 -91 
Q 1894 -91 1617 61 
Q 1341 213 1159 525 
L 1159 0 
L 581 0 
L 581 4863 
L 1159 4863 
L 1159 2969 
z
" transform="scale(0.015625)"/>
     </defs>
     <use xlink:href="#DejaVuSans-31"/>
     <use xlink:href="#DejaVuSans-4c" transform="translate(74.8125 0)"/>
     <use xlink:href="#DejaVuSans-4a" transform="translate(102.59375 0)"/>
     <use xlink:href="#DejaVuSans-4b" transform="translate(166.078125 0)"/>
     <use xlink:href="#DejaVuSans-57" transform="translate(229.453125 0)"/>
     <use xlink:href="#DejaVuSans-4f" transform="translate(268.65625 0)"/>
     <use xlink:href="#DejaVuSans-5c" transform="translate(296.4375 0)"/>
     <use xlink:href="#DejaVuSans-3" transform="translate(355.625 0)"/>
     <use xlink:href="#DejaVuSans-2d" transform="translate(387.40625 0)"/>
     <use xlink:href="#DejaVuSans-52" transform="translate(416.90625 0)"/>
     <use xlink:href="#DejaVuSans-45" transform="translate(478.09375 0)"/>
    </g>
   </g>
   <g id="text_3">
    <!-- Precompute -->
    <g style="fill: #1a1a1a" transform="translate(110.011932 145.994844) scale(0.08 -0.08)">
     <defs>
      <path id="DejaVuSans-33" d="M 1259 4147 
L 1259 2394 
L 2053 2394 
Q 2494 2394 2734 2622 
Q 2975 2850 2975 3272 
Q 2975 3691 2734 3919 
Q 2494 4147 2053 4147 
L 1259 4147 
z
M 628 4666 
L 2053 4666 
Q 2838 4666 3239 4311 
Q 3641 3956 3641 3272 
Q 3641 2581 3239 2228 
Q 2838 1875 2053 1875 
L 1259 1875 
L 1259 0 
L 628 0 
L 628 4666 
z
" transform="scale(0.015625)"/>
      <path id="DejaVuSans-55" d="M 2631 2963 
Q 2534 3019 2420 3045 
Q 2306 3072 2169 3072 
Q 1681 3072 1420 2755 
Q 1159 2438 1159 1844 
L 1159 0 
L 581 0 
L 581 3500 
L 1159 3500 
L 1159 2956 
Q 1341 3275 1631 3429 
Q 1922 3584 2338 3584 
Q 2397 3584 2469 3576 
Q 2541 3569 2628 3553 
L 2631 2963 
z
" transform="scale(0.015625)"/>
      <path id="DejaVuSans-46" d="M 3122 3366 
L 3122 2828 
Q 2878 2963 2633 3030 
Q 2388 3097 2138 3097 
Q 1578 3097 1268 2742 
Q 959 2388 959 1747 
Q 959 1106 1268 751 
Q 1578 397 2138 397 
Q 2388 397 2633 464 
Q 2878 531 3122 666 
L 3122 134 
Q 2881 22 2623 -34 
Q 2366 -91 2075 -91 
Q 1284 -91 818 406 
Q 353 903 353 1747 
Q 353 2603 823 3093 
Q 1294 3584 2113 3584 
Q 2378 3584 2631 3529 
Q 2884 3475 3122 3366 
z
" transform="scale(0.015625)"/>
      <path id="DejaVuSans-50" d="M 3328 2828 
Q 3544 3216 3844 3400 
Q 4144 3584 4550 3584 
Q 5097 3584 5394 3201 
Q 5691 2819 5691 2113 
L 5691 0 
L 5113 0 
L 5113 2094 
Q 5113 2597 4934 2840 
Q 4756 3084 4391 3084 
Q 3944 3084 3684 2787 
Q 3425 2491 3425 1978 
L 3425 0 
L 2847 0 
L 2847 2094 
Q 2847 2600 2669 2842 
Q 2491 3084 2119 3084 
Q 1678 3084 1418 2786 
Q 1159 2488 1159 1978 
L 1159 0 
L 581 0 
L 581 3500 
L 1159 3500 
L 1159 2956 
Q 1356 3278 1631 3431 
Q 1906 3584 2284 3584 
Q 2666 3584 2933 3390 
Q 3200 3197 3328 2828 
z
" transform="scale(0.015625)"/>
      <path id="DejaVuSans-53" d="M 1159 525 
L 1159 -1331 
L 581 -1331 
L 581 3500 
L 1159 3500 
L 1159 2969 
Q 1341 3281 1617 3432 
Q 1894 3584 2278 3584 
Q 2916 3584 3314 3078 
Q 3713 2572 3713 1747 
Q 3713 922 3314 415 
Q 2916 -91 2278 -91 
Q 1894 -91 1617 61 
Q 1341 213 1159 525 
z
M 3116 1747 
Q 3116 2381 2855 2742 
Q 2594 3103 2138 3103 
Q 1681 3103 1420 2742 
Q 1159 2381 1159 1747 
Q 1159 1113 1420 752 
Q 1681 391 2138 391 
Q 2594 391 2855 752 
Q 3116 1113 3116 1747 
z
" transform="scale(0.015625)"/>
      <path id="DejaVuSans-58" d="M 544 1381 
L 544 3500 
L 1119 3500 
L 1119 1403 
Q 1119 906 1312 657 
Q 1506 409 1894 409 
Q 2359 409 2629 706 
Q 2900 1003 2900 1516 
L 2900 3500 
L 3475 3500 
L 3475 0 
L 2900 0 
L 2900 538 
Q 2691 219 2414 64 
Q 2138 -91 1772 -91 
Q 1169 -91 856 284 
Q 544 659 544 1381 
z
M 1991 3584 
L 1991 3584 
z
" transform="scale(0.015625)"/>
     </defs>
     <use xlink:href="#DejaVuSans-33"/>
     <use xlink:href="#DejaVuSans-55" transform="translate(58.546875 0)"/>
     <use xlink:href="#DejaVuSans-48" transform="translate(97.453125 0)"/>
     <use xlink:href="#DejaVuSans-46" transform="translate(158.984375 0)"/>
     <use xlink:href="#DejaVuSans-52" transform="translate(213.96875 0)"/>
     <use xlink:href="#DejaVuSans-50" transform="translate(275.15625 0)"/>
     <use xlink:href="#DejaVuSans-53" transform="translate(372.5625 0)"/>
     <use xlink:href="#DejaVuSans-58" transform="translate(436.046875 0)"/>
     <use xlink:href="#DejaVuSans-57" transform="translate(499.421875 0)"/>
     <use xlink:href="#DejaVuSans-48" transform="translate(538.625 0)"/>
    </g>
    <!-- Predictions -->
    <g style="fill: #1a1a1a" transform="translate(112.063182 155.597031) scale(0.08 -0.08)">
     <defs>
      <path id="DejaVuSans-47" d="M 2906 2969 
L 2906 4863 
L 3481 4863 
L 3481 0 
L 2906 0 
L 2906 525 
Q 2725 213 2448 61 
Q 2172 -91 1784 -91 
Q 1150 -91 751 415 
Q 353 922 353 1747 
Q 353 2572 751 3078 
Q 1150 3584 1784 3584 
Q 2172 3584 2448 3432 
Q 2725 3281 2906 2969 
z
M 947 1747 
Q 947 1113 1208 752 
Q 1469 391 1925 391 
Q 2381 391 2643 752 
Q 2906 1113 2906 1747 
Q 2906 2381 2643 2742 
Q 2381 3103 1925 3103 
Q 1469 3103 1208 2742 
Q 947 2381 947 1747 
z
" transform="scale(0.015625)"/>
      <path id="DejaVuSans-51" d="M 3513 2113 
L 3513 0 
L 2938 0 
L 2938 2094 
Q 2938 2591 2744 2837 
Q 2550 3084 2163 3084 
Q 1697 3084 1428 2787 
Q 1159 2491 1159 1978 
L 1159 0 
L 581 0 
L 581 3500 
L 1159 3500 
L 1159 2956 
Q 1366 3272 1645 3428 
Q 1925 3584 2291 3584 
Q 2894 3584 3203 3211 
Q 3513 2838 3513 2113 
z
" transform="scale(0.015625)"/>
      <path id="DejaVuSans-56" d="M 2834 3397 
L 2834 2853 
Q 2591 2978 2328 3040 
Q 2066 3103 1784 3103 
Q 1356 3103 1142 2972 
Q 928 2841 928 2578 
Q 928 2378 1081 2264 
Q 1234 2150 1697 2047 
L 1894 2003 
Q 2506 1872 2764 1633 
Q 3022 1394 3022 966 
Q 3022 478 2636 193 
Q 2250 -91 1575 -91 
Q 1294 -91 989 -36 
Q 684 19 347 128 
L 347 722 
Q 666 556 975 473 
Q 1284 391 1588 391 
Q 1994 391 2212 530 
Q 2431 669 2431 922 
Q 2431 1156 2273 1281 
Q 2116 1406 1581 1522 
L 1381 1569 
Q 847 1681 609 1914 
Q 372 2147 372 2553 
Q 372 3047 722 3315 
Q 1072 3584 1716 3584 
Q 2034 3584 2315 3537 
Q 2597 3491 2834 3397 
z
" transform="scale(0.015625)"/>
     </defs>
     <use xlink:href="#DejaVuSans-33"/>
     <use xlink:href="#DejaVuSans-55" transform="translate(58.546875 0)"/>
     <use xlink:href="#DejaVuSans-48" transform="translate(97.453125 0)"/>
     <use xlink:href="#DejaVuSans-47" transform="translate(158.984375 0)"/>
     <use xlink:href="#DejaVuSans-4c" transform="translate(222.46875 0)"/>
     <use xlink:href="#DejaVuSans-46" transform="translate(250.25 0)"/>
     <use xlink:href="#DejaVuSans-57" transform="translate(305.234375 0)"/>
     <use xlink:href="#DejaVuSans-4c" transform="translate(344.4375 0)"/>
     <use xlink:href="#DejaVuSans-52" transform="translate(372.21875 0)"/>
     <use xlink:href="#DejaVuSans-51" transform="translate(433.40625 0)"/>
     <use xlink:href="#DejaVuSans-56" transform="translate(496.78125 0)"/>
    </g>
   </g>
   <g id="text_4">
    <!-- Key-Value -->
    <g style="fill: #1a1a1a" transform="translate(114.642557 212.523469) scale(0.08 -0.08)">
     <defs>
      <path id="DejaVuSans-2e" d="M 628 4666 
L 1259 4666 
L 1259 2694 
L 3353 4666 
L 4166 4666 
L 1850 2491 
L 4331 0 
L 3500 0 
L 1259 2247 
L 1259 0 
L 628 0 
L 628 4666 
z
" transform="scale(0.015625)"/>
      <path id="DejaVuSans-10" d="M 313 2009 
L 1997 2009 
L 1997 1497 
L 313 1497 
L 313 2009 
z
" transform="scale(0.015625)"/>
      <path id="DejaVuSans-39" d="M 1831 0 
L 50 4666 
L 709 4666 
L 2188 738 
L 3669 4666 
L 4325 4666 
L 2547 0 
L 1831 0 
z
" transform="scale(0.015625)"/>
     </defs>
     <use xlink:href="#DejaVuSans-2e"/>
     <use xlink:href="#DejaVuSans-48" transform="translate(60.59375 0)"/>
     <use xlink:href="#DejaVuSans-5c" transform="translate(122.125 0)"/>
     <use xlink:href="#DejaVuSans-10" transform="translate(179.5625 0)"/>
     <use xlink:href="#DejaVuSans-39" transform="translate(209.78125 0)"/>
     <use xlink:href="#DejaVuSans-44" transform="translate(270.421875 0)"/>
     <use xlink:href="#DejaVuSans-4f" transform="translate(331.703125 0)"/>
     <use xlink:href="#DejaVuSans-58" transform="translate(359.484375 0)"/>
     <use xlink:href="#DejaVuSans-48" transform="translate(422.859375 0)"/>
    </g>
    <!-- Store -->
    <g style="fill: #1a1a1a" transform="translate(123.445682 222.125031) scale(0.08 -0.08)">
     <defs>
      <path id="DejaVuSans-36" d="M 3425 4513 
L 3425 3897 
Q 3066 4069 2747 4153 
Q 2428 4238 2131 4238 
Q 1616 4238 1336 4038 
Q 1056 3838 1056 3469 
Q 1056 3159 1242 3001 
Q 1428 2844 1947 2747 
L 2328 2669 
Q 3034 2534 3370 2195 
Q 3706 1856 3706 1288 
Q 3706 609 3251 259 
Q 2797 -91 1919 -91 
Q 1588 -91 1214 -16 
Q 841 59 441 206 
L 441 856 
Q 825 641 1194 531 
Q 1563 422 1919 422 
Q 2459 422 2753 634 
Q 3047 847 3047 1241 
Q 3047 1584 2836 1778 
Q 2625 1972 2144 2069 
L 1759 2144 
Q 1053 2284 737 2584 
Q 422 2884 422 3419 
Q 422 4038 858 4394 
Q 1294 4750 2059 4750 
Q 2388 4750 2728 4690 
Q 3069 4631 3425 4513 
z
" transform="scale(0.015625)"/>
     </defs>
     <use xlink:href="#DejaVuSans-36"/>
     <use xlink:href="#DejaVuSans-57" transform="translate(63.484375 0)"/>
     <use xlink:href="#DejaVuSans-52" transform="translate(102.6875 0)"/>
     <use xlink:href="#DejaVuSans-55" transform="translate(163.875 0)"/>
     <use xlink:href="#DejaVuSans-48" transform="translate(202.78125 0)"/>
    </g>
   </g>
   <g id="text_5">
    <!-- Serve -->
    <g style="fill: #1a1a1a" transform="translate(122.544432 255.023137) scale(0.08 -0.08)">
     <defs>
      <path id="DejaVuSans-59" d="M 191 3500 
L 800 3500 
L 1894 563 
L 2988 3500 
L 3597 3500 
L 2284 0 
L 1503 0 
L 191 3500 
z
" transform="scale(0.015625)"/>
     </defs>
     <use xlink:href="#DejaVuSans-36"/>
     <use xlink:href="#DejaVuSans-48" transform="translate(63.484375 0)"/>
     <use xlink:href="#DejaVuSans-55" transform="translate(125.015625 0)"/>
     <use xlink:href="#DejaVuSans-59" transform="translate(166.125 0)"/>
     <use xlink:href="#DejaVuSans-48" transform="translate(225.3125 0)"/>
    </g>
   </g>
   <g id="text_6">
    <!-- Batch Inference -->
    <g transform="translate(71.582557 17.837812) scale(0.14 -0.14)">
     <defs>
      <path id="DejaVuSans-Bold-25" d="M 2456 2859 
Q 2741 2859 2887 2984 
Q 3034 3109 3034 3353 
Q 3034 3594 2887 3720 
Q 2741 3847 2456 3847 
L 1791 3847 
L 1791 2859 
L 2456 2859 
z
M 2497 819 
Q 2859 819 3042 972 
Q 3225 1125 3225 1434 
Q 3225 1738 3044 1889 
Q 2863 2041 2497 2041 
L 1791 2041 
L 1791 819 
L 2497 819 
z
M 3616 2497 
Q 4003 2384 4215 2081 
Q 4428 1778 4428 1338 
Q 4428 663 3972 331 
Q 3516 0 2584 0 
L 588 0 
L 588 4666 
L 2394 4666 
Q 3366 4666 3802 4372 
Q 4238 4078 4238 3431 
Q 4238 3091 4078 2852 
Q 3919 2613 3616 2497 
z
" transform="scale(0.015625)"/>
      <path id="DejaVuSans-Bold-44" d="M 2106 1575 
Q 1756 1575 1579 1456 
Q 1403 1338 1403 1106 
Q 1403 894 1545 773 
Q 1688 653 1941 653 
Q 2256 653 2472 879 
Q 2688 1106 2688 1447 
L 2688 1575 
L 2106 1575 
z
M 3816 1997 
L 3816 0 
L 2688 0 
L 2688 519 
Q 2463 200 2181 54 
Q 1900 -91 1497 -91 
Q 953 -91 614 226 
Q 275 544 275 1050 
Q 275 1666 698 1953 
Q 1122 2241 2028 2241 
L 2688 2241 
L 2688 2328 
Q 2688 2594 2478 2717 
Q 2269 2841 1825 2841 
Q 1466 2841 1156 2769 
Q 847 2697 581 2553 
L 581 3406 
Q 941 3494 1303 3539 
Q 1666 3584 2028 3584 
Q 2975 3584 3395 3211 
Q 3816 2838 3816 1997 
z
" transform="scale(0.015625)"/>
      <path id="DejaVuSans-Bold-57" d="M 1759 4494 
L 1759 3500 
L 2913 3500 
L 2913 2700 
L 1759 2700 
L 1759 1216 
Q 1759 972 1856 886 
Q 1953 800 2241 800 
L 2816 800 
L 2816 0 
L 1856 0 
Q 1194 0 917 276 
Q 641 553 641 1216 
L 641 2700 
L 84 2700 
L 84 3500 
L 641 3500 
L 641 4494 
L 1759 4494 
z
" transform="scale(0.015625)"/>
      <path id="DejaVuSans-Bold-46" d="M 3366 3391 
L 3366 2478 
Q 3138 2634 2908 2709 
Q 2678 2784 2431 2784 
Q 1963 2784 1702 2511 
Q 1441 2238 1441 1747 
Q 1441 1256 1702 982 
Q 1963 709 2431 709 
Q 2694 709 2930 787 
Q 3166 866 3366 1019 
L 3366 103 
Q 3103 6 2833 -42 
Q 2563 -91 2291 -91 
Q 1344 -91 809 395 
Q 275 881 275 1747 
Q 275 2613 809 3098 
Q 1344 3584 2291 3584 
Q 2566 3584 2833 3536 
Q 3100 3488 3366 3391 
z
" transform="scale(0.015625)"/>
      <path id="DejaVuSans-Bold-4b" d="M 4056 2131 
L 4056 0 
L 2931 0 
L 2931 347 
L 2931 1625 
Q 2931 2084 2911 2256 
Q 2891 2428 2841 2509 
Q 2775 2619 2662 2680 
Q 2550 2741 2406 2741 
Q 2056 2741 1856 2470 
Q 1656 2200 1656 1722 
L 1656 0 
L 538 0 
L 538 4863 
L 1656 4863 
L 1656 2988 
Q 1909 3294 2193 3439 
Q 2478 3584 2822 3584 
Q 3428 3584 3742 3212 
Q 4056 2841 4056 2131 
z
" transform="scale(0.015625)"/>
      <path id="DejaVuSans-Bold-3" transform="scale(0.015625)"/>
      <path id="DejaVuSans-Bold-2c" d="M 588 4666 
L 1791 4666 
L 1791 0 
L 588 0 
L 588 4666 
z
" transform="scale(0.015625)"/>
      <path id="DejaVuSans-Bold-51" d="M 4056 2131 
L 4056 0 
L 2931 0 
L 2931 347 
L 2931 1631 
Q 2931 2084 2911 2256 
Q 2891 2428 2841 2509 
Q 2775 2619 2662 2680 
Q 2550 2741 2406 2741 
Q 2056 2741 1856 2470 
Q 1656 2200 1656 1722 
L 1656 0 
L 538 0 
L 538 3500 
L 1656 3500 
L 1656 2988 
Q 1909 3294 2193 3439 
Q 2478 3584 2822 3584 
Q 3428 3584 3742 3212 
Q 4056 2841 4056 2131 
z
" transform="scale(0.015625)"/>
      <path id="DejaVuSans-Bold-49" d="M 2841 4863 
L 2841 4128 
L 2222 4128 
Q 1984 4128 1890 4042 
Q 1797 3956 1797 3744 
L 1797 3500 
L 2753 3500 
L 2753 2700 
L 1797 2700 
L 1797 0 
L 678 0 
L 678 2700 
L 122 2700 
L 122 3500 
L 678 3500 
L 678 3744 
Q 678 4316 997 4589 
Q 1316 4863 1984 4863 
L 2841 4863 
z
" transform="scale(0.015625)"/>
      <path id="DejaVuSans-Bold-48" d="M 4031 1759 
L 4031 1441 
L 1416 1441 
Q 1456 1047 1700 850 
Q 1944 653 2381 653 
Q 2734 653 3104 758 
Q 3475 863 3866 1075 
L 3866 213 
Q 3469 63 3072 -14 
Q 2675 -91 2278 -91 
Q 1328 -91 801 392 
Q 275 875 275 1747 
Q 275 2603 792 3093 
Q 1309 3584 2216 3584 
Q 3041 3584 3536 3087 
Q 4031 2591 4031 1759 
z
M 2881 2131 
Q 2881 2450 2695 2645 
Q 2509 2841 2209 2841 
Q 1884 2841 1681 2658 
Q 1478 2475 1428 2131 
L 2881 2131 
z
" transform="scale(0.015625)"/>
      <path id="DejaVuSans-Bold-55" d="M 3138 2547 
Q 2991 2616 2845 2648 
Q 2700 2681 2553 2681 
Q 2122 2681 1889 2404 
Q 1656 2128 1656 1613 
L 1656 0 
L 538 0 
L 538 3500 
L 1656 3500 
L 1656 2925 
Q 1872 3269 2151 3426 
Q 2431 3584 2822 3584 
Q 2878 3584 2943 3579 
Q 3009 3575 3134 3559 
L 3138 2547 
z
" transform="scale(0.015625)"/>
     </defs>
     <use xlink:href="#DejaVuSans-Bold-25"/>
     <use xlink:href="#DejaVuSans-Bold-44" transform="translate(76.21875 0)"/>
     <use xlink:href="#DejaVuSans-Bold-57" transform="translate(143.703125 0)"/>
     <use xlink:href="#DejaVuSans-Bold-46" transform="translate(191.5 0)"/>
     <use xlink:href="#DejaVuSans-Bold-4b" transform="translate(250.78125 0)"/>
     <use xlink:href="#DejaVuSans-Bold-3" transform="translate(321.96875 0)"/>
     <use xlink:href="#DejaVuSans-Bold-2c" transform="translate(356.78125 0)"/>
     <use xlink:href="#DejaVuSans-Bold-51" transform="translate(393.984375 0)"/>
     <use xlink:href="#DejaVuSans-Bold-49" transform="translate(465.171875 0)"/>
     <use xlink:href="#DejaVuSans-Bold-48" transform="translate(508.671875 0)"/>
     <use xlink:href="#DejaVuSans-Bold-55" transform="translate(576.5 0)"/>
     <use xlink:href="#DejaVuSans-Bold-48" transform="translate(625.8125 0)"/>
     <use xlink:href="#DejaVuSans-Bold-51" transform="translate(693.640625 0)"/>
     <use xlink:href="#DejaVuSans-Bold-46" transform="translate(764.828125 0)"/>
     <use xlink:href="#DejaVuSans-Bold-48" transform="translate(824.109375 0)"/>
    </g>
   </g>
  </g>
  <g id="axes_2">
   <g id="patch_9">
    <path d="M 438.381818 98.277699 
Q 438.381818 104.3644 438.381818 108.215034 
" style="fill: none; stroke: #888888; stroke-width: 2; stroke-linecap: round"/>
    <path d="M 440.381818 104.215034 
L 438.381818 108.215034 
L 436.381818 104.215034 
" style="fill: none; stroke: #888888; stroke-width: 2; stroke-linecap: round"/>
   </g>
   <g id="patch_10">
    <path d="M 438.381818 164.805699 
Q 438.381818 170.8924 438.381818 174.743034 
" style="fill: none; stroke: #888888; stroke-width: 2; stroke-linecap: round"/>
    <path d="M 440.381818 170.743034 
L 438.381818 174.743034 
L 436.381818 170.743034 
" style="fill: none; stroke: #888888; stroke-width: 2; stroke-linecap: round"/>
   </g>
   <g id="patch_11">
    <path d="M 407.945455 89.951412 
L 468.818182 89.951412 
Q 470.086364 89.951412 470.086364 88.842612 
L 470.086364 75.537012 
Q 470.086364 74.428212 468.818182 74.428212 
L 407.945455 74.428212 
Q 406.677273 74.428212 406.677273 75.537012 
L 406.677273 88.842612 
Q 406.677273 89.951412 407.945455 89.951412 
z
" clip-path="url(#p99d195d2bf)" style="fill: #e0e0e0; stroke: #555555; stroke-width: 1.5; stroke-linejoin: miter"/>
   </g>
   <g id="patch_12">
    <path d="M 401.604545 156.479412 
L 475.159091 156.479412 
Q 476.427273 156.479412 476.427273 155.370612 
L 476.427273 142.065012 
Q 476.427273 140.956212 475.159091 140.956212 
L 401.604545 140.956212 
Q 400.336364 140.956212 400.336364 142.065012 
L 400.336364 155.370612 
Q 400.336364 156.479412 401.604545 156.479412 
z
" clip-path="url(#p99d195d2bf)" style="fill: #fdebd0; stroke: #555555; stroke-width: 1.5; stroke-linejoin: miter"/>
   </g>
   <g id="patch_13">
    <path d="M 407.945455 223.007412 
L 468.818182 223.007412 
Q 470.086364 223.007412 470.086364 221.898612 
L 470.086364 208.593012 
Q 470.086364 207.484212 468.818182 207.484212 
L 407.945455 207.484212 
Q 406.677273 207.484212 406.677273 208.593012 
L 406.677273 221.898612 
Q 406.677273 223.007412 407.945455 223.007412 
z
" clip-path="url(#p99d195d2bf)" style="fill: #e0e0e0; stroke: #555555; stroke-width: 1.5; stroke-linejoin: miter"/>
   </g>
   <g id="text_7">
    <!-- Request -->
    <g style="fill: #1a1a1a" transform="translate(420.101974 84.527703) scale(0.09 -0.09)">
     <defs>
      <path id="DejaVuSans-35" d="M 2841 2188 
Q 3044 2119 3236 1894 
Q 3428 1669 3622 1275 
L 4263 0 
L 3584 0 
L 2988 1197 
Q 2756 1666 2539 1819 
Q 2322 1972 1947 1972 
L 1259 1972 
L 1259 0 
L 628 0 
L 628 4666 
L 2053 4666 
Q 2853 4666 3247 4331 
Q 3641 3997 3641 3322 
Q 3641 2881 3436 2590 
Q 3231 2300 2841 2188 
z
M 1259 4147 
L 1259 2491 
L 2053 2491 
Q 2509 2491 2742 2702 
Q 2975 2913 2975 3322 
Q 2975 3731 2742 3939 
Q 2509 4147 2053 4147 
L 1259 4147 
z
" transform="scale(0.015625)"/>
      <path id="DejaVuSans-54" d="M 947 1747 
Q 947 1113 1208 752 
Q 1469 391 1925 391 
Q 2381 391 2643 752 
Q 2906 1113 2906 1747 
Q 2906 2381 2643 2742 
Q 2381 3103 1925 3103 
Q 1469 3103 1208 2742 
Q 947 2381 947 1747 
z
M 2906 525 
Q 2725 213 2448 61 
Q 2172 -91 1784 -91 
Q 1150 -91 751 415 
Q 353 922 353 1747 
Q 353 2572 751 3078 
Q 1150 3584 1784 3584 
Q 2172 3584 2448 3432 
Q 2725 3281 2906 2969 
L 2906 3500 
L 3481 3500 
L 3481 -1331 
L 2906 -1331 
L 2906 525 
z
" transform="scale(0.015625)"/>
     </defs>
     <use xlink:href="#DejaVuSans-35"/>
     <use xlink:href="#DejaVuSans-48" transform="translate(65 0)"/>
     <use xlink:href="#DejaVuSans-54" transform="translate(126.53125 0)"/>
     <use xlink:href="#DejaVuSans-58" transform="translate(190.015625 0)"/>
     <use xlink:href="#DejaVuSans-48" transform="translate(253.390625 0)"/>
     <use xlink:href="#DejaVuSans-56" transform="translate(314.921875 0)"/>
     <use xlink:href="#DejaVuSans-57" transform="translate(367.015625 0)"/>
    </g>
   </g>
   <g id="text_8">
    <!-- Real-time -->
    <g style="fill: #666666" transform="translate(419.278068 98.008737) scale(0.08 -0.08)">
     <use xlink:href="#DejaVuSans-35"/>
     <use xlink:href="#DejaVuSans-48" transform="translate(65 0)"/>
     <use xlink:href="#DejaVuSans-44" transform="translate(126.53125 0)"/>
     <use xlink:href="#DejaVuSans-4f" transform="translate(187.8125 0)"/>
     <use xlink:href="#DejaVuSans-10" transform="translate(215.59375 0)"/>
     <use xlink:href="#DejaVuSans-57" transform="translate(251.671875 0)"/>
     <use xlink:href="#DejaVuSans-4c" transform="translate(290.875 0)"/>
     <use xlink:href="#DejaVuSans-50" transform="translate(318.65625 0)"/>
     <use xlink:href="#DejaVuSans-48" transform="translate(416.0625 0)"/>
    </g>
   </g>
   <g id="text_9">
    <!-- Model -->
    <g style="fill: #1a1a1a" transform="translate(426.371193 145.995469) scale(0.08 -0.08)">
     <defs>
      <path id="DejaVuSans-30" d="M 628 4666 
L 1569 4666 
L 2759 1491 
L 3956 4666 
L 4897 4666 
L 4897 0 
L 4281 0 
L 4281 4097 
L 3078 897 
L 2444 897 
L 1241 4097 
L 1241 0 
L 628 0 
L 628 4666 
z
" transform="scale(0.015625)"/>
     </defs>
     <use xlink:href="#DejaVuSans-30"/>
     <use xlink:href="#DejaVuSans-52" transform="translate(86.28125 0)"/>
     <use xlink:href="#DejaVuSans-47" transform="translate(147.46875 0)"/>
     <use xlink:href="#DejaVuSans-48" transform="translate(210.953125 0)"/>
     <use xlink:href="#DejaVuSans-4f" transform="translate(272.484375 0)"/>
    </g>
    <!-- &lt;100ms -->
    <g style="fill: #1a1a1a" transform="translate(421.414943 155.597031) scale(0.08 -0.08)">
     <defs>
      <path id="DejaVuSans-1f" d="M 4684 3150 
L 1459 2003 
L 4684 863 
L 4684 294 
L 678 1747 
L 678 2266 
L 4684 3719 
L 4684 3150 
z
" transform="scale(0.015625)"/>
      <path id="DejaVuSans-14" d="M 794 531 
L 1825 531 
L 1825 4091 
L 703 3866 
L 703 4441 
L 1819 4666 
L 2450 4666 
L 2450 531 
L 3481 531 
L 3481 0 
L 794 0 
L 794 531 
z
" transform="scale(0.015625)"/>
      <path id="DejaVuSans-13" d="M 2034 4250 
Q 1547 4250 1301 3770 
Q 1056 3291 1056 2328 
Q 1056 1369 1301 889 
Q 1547 409 2034 409 
Q 2525 409 2770 889 
Q 3016 1369 3016 2328 
Q 3016 3291 2770 3770 
Q 2525 4250 2034 4250 
z
M 2034 4750 
Q 2819 4750 3233 4129 
Q 3647 3509 3647 2328 
Q 3647 1150 3233 529 
Q 2819 -91 2034 -91 
Q 1250 -91 836 529 
Q 422 1150 422 2328 
Q 422 3509 836 4129 
Q 1250 4750 2034 4750 
z
" transform="scale(0.015625)"/>
     </defs>
     <use xlink:href="#DejaVuSans-1f"/>
     <use xlink:href="#DejaVuSans-14" transform="translate(83.796875 0)"/>
     <use xlink:href="#DejaVuSans-13" transform="translate(147.421875 0)"/>
     <use xlink:href="#DejaVuSans-13" transform="translate(211.046875 0)"/>
     <use xlink:href="#DejaVuSans-50" transform="translate(274.671875 0)"/>
     <use xlink:href="#DejaVuSans-56" transform="translate(372.078125 0)"/>
    </g>
   </g>
   <g id="text_10">
    <!-- Serve -->
    <g style="fill: #1a1a1a" transform="translate(425.473849 217.583703) scale(0.09 -0.09)">
     <use xlink:href="#DejaVuSans-36"/>
     <use xlink:href="#DejaVuSans-48" transform="translate(63.484375 0)"/>
     <use xlink:href="#DejaVuSans-55" transform="translate(125.015625 0)"/>
     <use xlink:href="#DejaVuSans-59" transform="translate(166.125 0)"/>
     <use xlink:href="#DejaVuSans-48" transform="translate(225.3125 0)"/>
    </g>
   </g>
   <g id="text_11">
    <!-- Online Inference -->
    <g transform="translate(373.019318 17.837812) scale(0.14 -0.14)">
     <defs>
      <path id="DejaVuSans-Bold-32" d="M 2719 3878 
Q 2169 3878 1866 3472 
Q 1563 3066 1563 2328 
Q 1563 1594 1866 1187 
Q 2169 781 2719 781 
Q 3272 781 3575 1187 
Q 3878 1594 3878 2328 
Q 3878 3066 3575 3472 
Q 3272 3878 2719 3878 
z
M 2719 4750 
Q 3844 4750 4481 4106 
Q 5119 3463 5119 2328 
Q 5119 1197 4481 553 
Q 3844 -91 2719 -91 
Q 1597 -91 958 553 
Q 319 1197 319 2328 
Q 319 3463 958 4106 
Q 1597 4750 2719 4750 
z
" transform="scale(0.015625)"/>
      <path id="DejaVuSans-Bold-4f" d="M 538 4863 
L 1656 4863 
L 1656 0 
L 538 0 
L 538 4863 
z
" transform="scale(0.015625)"/>
      <path id="DejaVuSans-Bold-4c" d="M 538 3500 
L 1656 3500 
L 1656 0 
L 538 0 
L 538 3500 
z
M 538 4863 
L 1656 4863 
L 1656 3950 
L 538 3950 
L 538 4863 
z
" transform="scale(0.015625)"/>
     </defs>
     <use xlink:href="#DejaVuSans-Bold-32"/>
     <use xlink:href="#DejaVuSans-Bold-51" transform="translate(85.015625 0)"/>
     <use xlink:href="#DejaVuSans-Bold-4f" transform="translate(156.203125 0)"/>
     <use xlink:href="#DejaVuSans-Bold-4c" transform="translate(190.484375 0)"/>
     <use xlink:href="#DejaVuSans-Bold-51" transform="translate(224.765625 0)"/>
     <use xlink:href="#DejaVuSans-Bold-48" transform="translate(295.953125 0)"/>
     <use xlink:href="#DejaVuSans-Bold-3" transform="translate(363.78125 0)"/>
     <use xlink:href="#DejaVuSans-Bold-2c" transform="translate(398.59375 0)"/>
     <use xlink:href="#DejaVuSans-Bold-51" transform="translate(435.796875 0)"/>
     <use xlink:href="#DejaVuSans-Bold-49" transform="translate(506.984375 0)"/>
     <use xlink:href="#DejaVuSans-Bold-48" transform="translate(550.484375 0)"/>
     <use xlink:href="#DejaVuSans-Bold-55" transform="translate(618.3125 0)"/>
     <use xlink:href="#DejaVuSans-Bold-48" transform="translate(667.625 0)"/>
     <use xlink:href="#DejaVuSans-Bold-51" transform="translate(735.453125 0)"/>
     <use xlink:href="#DejaVuSans-Bold-46" transform="translate(806.640625 0)"/>
     <use xlink:href="#DejaVuSans-Bold-48" transform="translate(865.921875 0)"/>
    </g>
   </g>
  </g>
 </g>
 <defs>
  <clipPath id="p86cd7fcc85">
   <rect x="7.2" y="37.837812" width="253.636364" height="221.76"/>
  </clipPath>
  <clipPath id="p99d195d2bf">
   <rect x="311.563636" y="37.837812" width="253.636364" height="221.76"/>
  </clipPath>
 </defs>
</svg>
