<?xml version="1.0" encoding="utf-8" standalone="no"?>
<!DOCTYPE svg PUBLIC "-//W3C//DTD SVG 1.1//EN"
  "http://www.w3.org/Graphics/SVG/1.1/DTD/svg11.dtd">
<svg xmlns:xlink="http://www.w3.org/1999/xlink" width="460.8pt" height="347.04pt" viewBox="0 0 460.8 347.04" xmlns="http://www.w3.org/2000/svg" version="1.1">
 <metadata>
  <rdf:RDF xmlns:dc="http://purl.org/dc/elements/1.1/" xmlns:cc="http://creativecommons.org/ns#" xmlns:rdf="http://www.w3.org/1999/02/22-rdf-syntax-ns#">
   <cc:Work>
    <dc:type rdf:resource="http://purl.org/dc/dcmitype/StillImage"/>
    <dc:date>2026-07-06T17:32:28.104014</dc:date>
    <dc:format>image/svg+xml</dc:format>
    <dc:creator>
     <cc:Agent>
      <dc:title>Matplotlib v3.11.0, https://matplotlib.org/</dc:title>
     </cc:Agent>
    </dc:creator>
   </cc:Work>
  </rdf:RDF>
 </metadata>
 <defs>
  <style type="text/css">*{stroke-linejoin: round; stroke-linecap: butt}</style>
 </defs>
 <g id="figure_1">
  <g id="patch_1">
   <path d="M 0 347.04 
L 460.8 347.04 
L 460.8 -0 
L 0 -0 
L 0 347.04 
z
" style="fill: none"/>
  </g>
  <g id="axes_1">
   <g id="patch_2">
    <path d="M 180.998745 58.633425 
Q 118.798135 78.718202 58.72541 98.115879 
" style="fill: none; stroke: #888888; stroke-width: 2; stroke-linecap: round"/>
    <path d="M 63.146447 98.789993 
L 58.72541 98.115879 
L 61.917324 94.983518 
" style="fill: none; stroke: #888888; stroke-width: 2; stroke-linecap: round"/>
   </g>
   <g id="patch_3">
    <path d="M 51.84 148.586618 
Q 51.84 163.543369 51.84 176.264053 
" style="fill: none; stroke: #888888; stroke-width: 2; stroke-linecap: round"/>
    <path d="M 53.84 172.264053 
L 51.84 176.264053 
L 49.84 172.264053 
" style="fill: none; stroke: #888888; stroke-width: 2; stroke-linecap: round"/>
   </g>
   <g id="patch_4">
    <path d="M 185.76 62.097579 
Q 185.76 78.718586 185.76 93.103526 
" style="fill: none; stroke: #888888; stroke-width: 2; stroke-linecap: round"/>
    <path d="M 187.76 89.103526 
L 185.76 93.103526 
L 183.76 89.103526 
" style="fill: none; stroke: #888888; stroke-width: 2; stroke-linecap: round"/>
   </g>
   <g id="patch_5">
    <path d="M 185.76 148.586618 
Q 185.76 163.543369 185.76 176.264053 
" style="fill: none; stroke: #888888; stroke-width: 2; stroke-linecap: round"/>
    <path d="M 187.76 172.264053 
L 185.76 176.264053 
L 183.76 172.264053 
" style="fill: none; stroke: #888888; stroke-width: 2; stroke-linecap: round"/>
   </g>
   <g id="patch_6">
    <path d="M 190.521255 58.633425 
Q 252.721865 78.718202 312.79459 98.115879 
" style="fill: none; stroke: #888888; stroke-width: 2; stroke-linecap: round"/>
    <path d="M 309.602676 94.983518 
L 312.79459 98.115879 
L 308.373553 98.789993 
" style="fill: none; stroke: #888888; stroke-width: 2; stroke-linecap: round"/>
   </g>
   <g id="patch_7">
    <path d="M 319.68 148.586618 
Q 319.68 163.543369 319.68 176.264053 
" style="fill: none; stroke: #888888; stroke-width: 2; stroke-linecap: round"/>
    <path d="M 321.68 172.264053 
L 319.68 176.264053 
L 317.68 172.264053 
" style="fill: none; stroke: #888888; stroke-width: 2; stroke-linecap: round"/>
   </g>
   <g id="line2d_1">
    <path d="M 51.84 230.0688 
L 319.68 230.0688 
" clip-path="url(#pb9516ba99e)" style="fill: none; stroke: #aaaaaa; stroke-linecap: square"/>
   </g>
   <g id="line2d_2">
    <path d="M 185.76 230.0688 
L 185.76 246.7008 
" clip-path="url(#pb9516ba99e)" style="fill: none; stroke: #aaaaaa; stroke-linecap: square"/>
   </g>
   <g id="patch_8">
    <path d="M 109.872 57.096 
L 261.648 57.096 
Q 263.88 57.096 263.88 55.4328 
L 263.88 25.4952 
Q 263.88 23.832 261.648 23.832 
L 109.872 23.832 
Q 107.64 23.832 107.64 25.4952 
L 107.64 55.4328 
Q 107.64 57.096 109.872 57.096 
z
" clip-path="url(#pb9516ba99e)" style="fill: #d5f5e3; stroke: #555555; stroke-width: 1.5; stroke-linejoin: miter"/>
   </g>
   <g id="patch_9">
    <path d="M 9.432 143.5824 
L 94.248 143.5824 
Q 96.48 143.5824 96.48 141.9192 
L 96.48 105.3288 
Q 96.48 103.6656 94.248 103.6656 
L 9.432 103.6656 
Q 7.2 103.6656 7.2 105.3288 
L 7.2 141.9192 
Q 7.2 143.5824 9.432 143.5824 
z
" clip-path="url(#pb9516ba99e)" style="fill: #e0e0e0; stroke: #555555; stroke-width: 1.5; stroke-linejoin: miter"/>
   </g>
   <g id="patch_10">
    <path d="M 9.432 226.7424 
L 94.248 226.7424 
Q 96.48 226.7424 96.48 225.0792 
L 96.48 188.4888 
Q 96.48 186.8256 94.248 186.8256 
L 9.432 186.8256 
Q 7.2 186.8256 7.2 188.4888 
L 7.2 225.0792 
Q 7.2 226.7424 9.432 226.7424 
z
" clip-path="url(#pb9516ba99e)" style="fill: #e0e0e0; stroke: #555555; stroke-width: 1.5; stroke-linejoin: miter"/>
   </g>
   <g id="patch_11">
    <path d="M 143.352 143.5824 
L 228.168 143.5824 
Q 230.4 143.5824 230.4 141.9192 
L 230.4 105.3288 
Q 230.4 103.6656 228.168 103.6656 
L 143.352 103.6656 
Q 141.12 103.6656 141.12 105.3288 
L 141.12 141.9192 
Q 141.12 143.5824 143.352 143.5824 
z
" clip-path="url(#pb9516ba99e)" style="fill: #e0e0e0; stroke: #555555; stroke-width: 1.5; stroke-linejoin: miter"/>
   </g>
   <g id="patch_12">
    <path d="M 143.352 226.7424 
L 228.168 226.7424 
Q 230.4 226.7424 230.4 225.0792 
L 230.4 188.4888 
Q 230.4 186.8256 228.168 186.8256 
L 143.352 186.8256 
Q 141.12 186.8256 141.12 188.4888 
L 141.12 225.0792 
Q 141.12 226.7424 143.352 226.7424 
z
" clip-path="url(#pb9516ba99e)" style="fill: #e0e0e0; stroke: #555555; stroke-width: 1.5; stroke-linejoin: miter"/>
   </g>
   <g id="patch_13">
    <path d="M 277.272 143.5824 
L 362.088 143.5824 
Q 364.32 143.5824 364.32 141.9192 
L 364.32 105.3288 
Q 364.32 103.6656 362.088 103.6656 
L 277.272 103.6656 
Q 275.04 103.6656 275.04 105.3288 
L 275.04 141.9192 
Q 275.04 143.5824 277.272 143.5824 
z
" clip-path="url(#pb9516ba99e)" style="fill: #e0e0e0; stroke: #555555; stroke-width: 1.5; stroke-linejoin: miter"/>
   </g>
   <g id="patch_14">
    <path d="M 277.272 226.7424 
L 362.088 226.7424 
Q 364.32 226.7424 364.32 225.0792 
L 364.32 188.4888 
Q 364.32 186.8256 362.088 186.8256 
L 277.272 186.8256 
Q 275.04 186.8256 275.04 188.4888 
L 275.04 225.0792 
Q 275.04 226.7424 277.272 226.7424 
z
" clip-path="url(#pb9516ba99e)" style="fill: #e0e0e0; stroke: #555555; stroke-width: 1.5; stroke-linejoin: miter"/>
   </g>
   <g id="patch_15">
    <path d="M 98.712 331.524 
L 272.808 331.524 
Q 275.04 331.524 275.04 329.8608 
L 275.04 283.2912 
Q 275.04 281.628 272.808 281.628 
L 98.712 281.628 
Q 96.48 281.628 96.48 283.2912 
L 96.48 329.8608 
Q 96.48 331.524 98.712 331.524 
z
" clip-path="url(#pb9516ba99e)" style="fill: #d5f5e3; stroke: #555555; stroke-width: 1.5; stroke-linejoin: miter"/>
   </g>
   <g id="text_1">
    <!-- Training Data -->
    <g style="fill: #1a1a1a" transform="translate(149.178984 43.321852) scale(0.11 -0.11)">
     <defs>
      <path id="DejaVuSans-37" d="M -19 4666 
L 3928 4666 
L 3928 4134 
L 2272 4134 
L 2272 0 
L 1638 0 
L 1638 4134 
L -19 4134 
L -19 4666 
z
" transform="scale(0.015625)"/>
      <path id="DejaVuSans-55" d="M 2631 2963 
Q 2534 3019 2420 3045 
Q 2306 3072 2169 3072 
Q 1681 3072 1420 2755 
Q 1159 2438 1159 1844 
L 1159 0 
L 581 0 
L 581 3500 
L 1159 3500 
L 1159 2956 
Q 1341 3275 1631 3429 
Q 1922 3584 2338 3584 
Q 2397 3584 2469 3576 
Q 2541 3569 2628 3553 
L 2631 2963 
z
" transform="scale(0.015625)"/>
      <path id="DejaVuSans-44" d="M 2194 1759 
Q 1497 1759 1228 1600 
Q 959 1441 959 1056 
Q 959 750 1161 570 
Q 1363 391 1709 391 
Q 2188 391 2477 730 
Q 2766 1069 2766 1631 
L 2766 1759 
L 2194 1759 
z
M 3341 1997 
L 3341 0 
L 2766 0 
L 2766 531 
Q 2569 213 2275 61 
Q 1981 -91 1556 -91 
Q 1019 -91 701 211 
Q 384 513 384 1019 
Q 384 1609 779 1909 
Q 1175 2209 1959 2209 
L 2766 2209 
L 2766 2266 
Q 2766 2663 2505 2880 
Q 2244 3097 1772 3097 
Q 1472 3097 1187 3025 
Q 903 2953 641 2809 
L 641 3341 
Q 956 3463 1253 3523 
Q 1550 3584 1831 3584 
Q 2591 3584 2966 3190 
Q 3341 2797 3341 1997 
z
" transform="scale(0.015625)"/>
      <path id="DejaVuSans-4c" d="M 603 3500 
L 1178 3500 
L 1178 0 
L 603 0 
L 603 3500 
z
M 603 4863 
L 1178 4863 
L 1178 4134 
L 603 4134 
L 603 4863 
z
" transform="scale(0.015625)"/>
      <path id="DejaVuSans-51" d="M 3513 2113 
L 3513 0 
L 2938 0 
L 2938 2094 
Q 2938 2591 2744 2837 
Q 2550 3084 2163 3084 
Q 1697 3084 1428 2787 
Q 1159 2491 1159 1978 
L 1159 0 
L 581 0 
L 581 3500 
L 1159 3500 
L 1159 2956 
Q 1366 3272 1645 3428 
Q 1925 3584 2291 3584 
Q 2894 3584 3203 3211 
Q 3513 2838 3513 2113 
z
" transform="scale(0.015625)"/>
      <path id="DejaVuSans-4a" d="M 2906 1791 
Q 2906 2416 2648 2759 
Q 2391 3103 1925 3103 
Q 1463 3103 1205 2759 
Q 947 2416 947 1791 
Q 947 1169 1205 825 
Q 1463 481 1925 481 
Q 2391 481 2648 825 
Q 2906 1169 2906 1791 
z
M 3481 434 
Q 3481 -459 3084 -895 
Q 2688 -1331 1869 -1331 
Q 1566 -1331 1297 -1286 
Q 1028 -1241 775 -1147 
L 775 -588 
Q 1028 -725 1275 -790 
Q 1522 -856 1778 -856 
Q 2344 -856 2625 -561 
Q 2906 -266 2906 331 
L 2906 616 
Q 2728 306 2450 153 
Q 2172 0 1784 0 
Q 1141 0 747 490 
Q 353 981 353 1791 
Q 353 2603 747 3093 
Q 1141 3584 1784 3584 
Q 2172 3584 2450 3431 
Q 2728 3278 2906 2969 
L 2906 3500 
L 3481 3500 
L 3481 434 
z
" transform="scale(0.015625)"/>
      <path id="DejaVuSans-3" transform="scale(0.015625)"/>
      <path id="DejaVuSans-27" d="M 1259 4147 
L 1259 519 
L 2022 519 
Q 2988 519 3436 956 
Q 3884 1394 3884 2338 
Q 3884 3275 3436 3711 
Q 2988 4147 2022 4147 
L 1259 4147 
z
M 628 4666 
L 1925 4666 
Q 3281 4666 3915 4102 
Q 4550 3538 4550 2338 
Q 4550 1131 3912 565 
Q 3275 0 1925 0 
L 628 0 
L 628 4666 
z
" transform="scale(0.015625)"/>
      <path id="DejaVuSans-57" d="M 1172 4494 
L 1172 3500 
L 2356 3500 
L 2356 3053 
L 1172 3053 
L 1172 1153 
Q 1172 725 1289 603 
Q 1406 481 1766 481 
L 2356 481 
L 2356 0 
L 1766 0 
Q 1100 0 847 248 
Q 594 497 594 1153 
L 594 3053 
L 172 3053 
L 172 3500 
L 594 3500 
L 594 4494 
L 1172 4494 
z
" transform="scale(0.015625)"/>
     </defs>
     <use xlink:href="#DejaVuSans-37"/>
     <use xlink:href="#DejaVuSans-55" transform="translate(46.375 0)"/>
     <use xlink:href="#DejaVuSans-44" transform="translate(87.484375 0)"/>
     <use xlink:href="#DejaVuSans-4c" transform="translate(148.765625 0)"/>
     <use xlink:href="#DejaVuSans-51" transform="translate(176.546875 0)"/>
     <use xlink:href="#DejaVuSans-4c" transform="translate(239.921875 0)"/>
     <use xlink:href="#DejaVuSans-51" transform="translate(267.703125 0)"/>
     <use xlink:href="#DejaVuSans-4a" transform="translate(331.078125 0)"/>
     <use xlink:href="#DejaVuSans-3" transform="translate(394.5625 0)"/>
     <use xlink:href="#DejaVuSans-27" transform="translate(426.34375 0)"/>
     <use xlink:href="#DejaVuSans-44" transform="translate(503.34375 0)"/>
     <use xlink:href="#DejaVuSans-57" transform="translate(564.625 0)"/>
     <use xlink:href="#DejaVuSans-44" transform="translate(603.828125 0)"/>
    </g>
   </g>
   <g id="text_2">
    <!-- Bootstrap -->
    <g style="fill: #1a1a1a" transform="translate(33.564023 121.071217) scale(0.075 -0.075)">
     <defs>
      <path id="DejaVuSans-25" d="M 1259 2228 
L 1259 519 
L 2272 519 
Q 2781 519 3026 730 
Q 3272 941 3272 1375 
Q 3272 1813 3026 2020 
Q 2781 2228 2272 2228 
L 1259 2228 
z
M 1259 4147 
L 1259 2741 
L 2194 2741 
Q 2656 2741 2882 2914 
Q 3109 3088 3109 3444 
Q 3109 3797 2882 3972 
Q 2656 4147 2194 4147 
L 1259 4147 
z
M 628 4666 
L 2241 4666 
Q 2963 4666 3353 4366 
Q 3744 4066 3744 3513 
Q 3744 3084 3544 2831 
Q 3344 2578 2956 2516 
Q 3422 2416 3680 2098 
Q 3938 1781 3938 1306 
Q 3938 681 3513 340 
Q 3088 0 2303 0 
L 628 0 
L 628 4666 
z
" transform="scale(0.015625)"/>
      <path id="DejaVuSans-52" d="M 1959 3097 
Q 1497 3097 1228 2736 
Q 959 2375 959 1747 
Q 959 1119 1226 758 
Q 1494 397 1959 397 
Q 2419 397 2687 759 
Q 2956 1122 2956 1747 
Q 2956 2369 2687 2733 
Q 2419 3097 1959 3097 
z
M 1959 3584 
Q 2709 3584 3137 3096 
Q 3566 2609 3566 1747 
Q 3566 888 3137 398 
Q 2709 -91 1959 -91 
Q 1206 -91 779 398 
Q 353 888 353 1747 
Q 353 2609 779 3096 
Q 1206 3584 1959 3584 
z
" transform="scale(0.015625)"/>
      <path id="DejaVuSans-56" d="M 2834 3397 
L 2834 2853 
Q 2591 2978 2328 3040 
Q 2066 3103 1784 3103 
Q 1356 3103 1142 2972 
Q 928 2841 928 2578 
Q 928 2378 1081 2264 
Q 1234 2150 1697 2047 
L 1894 2003 
Q 2506 1872 2764 1633 
Q 3022 1394 3022 966 
Q 3022 478 2636 193 
Q 2250 -91 1575 -91 
Q 1294 -91 989 -36 
Q 684 19 347 128 
L 347 722 
Q 666 556 975 473 
Q 1284 391 1588 391 
Q 1994 391 2212 530 
Q 2431 669 2431 922 
Q 2431 1156 2273 1281 
Q 2116 1406 1581 1522 
L 1381 1569 
Q 847 1681 609 1914 
Q 372 2147 372 2553 
Q 372 3047 722 3315 
Q 1072 3584 1716 3584 
Q 2034 3584 2315 3537 
Q 2597 3491 2834 3397 
z
" transform="scale(0.015625)"/>
      <path id="DejaVuSans-53" d="M 1159 525 
L 1159 -1331 
L 581 -1331 
L 581 3500 
L 1159 3500 
L 1159 2969 
Q 1341 3281 1617 3432 
Q 1894 3584 2278 3584 
Q 2916 3584 3314 3078 
Q 3713 2572 3713 1747 
Q 3713 922 3314 415 
Q 2916 -91 2278 -91 
Q 1894 -91 1617 61 
Q 1341 213 1159 525 
z
M 3116 1747 
Q 3116 2381 2855 2742 
Q 2594 3103 2138 3103 
Q 1681 3103 1420 2742 
Q 1159 2381 1159 1747 
Q 1159 1113 1420 752 
Q 1681 391 2138 391 
Q 2594 391 2855 752 
Q 3116 1113 3116 1747 
z
" transform="scale(0.015625)"/>
     </defs>
     <use xlink:href="#DejaVuSans-25"/>
     <use xlink:href="#DejaVuSans-52" transform="translate(68.609375 0)"/>
     <use xlink:href="#DejaVuSans-52" transform="translate(129.796875 0)"/>
     <use xlink:href="#DejaVuSans-57" transform="translate(190.984375 0)"/>
     <use xlink:href="#DejaVuSans-56" transform="translate(230.1875 0)"/>
     <use xlink:href="#DejaVuSans-57" transform="translate(282.28125 0)"/>
     <use xlink:href="#DejaVuSans-55" transform="translate(321.484375 0)"/>
     <use xlink:href="#DejaVuSans-44" transform="translate(362.59375 0)"/>
     <use xlink:href="#DejaVuSans-53" transform="translate(423.875 0)"/>
    </g>
    <!-- Sample 1 -->
    <g style="fill: #1a1a1a" transform="translate(34.200938 130.073268) scale(0.075 -0.075)">
     <defs>
      <path id="DejaVuSans-36" d="M 3425 4513 
L 3425 3897 
Q 3066 4069 2747 4153 
Q 2428 4238 2131 4238 
Q 1616 4238 1336 4038 
Q 1056 3838 1056 3469 
Q 1056 3159 1242 3001 
Q 1428 2844 1947 2747 
L 2328 2669 
Q 3034 2534 3370 2195 
Q 3706 1856 3706 1288 
Q 3706 609 3251 259 
Q 2797 -91 1919 -91 
Q 1588 -91 1214 -16 
Q 841 59 441 206 
L 441 856 
Q 825 641 1194 531 
Q 1563 422 1919 422 
Q 2459 422 2753 634 
Q 3047 847 3047 1241 
Q 3047 1584 2836 1778 
Q 2625 1972 2144 2069 
L 1759 2144 
Q 1053 2284 737 2584 
Q 422 2884 422 3419 
Q 422 4038 858 4394 
Q 1294 4750 2059 4750 
Q 2388 4750 2728 4690 
Q 3069 4631 3425 4513 
z
" transform="scale(0.015625)"/>
      <path id="DejaVuSans-50" d="M 3328 2828 
Q 3544 3216 3844 3400 
Q 4144 3584 4550 3584 
Q 5097 3584 5394 3201 
Q 5691 2819 5691 2113 
L 5691 0 
L 5113 0 
L 5113 2094 
Q 5113 2597 4934 2840 
Q 4756 3084 4391 3084 
Q 3944 3084 3684 2787 
Q 3425 2491 3425 1978 
L 3425 0 
L 2847 0 
L 2847 2094 
Q 2847 2600 2669 2842 
Q 2491 3084 2119 3084 
Q 1678 3084 1418 2786 
Q 1159 2488 1159 1978 
L 1159 0 
L 581 0 
L 581 3500 
L 1159 3500 
L 1159 2956 
Q 1356 3278 1631 3431 
Q 1906 3584 2284 3584 
Q 2666 3584 2933 3390 
Q 3200 3197 3328 2828 
z
" transform="scale(0.015625)"/>
      <path id="DejaVuSans-4f" d="M 603 4863 
L 1178 4863 
L 1178 0 
L 603 0 
L 603 4863 
z
" transform="scale(0.015625)"/>
      <path id="DejaVuSans-48" d="M 3597 1894 
L 3597 1613 
L 953 1613 
Q 991 1019 1311 708 
Q 1631 397 2203 397 
Q 2534 397 2845 478 
Q 3156 559 3463 722 
L 3463 178 
Q 3153 47 2828 -22 
Q 2503 -91 2169 -91 
Q 1331 -91 842 396 
Q 353 884 353 1716 
Q 353 2575 817 3079 
Q 1281 3584 2069 3584 
Q 2775 3584 3186 3129 
Q 3597 2675 3597 1894 
z
M 3022 2063 
Q 3016 2534 2758 2815 
Q 2500 3097 2075 3097 
Q 1594 3097 1305 2825 
Q 1016 2553 972 2059 
L 3022 2063 
z
" transform="scale(0.015625)"/>
      <path id="DejaVuSans-14" d="M 794 531 
L 1825 531 
L 1825 4091 
L 703 3866 
L 703 4441 
L 1819 4666 
L 2450 4666 
L 2450 531 
L 3481 531 
L 3481 0 
L 794 0 
L 794 531 
z
" transform="scale(0.015625)"/>
     </defs>
     <use xlink:href="#DejaVuSans-36"/>
     <use xlink:href="#DejaVuSans-44" transform="translate(63.484375 0)"/>
     <use xlink:href="#DejaVuSans-50" transform="translate(124.765625 0)"/>
     <use xlink:href="#DejaVuSans-53" transform="translate(222.171875 0)"/>
     <use xlink:href="#DejaVuSans-4f" transform="translate(285.65625 0)"/>
     <use xlink:href="#DejaVuSans-48" transform="translate(313.4375 0)"/>
     <use xlink:href="#DejaVuSans-3" transform="translate(374.96875 0)"/>
     <use xlink:href="#DejaVuSans-14" transform="translate(406.75 0)"/>
    </g>
   </g>
   <g id="text_3">
    <!-- Tree 1 -->
    <g style="fill: #1a1a1a" transform="translate(40.449375 204.231217) scale(0.075 -0.075)">
     <use xlink:href="#DejaVuSans-37"/>
     <use xlink:href="#DejaVuSans-55" transform="translate(46.375 0)"/>
     <use xlink:href="#DejaVuSans-48" transform="translate(85.28125 0)"/>
     <use xlink:href="#DejaVuSans-48" transform="translate(146.8125 0)"/>
     <use xlink:href="#DejaVuSans-3" transform="translate(208.34375 0)"/>
     <use xlink:href="#DejaVuSans-14" transform="translate(240.125 0)"/>
    </g>
    <!-- (high var) -->
    <g style="fill: #1a1a1a" transform="translate(33.487266 213.233268) scale(0.075 -0.075)">
     <defs>
      <path id="DejaVuSans-b" d="M 1984 4856 
Q 1566 4138 1362 3434 
Q 1159 2731 1159 2009 
Q 1159 1288 1364 580 
Q 1569 -128 1984 -844 
L 1484 -844 
Q 1016 -109 783 600 
Q 550 1309 550 2009 
Q 550 2706 781 3412 
Q 1013 4119 1484 4856 
L 1984 4856 
z
" transform="scale(0.015625)"/>
      <path id="DejaVuSans-4b" d="M 3513 2113 
L 3513 0 
L 2938 0 
L 2938 2094 
Q 2938 2591 2744 2837 
Q 2550 3084 2163 3084 
Q 1697 3084 1428 2787 
Q 1159 2491 1159 1978 
L 1159 0 
L 581 0 
L 581 4863 
L 1159 4863 
L 1159 2956 
Q 1366 3272 1645 3428 
Q 1925 3584 2291 3584 
Q 2894 3584 3203 3211 
Q 3513 2838 3513 2113 
z
" transform="scale(0.015625)"/>
      <path id="DejaVuSans-59" d="M 191 3500 
L 800 3500 
L 1894 563 
L 2988 3500 
L 3597 3500 
L 2284 0 
L 1503 0 
L 191 3500 
z
" transform="scale(0.015625)"/>
      <path id="DejaVuSans-c" d="M 513 4856 
L 1013 4856 
Q 1481 4119 1714 3412 
Q 1947 2706 1947 2009 
Q 1947 1309 1714 600 
Q 1481 -109 1013 -844 
L 513 -844 
Q 928 -128 1133 580 
Q 1338 1288 1338 2009 
Q 1338 2731 1133 3434 
Q 928 4138 513 4856 
z
" transform="scale(0.015625)"/>
     </defs>
     <use xlink:href="#DejaVuSans-b"/>
     <use xlink:href="#DejaVuSans-4b" transform="translate(39.015625 0)"/>
     <use xlink:href="#DejaVuSans-4c" transform="translate(102.390625 0)"/>
     <use xlink:href="#DejaVuSans-4a" transform="translate(130.171875 0)"/>
     <use xlink:href="#DejaVuSans-4b" transform="translate(193.65625 0)"/>
     <use xlink:href="#DejaVuSans-3" transform="translate(257.03125 0)"/>
     <use xlink:href="#DejaVuSans-59" transform="translate(288.8125 0)"/>
     <use xlink:href="#DejaVuSans-44" transform="translate(348 0)"/>
     <use xlink:href="#DejaVuSans-55" transform="translate(409.28125 0)"/>
     <use xlink:href="#DejaVuSans-c" transform="translate(450.390625 0)"/>
    </g>
   </g>
   <g id="text_4">
    <!-- Bootstrap -->
    <g style="fill: #1a1a1a" transform="translate(167.484023 121.071217) scale(0.075 -0.075)">
     <use xlink:href="#DejaVuSans-25"/>
     <use xlink:href="#DejaVuSans-52" transform="translate(68.609375 0)"/>
     <use xlink:href="#DejaVuSans-52" transform="translate(129.796875 0)"/>
     <use xlink:href="#DejaVuSans-57" transform="translate(190.984375 0)"/>
     <use xlink:href="#DejaVuSans-56" transform="translate(230.1875 0)"/>
     <use xlink:href="#DejaVuSans-57" transform="translate(282.28125 0)"/>
     <use xlink:href="#DejaVuSans-55" transform="translate(321.484375 0)"/>
     <use xlink:href="#DejaVuSans-44" transform="translate(362.59375 0)"/>
     <use xlink:href="#DejaVuSans-53" transform="translate(423.875 0)"/>
    </g>
    <!-- Sample 2 -->
    <g style="fill: #1a1a1a" transform="translate(168.120937 130.073268) scale(0.075 -0.075)">
     <defs>
      <path id="DejaVuSans-15" d="M 1228 531 
L 3431 531 
L 3431 0 
L 469 0 
L 469 531 
Q 828 903 1448 1529 
Q 2069 2156 2228 2338 
Q 2531 2678 2651 2914 
Q 2772 3150 2772 3378 
Q 2772 3750 2511 3984 
Q 2250 4219 1831 4219 
Q 1534 4219 1204 4116 
Q 875 4013 500 3803 
L 500 4441 
Q 881 4594 1212 4672 
Q 1544 4750 1819 4750 
Q 2544 4750 2975 4387 
Q 3406 4025 3406 3419 
Q 3406 3131 3298 2873 
Q 3191 2616 2906 2266 
Q 2828 2175 2409 1742 
Q 1991 1309 1228 531 
z
" transform="scale(0.015625)"/>
     </defs>
     <use xlink:href="#DejaVuSans-36"/>
     <use xlink:href="#DejaVuSans-44" transform="translate(63.484375 0)"/>
     <use xlink:href="#DejaVuSans-50" transform="translate(124.765625 0)"/>
     <use xlink:href="#DejaVuSans-53" transform="translate(222.171875 0)"/>
     <use xlink:href="#DejaVuSans-4f" transform="translate(285.65625 0)"/>
     <use xlink:href="#DejaVuSans-48" transform="translate(313.4375 0)"/>
     <use xlink:href="#DejaVuSans-3" transform="translate(374.96875 0)"/>
     <use xlink:href="#DejaVuSans-15" transform="translate(406.75 0)"/>
    </g>
   </g>
   <g id="text_5">
    <!-- Tree 2 -->
    <g style="fill: #1a1a1a" transform="translate(174.369375 204.231217) scale(0.075 -0.075)">
     <use xlink:href="#DejaVuSans-37"/>
     <use xlink:href="#DejaVuSans-55" transform="translate(46.375 0)"/>
     <use xlink:href="#DejaVuSans-48" transform="translate(85.28125 0)"/>
     <use xlink:href="#DejaVuSans-48" transform="translate(146.8125 0)"/>
     <use xlink:href="#DejaVuSans-3" transform="translate(208.34375 0)"/>
     <use xlink:href="#DejaVuSans-15" transform="translate(240.125 0)"/>
    </g>
    <!-- (high var) -->
    <g style="fill: #1a1a1a" transform="translate(167.407266 213.233268) scale(0.075 -0.075)">
     <use xlink:href="#DejaVuSans-b"/>
     <use xlink:href="#DejaVuSans-4b" transform="translate(39.015625 0)"/>
     <use xlink:href="#DejaVuSans-4c" transform="translate(102.390625 0)"/>
     <use xlink:href="#DejaVuSans-4a" transform="translate(130.171875 0)"/>
     <use xlink:href="#DejaVuSans-4b" transform="translate(193.65625 0)"/>
     <use xlink:href="#DejaVuSans-3" transform="translate(257.03125 0)"/>
     <use xlink:href="#DejaVuSans-59" transform="translate(288.8125 0)"/>
     <use xlink:href="#DejaVuSans-44" transform="translate(348 0)"/>
     <use xlink:href="#DejaVuSans-55" transform="translate(409.28125 0)"/>
     <use xlink:href="#DejaVuSans-c" transform="translate(450.390625 0)"/>
    </g>
   </g>
   <g id="text_6">
    <!-- Bootstrap -->
    <g style="fill: #1a1a1a" transform="translate(301.404023 121.071217) scale(0.075 -0.075)">
     <use xlink:href="#DejaVuSans-25"/>
     <use xlink:href="#DejaVuSans-52" transform="translate(68.609375 0)"/>
     <use xlink:href="#DejaVuSans-52" transform="translate(129.796875 0)"/>
     <use xlink:href="#DejaVuSans-57" transform="translate(190.984375 0)"/>
     <use xlink:href="#DejaVuSans-56" transform="translate(230.1875 0)"/>
     <use xlink:href="#DejaVuSans-57" transform="translate(282.28125 0)"/>
     <use xlink:href="#DejaVuSans-55" transform="translate(321.484375 0)"/>
     <use xlink:href="#DejaVuSans-44" transform="translate(362.59375 0)"/>
     <use xlink:href="#DejaVuSans-53" transform="translate(423.875 0)"/>
    </g>
    <!-- Sample 3 -->
    <g style="fill: #1a1a1a" transform="translate(302.040937 130.073268) scale(0.075 -0.075)">
     <defs>
      <path id="DejaVuSans-16" d="M 2597 2516 
Q 3050 2419 3304 2112 
Q 3559 1806 3559 1356 
Q 3559 666 3084 287 
Q 2609 -91 1734 -91 
Q 1441 -91 1130 -33 
Q 819 25 488 141 
L 488 750 
Q 750 597 1062 519 
Q 1375 441 1716 441 
Q 2309 441 2620 675 
Q 2931 909 2931 1356 
Q 2931 1769 2642 2001 
Q 2353 2234 1838 2234 
L 1294 2234 
L 1294 2753 
L 1863 2753 
Q 2328 2753 2575 2939 
Q 2822 3125 2822 3475 
Q 2822 3834 2567 4026 
Q 2313 4219 1838 4219 
Q 1578 4219 1281 4162 
Q 984 4106 628 3988 
L 628 4550 
Q 988 4650 1302 4700 
Q 1616 4750 1894 4750 
Q 2613 4750 3031 4423 
Q 3450 4097 3450 3541 
Q 3450 3153 3228 2886 
Q 3006 2619 2597 2516 
z
" transform="scale(0.015625)"/>
     </defs>
     <use xlink:href="#DejaVuSans-36"/>
     <use xlink:href="#DejaVuSans-44" transform="translate(63.484375 0)"/>
     <use xlink:href="#DejaVuSans-50" transform="translate(124.765625 0)"/>
     <use xlink:href="#DejaVuSans-53" transform="translate(222.171875 0)"/>
     <use xlink:href="#DejaVuSans-4f" transform="translate(285.65625 0)"/>
     <use xlink:href="#DejaVuSans-48" transform="translate(313.4375 0)"/>
     <use xlink:href="#DejaVuSans-3" transform="translate(374.96875 0)"/>
     <use xlink:href="#DejaVuSans-16" transform="translate(406.75 0)"/>
    </g>
   </g>
   <g id="text_7">
    <!-- Tree 3 -->
    <g style="fill: #1a1a1a" transform="translate(308.289375 204.231217) scale(0.075 -0.075)">
     <use xlink:href="#DejaVuSans-37"/>
     <use xlink:href="#DejaVuSans-55" transform="translate(46.375 0)"/>
     <use xlink:href="#DejaVuSans-48" transform="translate(85.28125 0)"/>
     <use xlink:href="#DejaVuSans-48" transform="translate(146.8125 0)"/>
     <use xlink:href="#DejaVuSans-3" transform="translate(208.34375 0)"/>
     <use xlink:href="#DejaVuSans-16" transform="translate(240.125 0)"/>
    </g>
    <!-- (high var) -->
    <g style="fill: #1a1a1a" transform="translate(301.327266 213.233268) scale(0.075 -0.075)">
     <use xlink:href="#DejaVuSans-b"/>
     <use xlink:href="#DejaVuSans-4b" transform="translate(39.015625 0)"/>
     <use xlink:href="#DejaVuSans-4c" transform="translate(102.390625 0)"/>
     <use xlink:href="#DejaVuSans-4a" transform="translate(130.171875 0)"/>
     <use xlink:href="#DejaVuSans-4b" transform="translate(193.65625 0)"/>
     <use xlink:href="#DejaVuSans-3" transform="translate(257.03125 0)"/>
     <use xlink:href="#DejaVuSans-59" transform="translate(288.8125 0)"/>
     <use xlink:href="#DejaVuSans-44" transform="translate(348 0)"/>
     <use xlink:href="#DejaVuSans-55" transform="translate(409.28125 0)"/>
     <use xlink:href="#DejaVuSans-c" transform="translate(450.390625 0)"/>
    </g>
   </g>
   <g id="patch_16">
    <path d="M 185.76 248.70265 
Q 185.76 263.331977 185.76 275.725237 
" style="fill: none; stroke: #888888; stroke-width: 2; stroke-linecap: round"/>
    <path d="M 187.76 271.725237 
L 185.76 275.725237 
L 183.76 271.725237 
" style="fill: none; stroke: #888888; stroke-width: 2; stroke-linecap: round"/>
   </g>
   <g id="text_8">
    <!-- AVERAGE / VOTE -->
    <g style="fill: #1a1a1a" transform="translate(148.263047 303.51266) scale(0.09 -0.09)">
     <defs>
      <path id="DejaVuSans-24" d="M 2188 4044 
L 1331 1722 
L 3047 1722 
L 2188 4044 
z
M 1831 4666 
L 2547 4666 
L 4325 0 
L 3669 0 
L 3244 1197 
L 1141 1197 
L 716 0 
L 50 0 
L 1831 4666 
z
" transform="scale(0.015625)"/>
      <path id="DejaVuSans-39" d="M 1831 0 
L 50 4666 
L 709 4666 
L 2188 738 
L 3669 4666 
L 4325 4666 
L 2547 0 
L 1831 0 
z
" transform="scale(0.015625)"/>
      <path id="DejaVuSans-28" d="M 628 4666 
L 3578 4666 
L 3578 4134 
L 1259 4134 
L 1259 2753 
L 3481 2753 
L 3481 2222 
L 1259 2222 
L 1259 531 
L 3634 531 
L 3634 0 
L 628 0 
L 628 4666 
z
" transform="scale(0.015625)"/>
      <path id="DejaVuSans-35" d="M 2841 2188 
Q 3044 2119 3236 1894 
Q 3428 1669 3622 1275 
L 4263 0 
L 3584 0 
L 2988 1197 
Q 2756 1666 2539 1819 
Q 2322 1972 1947 1972 
L 1259 1972 
L 1259 0 
L 628 0 
L 628 4666 
L 2053 4666 
Q 2853 4666 3247 4331 
Q 3641 3997 3641 3322 
Q 3641 2881 3436 2590 
Q 3231 2300 2841 2188 
z
M 1259 4147 
L 1259 2491 
L 2053 2491 
Q 2509 2491 2742 2702 
Q 2975 2913 2975 3322 
Q 2975 3731 2742 3939 
Q 2509 4147 2053 4147 
L 1259 4147 
z
" transform="scale(0.015625)"/>
      <path id="DejaVuSans-2a" d="M 3809 666 
L 3809 1919 
L 2778 1919 
L 2778 2438 
L 4434 2438 
L 4434 434 
Q 4069 175 3628 42 
Q 3188 -91 2688 -91 
Q 1594 -91 976 548 
Q 359 1188 359 2328 
Q 359 3472 976 4111 
Q 1594 4750 2688 4750 
Q 3144 4750 3555 4637 
Q 3966 4525 4313 4306 
L 4313 3634 
Q 3963 3931 3569 4081 
Q 3175 4231 2741 4231 
Q 1884 4231 1454 3753 
Q 1025 3275 1025 2328 
Q 1025 1384 1454 906 
Q 1884 428 2741 428 
Q 3075 428 3337 486 
Q 3600 544 3809 666 
z
" transform="scale(0.015625)"/>
      <path id="DejaVuSans-12" d="M 1625 4666 
L 2156 4666 
L 531 -594 
L 0 -594 
L 1625 4666 
z
" transform="scale(0.015625)"/>
      <path id="DejaVuSans-32" d="M 2522 4238 
Q 1834 4238 1429 3725 
Q 1025 3213 1025 2328 
Q 1025 1447 1429 934 
Q 1834 422 2522 422 
Q 3209 422 3611 934 
Q 4013 1447 4013 2328 
Q 4013 3213 3611 3725 
Q 3209 4238 2522 4238 
z
M 2522 4750 
Q 3503 4750 4090 4092 
Q 4678 3434 4678 2328 
Q 4678 1225 4090 567 
Q 3503 -91 2522 -91 
Q 1538 -91 948 565 
Q 359 1222 359 2328 
Q 359 3434 948 4092 
Q 1538 4750 2522 4750 
z
" transform="scale(0.015625)"/>
     </defs>
     <use xlink:href="#DejaVuSans-24"/>
     <use xlink:href="#DejaVuSans-39" transform="translate(62.015625 0)"/>
     <use xlink:href="#DejaVuSans-28" transform="translate(130.421875 0)"/>
     <use xlink:href="#DejaVuSans-35" transform="translate(193.609375 0)"/>
     <use xlink:href="#DejaVuSans-24" transform="translate(259.046875 0)"/>
     <use xlink:href="#DejaVuSans-2a" transform="translate(325.703125 0)"/>
     <use xlink:href="#DejaVuSans-28" transform="translate(403.1875 0)"/>
     <use xlink:href="#DejaVuSans-3" transform="translate(466.375 0)"/>
     <use xlink:href="#DejaVuSans-12" transform="translate(498.15625 0)"/>
     <use xlink:href="#DejaVuSans-3" transform="translate(531.84375 0)"/>
     <use xlink:href="#DejaVuSans-39" transform="translate(563.625 0)"/>
     <use xlink:href="#DejaVuSans-32" transform="translate(630.28125 0)"/>
     <use xlink:href="#DejaVuSans-37" transform="translate(709 0)"/>
     <use xlink:href="#DejaVuSans-28" transform="translate(770.078125 0)"/>
    </g>
    <!-- (reduces variance) -->
    <g style="fill: #1a1a1a" transform="translate(143.62875 314.315121) scale(0.09 -0.09)">
     <defs>
      <path id="DejaVuSans-47" d="M 2906 2969 
L 2906 4863 
L 3481 4863 
L 3481 0 
L 2906 0 
L 2906 525 
Q 2725 213 2448 61 
Q 2172 -91 1784 -91 
Q 1150 -91 751 415 
Q 353 922 353 1747 
Q 353 2572 751 3078 
Q 1150 3584 1784 3584 
Q 2172 3584 2448 3432 
Q 2725 3281 2906 2969 
z
M 947 1747 
Q 947 1113 1208 752 
Q 1469 391 1925 391 
Q 2381 391 2643 752 
Q 2906 1113 2906 1747 
Q 2906 2381 2643 2742 
Q 2381 3103 1925 3103 
Q 1469 3103 1208 2742 
Q 947 2381 947 1747 
z
" transform="scale(0.015625)"/>
      <path id="DejaVuSans-58" d="M 544 1381 
L 544 3500 
L 1119 3500 
L 1119 1403 
Q 1119 906 1312 657 
Q 1506 409 1894 409 
Q 2359 409 2629 706 
Q 2900 1003 2900 1516 
L 2900 3500 
L 3475 3500 
L 3475 0 
L 2900 0 
L 2900 538 
Q 2691 219 2414 64 
Q 2138 -91 1772 -91 
Q 1169 -91 856 284 
Q 544 659 544 1381 
z
M 1991 3584 
L 1991 3584 
z
" transform="scale(0.015625)"/>
      <path id="DejaVuSans-46" d="M 3122 3366 
L 3122 2828 
Q 2878 2963 2633 3030 
Q 2388 3097 2138 3097 
Q 1578 3097 1268 2742 
Q 959 2388 959 1747 
Q 959 1106 1268 751 
Q 1578 397 2138 397 
Q 2388 397 2633 464 
Q 2878 531 3122 666 
L 3122 134 
Q 2881 22 2623 -34 
Q 2366 -91 2075 -91 
Q 1284 -91 818 406 
Q 353 903 353 1747 
Q 353 2603 823 3093 
Q 1294 3584 2113 3584 
Q 2378 3584 2631 3529 
Q 2884 3475 3122 3366 
z
" transform="scale(0.015625)"/>
     </defs>
     <use xlink:href="#DejaVuSans-b"/>
     <use xlink:href="#DejaVuSans-55" transform="translate(39.015625 0)"/>
     <use xlink:href="#DejaVuSans-48" transform="translate(77.921875 0)"/>
     <use xlink:href="#DejaVuSans-47" transform="translate(139.453125 0)"/>
     <use xlink:href="#DejaVuSans-58" transform="translate(202.9375 0)"/>
     <use xlink:href="#DejaVuSans-46" transform="translate(266.3125 0)"/>
     <use xlink:href="#DejaVuSans-48" transform="translate(321.296875 0)"/>
     <use xlink:href="#DejaVuSans-56" transform="translate(382.828125 0)"/>
     <use xlink:href="#DejaVuSans-3" transform="translate(434.921875 0)"/>
     <use xlink:href="#DejaVuSans-59" transform="translate(466.703125 0)"/>
     <use xlink:href="#DejaVuSans-44" transform="translate(525.890625 0)"/>
     <use xlink:href="#DejaVuSans-55" transform="translate(587.171875 0)"/>
     <use xlink:href="#DejaVuSans-4c" transform="translate(628.28125 0)"/>
     <use xlink:href="#DejaVuSans-44" transform="translate(656.0625 0)"/>
     <use xlink:href="#DejaVuSans-51" transform="translate(717.34375 0)"/>
     <use xlink:href="#DejaVuSans-46" transform="translate(780.71875 0)"/>
     <use xlink:href="#DejaVuSans-48" transform="translate(835.703125 0)"/>
     <use xlink:href="#DejaVuSans-c" transform="translate(897.234375 0)"/>
    </g>
   </g>
  </g>
 </g>
 <defs>
  <clipPath id="pb9516ba99e">
   <rect x="7.2" y="7.2" width="446.4" height="332.64"/>
  </clipPath>
 </defs>
</svg>
