<?xml version="1.0" encoding="utf-8" standalone="no"?>
<!DOCTYPE svg PUBLIC "-//W3C//DTD SVG 1.1//EN"
  "http://www.w3.org/Graphics/SVG/1.1/DTD/svg11.dtd">
<svg xmlns:xlink="http://www.w3.org/1999/xlink" width="516.6pt" height="291.6pt" viewBox="0 0 516.6 291.6" xmlns="http://www.w3.org/2000/svg" version="1.1">
 <metadata>
  <rdf:RDF xmlns:dc="http://purl.org/dc/elements/1.1/" xmlns:cc="http://creativecommons.org/ns#" xmlns:rdf="http://www.w3.org/1999/02/22-rdf-syntax-ns#">
   <cc:Work>
    <dc:type rdf:resource="http://purl.org/dc/dcmitype/StillImage"/>
    <dc:date>2026-07-06T17:32:29.379287</dc:date>
    <dc:format>image/svg+xml</dc:format>
    <dc:creator>
     <cc:Agent>
      <dc:title>Matplotlib v3.11.0, https://matplotlib.org/</dc:title>
     </cc:Agent>
    </dc:creator>
   </cc:Work>
  </rdf:RDF>
 </metadata>
 <defs>
  <style type="text/css">*{stroke-linejoin: round; stroke-linecap: butt}</style>
 </defs>
 <g id="figure_1">
  <g id="patch_1">
   <path d="M 0 291.6 
L 516.6 291.6 
L 516.6 0 
L 0 0 
L 0 291.6 
z
" style="fill: none"/>
  </g>
  <g id="axes_1">
   <g id="patch_2">
    <path d="M 82.53 82.589467 
Q 82.53 79.273531 82.53 78.193663 
" style="fill: none; stroke: #888888; stroke-width: 2; stroke-linecap: round"/>
    <path d="M 80.53 82.193663 
L 82.53 78.193663 
L 84.53 82.193663 
" style="fill: none; stroke: #888888; stroke-width: 2; stroke-linecap: round"/>
   </g>
   <g id="patch_3">
    <path d="M 182.97 82.589467 
Q 182.97 79.273531 182.97 78.193663 
" style="fill: none; stroke: #888888; stroke-width: 2; stroke-linecap: round"/>
    <path d="M 180.97 82.193663 
L 182.97 78.193663 
L 184.97 82.193663 
" style="fill: none; stroke: #888888; stroke-width: 2; stroke-linecap: round"/>
   </g>
   <g id="patch_4">
    <path d="M 283.41 82.589467 
Q 283.41 79.273531 283.41 78.193663 
" style="fill: none; stroke: #888888; stroke-width: 2; stroke-linecap: round"/>
    <path d="M 281.41 82.193663 
L 283.41 78.193663 
L 285.41 82.193663 
" style="fill: none; stroke: #888888; stroke-width: 2; stroke-linecap: round"/>
   </g>
   <g id="patch_5">
    <path d="M 383.85 82.589467 
Q 383.85 79.273531 383.85 78.193663 
" style="fill: none; stroke: #888888; stroke-width: 2; stroke-linecap: round"/>
    <path d="M 381.85 82.193663 
L 383.85 78.193663 
L 385.85 82.193663 
" style="fill: none; stroke: #888888; stroke-width: 2; stroke-linecap: round"/>
   </g>
   <g id="patch_6">
    <path d="M 87.445025 124.528318 
Q 157.860112 137.484021 226.076045 150.0351 
" style="fill: none; stroke: #888888; stroke-width: 2; stroke-linecap: round"/>
    <path d="M 222.503984 147.344304 
L 226.076045 150.0351 
L 221.780172 151.278271 
" style="fill: none; stroke: #888888; stroke-width: 2; stroke-linecap: round"/>
   </g>
   <g id="patch_7">
    <path d="M 187.35015 126.041717 
Q 208.080763 137.484421 226.85373 147.846561 
" style="fill: none; stroke: #888888; stroke-width: 2; stroke-linecap: round"/>
    <path d="M 224.318272 144.162615 
L 226.85373 147.846561 
L 222.385299 147.66456 
" style="fill: none; stroke: #888888; stroke-width: 2; stroke-linecap: round"/>
   </g>
   <g id="patch_8">
    <path d="M 279.02985 126.041717 
Q 258.299237 137.484421 239.52627 147.846561 
" style="fill: none; stroke: #888888; stroke-width: 2; stroke-linecap: round"/>
    <path d="M 243.994701 147.66456 
L 239.52627 147.846561 
L 242.061728 144.162615 
" style="fill: none; stroke: #888888; stroke-width: 2; stroke-linecap: round"/>
   </g>
   <g id="patch_9">
    <path d="M 378.934975 124.528318 
Q 308.519888 137.484021 240.303955 150.0351 
" style="fill: none; stroke: #888888; stroke-width: 2; stroke-linecap: round"/>
    <path d="M 244.599828 151.278271 
L 240.303955 150.0351 
L 243.876016 147.344304 
" style="fill: none; stroke: #888888; stroke-width: 2; stroke-linecap: round"/>
   </g>
   <g id="patch_10">
    <path d="M 233.19 206.237856 
Q 233.19 210.942011 233.19 213.410098 
" style="fill: none; stroke: #888888; stroke-width: 2; stroke-linecap: round"/>
    <path d="M 235.19 209.410098 
L 233.19 213.410098 
L 231.19 209.410098 
" style="fill: none; stroke: #888888; stroke-width: 2; stroke-linecap: round"/>
   </g>
   <g id="patch_11">
    <path d="M 135.261 46.008 
L 331.119 46.008 
Q 333.63 46.008 333.63 44.622 
L 333.63 25.218 
Q 333.63 23.832 331.119 23.832 
L 135.261 23.832 
Q 132.75 23.832 132.75 25.218 
L 132.75 44.622 
Q 132.75 46.008 135.261 46.008 
z
" clip-path="url(#p9044420191)" style="fill: #fdebd0; stroke: #555555; stroke-width: 1.5; stroke-linejoin: miter"/>
   </g>
   <g id="patch_12">
    <path d="M 39.843 118.08 
L 125.217 118.08 
Q 127.728 118.08 127.728 116.694 
L 127.728 91.746 
Q 127.728 90.36 125.217 90.36 
L 39.843 90.36 
Q 37.332 90.36 37.332 91.746 
L 37.332 116.694 
Q 37.332 118.08 39.843 118.08 
z
" clip-path="url(#p9044420191)" style="fill: #e8f4f8; stroke: #555555; stroke-width: 1.5; stroke-linejoin: miter"/>
   </g>
   <g id="patch_13">
    <path d="M 140.283 118.08 
L 225.657 118.08 
Q 228.168 118.08 228.168 116.694 
L 228.168 91.746 
Q 228.168 90.36 225.657 90.36 
L 140.283 90.36 
Q 137.772 90.36 137.772 91.746 
L 137.772 116.694 
Q 137.772 118.08 140.283 118.08 
z
" clip-path="url(#p9044420191)" style="fill: #e8f4f8; stroke: #555555; stroke-width: 1.5; stroke-linejoin: miter"/>
   </g>
   <g id="patch_14">
    <path d="M 240.723 118.08 
L 326.097 118.08 
Q 328.608 118.08 328.608 116.694 
L 328.608 91.746 
Q 328.608 90.36 326.097 90.36 
L 240.723 90.36 
Q 238.212 90.36 238.212 91.746 
L 238.212 116.694 
Q 238.212 118.08 240.723 118.08 
z
" clip-path="url(#p9044420191)" style="fill: #e8f4f8; stroke: #555555; stroke-width: 1.5; stroke-linejoin: miter"/>
   </g>
   <g id="patch_15">
    <path d="M 341.163 118.08 
L 426.537 118.08 
Q 429.048 118.08 429.048 116.694 
L 429.048 91.746 
Q 429.048 90.36 426.537 90.36 
L 341.163 90.36 
Q 338.652 90.36 338.652 91.746 
L 338.652 116.694 
Q 338.652 118.08 341.163 118.08 
z
" clip-path="url(#p9044420191)" style="fill: #e8f4f8; stroke: #555555; stroke-width: 1.5; stroke-linejoin: miter"/>
   </g>
   <g id="patch_16">
    <path d="M 147.816 198.468 
L 318.564 198.468 
Q 321.075 198.468 321.075 197.082 
L 321.075 177.678 
Q 321.075 176.292 318.564 176.292 
L 147.816 176.292 
Q 145.305 176.292 145.305 177.678 
L 145.305 197.082 
Q 145.305 198.468 147.816 198.468 
z
" clip-path="url(#p9044420191)" style="fill: #d5f5e3; stroke: #555555; stroke-width: 1.5; stroke-linejoin: miter"/>
   </g>
   <g id="patch_17">
    <path d="M 97.596 259.452 
L 218.124 259.452 
Q 220.635 259.452 220.635 258.066 
L 220.635 238.662 
Q 220.635 237.276 218.124 237.276 
L 97.596 237.276 
Q 95.085 237.276 95.085 238.662 
L 95.085 258.066 
Q 95.085 259.452 97.596 259.452 
z
" clip-path="url(#p9044420191)" style="fill: #fef9e7; stroke: #555555; stroke-width: 1.5; stroke-linejoin: miter"/>
   </g>
   <g id="patch_18">
    <path d="M 248.256 259.452 
L 368.784 259.452 
Q 371.295 259.452 371.295 258.066 
L 371.295 238.662 
Q 371.295 237.276 368.784 237.276 
L 248.256 237.276 
Q 245.745 237.276 245.745 238.662 
L 245.745 258.066 
Q 245.745 259.452 248.256 259.452 
z
" clip-path="url(#p9044420191)" style="fill: #fef9e7; stroke: #555555; stroke-width: 1.5; stroke-linejoin: miter"/>
   </g>
   <g id="text_1">
    <!-- Business Problem -->
    <g style="fill: #1a1a1a" transform="translate(188.043047 31.857012) scale(0.09 -0.09)">
     <defs>
      <path id="DejaVuSans-Bold-25" d="M 2456 2859 
Q 2741 2859 2887 2984 
Q 3034 3109 3034 3353 
Q 3034 3594 2887 3720 
Q 2741 3847 2456 3847 
L 1791 3847 
L 1791 2859 
L 2456 2859 
z
M 2497 819 
Q 2859 819 3042 972 
Q 3225 1125 3225 1434 
Q 3225 1738 3044 1889 
Q 2863 2041 2497 2041 
L 1791 2041 
L 1791 819 
L 2497 819 
z
M 3616 2497 
Q 4003 2384 4215 2081 
Q 4428 1778 4428 1338 
Q 4428 663 3972 331 
Q 3516 0 2584 0 
L 588 0 
L 588 4666 
L 2394 4666 
Q 3366 4666 3802 4372 
Q 4238 4078 4238 3431 
Q 4238 3091 4078 2852 
Q 3919 2613 3616 2497 
z
" transform="scale(0.015625)"/>
      <path id="DejaVuSans-Bold-58" d="M 500 1363 
L 500 3500 
L 1625 3500 
L 1625 3150 
Q 1625 2866 1622 2436 
Q 1619 2006 1619 1863 
Q 1619 1441 1641 1255 
Q 1663 1069 1716 984 
Q 1784 875 1895 815 
Q 2006 756 2150 756 
Q 2500 756 2700 1025 
Q 2900 1294 2900 1772 
L 2900 3500 
L 4019 3500 
L 4019 0 
L 2900 0 
L 2900 506 
Q 2647 200 2364 54 
Q 2081 -91 1741 -91 
Q 1134 -91 817 281 
Q 500 653 500 1363 
z
" transform="scale(0.015625)"/>
      <path id="DejaVuSans-Bold-56" d="M 3272 3391 
L 3272 2541 
Q 2913 2691 2578 2766 
Q 2244 2841 1947 2841 
Q 1628 2841 1473 2761 
Q 1319 2681 1319 2516 
Q 1319 2381 1436 2309 
Q 1553 2238 1856 2203 
L 2053 2175 
Q 2913 2066 3209 1816 
Q 3506 1566 3506 1031 
Q 3506 472 3093 190 
Q 2681 -91 1863 -91 
Q 1516 -91 1145 -36 
Q 775 19 384 128 
L 384 978 
Q 719 816 1070 734 
Q 1422 653 1784 653 
Q 2113 653 2278 743 
Q 2444 834 2444 1013 
Q 2444 1163 2330 1236 
Q 2216 1309 1875 1350 
L 1678 1375 
Q 931 1469 631 1722 
Q 331 1975 331 2491 
Q 331 3047 712 3315 
Q 1094 3584 1881 3584 
Q 2191 3584 2531 3537 
Q 2872 3491 3272 3391 
z
" transform="scale(0.015625)"/>
      <path id="DejaVuSans-Bold-4c" d="M 538 3500 
L 1656 3500 
L 1656 0 
L 538 0 
L 538 3500 
z
M 538 4863 
L 1656 4863 
L 1656 3950 
L 538 3950 
L 538 4863 
z
" transform="scale(0.015625)"/>
      <path id="DejaVuSans-Bold-51" d="M 4056 2131 
L 4056 0 
L 2931 0 
L 2931 347 
L 2931 1631 
Q 2931 2084 2911 2256 
Q 2891 2428 2841 2509 
Q 2775 2619 2662 2680 
Q 2550 2741 2406 2741 
Q 2056 2741 1856 2470 
Q 1656 2200 1656 1722 
L 1656 0 
L 538 0 
L 538 3500 
L 1656 3500 
L 1656 2988 
Q 1909 3294 2193 3439 
Q 2478 3584 2822 3584 
Q 3428 3584 3742 3212 
Q 4056 2841 4056 2131 
z
" transform="scale(0.015625)"/>
      <path id="DejaVuSans-Bold-48" d="M 4031 1759 
L 4031 1441 
L 1416 1441 
Q 1456 1047 1700 850 
Q 1944 653 2381 653 
Q 2734 653 3104 758 
Q 3475 863 3866 1075 
L 3866 213 
Q 3469 63 3072 -14 
Q 2675 -91 2278 -91 
Q 1328 -91 801 392 
Q 275 875 275 1747 
Q 275 2603 792 3093 
Q 1309 3584 2216 3584 
Q 3041 3584 3536 3087 
Q 4031 2591 4031 1759 
z
M 2881 2131 
Q 2881 2450 2695 2645 
Q 2509 2841 2209 2841 
Q 1884 2841 1681 2658 
Q 1478 2475 1428 2131 
L 2881 2131 
z
" transform="scale(0.015625)"/>
      <path id="DejaVuSans-Bold-3" transform="scale(0.015625)"/>
      <path id="DejaVuSans-Bold-33" d="M 588 4666 
L 2584 4666 
Q 3475 4666 3951 4270 
Q 4428 3875 4428 3144 
Q 4428 2409 3951 2014 
Q 3475 1619 2584 1619 
L 1791 1619 
L 1791 0 
L 588 0 
L 588 4666 
z
M 1791 3794 
L 1791 2491 
L 2456 2491 
Q 2806 2491 2997 2661 
Q 3188 2831 3188 3144 
Q 3188 3456 2997 3625 
Q 2806 3794 2456 3794 
L 1791 3794 
z
" transform="scale(0.015625)"/>
      <path id="DejaVuSans-Bold-55" d="M 3138 2547 
Q 2991 2616 2845 2648 
Q 2700 2681 2553 2681 
Q 2122 2681 1889 2404 
Q 1656 2128 1656 1613 
L 1656 0 
L 538 0 
L 538 3500 
L 1656 3500 
L 1656 2925 
Q 1872 3269 2151 3426 
Q 2431 3584 2822 3584 
Q 2878 3584 2943 3579 
Q 3009 3575 3134 3559 
L 3138 2547 
z
" transform="scale(0.015625)"/>
      <path id="DejaVuSans-Bold-52" d="M 2203 2784 
Q 1831 2784 1636 2517 
Q 1441 2250 1441 1747 
Q 1441 1244 1636 976 
Q 1831 709 2203 709 
Q 2569 709 2762 976 
Q 2956 1244 2956 1747 
Q 2956 2250 2762 2517 
Q 2569 2784 2203 2784 
z
M 2203 3584 
Q 3106 3584 3614 3096 
Q 4122 2609 4122 1747 
Q 4122 884 3614 396 
Q 3106 -91 2203 -91 
Q 1297 -91 786 396 
Q 275 884 275 1747 
Q 275 2609 786 3096 
Q 1297 3584 2203 3584 
z
" transform="scale(0.015625)"/>
      <path id="DejaVuSans-Bold-45" d="M 2400 722 
Q 2759 722 2948 984 
Q 3138 1247 3138 1747 
Q 3138 2247 2948 2509 
Q 2759 2772 2400 2772 
Q 2041 2772 1848 2508 
Q 1656 2244 1656 1747 
Q 1656 1250 1848 986 
Q 2041 722 2400 722 
z
M 1656 2988 
Q 1888 3294 2169 3439 
Q 2450 3584 2816 3584 
Q 3463 3584 3878 3070 
Q 4294 2556 4294 1747 
Q 4294 938 3878 423 
Q 3463 -91 2816 -91 
Q 2450 -91 2169 54 
Q 1888 200 1656 506 
L 1656 0 
L 538 0 
L 538 4863 
L 1656 4863 
L 1656 2988 
z
" transform="scale(0.015625)"/>
      <path id="DejaVuSans-Bold-4f" d="M 538 4863 
L 1656 4863 
L 1656 0 
L 538 0 
L 538 4863 
z
" transform="scale(0.015625)"/>
      <path id="DejaVuSans-Bold-50" d="M 3781 2919 
Q 3994 3244 4286 3414 
Q 4578 3584 4928 3584 
Q 5531 3584 5847 3212 
Q 6163 2841 6163 2131 
L 6163 0 
L 5038 0 
L 5038 1825 
Q 5041 1866 5042 1909 
Q 5044 1953 5044 2034 
Q 5044 2406 4934 2573 
Q 4825 2741 4581 2741 
Q 4263 2741 4089 2478 
Q 3916 2216 3909 1719 
L 3909 0 
L 2784 0 
L 2784 1825 
Q 2784 2406 2684 2573 
Q 2584 2741 2328 2741 
Q 2006 2741 1831 2477 
Q 1656 2213 1656 1722 
L 1656 0 
L 531 0 
L 531 3500 
L 1656 3500 
L 1656 2988 
Q 1863 3284 2130 3434 
Q 2397 3584 2719 3584 
Q 3081 3584 3359 3409 
Q 3638 3234 3781 2919 
z
" transform="scale(0.015625)"/>
     </defs>
     <use xlink:href="#DejaVuSans-Bold-25"/>
     <use xlink:href="#DejaVuSans-Bold-58" transform="translate(76.21875 0)"/>
     <use xlink:href="#DejaVuSans-Bold-56" transform="translate(147.40625 0)"/>
     <use xlink:href="#DejaVuSans-Bold-4c" transform="translate(206.921875 0)"/>
     <use xlink:href="#DejaVuSans-Bold-51" transform="translate(241.203125 0)"/>
     <use xlink:href="#DejaVuSans-Bold-48" transform="translate(312.390625 0)"/>
     <use xlink:href="#DejaVuSans-Bold-56" transform="translate(380.21875 0)"/>
     <use xlink:href="#DejaVuSans-Bold-56" transform="translate(439.734375 0)"/>
     <use xlink:href="#DejaVuSans-Bold-3" transform="translate(499.25 0)"/>
     <use xlink:href="#DejaVuSans-Bold-33" transform="translate(534.0625 0)"/>
     <use xlink:href="#DejaVuSans-Bold-55" transform="translate(607.359375 0)"/>
     <use xlink:href="#DejaVuSans-Bold-52" transform="translate(656.671875 0)"/>
     <use xlink:href="#DejaVuSans-Bold-45" transform="translate(725.375 0)"/>
     <use xlink:href="#DejaVuSans-Bold-4f" transform="translate(796.953125 0)"/>
     <use xlink:href="#DejaVuSans-Bold-48" transform="translate(831.234375 0)"/>
     <use xlink:href="#DejaVuSans-Bold-50" transform="translate(899.0625 0)"/>
    </g>
    <!-- "increase revenue" -->
    <g style="fill: #1a1a1a" transform="translate(184.766484 42.659473) scale(0.09 -0.09)">
     <defs>
      <path id="DejaVuSans-Bold-5" d="M 2725 4666 
L 2725 2931 
L 1984 2931 
L 1984 4666 
L 2725 4666 
z
M 1350 4666 
L 1350 2931 
L 609 2931 
L 609 4666 
L 1350 4666 
z
" transform="scale(0.015625)"/>
      <path id="DejaVuSans-Bold-46" d="M 3366 3391 
L 3366 2478 
Q 3138 2634 2908 2709 
Q 2678 2784 2431 2784 
Q 1963 2784 1702 2511 
Q 1441 2238 1441 1747 
Q 1441 1256 1702 982 
Q 1963 709 2431 709 
Q 2694 709 2930 787 
Q 3166 866 3366 1019 
L 3366 103 
Q 3103 6 2833 -42 
Q 2563 -91 2291 -91 
Q 1344 -91 809 395 
Q 275 881 275 1747 
Q 275 2613 809 3098 
Q 1344 3584 2291 3584 
Q 2566 3584 2833 3536 
Q 3100 3488 3366 3391 
z
" transform="scale(0.015625)"/>
      <path id="DejaVuSans-Bold-44" d="M 2106 1575 
Q 1756 1575 1579 1456 
Q 1403 1338 1403 1106 
Q 1403 894 1545 773 
Q 1688 653 1941 653 
Q 2256 653 2472 879 
Q 2688 1106 2688 1447 
L 2688 1575 
L 2106 1575 
z
M 3816 1997 
L 3816 0 
L 2688 0 
L 2688 519 
Q 2463 200 2181 54 
Q 1900 -91 1497 -91 
Q 953 -91 614 226 
Q 275 544 275 1050 
Q 275 1666 698 1953 
Q 1122 2241 2028 2241 
L 2688 2241 
L 2688 2328 
Q 2688 2594 2478 2717 
Q 2269 2841 1825 2841 
Q 1466 2841 1156 2769 
Q 847 2697 581 2553 
L 581 3406 
Q 941 3494 1303 3539 
Q 1666 3584 2028 3584 
Q 2975 3584 3395 3211 
Q 3816 2838 3816 1997 
z
" transform="scale(0.015625)"/>
      <path id="DejaVuSans-Bold-59" d="M 97 3500 
L 1216 3500 
L 2088 1081 
L 2956 3500 
L 4078 3500 
L 2700 0 
L 1472 0 
L 97 3500 
z
" transform="scale(0.015625)"/>
     </defs>
     <use xlink:href="#DejaVuSans-Bold-5"/>
     <use xlink:href="#DejaVuSans-Bold-4c" transform="translate(52.09375 0)"/>
     <use xlink:href="#DejaVuSans-Bold-51" transform="translate(86.375 0)"/>
     <use xlink:href="#DejaVuSans-Bold-46" transform="translate(157.5625 0)"/>
     <use xlink:href="#DejaVuSans-Bold-55" transform="translate(216.84375 0)"/>
     <use xlink:href="#DejaVuSans-Bold-48" transform="translate(266.15625 0)"/>
     <use xlink:href="#DejaVuSans-Bold-44" transform="translate(333.984375 0)"/>
     <use xlink:href="#DejaVuSans-Bold-56" transform="translate(401.46875 0)"/>
     <use xlink:href="#DejaVuSans-Bold-48" transform="translate(460.984375 0)"/>
     <use xlink:href="#DejaVuSans-Bold-3" transform="translate(528.8125 0)"/>
     <use xlink:href="#DejaVuSans-Bold-55" transform="translate(563.625 0)"/>
     <use xlink:href="#DejaVuSans-Bold-48" transform="translate(612.9375 0)"/>
     <use xlink:href="#DejaVuSans-Bold-59" transform="translate(680.765625 0)"/>
     <use xlink:href="#DejaVuSans-Bold-48" transform="translate(745.953125 0)"/>
     <use xlink:href="#DejaVuSans-Bold-51" transform="translate(813.78125 0)"/>
     <use xlink:href="#DejaVuSans-Bold-58" transform="translate(884.96875 0)"/>
     <use xlink:href="#DejaVuSans-Bold-48" transform="translate(956.15625 0)"/>
     <use xlink:href="#DejaVuSans-Bold-5" transform="translate(1023.984375 0)"/>
    </g>
   </g>
   <g id="text_2">
    <!-- Objective -->
    <g style="fill: #1a1a1a" transform="translate(64.747383 101.66751) scale(0.075 -0.075)">
     <defs>
      <path id="DejaVuSans-32" d="M 2522 4238 
Q 1834 4238 1429 3725 
Q 1025 3213 1025 2328 
Q 1025 1447 1429 934 
Q 1834 422 2522 422 
Q 3209 422 3611 934 
Q 4013 1447 4013 2328 
Q 4013 3213 3611 3725 
Q 3209 4238 2522 4238 
z
M 2522 4750 
Q 3503 4750 4090 4092 
Q 4678 3434 4678 2328 
Q 4678 1225 4090 567 
Q 3503 -91 2522 -91 
Q 1538 -91 948 565 
Q 359 1222 359 2328 
Q 359 3434 948 4092 
Q 1538 4750 2522 4750 
z
" transform="scale(0.015625)"/>
      <path id="DejaVuSans-45" d="M 3116 1747 
Q 3116 2381 2855 2742 
Q 2594 3103 2138 3103 
Q 1681 3103 1420 2742 
Q 1159 2381 1159 1747 
Q 1159 1113 1420 752 
Q 1681 391 2138 391 
Q 2594 391 2855 752 
Q 3116 1113 3116 1747 
z
M 1159 2969 
Q 1341 3281 1617 3432 
Q 1894 3584 2278 3584 
Q 2916 3584 3314 3078 
Q 3713 2572 3713 1747 
Q 3713 922 3314 415 
Q 2916 -91 2278 -91 
Q 1894 -91 1617 61 
Q 1341 213 1159 525 
L 1159 0 
L 581 0 
L 581 4863 
L 1159 4863 
L 1159 2969 
z
" transform="scale(0.015625)"/>
      <path id="DejaVuSans-4d" d="M 603 3500 
L 1178 3500 
L 1178 -63 
Q 1178 -731 923 -1031 
Q 669 -1331 103 -1331 
L -116 -1331 
L -116 -844 
L 38 -844 
Q 366 -844 484 -692 
Q 603 -541 603 -63 
L 603 3500 
z
M 603 4863 
L 1178 4863 
L 1178 4134 
L 603 4134 
L 603 4863 
z
" transform="scale(0.015625)"/>
      <path id="DejaVuSans-48" d="M 3597 1894 
L 3597 1613 
L 953 1613 
Q 991 1019 1311 708 
Q 1631 397 2203 397 
Q 2534 397 2845 478 
Q 3156 559 3463 722 
L 3463 178 
Q 3153 47 2828 -22 
Q 2503 -91 2169 -91 
Q 1331 -91 842 396 
Q 353 884 353 1716 
Q 353 2575 817 3079 
Q 1281 3584 2069 3584 
Q 2775 3584 3186 3129 
Q 3597 2675 3597 1894 
z
M 3022 2063 
Q 3016 2534 2758 2815 
Q 2500 3097 2075 3097 
Q 1594 3097 1305 2825 
Q 1016 2553 972 2059 
L 3022 2063 
z
" transform="scale(0.015625)"/>
      <path id="DejaVuSans-46" d="M 3122 3366 
L 3122 2828 
Q 2878 2963 2633 3030 
Q 2388 3097 2138 3097 
Q 1578 3097 1268 2742 
Q 959 2388 959 1747 
Q 959 1106 1268 751 
Q 1578 397 2138 397 
Q 2388 397 2633 464 
Q 2878 531 3122 666 
L 3122 134 
Q 2881 22 2623 -34 
Q 2366 -91 2075 -91 
Q 1284 -91 818 406 
Q 353 903 353 1747 
Q 353 2603 823 3093 
Q 1294 3584 2113 3584 
Q 2378 3584 2631 3529 
Q 2884 3475 3122 3366 
z
" transform="scale(0.015625)"/>
      <path id="DejaVuSans-57" d="M 1172 4494 
L 1172 3500 
L 2356 3500 
L 2356 3053 
L 1172 3053 
L 1172 1153 
Q 1172 725 1289 603 
Q 1406 481 1766 481 
L 2356 481 
L 2356 0 
L 1766 0 
Q 1100 0 847 248 
Q 594 497 594 1153 
L 594 3053 
L 172 3053 
L 172 3500 
L 594 3500 
L 594 4494 
L 1172 4494 
z
" transform="scale(0.015625)"/>
      <path id="DejaVuSans-4c" d="M 603 3500 
L 1178 3500 
L 1178 0 
L 603 0 
L 603 3500 
z
M 603 4863 
L 1178 4863 
L 1178 4134 
L 603 4134 
L 603 4863 
z
" transform="scale(0.015625)"/>
      <path id="DejaVuSans-59" d="M 191 3500 
L 800 3500 
L 1894 563 
L 2988 3500 
L 3597 3500 
L 2284 0 
L 1503 0 
L 191 3500 
z
" transform="scale(0.015625)"/>
     </defs>
     <use xlink:href="#DejaVuSans-32"/>
     <use xlink:href="#DejaVuSans-45" transform="translate(78.71875 0)"/>
     <use xlink:href="#DejaVuSans-4d" transform="translate(142.203125 0)"/>
     <use xlink:href="#DejaVuSans-48" transform="translate(169.984375 0)"/>
     <use xlink:href="#DejaVuSans-46" transform="translate(231.515625 0)"/>
     <use xlink:href="#DejaVuSans-57" transform="translate(286.5 0)"/>
     <use xlink:href="#DejaVuSans-4c" transform="translate(325.703125 0)"/>
     <use xlink:href="#DejaVuSans-59" transform="translate(353.484375 0)"/>
     <use xlink:href="#DejaVuSans-48" transform="translate(412.671875 0)"/>
    </g>
    <!-- &amp; Metric? -->
    <g style="fill: #1a1a1a" transform="translate(64.764961 110.669561) scale(0.075 -0.075)">
     <defs>
      <path id="DejaVuSans-9" d="M 1556 2509 
Q 1272 2256 1139 2004 
Q 1006 1753 1006 1478 
Q 1006 1022 1337 719 
Q 1669 416 2169 416 
Q 2466 416 2725 514 
Q 2984 613 3213 813 
L 1556 2509 
z
M 1997 2859 
L 3584 1234 
Q 3769 1513 3872 1830 
Q 3975 2147 3994 2503 
L 4575 2503 
Q 4538 2091 4375 1687 
Q 4213 1284 3922 891 
L 4794 0 
L 4006 0 
L 3559 459 
Q 3234 181 2878 45 
Q 2522 -91 2113 -91 
Q 1359 -91 881 339 
Q 403 769 403 1441 
Q 403 1841 612 2192 
Q 822 2544 1241 2853 
Q 1091 3050 1012 3245 
Q 934 3441 934 3628 
Q 934 4134 1281 4442 
Q 1628 4750 2203 4750 
Q 2463 4750 2720 4694 
Q 2978 4638 3244 4525 
L 3244 3956 
Q 2972 4103 2725 4179 
Q 2478 4256 2266 4256 
Q 1938 4256 1733 4082 
Q 1528 3909 1528 3634 
Q 1528 3475 1620 3314 
Q 1713 3153 1997 2859 
z
" transform="scale(0.015625)"/>
      <path id="DejaVuSans-3" transform="scale(0.015625)"/>
      <path id="DejaVuSans-30" d="M 628 4666 
L 1569 4666 
L 2759 1491 
L 3956 4666 
L 4897 4666 
L 4897 0 
L 4281 0 
L 4281 4097 
L 3078 897 
L 2444 897 
L 1241 4097 
L 1241 0 
L 628 0 
L 628 4666 
z
" transform="scale(0.015625)"/>
      <path id="DejaVuSans-55" d="M 2631 2963 
Q 2534 3019 2420 3045 
Q 2306 3072 2169 3072 
Q 1681 3072 1420 2755 
Q 1159 2438 1159 1844 
L 1159 0 
L 581 0 
L 581 3500 
L 1159 3500 
L 1159 2956 
Q 1341 3275 1631 3429 
Q 1922 3584 2338 3584 
Q 2397 3584 2469 3576 
Q 2541 3569 2628 3553 
L 2631 2963 
z
" transform="scale(0.015625)"/>
      <path id="DejaVuSans-22" d="M 1222 794 
L 1856 794 
L 1856 0 
L 1222 0 
L 1222 794 
z
M 1838 1253 
L 1241 1253 
L 1241 1734 
Q 1241 2050 1328 2253 
Q 1416 2456 1697 2725 
L 1978 3003 
Q 2156 3169 2236 3316 
Q 2316 3463 2316 3616 
Q 2316 3894 2111 4066 
Q 1906 4238 1569 4238 
Q 1322 4238 1042 4128 
Q 763 4019 459 3809 
L 459 4397 
Q 753 4575 1054 4662 
Q 1356 4750 1678 4750 
Q 2253 4750 2601 4447 
Q 2950 4144 2950 3647 
Q 2950 3409 2837 3195 
Q 2725 2981 2444 2713 
L 2169 2444 
Q 2022 2297 1961 2214 
Q 1900 2131 1875 2053 
Q 1856 1988 1847 1894 
Q 1838 1800 1838 1638 
L 1838 1253 
z
" transform="scale(0.015625)"/>
     </defs>
     <use xlink:href="#DejaVuSans-9"/>
     <use xlink:href="#DejaVuSans-3" transform="translate(77.984375 0)"/>
     <use xlink:href="#DejaVuSans-30" transform="translate(109.765625 0)"/>
     <use xlink:href="#DejaVuSans-48" transform="translate(196.046875 0)"/>
     <use xlink:href="#DejaVuSans-57" transform="translate(257.578125 0)"/>
     <use xlink:href="#DejaVuSans-55" transform="translate(296.78125 0)"/>
     <use xlink:href="#DejaVuSans-4c" transform="translate(337.890625 0)"/>
     <use xlink:href="#DejaVuSans-46" transform="translate(365.671875 0)"/>
     <use xlink:href="#DejaVuSans-22" transform="translate(420.65625 0)"/>
    </g>
   </g>
   <g id="text_3">
    <!-- Scale -->
    <g style="fill: #1a1a1a" transform="translate(172.880156 101.667803) scale(0.075 -0.075)">
     <defs>
      <path id="DejaVuSans-36" d="M 3425 4513 
L 3425 3897 
Q 3066 4069 2747 4153 
Q 2428 4238 2131 4238 
Q 1616 4238 1336 4038 
Q 1056 3838 1056 3469 
Q 1056 3159 1242 3001 
Q 1428 2844 1947 2747 
L 2328 2669 
Q 3034 2534 3370 2195 
Q 3706 1856 3706 1288 
Q 3706 609 3251 259 
Q 2797 -91 1919 -91 
Q 1588 -91 1214 -16 
Q 841 59 441 206 
L 441 856 
Q 825 641 1194 531 
Q 1563 422 1919 422 
Q 2459 422 2753 634 
Q 3047 847 3047 1241 
Q 3047 1584 2836 1778 
Q 2625 1972 2144 2069 
L 1759 2144 
Q 1053 2284 737 2584 
Q 422 2884 422 3419 
Q 422 4038 858 4394 
Q 1294 4750 2059 4750 
Q 2388 4750 2728 4690 
Q 3069 4631 3425 4513 
z
" transform="scale(0.015625)"/>
      <path id="DejaVuSans-44" d="M 2194 1759 
Q 1497 1759 1228 1600 
Q 959 1441 959 1056 
Q 959 750 1161 570 
Q 1363 391 1709 391 
Q 2188 391 2477 730 
Q 2766 1069 2766 1631 
L 2766 1759 
L 2194 1759 
z
M 3341 1997 
L 3341 0 
L 2766 0 
L 2766 531 
Q 2569 213 2275 61 
Q 1981 -91 1556 -91 
Q 1019 -91 701 211 
Q 384 513 384 1019 
Q 384 1609 779 1909 
Q 1175 2209 1959 2209 
L 2766 2209 
L 2766 2266 
Q 2766 2663 2505 2880 
Q 2244 3097 1772 3097 
Q 1472 3097 1187 3025 
Q 903 2953 641 2809 
L 641 3341 
Q 956 3463 1253 3523 
Q 1550 3584 1831 3584 
Q 2591 3584 2966 3190 
Q 3341 2797 3341 1997 
z
" transform="scale(0.015625)"/>
      <path id="DejaVuSans-4f" d="M 603 4863 
L 1178 4863 
L 1178 0 
L 603 0 
L 603 4863 
z
" transform="scale(0.015625)"/>
     </defs>
     <use xlink:href="#DejaVuSans-36"/>
     <use xlink:href="#DejaVuSans-46" transform="translate(63.484375 0)"/>
     <use xlink:href="#DejaVuSans-44" transform="translate(118.46875 0)"/>
     <use xlink:href="#DejaVuSans-4f" transform="translate(179.75 0)"/>
     <use xlink:href="#DejaVuSans-48" transform="translate(207.53125 0)"/>
    </g>
    <!-- Req/sec? -->
    <g style="fill: #1a1a1a" transform="translate(166.267852 110.669268) scale(0.075 -0.075)">
     <defs>
      <path id="DejaVuSans-35" d="M 2841 2188 
Q 3044 2119 3236 1894 
Q 3428 1669 3622 1275 
L 4263 0 
L 3584 0 
L 2988 1197 
Q 2756 1666 2539 1819 
Q 2322 1972 1947 1972 
L 1259 1972 
L 1259 0 
L 628 0 
L 628 4666 
L 2053 4666 
Q 2853 4666 3247 4331 
Q 3641 3997 3641 3322 
Q 3641 2881 3436 2590 
Q 3231 2300 2841 2188 
z
M 1259 4147 
L 1259 2491 
L 2053 2491 
Q 2509 2491 2742 2702 
Q 2975 2913 2975 3322 
Q 2975 3731 2742 3939 
Q 2509 4147 2053 4147 
L 1259 4147 
z
" transform="scale(0.015625)"/>
      <path id="DejaVuSans-54" d="M 947 1747 
Q 947 1113 1208 752 
Q 1469 391 1925 391 
Q 2381 391 2643 752 
Q 2906 1113 2906 1747 
Q 2906 2381 2643 2742 
Q 2381 3103 1925 3103 
Q 1469 3103 1208 2742 
Q 947 2381 947 1747 
z
M 2906 525 
Q 2725 213 2448 61 
Q 2172 -91 1784 -91 
Q 1150 -91 751 415 
Q 353 922 353 1747 
Q 353 2572 751 3078 
Q 1150 3584 1784 3584 
Q 2172 3584 2448 3432 
Q 2725 3281 2906 2969 
L 2906 3500 
L 3481 3500 
L 3481 -1331 
L 2906 -1331 
L 2906 525 
z
" transform="scale(0.015625)"/>
      <path id="DejaVuSans-12" d="M 1625 4666 
L 2156 4666 
L 531 -594 
L 0 -594 
L 1625 4666 
z
" transform="scale(0.015625)"/>
      <path id="DejaVuSans-56" d="M 2834 3397 
L 2834 2853 
Q 2591 2978 2328 3040 
Q 2066 3103 1784 3103 
Q 1356 3103 1142 2972 
Q 928 2841 928 2578 
Q 928 2378 1081 2264 
Q 1234 2150 1697 2047 
L 1894 2003 
Q 2506 1872 2764 1633 
Q 3022 1394 3022 966 
Q 3022 478 2636 193 
Q 2250 -91 1575 -91 
Q 1294 -91 989 -36 
Q 684 19 347 128 
L 347 722 
Q 666 556 975 473 
Q 1284 391 1588 391 
Q 1994 391 2212 530 
Q 2431 669 2431 922 
Q 2431 1156 2273 1281 
Q 2116 1406 1581 1522 
L 1381 1569 
Q 847 1681 609 1914 
Q 372 2147 372 2553 
Q 372 3047 722 3315 
Q 1072 3584 1716 3584 
Q 2034 3584 2315 3537 
Q 2597 3491 2834 3397 
z
" transform="scale(0.015625)"/>
     </defs>
     <use xlink:href="#DejaVuSans-35"/>
     <use xlink:href="#DejaVuSans-48" transform="translate(65 0)"/>
     <use xlink:href="#DejaVuSans-54" transform="translate(126.53125 0)"/>
     <use xlink:href="#DejaVuSans-12" transform="translate(190.015625 0)"/>
     <use xlink:href="#DejaVuSans-56" transform="translate(223.703125 0)"/>
     <use xlink:href="#DejaVuSans-48" transform="translate(275.796875 0)"/>
     <use xlink:href="#DejaVuSans-46" transform="translate(337.328125 0)"/>
     <use xlink:href="#DejaVuSans-22" transform="translate(392.3125 0)"/>
    </g>
   </g>
   <g id="text_4">
    <!-- Latency -->
    <g style="fill: #1a1a1a" transform="translate(268.586953 101.667217) scale(0.075 -0.075)">
     <defs>
      <path id="DejaVuSans-2f" d="M 628 4666 
L 1259 4666 
L 1259 531 
L 3531 531 
L 3531 0 
L 628 0 
L 628 4666 
z
" transform="scale(0.015625)"/>
      <path id="DejaVuSans-51" d="M 3513 2113 
L 3513 0 
L 2938 0 
L 2938 2094 
Q 2938 2591 2744 2837 
Q 2550 3084 2163 3084 
Q 1697 3084 1428 2787 
Q 1159 2491 1159 1978 
L 1159 0 
L 581 0 
L 581 3500 
L 1159 3500 
L 1159 2956 
Q 1366 3272 1645 3428 
Q 1925 3584 2291 3584 
Q 2894 3584 3203 3211 
Q 3513 2838 3513 2113 
z
" transform="scale(0.015625)"/>
      <path id="DejaVuSans-5c" d="M 2059 -325 
Q 1816 -950 1584 -1140 
Q 1353 -1331 966 -1331 
L 506 -1331 
L 506 -850 
L 844 -850 
Q 1081 -850 1212 -737 
Q 1344 -625 1503 -206 
L 1606 56 
L 191 3500 
L 800 3500 
L 1894 763 
L 2988 3500 
L 3597 3500 
L 2059 -325 
z
" transform="scale(0.015625)"/>
     </defs>
     <use xlink:href="#DejaVuSans-2f"/>
     <use xlink:href="#DejaVuSans-44" transform="translate(55.71875 0)"/>
     <use xlink:href="#DejaVuSans-57" transform="translate(117 0)"/>
     <use xlink:href="#DejaVuSans-48" transform="translate(156.203125 0)"/>
     <use xlink:href="#DejaVuSans-51" transform="translate(217.734375 0)"/>
     <use xlink:href="#DejaVuSans-46" transform="translate(281.109375 0)"/>
     <use xlink:href="#DejaVuSans-5c" transform="translate(336.09375 0)"/>
    </g>
    <!-- Budget? -->
    <g style="fill: #1a1a1a" transform="translate(267.931289 110.669268) scale(0.075 -0.075)">
     <defs>
      <path id="DejaVuSans-25" d="M 1259 2228 
L 1259 519 
L 2272 519 
Q 2781 519 3026 730 
Q 3272 941 3272 1375 
Q 3272 1813 3026 2020 
Q 2781 2228 2272 2228 
L 1259 2228 
z
M 1259 4147 
L 1259 2741 
L 2194 2741 
Q 2656 2741 2882 2914 
Q 3109 3088 3109 3444 
Q 3109 3797 2882 3972 
Q 2656 4147 2194 4147 
L 1259 4147 
z
M 628 4666 
L 2241 4666 
Q 2963 4666 3353 4366 
Q 3744 4066 3744 3513 
Q 3744 3084 3544 2831 
Q 3344 2578 2956 2516 
Q 3422 2416 3680 2098 
Q 3938 1781 3938 1306 
Q 3938 681 3513 340 
Q 3088 0 2303 0 
L 628 0 
L 628 4666 
z
" transform="scale(0.015625)"/>
      <path id="DejaVuSans-58" d="M 544 1381 
L 544 3500 
L 1119 3500 
L 1119 1403 
Q 1119 906 1312 657 
Q 1506 409 1894 409 
Q 2359 409 2629 706 
Q 2900 1003 2900 1516 
L 2900 3500 
L 3475 3500 
L 3475 0 
L 2900 0 
L 2900 538 
Q 2691 219 2414 64 
Q 2138 -91 1772 -91 
Q 1169 -91 856 284 
Q 544 659 544 1381 
z
M 1991 3584 
L 1991 3584 
z
" transform="scale(0.015625)"/>
      <path id="DejaVuSans-47" d="M 2906 2969 
L 2906 4863 
L 3481 4863 
L 3481 0 
L 2906 0 
L 2906 525 
Q 2725 213 2448 61 
Q 2172 -91 1784 -91 
Q 1150 -91 751 415 
Q 353 922 353 1747 
Q 353 2572 751 3078 
Q 1150 3584 1784 3584 
Q 2172 3584 2448 3432 
Q 2725 3281 2906 2969 
z
M 947 1747 
Q 947 1113 1208 752 
Q 1469 391 1925 391 
Q 2381 391 2643 752 
Q 2906 1113 2906 1747 
Q 2906 2381 2643 2742 
Q 2381 3103 1925 3103 
Q 1469 3103 1208 2742 
Q 947 2381 947 1747 
z
" transform="scale(0.015625)"/>
      <path id="DejaVuSans-4a" d="M 2906 1791 
Q 2906 2416 2648 2759 
Q 2391 3103 1925 3103 
Q 1463 3103 1205 2759 
Q 947 2416 947 1791 
Q 947 1169 1205 825 
Q 1463 481 1925 481 
Q 2391 481 2648 825 
Q 2906 1169 2906 1791 
z
M 3481 434 
Q 3481 -459 3084 -895 
Q 2688 -1331 1869 -1331 
Q 1566 -1331 1297 -1286 
Q 1028 -1241 775 -1147 
L 775 -588 
Q 1028 -725 1275 -790 
Q 1522 -856 1778 -856 
Q 2344 -856 2625 -561 
Q 2906 -266 2906 331 
L 2906 616 
Q 2728 306 2450 153 
Q 2172 0 1784 0 
Q 1141 0 747 490 
Q 353 981 353 1791 
Q 353 2603 747 3093 
Q 1141 3584 1784 3584 
Q 2172 3584 2450 3431 
Q 2728 3278 2906 2969 
L 2906 3500 
L 3481 3500 
L 3481 434 
z
" transform="scale(0.015625)"/>
     </defs>
     <use xlink:href="#DejaVuSans-25"/>
     <use xlink:href="#DejaVuSans-58" transform="translate(68.609375 0)"/>
     <use xlink:href="#DejaVuSans-47" transform="translate(131.984375 0)"/>
     <use xlink:href="#DejaVuSans-4a" transform="translate(195.46875 0)"/>
     <use xlink:href="#DejaVuSans-48" transform="translate(258.953125 0)"/>
     <use xlink:href="#DejaVuSans-57" transform="translate(320.484375 0)"/>
     <use xlink:href="#DejaVuSans-22" transform="translate(359.6875 0)"/>
    </g>
   </g>
   <g id="text_5">
    <!-- Data -->
    <g style="fill: #1a1a1a" transform="translate(374.896289 101.667217) scale(0.075 -0.075)">
     <defs>
      <path id="DejaVuSans-27" d="M 1259 4147 
L 1259 519 
L 2022 519 
Q 2988 519 3436 956 
Q 3884 1394 3884 2338 
Q 3884 3275 3436 3711 
Q 2988 4147 2022 4147 
L 1259 4147 
z
M 628 4666 
L 1925 4666 
Q 3281 4666 3915 4102 
Q 4550 3538 4550 2338 
Q 4550 1131 3912 565 
Q 3275 0 1925 0 
L 628 0 
L 628 4666 
z
" transform="scale(0.015625)"/>
     </defs>
     <use xlink:href="#DejaVuSans-27"/>
     <use xlink:href="#DejaVuSans-44" transform="translate(77 0)"/>
     <use xlink:href="#DejaVuSans-57" transform="translate(138.28125 0)"/>
     <use xlink:href="#DejaVuSans-44" transform="translate(177.484375 0)"/>
    </g>
    <!-- Available? -->
    <g style="fill: #1a1a1a" transform="translate(364.884961 110.669268) scale(0.075 -0.075)">
     <defs>
      <path id="DejaVuSans-24" d="M 2188 4044 
L 1331 1722 
L 3047 1722 
L 2188 4044 
z
M 1831 4666 
L 2547 4666 
L 4325 0 
L 3669 0 
L 3244 1197 
L 1141 1197 
L 716 0 
L 50 0 
L 1831 4666 
z
" transform="scale(0.015625)"/>
     </defs>
     <use xlink:href="#DejaVuSans-24"/>
     <use xlink:href="#DejaVuSans-59" transform="translate(62.546875 0)"/>
     <use xlink:href="#DejaVuSans-44" transform="translate(121.734375 0)"/>
     <use xlink:href="#DejaVuSans-4c" transform="translate(183.015625 0)"/>
     <use xlink:href="#DejaVuSans-4f" transform="translate(210.796875 0)"/>
     <use xlink:href="#DejaVuSans-44" transform="translate(238.578125 0)"/>
     <use xlink:href="#DejaVuSans-45" transform="translate(299.859375 0)"/>
     <use xlink:href="#DejaVuSans-4f" transform="translate(363.34375 0)"/>
     <use xlink:href="#DejaVuSans-48" transform="translate(391.125 0)"/>
     <use xlink:href="#DejaVuSans-22" transform="translate(452.65625 0)"/>
    </g>
   </g>
   <g id="text_6">
    <!-- ML Problem: -->
    <g style="fill: #1a1a1a" transform="translate(208.5375 184.657344) scale(0.08 -0.08)">
     <defs>
      <path id="DejaVuSans-33" d="M 1259 4147 
L 1259 2394 
L 2053 2394 
Q 2494 2394 2734 2622 
Q 2975 2850 2975 3272 
Q 2975 3691 2734 3919 
Q 2494 4147 2053 4147 
L 1259 4147 
z
M 628 4666 
L 2053 4666 
Q 2838 4666 3239 4311 
Q 3641 3956 3641 3272 
Q 3641 2581 3239 2228 
Q 2838 1875 2053 1875 
L 1259 1875 
L 1259 0 
L 628 0 
L 628 4666 
z
" transform="scale(0.015625)"/>
      <path id="DejaVuSans-52" d="M 1959 3097 
Q 1497 3097 1228 2736 
Q 959 2375 959 1747 
Q 959 1119 1226 758 
Q 1494 397 1959 397 
Q 2419 397 2687 759 
Q 2956 1122 2956 1747 
Q 2956 2369 2687 2733 
Q 2419 3097 1959 3097 
z
M 1959 3584 
Q 2709 3584 3137 3096 
Q 3566 2609 3566 1747 
Q 3566 888 3137 398 
Q 2709 -91 1959 -91 
Q 1206 -91 779 398 
Q 353 888 353 1747 
Q 353 2609 779 3096 
Q 1206 3584 1959 3584 
z
" transform="scale(0.015625)"/>
      <path id="DejaVuSans-50" d="M 3328 2828 
Q 3544 3216 3844 3400 
Q 4144 3584 4550 3584 
Q 5097 3584 5394 3201 
Q 5691 2819 5691 2113 
L 5691 0 
L 5113 0 
L 5113 2094 
Q 5113 2597 4934 2840 
Q 4756 3084 4391 3084 
Q 3944 3084 3684 2787 
Q 3425 2491 3425 1978 
L 3425 0 
L 2847 0 
L 2847 2094 
Q 2847 2600 2669 2842 
Q 2491 3084 2119 3084 
Q 1678 3084 1418 2786 
Q 1159 2488 1159 1978 
L 1159 0 
L 581 0 
L 581 3500 
L 1159 3500 
L 1159 2956 
Q 1356 3278 1631 3431 
Q 1906 3584 2284 3584 
Q 2666 3584 2933 3390 
Q 3200 3197 3328 2828 
z
" transform="scale(0.015625)"/>
      <path id="DejaVuSans-1d" d="M 750 794 
L 1409 794 
L 1409 0 
L 750 0 
L 750 794 
z
M 750 3309 
L 1409 3309 
L 1409 2516 
L 750 2516 
L 750 3309 
z
" transform="scale(0.015625)"/>
     </defs>
     <use xlink:href="#DejaVuSans-30"/>
     <use xlink:href="#DejaVuSans-2f" transform="translate(86.28125 0)"/>
     <use xlink:href="#DejaVuSans-3" transform="translate(142 0)"/>
     <use xlink:href="#DejaVuSans-33" transform="translate(173.78125 0)"/>
     <use xlink:href="#DejaVuSans-55" transform="translate(232.328125 0)"/>
     <use xlink:href="#DejaVuSans-52" transform="translate(271.234375 0)"/>
     <use xlink:href="#DejaVuSans-45" transform="translate(332.421875 0)"/>
     <use xlink:href="#DejaVuSans-4f" transform="translate(395.90625 0)"/>
     <use xlink:href="#DejaVuSans-48" transform="translate(423.6875 0)"/>
     <use xlink:href="#DejaVuSans-50" transform="translate(485.21875 0)"/>
     <use xlink:href="#DejaVuSans-1d" transform="translate(582.625 0)"/>
    </g>
    <!-- Predict purchase prob. -->
    <g style="fill: #1a1a1a" transform="translate(188.155 194.259531) scale(0.08 -0.08)">
     <defs>
      <path id="DejaVuSans-53" d="M 1159 525 
L 1159 -1331 
L 581 -1331 
L 581 3500 
L 1159 3500 
L 1159 2969 
Q 1341 3281 1617 3432 
Q 1894 3584 2278 3584 
Q 2916 3584 3314 3078 
Q 3713 2572 3713 1747 
Q 3713 922 3314 415 
Q 2916 -91 2278 -91 
Q 1894 -91 1617 61 
Q 1341 213 1159 525 
z
M 3116 1747 
Q 3116 2381 2855 2742 
Q 2594 3103 2138 3103 
Q 1681 3103 1420 2742 
Q 1159 2381 1159 1747 
Q 1159 1113 1420 752 
Q 1681 391 2138 391 
Q 2594 391 2855 752 
Q 3116 1113 3116 1747 
z
" transform="scale(0.015625)"/>
      <path id="DejaVuSans-4b" d="M 3513 2113 
L 3513 0 
L 2938 0 
L 2938 2094 
Q 2938 2591 2744 2837 
Q 2550 3084 2163 3084 
Q 1697 3084 1428 2787 
Q 1159 2491 1159 1978 
L 1159 0 
L 581 0 
L 581 4863 
L 1159 4863 
L 1159 2956 
Q 1366 3272 1645 3428 
Q 1925 3584 2291 3584 
Q 2894 3584 3203 3211 
Q 3513 2838 3513 2113 
z
" transform="scale(0.015625)"/>
      <path id="DejaVuSans-11" d="M 684 794 
L 1344 794 
L 1344 0 
L 684 0 
L 684 794 
z
" transform="scale(0.015625)"/>
     </defs>
     <use xlink:href="#DejaVuSans-33"/>
     <use xlink:href="#DejaVuSans-55" transform="translate(58.546875 0)"/>
     <use xlink:href="#DejaVuSans-48" transform="translate(97.453125 0)"/>
     <use xlink:href="#DejaVuSans-47" transform="translate(158.984375 0)"/>
     <use xlink:href="#DejaVuSans-4c" transform="translate(222.46875 0)"/>
     <use xlink:href="#DejaVuSans-46" transform="translate(250.25 0)"/>
     <use xlink:href="#DejaVuSans-57" transform="translate(305.234375 0)"/>
     <use xlink:href="#DejaVuSans-3" transform="translate(344.4375 0)"/>
     <use xlink:href="#DejaVuSans-53" transform="translate(376.21875 0)"/>
     <use xlink:href="#DejaVuSans-58" transform="translate(439.703125 0)"/>
     <use xlink:href="#DejaVuSans-55" transform="translate(503.078125 0)"/>
     <use xlink:href="#DejaVuSans-46" transform="translate(541.984375 0)"/>
     <use xlink:href="#DejaVuSans-4b" transform="translate(596.96875 0)"/>
     <use xlink:href="#DejaVuSans-44" transform="translate(660.34375 0)"/>
     <use xlink:href="#DejaVuSans-56" transform="translate(721.625 0)"/>
     <use xlink:href="#DejaVuSans-48" transform="translate(773.71875 0)"/>
     <use xlink:href="#DejaVuSans-3" transform="translate(835.25 0)"/>
     <use xlink:href="#DejaVuSans-53" transform="translate(867.03125 0)"/>
     <use xlink:href="#DejaVuSans-55" transform="translate(930.515625 0)"/>
     <use xlink:href="#DejaVuSans-52" transform="translate(969.421875 0)"/>
     <use xlink:href="#DejaVuSans-45" transform="translate(1030.609375 0)"/>
     <use xlink:href="#DejaVuSans-11" transform="translate(1094.09375 0)"/>
    </g>
   </g>
   <g id="text_7">
    <!-- Target + -->
    <g style="fill: #1a1a1a" transform="translate(140.86125 245.641031) scale(0.08 -0.08)">
     <defs>
      <path id="DejaVuSans-37" d="M -19 4666 
L 3928 4666 
L 3928 4134 
L 2272 4134 
L 2272 0 
L 1638 0 
L 1638 4134 
L -19 4134 
L -19 4666 
z
" transform="scale(0.015625)"/>
      <path id="DejaVuSans-e" d="M 2944 4013 
L 2944 2272 
L 4684 2272 
L 4684 1741 
L 2944 1741 
L 2944 0 
L 2419 0 
L 2419 1741 
L 678 1741 
L 678 2272 
L 2419 2272 
L 2419 4013 
L 2944 4013 
z
" transform="scale(0.015625)"/>
     </defs>
     <use xlink:href="#DejaVuSans-37"/>
     <use xlink:href="#DejaVuSans-44" transform="translate(44.53125 0)"/>
     <use xlink:href="#DejaVuSans-55" transform="translate(105.8125 0)"/>
     <use xlink:href="#DejaVuSans-4a" transform="translate(145.171875 0)"/>
     <use xlink:href="#DejaVuSans-48" transform="translate(208.65625 0)"/>
     <use xlink:href="#DejaVuSans-57" transform="translate(270.1875 0)"/>
     <use xlink:href="#DejaVuSans-3" transform="translate(309.390625 0)"/>
     <use xlink:href="#DejaVuSans-e" transform="translate(341.171875 0)"/>
    </g>
    <!-- Metric -->
    <g style="fill: #1a1a1a" transform="translate(145.424375 255.243219) scale(0.08 -0.08)">
     <use xlink:href="#DejaVuSans-30"/>
     <use xlink:href="#DejaVuSans-48" transform="translate(86.28125 0)"/>
     <use xlink:href="#DejaVuSans-57" transform="translate(147.8125 0)"/>
     <use xlink:href="#DejaVuSans-55" transform="translate(187.015625 0)"/>
     <use xlink:href="#DejaVuSans-4c" transform="translate(228.125 0)"/>
     <use xlink:href="#DejaVuSans-46" transform="translate(255.90625 0)"/>
    </g>
   </g>
   <g id="text_8">
    <!-- Baseline + -->
    <g style="fill: #1a1a1a" transform="translate(286.9375 245.641656) scale(0.08 -0.08)">
     <use xlink:href="#DejaVuSans-25"/>
     <use xlink:href="#DejaVuSans-44" transform="translate(68.609375 0)"/>
     <use xlink:href="#DejaVuSans-56" transform="translate(129.890625 0)"/>
     <use xlink:href="#DejaVuSans-48" transform="translate(181.984375 0)"/>
     <use xlink:href="#DejaVuSans-4f" transform="translate(243.515625 0)"/>
     <use xlink:href="#DejaVuSans-4c" transform="translate(271.296875 0)"/>
     <use xlink:href="#DejaVuSans-51" transform="translate(299.078125 0)"/>
     <use xlink:href="#DejaVuSans-48" transform="translate(362.453125 0)"/>
     <use xlink:href="#DejaVuSans-3" transform="translate(423.984375 0)"/>
     <use xlink:href="#DejaVuSans-e" transform="translate(455.765625 0)"/>
    </g>
    <!-- Success -->
    <g style="fill: #1a1a1a" transform="translate(292.418125 255.243219) scale(0.08 -0.08)">
     <use xlink:href="#DejaVuSans-36"/>
     <use xlink:href="#DejaVuSans-58" transform="translate(63.484375 0)"/>
     <use xlink:href="#DejaVuSans-46" transform="translate(126.859375 0)"/>
     <use xlink:href="#DejaVuSans-46" transform="translate(181.84375 0)"/>
     <use xlink:href="#DejaVuSans-48" transform="translate(236.828125 0)"/>
     <use xlink:href="#DejaVuSans-56" transform="translate(298.359375 0)"/>
     <use xlink:href="#DejaVuSans-56" transform="translate(350.453125 0)"/>
    </g>
   </g>
  </g>
 </g>
 <defs>
  <clipPath id="p9044420191">
   <rect x="7.2" y="7.2" width="502.2" height="277.2"/>
  </clipPath>
 </defs>
</svg>
