<?xml version="1.0" encoding="utf-8" standalone="no"?>
<!DOCTYPE svg PUBLIC "-//W3C//DTD SVG 1.1//EN"
  "http://www.w3.org/Graphics/SVG/1.1/DTD/svg11.dtd">
<svg xmlns:xlink="http://www.w3.org/1999/xlink" width="572.4pt" height="322.237813pt" viewBox="0 0 572.4 322.237813" xmlns="http://www.w3.org/2000/svg" version="1.1">
 <metadata>
  <rdf:RDF xmlns:dc="http://purl.org/dc/elements/1.1/" xmlns:cc="http://creativecommons.org/ns#" xmlns:rdf="http://www.w3.org/1999/02/22-rdf-syntax-ns#">
   <cc:Work>
    <dc:type rdf:resource="http://purl.org/dc/dcmitype/StillImage"/>
    <dc:date>2026-07-06T17:32:28.256335</dc:date>
    <dc:format>image/svg+xml</dc:format>
    <dc:creator>
     <cc:Agent>
      <dc:title>Matplotlib v3.11.0, https://matplotlib.org/</dc:title>
     </cc:Agent>
    </dc:creator>
   </cc:Work>
  </rdf:RDF>
 </metadata>
 <defs>
  <style type="text/css">*{stroke-linejoin: round; stroke-linecap: butt}</style>
 </defs>
 <g id="figure_1">
  <g id="patch_1">
   <path d="M 0 322.237813 
L 572.4 322.237813 
L 572.4 0 
L 0 0 
L 0 322.237813 
z
" style="fill: none"/>
  </g>
  <g id="axes_1">
   <g id="patch_2">
    <path d="M 134.018182 98.277699 
Q 134.018182 104.3644 134.018182 108.215034 
" style="fill: none; stroke: #888888; stroke-width: 2; stroke-linecap: round"/>
    <path d="M 136.018182 104.215034 
L 134.018182 108.215034 
L 132.018182 104.215034 
" style="fill: none; stroke: #888888; stroke-width: 2; stroke-linecap: round"/>
   </g>
   <g id="patch_3">
    <path d="M 134.018182 167.577699 
Q 134.018182 173.6644 134.018182 177.515034 
" style="fill: none; stroke: #888888; stroke-width: 2; stroke-linecap: round"/>
    <path d="M 136.018182 173.515034 
L 134.018182 177.515034 
L 132.018182 173.515034 
" style="fill: none; stroke: #888888; stroke-width: 2; stroke-linecap: round"/>
   </g>
   <g id="patch_4">
    <path d="M 97.240909 90.505812 
L 170.795455 90.505812 
Q 172.063636 90.505812 172.063636 89.119812 
L 172.063636 69.715812 
Q 172.063636 68.329812 170.795455 68.329812 
L 97.240909 68.329812 
Q 95.972727 68.329812 95.972727 69.715812 
L 95.972727 89.119812 
Q 95.972727 90.505812 97.240909 90.505812 
z
" clip-path="url(#p2a36faece7)" style="fill: #e0e0e0; stroke: #555555; stroke-width: 1.5; stroke-linejoin: miter"/>
   </g>
   <g id="patch_5">
    <path d="M 90.9 159.805813 
L 177.136364 159.805813 
Q 178.404545 159.805813 178.404545 158.419813 
L 178.404545 139.015813 
Q 178.404545 137.629813 177.136364 137.629813 
L 90.9 137.629813 
Q 89.631818 137.629813 89.631818 139.015813 
L 89.631818 158.419813 
Q 89.631818 159.805813 90.9 159.805813 
z
" clip-path="url(#p2a36faece7)" style="fill: #e0e0e0; stroke: #555555; stroke-width: 1.5; stroke-linejoin: miter"/>
   </g>
   <g id="patch_6">
    <path d="M 97.240909 229.105813 
L 170.795455 229.105813 
Q 172.063636 229.105813 172.063636 227.719813 
L 172.063636 208.315812 
Q 172.063636 206.929812 170.795455 206.929812 
L 97.240909 206.929812 
Q 95.972727 206.929812 95.972727 208.315812 
L 95.972727 227.719813 
Q 95.972727 229.105813 97.240909 229.105813 
z
" clip-path="url(#p2a36faece7)" style="fill: #e0e0e0; stroke: #555555; stroke-width: 1.5; stroke-linejoin: miter"/>
   </g>
   <g id="text_1">
    <!-- Input Space -->
    <g style="fill: #1a1a1a" transform="translate(107.221385 81.755703) scale(0.09 -0.09)">
     <defs>
      <path id="DejaVuSans-2c" d="M 628 4666 
L 1259 4666 
L 1259 0 
L 628 0 
L 628 4666 
z
" transform="scale(0.015625)"/>
      <path id="DejaVuSans-51" d="M 3513 2113 
L 3513 0 
L 2938 0 
L 2938 2094 
Q 2938 2591 2744 2837 
Q 2550 3084 2163 3084 
Q 1697 3084 1428 2787 
Q 1159 2491 1159 1978 
L 1159 0 
L 581 0 
L 581 3500 
L 1159 3500 
L 1159 2956 
Q 1366 3272 1645 3428 
Q 1925 3584 2291 3584 
Q 2894 3584 3203 3211 
Q 3513 2838 3513 2113 
z
" transform="scale(0.015625)"/>
      <path id="DejaVuSans-53" d="M 1159 525 
L 1159 -1331 
L 581 -1331 
L 581 3500 
L 1159 3500 
L 1159 2969 
Q 1341 3281 1617 3432 
Q 1894 3584 2278 3584 
Q 2916 3584 3314 3078 
Q 3713 2572 3713 1747 
Q 3713 922 3314 415 
Q 2916 -91 2278 -91 
Q 1894 -91 1617 61 
Q 1341 213 1159 525 
z
M 3116 1747 
Q 3116 2381 2855 2742 
Q 2594 3103 2138 3103 
Q 1681 3103 1420 2742 
Q 1159 2381 1159 1747 
Q 1159 1113 1420 752 
Q 1681 391 2138 391 
Q 2594 391 2855 752 
Q 3116 1113 3116 1747 
z
" transform="scale(0.015625)"/>
      <path id="DejaVuSans-58" d="M 544 1381 
L 544 3500 
L 1119 3500 
L 1119 1403 
Q 1119 906 1312 657 
Q 1506 409 1894 409 
Q 2359 409 2629 706 
Q 2900 1003 2900 1516 
L 2900 3500 
L 3475 3500 
L 3475 0 
L 2900 0 
L 2900 538 
Q 2691 219 2414 64 
Q 2138 -91 1772 -91 
Q 1169 -91 856 284 
Q 544 659 544 1381 
z
M 1991 3584 
L 1991 3584 
z
" transform="scale(0.015625)"/>
      <path id="DejaVuSans-57" d="M 1172 4494 
L 1172 3500 
L 2356 3500 
L 2356 3053 
L 1172 3053 
L 1172 1153 
Q 1172 725 1289 603 
Q 1406 481 1766 481 
L 2356 481 
L 2356 0 
L 1766 0 
Q 1100 0 847 248 
Q 594 497 594 1153 
L 594 3053 
L 172 3053 
L 172 3500 
L 594 3500 
L 594 4494 
L 1172 4494 
z
" transform="scale(0.015625)"/>
      <path id="DejaVuSans-3" transform="scale(0.015625)"/>
      <path id="DejaVuSans-36" d="M 3425 4513 
L 3425 3897 
Q 3066 4069 2747 4153 
Q 2428 4238 2131 4238 
Q 1616 4238 1336 4038 
Q 1056 3838 1056 3469 
Q 1056 3159 1242 3001 
Q 1428 2844 1947 2747 
L 2328 2669 
Q 3034 2534 3370 2195 
Q 3706 1856 3706 1288 
Q 3706 609 3251 259 
Q 2797 -91 1919 -91 
Q 1588 -91 1214 -16 
Q 841 59 441 206 
L 441 856 
Q 825 641 1194 531 
Q 1563 422 1919 422 
Q 2459 422 2753 634 
Q 3047 847 3047 1241 
Q 3047 1584 2836 1778 
Q 2625 1972 2144 2069 
L 1759 2144 
Q 1053 2284 737 2584 
Q 422 2884 422 3419 
Q 422 4038 858 4394 
Q 1294 4750 2059 4750 
Q 2388 4750 2728 4690 
Q 3069 4631 3425 4513 
z
" transform="scale(0.015625)"/>
      <path id="DejaVuSans-44" d="M 2194 1759 
Q 1497 1759 1228 1600 
Q 959 1441 959 1056 
Q 959 750 1161 570 
Q 1363 391 1709 391 
Q 2188 391 2477 730 
Q 2766 1069 2766 1631 
L 2766 1759 
L 2194 1759 
z
M 3341 1997 
L 3341 0 
L 2766 0 
L 2766 531 
Q 2569 213 2275 61 
Q 1981 -91 1556 -91 
Q 1019 -91 701 211 
Q 384 513 384 1019 
Q 384 1609 779 1909 
Q 1175 2209 1959 2209 
L 2766 2209 
L 2766 2266 
Q 2766 2663 2505 2880 
Q 2244 3097 1772 3097 
Q 1472 3097 1187 3025 
Q 903 2953 641 2809 
L 641 3341 
Q 956 3463 1253 3523 
Q 1550 3584 1831 3584 
Q 2591 3584 2966 3190 
Q 3341 2797 3341 1997 
z
" transform="scale(0.015625)"/>
      <path id="DejaVuSans-46" d="M 3122 3366 
L 3122 2828 
Q 2878 2963 2633 3030 
Q 2388 3097 2138 3097 
Q 1578 3097 1268 2742 
Q 959 2388 959 1747 
Q 959 1106 1268 751 
Q 1578 397 2138 397 
Q 2388 397 2633 464 
Q 2878 531 3122 666 
L 3122 134 
Q 2881 22 2623 -34 
Q 2366 -91 2075 -91 
Q 1284 -91 818 406 
Q 353 903 353 1747 
Q 353 2603 823 3093 
Q 1294 3584 2113 3584 
Q 2378 3584 2631 3529 
Q 2884 3475 3122 3366 
z
" transform="scale(0.015625)"/>
      <path id="DejaVuSans-48" d="M 3597 1894 
L 3597 1613 
L 953 1613 
Q 991 1019 1311 708 
Q 1631 397 2203 397 
Q 2534 397 2845 478 
Q 3156 559 3463 722 
L 3463 178 
Q 3153 47 2828 -22 
Q 2503 -91 2169 -91 
Q 1331 -91 842 396 
Q 353 884 353 1716 
Q 353 2575 817 3079 
Q 1281 3584 2069 3584 
Q 2775 3584 3186 3129 
Q 3597 2675 3597 1894 
z
M 3022 2063 
Q 3016 2534 2758 2815 
Q 2500 3097 2075 3097 
Q 1594 3097 1305 2825 
Q 1016 2553 972 2059 
L 3022 2063 
z
" transform="scale(0.015625)"/>
     </defs>
     <use xlink:href="#DejaVuSans-2c"/>
     <use xlink:href="#DejaVuSans-51" transform="translate(29.5 0)"/>
     <use xlink:href="#DejaVuSans-53" transform="translate(92.875 0)"/>
     <use xlink:href="#DejaVuSans-58" transform="translate(156.359375 0)"/>
     <use xlink:href="#DejaVuSans-57" transform="translate(219.734375 0)"/>
     <use xlink:href="#DejaVuSans-3" transform="translate(258.9375 0)"/>
     <use xlink:href="#DejaVuSans-36" transform="translate(290.71875 0)"/>
     <use xlink:href="#DejaVuSans-53" transform="translate(354.203125 0)"/>
     <use xlink:href="#DejaVuSans-44" transform="translate(417.6875 0)"/>
     <use xlink:href="#DejaVuSans-46" transform="translate(478.96875 0)"/>
     <use xlink:href="#DejaVuSans-48" transform="translate(533.953125 0)"/>
    </g>
   </g>
   <g id="text_2">
    <!-- Kernel Trick -->
    <g style="fill: #666666" transform="translate(111.053807 96.899937) scale(0.08 -0.08)">
     <defs>
      <path id="DejaVuSans-2e" d="M 628 4666 
L 1259 4666 
L 1259 2694 
L 3353 4666 
L 4166 4666 
L 1850 2491 
L 4331 0 
L 3500 0 
L 1259 2247 
L 1259 0 
L 628 0 
L 628 4666 
z
" transform="scale(0.015625)"/>
      <path id="DejaVuSans-55" d="M 2631 2963 
Q 2534 3019 2420 3045 
Q 2306 3072 2169 3072 
Q 1681 3072 1420 2755 
Q 1159 2438 1159 1844 
L 1159 0 
L 581 0 
L 581 3500 
L 1159 3500 
L 1159 2956 
Q 1341 3275 1631 3429 
Q 1922 3584 2338 3584 
Q 2397 3584 2469 3576 
Q 2541 3569 2628 3553 
L 2631 2963 
z
" transform="scale(0.015625)"/>
      <path id="DejaVuSans-4f" d="M 603 4863 
L 1178 4863 
L 1178 0 
L 603 0 
L 603 4863 
z
" transform="scale(0.015625)"/>
      <path id="DejaVuSans-37" d="M -19 4666 
L 3928 4666 
L 3928 4134 
L 2272 4134 
L 2272 0 
L 1638 0 
L 1638 4134 
L -19 4134 
L -19 4666 
z
" transform="scale(0.015625)"/>
      <path id="DejaVuSans-4c" d="M 603 3500 
L 1178 3500 
L 1178 0 
L 603 0 
L 603 3500 
z
M 603 4863 
L 1178 4863 
L 1178 4134 
L 603 4134 
L 603 4863 
z
" transform="scale(0.015625)"/>
      <path id="DejaVuSans-4e" d="M 581 4863 
L 1159 4863 
L 1159 1991 
L 2875 3500 
L 3609 3500 
L 1753 1863 
L 3688 0 
L 2938 0 
L 1159 1709 
L 1159 0 
L 581 0 
L 581 4863 
z
" transform="scale(0.015625)"/>
     </defs>
     <use xlink:href="#DejaVuSans-2e"/>
     <use xlink:href="#DejaVuSans-48" transform="translate(60.59375 0)"/>
     <use xlink:href="#DejaVuSans-55" transform="translate(122.125 0)"/>
     <use xlink:href="#DejaVuSans-51" transform="translate(161.484375 0)"/>
     <use xlink:href="#DejaVuSans-48" transform="translate(224.859375 0)"/>
     <use xlink:href="#DejaVuSans-4f" transform="translate(286.390625 0)"/>
     <use xlink:href="#DejaVuSans-3" transform="translate(314.171875 0)"/>
     <use xlink:href="#DejaVuSans-37" transform="translate(345.953125 0)"/>
     <use xlink:href="#DejaVuSans-55" transform="translate(392.328125 0)"/>
     <use xlink:href="#DejaVuSans-4c" transform="translate(433.4375 0)"/>
     <use xlink:href="#DejaVuSans-46" transform="translate(461.21875 0)"/>
     <use xlink:href="#DejaVuSans-4e" transform="translate(516.203125 0)"/>
    </g>
   </g>
   <g id="text_3">
    <!-- Higher-Dim -->
    <g style="fill: #1a1a1a" transform="translate(111.443807 145.995469) scale(0.08 -0.08)">
     <defs>
      <path id="DejaVuSans-2b" d="M 628 4666 
L 1259 4666 
L 1259 2753 
L 3553 2753 
L 3553 4666 
L 4184 4666 
L 4184 0 
L 3553 0 
L 3553 2222 
L 1259 2222 
L 1259 0 
L 628 0 
L 628 4666 
z
" transform="scale(0.015625)"/>
      <path id="DejaVuSans-4a" d="M 2906 1791 
Q 2906 2416 2648 2759 
Q 2391 3103 1925 3103 
Q 1463 3103 1205 2759 
Q 947 2416 947 1791 
Q 947 1169 1205 825 
Q 1463 481 1925 481 
Q 2391 481 2648 825 
Q 2906 1169 2906 1791 
z
M 3481 434 
Q 3481 -459 3084 -895 
Q 2688 -1331 1869 -1331 
Q 1566 -1331 1297 -1286 
Q 1028 -1241 775 -1147 
L 775 -588 
Q 1028 -725 1275 -790 
Q 1522 -856 1778 -856 
Q 2344 -856 2625 -561 
Q 2906 -266 2906 331 
L 2906 616 
Q 2728 306 2450 153 
Q 2172 0 1784 0 
Q 1141 0 747 490 
Q 353 981 353 1791 
Q 353 2603 747 3093 
Q 1141 3584 1784 3584 
Q 2172 3584 2450 3431 
Q 2728 3278 2906 2969 
L 2906 3500 
L 3481 3500 
L 3481 434 
z
" transform="scale(0.015625)"/>
      <path id="DejaVuSans-4b" d="M 3513 2113 
L 3513 0 
L 2938 0 
L 2938 2094 
Q 2938 2591 2744 2837 
Q 2550 3084 2163 3084 
Q 1697 3084 1428 2787 
Q 1159 2491 1159 1978 
L 1159 0 
L 581 0 
L 581 4863 
L 1159 4863 
L 1159 2956 
Q 1366 3272 1645 3428 
Q 1925 3584 2291 3584 
Q 2894 3584 3203 3211 
Q 3513 2838 3513 2113 
z
" transform="scale(0.015625)"/>
      <path id="DejaVuSans-10" d="M 313 2009 
L 1997 2009 
L 1997 1497 
L 313 1497 
L 313 2009 
z
" transform="scale(0.015625)"/>
      <path id="DejaVuSans-27" d="M 1259 4147 
L 1259 519 
L 2022 519 
Q 2988 519 3436 956 
Q 3884 1394 3884 2338 
Q 3884 3275 3436 3711 
Q 2988 4147 2022 4147 
L 1259 4147 
z
M 628 4666 
L 1925 4666 
Q 3281 4666 3915 4102 
Q 4550 3538 4550 2338 
Q 4550 1131 3912 565 
Q 3275 0 1925 0 
L 628 0 
L 628 4666 
z
" transform="scale(0.015625)"/>
      <path id="DejaVuSans-50" d="M 3328 2828 
Q 3544 3216 3844 3400 
Q 4144 3584 4550 3584 
Q 5097 3584 5394 3201 
Q 5691 2819 5691 2113 
L 5691 0 
L 5113 0 
L 5113 2094 
Q 5113 2597 4934 2840 
Q 4756 3084 4391 3084 
Q 3944 3084 3684 2787 
Q 3425 2491 3425 1978 
L 3425 0 
L 2847 0 
L 2847 2094 
Q 2847 2600 2669 2842 
Q 2491 3084 2119 3084 
Q 1678 3084 1418 2786 
Q 1159 2488 1159 1978 
L 1159 0 
L 581 0 
L 581 3500 
L 1159 3500 
L 1159 2956 
Q 1356 3278 1631 3431 
Q 1906 3584 2284 3584 
Q 2666 3584 2933 3390 
Q 3200 3197 3328 2828 
z
" transform="scale(0.015625)"/>
     </defs>
     <use xlink:href="#DejaVuSans-2b"/>
     <use xlink:href="#DejaVuSans-4c" transform="translate(75.203125 0)"/>
     <use xlink:href="#DejaVuSans-4a" transform="translate(102.984375 0)"/>
     <use xlink:href="#DejaVuSans-4b" transform="translate(166.46875 0)"/>
     <use xlink:href="#DejaVuSans-48" transform="translate(229.84375 0)"/>
     <use xlink:href="#DejaVuSans-55" transform="translate(291.375 0)"/>
     <use xlink:href="#DejaVuSans-10" transform="translate(326.09375 0)"/>
     <use xlink:href="#DejaVuSans-27" transform="translate(362.171875 0)"/>
     <use xlink:href="#DejaVuSans-4c" transform="translate(439.171875 0)"/>
     <use xlink:href="#DejaVuSans-50" transform="translate(466.953125 0)"/>
    </g>
    <!-- Feature Space -->
    <g style="fill: #1a1a1a" transform="translate(105.441307 155.597031) scale(0.08 -0.08)">
     <defs>
      <path id="DejaVuSans-29" d="M 628 4666 
L 3309 4666 
L 3309 4134 
L 1259 4134 
L 1259 2759 
L 3109 2759 
L 3109 2228 
L 1259 2228 
L 1259 0 
L 628 0 
L 628 4666 
z
" transform="scale(0.015625)"/>
     </defs>
     <use xlink:href="#DejaVuSans-29"/>
     <use xlink:href="#DejaVuSans-48" transform="translate(52.046875 0)"/>
     <use xlink:href="#DejaVuSans-44" transform="translate(113.578125 0)"/>
     <use xlink:href="#DejaVuSans-57" transform="translate(174.859375 0)"/>
     <use xlink:href="#DejaVuSans-58" transform="translate(214.0625 0)"/>
     <use xlink:href="#DejaVuSans-55" transform="translate(277.4375 0)"/>
     <use xlink:href="#DejaVuSans-48" transform="translate(316.34375 0)"/>
     <use xlink:href="#DejaVuSans-3" transform="translate(377.875 0)"/>
     <use xlink:href="#DejaVuSans-36" transform="translate(409.65625 0)"/>
     <use xlink:href="#DejaVuSans-53" transform="translate(473.140625 0)"/>
     <use xlink:href="#DejaVuSans-44" transform="translate(536.625 0)"/>
     <use xlink:href="#DejaVuSans-46" transform="translate(597.90625 0)"/>
     <use xlink:href="#DejaVuSans-48" transform="translate(652.890625 0)"/>
    </g>
   </g>
   <g id="text_4">
    <!-- Max-Margin -->
    <g style="fill: #1a1a1a" transform="translate(110.642557 215.295156) scale(0.08 -0.08)">
     <defs>
      <path id="DejaVuSans-30" d="M 628 4666 
L 1569 4666 
L 2759 1491 
L 3956 4666 
L 4897 4666 
L 4897 0 
L 4281 0 
L 4281 4097 
L 3078 897 
L 2444 897 
L 1241 4097 
L 1241 0 
L 628 0 
L 628 4666 
z
" transform="scale(0.015625)"/>
      <path id="DejaVuSans-5b" d="M 3513 3500 
L 2247 1797 
L 3578 0 
L 2900 0 
L 1881 1375 
L 863 0 
L 184 0 
L 1544 1831 
L 300 3500 
L 978 3500 
L 1906 2253 
L 2834 3500 
L 3513 3500 
z
" transform="scale(0.015625)"/>
     </defs>
     <use xlink:href="#DejaVuSans-30"/>
     <use xlink:href="#DejaVuSans-44" transform="translate(86.28125 0)"/>
     <use xlink:href="#DejaVuSans-5b" transform="translate(147.5625 0)"/>
     <use xlink:href="#DejaVuSans-10" transform="translate(206.75 0)"/>
     <use xlink:href="#DejaVuSans-30" transform="translate(242.828125 0)"/>
     <use xlink:href="#DejaVuSans-44" transform="translate(329.109375 0)"/>
     <use xlink:href="#DejaVuSans-55" transform="translate(390.390625 0)"/>
     <use xlink:href="#DejaVuSans-4a" transform="translate(429.75 0)"/>
     <use xlink:href="#DejaVuSans-4c" transform="translate(493.234375 0)"/>
     <use xlink:href="#DejaVuSans-51" transform="translate(521.015625 0)"/>
    </g>
    <!-- Hyperplane -->
    <g style="fill: #1a1a1a" transform="translate(110.899432 224.897344) scale(0.08 -0.08)">
     <defs>
      <path id="DejaVuSans-5c" d="M 2059 -325 
Q 1816 -950 1584 -1140 
Q 1353 -1331 966 -1331 
L 506 -1331 
L 506 -850 
L 844 -850 
Q 1081 -850 1212 -737 
Q 1344 -625 1503 -206 
L 1606 56 
L 191 3500 
L 800 3500 
L 1894 763 
L 2988 3500 
L 3597 3500 
L 2059 -325 
z
" transform="scale(0.015625)"/>
     </defs>
     <use xlink:href="#DejaVuSans-2b"/>
     <use xlink:href="#DejaVuSans-5c" transform="translate(75.203125 0)"/>
     <use xlink:href="#DejaVuSans-53" transform="translate(134.390625 0)"/>
     <use xlink:href="#DejaVuSans-48" transform="translate(197.875 0)"/>
     <use xlink:href="#DejaVuSans-55" transform="translate(259.40625 0)"/>
     <use xlink:href="#DejaVuSans-53" transform="translate(300.515625 0)"/>
     <use xlink:href="#DejaVuSans-4f" transform="translate(364 0)"/>
     <use xlink:href="#DejaVuSans-44" transform="translate(391.78125 0)"/>
     <use xlink:href="#DejaVuSans-51" transform="translate(453.0625 0)"/>
     <use xlink:href="#DejaVuSans-48" transform="translate(516.4375 0)"/>
    </g>
   </g>
   <g id="text_5">
    <!-- Support Vectors -->
    <g style="fill: #555555" transform="translate(102.103807 244.451625) scale(0.08 -0.08)">
     <defs>
      <path id="DejaVuSans-52" d="M 1959 3097 
Q 1497 3097 1228 2736 
Q 959 2375 959 1747 
Q 959 1119 1226 758 
Q 1494 397 1959 397 
Q 2419 397 2687 759 
Q 2956 1122 2956 1747 
Q 2956 2369 2687 2733 
Q 2419 3097 1959 3097 
z
M 1959 3584 
Q 2709 3584 3137 3096 
Q 3566 2609 3566 1747 
Q 3566 888 3137 398 
Q 2709 -91 1959 -91 
Q 1206 -91 779 398 
Q 353 888 353 1747 
Q 353 2609 779 3096 
Q 1206 3584 1959 3584 
z
" transform="scale(0.015625)"/>
      <path id="DejaVuSans-39" d="M 1831 0 
L 50 4666 
L 709 4666 
L 2188 738 
L 3669 4666 
L 4325 4666 
L 2547 0 
L 1831 0 
z
" transform="scale(0.015625)"/>
      <path id="DejaVuSans-56" d="M 2834 3397 
L 2834 2853 
Q 2591 2978 2328 3040 
Q 2066 3103 1784 3103 
Q 1356 3103 1142 2972 
Q 928 2841 928 2578 
Q 928 2378 1081 2264 
Q 1234 2150 1697 2047 
L 1894 2003 
Q 2506 1872 2764 1633 
Q 3022 1394 3022 966 
Q 3022 478 2636 193 
Q 2250 -91 1575 -91 
Q 1294 -91 989 -36 
Q 684 19 347 128 
L 347 722 
Q 666 556 975 473 
Q 1284 391 1588 391 
Q 1994 391 2212 530 
Q 2431 669 2431 922 
Q 2431 1156 2273 1281 
Q 2116 1406 1581 1522 
L 1381 1569 
Q 847 1681 609 1914 
Q 372 2147 372 2553 
Q 372 3047 722 3315 
Q 1072 3584 1716 3584 
Q 2034 3584 2315 3537 
Q 2597 3491 2834 3397 
z
" transform="scale(0.015625)"/>
     </defs>
     <use xlink:href="#DejaVuSans-36"/>
     <use xlink:href="#DejaVuSans-58" transform="translate(63.484375 0)"/>
     <use xlink:href="#DejaVuSans-53" transform="translate(126.859375 0)"/>
     <use xlink:href="#DejaVuSans-53" transform="translate(190.34375 0)"/>
     <use xlink:href="#DejaVuSans-52" transform="translate(253.828125 0)"/>
     <use xlink:href="#DejaVuSans-55" transform="translate(315.015625 0)"/>
     <use xlink:href="#DejaVuSans-57" transform="translate(356.125 0)"/>
     <use xlink:href="#DejaVuSans-3" transform="translate(395.328125 0)"/>
     <use xlink:href="#DejaVuSans-39" transform="translate(427.109375 0)"/>
     <use xlink:href="#DejaVuSans-48" transform="translate(487.75 0)"/>
     <use xlink:href="#DejaVuSans-46" transform="translate(549.28125 0)"/>
     <use xlink:href="#DejaVuSans-57" transform="translate(604.265625 0)"/>
     <use xlink:href="#DejaVuSans-52" transform="translate(643.46875 0)"/>
     <use xlink:href="#DejaVuSans-55" transform="translate(704.65625 0)"/>
     <use xlink:href="#DejaVuSans-56" transform="translate(745.765625 0)"/>
    </g>
    <!-- define the margin -->
    <g style="fill: #555555" transform="translate(98.287557 254.053812) scale(0.08 -0.08)">
     <defs>
      <path id="DejaVuSans-47" d="M 2906 2969 
L 2906 4863 
L 3481 4863 
L 3481 0 
L 2906 0 
L 2906 525 
Q 2725 213 2448 61 
Q 2172 -91 1784 -91 
Q 1150 -91 751 415 
Q 353 922 353 1747 
Q 353 2572 751 3078 
Q 1150 3584 1784 3584 
Q 2172 3584 2448 3432 
Q 2725 3281 2906 2969 
z
M 947 1747 
Q 947 1113 1208 752 
Q 1469 391 1925 391 
Q 2381 391 2643 752 
Q 2906 1113 2906 1747 
Q 2906 2381 2643 2742 
Q 2381 3103 1925 3103 
Q 1469 3103 1208 2742 
Q 947 2381 947 1747 
z
" transform="scale(0.015625)"/>
      <path id="DejaVuSans-13af" d="M 3431 3500 
L 3431 0 
L 2853 0 
L 2853 3053 
L 1275 3053 
L 1275 0 
L 697 0 
L 697 3053 
L 147 3053 
L 147 3500 
L 697 3500 
L 697 3744 
Q 697 4316 967 4589 
Q 1238 4863 1797 4863 
L 2375 4863 
L 2375 4384 
L 1825 4384 
Q 1516 4384 1395 4259 
Q 1275 4134 1275 3809 
L 1275 3500 
L 3431 3500 
z
M 2853 4856 
L 3431 4856 
L 3431 4128 
L 2853 4128 
L 2853 4856 
z
" transform="scale(0.015625)"/>
     </defs>
     <use xlink:href="#DejaVuSans-47"/>
     <use xlink:href="#DejaVuSans-48" transform="translate(63.484375 0)"/>
     <use xlink:href="#DejaVuSans-13af" transform="translate(125.015625 0)"/>
     <use xlink:href="#DejaVuSans-51" transform="translate(188 0)"/>
     <use xlink:href="#DejaVuSans-48" transform="translate(251.375 0)"/>
     <use xlink:href="#DejaVuSans-3" transform="translate(312.90625 0)"/>
     <use xlink:href="#DejaVuSans-57" transform="translate(344.6875 0)"/>
     <use xlink:href="#DejaVuSans-4b" transform="translate(383.890625 0)"/>
     <use xlink:href="#DejaVuSans-48" transform="translate(447.265625 0)"/>
     <use xlink:href="#DejaVuSans-3" transform="translate(508.796875 0)"/>
     <use xlink:href="#DejaVuSans-50" transform="translate(540.578125 0)"/>
     <use xlink:href="#DejaVuSans-44" transform="translate(637.984375 0)"/>
     <use xlink:href="#DejaVuSans-55" transform="translate(699.265625 0)"/>
     <use xlink:href="#DejaVuSans-4a" transform="translate(738.625 0)"/>
     <use xlink:href="#DejaVuSans-4c" transform="translate(802.109375 0)"/>
     <use xlink:href="#DejaVuSans-51" transform="translate(829.890625 0)"/>
    </g>
   </g>
   <g id="text_6">
    <!-- Binary SVM -->
    <g transform="translate(88.699744 17.837812) scale(0.14 -0.14)">
     <defs>
      <path id="DejaVuSans-Bold-25" d="M 2456 2859 
Q 2741 2859 2887 2984 
Q 3034 3109 3034 3353 
Q 3034 3594 2887 3720 
Q 2741 3847 2456 3847 
L 1791 3847 
L 1791 2859 
L 2456 2859 
z
M 2497 819 
Q 2859 819 3042 972 
Q 3225 1125 3225 1434 
Q 3225 1738 3044 1889 
Q 2863 2041 2497 2041 
L 1791 2041 
L 1791 819 
L 2497 819 
z
M 3616 2497 
Q 4003 2384 4215 2081 
Q 4428 1778 4428 1338 
Q 4428 663 3972 331 
Q 3516 0 2584 0 
L 588 0 
L 588 4666 
L 2394 4666 
Q 3366 4666 3802 4372 
Q 4238 4078 4238 3431 
Q 4238 3091 4078 2852 
Q 3919 2613 3616 2497 
z
" transform="scale(0.015625)"/>
      <path id="DejaVuSans-Bold-4c" d="M 538 3500 
L 1656 3500 
L 1656 0 
L 538 0 
L 538 3500 
z
M 538 4863 
L 1656 4863 
L 1656 3950 
L 538 3950 
L 538 4863 
z
" transform="scale(0.015625)"/>
      <path id="DejaVuSans-Bold-51" d="M 4056 2131 
L 4056 0 
L 2931 0 
L 2931 347 
L 2931 1631 
Q 2931 2084 2911 2256 
Q 2891 2428 2841 2509 
Q 2775 2619 2662 2680 
Q 2550 2741 2406 2741 
Q 2056 2741 1856 2470 
Q 1656 2200 1656 1722 
L 1656 0 
L 538 0 
L 538 3500 
L 1656 3500 
L 1656 2988 
Q 1909 3294 2193 3439 
Q 2478 3584 2822 3584 
Q 3428 3584 3742 3212 
Q 4056 2841 4056 2131 
z
" transform="scale(0.015625)"/>
      <path id="DejaVuSans-Bold-44" d="M 2106 1575 
Q 1756 1575 1579 1456 
Q 1403 1338 1403 1106 
Q 1403 894 1545 773 
Q 1688 653 1941 653 
Q 2256 653 2472 879 
Q 2688 1106 2688 1447 
L 2688 1575 
L 2106 1575 
z
M 3816 1997 
L 3816 0 
L 2688 0 
L 2688 519 
Q 2463 200 2181 54 
Q 1900 -91 1497 -91 
Q 953 -91 614 226 
Q 275 544 275 1050 
Q 275 1666 698 1953 
Q 1122 2241 2028 2241 
L 2688 2241 
L 2688 2328 
Q 2688 2594 2478 2717 
Q 2269 2841 1825 2841 
Q 1466 2841 1156 2769 
Q 847 2697 581 2553 
L 581 3406 
Q 941 3494 1303 3539 
Q 1666 3584 2028 3584 
Q 2975 3584 3395 3211 
Q 3816 2838 3816 1997 
z
" transform="scale(0.015625)"/>
      <path id="DejaVuSans-Bold-55" d="M 3138 2547 
Q 2991 2616 2845 2648 
Q 2700 2681 2553 2681 
Q 2122 2681 1889 2404 
Q 1656 2128 1656 1613 
L 1656 0 
L 538 0 
L 538 3500 
L 1656 3500 
L 1656 2925 
Q 1872 3269 2151 3426 
Q 2431 3584 2822 3584 
Q 2878 3584 2943 3579 
Q 3009 3575 3134 3559 
L 3138 2547 
z
" transform="scale(0.015625)"/>
      <path id="DejaVuSans-Bold-5c" d="M 78 3500 
L 1197 3500 
L 2138 1125 
L 2938 3500 
L 4056 3500 
L 2584 -331 
Q 2363 -916 2067 -1148 
Q 1772 -1381 1288 -1381 
L 641 -1381 
L 641 -647 
L 991 -647 
Q 1275 -647 1404 -556 
Q 1534 -466 1606 -231 
L 1638 -134 
L 78 3500 
z
" transform="scale(0.015625)"/>
      <path id="DejaVuSans-Bold-3" transform="scale(0.015625)"/>
      <path id="DejaVuSans-Bold-36" d="M 3834 4519 
L 3834 3531 
Q 3450 3703 3084 3790 
Q 2719 3878 2394 3878 
Q 1963 3878 1756 3759 
Q 1550 3641 1550 3391 
Q 1550 3203 1689 3098 
Q 1828 2994 2194 2919 
L 2706 2816 
Q 3484 2659 3812 2340 
Q 4141 2022 4141 1434 
Q 4141 663 3683 286 
Q 3225 -91 2284 -91 
Q 1841 -91 1394 -6 
Q 947 78 500 244 
L 500 1259 
Q 947 1022 1364 901 
Q 1781 781 2169 781 
Q 2563 781 2772 912 
Q 2981 1044 2981 1288 
Q 2981 1506 2839 1625 
Q 2697 1744 2272 1838 
L 1806 1941 
Q 1106 2091 782 2419 
Q 459 2747 459 3303 
Q 459 4000 909 4375 
Q 1359 4750 2203 4750 
Q 2588 4750 2994 4692 
Q 3400 4634 3834 4519 
z
" transform="scale(0.015625)"/>
      <path id="DejaVuSans-Bold-39" d="M 31 4666 
L 1241 4666 
L 2478 1222 
L 3713 4666 
L 4922 4666 
L 3194 0 
L 1759 0 
L 31 4666 
z
" transform="scale(0.015625)"/>
      <path id="DejaVuSans-Bold-30" d="M 588 4666 
L 2119 4666 
L 3181 2169 
L 4250 4666 
L 5778 4666 
L 5778 0 
L 4641 0 
L 4641 3413 
L 3566 897 
L 2803 897 
L 1728 3413 
L 1728 0 
L 588 0 
L 588 4666 
z
" transform="scale(0.015625)"/>
     </defs>
     <use xlink:href="#DejaVuSans-Bold-25"/>
     <use xlink:href="#DejaVuSans-Bold-4c" transform="translate(76.21875 0)"/>
     <use xlink:href="#DejaVuSans-Bold-51" transform="translate(110.5 0)"/>
     <use xlink:href="#DejaVuSans-Bold-44" transform="translate(181.6875 0)"/>
     <use xlink:href="#DejaVuSans-Bold-55" transform="translate(249.171875 0)"/>
     <use xlink:href="#DejaVuSans-Bold-5c" transform="translate(298.484375 0)"/>
     <use xlink:href="#DejaVuSans-Bold-3" transform="translate(363.671875 0)"/>
     <use xlink:href="#DejaVuSans-Bold-36" transform="translate(398.484375 0)"/>
     <use xlink:href="#DejaVuSans-Bold-39" transform="translate(470.5 0)"/>
     <use xlink:href="#DejaVuSans-Bold-30" transform="translate(547.890625 0)"/>
    </g>
   </g>
  </g>
  <g id="axes_2">
   <g id="patch_7">
    <path d="M 438.381818 98.277699 
Q 438.381818 104.3644 438.381818 108.215034 
" style="fill: none; stroke: #888888; stroke-width: 2; stroke-linecap: round"/>
    <path d="M 440.381818 104.215034 
L 438.381818 108.215034 
L 436.381818 104.215034 
" style="fill: none; stroke: #888888; stroke-width: 2; stroke-linecap: round"/>
   </g>
   <g id="patch_8">
    <path d="M 438.381818 223.017699 
Q 438.381818 229.1044 438.381818 232.955034 
" style="fill: none; stroke: #888888; stroke-width: 2; stroke-linecap: round"/>
    <path d="M 440.381818 228.955034 
L 438.381818 232.955034 
L 436.381818 228.955034 
" style="fill: none; stroke: #888888; stroke-width: 2; stroke-linecap: round"/>
   </g>
   <g id="patch_9">
    <path d="M 395.263636 90.505812 
L 481.5 90.505812 
Q 482.768182 90.505812 482.768182 89.119812 
L 482.768182 69.715812 
Q 482.768182 68.329812 481.5 68.329812 
L 395.263636 68.329812 
Q 393.995455 68.329812 393.995455 69.715812 
L 393.995455 89.119812 
Q 393.995455 90.505812 395.263636 90.505812 
z
" clip-path="url(#p3403d753bf)" style="fill: #e0e0e0; stroke: #555555; stroke-width: 1.5; stroke-linejoin: miter"/>
   </g>
   <g id="patch_10">
    <path d="M 401.604545 159.805813 
L 475.159091 159.805813 
Q 476.427273 159.805813 476.427273 158.419813 
L 476.427273 139.015813 
Q 476.427273 137.629813 475.159091 137.629813 
L 401.604545 137.629813 
Q 400.336364 137.629813 400.336364 139.015813 
L 400.336364 158.419813 
Q 400.336364 159.805813 401.604545 159.805813 
z
" clip-path="url(#p3403d753bf)" style="fill: #e0e0e0; stroke: #555555; stroke-width: 1.5; stroke-linejoin: miter"/>
   </g>
   <g id="patch_11">
    <path d="M 395.263636 215.245812 
L 481.5 215.245812 
Q 482.768182 215.245812 482.768182 213.859813 
L 482.768182 194.455812 
Q 482.768182 193.069813 481.5 193.069813 
L 395.263636 193.069813 
Q 393.995455 193.069813 393.995455 194.455812 
L 393.995455 213.859813 
Q 393.995455 215.245812 395.263636 215.245812 
z
" clip-path="url(#p3403d753bf)" style="fill: #e0e0e0; stroke: #555555; stroke-width: 1.5; stroke-linejoin: miter"/>
   </g>
   <g id="patch_12">
    <path d="M 401.604545 284.545813 
L 475.159091 284.545813 
Q 476.427273 284.545813 476.427273 283.159813 
L 476.427273 263.755813 
Q 476.427273 262.369813 475.159091 262.369813 
L 401.604545 262.369813 
Q 400.336364 262.369813 400.336364 263.755813 
L 400.336364 283.159813 
Q 400.336364 284.545813 401.604545 284.545813 
z
" clip-path="url(#p3403d753bf)" style="fill: #e0e0e0; stroke: #555555; stroke-width: 1.5; stroke-linejoin: miter"/>
   </g>
   <g id="text_7">
    <!-- One-vs-One -->
    <g style="fill: #1a1a1a" transform="translate(414.750568 76.694844) scale(0.08 -0.08)">
     <defs>
      <path id="DejaVuSans-32" d="M 2522 4238 
Q 1834 4238 1429 3725 
Q 1025 3213 1025 2328 
Q 1025 1447 1429 934 
Q 1834 422 2522 422 
Q 3209 422 3611 934 
Q 4013 1447 4013 2328 
Q 4013 3213 3611 3725 
Q 3209 4238 2522 4238 
z
M 2522 4750 
Q 3503 4750 4090 4092 
Q 4678 3434 4678 2328 
Q 4678 1225 4090 567 
Q 3503 -91 2522 -91 
Q 1538 -91 948 565 
Q 359 1222 359 2328 
Q 359 3434 948 4092 
Q 1538 4750 2522 4750 
z
" transform="scale(0.015625)"/>
      <path id="DejaVuSans-59" d="M 191 3500 
L 800 3500 
L 1894 563 
L 2988 3500 
L 3597 3500 
L 2284 0 
L 1503 0 
L 191 3500 
z
" transform="scale(0.015625)"/>
     </defs>
     <use xlink:href="#DejaVuSans-32"/>
     <use xlink:href="#DejaVuSans-51" transform="translate(78.71875 0)"/>
     <use xlink:href="#DejaVuSans-48" transform="translate(142.09375 0)"/>
     <use xlink:href="#DejaVuSans-10" transform="translate(203.625 0)"/>
     <use xlink:href="#DejaVuSans-59" transform="translate(237.015625 0)"/>
     <use xlink:href="#DejaVuSans-56" transform="translate(296.203125 0)"/>
     <use xlink:href="#DejaVuSans-10" transform="translate(348.296875 0)"/>
     <use xlink:href="#DejaVuSans-32" transform="translate(387.15625 0)"/>
     <use xlink:href="#DejaVuSans-51" transform="translate(465.875 0)"/>
     <use xlink:href="#DejaVuSans-48" transform="translate(529.25 0)"/>
    </g>
    <!-- N(N-1)/2 clf -->
    <g style="fill: #1a1a1a" transform="translate(415.404943 86.297031) scale(0.08 -0.08)">
     <defs>
      <path id="DejaVuSans-31" d="M 628 4666 
L 1478 4666 
L 3547 763 
L 3547 4666 
L 4159 4666 
L 4159 0 
L 3309 0 
L 1241 3903 
L 1241 0 
L 628 0 
L 628 4666 
z
" transform="scale(0.015625)"/>
      <path id="DejaVuSans-b" d="M 1984 4856 
Q 1566 4138 1362 3434 
Q 1159 2731 1159 2009 
Q 1159 1288 1364 580 
Q 1569 -128 1984 -844 
L 1484 -844 
Q 1016 -109 783 600 
Q 550 1309 550 2009 
Q 550 2706 781 3412 
Q 1013 4119 1484 4856 
L 1984 4856 
z
" transform="scale(0.015625)"/>
      <path id="DejaVuSans-14" d="M 794 531 
L 1825 531 
L 1825 4091 
L 703 3866 
L 703 4441 
L 1819 4666 
L 2450 4666 
L 2450 531 
L 3481 531 
L 3481 0 
L 794 0 
L 794 531 
z
" transform="scale(0.015625)"/>
      <path id="DejaVuSans-c" d="M 513 4856 
L 1013 4856 
Q 1481 4119 1714 3412 
Q 1947 2706 1947 2009 
Q 1947 1309 1714 600 
Q 1481 -109 1013 -844 
L 513 -844 
Q 928 -128 1133 580 
Q 1338 1288 1338 2009 
Q 1338 2731 1133 3434 
Q 928 4138 513 4856 
z
" transform="scale(0.015625)"/>
      <path id="DejaVuSans-12" d="M 1625 4666 
L 2156 4666 
L 531 -594 
L 0 -594 
L 1625 4666 
z
" transform="scale(0.015625)"/>
      <path id="DejaVuSans-15" d="M 1228 531 
L 3431 531 
L 3431 0 
L 469 0 
L 469 531 
Q 828 903 1448 1529 
Q 2069 2156 2228 2338 
Q 2531 2678 2651 2914 
Q 2772 3150 2772 3378 
Q 2772 3750 2511 3984 
Q 2250 4219 1831 4219 
Q 1534 4219 1204 4116 
Q 875 4013 500 3803 
L 500 4441 
Q 881 4594 1212 4672 
Q 1544 4750 1819 4750 
Q 2544 4750 2975 4387 
Q 3406 4025 3406 3419 
Q 3406 3131 3298 2873 
Q 3191 2616 2906 2266 
Q 2828 2175 2409 1742 
Q 1991 1309 1228 531 
z
" transform="scale(0.015625)"/>
      <path id="DejaVuSans-49" d="M 2375 4863 
L 2375 4384 
L 1825 4384 
Q 1516 4384 1395 4259 
Q 1275 4134 1275 3809 
L 1275 3500 
L 2222 3500 
L 2222 3053 
L 1275 3053 
L 1275 0 
L 697 0 
L 697 3053 
L 147 3053 
L 147 3500 
L 697 3500 
L 697 3744 
Q 697 4328 969 4595 
Q 1241 4863 1831 4863 
L 2375 4863 
z
" transform="scale(0.015625)"/>
     </defs>
     <use xlink:href="#DejaVuSans-31"/>
     <use xlink:href="#DejaVuSans-b" transform="translate(74.8125 0)"/>
     <use xlink:href="#DejaVuSans-31" transform="translate(113.828125 0)"/>
     <use xlink:href="#DejaVuSans-10" transform="translate(188.640625 0)"/>
     <use xlink:href="#DejaVuSans-14" transform="translate(224.71875 0)"/>
     <use xlink:href="#DejaVuSans-c" transform="translate(288.34375 0)"/>
     <use xlink:href="#DejaVuSans-12" transform="translate(327.359375 0)"/>
     <use xlink:href="#DejaVuSans-15" transform="translate(361.046875 0)"/>
     <use xlink:href="#DejaVuSans-3" transform="translate(424.671875 0)"/>
     <use xlink:href="#DejaVuSans-46" transform="translate(456.453125 0)"/>
     <use xlink:href="#DejaVuSans-4f" transform="translate(511.4375 0)"/>
     <use xlink:href="#DejaVuSans-49" transform="translate(539.21875 0)"/>
    </g>
   </g>
   <g id="text_8">
    <!-- Majority Vote -->
    <g style="fill: #1a1a1a" transform="translate(408.764787 151.056055) scale(0.09 -0.09)">
     <defs>
      <path id="DejaVuSans-4d" d="M 603 3500 
L 1178 3500 
L 1178 -63 
Q 1178 -731 923 -1031 
Q 669 -1331 103 -1331 
L -116 -1331 
L -116 -844 
L 38 -844 
Q 366 -844 484 -692 
Q 603 -541 603 -63 
L 603 3500 
z
M 603 4863 
L 1178 4863 
L 1178 4134 
L 603 4134 
L 603 4863 
z
" transform="scale(0.015625)"/>
     </defs>
     <use xlink:href="#DejaVuSans-30"/>
     <use xlink:href="#DejaVuSans-44" transform="translate(86.28125 0)"/>
     <use xlink:href="#DejaVuSans-4d" transform="translate(147.5625 0)"/>
     <use xlink:href="#DejaVuSans-52" transform="translate(175.34375 0)"/>
     <use xlink:href="#DejaVuSans-55" transform="translate(236.53125 0)"/>
     <use xlink:href="#DejaVuSans-4c" transform="translate(277.640625 0)"/>
     <use xlink:href="#DejaVuSans-57" transform="translate(305.421875 0)"/>
     <use xlink:href="#DejaVuSans-5c" transform="translate(344.625 0)"/>
     <use xlink:href="#DejaVuSans-3" transform="translate(403.8125 0)"/>
     <use xlink:href="#DejaVuSans-39" transform="translate(435.59375 0)"/>
     <use xlink:href="#DejaVuSans-52" transform="translate(496.234375 0)"/>
     <use xlink:href="#DejaVuSans-57" transform="translate(557.421875 0)"/>
     <use xlink:href="#DejaVuSans-48" transform="translate(596.625 0)"/>
    </g>
   </g>
   <g id="text_9">
    <!-- One-vs-Rest -->
    <g style="fill: #1a1a1a" transform="translate(414.293693 201.434844) scale(0.08 -0.08)">
     <defs>
      <path id="DejaVuSans-35" d="M 2841 2188 
Q 3044 2119 3236 1894 
Q 3428 1669 3622 1275 
L 4263 0 
L 3584 0 
L 2988 1197 
Q 2756 1666 2539 1819 
Q 2322 1972 1947 1972 
L 1259 1972 
L 1259 0 
L 628 0 
L 628 4666 
L 2053 4666 
Q 2853 4666 3247 4331 
Q 3641 3997 3641 3322 
Q 3641 2881 3436 2590 
Q 3231 2300 2841 2188 
z
M 1259 4147 
L 1259 2491 
L 2053 2491 
Q 2509 2491 2742 2702 
Q 2975 2913 2975 3322 
Q 2975 3731 2742 3939 
Q 2509 4147 2053 4147 
L 1259 4147 
z
" transform="scale(0.015625)"/>
     </defs>
     <use xlink:href="#DejaVuSans-32"/>
     <use xlink:href="#DejaVuSans-51" transform="translate(78.71875 0)"/>
     <use xlink:href="#DejaVuSans-48" transform="translate(142.09375 0)"/>
     <use xlink:href="#DejaVuSans-10" transform="translate(203.625 0)"/>
     <use xlink:href="#DejaVuSans-59" transform="translate(237.015625 0)"/>
     <use xlink:href="#DejaVuSans-56" transform="translate(296.203125 0)"/>
     <use xlink:href="#DejaVuSans-10" transform="translate(348.296875 0)"/>
     <use xlink:href="#DejaVuSans-35" transform="translate(384.375 0)"/>
     <use xlink:href="#DejaVuSans-48" transform="translate(449.375 0)"/>
     <use xlink:href="#DejaVuSans-56" transform="translate(510.90625 0)"/>
     <use xlink:href="#DejaVuSans-57" transform="translate(563 0)"/>
    </g>
    <!-- N classifiers -->
    <g style="fill: #1a1a1a" transform="translate(414.368693 211.037031) scale(0.08 -0.08)">
     <use xlink:href="#DejaVuSans-31"/>
     <use xlink:href="#DejaVuSans-3" transform="translate(74.8125 0)"/>
     <use xlink:href="#DejaVuSans-46" transform="translate(106.59375 0)"/>
     <use xlink:href="#DejaVuSans-4f" transform="translate(161.578125 0)"/>
     <use xlink:href="#DejaVuSans-44" transform="translate(189.359375 0)"/>
     <use xlink:href="#DejaVuSans-56" transform="translate(250.640625 0)"/>
     <use xlink:href="#DejaVuSans-56" transform="translate(302.734375 0)"/>
     <use xlink:href="#DejaVuSans-4c" transform="translate(354.828125 0)"/>
     <use xlink:href="#DejaVuSans-13af" transform="translate(382.609375 0)"/>
     <use xlink:href="#DejaVuSans-48" transform="translate(445.59375 0)"/>
     <use xlink:href="#DejaVuSans-55" transform="translate(507.125 0)"/>
     <use xlink:href="#DejaVuSans-56" transform="translate(548.234375 0)"/>
    </g>
   </g>
   <g id="text_10">
    <!-- Pick Highest -->
    <g style="fill: #1a1a1a" transform="translate(413.853068 270.735156) scale(0.08 -0.08)">
     <defs>
      <path id="DejaVuSans-33" d="M 1259 4147 
L 1259 2394 
L 2053 2394 
Q 2494 2394 2734 2622 
Q 2975 2850 2975 3272 
Q 2975 3691 2734 3919 
Q 2494 4147 2053 4147 
L 1259 4147 
z
M 628 4666 
L 2053 4666 
Q 2838 4666 3239 4311 
Q 3641 3956 3641 3272 
Q 3641 2581 3239 2228 
Q 2838 1875 2053 1875 
L 1259 1875 
L 1259 0 
L 628 0 
L 628 4666 
z
" transform="scale(0.015625)"/>
     </defs>
     <use xlink:href="#DejaVuSans-33"/>
     <use xlink:href="#DejaVuSans-4c" transform="translate(58.09375 0)"/>
     <use xlink:href="#DejaVuSans-46" transform="translate(85.875 0)"/>
     <use xlink:href="#DejaVuSans-4e" transform="translate(140.859375 0)"/>
     <use xlink:href="#DejaVuSans-3" transform="translate(198.765625 0)"/>
     <use xlink:href="#DejaVuSans-2b" transform="translate(230.546875 0)"/>
     <use xlink:href="#DejaVuSans-4c" transform="translate(305.75 0)"/>
     <use xlink:href="#DejaVuSans-4a" transform="translate(333.53125 0)"/>
     <use xlink:href="#DejaVuSans-4b" transform="translate(397.015625 0)"/>
     <use xlink:href="#DejaVuSans-48" transform="translate(460.390625 0)"/>
     <use xlink:href="#DejaVuSans-56" transform="translate(521.921875 0)"/>
     <use xlink:href="#DejaVuSans-57" transform="translate(574.015625 0)"/>
    </g>
    <!-- Confidence -->
    <g style="fill: #1a1a1a" transform="translate(415.890568 280.337344) scale(0.08 -0.08)">
     <defs>
      <path id="DejaVuSans-26" d="M 4122 4306 
L 4122 3641 
Q 3803 3938 3442 4084 
Q 3081 4231 2675 4231 
Q 1875 4231 1450 3742 
Q 1025 3253 1025 2328 
Q 1025 1406 1450 917 
Q 1875 428 2675 428 
Q 3081 428 3442 575 
Q 3803 722 4122 1019 
L 4122 359 
Q 3791 134 3420 21 
Q 3050 -91 2638 -91 
Q 1578 -91 968 557 
Q 359 1206 359 2328 
Q 359 3453 968 4101 
Q 1578 4750 2638 4750 
Q 3056 4750 3426 4639 
Q 3797 4528 4122 4306 
z
" transform="scale(0.015625)"/>
     </defs>
     <use xlink:href="#DejaVuSans-26"/>
     <use xlink:href="#DejaVuSans-52" transform="translate(69.828125 0)"/>
     <use xlink:href="#DejaVuSans-51" transform="translate(131.015625 0)"/>
     <use xlink:href="#DejaVuSans-13af" transform="translate(194.390625 0)"/>
     <use xlink:href="#DejaVuSans-47" transform="translate(257.375 0)"/>
     <use xlink:href="#DejaVuSans-48" transform="translate(320.859375 0)"/>
     <use xlink:href="#DejaVuSans-51" transform="translate(382.390625 0)"/>
     <use xlink:href="#DejaVuSans-46" transform="translate(445.765625 0)"/>
     <use xlink:href="#DejaVuSans-48" transform="translate(500.75 0)"/>
    </g>
   </g>
   <g id="text_11">
    <!-- Multi-Class -->
    <g transform="translate(394.789318 17.837812) scale(0.14 -0.14)">
     <defs>
      <path id="DejaVuSans-Bold-58" d="M 500 1363 
L 500 3500 
L 1625 3500 
L 1625 3150 
Q 1625 2866 1622 2436 
Q 1619 2006 1619 1863 
Q 1619 1441 1641 1255 
Q 1663 1069 1716 984 
Q 1784 875 1895 815 
Q 2006 756 2150 756 
Q 2500 756 2700 1025 
Q 2900 1294 2900 1772 
L 2900 3500 
L 4019 3500 
L 4019 0 
L 2900 0 
L 2900 506 
Q 2647 200 2364 54 
Q 2081 -91 1741 -91 
Q 1134 -91 817 281 
Q 500 653 500 1363 
z
" transform="scale(0.015625)"/>
      <path id="DejaVuSans-Bold-4f" d="M 538 4863 
L 1656 4863 
L 1656 0 
L 538 0 
L 538 4863 
z
" transform="scale(0.015625)"/>
      <path id="DejaVuSans-Bold-57" d="M 1759 4494 
L 1759 3500 
L 2913 3500 
L 2913 2700 
L 1759 2700 
L 1759 1216 
Q 1759 972 1856 886 
Q 1953 800 2241 800 
L 2816 800 
L 2816 0 
L 1856 0 
Q 1194 0 917 276 
Q 641 553 641 1216 
L 641 2700 
L 84 2700 
L 84 3500 
L 641 3500 
L 641 4494 
L 1759 4494 
z
" transform="scale(0.015625)"/>
      <path id="DejaVuSans-Bold-10" d="M 347 2297 
L 2309 2297 
L 2309 1388 
L 347 1388 
L 347 2297 
z
" transform="scale(0.015625)"/>
      <path id="DejaVuSans-Bold-26" d="M 4288 256 
Q 3956 84 3597 -3 
Q 3238 -91 2847 -91 
Q 1681 -91 1000 561 
Q 319 1213 319 2328 
Q 319 3447 1000 4098 
Q 1681 4750 2847 4750 
Q 3238 4750 3597 4662 
Q 3956 4575 4288 4403 
L 4288 3438 
Q 3953 3666 3628 3772 
Q 3303 3878 2944 3878 
Q 2300 3878 1931 3465 
Q 1563 3053 1563 2328 
Q 1563 1606 1931 1193 
Q 2300 781 2944 781 
Q 3303 781 3628 887 
Q 3953 994 4288 1222 
L 4288 256 
z
" transform="scale(0.015625)"/>
      <path id="DejaVuSans-Bold-56" d="M 3272 3391 
L 3272 2541 
Q 2913 2691 2578 2766 
Q 2244 2841 1947 2841 
Q 1628 2841 1473 2761 
Q 1319 2681 1319 2516 
Q 1319 2381 1436 2309 
Q 1553 2238 1856 2203 
L 2053 2175 
Q 2913 2066 3209 1816 
Q 3506 1566 3506 1031 
Q 3506 472 3093 190 
Q 2681 -91 1863 -91 
Q 1516 -91 1145 -36 
Q 775 19 384 128 
L 384 978 
Q 719 816 1070 734 
Q 1422 653 1784 653 
Q 2113 653 2278 743 
Q 2444 834 2444 1013 
Q 2444 1163 2330 1236 
Q 2216 1309 1875 1350 
L 1678 1375 
Q 931 1469 631 1722 
Q 331 1975 331 2491 
Q 331 3047 712 3315 
Q 1094 3584 1881 3584 
Q 2191 3584 2531 3537 
Q 2872 3491 3272 3391 
z
" transform="scale(0.015625)"/>
     </defs>
     <use xlink:href="#DejaVuSans-Bold-30"/>
     <use xlink:href="#DejaVuSans-Bold-58" transform="translate(99.515625 0)"/>
     <use xlink:href="#DejaVuSans-Bold-4f" transform="translate(170.703125 0)"/>
     <use xlink:href="#DejaVuSans-Bold-57" transform="translate(204.984375 0)"/>
     <use xlink:href="#DejaVuSans-Bold-4c" transform="translate(252.78125 0)"/>
     <use xlink:href="#DejaVuSans-Bold-10" transform="translate(287.0625 0)"/>
     <use xlink:href="#DejaVuSans-Bold-26" transform="translate(328.5625 0)"/>
     <use xlink:href="#DejaVuSans-Bold-4f" transform="translate(401.953125 0)"/>
     <use xlink:href="#DejaVuSans-Bold-44" transform="translate(436.234375 0)"/>
     <use xlink:href="#DejaVuSans-Bold-56" transform="translate(503.71875 0)"/>
     <use xlink:href="#DejaVuSans-Bold-56" transform="translate(563.234375 0)"/>
    </g>
   </g>
  </g>
 </g>
 <defs>
  <clipPath id="p2a36faece7">
   <rect x="7.2" y="37.837812" width="253.636364" height="277.2"/>
  </clipPath>
  <clipPath id="p3403d753bf">
   <rect x="311.563636" y="37.837812" width="253.636364" height="277.2"/>
  </clipPath>
 </defs>
</svg>
