<?xml version="1.0" encoding="utf-8" standalone="no"?>
<!DOCTYPE svg PUBLIC "-//W3C//DTD SVG 1.1//EN"
  "http://www.w3.org/Graphics/SVG/1.1/DTD/svg11.dtd">
<svg xmlns:xlink="http://www.w3.org/1999/xlink" width="572.4pt" height="236.16pt" viewBox="0 0 572.4 236.16" xmlns="http://www.w3.org/2000/svg" version="1.1">
 <metadata>
  <rdf:RDF xmlns:dc="http://purl.org/dc/elements/1.1/" xmlns:cc="http://creativecommons.org/ns#" xmlns:rdf="http://www.w3.org/1999/02/22-rdf-syntax-ns#">
   <cc:Work>
    <dc:type rdf:resource="http://purl.org/dc/dcmitype/StillImage"/>
    <dc:date>2026-07-06T17:32:28.783107</dc:date>
    <dc:format>image/svg+xml</dc:format>
    <dc:creator>
     <cc:Agent>
      <dc:title>Matplotlib v3.11.0, https://matplotlib.org/</dc:title>
     </cc:Agent>
    </dc:creator>
   </cc:Work>
  </rdf:RDF>
 </metadata>
 <defs>
  <style type="text/css">*{stroke-linejoin: round; stroke-linecap: butt}</style>
 </defs>
 <g id="figure_1">
  <g id="patch_1">
   <path d="M 0 236.16 
L 572.4 236.16 
L 572.4 0 
L 0 0 
L 0 236.16 
z
" style="fill: none"/>
  </g>
  <g id="axes_1">
   <g id="line2d_1">
    <path d="M 90.9 140.256 
L 90.9 129.168 
" clip-path="url(#p5cacf1454c)" style="fill: none; stroke: #888888; stroke-linecap: square"/>
   </g>
   <g id="line2d_2">
    <path d="M 230.4 140.256 
L 230.4 129.168 
" clip-path="url(#p5cacf1454c)" style="fill: none; stroke: #888888; stroke-linecap: square"/>
   </g>
   <g id="line2d_3">
    <path d="M 369.9 140.256 
L 369.9 129.168 
" clip-path="url(#p5cacf1454c)" style="fill: none; stroke: #888888; stroke-linecap: square"/>
   </g>
   <g id="line2d_4">
    <path d="M 509.4 140.256 
L 509.4 129.168 
" clip-path="url(#p5cacf1454c)" style="fill: none; stroke: #888888; stroke-linecap: square"/>
   </g>
   <g id="patch_2">
    <path d="M 23.94 195.696 
L 157.86 195.696 
Q 160.65 195.696 160.65 194.5872 
L 160.65 152.4528 
Q 160.65 151.344 157.86 151.344 
L 23.94 151.344 
Q 21.15 151.344 21.15 152.4528 
L 21.15 194.5872 
Q 21.15 195.696 23.94 195.696 
z
" clip-path="url(#p5cacf1454c)" style="fill: #d5f5e3; stroke: #555555; stroke-width: 1.5; stroke-linejoin: miter"/>
   </g>
   <g id="patch_3">
    <path d="M 163.44 195.696 
L 297.36 195.696 
Q 300.15 195.696 300.15 194.5872 
L 300.15 152.4528 
Q 300.15 151.344 297.36 151.344 
L 163.44 151.344 
Q 160.65 151.344 160.65 152.4528 
L 160.65 194.5872 
Q 160.65 195.696 163.44 195.696 
z
" clip-path="url(#p5cacf1454c)" style="fill: #e8f4f8; stroke: #555555; stroke-width: 1.5; stroke-linejoin: miter"/>
   </g>
   <g id="patch_4">
    <path d="M 302.94 195.696 
L 436.86 195.696 
Q 439.65 195.696 439.65 194.5872 
L 439.65 152.4528 
Q 439.65 151.344 436.86 151.344 
L 302.94 151.344 
Q 300.15 151.344 300.15 152.4528 
L 300.15 194.5872 
Q 300.15 195.696 302.94 195.696 
z
" clip-path="url(#p5cacf1454c)" style="fill: #fef9e7; stroke: #555555; stroke-width: 1.5; stroke-linejoin: miter"/>
   </g>
   <g id="patch_5">
    <path d="M 442.44 195.696 
L 576.36 195.696 
Q 579.15 195.696 579.15 194.5872 
L 579.15 152.4528 
Q 579.15 151.344 576.36 151.344 
L 442.44 151.344 
Q 439.65 151.344 439.65 152.4528 
L 439.65 194.5872 
Q 439.65 195.696 442.44 195.696 
z
" clip-path="url(#p5cacf1454c)" style="fill: #fdebd0; stroke: #555555; stroke-width: 1.5; stroke-linejoin: miter"/>
   </g>
   <g id="text_1">
    <!-- Supervised -->
    <g style="fill: #1a1a1a" transform="translate(70.010156 161.964873) scale(0.075 -0.075)">
     <defs>
      <path id="DejaVuSans-36" d="M 3425 4513 
L 3425 3897 
Q 3066 4069 2747 4153 
Q 2428 4238 2131 4238 
Q 1616 4238 1336 4038 
Q 1056 3838 1056 3469 
Q 1056 3159 1242 3001 
Q 1428 2844 1947 2747 
L 2328 2669 
Q 3034 2534 3370 2195 
Q 3706 1856 3706 1288 
Q 3706 609 3251 259 
Q 2797 -91 1919 -91 
Q 1588 -91 1214 -16 
Q 841 59 441 206 
L 441 856 
Q 825 641 1194 531 
Q 1563 422 1919 422 
Q 2459 422 2753 634 
Q 3047 847 3047 1241 
Q 3047 1584 2836 1778 
Q 2625 1972 2144 2069 
L 1759 2144 
Q 1053 2284 737 2584 
Q 422 2884 422 3419 
Q 422 4038 858 4394 
Q 1294 4750 2059 4750 
Q 2388 4750 2728 4690 
Q 3069 4631 3425 4513 
z
" transform="scale(0.015625)"/>
      <path id="DejaVuSans-58" d="M 544 1381 
L 544 3500 
L 1119 3500 
L 1119 1403 
Q 1119 906 1312 657 
Q 1506 409 1894 409 
Q 2359 409 2629 706 
Q 2900 1003 2900 1516 
L 2900 3500 
L 3475 3500 
L 3475 0 
L 2900 0 
L 2900 538 
Q 2691 219 2414 64 
Q 2138 -91 1772 -91 
Q 1169 -91 856 284 
Q 544 659 544 1381 
z
M 1991 3584 
L 1991 3584 
z
" transform="scale(0.015625)"/>
      <path id="DejaVuSans-53" d="M 1159 525 
L 1159 -1331 
L 581 -1331 
L 581 3500 
L 1159 3500 
L 1159 2969 
Q 1341 3281 1617 3432 
Q 1894 3584 2278 3584 
Q 2916 3584 3314 3078 
Q 3713 2572 3713 1747 
Q 3713 922 3314 415 
Q 2916 -91 2278 -91 
Q 1894 -91 1617 61 
Q 1341 213 1159 525 
z
M 3116 1747 
Q 3116 2381 2855 2742 
Q 2594 3103 2138 3103 
Q 1681 3103 1420 2742 
Q 1159 2381 1159 1747 
Q 1159 1113 1420 752 
Q 1681 391 2138 391 
Q 2594 391 2855 752 
Q 3116 1113 3116 1747 
z
" transform="scale(0.015625)"/>
      <path id="DejaVuSans-48" d="M 3597 1894 
L 3597 1613 
L 953 1613 
Q 991 1019 1311 708 
Q 1631 397 2203 397 
Q 2534 397 2845 478 
Q 3156 559 3463 722 
L 3463 178 
Q 3153 47 2828 -22 
Q 2503 -91 2169 -91 
Q 1331 -91 842 396 
Q 353 884 353 1716 
Q 353 2575 817 3079 
Q 1281 3584 2069 3584 
Q 2775 3584 3186 3129 
Q 3597 2675 3597 1894 
z
M 3022 2063 
Q 3016 2534 2758 2815 
Q 2500 3097 2075 3097 
Q 1594 3097 1305 2825 
Q 1016 2553 972 2059 
L 3022 2063 
z
" transform="scale(0.015625)"/>
      <path id="DejaVuSans-55" d="M 2631 2963 
Q 2534 3019 2420 3045 
Q 2306 3072 2169 3072 
Q 1681 3072 1420 2755 
Q 1159 2438 1159 1844 
L 1159 0 
L 581 0 
L 581 3500 
L 1159 3500 
L 1159 2956 
Q 1341 3275 1631 3429 
Q 1922 3584 2338 3584 
Q 2397 3584 2469 3576 
Q 2541 3569 2628 3553 
L 2631 2963 
z
" transform="scale(0.015625)"/>
      <path id="DejaVuSans-59" d="M 191 3500 
L 800 3500 
L 1894 563 
L 2988 3500 
L 3597 3500 
L 2284 0 
L 1503 0 
L 191 3500 
z
" transform="scale(0.015625)"/>
      <path id="DejaVuSans-4c" d="M 603 3500 
L 1178 3500 
L 1178 0 
L 603 0 
L 603 3500 
z
M 603 4863 
L 1178 4863 
L 1178 4134 
L 603 4134 
L 603 4863 
z
" transform="scale(0.015625)"/>
      <path id="DejaVuSans-56" d="M 2834 3397 
L 2834 2853 
Q 2591 2978 2328 3040 
Q 2066 3103 1784 3103 
Q 1356 3103 1142 2972 
Q 928 2841 928 2578 
Q 928 2378 1081 2264 
Q 1234 2150 1697 2047 
L 1894 2003 
Q 2506 1872 2764 1633 
Q 3022 1394 3022 966 
Q 3022 478 2636 193 
Q 2250 -91 1575 -91 
Q 1294 -91 989 -36 
Q 684 19 347 128 
L 347 722 
Q 666 556 975 473 
Q 1284 391 1588 391 
Q 1994 391 2212 530 
Q 2431 669 2431 922 
Q 2431 1156 2273 1281 
Q 2116 1406 1581 1522 
L 1381 1569 
Q 847 1681 609 1914 
Q 372 2147 372 2553 
Q 372 3047 722 3315 
Q 1072 3584 1716 3584 
Q 2034 3584 2315 3537 
Q 2597 3491 2834 3397 
z
" transform="scale(0.015625)"/>
      <path id="DejaVuSans-47" d="M 2906 2969 
L 2906 4863 
L 3481 4863 
L 3481 0 
L 2906 0 
L 2906 525 
Q 2725 213 2448 61 
Q 2172 -91 1784 -91 
Q 1150 -91 751 415 
Q 353 922 353 1747 
Q 353 2572 751 3078 
Q 1150 3584 1784 3584 
Q 2172 3584 2448 3432 
Q 2725 3281 2906 2969 
z
M 947 1747 
Q 947 1113 1208 752 
Q 1469 391 1925 391 
Q 2381 391 2643 752 
Q 2906 1113 2906 1747 
Q 2906 2381 2643 2742 
Q 2381 3103 1925 3103 
Q 1469 3103 1208 2742 
Q 947 2381 947 1747 
z
" transform="scale(0.015625)"/>
     </defs>
     <use xlink:href="#DejaVuSans-36"/>
     <use xlink:href="#DejaVuSans-58" transform="translate(63.484375 0)"/>
     <use xlink:href="#DejaVuSans-53" transform="translate(126.859375 0)"/>
     <use xlink:href="#DejaVuSans-48" transform="translate(190.34375 0)"/>
     <use xlink:href="#DejaVuSans-55" transform="translate(251.875 0)"/>
     <use xlink:href="#DejaVuSans-59" transform="translate(292.984375 0)"/>
     <use xlink:href="#DejaVuSans-4c" transform="translate(352.171875 0)"/>
     <use xlink:href="#DejaVuSans-56" transform="translate(379.953125 0)"/>
     <use xlink:href="#DejaVuSans-48" transform="translate(432.046875 0)"/>
     <use xlink:href="#DejaVuSans-47" transform="translate(493.578125 0)"/>
    </g>
    <!-- Input → Label -->
    <g style="fill: #1a1a1a" transform="translate(65.546484 170.966924) scale(0.075 -0.075)">
     <defs>
      <path id="DejaVuSans-2c" d="M 628 4666 
L 1259 4666 
L 1259 0 
L 628 0 
L 628 4666 
z
" transform="scale(0.015625)"/>
      <path id="DejaVuSans-51" d="M 3513 2113 
L 3513 0 
L 2938 0 
L 2938 2094 
Q 2938 2591 2744 2837 
Q 2550 3084 2163 3084 
Q 1697 3084 1428 2787 
Q 1159 2491 1159 1978 
L 1159 0 
L 581 0 
L 581 3500 
L 1159 3500 
L 1159 2956 
Q 1366 3272 1645 3428 
Q 1925 3584 2291 3584 
Q 2894 3584 3203 3211 
Q 3513 2838 3513 2113 
z
" transform="scale(0.015625)"/>
      <path id="DejaVuSans-57" d="M 1172 4494 
L 1172 3500 
L 2356 3500 
L 2356 3053 
L 1172 3053 
L 1172 1153 
Q 1172 725 1289 603 
Q 1406 481 1766 481 
L 2356 481 
L 2356 0 
L 1766 0 
Q 1100 0 847 248 
Q 594 497 594 1153 
L 594 3053 
L 172 3053 
L 172 3500 
L 594 3500 
L 594 4494 
L 1172 4494 
z
" transform="scale(0.015625)"/>
      <path id="DejaVuSans-3" transform="scale(0.015625)"/>
      <path id="DejaVuSans-c1c" d="M 5050 2147 
L 5050 1866 
L 3822 638 
L 3447 1013 
L 4175 1741 
L 366 1741 
L 366 2272 
L 4175 2272 
L 3447 3000 
L 3822 3375 
L 5050 2147 
z
" transform="scale(0.015625)"/>
      <path id="DejaVuSans-2f" d="M 628 4666 
L 1259 4666 
L 1259 531 
L 3531 531 
L 3531 0 
L 628 0 
L 628 4666 
z
" transform="scale(0.015625)"/>
      <path id="DejaVuSans-44" d="M 2194 1759 
Q 1497 1759 1228 1600 
Q 959 1441 959 1056 
Q 959 750 1161 570 
Q 1363 391 1709 391 
Q 2188 391 2477 730 
Q 2766 1069 2766 1631 
L 2766 1759 
L 2194 1759 
z
M 3341 1997 
L 3341 0 
L 2766 0 
L 2766 531 
Q 2569 213 2275 61 
Q 1981 -91 1556 -91 
Q 1019 -91 701 211 
Q 384 513 384 1019 
Q 384 1609 779 1909 
Q 1175 2209 1959 2209 
L 2766 2209 
L 2766 2266 
Q 2766 2663 2505 2880 
Q 2244 3097 1772 3097 
Q 1472 3097 1187 3025 
Q 903 2953 641 2809 
L 641 3341 
Q 956 3463 1253 3523 
Q 1550 3584 1831 3584 
Q 2591 3584 2966 3190 
Q 3341 2797 3341 1997 
z
" transform="scale(0.015625)"/>
      <path id="DejaVuSans-45" d="M 3116 1747 
Q 3116 2381 2855 2742 
Q 2594 3103 2138 3103 
Q 1681 3103 1420 2742 
Q 1159 2381 1159 1747 
Q 1159 1113 1420 752 
Q 1681 391 2138 391 
Q 2594 391 2855 752 
Q 3116 1113 3116 1747 
z
M 1159 2969 
Q 1341 3281 1617 3432 
Q 1894 3584 2278 3584 
Q 2916 3584 3314 3078 
Q 3713 2572 3713 1747 
Q 3713 922 3314 415 
Q 2916 -91 2278 -91 
Q 1894 -91 1617 61 
Q 1341 213 1159 525 
L 1159 0 
L 581 0 
L 581 4863 
L 1159 4863 
L 1159 2969 
z
" transform="scale(0.015625)"/>
      <path id="DejaVuSans-4f" d="M 603 4863 
L 1178 4863 
L 1178 0 
L 603 0 
L 603 4863 
z
" transform="scale(0.015625)"/>
     </defs>
     <use xlink:href="#DejaVuSans-2c"/>
     <use xlink:href="#DejaVuSans-51" transform="translate(29.5 0)"/>
     <use xlink:href="#DejaVuSans-53" transform="translate(92.875 0)"/>
     <use xlink:href="#DejaVuSans-58" transform="translate(156.359375 0)"/>
     <use xlink:href="#DejaVuSans-57" transform="translate(219.734375 0)"/>
     <use xlink:href="#DejaVuSans-3" transform="translate(258.9375 0)"/>
     <use xlink:href="#DejaVuSans-c1c" transform="translate(290.71875 0)"/>
     <use xlink:href="#DejaVuSans-3" transform="translate(374.515625 0)"/>
     <use xlink:href="#DejaVuSans-2f" transform="translate(406.296875 0)"/>
     <use xlink:href="#DejaVuSans-44" transform="translate(462.015625 0)"/>
     <use xlink:href="#DejaVuSans-45" transform="translate(523.296875 0)"/>
     <use xlink:href="#DejaVuSans-48" transform="translate(586.78125 0)"/>
     <use xlink:href="#DejaVuSans-4f" transform="translate(648.3125 0)"/>
    </g>
    <!-- Learn mapping -->
    <g style="fill: #1a1a1a" transform="translate(62.715234 179.968975) scale(0.075 -0.075)">
     <defs>
      <path id="DejaVuSans-50" d="M 3328 2828 
Q 3544 3216 3844 3400 
Q 4144 3584 4550 3584 
Q 5097 3584 5394 3201 
Q 5691 2819 5691 2113 
L 5691 0 
L 5113 0 
L 5113 2094 
Q 5113 2597 4934 2840 
Q 4756 3084 4391 3084 
Q 3944 3084 3684 2787 
Q 3425 2491 3425 1978 
L 3425 0 
L 2847 0 
L 2847 2094 
Q 2847 2600 2669 2842 
Q 2491 3084 2119 3084 
Q 1678 3084 1418 2786 
Q 1159 2488 1159 1978 
L 1159 0 
L 581 0 
L 581 3500 
L 1159 3500 
L 1159 2956 
Q 1356 3278 1631 3431 
Q 1906 3584 2284 3584 
Q 2666 3584 2933 3390 
Q 3200 3197 3328 2828 
z
" transform="scale(0.015625)"/>
      <path id="DejaVuSans-4a" d="M 2906 1791 
Q 2906 2416 2648 2759 
Q 2391 3103 1925 3103 
Q 1463 3103 1205 2759 
Q 947 2416 947 1791 
Q 947 1169 1205 825 
Q 1463 481 1925 481 
Q 2391 481 2648 825 
Q 2906 1169 2906 1791 
z
M 3481 434 
Q 3481 -459 3084 -895 
Q 2688 -1331 1869 -1331 
Q 1566 -1331 1297 -1286 
Q 1028 -1241 775 -1147 
L 775 -588 
Q 1028 -725 1275 -790 
Q 1522 -856 1778 -856 
Q 2344 -856 2625 -561 
Q 2906 -266 2906 331 
L 2906 616 
Q 2728 306 2450 153 
Q 2172 0 1784 0 
Q 1141 0 747 490 
Q 353 981 353 1791 
Q 353 2603 747 3093 
Q 1141 3584 1784 3584 
Q 2172 3584 2450 3431 
Q 2728 3278 2906 2969 
L 2906 3500 
L 3481 3500 
L 3481 434 
z
" transform="scale(0.015625)"/>
     </defs>
     <use xlink:href="#DejaVuSans-2f"/>
     <use xlink:href="#DejaVuSans-48" transform="translate(53.96875 0)"/>
     <use xlink:href="#DejaVuSans-44" transform="translate(115.5 0)"/>
     <use xlink:href="#DejaVuSans-55" transform="translate(176.78125 0)"/>
     <use xlink:href="#DejaVuSans-51" transform="translate(216.140625 0)"/>
     <use xlink:href="#DejaVuSans-3" transform="translate(279.515625 0)"/>
     <use xlink:href="#DejaVuSans-50" transform="translate(311.296875 0)"/>
     <use xlink:href="#DejaVuSans-44" transform="translate(408.703125 0)"/>
     <use xlink:href="#DejaVuSans-53" transform="translate(469.984375 0)"/>
     <use xlink:href="#DejaVuSans-53" transform="translate(533.46875 0)"/>
     <use xlink:href="#DejaVuSans-4c" transform="translate(596.953125 0)"/>
     <use xlink:href="#DejaVuSans-51" transform="translate(624.734375 0)"/>
     <use xlink:href="#DejaVuSans-4a" transform="translate(688.109375 0)"/>
    </g>
    <!-- $f(x)=y$ -->
    <g style="fill: #1a1a1a" transform="translate(77.5875 188.972197) scale(0.075 -0.075)">
     <defs>
      <path id="DejaVuSans-Oblique-49" d="M 3059 4863 
L 2969 4384 
L 2419 4384 
Q 2106 4384 1964 4261 
Q 1822 4138 1753 3809 
L 1691 3500 
L 2638 3500 
L 2553 3053 
L 1606 3053 
L 1013 0 
L 434 0 
L 1031 3053 
L 481 3053 
L 563 3500 
L 1113 3500 
L 1159 3744 
Q 1278 4363 1576 4613 
Q 1875 4863 2516 4863 
L 3059 4863 
z
" transform="scale(0.015625)"/>
      <path id="DejaVuSans-b" d="M 1984 4856 
Q 1566 4138 1362 3434 
Q 1159 2731 1159 2009 
Q 1159 1288 1364 580 
Q 1569 -128 1984 -844 
L 1484 -844 
Q 1016 -109 783 600 
Q 550 1309 550 2009 
Q 550 2706 781 3412 
Q 1013 4119 1484 4856 
L 1984 4856 
z
" transform="scale(0.015625)"/>
      <path id="DejaVuSans-Oblique-5b" d="M 3841 3500 
L 2234 1784 
L 3219 0 
L 2559 0 
L 1819 1388 
L 531 0 
L -166 0 
L 1556 1844 
L 641 3500 
L 1300 3500 
L 1972 2234 
L 3144 3500 
L 3841 3500 
z
" transform="scale(0.015625)"/>
      <path id="DejaVuSans-c" d="M 513 4856 
L 1013 4856 
Q 1481 4119 1714 3412 
Q 1947 2706 1947 2009 
Q 1947 1309 1714 600 
Q 1481 -109 1013 -844 
L 513 -844 
Q 928 -128 1133 580 
Q 1338 1288 1338 2009 
Q 1338 2731 1133 3434 
Q 928 4138 513 4856 
z
" transform="scale(0.015625)"/>
      <path id="DejaVuSans-20" d="M 678 2906 
L 4684 2906 
L 4684 2381 
L 678 2381 
L 678 2906 
z
M 678 1631 
L 4684 1631 
L 4684 1100 
L 678 1100 
L 678 1631 
z
" transform="scale(0.015625)"/>
      <path id="DejaVuSans-Oblique-5c" d="M 1588 -325 
Q 1188 -997 936 -1164 
Q 684 -1331 294 -1331 
L -159 -1331 
L -63 -850 
L 269 -850 
Q 509 -850 678 -719 
Q 847 -588 1056 -206 
L 1234 128 
L 459 3500 
L 1069 3500 
L 1650 819 
L 3256 3500 
L 3859 3500 
L 1588 -325 
z
" transform="scale(0.015625)"/>
     </defs>
     <use xlink:href="#DejaVuSans-Oblique-49" transform="translate(0 0.015625)"/>
     <use xlink:href="#DejaVuSans-b" transform="translate(35.205078 0.015625)"/>
     <use xlink:href="#DejaVuSans-Oblique-5b" transform="translate(74.21875 0.015625)"/>
     <use xlink:href="#DejaVuSans-c" transform="translate(133.398438 0.015625)"/>
     <use xlink:href="#DejaVuSans-20" transform="translate(191.894531 0.015625)"/>
     <use xlink:href="#DejaVuSans-Oblique-5c" transform="translate(295.166016 0.015625)"/>
    </g>
   </g>
   <g id="text_2">
    <!-- Unsupervised -->
    <g style="fill: #1a1a1a" transform="translate(204.816211 161.965459) scale(0.075 -0.075)">
     <defs>
      <path id="DejaVuSans-38" d="M 556 4666 
L 1191 4666 
L 1191 1831 
Q 1191 1081 1462 751 
Q 1734 422 2344 422 
Q 2950 422 3222 751 
Q 3494 1081 3494 1831 
L 3494 4666 
L 4128 4666 
L 4128 1753 
Q 4128 841 3676 375 
Q 3225 -91 2344 -91 
Q 1459 -91 1007 375 
Q 556 841 556 1753 
L 556 4666 
z
" transform="scale(0.015625)"/>
     </defs>
     <use xlink:href="#DejaVuSans-38"/>
     <use xlink:href="#DejaVuSans-51" transform="translate(73.1875 0)"/>
     <use xlink:href="#DejaVuSans-56" transform="translate(136.5625 0)"/>
     <use xlink:href="#DejaVuSans-58" transform="translate(188.65625 0)"/>
     <use xlink:href="#DejaVuSans-53" transform="translate(252.03125 0)"/>
     <use xlink:href="#DejaVuSans-48" transform="translate(315.515625 0)"/>
     <use xlink:href="#DejaVuSans-55" transform="translate(377.046875 0)"/>
     <use xlink:href="#DejaVuSans-59" transform="translate(418.15625 0)"/>
     <use xlink:href="#DejaVuSans-4c" transform="translate(477.34375 0)"/>
     <use xlink:href="#DejaVuSans-56" transform="translate(505.125 0)"/>
     <use xlink:href="#DejaVuSans-48" transform="translate(557.21875 0)"/>
     <use xlink:href="#DejaVuSans-47" transform="translate(618.75 0)"/>
    </g>
    <!-- No labels -->
    <g style="fill: #1a1a1a" transform="translate(213.084961 170.96751) scale(0.075 -0.075)">
     <defs>
      <path id="DejaVuSans-31" d="M 628 4666 
L 1478 4666 
L 3547 763 
L 3547 4666 
L 4159 4666 
L 4159 0 
L 3309 0 
L 1241 3903 
L 1241 0 
L 628 0 
L 628 4666 
z
" transform="scale(0.015625)"/>
      <path id="DejaVuSans-52" d="M 1959 3097 
Q 1497 3097 1228 2736 
Q 959 2375 959 1747 
Q 959 1119 1226 758 
Q 1494 397 1959 397 
Q 2419 397 2687 759 
Q 2956 1122 2956 1747 
Q 2956 2369 2687 2733 
Q 2419 3097 1959 3097 
z
M 1959 3584 
Q 2709 3584 3137 3096 
Q 3566 2609 3566 1747 
Q 3566 888 3137 398 
Q 2709 -91 1959 -91 
Q 1206 -91 779 398 
Q 353 888 353 1747 
Q 353 2609 779 3096 
Q 1206 3584 1959 3584 
z
" transform="scale(0.015625)"/>
     </defs>
     <use xlink:href="#DejaVuSans-31"/>
     <use xlink:href="#DejaVuSans-52" transform="translate(74.8125 0)"/>
     <use xlink:href="#DejaVuSans-3" transform="translate(136 0)"/>
     <use xlink:href="#DejaVuSans-4f" transform="translate(167.78125 0)"/>
     <use xlink:href="#DejaVuSans-44" transform="translate(195.5625 0)"/>
     <use xlink:href="#DejaVuSans-45" transform="translate(256.84375 0)"/>
     <use xlink:href="#DejaVuSans-48" transform="translate(320.328125 0)"/>
     <use xlink:href="#DejaVuSans-4f" transform="translate(381.859375 0)"/>
     <use xlink:href="#DejaVuSans-56" transform="translate(409.640625 0)"/>
    </g>
    <!-- Find structure -->
    <g style="fill: #1a1a1a" transform="translate(204.508594 179.969561) scale(0.075 -0.075)">
     <defs>
      <path id="DejaVuSans-29" d="M 628 4666 
L 3309 4666 
L 3309 4134 
L 1259 4134 
L 1259 2759 
L 3109 2759 
L 3109 2228 
L 1259 2228 
L 1259 0 
L 628 0 
L 628 4666 
z
" transform="scale(0.015625)"/>
      <path id="DejaVuSans-46" d="M 3122 3366 
L 3122 2828 
Q 2878 2963 2633 3030 
Q 2388 3097 2138 3097 
Q 1578 3097 1268 2742 
Q 959 2388 959 1747 
Q 959 1106 1268 751 
Q 1578 397 2138 397 
Q 2388 397 2633 464 
Q 2878 531 3122 666 
L 3122 134 
Q 2881 22 2623 -34 
Q 2366 -91 2075 -91 
Q 1284 -91 818 406 
Q 353 903 353 1747 
Q 353 2603 823 3093 
Q 1294 3584 2113 3584 
Q 2378 3584 2631 3529 
Q 2884 3475 3122 3366 
z
" transform="scale(0.015625)"/>
     </defs>
     <use xlink:href="#DejaVuSans-29"/>
     <use xlink:href="#DejaVuSans-4c" transform="translate(50.234375 0)"/>
     <use xlink:href="#DejaVuSans-51" transform="translate(78.015625 0)"/>
     <use xlink:href="#DejaVuSans-47" transform="translate(141.390625 0)"/>
     <use xlink:href="#DejaVuSans-3" transform="translate(204.875 0)"/>
     <use xlink:href="#DejaVuSans-56" transform="translate(236.65625 0)"/>
     <use xlink:href="#DejaVuSans-57" transform="translate(288.75 0)"/>
     <use xlink:href="#DejaVuSans-55" transform="translate(327.953125 0)"/>
     <use xlink:href="#DejaVuSans-58" transform="translate(369.0625 0)"/>
     <use xlink:href="#DejaVuSans-46" transform="translate(432.4375 0)"/>
     <use xlink:href="#DejaVuSans-57" transform="translate(487.421875 0)"/>
     <use xlink:href="#DejaVuSans-58" transform="translate(526.625 0)"/>
     <use xlink:href="#DejaVuSans-55" transform="translate(590 0)"/>
     <use xlink:href="#DejaVuSans-48" transform="translate(628.90625 0)"/>
    </g>
    <!-- Clustering -->
    <g style="fill: #1a1a1a" transform="translate(211.291406 188.971611) scale(0.075 -0.075)">
     <defs>
      <path id="DejaVuSans-26" d="M 4122 4306 
L 4122 3641 
Q 3803 3938 3442 4084 
Q 3081 4231 2675 4231 
Q 1875 4231 1450 3742 
Q 1025 3253 1025 2328 
Q 1025 1406 1450 917 
Q 1875 428 2675 428 
Q 3081 428 3442 575 
Q 3803 722 4122 1019 
L 4122 359 
Q 3791 134 3420 21 
Q 3050 -91 2638 -91 
Q 1578 -91 968 557 
Q 359 1206 359 2328 
Q 359 3453 968 4101 
Q 1578 4750 2638 4750 
Q 3056 4750 3426 4639 
Q 3797 4528 4122 4306 
z
" transform="scale(0.015625)"/>
     </defs>
     <use xlink:href="#DejaVuSans-26"/>
     <use xlink:href="#DejaVuSans-4f" transform="translate(69.828125 0)"/>
     <use xlink:href="#DejaVuSans-58" transform="translate(97.609375 0)"/>
     <use xlink:href="#DejaVuSans-56" transform="translate(160.984375 0)"/>
     <use xlink:href="#DejaVuSans-57" transform="translate(213.078125 0)"/>
     <use xlink:href="#DejaVuSans-48" transform="translate(252.28125 0)"/>
     <use xlink:href="#DejaVuSans-55" transform="translate(313.8125 0)"/>
     <use xlink:href="#DejaVuSans-4c" transform="translate(354.921875 0)"/>
     <use xlink:href="#DejaVuSans-51" transform="translate(382.703125 0)"/>
     <use xlink:href="#DejaVuSans-4a" transform="translate(446.078125 0)"/>
    </g>
   </g>
   <g id="text_3">
    <!-- Semi-Supervised -->
    <g style="fill: #1a1a1a" transform="translate(338.274609 161.965459) scale(0.075 -0.075)">
     <defs>
      <path id="DejaVuSans-10" d="M 313 2009 
L 1997 2009 
L 1997 1497 
L 313 1497 
L 313 2009 
z
" transform="scale(0.015625)"/>
     </defs>
     <use xlink:href="#DejaVuSans-36"/>
     <use xlink:href="#DejaVuSans-48" transform="translate(63.484375 0)"/>
     <use xlink:href="#DejaVuSans-50" transform="translate(125.015625 0)"/>
     <use xlink:href="#DejaVuSans-4c" transform="translate(222.421875 0)"/>
     <use xlink:href="#DejaVuSans-10" transform="translate(250.203125 0)"/>
     <use xlink:href="#DejaVuSans-36" transform="translate(286.28125 0)"/>
     <use xlink:href="#DejaVuSans-58" transform="translate(349.765625 0)"/>
     <use xlink:href="#DejaVuSans-53" transform="translate(413.140625 0)"/>
     <use xlink:href="#DejaVuSans-48" transform="translate(476.625 0)"/>
     <use xlink:href="#DejaVuSans-55" transform="translate(538.15625 0)"/>
     <use xlink:href="#DejaVuSans-59" transform="translate(579.265625 0)"/>
     <use xlink:href="#DejaVuSans-4c" transform="translate(638.453125 0)"/>
     <use xlink:href="#DejaVuSans-56" transform="translate(666.234375 0)"/>
     <use xlink:href="#DejaVuSans-48" transform="translate(718.328125 0)"/>
     <use xlink:href="#DejaVuSans-47" transform="translate(779.859375 0)"/>
    </g>
    <!-- Few labels + -->
    <g style="fill: #1a1a1a" transform="translate(346.024805 170.96751) scale(0.075 -0.075)">
     <defs>
      <path id="DejaVuSans-5a" d="M 269 3500 
L 844 3500 
L 1563 769 
L 2278 3500 
L 2956 3500 
L 3675 769 
L 4391 3500 
L 4966 3500 
L 4050 0 
L 3372 0 
L 2619 2869 
L 1863 0 
L 1184 0 
L 269 3500 
z
" transform="scale(0.015625)"/>
      <path id="DejaVuSans-e" d="M 2944 4013 
L 2944 2272 
L 4684 2272 
L 4684 1741 
L 2944 1741 
L 2944 0 
L 2419 0 
L 2419 1741 
L 678 1741 
L 678 2272 
L 2419 2272 
L 2419 4013 
L 2944 4013 
z
" transform="scale(0.015625)"/>
     </defs>
     <use xlink:href="#DejaVuSans-29"/>
     <use xlink:href="#DejaVuSans-48" transform="translate(52.046875 0)"/>
     <use xlink:href="#DejaVuSans-5a" transform="translate(113.578125 0)"/>
     <use xlink:href="#DejaVuSans-3" transform="translate(195.359375 0)"/>
     <use xlink:href="#DejaVuSans-4f" transform="translate(227.140625 0)"/>
     <use xlink:href="#DejaVuSans-44" transform="translate(254.921875 0)"/>
     <use xlink:href="#DejaVuSans-45" transform="translate(316.203125 0)"/>
     <use xlink:href="#DejaVuSans-48" transform="translate(379.6875 0)"/>
     <use xlink:href="#DejaVuSans-4f" transform="translate(441.21875 0)"/>
     <use xlink:href="#DejaVuSans-56" transform="translate(469 0)"/>
     <use xlink:href="#DejaVuSans-3" transform="translate(521.09375 0)"/>
     <use xlink:href="#DejaVuSans-e" transform="translate(552.875 0)"/>
    </g>
    <!-- many unlabeled -->
    <g style="fill: #1a1a1a" transform="translate(339.650391 179.969561) scale(0.075 -0.075)">
     <defs>
      <path id="DejaVuSans-5c" d="M 2059 -325 
Q 1816 -950 1584 -1140 
Q 1353 -1331 966 -1331 
L 506 -1331 
L 506 -850 
L 844 -850 
Q 1081 -850 1212 -737 
Q 1344 -625 1503 -206 
L 1606 56 
L 191 3500 
L 800 3500 
L 1894 763 
L 2988 3500 
L 3597 3500 
L 2059 -325 
z
" transform="scale(0.015625)"/>
     </defs>
     <use xlink:href="#DejaVuSans-50"/>
     <use xlink:href="#DejaVuSans-44" transform="translate(97.40625 0)"/>
     <use xlink:href="#DejaVuSans-51" transform="translate(158.6875 0)"/>
     <use xlink:href="#DejaVuSans-5c" transform="translate(222.0625 0)"/>
     <use xlink:href="#DejaVuSans-3" transform="translate(281.25 0)"/>
     <use xlink:href="#DejaVuSans-58" transform="translate(313.03125 0)"/>
     <use xlink:href="#DejaVuSans-51" transform="translate(376.40625 0)"/>
     <use xlink:href="#DejaVuSans-4f" transform="translate(439.78125 0)"/>
     <use xlink:href="#DejaVuSans-44" transform="translate(467.5625 0)"/>
     <use xlink:href="#DejaVuSans-45" transform="translate(528.84375 0)"/>
     <use xlink:href="#DejaVuSans-48" transform="translate(592.328125 0)"/>
     <use xlink:href="#DejaVuSans-4f" transform="translate(653.859375 0)"/>
     <use xlink:href="#DejaVuSans-48" transform="translate(681.640625 0)"/>
     <use xlink:href="#DejaVuSans-47" transform="translate(743.171875 0)"/>
    </g>
    <!-- Pseudo-labeling -->
    <g style="fill: #1a1a1a" transform="translate(340.100391 188.971611) scale(0.075 -0.075)">
     <defs>
      <path id="DejaVuSans-33" d="M 1259 4147 
L 1259 2394 
L 2053 2394 
Q 2494 2394 2734 2622 
Q 2975 2850 2975 3272 
Q 2975 3691 2734 3919 
Q 2494 4147 2053 4147 
L 1259 4147 
z
M 628 4666 
L 2053 4666 
Q 2838 4666 3239 4311 
Q 3641 3956 3641 3272 
Q 3641 2581 3239 2228 
Q 2838 1875 2053 1875 
L 1259 1875 
L 1259 0 
L 628 0 
L 628 4666 
z
" transform="scale(0.015625)"/>
     </defs>
     <use xlink:href="#DejaVuSans-33"/>
     <use xlink:href="#DejaVuSans-56" transform="translate(58.546875 0)"/>
     <use xlink:href="#DejaVuSans-48" transform="translate(110.640625 0)"/>
     <use xlink:href="#DejaVuSans-58" transform="translate(172.171875 0)"/>
     <use xlink:href="#DejaVuSans-47" transform="translate(235.546875 0)"/>
     <use xlink:href="#DejaVuSans-52" transform="translate(299.03125 0)"/>
     <use xlink:href="#DejaVuSans-10" transform="translate(362.078125 0)"/>
     <use xlink:href="#DejaVuSans-4f" transform="translate(398.15625 0)"/>
     <use xlink:href="#DejaVuSans-44" transform="translate(425.9375 0)"/>
     <use xlink:href="#DejaVuSans-45" transform="translate(487.21875 0)"/>
     <use xlink:href="#DejaVuSans-48" transform="translate(550.703125 0)"/>
     <use xlink:href="#DejaVuSans-4f" transform="translate(612.234375 0)"/>
     <use xlink:href="#DejaVuSans-4c" transform="translate(640.015625 0)"/>
     <use xlink:href="#DejaVuSans-51" transform="translate(667.796875 0)"/>
     <use xlink:href="#DejaVuSans-4a" transform="translate(731.171875 0)"/>
    </g>
   </g>
   <g id="text_4">
    <!-- Active Learning -->
    <g style="fill: #1a1a1a" transform="translate(480.326953 161.965459) scale(0.075 -0.075)">
     <defs>
      <path id="DejaVuSans-24" d="M 2188 4044 
L 1331 1722 
L 3047 1722 
L 2188 4044 
z
M 1831 4666 
L 2547 4666 
L 4325 0 
L 3669 0 
L 3244 1197 
L 1141 1197 
L 716 0 
L 50 0 
L 1831 4666 
z
" transform="scale(0.015625)"/>
     </defs>
     <use xlink:href="#DejaVuSans-24"/>
     <use xlink:href="#DejaVuSans-46" transform="translate(66.65625 0)"/>
     <use xlink:href="#DejaVuSans-57" transform="translate(121.640625 0)"/>
     <use xlink:href="#DejaVuSans-4c" transform="translate(160.84375 0)"/>
     <use xlink:href="#DejaVuSans-59" transform="translate(188.625 0)"/>
     <use xlink:href="#DejaVuSans-48" transform="translate(247.8125 0)"/>
     <use xlink:href="#DejaVuSans-3" transform="translate(309.34375 0)"/>
     <use xlink:href="#DejaVuSans-2f" transform="translate(341.125 0)"/>
     <use xlink:href="#DejaVuSans-48" transform="translate(395.09375 0)"/>
     <use xlink:href="#DejaVuSans-44" transform="translate(456.625 0)"/>
     <use xlink:href="#DejaVuSans-55" transform="translate(517.90625 0)"/>
     <use xlink:href="#DejaVuSans-51" transform="translate(557.265625 0)"/>
     <use xlink:href="#DejaVuSans-4c" transform="translate(620.640625 0)"/>
     <use xlink:href="#DejaVuSans-51" transform="translate(648.421875 0)"/>
     <use xlink:href="#DejaVuSans-4a" transform="translate(711.796875 0)"/>
    </g>
    <!-- Model selects -->
    <g style="fill: #1a1a1a" transform="translate(483.852539 170.96751) scale(0.075 -0.075)">
     <defs>
      <path id="DejaVuSans-30" d="M 628 4666 
L 1569 4666 
L 2759 1491 
L 3956 4666 
L 4897 4666 
L 4897 0 
L 4281 0 
L 4281 4097 
L 3078 897 
L 2444 897 
L 1241 4097 
L 1241 0 
L 628 0 
L 628 4666 
z
" transform="scale(0.015625)"/>
     </defs>
     <use xlink:href="#DejaVuSans-30"/>
     <use xlink:href="#DejaVuSans-52" transform="translate(86.28125 0)"/>
     <use xlink:href="#DejaVuSans-47" transform="translate(147.46875 0)"/>
     <use xlink:href="#DejaVuSans-48" transform="translate(210.953125 0)"/>
     <use xlink:href="#DejaVuSans-4f" transform="translate(272.484375 0)"/>
     <use xlink:href="#DejaVuSans-3" transform="translate(300.265625 0)"/>
     <use xlink:href="#DejaVuSans-56" transform="translate(332.046875 0)"/>
     <use xlink:href="#DejaVuSans-48" transform="translate(384.140625 0)"/>
     <use xlink:href="#DejaVuSans-4f" transform="translate(445.671875 0)"/>
     <use xlink:href="#DejaVuSans-48" transform="translate(473.453125 0)"/>
     <use xlink:href="#DejaVuSans-46" transform="translate(534.984375 0)"/>
     <use xlink:href="#DejaVuSans-57" transform="translate(589.96875 0)"/>
     <use xlink:href="#DejaVuSans-56" transform="translate(629.171875 0)"/>
    </g>
    <!-- what to label -->
    <g style="fill: #1a1a1a" transform="translate(484.970508 179.969561) scale(0.075 -0.075)">
     <defs>
      <path id="DejaVuSans-4b" d="M 3513 2113 
L 3513 0 
L 2938 0 
L 2938 2094 
Q 2938 2591 2744 2837 
Q 2550 3084 2163 3084 
Q 1697 3084 1428 2787 
Q 1159 2491 1159 1978 
L 1159 0 
L 581 0 
L 581 4863 
L 1159 4863 
L 1159 2956 
Q 1366 3272 1645 3428 
Q 1925 3584 2291 3584 
Q 2894 3584 3203 3211 
Q 3513 2838 3513 2113 
z
" transform="scale(0.015625)"/>
     </defs>
     <use xlink:href="#DejaVuSans-5a"/>
     <use xlink:href="#DejaVuSans-4b" transform="translate(81.78125 0)"/>
     <use xlink:href="#DejaVuSans-44" transform="translate(145.15625 0)"/>
     <use xlink:href="#DejaVuSans-57" transform="translate(206.4375 0)"/>
     <use xlink:href="#DejaVuSans-3" transform="translate(245.640625 0)"/>
     <use xlink:href="#DejaVuSans-57" transform="translate(277.421875 0)"/>
     <use xlink:href="#DejaVuSans-52" transform="translate(316.625 0)"/>
     <use xlink:href="#DejaVuSans-3" transform="translate(377.8125 0)"/>
     <use xlink:href="#DejaVuSans-4f" transform="translate(409.59375 0)"/>
     <use xlink:href="#DejaVuSans-44" transform="translate(437.375 0)"/>
     <use xlink:href="#DejaVuSans-45" transform="translate(498.65625 0)"/>
     <use xlink:href="#DejaVuSans-48" transform="translate(562.140625 0)"/>
     <use xlink:href="#DejaVuSans-4f" transform="translate(623.671875 0)"/>
    </g>
    <!-- Max efficiency -->
    <g style="fill: #1a1a1a" transform="translate(482.452734 188.971611) scale(0.075 -0.075)">
     <defs>
      <path id="DejaVuSans-5b" d="M 3513 3500 
L 2247 1797 
L 3578 0 
L 2900 0 
L 1881 1375 
L 863 0 
L 184 0 
L 1544 1831 
L 300 3500 
L 978 3500 
L 1906 2253 
L 2834 3500 
L 3513 3500 
z
" transform="scale(0.015625)"/>
      <path id="DejaVuSans-13b1" d="M 2375 4863 
L 2375 4384 
L 1825 4384 
Q 1516 4384 1394 4259 
Q 1275 4134 1275 3809 
L 1275 3500 
L 2853 3500 
L 2853 3744 
Q 2853 4328 3125 4594 
Q 3213 4681 3334 4741 
Q 3578 4863 3988 4863 
L 4531 4863 
L 4531 4384 
L 3981 4384 
Q 3672 4384 3551 4259 
Q 3431 4134 3431 3809 
L 3431 3500 
L 5588 3500 
L 5588 0 
L 5009 0 
L 5009 3053 
L 3431 3053 
L 3431 0 
L 2853 0 
L 2853 3053 
L 1275 3053 
L 1275 0 
L 697 0 
L 697 3053 
L 147 3053 
L 147 3500 
L 697 3500 
L 697 3744 
Q 697 4328 969 4595 
Q 1241 4863 1831 4863 
L 2375 4863 
z
M 5009 4856 
L 5588 4856 
L 5588 4128 
L 5009 4128 
L 5009 4856 
z
" transform="scale(0.015625)"/>
     </defs>
     <use xlink:href="#DejaVuSans-30"/>
     <use xlink:href="#DejaVuSans-44" transform="translate(86.28125 0)"/>
     <use xlink:href="#DejaVuSans-5b" transform="translate(147.5625 0)"/>
     <use xlink:href="#DejaVuSans-3" transform="translate(206.75 0)"/>
     <use xlink:href="#DejaVuSans-48" transform="translate(238.53125 0)"/>
     <use xlink:href="#DejaVuSans-13b1" transform="translate(300.0625 0)"/>
     <use xlink:href="#DejaVuSans-46" transform="translate(396.75 0)"/>
     <use xlink:href="#DejaVuSans-4c" transform="translate(451.734375 0)"/>
     <use xlink:href="#DejaVuSans-48" transform="translate(479.515625 0)"/>
     <use xlink:href="#DejaVuSans-51" transform="translate(541.046875 0)"/>
     <use xlink:href="#DejaVuSans-46" transform="translate(604.421875 0)"/>
     <use xlink:href="#DejaVuSans-5c" transform="translate(659.40625 0)"/>
    </g>
   </g>
   <g id="text_5">
    <!-- Learning Paradigms -->
    <g transform="translate(218.55375 122.5152) scale(0.12 -0.12)">
     <defs>
      <path id="DejaVuSans-Bold-2f" d="M 588 4666 
L 1791 4666 
L 1791 909 
L 3903 909 
L 3903 0 
L 588 0 
L 588 4666 
z
" transform="scale(0.015625)"/>
      <path id="DejaVuSans-Bold-48" d="M 4031 1759 
L 4031 1441 
L 1416 1441 
Q 1456 1047 1700 850 
Q 1944 653 2381 653 
Q 2734 653 3104 758 
Q 3475 863 3866 1075 
L 3866 213 
Q 3469 63 3072 -14 
Q 2675 -91 2278 -91 
Q 1328 -91 801 392 
Q 275 875 275 1747 
Q 275 2603 792 3093 
Q 1309 3584 2216 3584 
Q 3041 3584 3536 3087 
Q 4031 2591 4031 1759 
z
M 2881 2131 
Q 2881 2450 2695 2645 
Q 2509 2841 2209 2841 
Q 1884 2841 1681 2658 
Q 1478 2475 1428 2131 
L 2881 2131 
z
" transform="scale(0.015625)"/>
      <path id="DejaVuSans-Bold-44" d="M 2106 1575 
Q 1756 1575 1579 1456 
Q 1403 1338 1403 1106 
Q 1403 894 1545 773 
Q 1688 653 1941 653 
Q 2256 653 2472 879 
Q 2688 1106 2688 1447 
L 2688 1575 
L 2106 1575 
z
M 3816 1997 
L 3816 0 
L 2688 0 
L 2688 519 
Q 2463 200 2181 54 
Q 1900 -91 1497 -91 
Q 953 -91 614 226 
Q 275 544 275 1050 
Q 275 1666 698 1953 
Q 1122 2241 2028 2241 
L 2688 2241 
L 2688 2328 
Q 2688 2594 2478 2717 
Q 2269 2841 1825 2841 
Q 1466 2841 1156 2769 
Q 847 2697 581 2553 
L 581 3406 
Q 941 3494 1303 3539 
Q 1666 3584 2028 3584 
Q 2975 3584 3395 3211 
Q 3816 2838 3816 1997 
z
" transform="scale(0.015625)"/>
      <path id="DejaVuSans-Bold-55" d="M 3138 2547 
Q 2991 2616 2845 2648 
Q 2700 2681 2553 2681 
Q 2122 2681 1889 2404 
Q 1656 2128 1656 1613 
L 1656 0 
L 538 0 
L 538 3500 
L 1656 3500 
L 1656 2925 
Q 1872 3269 2151 3426 
Q 2431 3584 2822 3584 
Q 2878 3584 2943 3579 
Q 3009 3575 3134 3559 
L 3138 2547 
z
" transform="scale(0.015625)"/>
      <path id="DejaVuSans-Bold-51" d="M 4056 2131 
L 4056 0 
L 2931 0 
L 2931 347 
L 2931 1631 
Q 2931 2084 2911 2256 
Q 2891 2428 2841 2509 
Q 2775 2619 2662 2680 
Q 2550 2741 2406 2741 
Q 2056 2741 1856 2470 
Q 1656 2200 1656 1722 
L 1656 0 
L 538 0 
L 538 3500 
L 1656 3500 
L 1656 2988 
Q 1909 3294 2193 3439 
Q 2478 3584 2822 3584 
Q 3428 3584 3742 3212 
Q 4056 2841 4056 2131 
z
" transform="scale(0.015625)"/>
      <path id="DejaVuSans-Bold-4c" d="M 538 3500 
L 1656 3500 
L 1656 0 
L 538 0 
L 538 3500 
z
M 538 4863 
L 1656 4863 
L 1656 3950 
L 538 3950 
L 538 4863 
z
" transform="scale(0.015625)"/>
      <path id="DejaVuSans-Bold-4a" d="M 2919 594 
Q 2688 288 2409 144 
Q 2131 0 1766 0 
Q 1125 0 706 504 
Q 288 1009 288 1791 
Q 288 2575 706 3076 
Q 1125 3578 1766 3578 
Q 2131 3578 2409 3434 
Q 2688 3291 2919 2981 
L 2919 3500 
L 4044 3500 
L 4044 353 
Q 4044 -491 3511 -936 
Q 2978 -1381 1966 -1381 
Q 1638 -1381 1331 -1331 
Q 1025 -1281 716 -1178 
L 716 -306 
Q 1009 -475 1290 -558 
Q 1572 -641 1856 -641 
Q 2406 -641 2662 -400 
Q 2919 -159 2919 353 
L 2919 594 
z
M 2181 2772 
Q 1834 2772 1640 2515 
Q 1447 2259 1447 1791 
Q 1447 1309 1634 1061 
Q 1822 813 2181 813 
Q 2531 813 2725 1069 
Q 2919 1325 2919 1791 
Q 2919 2259 2725 2515 
Q 2531 2772 2181 2772 
z
" transform="scale(0.015625)"/>
      <path id="DejaVuSans-Bold-3" transform="scale(0.015625)"/>
      <path id="DejaVuSans-Bold-33" d="M 588 4666 
L 2584 4666 
Q 3475 4666 3951 4270 
Q 4428 3875 4428 3144 
Q 4428 2409 3951 2014 
Q 3475 1619 2584 1619 
L 1791 1619 
L 1791 0 
L 588 0 
L 588 4666 
z
M 1791 3794 
L 1791 2491 
L 2456 2491 
Q 2806 2491 2997 2661 
Q 3188 2831 3188 3144 
Q 3188 3456 2997 3625 
Q 2806 3794 2456 3794 
L 1791 3794 
z
" transform="scale(0.015625)"/>
      <path id="DejaVuSans-Bold-47" d="M 2919 2988 
L 2919 4863 
L 4044 4863 
L 4044 0 
L 2919 0 
L 2919 506 
Q 2688 197 2409 53 
Q 2131 -91 1766 -91 
Q 1119 -91 703 423 
Q 288 938 288 1747 
Q 288 2556 703 3070 
Q 1119 3584 1766 3584 
Q 2128 3584 2408 3439 
Q 2688 3294 2919 2988 
z
M 2181 722 
Q 2541 722 2730 984 
Q 2919 1247 2919 1747 
Q 2919 2247 2730 2509 
Q 2541 2772 2181 2772 
Q 1825 2772 1636 2509 
Q 1447 2247 1447 1747 
Q 1447 1247 1636 984 
Q 1825 722 2181 722 
z
" transform="scale(0.015625)"/>
      <path id="DejaVuSans-Bold-50" d="M 3781 2919 
Q 3994 3244 4286 3414 
Q 4578 3584 4928 3584 
Q 5531 3584 5847 3212 
Q 6163 2841 6163 2131 
L 6163 0 
L 5038 0 
L 5038 1825 
Q 5041 1866 5042 1909 
Q 5044 1953 5044 2034 
Q 5044 2406 4934 2573 
Q 4825 2741 4581 2741 
Q 4263 2741 4089 2478 
Q 3916 2216 3909 1719 
L 3909 0 
L 2784 0 
L 2784 1825 
Q 2784 2406 2684 2573 
Q 2584 2741 2328 2741 
Q 2006 2741 1831 2477 
Q 1656 2213 1656 1722 
L 1656 0 
L 531 0 
L 531 3500 
L 1656 3500 
L 1656 2988 
Q 1863 3284 2130 3434 
Q 2397 3584 2719 3584 
Q 3081 3584 3359 3409 
Q 3638 3234 3781 2919 
z
" transform="scale(0.015625)"/>
      <path id="DejaVuSans-Bold-56" d="M 3272 3391 
L 3272 2541 
Q 2913 2691 2578 2766 
Q 2244 2841 1947 2841 
Q 1628 2841 1473 2761 
Q 1319 2681 1319 2516 
Q 1319 2381 1436 2309 
Q 1553 2238 1856 2203 
L 2053 2175 
Q 2913 2066 3209 1816 
Q 3506 1566 3506 1031 
Q 3506 472 3093 190 
Q 2681 -91 1863 -91 
Q 1516 -91 1145 -36 
Q 775 19 384 128 
L 384 978 
Q 719 816 1070 734 
Q 1422 653 1784 653 
Q 2113 653 2278 743 
Q 2444 834 2444 1013 
Q 2444 1163 2330 1236 
Q 2216 1309 1875 1350 
L 1678 1375 
Q 931 1469 631 1722 
Q 331 1975 331 2491 
Q 331 3047 712 3315 
Q 1094 3584 1881 3584 
Q 2191 3584 2531 3537 
Q 2872 3491 3272 3391 
z
" transform="scale(0.015625)"/>
     </defs>
     <use xlink:href="#DejaVuSans-Bold-2f"/>
     <use xlink:href="#DejaVuSans-Bold-48" transform="translate(63.71875 0)"/>
     <use xlink:href="#DejaVuSans-Bold-44" transform="translate(131.546875 0)"/>
     <use xlink:href="#DejaVuSans-Bold-55" transform="translate(199.03125 0)"/>
     <use xlink:href="#DejaVuSans-Bold-51" transform="translate(248.34375 0)"/>
     <use xlink:href="#DejaVuSans-Bold-4c" transform="translate(319.53125 0)"/>
     <use xlink:href="#DejaVuSans-Bold-51" transform="translate(353.8125 0)"/>
     <use xlink:href="#DejaVuSans-Bold-4a" transform="translate(425 0)"/>
     <use xlink:href="#DejaVuSans-Bold-3" transform="translate(496.578125 0)"/>
     <use xlink:href="#DejaVuSans-Bold-33" transform="translate(531.390625 0)"/>
     <use xlink:href="#DejaVuSans-Bold-44" transform="translate(602 0)"/>
     <use xlink:href="#DejaVuSans-Bold-55" transform="translate(669.484375 0)"/>
     <use xlink:href="#DejaVuSans-Bold-44" transform="translate(718.796875 0)"/>
     <use xlink:href="#DejaVuSans-Bold-47" transform="translate(786.28125 0)"/>
     <use xlink:href="#DejaVuSans-Bold-4c" transform="translate(857.859375 0)"/>
     <use xlink:href="#DejaVuSans-Bold-4a" transform="translate(892.140625 0)"/>
     <use xlink:href="#DejaVuSans-Bold-50" transform="translate(963.71875 0)"/>
     <use xlink:href="#DejaVuSans-Bold-56" transform="translate(1067.921875 0)"/>
    </g>
   </g>
  </g>
 </g>
 <defs>
  <clipPath id="p5cacf1454c">
   <rect x="7.2" y="7.2" width="558" height="221.76"/>
  </clipPath>
 </defs>
</svg>
