<?xml version="1.0" encoding="utf-8" standalone="no"?>
<!DOCTYPE svg PUBLIC "-//W3C//DTD SVG 1.1//EN"
  "http://www.w3.org/Graphics/SVG/1.1/DTD/svg11.dtd">
<svg xmlns:xlink="http://www.w3.org/1999/xlink" width="572.4pt" height="323.523688pt" viewBox="0 0 572.4 323.523688" xmlns="http://www.w3.org/2000/svg" version="1.1">
 <metadata>
  <rdf:RDF xmlns:dc="http://purl.org/dc/elements/1.1/" xmlns:cc="http://creativecommons.org/ns#" xmlns:rdf="http://www.w3.org/1999/02/22-rdf-syntax-ns#">
   <cc:Work>
    <dc:type rdf:resource="http://purl.org/dc/dcmitype/StillImage"/>
    <dc:date>2026-07-06T17:32:28.177247</dc:date>
    <dc:format>image/svg+xml</dc:format>
    <dc:creator>
     <cc:Agent>
      <dc:title>Matplotlib v3.11.0, https://matplotlib.org/</dc:title>
     </cc:Agent>
    </dc:creator>
   </cc:Work>
  </rdf:RDF>
 </metadata>
 <defs>
  <style type="text/css">*{stroke-linejoin: round; stroke-linecap: butt}</style>
 </defs>
 <g id="figure_1">
  <g id="patch_1">
   <path d="M 0 323.523688 
L 572.4 323.523688 
L 572.4 0 
L 0 0 
L 0 323.523688 
z
" style="fill: none"/>
  </g>
  <g id="axes_1">
   <g id="patch_2">
    <path d="M 134.018182 84.419899 
Q 134.018182 100.210645 134.018182 113.765323 
" style="fill: none; stroke: #888888; stroke-width: 2; stroke-linecap: round"/>
    <path d="M 136.018182 109.765323 
L 134.018182 113.765323 
L 132.018182 109.765323 
" style="fill: none; stroke: #888888; stroke-width: 2; stroke-linecap: round"/>
   </g>
   <g id="patch_3">
    <path d="M 134.018182 153.719899 
Q 134.018182 169.510645 134.018182 183.065323 
" style="fill: none; stroke: #888888; stroke-width: 2; stroke-linecap: round"/>
    <path d="M 136.018182 179.065323 
L 134.018182 183.065323 
L 132.018182 179.065323 
" style="fill: none; stroke: #888888; stroke-width: 2; stroke-linecap: round"/>
   </g>
   <g id="patch_4">
    <path d="M 134.018182 236.877699 
Q 134.018182 242.9644 134.018182 246.815034 
" style="fill: none; stroke: #888888; stroke-width: 2; stroke-linecap: round"/>
    <path d="M 136.018182 242.815034 
L 134.018182 246.815034 
L 132.018182 242.815034 
" style="fill: none; stroke: #888888; stroke-width: 2; stroke-linecap: round"/>
   </g>
   <g id="patch_5">
    <path d="M 97.240909 76.645813 
L 170.795455 76.645813 
Q 172.063636 76.645813 172.063636 75.259813 
L 172.063636 55.855813 
Q 172.063636 54.469813 170.795455 54.469813 
L 97.240909 54.469813 
Q 95.972727 54.469813 95.972727 55.855813 
L 95.972727 75.259813 
Q 95.972727 76.645813 97.240909 76.645813 
z
" clip-path="url(#pf385138bf3)" style="fill: #d5f5e3; stroke: #555555; stroke-width: 1.5; stroke-linejoin: miter"/>
   </g>
   <g id="patch_6">
    <path d="M 97.240909 148.717813 
L 170.795455 148.717813 
Q 172.063636 148.717813 172.063636 147.331813 
L 172.063636 122.383813 
Q 172.063636 120.997813 170.795455 120.997813 
L 97.240909 120.997813 
Q 95.972727 120.997813 95.972727 122.383813 
L 95.972727 147.331813 
Q 95.972727 148.717813 97.240909 148.717813 
z
" clip-path="url(#pf385138bf3)" style="fill: #fdebd0; stroke: #555555; stroke-width: 1.5; stroke-linejoin: miter"/>
   </g>
   <g id="patch_7">
    <path d="M 97.240909 238.807813 
L 170.795455 238.807813 
Q 172.063636 238.807813 172.063636 237.421813 
L 172.063636 198.613813 
Q 172.063636 197.227813 170.795455 197.227813 
L 97.240909 197.227813 
Q 95.972727 197.227813 95.972727 198.613813 
L 95.972727 237.421813 
Q 95.972727 238.807813 97.240909 238.807813 
z
" clip-path="url(#pf385138bf3)" style="fill: #fdebd0; stroke: #555555; stroke-width: 1.5; stroke-linejoin: miter"/>
   </g>
   <g id="patch_8">
    <path d="M 90.9 309.493813 
L 177.136364 309.493813 
Q 178.404545 309.493813 178.404545 308.107813 
L 178.404545 277.615813 
Q 178.404545 276.229813 177.136364 276.229813 
L 90.9 276.229813 
Q 89.631818 276.229813 89.631818 277.615813 
L 89.631818 308.107813 
Q 89.631818 309.493813 90.9 309.493813 
z
" clip-path="url(#pf385138bf3)" style="fill: #a9dfbf; stroke: #555555; stroke-width: 1.5; stroke-linejoin: miter"/>
   </g>
   <g id="text_1">
    <!-- Data -->
    <g style="fill: #1a1a1a" transform="translate(123.273729 67.895703) scale(0.09 -0.09)">
     <defs>
      <path id="DejaVuSans-27" d="M 1259 4147 
L 1259 519 
L 2022 519 
Q 2988 519 3436 956 
Q 3884 1394 3884 2338 
Q 3884 3275 3436 3711 
Q 2988 4147 2022 4147 
L 1259 4147 
z
M 628 4666 
L 1925 4666 
Q 3281 4666 3915 4102 
Q 4550 3538 4550 2338 
Q 4550 1131 3912 565 
Q 3275 0 1925 0 
L 628 0 
L 628 4666 
z
" transform="scale(0.015625)"/>
      <path id="DejaVuSans-44" d="M 2194 1759 
Q 1497 1759 1228 1600 
Q 959 1441 959 1056 
Q 959 750 1161 570 
Q 1363 391 1709 391 
Q 2188 391 2477 730 
Q 2766 1069 2766 1631 
L 2766 1759 
L 2194 1759 
z
M 3341 1997 
L 3341 0 
L 2766 0 
L 2766 531 
Q 2569 213 2275 61 
Q 1981 -91 1556 -91 
Q 1019 -91 701 211 
Q 384 513 384 1019 
Q 384 1609 779 1909 
Q 1175 2209 1959 2209 
L 2766 2209 
L 2766 2266 
Q 2766 2663 2505 2880 
Q 2244 3097 1772 3097 
Q 1472 3097 1187 3025 
Q 903 2953 641 2809 
L 641 3341 
Q 956 3463 1253 3523 
Q 1550 3584 1831 3584 
Q 2591 3584 2966 3190 
Q 3341 2797 3341 1997 
z
" transform="scale(0.015625)"/>
      <path id="DejaVuSans-57" d="M 1172 4494 
L 1172 3500 
L 2356 3500 
L 2356 3053 
L 1172 3053 
L 1172 1153 
Q 1172 725 1289 603 
Q 1406 481 1766 481 
L 2356 481 
L 2356 0 
L 1766 0 
Q 1100 0 847 248 
Q 594 497 594 1153 
L 594 3053 
L 172 3053 
L 172 3500 
L 594 3500 
L 594 4494 
L 1172 4494 
z
" transform="scale(0.015625)"/>
     </defs>
     <use xlink:href="#DejaVuSans-27"/>
     <use xlink:href="#DejaVuSans-44" transform="translate(77 0)"/>
     <use xlink:href="#DejaVuSans-57" transform="translate(138.28125 0)"/>
     <use xlink:href="#DejaVuSans-44" transform="translate(177.484375 0)"/>
    </g>
   </g>
   <g id="text_2">
    <!-- Bootstrap 1 -->
    <g style="fill: #1a1a1a" transform="translate(112.164471 127.804297) scale(0.075 -0.075)">
     <defs>
      <path id="DejaVuSans-25" d="M 1259 2228 
L 1259 519 
L 2272 519 
Q 2781 519 3026 730 
Q 3272 941 3272 1375 
Q 3272 1813 3026 2020 
Q 2781 2228 2272 2228 
L 1259 2228 
z
M 1259 4147 
L 1259 2741 
L 2194 2741 
Q 2656 2741 2882 2914 
Q 3109 3088 3109 3444 
Q 3109 3797 2882 3972 
Q 2656 4147 2194 4147 
L 1259 4147 
z
M 628 4666 
L 2241 4666 
Q 2963 4666 3353 4366 
Q 3744 4066 3744 3513 
Q 3744 3084 3544 2831 
Q 3344 2578 2956 2516 
Q 3422 2416 3680 2098 
Q 3938 1781 3938 1306 
Q 3938 681 3513 340 
Q 3088 0 2303 0 
L 628 0 
L 628 4666 
z
" transform="scale(0.015625)"/>
      <path id="DejaVuSans-52" d="M 1959 3097 
Q 1497 3097 1228 2736 
Q 959 2375 959 1747 
Q 959 1119 1226 758 
Q 1494 397 1959 397 
Q 2419 397 2687 759 
Q 2956 1122 2956 1747 
Q 2956 2369 2687 2733 
Q 2419 3097 1959 3097 
z
M 1959 3584 
Q 2709 3584 3137 3096 
Q 3566 2609 3566 1747 
Q 3566 888 3137 398 
Q 2709 -91 1959 -91 
Q 1206 -91 779 398 
Q 353 888 353 1747 
Q 353 2609 779 3096 
Q 1206 3584 1959 3584 
z
" transform="scale(0.015625)"/>
      <path id="DejaVuSans-56" d="M 2834 3397 
L 2834 2853 
Q 2591 2978 2328 3040 
Q 2066 3103 1784 3103 
Q 1356 3103 1142 2972 
Q 928 2841 928 2578 
Q 928 2378 1081 2264 
Q 1234 2150 1697 2047 
L 1894 2003 
Q 2506 1872 2764 1633 
Q 3022 1394 3022 966 
Q 3022 478 2636 193 
Q 2250 -91 1575 -91 
Q 1294 -91 989 -36 
Q 684 19 347 128 
L 347 722 
Q 666 556 975 473 
Q 1284 391 1588 391 
Q 1994 391 2212 530 
Q 2431 669 2431 922 
Q 2431 1156 2273 1281 
Q 2116 1406 1581 1522 
L 1381 1569 
Q 847 1681 609 1914 
Q 372 2147 372 2553 
Q 372 3047 722 3315 
Q 1072 3584 1716 3584 
Q 2034 3584 2315 3537 
Q 2597 3491 2834 3397 
z
" transform="scale(0.015625)"/>
      <path id="DejaVuSans-55" d="M 2631 2963 
Q 2534 3019 2420 3045 
Q 2306 3072 2169 3072 
Q 1681 3072 1420 2755 
Q 1159 2438 1159 1844 
L 1159 0 
L 581 0 
L 581 3500 
L 1159 3500 
L 1159 2956 
Q 1341 3275 1631 3429 
Q 1922 3584 2338 3584 
Q 2397 3584 2469 3576 
Q 2541 3569 2628 3553 
L 2631 2963 
z
" transform="scale(0.015625)"/>
      <path id="DejaVuSans-53" d="M 1159 525 
L 1159 -1331 
L 581 -1331 
L 581 3500 
L 1159 3500 
L 1159 2969 
Q 1341 3281 1617 3432 
Q 1894 3584 2278 3584 
Q 2916 3584 3314 3078 
Q 3713 2572 3713 1747 
Q 3713 922 3314 415 
Q 2916 -91 2278 -91 
Q 1894 -91 1617 61 
Q 1341 213 1159 525 
z
M 3116 1747 
Q 3116 2381 2855 2742 
Q 2594 3103 2138 3103 
Q 1681 3103 1420 2742 
Q 1159 2381 1159 1747 
Q 1159 1113 1420 752 
Q 1681 391 2138 391 
Q 2594 391 2855 752 
Q 3116 1113 3116 1747 
z
" transform="scale(0.015625)"/>
      <path id="DejaVuSans-3" transform="scale(0.015625)"/>
      <path id="DejaVuSans-14" d="M 794 531 
L 1825 531 
L 1825 4091 
L 703 3866 
L 703 4441 
L 1819 4666 
L 2450 4666 
L 2450 531 
L 3481 531 
L 3481 0 
L 794 0 
L 794 531 
z
" transform="scale(0.015625)"/>
     </defs>
     <use xlink:href="#DejaVuSans-25"/>
     <use xlink:href="#DejaVuSans-52" transform="translate(68.609375 0)"/>
     <use xlink:href="#DejaVuSans-52" transform="translate(129.796875 0)"/>
     <use xlink:href="#DejaVuSans-57" transform="translate(190.984375 0)"/>
     <use xlink:href="#DejaVuSans-56" transform="translate(230.1875 0)"/>
     <use xlink:href="#DejaVuSans-57" transform="translate(282.28125 0)"/>
     <use xlink:href="#DejaVuSans-55" transform="translate(321.484375 0)"/>
     <use xlink:href="#DejaVuSans-44" transform="translate(362.59375 0)"/>
     <use xlink:href="#DejaVuSans-53" transform="translate(423.875 0)"/>
     <use xlink:href="#DejaVuSans-3" transform="translate(487.359375 0)"/>
     <use xlink:href="#DejaVuSans-14" transform="translate(519.140625 0)"/>
    </g>
    <!-- Bootstrap 2 -->
    <g style="fill: #1a1a1a" transform="translate(112.164471 136.805762) scale(0.075 -0.075)">
     <defs>
      <path id="DejaVuSans-15" d="M 1228 531 
L 3431 531 
L 3431 0 
L 469 0 
L 469 531 
Q 828 903 1448 1529 
Q 2069 2156 2228 2338 
Q 2531 2678 2651 2914 
Q 2772 3150 2772 3378 
Q 2772 3750 2511 3984 
Q 2250 4219 1831 4219 
Q 1534 4219 1204 4116 
Q 875 4013 500 3803 
L 500 4441 
Q 881 4594 1212 4672 
Q 1544 4750 1819 4750 
Q 2544 4750 2975 4387 
Q 3406 4025 3406 3419 
Q 3406 3131 3298 2873 
Q 3191 2616 2906 2266 
Q 2828 2175 2409 1742 
Q 1991 1309 1228 531 
z
" transform="scale(0.015625)"/>
     </defs>
     <use xlink:href="#DejaVuSans-25"/>
     <use xlink:href="#DejaVuSans-52" transform="translate(68.609375 0)"/>
     <use xlink:href="#DejaVuSans-52" transform="translate(129.796875 0)"/>
     <use xlink:href="#DejaVuSans-57" transform="translate(190.984375 0)"/>
     <use xlink:href="#DejaVuSans-56" transform="translate(230.1875 0)"/>
     <use xlink:href="#DejaVuSans-57" transform="translate(282.28125 0)"/>
     <use xlink:href="#DejaVuSans-55" transform="translate(321.484375 0)"/>
     <use xlink:href="#DejaVuSans-44" transform="translate(362.59375 0)"/>
     <use xlink:href="#DejaVuSans-53" transform="translate(423.875 0)"/>
     <use xlink:href="#DejaVuSans-3" transform="translate(487.359375 0)"/>
     <use xlink:href="#DejaVuSans-15" transform="translate(519.140625 0)"/>
    </g>
    <!-- ...k times -->
    <g style="fill: #1a1a1a" transform="translate(116.653924 145.807813) scale(0.075 -0.075)">
     <defs>
      <path id="DejaVuSans-11" d="M 684 794 
L 1344 794 
L 1344 0 
L 684 0 
L 684 794 
z
" transform="scale(0.015625)"/>
      <path id="DejaVuSans-4e" d="M 581 4863 
L 1159 4863 
L 1159 1991 
L 2875 3500 
L 3609 3500 
L 1753 1863 
L 3688 0 
L 2938 0 
L 1159 1709 
L 1159 0 
L 581 0 
L 581 4863 
z
" transform="scale(0.015625)"/>
      <path id="DejaVuSans-4c" d="M 603 3500 
L 1178 3500 
L 1178 0 
L 603 0 
L 603 3500 
z
M 603 4863 
L 1178 4863 
L 1178 4134 
L 603 4134 
L 603 4863 
z
" transform="scale(0.015625)"/>
      <path id="DejaVuSans-50" d="M 3328 2828 
Q 3544 3216 3844 3400 
Q 4144 3584 4550 3584 
Q 5097 3584 5394 3201 
Q 5691 2819 5691 2113 
L 5691 0 
L 5113 0 
L 5113 2094 
Q 5113 2597 4934 2840 
Q 4756 3084 4391 3084 
Q 3944 3084 3684 2787 
Q 3425 2491 3425 1978 
L 3425 0 
L 2847 0 
L 2847 2094 
Q 2847 2600 2669 2842 
Q 2491 3084 2119 3084 
Q 1678 3084 1418 2786 
Q 1159 2488 1159 1978 
L 1159 0 
L 581 0 
L 581 3500 
L 1159 3500 
L 1159 2956 
Q 1356 3278 1631 3431 
Q 1906 3584 2284 3584 
Q 2666 3584 2933 3390 
Q 3200 3197 3328 2828 
z
" transform="scale(0.015625)"/>
      <path id="DejaVuSans-48" d="M 3597 1894 
L 3597 1613 
L 953 1613 
Q 991 1019 1311 708 
Q 1631 397 2203 397 
Q 2534 397 2845 478 
Q 3156 559 3463 722 
L 3463 178 
Q 3153 47 2828 -22 
Q 2503 -91 2169 -91 
Q 1331 -91 842 396 
Q 353 884 353 1716 
Q 353 2575 817 3079 
Q 1281 3584 2069 3584 
Q 2775 3584 3186 3129 
Q 3597 2675 3597 1894 
z
M 3022 2063 
Q 3016 2534 2758 2815 
Q 2500 3097 2075 3097 
Q 1594 3097 1305 2825 
Q 1016 2553 972 2059 
L 3022 2063 
z
" transform="scale(0.015625)"/>
     </defs>
     <use xlink:href="#DejaVuSans-11"/>
     <use xlink:href="#DejaVuSans-11" transform="translate(31.78125 0)"/>
     <use xlink:href="#DejaVuSans-11" transform="translate(63.5625 0)"/>
     <use xlink:href="#DejaVuSans-4e" transform="translate(95.34375 0)"/>
     <use xlink:href="#DejaVuSans-3" transform="translate(153.25 0)"/>
     <use xlink:href="#DejaVuSans-57" transform="translate(185.03125 0)"/>
     <use xlink:href="#DejaVuSans-4c" transform="translate(224.234375 0)"/>
     <use xlink:href="#DejaVuSans-50" transform="translate(252.015625 0)"/>
     <use xlink:href="#DejaVuSans-48" transform="translate(349.421875 0)"/>
     <use xlink:href="#DejaVuSans-56" transform="translate(410.953125 0)"/>
    </g>
   </g>
   <g id="text_3">
    <!-- Model 1 -->
    <g style="fill: #1a1a1a" transform="translate(119.180487 210.964297) scale(0.075 -0.075)">
     <defs>
      <path id="DejaVuSans-30" d="M 628 4666 
L 1569 4666 
L 2759 1491 
L 3956 4666 
L 4897 4666 
L 4897 0 
L 4281 0 
L 4281 4097 
L 3078 897 
L 2444 897 
L 1241 4097 
L 1241 0 
L 628 0 
L 628 4666 
z
" transform="scale(0.015625)"/>
      <path id="DejaVuSans-47" d="M 2906 2969 
L 2906 4863 
L 3481 4863 
L 3481 0 
L 2906 0 
L 2906 525 
Q 2725 213 2448 61 
Q 2172 -91 1784 -91 
Q 1150 -91 751 415 
Q 353 922 353 1747 
Q 353 2572 751 3078 
Q 1150 3584 1784 3584 
Q 2172 3584 2448 3432 
Q 2725 3281 2906 2969 
z
M 947 1747 
Q 947 1113 1208 752 
Q 1469 391 1925 391 
Q 2381 391 2643 752 
Q 2906 1113 2906 1747 
Q 2906 2381 2643 2742 
Q 2381 3103 1925 3103 
Q 1469 3103 1208 2742 
Q 947 2381 947 1747 
z
" transform="scale(0.015625)"/>
      <path id="DejaVuSans-4f" d="M 603 4863 
L 1178 4863 
L 1178 0 
L 603 0 
L 603 4863 
z
" transform="scale(0.015625)"/>
     </defs>
     <use xlink:href="#DejaVuSans-30"/>
     <use xlink:href="#DejaVuSans-52" transform="translate(86.28125 0)"/>
     <use xlink:href="#DejaVuSans-47" transform="translate(147.46875 0)"/>
     <use xlink:href="#DejaVuSans-48" transform="translate(210.953125 0)"/>
     <use xlink:href="#DejaVuSans-4f" transform="translate(272.484375 0)"/>
     <use xlink:href="#DejaVuSans-3" transform="translate(300.265625 0)"/>
     <use xlink:href="#DejaVuSans-14" transform="translate(332.046875 0)"/>
    </g>
    <!-- Model 2 -->
    <g style="fill: #1a1a1a" transform="translate(119.180487 219.966348) scale(0.075 -0.075)">
     <use xlink:href="#DejaVuSans-30"/>
     <use xlink:href="#DejaVuSans-52" transform="translate(86.28125 0)"/>
     <use xlink:href="#DejaVuSans-47" transform="translate(147.46875 0)"/>
     <use xlink:href="#DejaVuSans-48" transform="translate(210.953125 0)"/>
     <use xlink:href="#DejaVuSans-4f" transform="translate(272.484375 0)"/>
     <use xlink:href="#DejaVuSans-3" transform="translate(300.265625 0)"/>
     <use xlink:href="#DejaVuSans-15" transform="translate(332.046875 0)"/>
    </g>
    <!-- (parallel) -->
    <g style="fill: #1a1a1a" transform="translate(117.140838 228.968398) scale(0.075 -0.075)">
     <defs>
      <path id="DejaVuSans-b" d="M 1984 4856 
Q 1566 4138 1362 3434 
Q 1159 2731 1159 2009 
Q 1159 1288 1364 580 
Q 1569 -128 1984 -844 
L 1484 -844 
Q 1016 -109 783 600 
Q 550 1309 550 2009 
Q 550 2706 781 3412 
Q 1013 4119 1484 4856 
L 1984 4856 
z
" transform="scale(0.015625)"/>
      <path id="DejaVuSans-c" d="M 513 4856 
L 1013 4856 
Q 1481 4119 1714 3412 
Q 1947 2706 1947 2009 
Q 1947 1309 1714 600 
Q 1481 -109 1013 -844 
L 513 -844 
Q 928 -128 1133 580 
Q 1338 1288 1338 2009 
Q 1338 2731 1133 3434 
Q 928 4138 513 4856 
z
" transform="scale(0.015625)"/>
     </defs>
     <use xlink:href="#DejaVuSans-b"/>
     <use xlink:href="#DejaVuSans-53" transform="translate(39.015625 0)"/>
     <use xlink:href="#DejaVuSans-44" transform="translate(102.5 0)"/>
     <use xlink:href="#DejaVuSans-55" transform="translate(163.78125 0)"/>
     <use xlink:href="#DejaVuSans-44" transform="translate(204.890625 0)"/>
     <use xlink:href="#DejaVuSans-4f" transform="translate(266.171875 0)"/>
     <use xlink:href="#DejaVuSans-4f" transform="translate(293.953125 0)"/>
     <use xlink:href="#DejaVuSans-48" transform="translate(321.734375 0)"/>
     <use xlink:href="#DejaVuSans-4f" transform="translate(383.265625 0)"/>
     <use xlink:href="#DejaVuSans-c" transform="translate(411.046875 0)"/>
    </g>
   </g>
   <g id="text_4">
    <!-- AVERAGE -->
    <g style="fill: #1a1a1a" transform="translate(115.363182 290.138844) scale(0.08 -0.08)">
     <defs>
      <path id="DejaVuSans-24" d="M 2188 4044 
L 1331 1722 
L 3047 1722 
L 2188 4044 
z
M 1831 4666 
L 2547 4666 
L 4325 0 
L 3669 0 
L 3244 1197 
L 1141 1197 
L 716 0 
L 50 0 
L 1831 4666 
z
" transform="scale(0.015625)"/>
      <path id="DejaVuSans-39" d="M 1831 0 
L 50 4666 
L 709 4666 
L 2188 738 
L 3669 4666 
L 4325 4666 
L 2547 0 
L 1831 0 
z
" transform="scale(0.015625)"/>
      <path id="DejaVuSans-28" d="M 628 4666 
L 3578 4666 
L 3578 4134 
L 1259 4134 
L 1259 2753 
L 3481 2753 
L 3481 2222 
L 1259 2222 
L 1259 531 
L 3634 531 
L 3634 0 
L 628 0 
L 628 4666 
z
" transform="scale(0.015625)"/>
      <path id="DejaVuSans-35" d="M 2841 2188 
Q 3044 2119 3236 1894 
Q 3428 1669 3622 1275 
L 4263 0 
L 3584 0 
L 2988 1197 
Q 2756 1666 2539 1819 
Q 2322 1972 1947 1972 
L 1259 1972 
L 1259 0 
L 628 0 
L 628 4666 
L 2053 4666 
Q 2853 4666 3247 4331 
Q 3641 3997 3641 3322 
Q 3641 2881 3436 2590 
Q 3231 2300 2841 2188 
z
M 1259 4147 
L 1259 2491 
L 2053 2491 
Q 2509 2491 2742 2702 
Q 2975 2913 2975 3322 
Q 2975 3731 2742 3939 
Q 2509 4147 2053 4147 
L 1259 4147 
z
" transform="scale(0.015625)"/>
      <path id="DejaVuSans-2a" d="M 3809 666 
L 3809 1919 
L 2778 1919 
L 2778 2438 
L 4434 2438 
L 4434 434 
Q 4069 175 3628 42 
Q 3188 -91 2688 -91 
Q 1594 -91 976 548 
Q 359 1188 359 2328 
Q 359 3472 976 4111 
Q 1594 4750 2688 4750 
Q 3144 4750 3555 4637 
Q 3966 4525 4313 4306 
L 4313 3634 
Q 3963 3931 3569 4081 
Q 3175 4231 2741 4231 
Q 1884 4231 1454 3753 
Q 1025 3275 1025 2328 
Q 1025 1384 1454 906 
Q 1884 428 2741 428 
Q 3075 428 3337 486 
Q 3600 544 3809 666 
z
" transform="scale(0.015625)"/>
     </defs>
     <use xlink:href="#DejaVuSans-24"/>
     <use xlink:href="#DejaVuSans-39" transform="translate(62.015625 0)"/>
     <use xlink:href="#DejaVuSans-28" transform="translate(130.421875 0)"/>
     <use xlink:href="#DejaVuSans-35" transform="translate(193.609375 0)"/>
     <use xlink:href="#DejaVuSans-24" transform="translate(259.046875 0)"/>
     <use xlink:href="#DejaVuSans-2a" transform="translate(325.703125 0)"/>
     <use xlink:href="#DejaVuSans-28" transform="translate(403.1875 0)"/>
    </g>
    <!-- ↓ Variance -->
    <g style="fill: #1a1a1a" transform="translate(112.115682 299.741031) scale(0.08 -0.08)">
     <defs>
      <path id="DejaVuSans-c1d" d="M 2822 -22 
L 2541 -22 
L 1309 1209 
L 1684 1584 
L 2416 853 
L 2416 4666 
L 2947 4666 
L 2947 853 
L 3672 1584 
L 4047 1209 
L 2822 -22 
z
" transform="scale(0.015625)"/>
      <path id="DejaVuSans-51" d="M 3513 2113 
L 3513 0 
L 2938 0 
L 2938 2094 
Q 2938 2591 2744 2837 
Q 2550 3084 2163 3084 
Q 1697 3084 1428 2787 
Q 1159 2491 1159 1978 
L 1159 0 
L 581 0 
L 581 3500 
L 1159 3500 
L 1159 2956 
Q 1366 3272 1645 3428 
Q 1925 3584 2291 3584 
Q 2894 3584 3203 3211 
Q 3513 2838 3513 2113 
z
" transform="scale(0.015625)"/>
      <path id="DejaVuSans-46" d="M 3122 3366 
L 3122 2828 
Q 2878 2963 2633 3030 
Q 2388 3097 2138 3097 
Q 1578 3097 1268 2742 
Q 959 2388 959 1747 
Q 959 1106 1268 751 
Q 1578 397 2138 397 
Q 2388 397 2633 464 
Q 2878 531 3122 666 
L 3122 134 
Q 2881 22 2623 -34 
Q 2366 -91 2075 -91 
Q 1284 -91 818 406 
Q 353 903 353 1747 
Q 353 2603 823 3093 
Q 1294 3584 2113 3584 
Q 2378 3584 2631 3529 
Q 2884 3475 3122 3366 
z
" transform="scale(0.015625)"/>
     </defs>
     <use xlink:href="#DejaVuSans-c1d"/>
     <use xlink:href="#DejaVuSans-3" transform="translate(83.796875 0)"/>
     <use xlink:href="#DejaVuSans-39" transform="translate(115.578125 0)"/>
     <use xlink:href="#DejaVuSans-44" transform="translate(176.21875 0)"/>
     <use xlink:href="#DejaVuSans-55" transform="translate(237.5 0)"/>
     <use xlink:href="#DejaVuSans-4c" transform="translate(278.609375 0)"/>
     <use xlink:href="#DejaVuSans-44" transform="translate(306.390625 0)"/>
     <use xlink:href="#DejaVuSans-51" transform="translate(367.671875 0)"/>
     <use xlink:href="#DejaVuSans-46" transform="translate(431.046875 0)"/>
     <use xlink:href="#DejaVuSans-48" transform="translate(486.03125 0)"/>
    </g>
   </g>
   <g id="text_5">
    <!-- Bagging -->
    <g transform="translate(101.544744 17.837813) scale(0.14 -0.14)">
     <defs>
      <path id="DejaVuSans-Bold-25" d="M 2456 2859 
Q 2741 2859 2887 2984 
Q 3034 3109 3034 3353 
Q 3034 3594 2887 3720 
Q 2741 3847 2456 3847 
L 1791 3847 
L 1791 2859 
L 2456 2859 
z
M 2497 819 
Q 2859 819 3042 972 
Q 3225 1125 3225 1434 
Q 3225 1738 3044 1889 
Q 2863 2041 2497 2041 
L 1791 2041 
L 1791 819 
L 2497 819 
z
M 3616 2497 
Q 4003 2384 4215 2081 
Q 4428 1778 4428 1338 
Q 4428 663 3972 331 
Q 3516 0 2584 0 
L 588 0 
L 588 4666 
L 2394 4666 
Q 3366 4666 3802 4372 
Q 4238 4078 4238 3431 
Q 4238 3091 4078 2852 
Q 3919 2613 3616 2497 
z
" transform="scale(0.015625)"/>
      <path id="DejaVuSans-Bold-44" d="M 2106 1575 
Q 1756 1575 1579 1456 
Q 1403 1338 1403 1106 
Q 1403 894 1545 773 
Q 1688 653 1941 653 
Q 2256 653 2472 879 
Q 2688 1106 2688 1447 
L 2688 1575 
L 2106 1575 
z
M 3816 1997 
L 3816 0 
L 2688 0 
L 2688 519 
Q 2463 200 2181 54 
Q 1900 -91 1497 -91 
Q 953 -91 614 226 
Q 275 544 275 1050 
Q 275 1666 698 1953 
Q 1122 2241 2028 2241 
L 2688 2241 
L 2688 2328 
Q 2688 2594 2478 2717 
Q 2269 2841 1825 2841 
Q 1466 2841 1156 2769 
Q 847 2697 581 2553 
L 581 3406 
Q 941 3494 1303 3539 
Q 1666 3584 2028 3584 
Q 2975 3584 3395 3211 
Q 3816 2838 3816 1997 
z
" transform="scale(0.015625)"/>
      <path id="DejaVuSans-Bold-4a" d="M 2919 594 
Q 2688 288 2409 144 
Q 2131 0 1766 0 
Q 1125 0 706 504 
Q 288 1009 288 1791 
Q 288 2575 706 3076 
Q 1125 3578 1766 3578 
Q 2131 3578 2409 3434 
Q 2688 3291 2919 2981 
L 2919 3500 
L 4044 3500 
L 4044 353 
Q 4044 -491 3511 -936 
Q 2978 -1381 1966 -1381 
Q 1638 -1381 1331 -1331 
Q 1025 -1281 716 -1178 
L 716 -306 
Q 1009 -475 1290 -558 
Q 1572 -641 1856 -641 
Q 2406 -641 2662 -400 
Q 2919 -159 2919 353 
L 2919 594 
z
M 2181 2772 
Q 1834 2772 1640 2515 
Q 1447 2259 1447 1791 
Q 1447 1309 1634 1061 
Q 1822 813 2181 813 
Q 2531 813 2725 1069 
Q 2919 1325 2919 1791 
Q 2919 2259 2725 2515 
Q 2531 2772 2181 2772 
z
" transform="scale(0.015625)"/>
      <path id="DejaVuSans-Bold-4c" d="M 538 3500 
L 1656 3500 
L 1656 0 
L 538 0 
L 538 3500 
z
M 538 4863 
L 1656 4863 
L 1656 3950 
L 538 3950 
L 538 4863 
z
" transform="scale(0.015625)"/>
      <path id="DejaVuSans-Bold-51" d="M 4056 2131 
L 4056 0 
L 2931 0 
L 2931 347 
L 2931 1631 
Q 2931 2084 2911 2256 
Q 2891 2428 2841 2509 
Q 2775 2619 2662 2680 
Q 2550 2741 2406 2741 
Q 2056 2741 1856 2470 
Q 1656 2200 1656 1722 
L 1656 0 
L 538 0 
L 538 3500 
L 1656 3500 
L 1656 2988 
Q 1909 3294 2193 3439 
Q 2478 3584 2822 3584 
Q 3428 3584 3742 3212 
Q 4056 2841 4056 2131 
z
" transform="scale(0.015625)"/>
     </defs>
     <use xlink:href="#DejaVuSans-Bold-25"/>
     <use xlink:href="#DejaVuSans-Bold-44" transform="translate(76.21875 0)"/>
     <use xlink:href="#DejaVuSans-Bold-4a" transform="translate(143.703125 0)"/>
     <use xlink:href="#DejaVuSans-Bold-4a" transform="translate(215.28125 0)"/>
     <use xlink:href="#DejaVuSans-Bold-4c" transform="translate(286.859375 0)"/>
     <use xlink:href="#DejaVuSans-Bold-51" transform="translate(321.140625 0)"/>
     <use xlink:href="#DejaVuSans-Bold-4a" transform="translate(392.328125 0)"/>
    </g>
   </g>
  </g>
  <g id="axes_2">
   <g id="patch_9">
    <path d="M 438.381818 84.419899 
Q 438.381818 100.210645 438.381818 113.765323 
" style="fill: none; stroke: #888888; stroke-width: 2; stroke-linecap: round"/>
    <path d="M 440.381818 109.765323 
L 438.381818 113.765323 
L 436.381818 109.765323 
" style="fill: none; stroke: #888888; stroke-width: 2; stroke-linecap: round"/>
   </g>
   <g id="patch_10">
    <path d="M 438.381818 162.033699 
Q 438.381818 162.579192 438.381818 160.888616 
" style="fill: none; stroke: #888888; stroke-width: 2; stroke-linecap: round"/>
    <path d="M 440.381818 156.888616 
L 438.381818 160.888616 
L 436.381818 156.888616 
" style="fill: none; stroke: #888888; stroke-width: 2; stroke-linecap: round"/>
   </g>
   <g id="patch_11">
    <path d="M 438.381818 209.155669 
Q 438.381818 213.859823 438.381818 216.32791 
" style="fill: none; stroke: #888888; stroke-width: 2; stroke-linecap: round"/>
    <path d="M 440.381818 212.32791 
L 438.381818 216.32791 
L 436.381818 212.32791 
" style="fill: none; stroke: #888888; stroke-width: 2; stroke-linecap: round"/>
   </g>
   <g id="patch_12">
    <path d="M 438.381818 264.597699 
Q 438.381818 270.6844 438.381818 274.535034 
" style="fill: none; stroke: #888888; stroke-width: 2; stroke-linecap: round"/>
    <path d="M 440.381818 270.535034 
L 438.381818 274.535034 
L 436.381818 270.535034 
" style="fill: none; stroke: #888888; stroke-width: 2; stroke-linecap: round"/>
   </g>
   <g id="patch_13">
    <path d="M 401.604545 76.645813 
L 475.159091 76.645813 
Q 476.427273 76.645813 476.427273 75.259813 
L 476.427273 55.855813 
Q 476.427273 54.469813 475.159091 54.469813 
L 401.604545 54.469813 
Q 400.336364 54.469813 400.336364 55.855813 
L 400.336364 75.259813 
Q 400.336364 76.645813 401.604545 76.645813 
z
" clip-path="url(#p6c25a75e54)" style="fill: #fdebd0; stroke: #555555; stroke-width: 1.5; stroke-linejoin: miter"/>
   </g>
   <g id="patch_14">
    <path d="M 401.604545 145.945813 
L 475.159091 145.945813 
Q 476.427273 145.945813 476.427273 144.559813 
L 476.427273 125.155813 
Q 476.427273 123.769813 475.159091 123.769813 
L 401.604545 123.769813 
Q 400.336364 123.769813 400.336364 125.155813 
L 400.336364 144.559813 
Q 400.336364 145.945813 401.604545 145.945813 
z
" clip-path="url(#p6c25a75e54)" style="fill: #fdebd0; stroke: #555555; stroke-width: 1.5; stroke-linejoin: miter"/>
   </g>
   <g id="patch_15">
    <path d="M 401.604545 201.385813 
L 475.159091 201.385813 
Q 476.427273 201.385813 476.427273 199.999813 
L 476.427273 180.595813 
Q 476.427273 179.209813 475.159091 179.209813 
L 401.604545 179.209813 
Q 400.336364 179.209813 400.336364 180.595813 
L 400.336364 199.999813 
Q 400.336364 201.385813 401.604545 201.385813 
z
" clip-path="url(#p6c25a75e54)" style="fill: #fdebd0; stroke: #555555; stroke-width: 1.5; stroke-linejoin: miter"/>
   </g>
   <g id="patch_16">
    <path d="M 401.604545 256.825813 
L 475.159091 256.825813 
Q 476.427273 256.825813 476.427273 255.439813 
L 476.427273 236.035813 
Q 476.427273 234.649813 475.159091 234.649813 
L 401.604545 234.649813 
Q 400.336364 234.649813 400.336364 236.035813 
L 400.336364 255.439813 
Q 400.336364 256.825813 401.604545 256.825813 
z
" clip-path="url(#p6c25a75e54)" style="fill: #fdebd0; stroke: #555555; stroke-width: 1.5; stroke-linejoin: miter"/>
   </g>
   <g id="patch_17">
    <path d="M 395.263636 320.581813 
L 481.5 320.581813 
Q 482.768182 320.581813 482.768182 319.195813 
L 482.768182 294.247813 
Q 482.768182 292.861813 481.5 292.861813 
L 395.263636 292.861813 
Q 393.995455 292.861813 393.995455 294.247813 
L 393.995455 319.195813 
Q 393.995455 320.581813 395.263636 320.581813 
z
" clip-path="url(#p6c25a75e54)" style="fill: #f5cba7; stroke: #555555; stroke-width: 1.5; stroke-linejoin: miter"/>
   </g>
   <g id="text_6">
    <!-- Data -->
    <g style="fill: #1a1a1a" transform="translate(427.637365 67.895703) scale(0.09 -0.09)">
     <use xlink:href="#DejaVuSans-27"/>
     <use xlink:href="#DejaVuSans-44" transform="translate(77 0)"/>
     <use xlink:href="#DejaVuSans-57" transform="translate(138.28125 0)"/>
     <use xlink:href="#DejaVuSans-44" transform="translate(177.484375 0)"/>
    </g>
   </g>
   <g id="text_7">
    <!-- Model 1 -->
    <g style="fill: #1a1a1a" transform="translate(423.544123 132.305322) scale(0.075 -0.075)">
     <use xlink:href="#DejaVuSans-30"/>
     <use xlink:href="#DejaVuSans-52" transform="translate(86.28125 0)"/>
     <use xlink:href="#DejaVuSans-47" transform="translate(147.46875 0)"/>
     <use xlink:href="#DejaVuSans-48" transform="translate(210.953125 0)"/>
     <use xlink:href="#DejaVuSans-4f" transform="translate(272.484375 0)"/>
     <use xlink:href="#DejaVuSans-3" transform="translate(300.265625 0)"/>
     <use xlink:href="#DejaVuSans-14" transform="translate(332.046875 0)"/>
    </g>
    <!-- (weak) -->
    <g style="fill: #1a1a1a" transform="translate(425.611896 141.307373) scale(0.075 -0.075)">
     <defs>
      <path id="DejaVuSans-5a" d="M 269 3500 
L 844 3500 
L 1563 769 
L 2278 3500 
L 2956 3500 
L 3675 769 
L 4391 3500 
L 4966 3500 
L 4050 0 
L 3372 0 
L 2619 2869 
L 1863 0 
L 1184 0 
L 269 3500 
z
" transform="scale(0.015625)"/>
     </defs>
     <use xlink:href="#DejaVuSans-b"/>
     <use xlink:href="#DejaVuSans-5a" transform="translate(39.015625 0)"/>
     <use xlink:href="#DejaVuSans-48" transform="translate(120.796875 0)"/>
     <use xlink:href="#DejaVuSans-44" transform="translate(182.328125 0)"/>
     <use xlink:href="#DejaVuSans-4e" transform="translate(243.609375 0)"/>
     <use xlink:href="#DejaVuSans-c" transform="translate(301.515625 0)"/>
    </g>
   </g>
   <g id="text_8">
    <!-- Residuals -->
    <g style="fill: #1a1a1a" transform="translate(420.590998 187.745615) scale(0.075 -0.075)">
     <defs>
      <path id="DejaVuSans-58" d="M 544 1381 
L 544 3500 
L 1119 3500 
L 1119 1403 
Q 1119 906 1312 657 
Q 1506 409 1894 409 
Q 2359 409 2629 706 
Q 2900 1003 2900 1516 
L 2900 3500 
L 3475 3500 
L 3475 0 
L 2900 0 
L 2900 538 
Q 2691 219 2414 64 
Q 2138 -91 1772 -91 
Q 1169 -91 856 284 
Q 544 659 544 1381 
z
M 1991 3584 
L 1991 3584 
z
" transform="scale(0.015625)"/>
     </defs>
     <use xlink:href="#DejaVuSans-35"/>
     <use xlink:href="#DejaVuSans-48" transform="translate(65 0)"/>
     <use xlink:href="#DejaVuSans-56" transform="translate(126.53125 0)"/>
     <use xlink:href="#DejaVuSans-4c" transform="translate(178.625 0)"/>
     <use xlink:href="#DejaVuSans-47" transform="translate(206.40625 0)"/>
     <use xlink:href="#DejaVuSans-58" transform="translate(269.890625 0)"/>
     <use xlink:href="#DejaVuSans-44" transform="translate(333.265625 0)"/>
     <use xlink:href="#DejaVuSans-4f" transform="translate(394.546875 0)"/>
     <use xlink:href="#DejaVuSans-56" transform="translate(422.328125 0)"/>
    </g>
    <!-- / Errors -->
    <g style="fill: #1a1a1a" transform="translate(424.832599 196.74708) scale(0.075 -0.075)">
     <defs>
      <path id="DejaVuSans-12" d="M 1625 4666 
L 2156 4666 
L 531 -594 
L 0 -594 
L 1625 4666 
z
" transform="scale(0.015625)"/>
     </defs>
     <use xlink:href="#DejaVuSans-12"/>
     <use xlink:href="#DejaVuSans-3" transform="translate(33.6875 0)"/>
     <use xlink:href="#DejaVuSans-28" transform="translate(65.46875 0)"/>
     <use xlink:href="#DejaVuSans-55" transform="translate(128.65625 0)"/>
     <use xlink:href="#DejaVuSans-55" transform="translate(168.015625 0)"/>
     <use xlink:href="#DejaVuSans-52" transform="translate(206.921875 0)"/>
     <use xlink:href="#DejaVuSans-55" transform="translate(268.109375 0)"/>
     <use xlink:href="#DejaVuSans-56" transform="translate(309.21875 0)"/>
    </g>
   </g>
   <g id="text_9">
    <!-- Model 2 -->
    <g style="fill: #1a1a1a" transform="translate(423.544123 243.185615) scale(0.075 -0.075)">
     <use xlink:href="#DejaVuSans-30"/>
     <use xlink:href="#DejaVuSans-52" transform="translate(86.28125 0)"/>
     <use xlink:href="#DejaVuSans-47" transform="translate(147.46875 0)"/>
     <use xlink:href="#DejaVuSans-48" transform="translate(210.953125 0)"/>
     <use xlink:href="#DejaVuSans-4f" transform="translate(272.484375 0)"/>
     <use xlink:href="#DejaVuSans-3" transform="translate(300.265625 0)"/>
     <use xlink:href="#DejaVuSans-15" transform="translate(332.046875 0)"/>
    </g>
    <!-- (corrects) -->
    <g style="fill: #1a1a1a" transform="translate(420.371271 252.18708) scale(0.075 -0.075)">
     <use xlink:href="#DejaVuSans-b"/>
     <use xlink:href="#DejaVuSans-46" transform="translate(39.015625 0)"/>
     <use xlink:href="#DejaVuSans-52" transform="translate(94 0)"/>
     <use xlink:href="#DejaVuSans-55" transform="translate(155.1875 0)"/>
     <use xlink:href="#DejaVuSans-55" transform="translate(194.546875 0)"/>
     <use xlink:href="#DejaVuSans-48" transform="translate(233.453125 0)"/>
     <use xlink:href="#DejaVuSans-46" transform="translate(294.984375 0)"/>
     <use xlink:href="#DejaVuSans-57" transform="translate(349.96875 0)"/>
     <use xlink:href="#DejaVuSans-56" transform="translate(389.171875 0)"/>
     <use xlink:href="#DejaVuSans-c" transform="translate(441.265625 0)"/>
    </g>
   </g>
   <g id="text_10">
    <!-- SEQUENTIAL -->
    <g style="fill: #1a1a1a" transform="translate(413.130568 303.998844) scale(0.08 -0.08)">
     <defs>
      <path id="DejaVuSans-36" d="M 3425 4513 
L 3425 3897 
Q 3066 4069 2747 4153 
Q 2428 4238 2131 4238 
Q 1616 4238 1336 4038 
Q 1056 3838 1056 3469 
Q 1056 3159 1242 3001 
Q 1428 2844 1947 2747 
L 2328 2669 
Q 3034 2534 3370 2195 
Q 3706 1856 3706 1288 
Q 3706 609 3251 259 
Q 2797 -91 1919 -91 
Q 1588 -91 1214 -16 
Q 841 59 441 206 
L 441 856 
Q 825 641 1194 531 
Q 1563 422 1919 422 
Q 2459 422 2753 634 
Q 3047 847 3047 1241 
Q 3047 1584 2836 1778 
Q 2625 1972 2144 2069 
L 1759 2144 
Q 1053 2284 737 2584 
Q 422 2884 422 3419 
Q 422 4038 858 4394 
Q 1294 4750 2059 4750 
Q 2388 4750 2728 4690 
Q 3069 4631 3425 4513 
z
" transform="scale(0.015625)"/>
      <path id="DejaVuSans-34" d="M 2522 4238 
Q 1834 4238 1429 3725 
Q 1025 3213 1025 2328 
Q 1025 1447 1429 934 
Q 1834 422 2522 422 
Q 3209 422 3611 934 
Q 4013 1447 4013 2328 
Q 4013 3213 3611 3725 
Q 3209 4238 2522 4238 
z
M 3406 84 
L 4238 -825 
L 3475 -825 
L 2784 -78 
Q 2681 -84 2626 -87 
Q 2572 -91 2522 -91 
Q 1538 -91 948 567 
Q 359 1225 359 2328 
Q 359 3434 948 4092 
Q 1538 4750 2522 4750 
Q 3503 4750 4090 4092 
Q 4678 3434 4678 2328 
Q 4678 1516 4351 937 
Q 4025 359 3406 84 
z
" transform="scale(0.015625)"/>
      <path id="DejaVuSans-38" d="M 556 4666 
L 1191 4666 
L 1191 1831 
Q 1191 1081 1462 751 
Q 1734 422 2344 422 
Q 2950 422 3222 751 
Q 3494 1081 3494 1831 
L 3494 4666 
L 4128 4666 
L 4128 1753 
Q 4128 841 3676 375 
Q 3225 -91 2344 -91 
Q 1459 -91 1007 375 
Q 556 841 556 1753 
L 556 4666 
z
" transform="scale(0.015625)"/>
      <path id="DejaVuSans-31" d="M 628 4666 
L 1478 4666 
L 3547 763 
L 3547 4666 
L 4159 4666 
L 4159 0 
L 3309 0 
L 1241 3903 
L 1241 0 
L 628 0 
L 628 4666 
z
" transform="scale(0.015625)"/>
      <path id="DejaVuSans-37" d="M -19 4666 
L 3928 4666 
L 3928 4134 
L 2272 4134 
L 2272 0 
L 1638 0 
L 1638 4134 
L -19 4134 
L -19 4666 
z
" transform="scale(0.015625)"/>
      <path id="DejaVuSans-2c" d="M 628 4666 
L 1259 4666 
L 1259 0 
L 628 0 
L 628 4666 
z
" transform="scale(0.015625)"/>
      <path id="DejaVuSans-2f" d="M 628 4666 
L 1259 4666 
L 1259 531 
L 3531 531 
L 3531 0 
L 628 0 
L 628 4666 
z
" transform="scale(0.015625)"/>
     </defs>
     <use xlink:href="#DejaVuSans-36"/>
     <use xlink:href="#DejaVuSans-28" transform="translate(63.484375 0)"/>
     <use xlink:href="#DejaVuSans-34" transform="translate(126.671875 0)"/>
     <use xlink:href="#DejaVuSans-38" transform="translate(205.390625 0)"/>
     <use xlink:href="#DejaVuSans-28" transform="translate(278.578125 0)"/>
     <use xlink:href="#DejaVuSans-31" transform="translate(341.765625 0)"/>
     <use xlink:href="#DejaVuSans-37" transform="translate(416.578125 0)"/>
     <use xlink:href="#DejaVuSans-2c" transform="translate(477.65625 0)"/>
     <use xlink:href="#DejaVuSans-24" transform="translate(507.15625 0)"/>
     <use xlink:href="#DejaVuSans-2f" transform="translate(575.5625 0)"/>
    </g>
    <!-- ↓ Bias -->
    <g style="fill: #1a1a1a" transform="translate(425.368068 313.601031) scale(0.08 -0.08)">
     <use xlink:href="#DejaVuSans-c1d"/>
     <use xlink:href="#DejaVuSans-3" transform="translate(83.796875 0)"/>
     <use xlink:href="#DejaVuSans-25" transform="translate(115.578125 0)"/>
     <use xlink:href="#DejaVuSans-4c" transform="translate(184.1875 0)"/>
     <use xlink:href="#DejaVuSans-44" transform="translate(211.96875 0)"/>
     <use xlink:href="#DejaVuSans-56" transform="translate(273.25 0)"/>
    </g>
   </g>
   <g id="text_11">
    <!-- Boosting -->
    <g transform="translate(403.522912 17.837813) scale(0.14 -0.14)">
     <defs>
      <path id="DejaVuSans-Bold-52" d="M 2203 2784 
Q 1831 2784 1636 2517 
Q 1441 2250 1441 1747 
Q 1441 1244 1636 976 
Q 1831 709 2203 709 
Q 2569 709 2762 976 
Q 2956 1244 2956 1747 
Q 2956 2250 2762 2517 
Q 2569 2784 2203 2784 
z
M 2203 3584 
Q 3106 3584 3614 3096 
Q 4122 2609 4122 1747 
Q 4122 884 3614 396 
Q 3106 -91 2203 -91 
Q 1297 -91 786 396 
Q 275 884 275 1747 
Q 275 2609 786 3096 
Q 1297 3584 2203 3584 
z
" transform="scale(0.015625)"/>
      <path id="DejaVuSans-Bold-56" d="M 3272 3391 
L 3272 2541 
Q 2913 2691 2578 2766 
Q 2244 2841 1947 2841 
Q 1628 2841 1473 2761 
Q 1319 2681 1319 2516 
Q 1319 2381 1436 2309 
Q 1553 2238 1856 2203 
L 2053 2175 
Q 2913 2066 3209 1816 
Q 3506 1566 3506 1031 
Q 3506 472 3093 190 
Q 2681 -91 1863 -91 
Q 1516 -91 1145 -36 
Q 775 19 384 128 
L 384 978 
Q 719 816 1070 734 
Q 1422 653 1784 653 
Q 2113 653 2278 743 
Q 2444 834 2444 1013 
Q 2444 1163 2330 1236 
Q 2216 1309 1875 1350 
L 1678 1375 
Q 931 1469 631 1722 
Q 331 1975 331 2491 
Q 331 3047 712 3315 
Q 1094 3584 1881 3584 
Q 2191 3584 2531 3537 
Q 2872 3491 3272 3391 
z
" transform="scale(0.015625)"/>
      <path id="DejaVuSans-Bold-57" d="M 1759 4494 
L 1759 3500 
L 2913 3500 
L 2913 2700 
L 1759 2700 
L 1759 1216 
Q 1759 972 1856 886 
Q 1953 800 2241 800 
L 2816 800 
L 2816 0 
L 1856 0 
Q 1194 0 917 276 
Q 641 553 641 1216 
L 641 2700 
L 84 2700 
L 84 3500 
L 641 3500 
L 641 4494 
L 1759 4494 
z
" transform="scale(0.015625)"/>
     </defs>
     <use xlink:href="#DejaVuSans-Bold-25"/>
     <use xlink:href="#DejaVuSans-Bold-52" transform="translate(76.21875 0)"/>
     <use xlink:href="#DejaVuSans-Bold-52" transform="translate(144.921875 0)"/>
     <use xlink:href="#DejaVuSans-Bold-56" transform="translate(213.625 0)"/>
     <use xlink:href="#DejaVuSans-Bold-57" transform="translate(273.140625 0)"/>
     <use xlink:href="#DejaVuSans-Bold-4c" transform="translate(320.9375 0)"/>
     <use xlink:href="#DejaVuSans-Bold-51" transform="translate(355.21875 0)"/>
     <use xlink:href="#DejaVuSans-Bold-4a" transform="translate(426.40625 0)"/>
    </g>
   </g>
  </g>
 </g>
 <defs>
  <clipPath id="pf385138bf3">
   <rect x="7.2" y="37.837813" width="253.636364" height="277.2"/>
  </clipPath>
  <clipPath id="p6c25a75e54">
   <rect x="311.563636" y="37.837813" width="253.636364" height="277.2"/>
  </clipPath>
 </defs>
</svg>
