<?xml version="1.0" encoding="utf-8" standalone="no"?>
<!DOCTYPE svg PUBLIC "-//W3C//DTD SVG 1.1//EN"
  "http://www.w3.org/Graphics/SVG/1.1/DTD/svg11.dtd">
<svg xmlns:xlink="http://www.w3.org/1999/xlink" width="460.8pt" height="263.88pt" viewBox="0 0 460.8 263.88" xmlns="http://www.w3.org/2000/svg" version="1.1">
 <metadata>
  <rdf:RDF xmlns:dc="http://purl.org/dc/elements/1.1/" xmlns:cc="http://creativecommons.org/ns#" xmlns:rdf="http://www.w3.org/1999/02/22-rdf-syntax-ns#">
   <cc:Work>
    <dc:type rdf:resource="http://purl.org/dc/dcmitype/StillImage"/>
    <dc:date>2026-07-06T17:32:29.205541</dc:date>
    <dc:format>image/svg+xml</dc:format>
    <dc:creator>
     <cc:Agent>
      <dc:title>Matplotlib v3.11.0, https://matplotlib.org/</dc:title>
     </cc:Agent>
    </dc:creator>
   </cc:Work>
  </rdf:RDF>
 </metadata>
 <defs>
  <style type="text/css">*{stroke-linejoin: round; stroke-linecap: butt}</style>
 </defs>
 <g id="figure_1">
  <g id="patch_1">
   <path d="M 0 263.88 
L 460.8 263.88 
L 460.8 0 
L 0 0 
L 0 263.88 
z
" style="fill: none"/>
  </g>
  <g id="axes_1">
   <g id="patch_2">
    <path d="M 230.4 87.046086 
Q 230.4 100.756876 230.4 112.231598 
" style="fill: none; stroke: #888888; stroke-width: 2; stroke-linecap: round"/>
    <path d="M 232.4 108.231598 
L 230.4 112.231598 
L 228.4 108.231598 
" style="fill: none; stroke: #888888; stroke-width: 2; stroke-linecap: round"/>
   </g>
   <g id="patch_3">
    <path d="M 386.64 87.046086 
Q 386.64 100.756876 386.64 112.231598 
" style="fill: none; stroke: #888888; stroke-width: 2; stroke-linecap: round"/>
    <path d="M 388.64 108.231598 
L 386.64 112.231598 
L 384.64 108.231598 
" style="fill: none; stroke: #888888; stroke-width: 2; stroke-linecap: round"/>
   </g>
   <g id="line2d_1">
    <path d="M 230.4 176.8464 
L 230.4 194.31 
" clip-path="url(#p44d67ff4fc)" style="fill: none; stroke: #888888; stroke-linecap: square"/>
   </g>
   <g id="patch_4">
    <path d="M 65.232 79.5492 
L 217.008 79.5492 
Q 219.24 79.5492 219.24 78.3018 
L 219.24 60.8382 
Q 219.24 59.5908 217.008 59.5908 
L 65.232 59.5908 
Q 63 59.5908 63 60.8382 
L 63 78.3018 
Q 63 79.5492 65.232 79.5492 
z
" clip-path="url(#p44d67ff4fc)" style="fill: #d5f5e3; stroke: #555555; stroke-width: 1.5; stroke-linejoin: miter"/>
   </g>
   <g id="patch_5">
    <path d="M 243.792 79.5492 
L 395.568 79.5492 
Q 397.8 79.5492 397.8 78.3018 
L 397.8 60.8382 
Q 397.8 59.5908 395.568 59.5908 
L 243.792 59.5908 
Q 241.56 59.5908 241.56 60.8382 
L 241.56 78.3018 
Q 241.56 79.5492 243.792 79.5492 
z
" clip-path="url(#p44d67ff4fc)" style="fill: #fdebd0; stroke: #555555; stroke-width: 1.5; stroke-linejoin: miter"/>
   </g>
   <g id="patch_6">
    <path d="M 121.032 175.599 
L 339.768 175.599 
Q 342 175.599 342 174.3516 
L 342 139.4244 
Q 342 138.177 339.768 138.177 
L 121.032 138.177 
Q 118.8 138.177 118.8 139.4244 
L 118.8 174.3516 
Q 118.8 175.599 121.032 175.599 
z
" clip-path="url(#p44d67ff4fc)" style="fill: #fef9e7; stroke: #555555; stroke-width: 2.5; stroke-linejoin: miter"/>
   </g>
   <g id="text_1">
    <!-- Training Pipeline -->
    <g style="fill: #1a1a1a" transform="translate(104.323359 71.908242) scale(0.09 -0.09)">
     <defs>
      <path id="DejaVuSans-37" d="M -19 4666 
L 3928 4666 
L 3928 4134 
L 2272 4134 
L 2272 0 
L 1638 0 
L 1638 4134 
L -19 4134 
L -19 4666 
z
" transform="scale(0.015625)"/>
      <path id="DejaVuSans-55" d="M 2631 2963 
Q 2534 3019 2420 3045 
Q 2306 3072 2169 3072 
Q 1681 3072 1420 2755 
Q 1159 2438 1159 1844 
L 1159 0 
L 581 0 
L 581 3500 
L 1159 3500 
L 1159 2956 
Q 1341 3275 1631 3429 
Q 1922 3584 2338 3584 
Q 2397 3584 2469 3576 
Q 2541 3569 2628 3553 
L 2631 2963 
z
" transform="scale(0.015625)"/>
      <path id="DejaVuSans-44" d="M 2194 1759 
Q 1497 1759 1228 1600 
Q 959 1441 959 1056 
Q 959 750 1161 570 
Q 1363 391 1709 391 
Q 2188 391 2477 730 
Q 2766 1069 2766 1631 
L 2766 1759 
L 2194 1759 
z
M 3341 1997 
L 3341 0 
L 2766 0 
L 2766 531 
Q 2569 213 2275 61 
Q 1981 -91 1556 -91 
Q 1019 -91 701 211 
Q 384 513 384 1019 
Q 384 1609 779 1909 
Q 1175 2209 1959 2209 
L 2766 2209 
L 2766 2266 
Q 2766 2663 2505 2880 
Q 2244 3097 1772 3097 
Q 1472 3097 1187 3025 
Q 903 2953 641 2809 
L 641 3341 
Q 956 3463 1253 3523 
Q 1550 3584 1831 3584 
Q 2591 3584 2966 3190 
Q 3341 2797 3341 1997 
z
" transform="scale(0.015625)"/>
      <path id="DejaVuSans-4c" d="M 603 3500 
L 1178 3500 
L 1178 0 
L 603 0 
L 603 3500 
z
M 603 4863 
L 1178 4863 
L 1178 4134 
L 603 4134 
L 603 4863 
z
" transform="scale(0.015625)"/>
      <path id="DejaVuSans-51" d="M 3513 2113 
L 3513 0 
L 2938 0 
L 2938 2094 
Q 2938 2591 2744 2837 
Q 2550 3084 2163 3084 
Q 1697 3084 1428 2787 
Q 1159 2491 1159 1978 
L 1159 0 
L 581 0 
L 581 3500 
L 1159 3500 
L 1159 2956 
Q 1366 3272 1645 3428 
Q 1925 3584 2291 3584 
Q 2894 3584 3203 3211 
Q 3513 2838 3513 2113 
z
" transform="scale(0.015625)"/>
      <path id="DejaVuSans-4a" d="M 2906 1791 
Q 2906 2416 2648 2759 
Q 2391 3103 1925 3103 
Q 1463 3103 1205 2759 
Q 947 2416 947 1791 
Q 947 1169 1205 825 
Q 1463 481 1925 481 
Q 2391 481 2648 825 
Q 2906 1169 2906 1791 
z
M 3481 434 
Q 3481 -459 3084 -895 
Q 2688 -1331 1869 -1331 
Q 1566 -1331 1297 -1286 
Q 1028 -1241 775 -1147 
L 775 -588 
Q 1028 -725 1275 -790 
Q 1522 -856 1778 -856 
Q 2344 -856 2625 -561 
Q 2906 -266 2906 331 
L 2906 616 
Q 2728 306 2450 153 
Q 2172 0 1784 0 
Q 1141 0 747 490 
Q 353 981 353 1791 
Q 353 2603 747 3093 
Q 1141 3584 1784 3584 
Q 2172 3584 2450 3431 
Q 2728 3278 2906 2969 
L 2906 3500 
L 3481 3500 
L 3481 434 
z
" transform="scale(0.015625)"/>
      <path id="DejaVuSans-3" transform="scale(0.015625)"/>
      <path id="DejaVuSans-33" d="M 1259 4147 
L 1259 2394 
L 2053 2394 
Q 2494 2394 2734 2622 
Q 2975 2850 2975 3272 
Q 2975 3691 2734 3919 
Q 2494 4147 2053 4147 
L 1259 4147 
z
M 628 4666 
L 2053 4666 
Q 2838 4666 3239 4311 
Q 3641 3956 3641 3272 
Q 3641 2581 3239 2228 
Q 2838 1875 2053 1875 
L 1259 1875 
L 1259 0 
L 628 0 
L 628 4666 
z
" transform="scale(0.015625)"/>
      <path id="DejaVuSans-53" d="M 1159 525 
L 1159 -1331 
L 581 -1331 
L 581 3500 
L 1159 3500 
L 1159 2969 
Q 1341 3281 1617 3432 
Q 1894 3584 2278 3584 
Q 2916 3584 3314 3078 
Q 3713 2572 3713 1747 
Q 3713 922 3314 415 
Q 2916 -91 2278 -91 
Q 1894 -91 1617 61 
Q 1341 213 1159 525 
z
M 3116 1747 
Q 3116 2381 2855 2742 
Q 2594 3103 2138 3103 
Q 1681 3103 1420 2742 
Q 1159 2381 1159 1747 
Q 1159 1113 1420 752 
Q 1681 391 2138 391 
Q 2594 391 2855 752 
Q 3116 1113 3116 1747 
z
" transform="scale(0.015625)"/>
      <path id="DejaVuSans-48" d="M 3597 1894 
L 3597 1613 
L 953 1613 
Q 991 1019 1311 708 
Q 1631 397 2203 397 
Q 2534 397 2845 478 
Q 3156 559 3463 722 
L 3463 178 
Q 3153 47 2828 -22 
Q 2503 -91 2169 -91 
Q 1331 -91 842 396 
Q 353 884 353 1716 
Q 353 2575 817 3079 
Q 1281 3584 2069 3584 
Q 2775 3584 3186 3129 
Q 3597 2675 3597 1894 
z
M 3022 2063 
Q 3016 2534 2758 2815 
Q 2500 3097 2075 3097 
Q 1594 3097 1305 2825 
Q 1016 2553 972 2059 
L 3022 2063 
z
" transform="scale(0.015625)"/>
      <path id="DejaVuSans-4f" d="M 603 4863 
L 1178 4863 
L 1178 0 
L 603 0 
L 603 4863 
z
" transform="scale(0.015625)"/>
     </defs>
     <use xlink:href="#DejaVuSans-37"/>
     <use xlink:href="#DejaVuSans-55" transform="translate(46.375 0)"/>
     <use xlink:href="#DejaVuSans-44" transform="translate(87.484375 0)"/>
     <use xlink:href="#DejaVuSans-4c" transform="translate(148.765625 0)"/>
     <use xlink:href="#DejaVuSans-51" transform="translate(176.546875 0)"/>
     <use xlink:href="#DejaVuSans-4c" transform="translate(239.921875 0)"/>
     <use xlink:href="#DejaVuSans-51" transform="translate(267.703125 0)"/>
     <use xlink:href="#DejaVuSans-4a" transform="translate(331.078125 0)"/>
     <use xlink:href="#DejaVuSans-3" transform="translate(394.5625 0)"/>
     <use xlink:href="#DejaVuSans-33" transform="translate(426.34375 0)"/>
     <use xlink:href="#DejaVuSans-4c" transform="translate(484.4375 0)"/>
     <use xlink:href="#DejaVuSans-53" transform="translate(512.21875 0)"/>
     <use xlink:href="#DejaVuSans-48" transform="translate(575.703125 0)"/>
     <use xlink:href="#DejaVuSans-4f" transform="translate(637.234375 0)"/>
     <use xlink:href="#DejaVuSans-4c" transform="translate(665.015625 0)"/>
     <use xlink:href="#DejaVuSans-51" transform="translate(692.796875 0)"/>
     <use xlink:href="#DejaVuSans-48" transform="translate(756.171875 0)"/>
    </g>
   </g>
   <g id="text_2">
    <!-- Serving Pipeline -->
    <g style="fill: #1a1a1a" transform="translate(283.540781 71.908242) scale(0.09 -0.09)">
     <defs>
      <path id="DejaVuSans-36" d="M 3425 4513 
L 3425 3897 
Q 3066 4069 2747 4153 
Q 2428 4238 2131 4238 
Q 1616 4238 1336 4038 
Q 1056 3838 1056 3469 
Q 1056 3159 1242 3001 
Q 1428 2844 1947 2747 
L 2328 2669 
Q 3034 2534 3370 2195 
Q 3706 1856 3706 1288 
Q 3706 609 3251 259 
Q 2797 -91 1919 -91 
Q 1588 -91 1214 -16 
Q 841 59 441 206 
L 441 856 
Q 825 641 1194 531 
Q 1563 422 1919 422 
Q 2459 422 2753 634 
Q 3047 847 3047 1241 
Q 3047 1584 2836 1778 
Q 2625 1972 2144 2069 
L 1759 2144 
Q 1053 2284 737 2584 
Q 422 2884 422 3419 
Q 422 4038 858 4394 
Q 1294 4750 2059 4750 
Q 2388 4750 2728 4690 
Q 3069 4631 3425 4513 
z
" transform="scale(0.015625)"/>
      <path id="DejaVuSans-59" d="M 191 3500 
L 800 3500 
L 1894 563 
L 2988 3500 
L 3597 3500 
L 2284 0 
L 1503 0 
L 191 3500 
z
" transform="scale(0.015625)"/>
     </defs>
     <use xlink:href="#DejaVuSans-36"/>
     <use xlink:href="#DejaVuSans-48" transform="translate(63.484375 0)"/>
     <use xlink:href="#DejaVuSans-55" transform="translate(125.015625 0)"/>
     <use xlink:href="#DejaVuSans-59" transform="translate(166.125 0)"/>
     <use xlink:href="#DejaVuSans-4c" transform="translate(225.3125 0)"/>
     <use xlink:href="#DejaVuSans-51" transform="translate(253.09375 0)"/>
     <use xlink:href="#DejaVuSans-4a" transform="translate(316.46875 0)"/>
     <use xlink:href="#DejaVuSans-3" transform="translate(379.953125 0)"/>
     <use xlink:href="#DejaVuSans-33" transform="translate(411.734375 0)"/>
     <use xlink:href="#DejaVuSans-4c" transform="translate(469.828125 0)"/>
     <use xlink:href="#DejaVuSans-53" transform="translate(497.609375 0)"/>
     <use xlink:href="#DejaVuSans-48" transform="translate(561.09375 0)"/>
     <use xlink:href="#DejaVuSans-4f" transform="translate(622.625 0)"/>
     <use xlink:href="#DejaVuSans-4c" transform="translate(650.40625 0)"/>
     <use xlink:href="#DejaVuSans-51" transform="translate(678.1875 0)"/>
     <use xlink:href="#DejaVuSans-48" transform="translate(741.5625 0)"/>
    </g>
   </g>
   <g id="text_3">
    <!-- FEATURE STORE -->
    <g style="fill: #1a1a1a" transform="translate(199.799414 136.331701) scale(0.075 -0.075)">
     <defs>
      <path id="DejaVuSans-29" d="M 628 4666 
L 3309 4666 
L 3309 4134 
L 1259 4134 
L 1259 2759 
L 3109 2759 
L 3109 2228 
L 1259 2228 
L 1259 0 
L 628 0 
L 628 4666 
z
" transform="scale(0.015625)"/>
      <path id="DejaVuSans-28" d="M 628 4666 
L 3578 4666 
L 3578 4134 
L 1259 4134 
L 1259 2753 
L 3481 2753 
L 3481 2222 
L 1259 2222 
L 1259 531 
L 3634 531 
L 3634 0 
L 628 0 
L 628 4666 
z
" transform="scale(0.015625)"/>
      <path id="DejaVuSans-24" d="M 2188 4044 
L 1331 1722 
L 3047 1722 
L 2188 4044 
z
M 1831 4666 
L 2547 4666 
L 4325 0 
L 3669 0 
L 3244 1197 
L 1141 1197 
L 716 0 
L 50 0 
L 1831 4666 
z
" transform="scale(0.015625)"/>
      <path id="DejaVuSans-38" d="M 556 4666 
L 1191 4666 
L 1191 1831 
Q 1191 1081 1462 751 
Q 1734 422 2344 422 
Q 2950 422 3222 751 
Q 3494 1081 3494 1831 
L 3494 4666 
L 4128 4666 
L 4128 1753 
Q 4128 841 3676 375 
Q 3225 -91 2344 -91 
Q 1459 -91 1007 375 
Q 556 841 556 1753 
L 556 4666 
z
" transform="scale(0.015625)"/>
      <path id="DejaVuSans-35" d="M 2841 2188 
Q 3044 2119 3236 1894 
Q 3428 1669 3622 1275 
L 4263 0 
L 3584 0 
L 2988 1197 
Q 2756 1666 2539 1819 
Q 2322 1972 1947 1972 
L 1259 1972 
L 1259 0 
L 628 0 
L 628 4666 
L 2053 4666 
Q 2853 4666 3247 4331 
Q 3641 3997 3641 3322 
Q 3641 2881 3436 2590 
Q 3231 2300 2841 2188 
z
M 1259 4147 
L 1259 2491 
L 2053 2491 
Q 2509 2491 2742 2702 
Q 2975 2913 2975 3322 
Q 2975 3731 2742 3939 
Q 2509 4147 2053 4147 
L 1259 4147 
z
" transform="scale(0.015625)"/>
      <path id="DejaVuSans-32" d="M 2522 4238 
Q 1834 4238 1429 3725 
Q 1025 3213 1025 2328 
Q 1025 1447 1429 934 
Q 1834 422 2522 422 
Q 3209 422 3611 934 
Q 4013 1447 4013 2328 
Q 4013 3213 3611 3725 
Q 3209 4238 2522 4238 
z
M 2522 4750 
Q 3503 4750 4090 4092 
Q 4678 3434 4678 2328 
Q 4678 1225 4090 567 
Q 3503 -91 2522 -91 
Q 1538 -91 948 565 
Q 359 1222 359 2328 
Q 359 3434 948 4092 
Q 1538 4750 2522 4750 
z
" transform="scale(0.015625)"/>
     </defs>
     <use xlink:href="#DejaVuSans-29"/>
     <use xlink:href="#DejaVuSans-28" transform="translate(57.515625 0)"/>
     <use xlink:href="#DejaVuSans-24" transform="translate(120.703125 0)"/>
     <use xlink:href="#DejaVuSans-37" transform="translate(181.34375 0)"/>
     <use xlink:href="#DejaVuSans-38" transform="translate(242.421875 0)"/>
     <use xlink:href="#DejaVuSans-35" transform="translate(315.609375 0)"/>
     <use xlink:href="#DejaVuSans-28" transform="translate(385.09375 0)"/>
     <use xlink:href="#DejaVuSans-3" transform="translate(448.28125 0)"/>
     <use xlink:href="#DejaVuSans-36" transform="translate(480.0625 0)"/>
     <use xlink:href="#DejaVuSans-37" transform="translate(543.546875 0)"/>
     <use xlink:href="#DejaVuSans-32" transform="translate(604.625 0)"/>
     <use xlink:href="#DejaVuSans-35" transform="translate(683.34375 0)"/>
     <use xlink:href="#DejaVuSans-28" transform="translate(752.828125 0)"/>
    </g>
    <!-- Feast / Tecton -->
    <g style="fill: #1a1a1a" transform="translate(204.608203 145.333166) scale(0.075 -0.075)">
     <defs>
      <path id="DejaVuSans-56" d="M 2834 3397 
L 2834 2853 
Q 2591 2978 2328 3040 
Q 2066 3103 1784 3103 
Q 1356 3103 1142 2972 
Q 928 2841 928 2578 
Q 928 2378 1081 2264 
Q 1234 2150 1697 2047 
L 1894 2003 
Q 2506 1872 2764 1633 
Q 3022 1394 3022 966 
Q 3022 478 2636 193 
Q 2250 -91 1575 -91 
Q 1294 -91 989 -36 
Q 684 19 347 128 
L 347 722 
Q 666 556 975 473 
Q 1284 391 1588 391 
Q 1994 391 2212 530 
Q 2431 669 2431 922 
Q 2431 1156 2273 1281 
Q 2116 1406 1581 1522 
L 1381 1569 
Q 847 1681 609 1914 
Q 372 2147 372 2553 
Q 372 3047 722 3315 
Q 1072 3584 1716 3584 
Q 2034 3584 2315 3537 
Q 2597 3491 2834 3397 
z
" transform="scale(0.015625)"/>
      <path id="DejaVuSans-57" d="M 1172 4494 
L 1172 3500 
L 2356 3500 
L 2356 3053 
L 1172 3053 
L 1172 1153 
Q 1172 725 1289 603 
Q 1406 481 1766 481 
L 2356 481 
L 2356 0 
L 1766 0 
Q 1100 0 847 248 
Q 594 497 594 1153 
L 594 3053 
L 172 3053 
L 172 3500 
L 594 3500 
L 594 4494 
L 1172 4494 
z
" transform="scale(0.015625)"/>
      <path id="DejaVuSans-12" d="M 1625 4666 
L 2156 4666 
L 531 -594 
L 0 -594 
L 1625 4666 
z
" transform="scale(0.015625)"/>
      <path id="DejaVuSans-46" d="M 3122 3366 
L 3122 2828 
Q 2878 2963 2633 3030 
Q 2388 3097 2138 3097 
Q 1578 3097 1268 2742 
Q 959 2388 959 1747 
Q 959 1106 1268 751 
Q 1578 397 2138 397 
Q 2388 397 2633 464 
Q 2878 531 3122 666 
L 3122 134 
Q 2881 22 2623 -34 
Q 2366 -91 2075 -91 
Q 1284 -91 818 406 
Q 353 903 353 1747 
Q 353 2603 823 3093 
Q 1294 3584 2113 3584 
Q 2378 3584 2631 3529 
Q 2884 3475 3122 3366 
z
" transform="scale(0.015625)"/>
      <path id="DejaVuSans-52" d="M 1959 3097 
Q 1497 3097 1228 2736 
Q 959 2375 959 1747 
Q 959 1119 1226 758 
Q 1494 397 1959 397 
Q 2419 397 2687 759 
Q 2956 1122 2956 1747 
Q 2956 2369 2687 2733 
Q 2419 3097 1959 3097 
z
M 1959 3584 
Q 2709 3584 3137 3096 
Q 3566 2609 3566 1747 
Q 3566 888 3137 398 
Q 2709 -91 1959 -91 
Q 1206 -91 779 398 
Q 353 888 353 1747 
Q 353 2609 779 3096 
Q 1206 3584 1959 3584 
z
" transform="scale(0.015625)"/>
     </defs>
     <use xlink:href="#DejaVuSans-29"/>
     <use xlink:href="#DejaVuSans-48" transform="translate(52.046875 0)"/>
     <use xlink:href="#DejaVuSans-44" transform="translate(113.578125 0)"/>
     <use xlink:href="#DejaVuSans-56" transform="translate(174.859375 0)"/>
     <use xlink:href="#DejaVuSans-57" transform="translate(226.953125 0)"/>
     <use xlink:href="#DejaVuSans-3" transform="translate(266.15625 0)"/>
     <use xlink:href="#DejaVuSans-12" transform="translate(297.9375 0)"/>
     <use xlink:href="#DejaVuSans-3" transform="translate(331.625 0)"/>
     <use xlink:href="#DejaVuSans-37" transform="translate(363.40625 0)"/>
     <use xlink:href="#DejaVuSans-48" transform="translate(407.5 0)"/>
     <use xlink:href="#DejaVuSans-46" transform="translate(469.03125 0)"/>
     <use xlink:href="#DejaVuSans-57" transform="translate(524.015625 0)"/>
     <use xlink:href="#DejaVuSans-52" transform="translate(563.21875 0)"/>
     <use xlink:href="#DejaVuSans-51" transform="translate(624.40625 0)"/>
    </g>
    <!--  -->
    <g style="fill: #1a1a1a" transform="translate(230.4 154.334631) scale(0.075 -0.075)"/>
    <!-- Offline: batch compute -->
    <g style="fill: #1a1a1a" transform="translate(187.318359 163.336682) scale(0.075 -0.075)">
     <defs>
      <path id="DejaVuSans-13b2" d="M 2375 4863 
L 2375 4384 
L 1825 4384 
Q 1516 4384 1394 4259 
Q 1275 4134 1275 3809 
L 1275 3500 
L 2853 3500 
L 2853 3744 
Q 2853 4328 3125 4595 
Q 3397 4863 3988 4863 
L 5588 4863 
L 5588 0 
L 5009 0 
L 5009 4384 
L 3981 4384 
Q 3672 4384 3551 4259 
Q 3431 4134 3431 3809 
L 3431 3500 
L 4378 3500 
L 4378 3053 
L 3431 3053 
L 3431 0 
L 2853 0 
L 2853 3053 
L 1275 3053 
L 1275 0 
L 697 0 
L 697 3053 
L 147 3053 
L 147 3500 
L 697 3500 
L 697 3744 
Q 697 4328 969 4595 
Q 1241 4863 1831 4863 
L 2375 4863 
z
" transform="scale(0.015625)"/>
      <path id="DejaVuSans-1d" d="M 750 794 
L 1409 794 
L 1409 0 
L 750 0 
L 750 794 
z
M 750 3309 
L 1409 3309 
L 1409 2516 
L 750 2516 
L 750 3309 
z
" transform="scale(0.015625)"/>
      <path id="DejaVuSans-45" d="M 3116 1747 
Q 3116 2381 2855 2742 
Q 2594 3103 2138 3103 
Q 1681 3103 1420 2742 
Q 1159 2381 1159 1747 
Q 1159 1113 1420 752 
Q 1681 391 2138 391 
Q 2594 391 2855 752 
Q 3116 1113 3116 1747 
z
M 1159 2969 
Q 1341 3281 1617 3432 
Q 1894 3584 2278 3584 
Q 2916 3584 3314 3078 
Q 3713 2572 3713 1747 
Q 3713 922 3314 415 
Q 2916 -91 2278 -91 
Q 1894 -91 1617 61 
Q 1341 213 1159 525 
L 1159 0 
L 581 0 
L 581 4863 
L 1159 4863 
L 1159 2969 
z
" transform="scale(0.015625)"/>
      <path id="DejaVuSans-4b" d="M 3513 2113 
L 3513 0 
L 2938 0 
L 2938 2094 
Q 2938 2591 2744 2837 
Q 2550 3084 2163 3084 
Q 1697 3084 1428 2787 
Q 1159 2491 1159 1978 
L 1159 0 
L 581 0 
L 581 4863 
L 1159 4863 
L 1159 2956 
Q 1366 3272 1645 3428 
Q 1925 3584 2291 3584 
Q 2894 3584 3203 3211 
Q 3513 2838 3513 2113 
z
" transform="scale(0.015625)"/>
      <path id="DejaVuSans-50" d="M 3328 2828 
Q 3544 3216 3844 3400 
Q 4144 3584 4550 3584 
Q 5097 3584 5394 3201 
Q 5691 2819 5691 2113 
L 5691 0 
L 5113 0 
L 5113 2094 
Q 5113 2597 4934 2840 
Q 4756 3084 4391 3084 
Q 3944 3084 3684 2787 
Q 3425 2491 3425 1978 
L 3425 0 
L 2847 0 
L 2847 2094 
Q 2847 2600 2669 2842 
Q 2491 3084 2119 3084 
Q 1678 3084 1418 2786 
Q 1159 2488 1159 1978 
L 1159 0 
L 581 0 
L 581 3500 
L 1159 3500 
L 1159 2956 
Q 1356 3278 1631 3431 
Q 1906 3584 2284 3584 
Q 2666 3584 2933 3390 
Q 3200 3197 3328 2828 
z
" transform="scale(0.015625)"/>
      <path id="DejaVuSans-58" d="M 544 1381 
L 544 3500 
L 1119 3500 
L 1119 1403 
Q 1119 906 1312 657 
Q 1506 409 1894 409 
Q 2359 409 2629 706 
Q 2900 1003 2900 1516 
L 2900 3500 
L 3475 3500 
L 3475 0 
L 2900 0 
L 2900 538 
Q 2691 219 2414 64 
Q 2138 -91 1772 -91 
Q 1169 -91 856 284 
Q 544 659 544 1381 
z
M 1991 3584 
L 1991 3584 
z
" transform="scale(0.015625)"/>
     </defs>
     <use xlink:href="#DejaVuSans-32"/>
     <use xlink:href="#DejaVuSans-13b2" transform="translate(78.71875 0)"/>
     <use xlink:href="#DejaVuSans-4c" transform="translate(175.40625 0)"/>
     <use xlink:href="#DejaVuSans-51" transform="translate(203.1875 0)"/>
     <use xlink:href="#DejaVuSans-48" transform="translate(266.5625 0)"/>
     <use xlink:href="#DejaVuSans-1d" transform="translate(328.09375 0)"/>
     <use xlink:href="#DejaVuSans-3" transform="translate(361.78125 0)"/>
     <use xlink:href="#DejaVuSans-45" transform="translate(393.5625 0)"/>
     <use xlink:href="#DejaVuSans-44" transform="translate(457.046875 0)"/>
     <use xlink:href="#DejaVuSans-57" transform="translate(518.328125 0)"/>
     <use xlink:href="#DejaVuSans-46" transform="translate(557.53125 0)"/>
     <use xlink:href="#DejaVuSans-4b" transform="translate(612.515625 0)"/>
     <use xlink:href="#DejaVuSans-3" transform="translate(675.890625 0)"/>
     <use xlink:href="#DejaVuSans-46" transform="translate(707.671875 0)"/>
     <use xlink:href="#DejaVuSans-52" transform="translate(762.65625 0)"/>
     <use xlink:href="#DejaVuSans-50" transform="translate(823.84375 0)"/>
     <use xlink:href="#DejaVuSans-53" transform="translate(921.25 0)"/>
     <use xlink:href="#DejaVuSans-58" transform="translate(984.734375 0)"/>
     <use xlink:href="#DejaVuSans-57" transform="translate(1048.109375 0)"/>
     <use xlink:href="#DejaVuSans-48" transform="translate(1087.3125 0)"/>
    </g>
    <!-- Online: low-latency KV -->
    <g style="fill: #1a1a1a" transform="translate(188.101172 172.338732) scale(0.075 -0.075)">
     <defs>
      <path id="DejaVuSans-5a" d="M 269 3500 
L 844 3500 
L 1563 769 
L 2278 3500 
L 2956 3500 
L 3675 769 
L 4391 3500 
L 4966 3500 
L 4050 0 
L 3372 0 
L 2619 2869 
L 1863 0 
L 1184 0 
L 269 3500 
z
" transform="scale(0.015625)"/>
      <path id="DejaVuSans-10" d="M 313 2009 
L 1997 2009 
L 1997 1497 
L 313 1497 
L 313 2009 
z
" transform="scale(0.015625)"/>
      <path id="DejaVuSans-5c" d="M 2059 -325 
Q 1816 -950 1584 -1140 
Q 1353 -1331 966 -1331 
L 506 -1331 
L 506 -850 
L 844 -850 
Q 1081 -850 1212 -737 
Q 1344 -625 1503 -206 
L 1606 56 
L 191 3500 
L 800 3500 
L 1894 763 
L 2988 3500 
L 3597 3500 
L 2059 -325 
z
" transform="scale(0.015625)"/>
      <path id="DejaVuSans-2e" d="M 628 4666 
L 1259 4666 
L 1259 2694 
L 3353 4666 
L 4166 4666 
L 1850 2491 
L 4331 0 
L 3500 0 
L 1259 2247 
L 1259 0 
L 628 0 
L 628 4666 
z
" transform="scale(0.015625)"/>
      <path id="DejaVuSans-39" d="M 1831 0 
L 50 4666 
L 709 4666 
L 2188 738 
L 3669 4666 
L 4325 4666 
L 2547 0 
L 1831 0 
z
" transform="scale(0.015625)"/>
     </defs>
     <use xlink:href="#DejaVuSans-32"/>
     <use xlink:href="#DejaVuSans-51" transform="translate(78.71875 0)"/>
     <use xlink:href="#DejaVuSans-4f" transform="translate(142.09375 0)"/>
     <use xlink:href="#DejaVuSans-4c" transform="translate(169.875 0)"/>
     <use xlink:href="#DejaVuSans-51" transform="translate(197.65625 0)"/>
     <use xlink:href="#DejaVuSans-48" transform="translate(261.03125 0)"/>
     <use xlink:href="#DejaVuSans-1d" transform="translate(322.5625 0)"/>
     <use xlink:href="#DejaVuSans-3" transform="translate(356.25 0)"/>
     <use xlink:href="#DejaVuSans-4f" transform="translate(388.03125 0)"/>
     <use xlink:href="#DejaVuSans-52" transform="translate(415.8125 0)"/>
     <use xlink:href="#DejaVuSans-5a" transform="translate(477 0)"/>
     <use xlink:href="#DejaVuSans-10" transform="translate(558.78125 0)"/>
     <use xlink:href="#DejaVuSans-4f" transform="translate(594.859375 0)"/>
     <use xlink:href="#DejaVuSans-44" transform="translate(622.640625 0)"/>
     <use xlink:href="#DejaVuSans-57" transform="translate(683.921875 0)"/>
     <use xlink:href="#DejaVuSans-48" transform="translate(723.125 0)"/>
     <use xlink:href="#DejaVuSans-51" transform="translate(784.65625 0)"/>
     <use xlink:href="#DejaVuSans-46" transform="translate(848.03125 0)"/>
     <use xlink:href="#DejaVuSans-5c" transform="translate(903.015625 0)"/>
     <use xlink:href="#DejaVuSans-3" transform="translate(962.203125 0)"/>
     <use xlink:href="#DejaVuSans-2e" transform="translate(993.984375 0)"/>
     <use xlink:href="#DejaVuSans-39" transform="translate(1059.5625 0)"/>
    </g>
    <!-- Point-in-time correctness -->
    <g style="fill: #1a1a1a" transform="translate(183.579492 181.340783) scale(0.075 -0.075)">
     <use xlink:href="#DejaVuSans-33"/>
     <use xlink:href="#DejaVuSans-52" transform="translate(56.734375 0)"/>
     <use xlink:href="#DejaVuSans-4c" transform="translate(117.921875 0)"/>
     <use xlink:href="#DejaVuSans-51" transform="translate(145.703125 0)"/>
     <use xlink:href="#DejaVuSans-57" transform="translate(209.078125 0)"/>
     <use xlink:href="#DejaVuSans-10" transform="translate(248.28125 0)"/>
     <use xlink:href="#DejaVuSans-4c" transform="translate(284.359375 0)"/>
     <use xlink:href="#DejaVuSans-51" transform="translate(312.140625 0)"/>
     <use xlink:href="#DejaVuSans-10" transform="translate(375.515625 0)"/>
     <use xlink:href="#DejaVuSans-57" transform="translate(411.59375 0)"/>
     <use xlink:href="#DejaVuSans-4c" transform="translate(450.796875 0)"/>
     <use xlink:href="#DejaVuSans-50" transform="translate(478.578125 0)"/>
     <use xlink:href="#DejaVuSans-48" transform="translate(575.984375 0)"/>
     <use xlink:href="#DejaVuSans-3" transform="translate(637.515625 0)"/>
     <use xlink:href="#DejaVuSans-46" transform="translate(669.296875 0)"/>
     <use xlink:href="#DejaVuSans-52" transform="translate(724.28125 0)"/>
     <use xlink:href="#DejaVuSans-55" transform="translate(785.46875 0)"/>
     <use xlink:href="#DejaVuSans-55" transform="translate(824.828125 0)"/>
     <use xlink:href="#DejaVuSans-48" transform="translate(863.734375 0)"/>
     <use xlink:href="#DejaVuSans-46" transform="translate(925.265625 0)"/>
     <use xlink:href="#DejaVuSans-57" transform="translate(980.25 0)"/>
     <use xlink:href="#DejaVuSans-51" transform="translate(1019.453125 0)"/>
     <use xlink:href="#DejaVuSans-48" transform="translate(1082.828125 0)"/>
     <use xlink:href="#DejaVuSans-56" transform="translate(1144.359375 0)"/>
     <use xlink:href="#DejaVuSans-56" transform="translate(1196.453125 0)"/>
    </g>
   </g>
   <g id="text_4">
    <!-- No training/serving skew! -->
    <g style="fill: #27ae60" transform="translate(179.095625 209.655812) scale(0.08 -0.08)">
     <defs>
      <path id="DejaVuSans-Oblique-31" d="M 1081 4666 
L 1931 4666 
L 3219 666 
L 4000 4666 
L 4616 4666 
L 3706 0 
L 2853 0 
L 1569 4025 
L 788 0 
L 172 0 
L 1081 4666 
z
" transform="scale(0.015625)"/>
      <path id="DejaVuSans-Oblique-52" d="M 1625 -91 
Q 1009 -91 651 289 
Q 294 669 294 1325 
Q 294 1706 417 2101 
Q 541 2497 738 2766 
Q 1047 3184 1428 3384 
Q 1809 3584 2291 3584 
Q 2888 3584 3255 3212 
Q 3622 2841 3622 2241 
Q 3622 1825 3500 1412 
Q 3378 1000 3181 728 
Q 2875 309 2494 109 
Q 2113 -91 1625 -91 
z
M 891 1344 
Q 891 869 1089 633 
Q 1288 397 1691 397 
Q 2269 397 2648 901 
Q 3028 1406 3028 2181 
Q 3028 2634 2825 2865 
Q 2622 3097 2228 3097 
Q 1903 3097 1650 2945 
Q 1397 2794 1197 2484 
Q 1050 2253 970 1956 
Q 891 1659 891 1344 
z
" transform="scale(0.015625)"/>
      <path id="DejaVuSans-Oblique-3" transform="scale(0.015625)"/>
      <path id="DejaVuSans-Oblique-57" d="M 2706 3500 
L 2619 3053 
L 1472 3053 
L 1100 1153 
Q 1081 1047 1072 975 
Q 1063 903 1063 863 
Q 1063 663 1183 572 
Q 1303 481 1569 481 
L 2150 481 
L 2053 0 
L 1503 0 
Q 991 0 739 200 
Q 488 400 488 806 
Q 488 878 497 964 
Q 506 1050 525 1153 
L 897 3053 
L 409 3053 
L 500 3500 
L 978 3500 
L 1172 4494 
L 1747 4494 
L 1556 3500 
L 2706 3500 
z
" transform="scale(0.015625)"/>
      <path id="DejaVuSans-Oblique-55" d="M 2853 2969 
Q 2766 3016 2653 3041 
Q 2541 3066 2413 3066 
Q 1953 3066 1609 2717 
Q 1266 2369 1153 1784 
L 800 0 
L 225 0 
L 909 3500 
L 1484 3500 
L 1375 2956 
Q 1603 3259 1920 3421 
Q 2238 3584 2597 3584 
Q 2691 3584 2781 3573 
Q 2872 3563 2963 3538 
L 2853 2969 
z
" transform="scale(0.015625)"/>
      <path id="DejaVuSans-Oblique-44" d="M 3438 1997 
L 3047 0 
L 2472 0 
L 2578 531 
Q 2325 219 2001 64 
Q 1678 -91 1281 -91 
Q 834 -91 548 182 
Q 263 456 263 884 
Q 263 1497 752 1853 
Q 1241 2209 2100 2209 
L 2900 2209 
L 2931 2363 
Q 2938 2388 2941 2417 
Q 2944 2447 2944 2509 
Q 2944 2788 2717 2942 
Q 2491 3097 2081 3097 
Q 1800 3097 1504 3025 
Q 1209 2953 897 2809 
L 997 3341 
Q 1322 3463 1633 3523 
Q 1944 3584 2234 3584 
Q 2853 3584 3176 3315 
Q 3500 3047 3500 2534 
Q 3500 2431 3484 2292 
Q 3469 2153 3438 1997 
z
M 2816 1759 
L 2241 1759 
Q 1534 1759 1195 1570 
Q 856 1381 856 984 
Q 856 709 1029 553 
Q 1203 397 1509 397 
Q 1978 397 2328 733 
Q 2678 1069 2791 1631 
L 2816 1759 
z
" transform="scale(0.015625)"/>
      <path id="DejaVuSans-Oblique-4c" d="M 1172 4863 
L 1747 4863 
L 1606 4134 
L 1031 4134 
L 1172 4863 
z
M 909 3500 
L 1484 3500 
L 800 0 
L 225 0 
L 909 3500 
z
" transform="scale(0.015625)"/>
      <path id="DejaVuSans-Oblique-51" d="M 3566 2113 
L 3156 0 
L 2578 0 
L 2988 2091 
Q 3016 2238 3031 2350 
Q 3047 2463 3047 2528 
Q 3047 2791 2881 2937 
Q 2716 3084 2419 3084 
Q 1956 3084 1622 2776 
Q 1288 2469 1184 1941 
L 800 0 
L 225 0 
L 903 3500 
L 1478 3500 
L 1363 2950 
Q 1603 3253 1940 3418 
Q 2278 3584 2650 3584 
Q 3113 3584 3367 3334 
Q 3622 3084 3622 2631 
Q 3622 2519 3608 2391 
Q 3594 2263 3566 2113 
z
" transform="scale(0.015625)"/>
      <path id="DejaVuSans-Oblique-4a" d="M 3816 3500 
L 3219 434 
Q 3047 -456 2561 -893 
Q 2075 -1331 1253 -1331 
Q 950 -1331 690 -1286 
Q 431 -1241 206 -1147 
L 313 -588 
Q 525 -725 762 -790 
Q 1000 -856 1269 -856 
Q 1816 -856 2167 -557 
Q 2519 -259 2631 300 
L 2681 563 
Q 2441 288 2122 144 
Q 1803 0 1434 0 
Q 903 0 598 351 
Q 294 703 294 1319 
Q 294 1803 478 2267 
Q 663 2731 997 3091 
Q 1219 3328 1514 3456 
Q 1809 3584 2131 3584 
Q 2484 3584 2746 3420 
Q 3009 3256 3138 2956 
L 3238 3500 
L 3816 3500 
z
M 2950 2216 
Q 2950 2641 2750 2872 
Q 2550 3103 2181 3103 
Q 1953 3103 1747 3012 
Q 1541 2922 1394 2759 
Q 1156 2491 1023 2127 
Q 891 1763 891 1375 
Q 891 944 1092 712 
Q 1294 481 1672 481 
Q 2219 481 2584 976 
Q 2950 1472 2950 2216 
z
" transform="scale(0.015625)"/>
      <path id="DejaVuSans-Oblique-12" d="M 2175 4666 
L 2731 4666 
L 84 -594 
L -469 -594 
L 2175 4666 
z
" transform="scale(0.015625)"/>
      <path id="DejaVuSans-Oblique-56" d="M 3200 3397 
L 3091 2853 
Q 2863 2978 2609 3040 
Q 2356 3103 2088 3103 
Q 1634 3103 1373 2948 
Q 1113 2794 1113 2528 
Q 1113 2219 1719 2053 
Q 1766 2041 1788 2034 
L 1972 1978 
Q 2547 1819 2739 1644 
Q 2931 1469 2931 1166 
Q 2931 609 2489 259 
Q 2047 -91 1331 -91 
Q 1053 -91 747 -37 
Q 441 16 72 128 
L 184 722 
Q 500 559 806 475 
Q 1113 391 1394 391 
Q 1816 391 2080 572 
Q 2344 753 2344 1031 
Q 2344 1331 1650 1516 
L 1591 1531 
L 1394 1581 
Q 956 1697 753 1886 
Q 550 2075 550 2369 
Q 550 2928 970 3256 
Q 1391 3584 2113 3584 
Q 2397 3584 2667 3537 
Q 2938 3491 3200 3397 
z
" transform="scale(0.015625)"/>
      <path id="DejaVuSans-Oblique-48" d="M 3078 2063 
Q 3088 2113 3092 2166 
Q 3097 2219 3097 2272 
Q 3097 2653 2873 2875 
Q 2650 3097 2266 3097 
Q 1838 3097 1509 2826 
Q 1181 2556 1013 2059 
L 3078 2063 
z
M 3578 1613 
L 903 1613 
Q 884 1494 878 1425 
Q 872 1356 872 1306 
Q 872 872 1139 634 
Q 1406 397 1894 397 
Q 2269 397 2603 481 
Q 2938 566 3225 728 
L 3116 159 
Q 2806 34 2476 -28 
Q 2147 -91 1806 -91 
Q 1078 -91 686 257 
Q 294 606 294 1247 
Q 294 1794 489 2264 
Q 684 2734 1063 3103 
Q 1306 3334 1642 3459 
Q 1978 3584 2356 3584 
Q 2950 3584 3301 3228 
Q 3653 2872 3653 2272 
Q 3653 2128 3634 1964 
Q 3616 1800 3578 1613 
z
" transform="scale(0.015625)"/>
      <path id="DejaVuSans-Oblique-59" d="M 459 3500 
L 1069 3500 
L 1581 525 
L 3256 3500 
L 3866 3500 
L 1875 0 
L 1100 0 
L 459 3500 
z
" transform="scale(0.015625)"/>
      <path id="DejaVuSans-Oblique-4e" d="M 1172 4863 
L 1747 4863 
L 1197 2028 
L 3169 3500 
L 3916 3500 
L 1716 1825 
L 3322 0 
L 2625 0 
L 1131 1709 
L 800 0 
L 225 0 
L 1172 4863 
z
" transform="scale(0.015625)"/>
      <path id="DejaVuSans-Oblique-5a" d="M 544 3500 
L 1113 3500 
L 1259 684 
L 2566 3500 
L 3231 3500 
L 3425 684 
L 4666 3500 
L 5241 3500 
L 3641 0 
L 2969 0 
L 2797 2900 
L 1459 0 
L 781 0 
L 544 3500 
z
" transform="scale(0.015625)"/>
      <path id="DejaVuSans-Oblique-4" d="M 1416 4666 
L 2047 4666 
L 1650 2619 
L 1369 1503 
L 863 1503 
L 1019 2619 
L 1416 4666 
z
M 666 794 
L 1300 794 
L 1147 0 
L 506 0 
L 666 794 
z
" transform="scale(0.015625)"/>
     </defs>
     <use xlink:href="#DejaVuSans-Oblique-31"/>
     <use xlink:href="#DejaVuSans-Oblique-52" transform="translate(74.8125 0)"/>
     <use xlink:href="#DejaVuSans-Oblique-3" transform="translate(136 0)"/>
     <use xlink:href="#DejaVuSans-Oblique-57" transform="translate(167.78125 0)"/>
     <use xlink:href="#DejaVuSans-Oblique-55" transform="translate(206.984375 0)"/>
     <use xlink:href="#DejaVuSans-Oblique-44" transform="translate(248.09375 0)"/>
     <use xlink:href="#DejaVuSans-Oblique-4c" transform="translate(309.375 0)"/>
     <use xlink:href="#DejaVuSans-Oblique-51" transform="translate(337.15625 0)"/>
     <use xlink:href="#DejaVuSans-Oblique-4c" transform="translate(400.53125 0)"/>
     <use xlink:href="#DejaVuSans-Oblique-51" transform="translate(428.3125 0)"/>
     <use xlink:href="#DejaVuSans-Oblique-4a" transform="translate(491.6875 0)"/>
     <use xlink:href="#DejaVuSans-Oblique-12" transform="translate(555.171875 0)"/>
     <use xlink:href="#DejaVuSans-Oblique-56" transform="translate(588.859375 0)"/>
     <use xlink:href="#DejaVuSans-Oblique-48" transform="translate(640.953125 0)"/>
     <use xlink:href="#DejaVuSans-Oblique-55" transform="translate(702.484375 0)"/>
     <use xlink:href="#DejaVuSans-Oblique-59" transform="translate(743.59375 0)"/>
     <use xlink:href="#DejaVuSans-Oblique-4c" transform="translate(802.78125 0)"/>
     <use xlink:href="#DejaVuSans-Oblique-51" transform="translate(830.5625 0)"/>
     <use xlink:href="#DejaVuSans-Oblique-4a" transform="translate(893.9375 0)"/>
     <use xlink:href="#DejaVuSans-Oblique-3" transform="translate(957.421875 0)"/>
     <use xlink:href="#DejaVuSans-Oblique-56" transform="translate(989.203125 0)"/>
     <use xlink:href="#DejaVuSans-Oblique-4e" transform="translate(1041.296875 0)"/>
     <use xlink:href="#DejaVuSans-Oblique-48" transform="translate(1099.203125 0)"/>
     <use xlink:href="#DejaVuSans-Oblique-5a" transform="translate(1160.734375 0)"/>
     <use xlink:href="#DejaVuSans-Oblique-4" transform="translate(1242.515625 0)"/>
    </g>
    <!-- Single source of truth for features -->
    <g style="fill: #27ae60" transform="translate(162.555625 219.258) scale(0.08 -0.08)">
     <defs>
      <path id="DejaVuSans-Oblique-36" d="M 3859 4513 
L 3738 3897 
Q 3422 4066 3111 4152 
Q 2800 4238 2509 4238 
Q 1944 4238 1609 3991 
Q 1275 3744 1275 3334 
Q 1275 3109 1398 2989 
Q 1522 2869 2034 2731 
L 2413 2638 
Q 3053 2472 3303 2217 
Q 3553 1963 3553 1503 
Q 3553 797 2998 353 
Q 2444 -91 1538 -91 
Q 1166 -91 791 -17 
Q 416 56 38 206 
L 166 856 
Q 513 641 861 531 
Q 1209 422 1556 422 
Q 2147 422 2503 684 
Q 2859 947 2859 1369 
Q 2859 1650 2717 1795 
Q 2575 1941 2106 2059 
L 1728 2156 
Q 1081 2325 845 2545 
Q 609 2766 609 3163 
Q 609 3859 1145 4304 
Q 1681 4750 2541 4750 
Q 2875 4750 3203 4690 
Q 3531 4631 3859 4513 
z
" transform="scale(0.015625)"/>
      <path id="DejaVuSans-Oblique-4f" d="M 1172 4863 
L 1747 4863 
L 800 0 
L 225 0 
L 1172 4863 
z
" transform="scale(0.015625)"/>
      <path id="DejaVuSans-Oblique-58" d="M 428 1388 
L 838 3500 
L 1416 3500 
L 1006 1409 
Q 975 1256 961 1147 
Q 947 1038 947 966 
Q 947 700 1109 554 
Q 1272 409 1569 409 
Q 2031 409 2368 721 
Q 2706 1034 2809 1563 
L 3194 3500 
L 3769 3500 
L 3091 0 
L 2516 0 
L 2631 550 
Q 2388 244 2052 76 
Q 1716 -91 1338 -91 
Q 878 -91 622 161 
Q 366 413 366 863 
Q 366 956 381 1097 
Q 397 1238 428 1388 
z
" transform="scale(0.015625)"/>
      <path id="DejaVuSans-Oblique-46" d="M 3431 3366 
L 3316 2797 
Q 3109 2947 2876 3022 
Q 2644 3097 2394 3097 
Q 2119 3097 1870 3000 
Q 1622 2903 1453 2725 
Q 1184 2453 1037 2087 
Q 891 1722 891 1331 
Q 891 859 1127 628 
Q 1363 397 1844 397 
Q 2081 397 2348 469 
Q 2616 541 2906 684 
L 2797 116 
Q 2547 13 2283 -39 
Q 2019 -91 1741 -91 
Q 1044 -91 669 257 
Q 294 606 294 1253 
Q 294 1797 489 2255 
Q 684 2713 1069 3078 
Q 1331 3328 1684 3456 
Q 2038 3584 2456 3584 
Q 2700 3584 2940 3529 
Q 3181 3475 3431 3366 
z
" transform="scale(0.015625)"/>
      <path id="DejaVuSans-Oblique-49" d="M 3059 4863 
L 2969 4384 
L 2419 4384 
Q 2106 4384 1964 4261 
Q 1822 4138 1753 3809 
L 1691 3500 
L 2638 3500 
L 2553 3053 
L 1606 3053 
L 1013 0 
L 434 0 
L 1031 3053 
L 481 3053 
L 563 3500 
L 1113 3500 
L 1159 3744 
Q 1278 4363 1576 4613 
Q 1875 4863 2516 4863 
L 3059 4863 
z
" transform="scale(0.015625)"/>
      <path id="DejaVuSans-Oblique-4b" d="M 3566 2113 
L 3156 0 
L 2578 0 
L 2988 2091 
Q 3016 2238 3031 2350 
Q 3047 2463 3047 2528 
Q 3047 2791 2881 2937 
Q 2716 3084 2419 3084 
Q 1956 3084 1617 2771 
Q 1278 2459 1178 1941 
L 800 0 
L 225 0 
L 1172 4863 
L 1747 4863 
L 1375 2950 
Q 1594 3244 1934 3414 
Q 2275 3584 2650 3584 
Q 3113 3584 3367 3334 
Q 3622 3084 3622 2631 
Q 3622 2519 3608 2391 
Q 3594 2263 3566 2113 
z
" transform="scale(0.015625)"/>
     </defs>
     <use xlink:href="#DejaVuSans-Oblique-36"/>
     <use xlink:href="#DejaVuSans-Oblique-4c" transform="translate(63.484375 0)"/>
     <use xlink:href="#DejaVuSans-Oblique-51" transform="translate(91.265625 0)"/>
     <use xlink:href="#DejaVuSans-Oblique-4a" transform="translate(154.640625 0)"/>
     <use xlink:href="#DejaVuSans-Oblique-4f" transform="translate(218.125 0)"/>
     <use xlink:href="#DejaVuSans-Oblique-48" transform="translate(245.90625 0)"/>
     <use xlink:href="#DejaVuSans-Oblique-3" transform="translate(307.4375 0)"/>
     <use xlink:href="#DejaVuSans-Oblique-56" transform="translate(339.21875 0)"/>
     <use xlink:href="#DejaVuSans-Oblique-52" transform="translate(391.3125 0)"/>
     <use xlink:href="#DejaVuSans-Oblique-58" transform="translate(452.5 0)"/>
     <use xlink:href="#DejaVuSans-Oblique-55" transform="translate(515.875 0)"/>
     <use xlink:href="#DejaVuSans-Oblique-46" transform="translate(556.984375 0)"/>
     <use xlink:href="#DejaVuSans-Oblique-48" transform="translate(611.96875 0)"/>
     <use xlink:href="#DejaVuSans-Oblique-3" transform="translate(673.5 0)"/>
     <use xlink:href="#DejaVuSans-Oblique-52" transform="translate(705.28125 0)"/>
     <use xlink:href="#DejaVuSans-Oblique-49" transform="translate(766.46875 0)"/>
     <use xlink:href="#DejaVuSans-Oblique-3" transform="translate(801.671875 0)"/>
     <use xlink:href="#DejaVuSans-Oblique-57" transform="translate(833.453125 0)"/>
     <use xlink:href="#DejaVuSans-Oblique-55" transform="translate(872.65625 0)"/>
     <use xlink:href="#DejaVuSans-Oblique-58" transform="translate(913.765625 0)"/>
     <use xlink:href="#DejaVuSans-Oblique-57" transform="translate(977.140625 0)"/>
     <use xlink:href="#DejaVuSans-Oblique-4b" transform="translate(1016.34375 0)"/>
     <use xlink:href="#DejaVuSans-Oblique-3" transform="translate(1079.71875 0)"/>
     <use xlink:href="#DejaVuSans-Oblique-49" transform="translate(1111.5 0)"/>
     <use xlink:href="#DejaVuSans-Oblique-52" transform="translate(1146.703125 0)"/>
     <use xlink:href="#DejaVuSans-Oblique-55" transform="translate(1207.890625 0)"/>
     <use xlink:href="#DejaVuSans-Oblique-3" transform="translate(1249 0)"/>
     <use xlink:href="#DejaVuSans-Oblique-49" transform="translate(1280.78125 0)"/>
     <use xlink:href="#DejaVuSans-Oblique-48" transform="translate(1315.984375 0)"/>
     <use xlink:href="#DejaVuSans-Oblique-44" transform="translate(1377.515625 0)"/>
     <use xlink:href="#DejaVuSans-Oblique-57" transform="translate(1438.796875 0)"/>
     <use xlink:href="#DejaVuSans-Oblique-58" transform="translate(1478 0)"/>
     <use xlink:href="#DejaVuSans-Oblique-55" transform="translate(1541.375 0)"/>
     <use xlink:href="#DejaVuSans-Oblique-48" transform="translate(1582.484375 0)"/>
     <use xlink:href="#DejaVuSans-Oblique-56" transform="translate(1644.015625 0)"/>
    </g>
   </g>
  </g>
 </g>
 <defs>
  <clipPath id="p44d67ff4fc">
   <rect x="7.2" y="7.2" width="446.4" height="249.48"/>
  </clipPath>
 </defs>
</svg>
