<?xml version="1.0" encoding="utf-8" standalone="no"?>
<!DOCTYPE svg PUBLIC "-//W3C//DTD SVG 1.1//EN"
  "http://www.w3.org/Graphics/SVG/1.1/DTD/svg11.dtd">
<svg xmlns:xlink="http://www.w3.org/1999/xlink" width="460.8pt" height="263.88pt" viewBox="0 0 460.8 263.88" xmlns="http://www.w3.org/2000/svg" version="1.1">
 <metadata>
  <rdf:RDF xmlns:dc="http://purl.org/dc/elements/1.1/" xmlns:cc="http://creativecommons.org/ns#" xmlns:rdf="http://www.w3.org/1999/02/22-rdf-syntax-ns#">
   <cc:Work>
    <dc:type rdf:resource="http://purl.org/dc/dcmitype/StillImage"/>
    <dc:date>2026-07-06T17:32:29.559896</dc:date>
    <dc:format>image/svg+xml</dc:format>
    <dc:creator>
     <cc:Agent>
      <dc:title>Matplotlib v3.11.0, https://matplotlib.org/</dc:title>
     </cc:Agent>
    </dc:creator>
   </cc:Work>
  </rdf:RDF>
 </metadata>
 <defs>
  <style type="text/css">*{stroke-linejoin: round; stroke-linecap: butt}</style>
 </defs>
 <g id="figure_1">
  <g id="patch_1">
   <path d="M 0 263.88 
L 460.8 263.88 
L 460.8 0 
L 0 0 
L 0 263.88 
z
" style="fill: none"/>
  </g>
  <g id="axes_1">
   <g id="patch_2">
    <path d="M 96.48 106.999918 
Q 96.48 114.474043 96.48 119.712099 
" style="fill: none; stroke: #888888; stroke-width: 2; stroke-linecap: round"/>
    <path d="M 98.48 115.712099 
L 96.48 119.712099 
L 94.48 115.712099 
" style="fill: none; stroke: #888888; stroke-width: 2; stroke-linecap: round"/>
   </g>
   <g id="patch_3">
    <path d="M 230.4 106.999918 
Q 230.4 114.474043 230.4 119.712099 
" style="fill: none; stroke: #888888; stroke-width: 2; stroke-linecap: round"/>
    <path d="M 232.4 115.712099 
L 230.4 119.712099 
L 228.4 115.712099 
" style="fill: none; stroke: #888888; stroke-width: 2; stroke-linecap: round"/>
   </g>
   <g id="patch_4">
    <path d="M 364.32 106.999918 
Q 364.32 114.474043 364.32 119.712099 
" style="fill: none; stroke: #888888; stroke-width: 2; stroke-linecap: round"/>
    <path d="M 366.32 115.712099 
L 364.32 119.712099 
L 362.32 115.712099 
" style="fill: none; stroke: #888888; stroke-width: 2; stroke-linecap: round"/>
   </g>
   <g id="patch_5">
    <path d="M 230.4 191.823118 
Q 230.4 199.297243 230.4 204.535299 
" style="fill: none; stroke: #888888; stroke-width: 2; stroke-linecap: round"/>
    <path d="M 232.4 200.535299 
L 230.4 204.535299 
L 228.4 200.535299 
" style="fill: none; stroke: #888888; stroke-width: 2; stroke-linecap: round"/>
   </g>
   <g id="patch_6">
    <path d="M 49.608 98.2602 
L 143.352 98.2602 
Q 145.584 98.2602 145.584 97.0128 
L 145.584 67.0752 
Q 145.584 65.8278 143.352 65.8278 
L 49.608 65.8278 
Q 47.376 65.8278 47.376 67.0752 
L 47.376 97.0128 
Q 47.376 98.2602 49.608 98.2602 
z
" clip-path="url(#p6b59728d27)" style="fill: #e8f4f8; stroke: #555555; stroke-width: 1.5; stroke-linejoin: miter"/>
   </g>
   <g id="patch_7">
    <path d="M 183.528 98.2602 
L 277.272 98.2602 
Q 279.504 98.2602 279.504 97.0128 
L 279.504 67.0752 
Q 279.504 65.8278 277.272 65.8278 
L 183.528 65.8278 
Q 181.296 65.8278 181.296 67.0752 
L 181.296 97.0128 
Q 181.296 98.2602 183.528 98.2602 
z
" clip-path="url(#p6b59728d27)" style="fill: #d5f5e3; stroke: #555555; stroke-width: 1.5; stroke-linejoin: miter"/>
   </g>
   <g id="patch_8">
    <path d="M 317.448 98.2602 
L 411.192 98.2602 
Q 413.424 98.2602 413.424 97.0128 
L 413.424 67.0752 
Q 413.424 65.8278 411.192 65.8278 
L 317.448 65.8278 
Q 315.216 65.8278 315.216 67.0752 
L 315.216 97.0128 
Q 315.216 98.2602 317.448 98.2602 
z
" clip-path="url(#p6b59728d27)" style="fill: #fef9e7; stroke: #555555; stroke-width: 1.5; stroke-linejoin: miter"/>
   </g>
   <g id="patch_9">
    <path d="M 109.872 184.3308 
L 350.928 184.3308 
Q 353.16 184.3308 353.16 183.0834 
L 353.16 155.6406 
Q 353.16 154.3932 350.928 154.3932 
L 109.872 154.3932 
Q 107.64 154.3932 107.64 155.6406 
L 107.64 183.0834 
Q 107.64 184.3308 109.872 184.3308 
z
" clip-path="url(#p6b59728d27)" style="fill: #fdebd0; stroke: #555555; stroke-width: 1.5; stroke-linejoin: miter"/>
   </g>
   <g id="patch_10">
    <path d="M 154.512 256.68 
L 306.288 256.68 
Q 308.52 256.68 308.52 255.4326 
L 308.52 232.9794 
Q 308.52 231.732 306.288 231.732 
L 154.512 231.732 
Q 152.28 231.732 152.28 232.9794 
L 152.28 255.4326 
Q 152.28 256.68 154.512 256.68 
z
" clip-path="url(#p6b59728d27)" style="fill: #fadbd8; stroke: #555555; stroke-width: 1.5; stroke-linejoin: miter"/>
   </g>
   <g id="text_1">
    <!-- Model -->
    <g style="fill: #1a1a1a" transform="translate(85.220039 74.990777) scale(0.075 -0.075)">
     <defs>
      <path id="DejaVuSans-30" d="M 628 4666 
L 1569 4666 
L 2759 1491 
L 3956 4666 
L 4897 4666 
L 4897 0 
L 4281 0 
L 4281 4097 
L 3078 897 
L 2444 897 
L 1241 4097 
L 1241 0 
L 628 0 
L 628 4666 
z
" transform="scale(0.015625)"/>
      <path id="DejaVuSans-52" d="M 1959 3097 
Q 1497 3097 1228 2736 
Q 959 2375 959 1747 
Q 959 1119 1226 758 
Q 1494 397 1959 397 
Q 2419 397 2687 759 
Q 2956 1122 2956 1747 
Q 2956 2369 2687 2733 
Q 2419 3097 1959 3097 
z
M 1959 3584 
Q 2709 3584 3137 3096 
Q 3566 2609 3566 1747 
Q 3566 888 3137 398 
Q 2709 -91 1959 -91 
Q 1206 -91 779 398 
Q 353 888 353 1747 
Q 353 2609 779 3096 
Q 1206 3584 1959 3584 
z
" transform="scale(0.015625)"/>
      <path id="DejaVuSans-47" d="M 2906 2969 
L 2906 4863 
L 3481 4863 
L 3481 0 
L 2906 0 
L 2906 525 
Q 2725 213 2448 61 
Q 2172 -91 1784 -91 
Q 1150 -91 751 415 
Q 353 922 353 1747 
Q 353 2572 751 3078 
Q 1150 3584 1784 3584 
Q 2172 3584 2448 3432 
Q 2725 3281 2906 2969 
z
M 947 1747 
Q 947 1113 1208 752 
Q 1469 391 1925 391 
Q 2381 391 2643 752 
Q 2906 1113 2906 1747 
Q 2906 2381 2643 2742 
Q 2381 3103 1925 3103 
Q 1469 3103 1208 2742 
Q 947 2381 947 1747 
z
" transform="scale(0.015625)"/>
      <path id="DejaVuSans-48" d="M 3597 1894 
L 3597 1613 
L 953 1613 
Q 991 1019 1311 708 
Q 1631 397 2203 397 
Q 2534 397 2845 478 
Q 3156 559 3463 722 
L 3463 178 
Q 3153 47 2828 -22 
Q 2503 -91 2169 -91 
Q 1331 -91 842 396 
Q 353 884 353 1716 
Q 353 2575 817 3079 
Q 1281 3584 2069 3584 
Q 2775 3584 3186 3129 
Q 3597 2675 3597 1894 
z
M 3022 2063 
Q 3016 2534 2758 2815 
Q 2500 3097 2075 3097 
Q 1594 3097 1305 2825 
Q 1016 2553 972 2059 
L 3022 2063 
z
" transform="scale(0.015625)"/>
      <path id="DejaVuSans-4f" d="M 603 4863 
L 1178 4863 
L 1178 0 
L 603 0 
L 603 4863 
z
" transform="scale(0.015625)"/>
     </defs>
     <use xlink:href="#DejaVuSans-30"/>
     <use xlink:href="#DejaVuSans-52" transform="translate(86.28125 0)"/>
     <use xlink:href="#DejaVuSans-47" transform="translate(147.46875 0)"/>
     <use xlink:href="#DejaVuSans-48" transform="translate(210.953125 0)"/>
     <use xlink:href="#DejaVuSans-4f" transform="translate(272.484375 0)"/>
    </g>
    <!-- Performance -->
    <g style="fill: #1a1a1a" transform="translate(72.716133 83.992828) scale(0.075 -0.075)">
     <defs>
      <path id="DejaVuSans-33" d="M 1259 4147 
L 1259 2394 
L 2053 2394 
Q 2494 2394 2734 2622 
Q 2975 2850 2975 3272 
Q 2975 3691 2734 3919 
Q 2494 4147 2053 4147 
L 1259 4147 
z
M 628 4666 
L 2053 4666 
Q 2838 4666 3239 4311 
Q 3641 3956 3641 3272 
Q 3641 2581 3239 2228 
Q 2838 1875 2053 1875 
L 1259 1875 
L 1259 0 
L 628 0 
L 628 4666 
z
" transform="scale(0.015625)"/>
      <path id="DejaVuSans-55" d="M 2631 2963 
Q 2534 3019 2420 3045 
Q 2306 3072 2169 3072 
Q 1681 3072 1420 2755 
Q 1159 2438 1159 1844 
L 1159 0 
L 581 0 
L 581 3500 
L 1159 3500 
L 1159 2956 
Q 1341 3275 1631 3429 
Q 1922 3584 2338 3584 
Q 2397 3584 2469 3576 
Q 2541 3569 2628 3553 
L 2631 2963 
z
" transform="scale(0.015625)"/>
      <path id="DejaVuSans-49" d="M 2375 4863 
L 2375 4384 
L 1825 4384 
Q 1516 4384 1395 4259 
Q 1275 4134 1275 3809 
L 1275 3500 
L 2222 3500 
L 2222 3053 
L 1275 3053 
L 1275 0 
L 697 0 
L 697 3053 
L 147 3053 
L 147 3500 
L 697 3500 
L 697 3744 
Q 697 4328 969 4595 
Q 1241 4863 1831 4863 
L 2375 4863 
z
" transform="scale(0.015625)"/>
      <path id="DejaVuSans-50" d="M 3328 2828 
Q 3544 3216 3844 3400 
Q 4144 3584 4550 3584 
Q 5097 3584 5394 3201 
Q 5691 2819 5691 2113 
L 5691 0 
L 5113 0 
L 5113 2094 
Q 5113 2597 4934 2840 
Q 4756 3084 4391 3084 
Q 3944 3084 3684 2787 
Q 3425 2491 3425 1978 
L 3425 0 
L 2847 0 
L 2847 2094 
Q 2847 2600 2669 2842 
Q 2491 3084 2119 3084 
Q 1678 3084 1418 2786 
Q 1159 2488 1159 1978 
L 1159 0 
L 581 0 
L 581 3500 
L 1159 3500 
L 1159 2956 
Q 1356 3278 1631 3431 
Q 1906 3584 2284 3584 
Q 2666 3584 2933 3390 
Q 3200 3197 3328 2828 
z
" transform="scale(0.015625)"/>
      <path id="DejaVuSans-44" d="M 2194 1759 
Q 1497 1759 1228 1600 
Q 959 1441 959 1056 
Q 959 750 1161 570 
Q 1363 391 1709 391 
Q 2188 391 2477 730 
Q 2766 1069 2766 1631 
L 2766 1759 
L 2194 1759 
z
M 3341 1997 
L 3341 0 
L 2766 0 
L 2766 531 
Q 2569 213 2275 61 
Q 1981 -91 1556 -91 
Q 1019 -91 701 211 
Q 384 513 384 1019 
Q 384 1609 779 1909 
Q 1175 2209 1959 2209 
L 2766 2209 
L 2766 2266 
Q 2766 2663 2505 2880 
Q 2244 3097 1772 3097 
Q 1472 3097 1187 3025 
Q 903 2953 641 2809 
L 641 3341 
Q 956 3463 1253 3523 
Q 1550 3584 1831 3584 
Q 2591 3584 2966 3190 
Q 3341 2797 3341 1997 
z
" transform="scale(0.015625)"/>
      <path id="DejaVuSans-51" d="M 3513 2113 
L 3513 0 
L 2938 0 
L 2938 2094 
Q 2938 2591 2744 2837 
Q 2550 3084 2163 3084 
Q 1697 3084 1428 2787 
Q 1159 2491 1159 1978 
L 1159 0 
L 581 0 
L 581 3500 
L 1159 3500 
L 1159 2956 
Q 1366 3272 1645 3428 
Q 1925 3584 2291 3584 
Q 2894 3584 3203 3211 
Q 3513 2838 3513 2113 
z
" transform="scale(0.015625)"/>
      <path id="DejaVuSans-46" d="M 3122 3366 
L 3122 2828 
Q 2878 2963 2633 3030 
Q 2388 3097 2138 3097 
Q 1578 3097 1268 2742 
Q 959 2388 959 1747 
Q 959 1106 1268 751 
Q 1578 397 2138 397 
Q 2388 397 2633 464 
Q 2878 531 3122 666 
L 3122 134 
Q 2881 22 2623 -34 
Q 2366 -91 2075 -91 
Q 1284 -91 818 406 
Q 353 903 353 1747 
Q 353 2603 823 3093 
Q 1294 3584 2113 3584 
Q 2378 3584 2631 3529 
Q 2884 3475 3122 3366 
z
" transform="scale(0.015625)"/>
     </defs>
     <use xlink:href="#DejaVuSans-33"/>
     <use xlink:href="#DejaVuSans-48" transform="translate(56.734375 0)"/>
     <use xlink:href="#DejaVuSans-55" transform="translate(118.265625 0)"/>
     <use xlink:href="#DejaVuSans-49" transform="translate(159.375 0)"/>
     <use xlink:href="#DejaVuSans-52" transform="translate(194.578125 0)"/>
     <use xlink:href="#DejaVuSans-55" transform="translate(255.765625 0)"/>
     <use xlink:href="#DejaVuSans-50" transform="translate(295.125 0)"/>
     <use xlink:href="#DejaVuSans-44" transform="translate(392.53125 0)"/>
     <use xlink:href="#DejaVuSans-51" transform="translate(453.8125 0)"/>
     <use xlink:href="#DejaVuSans-46" transform="translate(517.1875 0)"/>
     <use xlink:href="#DejaVuSans-48" transform="translate(572.171875 0)"/>
    </g>
    <!-- Accuracy, AUC -->
    <g style="fill: #1a1a1a" transform="translate(69.046992 92.994293) scale(0.075 -0.075)">
     <defs>
      <path id="DejaVuSans-24" d="M 2188 4044 
L 1331 1722 
L 3047 1722 
L 2188 4044 
z
M 1831 4666 
L 2547 4666 
L 4325 0 
L 3669 0 
L 3244 1197 
L 1141 1197 
L 716 0 
L 50 0 
L 1831 4666 
z
" transform="scale(0.015625)"/>
      <path id="DejaVuSans-58" d="M 544 1381 
L 544 3500 
L 1119 3500 
L 1119 1403 
Q 1119 906 1312 657 
Q 1506 409 1894 409 
Q 2359 409 2629 706 
Q 2900 1003 2900 1516 
L 2900 3500 
L 3475 3500 
L 3475 0 
L 2900 0 
L 2900 538 
Q 2691 219 2414 64 
Q 2138 -91 1772 -91 
Q 1169 -91 856 284 
Q 544 659 544 1381 
z
M 1991 3584 
L 1991 3584 
z
" transform="scale(0.015625)"/>
      <path id="DejaVuSans-5c" d="M 2059 -325 
Q 1816 -950 1584 -1140 
Q 1353 -1331 966 -1331 
L 506 -1331 
L 506 -850 
L 844 -850 
Q 1081 -850 1212 -737 
Q 1344 -625 1503 -206 
L 1606 56 
L 191 3500 
L 800 3500 
L 1894 763 
L 2988 3500 
L 3597 3500 
L 2059 -325 
z
" transform="scale(0.015625)"/>
      <path id="DejaVuSans-f" d="M 750 794 
L 1409 794 
L 1409 256 
L 897 -744 
L 494 -744 
L 750 256 
L 750 794 
z
" transform="scale(0.015625)"/>
      <path id="DejaVuSans-3" transform="scale(0.015625)"/>
      <path id="DejaVuSans-38" d="M 556 4666 
L 1191 4666 
L 1191 1831 
Q 1191 1081 1462 751 
Q 1734 422 2344 422 
Q 2950 422 3222 751 
Q 3494 1081 3494 1831 
L 3494 4666 
L 4128 4666 
L 4128 1753 
Q 4128 841 3676 375 
Q 3225 -91 2344 -91 
Q 1459 -91 1007 375 
Q 556 841 556 1753 
L 556 4666 
z
" transform="scale(0.015625)"/>
      <path id="DejaVuSans-26" d="M 4122 4306 
L 4122 3641 
Q 3803 3938 3442 4084 
Q 3081 4231 2675 4231 
Q 1875 4231 1450 3742 
Q 1025 3253 1025 2328 
Q 1025 1406 1450 917 
Q 1875 428 2675 428 
Q 3081 428 3442 575 
Q 3803 722 4122 1019 
L 4122 359 
Q 3791 134 3420 21 
Q 3050 -91 2638 -91 
Q 1578 -91 968 557 
Q 359 1206 359 2328 
Q 359 3453 968 4101 
Q 1578 4750 2638 4750 
Q 3056 4750 3426 4639 
Q 3797 4528 4122 4306 
z
" transform="scale(0.015625)"/>
     </defs>
     <use xlink:href="#DejaVuSans-24"/>
     <use xlink:href="#DejaVuSans-46" transform="translate(66.65625 0)"/>
     <use xlink:href="#DejaVuSans-46" transform="translate(121.640625 0)"/>
     <use xlink:href="#DejaVuSans-58" transform="translate(176.625 0)"/>
     <use xlink:href="#DejaVuSans-55" transform="translate(240 0)"/>
     <use xlink:href="#DejaVuSans-44" transform="translate(281.109375 0)"/>
     <use xlink:href="#DejaVuSans-46" transform="translate(342.390625 0)"/>
     <use xlink:href="#DejaVuSans-5c" transform="translate(397.375 0)"/>
     <use xlink:href="#DejaVuSans-f" transform="translate(456.5625 0)"/>
     <use xlink:href="#DejaVuSans-3" transform="translate(488.34375 0)"/>
     <use xlink:href="#DejaVuSans-24" transform="translate(520.125 0)"/>
     <use xlink:href="#DejaVuSans-38" transform="translate(588.53125 0)"/>
     <use xlink:href="#DejaVuSans-26" transform="translate(661.71875 0)"/>
    </g>
   </g>
   <g id="text_2">
    <!-- Data Quality -->
    <g style="fill: #1a1a1a" transform="translate(206.854687 74.990484) scale(0.075 -0.075)">
     <defs>
      <path id="DejaVuSans-27" d="M 1259 4147 
L 1259 519 
L 2022 519 
Q 2988 519 3436 956 
Q 3884 1394 3884 2338 
Q 3884 3275 3436 3711 
Q 2988 4147 2022 4147 
L 1259 4147 
z
M 628 4666 
L 1925 4666 
Q 3281 4666 3915 4102 
Q 4550 3538 4550 2338 
Q 4550 1131 3912 565 
Q 3275 0 1925 0 
L 628 0 
L 628 4666 
z
" transform="scale(0.015625)"/>
      <path id="DejaVuSans-57" d="M 1172 4494 
L 1172 3500 
L 2356 3500 
L 2356 3053 
L 1172 3053 
L 1172 1153 
Q 1172 725 1289 603 
Q 1406 481 1766 481 
L 2356 481 
L 2356 0 
L 1766 0 
Q 1100 0 847 248 
Q 594 497 594 1153 
L 594 3053 
L 172 3053 
L 172 3500 
L 594 3500 
L 594 4494 
L 1172 4494 
z
" transform="scale(0.015625)"/>
      <path id="DejaVuSans-34" d="M 2522 4238 
Q 1834 4238 1429 3725 
Q 1025 3213 1025 2328 
Q 1025 1447 1429 934 
Q 1834 422 2522 422 
Q 3209 422 3611 934 
Q 4013 1447 4013 2328 
Q 4013 3213 3611 3725 
Q 3209 4238 2522 4238 
z
M 3406 84 
L 4238 -825 
L 3475 -825 
L 2784 -78 
Q 2681 -84 2626 -87 
Q 2572 -91 2522 -91 
Q 1538 -91 948 567 
Q 359 1225 359 2328 
Q 359 3434 948 4092 
Q 1538 4750 2522 4750 
Q 3503 4750 4090 4092 
Q 4678 3434 4678 2328 
Q 4678 1516 4351 937 
Q 4025 359 3406 84 
z
" transform="scale(0.015625)"/>
      <path id="DejaVuSans-4c" d="M 603 3500 
L 1178 3500 
L 1178 0 
L 603 0 
L 603 3500 
z
M 603 4863 
L 1178 4863 
L 1178 4134 
L 603 4134 
L 603 4863 
z
" transform="scale(0.015625)"/>
     </defs>
     <use xlink:href="#DejaVuSans-27"/>
     <use xlink:href="#DejaVuSans-44" transform="translate(77 0)"/>
     <use xlink:href="#DejaVuSans-57" transform="translate(138.28125 0)"/>
     <use xlink:href="#DejaVuSans-44" transform="translate(177.484375 0)"/>
     <use xlink:href="#DejaVuSans-3" transform="translate(238.765625 0)"/>
     <use xlink:href="#DejaVuSans-34" transform="translate(270.546875 0)"/>
     <use xlink:href="#DejaVuSans-58" transform="translate(349.265625 0)"/>
     <use xlink:href="#DejaVuSans-44" transform="translate(412.640625 0)"/>
     <use xlink:href="#DejaVuSans-4f" transform="translate(473.921875 0)"/>
     <use xlink:href="#DejaVuSans-4c" transform="translate(501.703125 0)"/>
     <use xlink:href="#DejaVuSans-57" transform="translate(529.484375 0)"/>
     <use xlink:href="#DejaVuSans-5c" transform="translate(568.6875 0)"/>
    </g>
    <!-- Missing, PSI -->
    <g style="fill: #1a1a1a" transform="translate(208.284961 83.992535) scale(0.075 -0.075)">
     <defs>
      <path id="DejaVuSans-56" d="M 2834 3397 
L 2834 2853 
Q 2591 2978 2328 3040 
Q 2066 3103 1784 3103 
Q 1356 3103 1142 2972 
Q 928 2841 928 2578 
Q 928 2378 1081 2264 
Q 1234 2150 1697 2047 
L 1894 2003 
Q 2506 1872 2764 1633 
Q 3022 1394 3022 966 
Q 3022 478 2636 193 
Q 2250 -91 1575 -91 
Q 1294 -91 989 -36 
Q 684 19 347 128 
L 347 722 
Q 666 556 975 473 
Q 1284 391 1588 391 
Q 1994 391 2212 530 
Q 2431 669 2431 922 
Q 2431 1156 2273 1281 
Q 2116 1406 1581 1522 
L 1381 1569 
Q 847 1681 609 1914 
Q 372 2147 372 2553 
Q 372 3047 722 3315 
Q 1072 3584 1716 3584 
Q 2034 3584 2315 3537 
Q 2597 3491 2834 3397 
z
" transform="scale(0.015625)"/>
      <path id="DejaVuSans-4a" d="M 2906 1791 
Q 2906 2416 2648 2759 
Q 2391 3103 1925 3103 
Q 1463 3103 1205 2759 
Q 947 2416 947 1791 
Q 947 1169 1205 825 
Q 1463 481 1925 481 
Q 2391 481 2648 825 
Q 2906 1169 2906 1791 
z
M 3481 434 
Q 3481 -459 3084 -895 
Q 2688 -1331 1869 -1331 
Q 1566 -1331 1297 -1286 
Q 1028 -1241 775 -1147 
L 775 -588 
Q 1028 -725 1275 -790 
Q 1522 -856 1778 -856 
Q 2344 -856 2625 -561 
Q 2906 -266 2906 331 
L 2906 616 
Q 2728 306 2450 153 
Q 2172 0 1784 0 
Q 1141 0 747 490 
Q 353 981 353 1791 
Q 353 2603 747 3093 
Q 1141 3584 1784 3584 
Q 2172 3584 2450 3431 
Q 2728 3278 2906 2969 
L 2906 3500 
L 3481 3500 
L 3481 434 
z
" transform="scale(0.015625)"/>
      <path id="DejaVuSans-36" d="M 3425 4513 
L 3425 3897 
Q 3066 4069 2747 4153 
Q 2428 4238 2131 4238 
Q 1616 4238 1336 4038 
Q 1056 3838 1056 3469 
Q 1056 3159 1242 3001 
Q 1428 2844 1947 2747 
L 2328 2669 
Q 3034 2534 3370 2195 
Q 3706 1856 3706 1288 
Q 3706 609 3251 259 
Q 2797 -91 1919 -91 
Q 1588 -91 1214 -16 
Q 841 59 441 206 
L 441 856 
Q 825 641 1194 531 
Q 1563 422 1919 422 
Q 2459 422 2753 634 
Q 3047 847 3047 1241 
Q 3047 1584 2836 1778 
Q 2625 1972 2144 2069 
L 1759 2144 
Q 1053 2284 737 2584 
Q 422 2884 422 3419 
Q 422 4038 858 4394 
Q 1294 4750 2059 4750 
Q 2388 4750 2728 4690 
Q 3069 4631 3425 4513 
z
" transform="scale(0.015625)"/>
      <path id="DejaVuSans-2c" d="M 628 4666 
L 1259 4666 
L 1259 0 
L 628 0 
L 628 4666 
z
" transform="scale(0.015625)"/>
     </defs>
     <use xlink:href="#DejaVuSans-30"/>
     <use xlink:href="#DejaVuSans-4c" transform="translate(86.28125 0)"/>
     <use xlink:href="#DejaVuSans-56" transform="translate(114.0625 0)"/>
     <use xlink:href="#DejaVuSans-56" transform="translate(166.15625 0)"/>
     <use xlink:href="#DejaVuSans-4c" transform="translate(218.25 0)"/>
     <use xlink:href="#DejaVuSans-51" transform="translate(246.03125 0)"/>
     <use xlink:href="#DejaVuSans-4a" transform="translate(309.40625 0)"/>
     <use xlink:href="#DejaVuSans-f" transform="translate(372.890625 0)"/>
     <use xlink:href="#DejaVuSans-3" transform="translate(404.671875 0)"/>
     <use xlink:href="#DejaVuSans-33" transform="translate(436.453125 0)"/>
     <use xlink:href="#DejaVuSans-36" transform="translate(496.75 0)"/>
     <use xlink:href="#DejaVuSans-2c" transform="translate(560.234375 0)"/>
    </g>
    <!-- Outliers -->
    <g style="fill: #1a1a1a" transform="translate(215.715234 92.994586) scale(0.075 -0.075)">
     <defs>
      <path id="DejaVuSans-32" d="M 2522 4238 
Q 1834 4238 1429 3725 
Q 1025 3213 1025 2328 
Q 1025 1447 1429 934 
Q 1834 422 2522 422 
Q 3209 422 3611 934 
Q 4013 1447 4013 2328 
Q 4013 3213 3611 3725 
Q 3209 4238 2522 4238 
z
M 2522 4750 
Q 3503 4750 4090 4092 
Q 4678 3434 4678 2328 
Q 4678 1225 4090 567 
Q 3503 -91 2522 -91 
Q 1538 -91 948 565 
Q 359 1222 359 2328 
Q 359 3434 948 4092 
Q 1538 4750 2522 4750 
z
" transform="scale(0.015625)"/>
     </defs>
     <use xlink:href="#DejaVuSans-32"/>
     <use xlink:href="#DejaVuSans-58" transform="translate(78.71875 0)"/>
     <use xlink:href="#DejaVuSans-57" transform="translate(142.09375 0)"/>
     <use xlink:href="#DejaVuSans-4f" transform="translate(181.296875 0)"/>
     <use xlink:href="#DejaVuSans-4c" transform="translate(209.078125 0)"/>
     <use xlink:href="#DejaVuSans-48" transform="translate(236.859375 0)"/>
     <use xlink:href="#DejaVuSans-55" transform="translate(298.390625 0)"/>
     <use xlink:href="#DejaVuSans-56" transform="translate(339.5 0)"/>
    </g>
   </g>
   <g id="text_3">
    <!-- System Health -->
    <g style="fill: #1a1a1a" transform="translate(336.830156 74.990777) scale(0.075 -0.075)">
     <defs>
      <path id="DejaVuSans-2b" d="M 628 4666 
L 1259 4666 
L 1259 2753 
L 3553 2753 
L 3553 4666 
L 4184 4666 
L 4184 0 
L 3553 0 
L 3553 2222 
L 1259 2222 
L 1259 0 
L 628 0 
L 628 4666 
z
" transform="scale(0.015625)"/>
      <path id="DejaVuSans-4b" d="M 3513 2113 
L 3513 0 
L 2938 0 
L 2938 2094 
Q 2938 2591 2744 2837 
Q 2550 3084 2163 3084 
Q 1697 3084 1428 2787 
Q 1159 2491 1159 1978 
L 1159 0 
L 581 0 
L 581 4863 
L 1159 4863 
L 1159 2956 
Q 1366 3272 1645 3428 
Q 1925 3584 2291 3584 
Q 2894 3584 3203 3211 
Q 3513 2838 3513 2113 
z
" transform="scale(0.015625)"/>
     </defs>
     <use xlink:href="#DejaVuSans-36"/>
     <use xlink:href="#DejaVuSans-5c" transform="translate(63.484375 0)"/>
     <use xlink:href="#DejaVuSans-56" transform="translate(122.671875 0)"/>
     <use xlink:href="#DejaVuSans-57" transform="translate(174.765625 0)"/>
     <use xlink:href="#DejaVuSans-48" transform="translate(213.96875 0)"/>
     <use xlink:href="#DejaVuSans-50" transform="translate(275.5 0)"/>
     <use xlink:href="#DejaVuSans-3" transform="translate(372.90625 0)"/>
     <use xlink:href="#DejaVuSans-2b" transform="translate(404.6875 0)"/>
     <use xlink:href="#DejaVuSans-48" transform="translate(479.890625 0)"/>
     <use xlink:href="#DejaVuSans-44" transform="translate(541.421875 0)"/>
     <use xlink:href="#DejaVuSans-4f" transform="translate(602.703125 0)"/>
     <use xlink:href="#DejaVuSans-57" transform="translate(630.484375 0)"/>
     <use xlink:href="#DejaVuSans-4b" transform="translate(669.6875 0)"/>
    </g>
    <!-- Latency, Throughput -->
    <g style="fill: #1a1a1a" transform="translate(325.331719 83.992828) scale(0.075 -0.075)">
     <defs>
      <path id="DejaVuSans-2f" d="M 628 4666 
L 1259 4666 
L 1259 531 
L 3531 531 
L 3531 0 
L 628 0 
L 628 4666 
z
" transform="scale(0.015625)"/>
      <path id="DejaVuSans-37" d="M -19 4666 
L 3928 4666 
L 3928 4134 
L 2272 4134 
L 2272 0 
L 1638 0 
L 1638 4134 
L -19 4134 
L -19 4666 
z
" transform="scale(0.015625)"/>
      <path id="DejaVuSans-53" d="M 1159 525 
L 1159 -1331 
L 581 -1331 
L 581 3500 
L 1159 3500 
L 1159 2969 
Q 1341 3281 1617 3432 
Q 1894 3584 2278 3584 
Q 2916 3584 3314 3078 
Q 3713 2572 3713 1747 
Q 3713 922 3314 415 
Q 2916 -91 2278 -91 
Q 1894 -91 1617 61 
Q 1341 213 1159 525 
z
M 3116 1747 
Q 3116 2381 2855 2742 
Q 2594 3103 2138 3103 
Q 1681 3103 1420 2742 
Q 1159 2381 1159 1747 
Q 1159 1113 1420 752 
Q 1681 391 2138 391 
Q 2594 391 2855 752 
Q 3116 1113 3116 1747 
z
" transform="scale(0.015625)"/>
     </defs>
     <use xlink:href="#DejaVuSans-2f"/>
     <use xlink:href="#DejaVuSans-44" transform="translate(55.71875 0)"/>
     <use xlink:href="#DejaVuSans-57" transform="translate(117 0)"/>
     <use xlink:href="#DejaVuSans-48" transform="translate(156.203125 0)"/>
     <use xlink:href="#DejaVuSans-51" transform="translate(217.734375 0)"/>
     <use xlink:href="#DejaVuSans-46" transform="translate(281.109375 0)"/>
     <use xlink:href="#DejaVuSans-5c" transform="translate(336.09375 0)"/>
     <use xlink:href="#DejaVuSans-f" transform="translate(395.28125 0)"/>
     <use xlink:href="#DejaVuSans-3" transform="translate(427.0625 0)"/>
     <use xlink:href="#DejaVuSans-37" transform="translate(458.84375 0)"/>
     <use xlink:href="#DejaVuSans-4b" transform="translate(519.921875 0)"/>
     <use xlink:href="#DejaVuSans-55" transform="translate(583.296875 0)"/>
     <use xlink:href="#DejaVuSans-52" transform="translate(622.203125 0)"/>
     <use xlink:href="#DejaVuSans-58" transform="translate(683.390625 0)"/>
     <use xlink:href="#DejaVuSans-4a" transform="translate(746.765625 0)"/>
     <use xlink:href="#DejaVuSans-4b" transform="translate(810.25 0)"/>
     <use xlink:href="#DejaVuSans-53" transform="translate(873.625 0)"/>
     <use xlink:href="#DejaVuSans-58" transform="translate(937.109375 0)"/>
     <use xlink:href="#DejaVuSans-57" transform="translate(1000.484375 0)"/>
    </g>
    <!-- Errors -->
    <g style="fill: #1a1a1a" transform="translate(353.225859 92.994293) scale(0.075 -0.075)">
     <defs>
      <path id="DejaVuSans-28" d="M 628 4666 
L 3578 4666 
L 3578 4134 
L 1259 4134 
L 1259 2753 
L 3481 2753 
L 3481 2222 
L 1259 2222 
L 1259 531 
L 3634 531 
L 3634 0 
L 628 0 
L 628 4666 
z
" transform="scale(0.015625)"/>
     </defs>
     <use xlink:href="#DejaVuSans-28"/>
     <use xlink:href="#DejaVuSans-55" transform="translate(63.1875 0)"/>
     <use xlink:href="#DejaVuSans-55" transform="translate(102.546875 0)"/>
     <use xlink:href="#DejaVuSans-52" transform="translate(141.453125 0)"/>
     <use xlink:href="#DejaVuSans-55" transform="translate(202.640625 0)"/>
     <use xlink:href="#DejaVuSans-56" transform="translate(243.75 0)"/>
    </g>
   </g>
   <g id="text_4">
    <!-- Dashboard -->
    <g style="fill: #1a1a1a" transform="translate(205.985391 166.299012) scale(0.09 -0.09)">
     <defs>
      <path id="DejaVuSans-45" d="M 3116 1747 
Q 3116 2381 2855 2742 
Q 2594 3103 2138 3103 
Q 1681 3103 1420 2742 
Q 1159 2381 1159 1747 
Q 1159 1113 1420 752 
Q 1681 391 2138 391 
Q 2594 391 2855 752 
Q 3116 1113 3116 1747 
z
M 1159 2969 
Q 1341 3281 1617 3432 
Q 1894 3584 2278 3584 
Q 2916 3584 3314 3078 
Q 3713 2572 3713 1747 
Q 3713 922 3314 415 
Q 2916 -91 2278 -91 
Q 1894 -91 1617 61 
Q 1341 213 1159 525 
L 1159 0 
L 581 0 
L 581 4863 
L 1159 4863 
L 1159 2969 
z
" transform="scale(0.015625)"/>
     </defs>
     <use xlink:href="#DejaVuSans-27"/>
     <use xlink:href="#DejaVuSans-44" transform="translate(77 0)"/>
     <use xlink:href="#DejaVuSans-56" transform="translate(138.28125 0)"/>
     <use xlink:href="#DejaVuSans-4b" transform="translate(190.375 0)"/>
     <use xlink:href="#DejaVuSans-45" transform="translate(253.75 0)"/>
     <use xlink:href="#DejaVuSans-52" transform="translate(317.234375 0)"/>
     <use xlink:href="#DejaVuSans-44" transform="translate(378.421875 0)"/>
     <use xlink:href="#DejaVuSans-55" transform="translate(439.703125 0)"/>
     <use xlink:href="#DejaVuSans-47" transform="translate(479.0625 0)"/>
    </g>
    <!-- Prometheus + Grafana -->
    <g style="fill: #1a1a1a" transform="translate(178.851094 177.101473) scale(0.09 -0.09)">
     <defs>
      <path id="DejaVuSans-e" d="M 2944 4013 
L 2944 2272 
L 4684 2272 
L 4684 1741 
L 2944 1741 
L 2944 0 
L 2419 0 
L 2419 1741 
L 678 1741 
L 678 2272 
L 2419 2272 
L 2419 4013 
L 2944 4013 
z
" transform="scale(0.015625)"/>
      <path id="DejaVuSans-2a" d="M 3809 666 
L 3809 1919 
L 2778 1919 
L 2778 2438 
L 4434 2438 
L 4434 434 
Q 4069 175 3628 42 
Q 3188 -91 2688 -91 
Q 1594 -91 976 548 
Q 359 1188 359 2328 
Q 359 3472 976 4111 
Q 1594 4750 2688 4750 
Q 3144 4750 3555 4637 
Q 3966 4525 4313 4306 
L 4313 3634 
Q 3963 3931 3569 4081 
Q 3175 4231 2741 4231 
Q 1884 4231 1454 3753 
Q 1025 3275 1025 2328 
Q 1025 1384 1454 906 
Q 1884 428 2741 428 
Q 3075 428 3337 486 
Q 3600 544 3809 666 
z
" transform="scale(0.015625)"/>
     </defs>
     <use xlink:href="#DejaVuSans-33"/>
     <use xlink:href="#DejaVuSans-55" transform="translate(58.546875 0)"/>
     <use xlink:href="#DejaVuSans-52" transform="translate(97.453125 0)"/>
     <use xlink:href="#DejaVuSans-50" transform="translate(158.640625 0)"/>
     <use xlink:href="#DejaVuSans-48" transform="translate(256.046875 0)"/>
     <use xlink:href="#DejaVuSans-57" transform="translate(317.578125 0)"/>
     <use xlink:href="#DejaVuSans-4b" transform="translate(356.78125 0)"/>
     <use xlink:href="#DejaVuSans-48" transform="translate(420.15625 0)"/>
     <use xlink:href="#DejaVuSans-58" transform="translate(481.6875 0)"/>
     <use xlink:href="#DejaVuSans-56" transform="translate(545.0625 0)"/>
     <use xlink:href="#DejaVuSans-3" transform="translate(597.15625 0)"/>
     <use xlink:href="#DejaVuSans-e" transform="translate(628.9375 0)"/>
     <use xlink:href="#DejaVuSans-3" transform="translate(712.734375 0)"/>
     <use xlink:href="#DejaVuSans-2a" transform="translate(744.515625 0)"/>
     <use xlink:href="#DejaVuSans-55" transform="translate(822 0)"/>
     <use xlink:href="#DejaVuSans-44" transform="translate(863.109375 0)"/>
     <use xlink:href="#DejaVuSans-49" transform="translate(924.390625 0)"/>
     <use xlink:href="#DejaVuSans-44" transform="translate(959.59375 0)"/>
     <use xlink:href="#DejaVuSans-51" transform="translate(1020.875 0)"/>
     <use xlink:href="#DejaVuSans-44" transform="translate(1084.25 0)"/>
    </g>
   </g>
   <g id="text_5">
    <!-- Alert + Auto-Rollback -->
    <g style="fill: #1a1a1a" transform="translate(187.40375 246.284437) scale(0.08 -0.08)">
     <defs>
      <path id="DejaVuSans-10" d="M 313 2009 
L 1997 2009 
L 1997 1497 
L 313 1497 
L 313 2009 
z
" transform="scale(0.015625)"/>
      <path id="DejaVuSans-35" d="M 2841 2188 
Q 3044 2119 3236 1894 
Q 3428 1669 3622 1275 
L 4263 0 
L 3584 0 
L 2988 1197 
Q 2756 1666 2539 1819 
Q 2322 1972 1947 1972 
L 1259 1972 
L 1259 0 
L 628 0 
L 628 4666 
L 2053 4666 
Q 2853 4666 3247 4331 
Q 3641 3997 3641 3322 
Q 3641 2881 3436 2590 
Q 3231 2300 2841 2188 
z
M 1259 4147 
L 1259 2491 
L 2053 2491 
Q 2509 2491 2742 2702 
Q 2975 2913 2975 3322 
Q 2975 3731 2742 3939 
Q 2509 4147 2053 4147 
L 1259 4147 
z
" transform="scale(0.015625)"/>
      <path id="DejaVuSans-4e" d="M 581 4863 
L 1159 4863 
L 1159 1991 
L 2875 3500 
L 3609 3500 
L 1753 1863 
L 3688 0 
L 2938 0 
L 1159 1709 
L 1159 0 
L 581 0 
L 581 4863 
z
" transform="scale(0.015625)"/>
     </defs>
     <use xlink:href="#DejaVuSans-24"/>
     <use xlink:href="#DejaVuSans-4f" transform="translate(68.40625 0)"/>
     <use xlink:href="#DejaVuSans-48" transform="translate(96.1875 0)"/>
     <use xlink:href="#DejaVuSans-55" transform="translate(157.71875 0)"/>
     <use xlink:href="#DejaVuSans-57" transform="translate(198.828125 0)"/>
     <use xlink:href="#DejaVuSans-3" transform="translate(238.03125 0)"/>
     <use xlink:href="#DejaVuSans-e" transform="translate(269.8125 0)"/>
     <use xlink:href="#DejaVuSans-3" transform="translate(353.609375 0)"/>
     <use xlink:href="#DejaVuSans-24" transform="translate(385.390625 0)"/>
     <use xlink:href="#DejaVuSans-58" transform="translate(453.796875 0)"/>
     <use xlink:href="#DejaVuSans-57" transform="translate(517.171875 0)"/>
     <use xlink:href="#DejaVuSans-52" transform="translate(556.375 0)"/>
     <use xlink:href="#DejaVuSans-10" transform="translate(619.421875 0)"/>
     <use xlink:href="#DejaVuSans-35" transform="translate(655.5 0)"/>
     <use xlink:href="#DejaVuSans-52" transform="translate(720.5 0)"/>
     <use xlink:href="#DejaVuSans-4f" transform="translate(781.6875 0)"/>
     <use xlink:href="#DejaVuSans-4f" transform="translate(809.46875 0)"/>
     <use xlink:href="#DejaVuSans-45" transform="translate(837.25 0)"/>
     <use xlink:href="#DejaVuSans-44" transform="translate(900.734375 0)"/>
     <use xlink:href="#DejaVuSans-46" transform="translate(962.015625 0)"/>
     <use xlink:href="#DejaVuSans-4e" transform="translate(1017 0)"/>
    </g>
   </g>
   <g id="text_6">
    <!-- Monitoring Pillars -->
    <g transform="translate(170.17125 32.148) scale(0.12 -0.12)">
     <defs>
      <path id="DejaVuSans-Bold-30" d="M 588 4666 
L 2119 4666 
L 3181 2169 
L 4250 4666 
L 5778 4666 
L 5778 0 
L 4641 0 
L 4641 3413 
L 3566 897 
L 2803 897 
L 1728 3413 
L 1728 0 
L 588 0 
L 588 4666 
z
" transform="scale(0.015625)"/>
      <path id="DejaVuSans-Bold-52" d="M 2203 2784 
Q 1831 2784 1636 2517 
Q 1441 2250 1441 1747 
Q 1441 1244 1636 976 
Q 1831 709 2203 709 
Q 2569 709 2762 976 
Q 2956 1244 2956 1747 
Q 2956 2250 2762 2517 
Q 2569 2784 2203 2784 
z
M 2203 3584 
Q 3106 3584 3614 3096 
Q 4122 2609 4122 1747 
Q 4122 884 3614 396 
Q 3106 -91 2203 -91 
Q 1297 -91 786 396 
Q 275 884 275 1747 
Q 275 2609 786 3096 
Q 1297 3584 2203 3584 
z
" transform="scale(0.015625)"/>
      <path id="DejaVuSans-Bold-51" d="M 4056 2131 
L 4056 0 
L 2931 0 
L 2931 347 
L 2931 1631 
Q 2931 2084 2911 2256 
Q 2891 2428 2841 2509 
Q 2775 2619 2662 2680 
Q 2550 2741 2406 2741 
Q 2056 2741 1856 2470 
Q 1656 2200 1656 1722 
L 1656 0 
L 538 0 
L 538 3500 
L 1656 3500 
L 1656 2988 
Q 1909 3294 2193 3439 
Q 2478 3584 2822 3584 
Q 3428 3584 3742 3212 
Q 4056 2841 4056 2131 
z
" transform="scale(0.015625)"/>
      <path id="DejaVuSans-Bold-4c" d="M 538 3500 
L 1656 3500 
L 1656 0 
L 538 0 
L 538 3500 
z
M 538 4863 
L 1656 4863 
L 1656 3950 
L 538 3950 
L 538 4863 
z
" transform="scale(0.015625)"/>
      <path id="DejaVuSans-Bold-57" d="M 1759 4494 
L 1759 3500 
L 2913 3500 
L 2913 2700 
L 1759 2700 
L 1759 1216 
Q 1759 972 1856 886 
Q 1953 800 2241 800 
L 2816 800 
L 2816 0 
L 1856 0 
Q 1194 0 917 276 
Q 641 553 641 1216 
L 641 2700 
L 84 2700 
L 84 3500 
L 641 3500 
L 641 4494 
L 1759 4494 
z
" transform="scale(0.015625)"/>
      <path id="DejaVuSans-Bold-55" d="M 3138 2547 
Q 2991 2616 2845 2648 
Q 2700 2681 2553 2681 
Q 2122 2681 1889 2404 
Q 1656 2128 1656 1613 
L 1656 0 
L 538 0 
L 538 3500 
L 1656 3500 
L 1656 2925 
Q 1872 3269 2151 3426 
Q 2431 3584 2822 3584 
Q 2878 3584 2943 3579 
Q 3009 3575 3134 3559 
L 3138 2547 
z
" transform="scale(0.015625)"/>
      <path id="DejaVuSans-Bold-4a" d="M 2919 594 
Q 2688 288 2409 144 
Q 2131 0 1766 0 
Q 1125 0 706 504 
Q 288 1009 288 1791 
Q 288 2575 706 3076 
Q 1125 3578 1766 3578 
Q 2131 3578 2409 3434 
Q 2688 3291 2919 2981 
L 2919 3500 
L 4044 3500 
L 4044 353 
Q 4044 -491 3511 -936 
Q 2978 -1381 1966 -1381 
Q 1638 -1381 1331 -1331 
Q 1025 -1281 716 -1178 
L 716 -306 
Q 1009 -475 1290 -558 
Q 1572 -641 1856 -641 
Q 2406 -641 2662 -400 
Q 2919 -159 2919 353 
L 2919 594 
z
M 2181 2772 
Q 1834 2772 1640 2515 
Q 1447 2259 1447 1791 
Q 1447 1309 1634 1061 
Q 1822 813 2181 813 
Q 2531 813 2725 1069 
Q 2919 1325 2919 1791 
Q 2919 2259 2725 2515 
Q 2531 2772 2181 2772 
z
" transform="scale(0.015625)"/>
      <path id="DejaVuSans-Bold-3" transform="scale(0.015625)"/>
      <path id="DejaVuSans-Bold-33" d="M 588 4666 
L 2584 4666 
Q 3475 4666 3951 4270 
Q 4428 3875 4428 3144 
Q 4428 2409 3951 2014 
Q 3475 1619 2584 1619 
L 1791 1619 
L 1791 0 
L 588 0 
L 588 4666 
z
M 1791 3794 
L 1791 2491 
L 2456 2491 
Q 2806 2491 2997 2661 
Q 3188 2831 3188 3144 
Q 3188 3456 2997 3625 
Q 2806 3794 2456 3794 
L 1791 3794 
z
" transform="scale(0.015625)"/>
      <path id="DejaVuSans-Bold-4f" d="M 538 4863 
L 1656 4863 
L 1656 0 
L 538 0 
L 538 4863 
z
" transform="scale(0.015625)"/>
      <path id="DejaVuSans-Bold-44" d="M 2106 1575 
Q 1756 1575 1579 1456 
Q 1403 1338 1403 1106 
Q 1403 894 1545 773 
Q 1688 653 1941 653 
Q 2256 653 2472 879 
Q 2688 1106 2688 1447 
L 2688 1575 
L 2106 1575 
z
M 3816 1997 
L 3816 0 
L 2688 0 
L 2688 519 
Q 2463 200 2181 54 
Q 1900 -91 1497 -91 
Q 953 -91 614 226 
Q 275 544 275 1050 
Q 275 1666 698 1953 
Q 1122 2241 2028 2241 
L 2688 2241 
L 2688 2328 
Q 2688 2594 2478 2717 
Q 2269 2841 1825 2841 
Q 1466 2841 1156 2769 
Q 847 2697 581 2553 
L 581 3406 
Q 941 3494 1303 3539 
Q 1666 3584 2028 3584 
Q 2975 3584 3395 3211 
Q 3816 2838 3816 1997 
z
" transform="scale(0.015625)"/>
      <path id="DejaVuSans-Bold-56" d="M 3272 3391 
L 3272 2541 
Q 2913 2691 2578 2766 
Q 2244 2841 1947 2841 
Q 1628 2841 1473 2761 
Q 1319 2681 1319 2516 
Q 1319 2381 1436 2309 
Q 1553 2238 1856 2203 
L 2053 2175 
Q 2913 2066 3209 1816 
Q 3506 1566 3506 1031 
Q 3506 472 3093 190 
Q 2681 -91 1863 -91 
Q 1516 -91 1145 -36 
Q 775 19 384 128 
L 384 978 
Q 719 816 1070 734 
Q 1422 653 1784 653 
Q 2113 653 2278 743 
Q 2444 834 2444 1013 
Q 2444 1163 2330 1236 
Q 2216 1309 1875 1350 
L 1678 1375 
Q 931 1469 631 1722 
Q 331 1975 331 2491 
Q 331 3047 712 3315 
Q 1094 3584 1881 3584 
Q 2191 3584 2531 3537 
Q 2872 3491 3272 3391 
z
" transform="scale(0.015625)"/>
     </defs>
     <use xlink:href="#DejaVuSans-Bold-30"/>
     <use xlink:href="#DejaVuSans-Bold-52" transform="translate(99.515625 0)"/>
     <use xlink:href="#DejaVuSans-Bold-51" transform="translate(168.21875 0)"/>
     <use xlink:href="#DejaVuSans-Bold-4c" transform="translate(239.40625 0)"/>
     <use xlink:href="#DejaVuSans-Bold-57" transform="translate(273.6875 0)"/>
     <use xlink:href="#DejaVuSans-Bold-52" transform="translate(321.484375 0)"/>
     <use xlink:href="#DejaVuSans-Bold-55" transform="translate(390.1875 0)"/>
     <use xlink:href="#DejaVuSans-Bold-4c" transform="translate(439.5 0)"/>
     <use xlink:href="#DejaVuSans-Bold-51" transform="translate(473.78125 0)"/>
     <use xlink:href="#DejaVuSans-Bold-4a" transform="translate(544.96875 0)"/>
     <use xlink:href="#DejaVuSans-Bold-3" transform="translate(616.546875 0)"/>
     <use xlink:href="#DejaVuSans-Bold-33" transform="translate(651.359375 0)"/>
     <use xlink:href="#DejaVuSans-Bold-4c" transform="translate(724.65625 0)"/>
     <use xlink:href="#DejaVuSans-Bold-4f" transform="translate(758.9375 0)"/>
     <use xlink:href="#DejaVuSans-Bold-4f" transform="translate(793.21875 0)"/>
     <use xlink:href="#DejaVuSans-Bold-44" transform="translate(827.5 0)"/>
     <use xlink:href="#DejaVuSans-Bold-55" transform="translate(894.984375 0)"/>
     <use xlink:href="#DejaVuSans-Bold-56" transform="translate(944.296875 0)"/>
    </g>
   </g>
  </g>
 </g>
 <defs>
  <clipPath id="p6b59728d27">
   <rect x="7.2" y="7.2" width="446.4" height="249.48"/>
  </clipPath>
 </defs>
</svg>
