<?xml version="1.0" encoding="utf-8" standalone="no"?>
<!DOCTYPE svg PUBLIC "-//W3C//DTD SVG 1.1//EN"
  "http://www.w3.org/Graphics/SVG/1.1/DTD/svg11.dtd">
<svg xmlns:xlink="http://www.w3.org/1999/xlink" width="712.422187pt" height="285.518438pt" viewBox="0 0 712.422187 285.518438" xmlns="http://www.w3.org/2000/svg" version="1.1">
 <metadata>
  <rdf:RDF xmlns:dc="http://purl.org/dc/elements/1.1/" xmlns:cc="http://creativecommons.org/ns#" xmlns:rdf="http://www.w3.org/1999/02/22-rdf-syntax-ns#">
   <cc:Work>
    <dc:type rdf:resource="http://purl.org/dc/dcmitype/StillImage"/>
    <dc:date>2026-07-06T14:44:53.544977</dc:date>
    <dc:format>image/svg+xml</dc:format>
    <dc:creator>
     <cc:Agent>
      <dc:title>Matplotlib v3.11.0, https://matplotlib.org/</dc:title>
     </cc:Agent>
    </dc:creator>
   </cc:Work>
  </rdf:RDF>
 </metadata>
 <defs>
  <style type="text/css">*{stroke-linejoin: round; stroke-linecap: butt}</style>
 </defs>
 <g id="figure_1">
  <g id="patch_1">
   <path d="M 0 285.518438 
L 712.422187 285.518438 
L 712.422187 -0 
L 0 -0 
L 0 285.518438 
z
" style="fill: none"/>
  </g>
  <g id="axes_1">
   <g id="patch_2">
    <path d="M 42.942188 247.317656 
L 353.322187 247.317656 
L 353.322187 50.600469 
L 42.942188 50.600469 
L 42.942188 247.317656 
z
" style="fill: none"/>
   </g>
   <g id="matplotlib.axis_1">
    <g id="xtick_1">
     <g id="line2d_1">
      <defs>
       <path id="m75d4e066be" d="M 0 0 
L 0 3.5 
" style="stroke: #1a1a1a; stroke-width: 0.8"/>
      </defs>
      <g>
       <use xlink:href="#m75d4e066be" x="42.942188" y="247.317656" style="fill: #1a1a1a; stroke: #1a1a1a; stroke-width: 0.8"/>
      </g>
     </g>
     <g id="text_1">
      <!-- −3 -->
      <g style="fill: #1a1a1a" transform="translate(35.571094 261.915313) scale(0.1 -0.1)">
       <defs>
        <path id="DejaVuSans-c9c" d="M 678 2272 
L 4684 2272 
L 4684 1741 
L 678 1741 
L 678 2272 
z
" transform="scale(0.015625)"/>
        <path id="DejaVuSans-16" d="M 2597 2516 
Q 3050 2419 3304 2112 
Q 3559 1806 3559 1356 
Q 3559 666 3084 287 
Q 2609 -91 1734 -91 
Q 1441 -91 1130 -33 
Q 819 25 488 141 
L 488 750 
Q 750 597 1062 519 
Q 1375 441 1716 441 
Q 2309 441 2620 675 
Q 2931 909 2931 1356 
Q 2931 1769 2642 2001 
Q 2353 2234 1838 2234 
L 1294 2234 
L 1294 2753 
L 1863 2753 
Q 2328 2753 2575 2939 
Q 2822 3125 2822 3475 
Q 2822 3834 2567 4026 
Q 2313 4219 1838 4219 
Q 1578 4219 1281 4162 
Q 984 4106 628 3988 
L 628 4550 
Q 988 4650 1302 4700 
Q 1616 4750 1894 4750 
Q 2613 4750 3031 4423 
Q 3450 4097 3450 3541 
Q 3450 3153 3228 2886 
Q 3006 2619 2597 2516 
z
" transform="scale(0.015625)"/>
       </defs>
       <use xlink:href="#DejaVuSans-c9c"/>
       <use xlink:href="#DejaVuSans-16" transform="translate(83.796875 0)"/>
      </g>
     </g>
    </g>
    <g id="xtick_2">
     <g id="line2d_2">
      <g>
       <use xlink:href="#m75d4e066be" x="94.672188" y="247.317656" style="fill: #1a1a1a; stroke: #1a1a1a; stroke-width: 0.8"/>
      </g>
     </g>
     <g id="text_2">
      <!-- −2 -->
      <g style="fill: #1a1a1a" transform="translate(87.301094 261.915313) scale(0.1 -0.1)">
       <defs>
        <path id="DejaVuSans-15" d="M 1228 531 
L 3431 531 
L 3431 0 
L 469 0 
L 469 531 
Q 828 903 1448 1529 
Q 2069 2156 2228 2338 
Q 2531 2678 2651 2914 
Q 2772 3150 2772 3378 
Q 2772 3750 2511 3984 
Q 2250 4219 1831 4219 
Q 1534 4219 1204 4116 
Q 875 4013 500 3803 
L 500 4441 
Q 881 4594 1212 4672 
Q 1544 4750 1819 4750 
Q 2544 4750 2975 4387 
Q 3406 4025 3406 3419 
Q 3406 3131 3298 2873 
Q 3191 2616 2906 2266 
Q 2828 2175 2409 1742 
Q 1991 1309 1228 531 
z
" transform="scale(0.015625)"/>
       </defs>
       <use xlink:href="#DejaVuSans-c9c"/>
       <use xlink:href="#DejaVuSans-15" transform="translate(83.796875 0)"/>
      </g>
     </g>
    </g>
    <g id="xtick_3">
     <g id="line2d_3">
      <g>
       <use xlink:href="#m75d4e066be" x="146.402187" y="247.317656" style="fill: #1a1a1a; stroke: #1a1a1a; stroke-width: 0.8"/>
      </g>
     </g>
     <g id="text_3">
      <!-- −1 -->
      <g style="fill: #1a1a1a" transform="translate(139.031094 261.915313) scale(0.1 -0.1)">
       <defs>
        <path id="DejaVuSans-14" d="M 794 531 
L 1825 531 
L 1825 4091 
L 703 3866 
L 703 4441 
L 1819 4666 
L 2450 4666 
L 2450 531 
L 3481 531 
L 3481 0 
L 794 0 
L 794 531 
z
" transform="scale(0.015625)"/>
       </defs>
       <use xlink:href="#DejaVuSans-c9c"/>
       <use xlink:href="#DejaVuSans-14" transform="translate(83.796875 0)"/>
      </g>
     </g>
    </g>
    <g id="xtick_4">
     <g id="line2d_4">
      <g>
       <use xlink:href="#m75d4e066be" x="198.132187" y="247.317656" style="fill: #1a1a1a; stroke: #1a1a1a; stroke-width: 0.8"/>
      </g>
     </g>
     <g id="text_4">
      <!-- 0 -->
      <g style="fill: #1a1a1a" transform="translate(194.950937 261.915313) scale(0.1 -0.1)">
       <defs>
        <path id="DejaVuSans-13" d="M 2034 4250 
Q 1547 4250 1301 3770 
Q 1056 3291 1056 2328 
Q 1056 1369 1301 889 
Q 1547 409 2034 409 
Q 2525 409 2770 889 
Q 3016 1369 3016 2328 
Q 3016 3291 2770 3770 
Q 2525 4250 2034 4250 
z
M 2034 4750 
Q 2819 4750 3233 4129 
Q 3647 3509 3647 2328 
Q 3647 1150 3233 529 
Q 2819 -91 2034 -91 
Q 1250 -91 836 529 
Q 422 1150 422 2328 
Q 422 3509 836 4129 
Q 1250 4750 2034 4750 
z
" transform="scale(0.015625)"/>
       </defs>
       <use xlink:href="#DejaVuSans-13"/>
      </g>
     </g>
    </g>
    <g id="xtick_5">
     <g id="line2d_5">
      <g>
       <use xlink:href="#m75d4e066be" x="249.862187" y="247.317656" style="fill: #1a1a1a; stroke: #1a1a1a; stroke-width: 0.8"/>
      </g>
     </g>
     <g id="text_5">
      <!-- 1 -->
      <g style="fill: #1a1a1a" transform="translate(246.680937 261.915313) scale(0.1 -0.1)">
       <use xlink:href="#DejaVuSans-14"/>
      </g>
     </g>
    </g>
    <g id="xtick_6">
     <g id="line2d_6">
      <g>
       <use xlink:href="#m75d4e066be" x="301.592187" y="247.317656" style="fill: #1a1a1a; stroke: #1a1a1a; stroke-width: 0.8"/>
      </g>
     </g>
     <g id="text_6">
      <!-- 2 -->
      <g style="fill: #1a1a1a" transform="translate(298.410937 261.915313) scale(0.1 -0.1)">
       <use xlink:href="#DejaVuSans-15"/>
      </g>
     </g>
    </g>
    <g id="xtick_7">
     <g id="line2d_7">
      <g>
       <use xlink:href="#m75d4e066be" x="353.322187" y="247.317656" style="fill: #1a1a1a; stroke: #1a1a1a; stroke-width: 0.8"/>
      </g>
     </g>
     <g id="text_7">
      <!-- 3 -->
      <g style="fill: #1a1a1a" transform="translate(350.140937 261.915313) scale(0.1 -0.1)">
       <use xlink:href="#DejaVuSans-16"/>
      </g>
     </g>
    </g>
    <g id="text_8">
     <!-- $w_1$ -->
     <g style="fill: #1a1a1a" transform="translate(191.632187 275.915313) scale(0.1 -0.1)">
      <defs>
       <path id="DejaVuSans-Oblique-5a" d="M 544 3500 
L 1113 3500 
L 1259 684 
L 2566 3500 
L 3231 3500 
L 3425 684 
L 4666 3500 
L 5241 3500 
L 3641 0 
L 2969 0 
L 2797 2900 
L 1459 0 
L 781 0 
L 544 3500 
z
" transform="scale(0.015625)"/>
      </defs>
      <use xlink:href="#DejaVuSans-Oblique-5a" transform="translate(0 0.3125)"/>
      <use xlink:href="#DejaVuSans-14" transform="translate(81.787109 -14.687451) scale(0.7)"/>
     </g>
    </g>
   </g>
   <g id="matplotlib.axis_2">
    <g id="ytick_1">
     <g id="line2d_8">
      <defs>
       <path id="mca55428549" d="M 0 0 
L -3.5 0 
" style="stroke: #1a1a1a; stroke-width: 0.8"/>
      </defs>
      <g>
       <use xlink:href="#mca55428549" x="42.942188" y="247.317656" style="fill: #1a1a1a; stroke: #1a1a1a; stroke-width: 0.8"/>
      </g>
     </g>
     <g id="text_9">
      <!-- −3 -->
      <g style="fill: #1a1a1a" transform="translate(21.2 251.116484) scale(0.1 -0.1)">
       <use xlink:href="#DejaVuSans-c9c"/>
       <use xlink:href="#DejaVuSans-16" transform="translate(83.796875 0)"/>
      </g>
     </g>
    </g>
    <g id="ytick_2">
     <g id="line2d_9">
      <g>
       <use xlink:href="#mca55428549" x="42.942188" y="214.531458" style="fill: #1a1a1a; stroke: #1a1a1a; stroke-width: 0.8"/>
      </g>
     </g>
     <g id="text_10">
      <!-- −2 -->
      <g style="fill: #1a1a1a" transform="translate(21.2 218.330286) scale(0.1 -0.1)">
       <use xlink:href="#DejaVuSans-c9c"/>
       <use xlink:href="#DejaVuSans-15" transform="translate(83.796875 0)"/>
      </g>
     </g>
    </g>
    <g id="ytick_3">
     <g id="line2d_10">
      <g>
       <use xlink:href="#mca55428549" x="42.942188" y="181.74526" style="fill: #1a1a1a; stroke: #1a1a1a; stroke-width: 0.8"/>
      </g>
     </g>
     <g id="text_11">
      <!-- −1 -->
      <g style="fill: #1a1a1a" transform="translate(21.2 185.544089) scale(0.1 -0.1)">
       <use xlink:href="#DejaVuSans-c9c"/>
       <use xlink:href="#DejaVuSans-14" transform="translate(83.796875 0)"/>
      </g>
     </g>
    </g>
    <g id="ytick_4">
     <g id="line2d_11">
      <g>
       <use xlink:href="#mca55428549" x="42.942188" y="148.959062" style="fill: #1a1a1a; stroke: #1a1a1a; stroke-width: 0.8"/>
      </g>
     </g>
     <g id="text_12">
      <!-- 0 -->
      <g style="fill: #1a1a1a" transform="translate(29.579688 152.757891) scale(0.1 -0.1)">
       <use xlink:href="#DejaVuSans-13"/>
      </g>
     </g>
    </g>
    <g id="ytick_5">
     <g id="line2d_12">
      <g>
       <use xlink:href="#mca55428549" x="42.942188" y="116.172865" style="fill: #1a1a1a; stroke: #1a1a1a; stroke-width: 0.8"/>
      </g>
     </g>
     <g id="text_13">
      <!-- 1 -->
      <g style="fill: #1a1a1a" transform="translate(29.579688 119.971693) scale(0.1 -0.1)">
       <use xlink:href="#DejaVuSans-14"/>
      </g>
     </g>
    </g>
    <g id="ytick_6">
     <g id="line2d_13">
      <g>
       <use xlink:href="#mca55428549" x="42.942188" y="83.386667" style="fill: #1a1a1a; stroke: #1a1a1a; stroke-width: 0.8"/>
      </g>
     </g>
     <g id="text_14">
      <!-- 2 -->
      <g style="fill: #1a1a1a" transform="translate(29.579688 87.185495) scale(0.1 -0.1)">
       <use xlink:href="#DejaVuSans-15"/>
      </g>
     </g>
    </g>
    <g id="ytick_7">
     <g id="line2d_14">
      <g>
       <use xlink:href="#mca55428549" x="42.942188" y="50.600469" style="fill: #1a1a1a; stroke: #1a1a1a; stroke-width: 0.8"/>
      </g>
     </g>
     <g id="text_15">
      <!-- 3 -->
      <g style="fill: #1a1a1a" transform="translate(29.579688 54.399297) scale(0.1 -0.1)">
       <use xlink:href="#DejaVuSans-16"/>
      </g>
     </g>
    </g>
    <g id="text_16">
     <!-- $w_2$ -->
     <g style="fill: #1a1a1a" transform="translate(14.797656 155.459062) rotate(-90) scale(0.1 -0.1)">
      <use xlink:href="#DejaVuSans-Oblique-5a" transform="translate(0 0.3125)"/>
      <use xlink:href="#DejaVuSans-15" transform="translate(81.787109 -14.687451) scale(0.7)"/>
     </g>
    </g>
   </g>
   <g id="QuadContourSet_1">
    <path d="M 196.564612 147.965541 
L 196.564612 147.965541 
L 196.564612 147.965541 
L 196.564612 147.965541 
L 196.564612 147.965541 
z
" clip-path="url(#pb1fa2068cd)" style="fill: none; stroke: #440154; stroke-opacity: 0.6; stroke-width: 1.5"/>
    <path d="M 209.105218 199.862158 
L 202.834915 199.251194 
L 196.564612 198.330281 
L 190.294309 197.1175 
L 184.024006 195.622331 
L 177.228601 193.667514 
L 171.266481 191.680472 
L 165.213097 189.383018 
L 158.942794 186.696132 
L 152.672491 183.690959 
L 146.402187 180.295841 
L 142.163764 177.771176 
L 136.996733 174.386471 
L 133.397736 171.810049 
L 128.399675 167.835964 
L 124.456127 164.296452 
L 122.009639 161.874837 
L 120.16242 159.887795 
L 118.185824 157.580758 
L 115.418031 153.926668 
L 114.109927 151.939626 
L 111.881 147.965541 
L 110.981957 145.978499 
L 110.215559 143.991457 
L 109.586778 142.004414 
L 109.100843 140.017372 
L 108.763661 138.03033 
L 108.584673 136.043288 
L 108.562042 134.056245 
L 108.780369 131.558958 
L 109.016566 130.082161 
L 109.513777 128.095118 
L 110.199008 126.108076 
L 111.080202 124.121034 
L 112.173121 122.133991 
L 113.510817 120.146949 
L 115.080022 118.159907 
L 118.185824 115.012581 
L 119.113376 114.185822 
L 121.621094 112.19878 
L 124.536299 110.211738 
L 127.943227 108.224695 
L 131.954859 106.237653 
L 136.996733 104.148992 
L 143.267036 102.078974 
L 149.537339 100.474778 
L 152.672491 99.828373 
L 158.942794 98.800331 
L 165.213097 98.101145 
L 171.4834 97.721993 
L 177.753703 97.634081 
L 184.024006 97.831466 
L 190.294309 98.30946 
L 196.564612 99.091651 
L 203.438883 100.276526 
L 209.105218 101.538433 
L 215.375521 103.2456 
L 221.645824 105.307243 
L 224.780975 106.476388 
L 231.051278 109.15128 
L 234.18643 110.656935 
L 237.321581 112.289168 
L 240.651448 114.185822 
L 243.846496 116.172865 
L 246.786785 118.159907 
L 249.862187 120.438005 
L 254.279219 124.121034 
L 256.431065 126.108076 
L 260.230443 130.082161 
L 262.402794 132.659461 
L 264.916011 136.043288 
L 266.225495 138.03033 
L 268.673097 142.334882 
L 270.321111 145.978499 
L 271.738118 149.952584 
L 272.270526 151.939626 
L 273.024821 155.913711 
L 273.356093 159.887795 
L 273.355915 161.874837 
L 273.241153 163.86188 
L 273.008638 165.848922 
L 272.655083 167.835964 
L 271.808248 171.036834 
L 271.557499 171.810049 
L 270.777041 173.797091 
L 269.852306 175.784134 
L 268.673097 177.944036 
L 267.481788 179.758218 
L 265.537945 182.316387 
L 264.279366 183.732303 
L 262.316413 185.719345 
L 259.267642 188.279613 
L 256.132491 190.469543 
L 252.997339 192.310923 
L 249.862187 193.874915 
L 245.477641 195.654557 
L 243.591884 196.309852 
L 238.966674 197.641599 
L 237.321581 198.042554 
L 234.18643 198.683294 
L 231.051278 199.20234 
L 227.668554 199.628641 
L 221.645824 200.065519 
L 215.375521 200.139296 
L 209.105218 199.862158 
L 209.105218 199.862158 
" clip-path="url(#pb1fa2068cd)" style="fill: none; stroke: #482173; stroke-opacity: 0.6; stroke-width: 1.5"/>
    <path d="M 202.834915 219.828446 
L 200.480957 219.499064 
L 199.699763 219.387403 
L 196.564612 218.886177 
L 193.42946 218.336375 
L 190.294309 217.740034 
L 189.183941 217.512022 
L 187.159157 217.087295 
L 184.024006 216.384385 
L 180.888854 215.639836 
L 180.432482 215.524979 
L 177.753703 214.836203 
L 174.618551 213.990556 
L 173.01612 213.537937 
L 171.4834 213.095494 
L 168.348248 212.151413 
L 166.428421 211.550895 
L 165.213097 211.162265 
L 162.077945 210.12253 
L 160.447592 209.563853 
L 158.942794 209.036524 
L 155.807642 207.904042 
L 154.928135 207.57681 
L 152.672491 206.718277 
L 149.779349 205.589768 
L 149.537339 205.493147 
L 146.402187 204.207535 
L 144.959355 203.602726 
L 143.267036 202.876379 
L 140.388243 201.615683 
L 140.131884 201.500668 
L 136.996733 200.063693 
L 136.06466 199.628641 
L 133.861581 198.574736 
L 131.942792 197.641599 
L 130.72643 197.03496 
L 128.000945 195.654557 
L 127.591278 195.441632 
L 124.456127 193.787424 
L 124.232123 193.667514 
L 121.320975 192.067609 
L 120.625239 191.680472 
L 118.185824 190.285891 
L 117.161367 189.69343 
L 115.050672 188.438395 
L 113.832672 187.706387 
L 111.915521 186.520799 
L 110.632239 185.719345 
L 108.780369 184.528263 
L 107.553976 183.732303 
L 105.645218 182.455352 
L 104.59253 181.74526 
L 102.510066 180.295939 
L 101.743217 179.758218 
L 99.374915 178.043096 
L 99.001967 177.771176 
L 96.367235 175.784134 
L 96.239763 175.684449 
L 93.840933 173.797091 
L 93.104612 173.196442 
L 91.414151 171.810049 
L 89.96946 170.579938 
L 89.084608 169.823007 
L 86.850685 167.835964 
L 86.834309 167.820729 
L 84.723222 165.848922 
L 83.699157 164.85053 
L 82.688398 163.86188 
L 80.747628 161.874837 
L 80.564006 161.676681 
L 78.910636 159.887795 
L 77.428854 158.202344 
L 77.164211 157.900753 
L 75.521694 155.913711 
L 74.293703 154.33917 
L 73.972383 153.926668 
L 72.527861 151.939626 
L 71.177671 149.952584 
L 71.158551 149.92197 
L 69.937317 147.965541 
L 68.796401 145.978499 
L 68.0234 144.496007 
L 67.760269 143.991457 
L 66.836017 142.004414 
L 66.019384 140.017372 
L 65.313652 138.03033 
L 64.888248 136.596955 
L 64.723776 136.043288 
L 64.254684 134.056245 
L 63.906123 132.069203 
L 63.68189 130.082161 
L 63.585941 128.095118 
L 63.622402 126.108076 
L 63.79558 124.121034 
L 64.109968 122.133991 
L 64.570261 120.146949 
L 64.888248 119.107463 
L 65.184377 118.159907 
L 65.959428 116.172865 
L 66.897657 114.185822 
L 68.004801 112.19878 
L 68.0234 112.169617 
L 69.301745 110.211738 
L 70.78265 108.224695 
L 71.158551 107.773567 
L 72.471083 106.237653 
L 74.293703 104.324718 
L 74.366232 104.250611 
L 76.499572 102.263568 
L 77.428854 101.472931 
L 78.876313 100.276526 
L 80.564006 98.993153 
L 81.518284 98.289484 
L 83.699157 96.800465 
L 84.452894 96.302442 
L 86.834309 94.837463 
L 87.713156 94.315399 
L 89.96946 93.061555 
L 91.339062 92.328357 
L 93.104612 91.440476 
L 95.37938 90.341315 
L 96.239763 89.949336 
L 99.374915 88.578315 
L 99.909216 88.354272 
L 102.510066 87.322009 
L 105.035684 86.36723 
L 105.645218 86.1485 
L 108.780369 85.073998 
L 110.916601 84.380188 
L 111.915521 84.071279 
L 115.050672 83.151544 
L 117.800119 82.393146 
L 118.185824 82.291568 
L 121.320975 81.512459 
L 124.456127 80.786379 
L 126.220341 80.406103 
L 127.591278 80.123172 
L 130.72643 79.523629 
L 133.861581 78.974632 
L 136.996733 78.476122 
L 137.393108 78.419061 
L 140.131884 78.040504 
L 143.267036 77.655275 
L 146.402187 77.318592 
L 149.537339 77.030447 
L 152.672491 76.79083 
L 155.807642 76.599735 
L 158.942794 76.457153 
L 159.775762 76.432019 
L 162.077945 76.365096 
L 165.213097 76.320828 
L 168.348248 76.323631 
L 171.4834 76.373528 
L 173.368233 76.432019 
L 174.618551 76.471672 
L 177.753703 76.620012 
L 180.888854 76.816815 
L 184.024006 77.062076 
L 187.159157 77.355787 
L 190.294309 77.697943 
L 193.42946 78.088538 
L 195.785671 78.419061 
L 196.564612 78.530678 
L 199.699763 79.031991 
L 202.834915 79.582899 
L 205.970066 80.183373 
L 207.039412 80.406103 
L 209.105218 80.845636 
L 212.240369 81.564982 
L 215.375521 82.334928 
L 215.596521 82.393146 
L 218.510672 83.177437 
L 221.645824 84.073247 
L 222.656722 84.380188 
L 224.780975 85.039355 
L 227.916127 86.067079 
L 228.782743 86.36723 
L 231.051278 87.170459 
L 234.18643 88.336271 
L 234.232389 88.354272 
L 237.321581 89.591665 
L 239.109638 90.341315 
L 240.456733 90.919173 
L 243.591884 92.325169 
L 243.598673 92.328357 
L 246.727036 93.831893 
L 247.691866 94.315399 
L 249.862187 95.429222 
L 251.495634 96.302442 
L 252.997339 97.125056 
L 255.039925 98.289484 
L 256.132491 98.928097 
L 258.351217 100.276526 
L 259.267642 100.847949 
L 261.452984 102.263568 
L 262.402794 102.895242 
L 264.366089 104.250611 
L 265.537945 105.081771 
L 267.109115 106.237653 
L 268.673097 107.420658 
L 269.698658 108.224695 
L 271.808248 109.926548 
L 272.149565 110.211738 
L 274.455156 112.19878 
L 274.9434 112.633122 
L 276.629271 114.185822 
L 278.078551 115.563448 
L 278.698214 116.172865 
L 280.649951 118.159907 
L 281.213703 118.755073 
L 282.488515 120.146949 
L 284.24462 122.133991 
L 284.348854 122.256987 
L 285.876947 124.121034 
L 287.444138 126.108076 
L 287.484006 126.161056 
L 288.892404 128.095118 
L 290.277332 130.082161 
L 290.619157 130.598425 
L 291.5619 132.069203 
L 292.771125 134.056245 
L 293.754309 135.763003 
L 293.910675 136.043288 
L 294.950649 138.03033 
L 295.926623 140.017372 
L 296.837416 142.004414 
L 296.88946 142.127597 
L 297.652099 143.991457 
L 298.39938 145.978499 
L 299.080013 147.965541 
L 299.692786 149.952584 
L 300.024612 151.168241 
L 300.22853 151.939626 
L 300.683963 153.926668 
L 301.070214 155.913711 
L 301.38604 157.900753 
L 301.630171 159.887795 
L 301.801303 161.874837 
L 301.898101 163.86188 
L 301.919198 165.848922 
L 301.863194 167.835964 
L 301.728653 169.823007 
L 301.514102 171.810049 
L 301.218034 173.797091 
L 300.838901 175.784134 
L 300.375118 177.771176 
L 300.024612 179.040275 
L 299.816576 179.758218 
L 299.151216 181.74526 
L 298.391965 183.732303 
L 297.536904 185.719345 
L 296.88946 187.072467 
L 296.570283 187.706387 
L 295.4697 189.69343 
L 294.261864 191.680472 
L 293.754309 192.449433 
L 292.905747 193.667514 
L 291.407179 195.654557 
L 290.619157 196.625132 
L 289.745574 197.641599 
L 287.91296 199.628641 
L 287.484006 200.064657 
L 285.863441 201.615683 
L 284.348854 202.975242 
L 283.604093 203.602726 
L 281.213703 205.498926 
L 281.091259 205.589768 
L 278.258147 207.57681 
L 278.078551 207.69616 
L 275.05919 209.563853 
L 274.9434 209.631878 
L 271.808248 211.340423 
L 271.389707 211.550895 
L 268.673097 212.852252 
L 267.111771 213.537937 
L 265.537945 214.197837 
L 262.402794 215.395539 
L 262.029783 215.524979 
L 259.267642 216.442347 
L 256.132491 217.375304 
L 255.618207 217.512022 
L 252.997339 218.180321 
L 249.862187 218.883039 
L 246.727036 219.491475 
L 246.681427 219.499064 
L 243.591884 219.993283 
L 240.456733 220.410205 
L 237.321581 220.745509 
L 234.18643 221.002131 
L 231.051278 221.182924 
L 227.916127 221.290652 
L 224.780975 221.328 
L 221.645824 221.297574 
L 218.510672 221.201903 
L 215.375521 221.043444 
L 212.240369 220.824583 
L 209.105218 220.547638 
L 205.970066 220.214863 
L 202.834915 219.828446 
z
" clip-path="url(#pb1fa2068cd)" style="fill: none; stroke: #433e85; stroke-opacity: 0.6; stroke-width: 1.5"/>
    <path d="M 42.942188 89.435326 
L 46.077339 87.30595 
L 49.212491 85.354027 
L 52.347642 83.550114 
L 55.482794 81.871276 
L 61.753097 78.836522 
L 64.888248 77.460058 
L 71.158551 74.930961 
L 74.293703 73.773389 
L 80.564006 71.641337 
L 86.834309 69.732195 
L 93.104612 68.024076 
L 99.384577 66.496807 
L 108.964724 64.509765 
L 118.185824 62.957014 
L 124.456127 62.088806 
L 133.861581 61.067005 
L 140.582488 60.53568 
L 149.537339 60.093189 
L 158.942794 59.946465 
L 168.348248 60.129103 
L 176.094492 60.53568 
L 180.888854 60.902659 
L 187.159157 61.52616 
L 194.938801 62.522723 
L 199.699763 63.260027 
L 206.616475 64.509765 
L 212.240369 65.69174 
L 218.510672 67.188303 
L 224.780975 68.884201 
L 231.051278 70.793562 
L 237.321581 72.931199 
L 243.591884 75.312656 
L 249.862187 77.95425 
L 256.132491 80.885213 
L 262.853851 84.380188 
L 268.673097 87.738138 
L 272.818417 90.341315 
L 278.078551 93.917875 
L 281.329035 96.302442 
L 286.323114 100.276526 
L 290.884204 104.250611 
L 295.022422 108.224695 
L 298.802828 112.19878 
L 302.247948 116.172865 
L 305.379043 120.146949 
L 308.21617 124.121034 
L 310.778243 128.095118 
L 313.08309 132.069203 
L 315.700369 137.245535 
L 316.927205 140.017372 
L 318.835521 144.941063 
L 319.823935 147.965541 
L 320.924171 151.939626 
L 321.970672 156.846727 
L 322.441871 159.887795 
L 322.848125 163.86188 
L 323.021792 167.835964 
L 322.956119 171.810049 
L 322.644092 175.784134 
L 321.970672 180.323152 
L 321.226008 183.732303 
L 320.090445 187.706387 
L 318.660404 191.680472 
L 316.874497 195.654557 
L 314.732077 199.628641 
L 312.183449 203.602726 
L 309.161234 207.57681 
L 305.583618 211.550895 
L 303.159763 213.917045 
L 300.024612 216.646091 
L 296.308777 219.499064 
L 293.405911 221.486106 
L 290.182706 223.473149 
L 286.574271 225.460191 
L 282.498064 227.447233 
L 277.831034 229.434276 
L 271.808248 231.582025 
L 265.485049 233.40836 
L 259.267642 234.823617 
L 252.997339 235.922341 
L 246.727036 236.71832 
L 240.456733 237.243922 
L 234.18643 237.512864 
L 227.916127 237.546792 
L 221.645824 237.363349 
L 215.375521 236.96846 
L 209.105218 236.379992 
L 201.329061 235.395402 
L 196.564612 234.658133 
L 189.618095 233.40836 
L 180.888854 231.55315 
L 172.335068 229.434276 
L 165.172422 227.447233 
L 155.807642 224.545516 
L 146.885438 221.486106 
L 140.131884 218.969286 
L 130.72643 215.187888 
L 121.320975 211.072538 
L 113.876541 207.57681 
L 105.645218 203.453512 
L 98.475486 199.628641 
L 89.96946 194.786467 
L 83.699157 190.994721 
L 77.428854 186.989855 
L 71.158551 182.747169 
L 66.95065 179.758218 
L 61.641845 175.784134 
L 55.482794 170.839142 
L 51.953852 167.835964 
L 47.572038 163.86188 
L 42.942187 159.305816 
L 42.942187 159.305816 
" clip-path="url(#pb1fa2068cd)" style="fill: none; stroke: #38588c; stroke-opacity: 0.6; stroke-width: 1.5"/>
    <path d="M 192.835398 247.317656 
L 184.024006 245.607421 
L 177.753703 244.221024 
L 168.348248 241.896992 
L 158.942794 239.286914 
L 149.537339 236.391146 
L 140.131884 233.233344 
L 129.742846 229.434276 
L 119.693889 225.460191 
L 110.310954 221.486106 
L 101.476357 217.512022 
L 93.103922 213.537937 
L 83.699157 208.817867 
L 74.293703 203.836909 
L 66.734688 199.628641 
L 56.575188 193.667514 
L 47.006133 187.706387 
L 42.942188 185.05661 
M 42.942188 63.682891 
L 49.212491 61.619982 
L 55.482794 59.714263 
L 64.888248 57.125849 
L 71.158551 55.570904 
L 80.564006 53.474531 
L 89.96946 51.651605 
L 96.099089 50.600469 
M 203.421467 50.600469 
L 212.240369 52.332597 
L 218.510672 53.763745 
L 224.780975 55.364492 
L 231.051278 57.146016 
L 237.321581 59.119956 
L 243.591884 61.298441 
L 249.862187 63.694115 
L 256.530398 66.496807 
L 262.402794 69.206004 
L 268.856469 72.457934 
L 275.978477 76.432019 
L 281.213703 79.627337 
L 285.425235 82.393146 
L 291.038572 86.36723 
L 296.88946 90.92103 
L 300.89425 94.315399 
L 305.241113 98.289484 
L 309.430066 102.442217 
L 312.949906 106.237653 
L 316.352862 110.211738 
L 319.487861 114.185822 
L 322.37044 118.159907 
L 325.105824 122.281942 
L 328.240975 127.561002 
L 329.596531 130.082161 
L 331.577317 134.056245 
L 333.333954 138.03033 
L 334.901373 142.004414 
L 336.257716 145.978499 
L 337.64643 150.777257 
L 338.397843 153.926668 
L 339.171494 157.900753 
L 339.754695 161.874837 
L 340.142784 165.848922 
L 340.330947 169.823007 
L 340.314208 173.797091 
L 340.087426 177.771176 
L 339.645289 181.74526 
L 338.982299 185.719345 
L 338.092773 189.69343 
L 336.948997 193.667514 
L 335.543992 197.641599 
L 333.864241 201.615683 
L 331.879471 205.589768 
L 330.762457 207.57681 
L 328.240975 211.596433 
L 325.105824 215.870635 
L 321.970672 219.58078 
L 318.180559 223.473149 
L 315.700369 225.755678 
L 311.18958 229.434276 
L 308.46654 231.421318 
L 305.498873 233.40836 
L 302.245055 235.395402 
L 298.654315 237.382445 
L 293.754309 239.795578 
L 290.169519 241.356529 
L 284.348854 243.576013 
L 278.078551 245.573487 
L 271.352176 247.317656 
L 271.352176 247.317656 
" clip-path="url(#pb1fa2068cd)" style="fill: none; stroke: #2d708e; stroke-opacity: 0.6; stroke-width: 1.5"/>
    <path d="M 145.519901 247.317656 
L 136.996733 244.546465 
L 127.591278 241.281728 
L 117.106881 237.382445 
L 105.645218 232.8232 
L 96.239763 228.858877 
L 86.834309 224.696612 
L 75.647623 219.499064 
L 63.480093 213.537937 
L 51.90467 207.57681 
L 42.942188 202.761333 
M 353.322187 192.016373 
L 352.423296 195.654557 
L 351.236744 199.628641 
L 349.824892 203.602726 
L 348.15435 207.57681 
L 346.225905 211.550895 
L 343.916733 215.69006 
L 341.475283 219.499064 
L 340.079643 221.486106 
L 337.005888 225.460191 
L 333.508394 229.434276 
L 329.527354 233.40836 
L 327.331559 235.395402 
L 324.987494 237.382445 
L 321.970672 239.735673 
L 318.835521 241.980442 
L 315.700369 244.043907 
L 312.565218 245.944025 
L 310.124453 247.317656 
M 247.85079 50.600469 
L 253.156038 52.587511 
L 259.267642 55.06982 
L 267.066962 58.548638 
L 271.808248 60.840951 
L 278.805544 64.509765 
L 285.709781 68.483849 
L 290.619157 71.54231 
L 296.88946 75.770049 
L 300.547782 78.419061 
L 306.294915 82.883434 
L 310.442147 86.36723 
L 315.700369 91.131553 
L 318.966035 94.315399 
L 322.770005 98.289484 
L 326.309351 102.263568 
L 329.598305 106.237653 
L 332.650424 110.211738 
L 335.47862 114.185822 
L 338.095182 118.159907 
L 340.781581 122.615283 
L 343.748518 128.095118 
L 345.665742 132.069203 
L 347.414009 136.043288 
L 349.691091 142.004414 
L 350.988627 145.978499 
L 352.113945 149.952584 
L 353.322187 155.091962 
L 353.322187 155.091962 
" clip-path="url(#pb1fa2068cd)" style="fill: none; stroke: #25858e; stroke-opacity: 0.6; stroke-width: 1.5"/>
    <path d="M 112.81131 247.317656 
L 111.915521 246.984914 
L 108.780369 245.809325 
L 107.514144 245.330614 
L 105.645218 244.614476 
L 102.510066 243.4052 
L 102.351627 243.343572 
L 99.374915 242.169898 
L 97.322678 241.356529 
L 96.239763 240.921387 
L 93.104612 239.654449 
L 92.403404 239.369487 
L 89.96946 238.366527 
L 87.589703 237.382445 
L 86.834309 237.065642 
L 83.699157 235.745215 
L 82.871541 235.395402 
L 80.564006 234.4061 
L 78.241261 233.40836 
L 77.428854 233.054319 
L 74.293703 231.684843 
L 73.691699 231.421318 
L 71.158551 230.296174 
L 69.21881 229.434276 
L 68.0234 228.895202 
L 64.888248 227.481407 
L 64.812561 227.447233 
L 61.753097 226.045069 
L 60.475467 225.460191 
L 58.617945 224.596865 
L 56.196199 223.473149 
L 55.482794 223.136989 
L 52.347642 221.661957 
L 51.973325 221.486106 
L 49.212491 220.168778 
L 47.804477 219.499064 
L 46.077339 218.664486 
L 43.68356 217.512022 
L 42.942188 217.149322 
M 353.322187 226.492711 
L 352.66433 227.447233 
L 351.234862 229.434276 
L 350.187036 230.830407 
L 349.727403 231.421318 
L 348.119453 233.40836 
L 347.051884 234.676192 
L 346.423505 235.395402 
L 344.620821 237.382445 
L 343.916733 238.130637 
L 342.705555 239.369487 
L 340.781581 241.266373 
L 340.68647 241.356529 
L 338.518742 243.343572 
L 337.64643 244.116233 
L 336.218372 245.330614 
L 334.511278 246.734683 
L 333.771992 247.317656 
M 274.806543 50.600469 
L 274.9434 50.665945 
L 278.078551 52.210701 
L 278.822197 52.587511 
L 281.213703 53.81594 
L 282.650592 54.574553 
L 284.348854 55.483642 
L 286.308731 56.561596 
L 287.484006 57.217135 
L 289.808131 58.548638 
L 290.619157 59.019933 
L 293.159478 60.53568 
L 293.754309 60.895757 
L 296.372704 62.522723 
L 296.88946 62.848547 
L 299.457037 64.509765 
L 300.024612 64.882479 
L 302.421059 66.496807 
L 303.159763 67.001982 
L 305.272757 68.483849 
L 306.294915 69.211758 
L 308.019565 70.470892 
L 309.430066 71.516804 
L 310.668408 72.457934 
L 312.565218 73.922437 
L 313.225741 74.444976 
L 315.697501 76.432019 
L 315.700369 76.434365 
L 318.068408 78.419061 
L 318.835521 79.072797 
L 320.363144 80.406103 
L 321.970672 81.833134 
L 322.586796 82.393146 
L 324.734093 84.380188 
L 325.105824 84.730702 
L 326.801203 86.36723 
L 328.240975 87.782217 
L 328.809714 88.354272 
L 330.74703 90.341315 
L 331.376127 90.999511 
L 332.617331 92.328357 
L 334.437917 94.315399 
L 334.511278 94.397263 
L 336.180029 96.302442 
L 337.64643 98.010423 
L 337.880667 98.289484 
L 339.510294 100.276526 
L 340.781581 101.860319 
L 341.098085 102.263568 
L 342.620054 104.250611 
L 343.916733 105.982551 
L 344.103519 106.237653 
L 345.520697 108.224695 
L 346.904153 110.211738 
L 347.051884 110.429955 
L 348.223096 112.19878 
L 349.504518 114.185822 
L 350.187036 115.274818 
L 350.737624 116.172865 
L 351.919822 118.159907 
L 353.067851 120.146949 
L 353.322187 120.601987 
" clip-path="url(#pb1fa2068cd)" style="fill: none; stroke: #1e9b8a; stroke-opacity: 0.6; stroke-width: 1.5"/>
    <path d="M 84.775656 247.317656 
L 83.699157 246.888129 
L 80.564006 245.63294 
L 79.811365 245.330614 
L 77.428854 244.361134 
L 74.931554 243.343572 
L 74.293703 243.080242 
L 71.158551 241.782946 
L 70.129328 241.356529 
L 68.0234 240.472416 
L 65.395942 239.369487 
L 64.888248 239.153499 
L 61.753097 237.818563 
L 60.728481 237.382445 
L 58.617945 236.471893 
L 56.11885 235.395402 
L 55.482794 235.117641 
L 52.347642 233.749794 
L 51.563802 233.40836 
L 49.212491 232.36989 
L 47.058204 231.421318 
L 46.077339 230.983328 
L 42.942188 229.587582 
M 353.322187 246.112846 
L 352.131109 247.317656 
M 295.520227 50.600469 
L 296.88946 51.395608 
L 298.891115 52.587511 
L 300.024612 53.271481 
L 302.13124 54.574553 
L 303.159763 55.219372 
L 305.248855 56.561596 
L 306.294915 57.242908 
L 308.251672 58.548638 
L 309.430066 59.345919 
L 311.146897 60.53568 
L 312.565218 61.532451 
L 313.941269 62.522723 
L 315.700369 63.806782 
L 316.641092 64.509765 
L 318.835521 66.173439 
L 319.252267 66.496807 
L 321.775119 68.483849 
L 321.970672 68.640289 
L 324.206815 70.470892 
L 325.105824 71.218095 
L 326.563913 72.457934 
L 328.240975 73.90608 
L 328.85113 74.444976 
L 331.064883 76.432019 
L 331.376127 76.716174 
L 333.200003 78.419061 
L 334.511278 79.663368 
L 335.276814 80.406103 
L 337.290101 82.393146 
L 337.64643 82.751294 
L 339.23173 84.380188 
L 340.781581 86.000195 
L 341.125147 86.36723 
L 342.94966 88.354272 
L 343.916733 89.427162 
L 344.723068 90.341315 
L 346.442125 92.328357 
L 347.051884 93.047565 
L 348.103904 94.315399 
L 349.720155 96.302442 
L 350.187036 96.888987 
L 351.278248 98.289484 
L 352.794307 100.276526 
L 353.322187 100.984321 
" clip-path="url(#pb1fa2068cd)" style="fill: none; stroke: #2ab07f; stroke-opacity: 0.6; stroke-width: 1.5"/>
    <path d="M 58.945637 247.317656 
L 58.617945 247.183719 
L 55.482794 245.901865 
L 54.08346 245.330614 
L 52.347642 244.613086 
L 49.268919 243.343572 
L 49.212491 243.320007 
L 46.077339 242.011808 
L 44.501721 241.356529 
L 42.942188 240.699607 
M 312.796399 50.600469 
L 315.700369 52.549646 
L 315.755506 52.587511 
L 318.610814 54.574553 
L 318.835521 54.733013 
L 321.370247 56.561596 
L 321.970672 57.000564 
L 324.040982 58.548638 
L 325.105824 59.355706 
L 326.628347 60.53568 
L 328.240975 61.802726 
L 329.137341 62.522723 
L 331.376127 64.346154 
L 331.572664 64.509765 
L 333.924118 66.496807 
L 334.511278 67.000297 
L 336.204202 68.483849 
L 337.64643 69.766252 
L 338.42203 70.470892 
L 340.57639 72.457934 
L 340.781581 72.650301 
L 342.655432 74.444976 
L 343.916733 75.671616 
L 344.682253 76.432019 
L 346.650496 78.419061 
L 347.051884 78.831294 
L 348.553366 80.406103 
L 350.187036 82.147417 
L 350.412824 82.393146 
L 352.205411 84.380188 
L 353.322187 85.639535 
" clip-path="url(#pb1fa2068cd)" style="fill: none; stroke: #52c569; stroke-opacity: 0.6; stroke-width: 1.5"/>
    <path d="M 327.797378 50.600469 
L 328.240975 50.925573 
L 330.460026 52.587511 
L 331.376127 53.282394 
L 333.043462 54.574553 
L 334.511278 55.72683 
L 335.552261 56.561596 
L 337.64643 58.262963 
L 337.99073 58.548638 
L 340.352664 60.53568 
L 340.781581 60.901584 
L 342.642517 62.522723 
L 343.916733 63.647985 
L 344.872552 64.509765 
L 347.046148 66.496807 
L 347.051884 66.502134 
L 349.142744 68.483849 
L 350.187036 69.487871 
L 351.188811 70.470892 
L 353.1842 72.457934 
L 353.322187 72.597608 
" clip-path="url(#pb1fa2068cd)" style="fill: none; stroke: #86d549; stroke-opacity: 0.6; stroke-width: 1.5"/>
    <path d="M 341.175876 50.600469 
L 343.623888 52.587511 
L 343.916733 52.828328 
L 345.997322 54.574553 
L 347.051884 55.470916 
L 348.30936 56.561596 
L 350.187036 58.211224 
L 350.563471 58.548638 
L 352.749963 60.53568 
L 353.322187 61.062903 
" clip-path="url(#pb1fa2068cd)" style="fill: none; stroke: #c2df23; stroke-opacity: 0.6; stroke-width: 1.5"/>
    <path clip-path="url(#pb1fa2068cd)" style="fill: none; stroke: #fde725; stroke-opacity: 0.6; stroke-width: 1.5"/>
   </g>
   <g id="line2d_15">
    <path d="M 53.288188 66.993568 
L 94.672188 89.943906 
L 172.267187 122.730104 
L 213.651187 155.516302 
L 203.305187 152.237682 
L 198.132187 148.959062 
" clip-path="url(#pb1fa2068cd)" style="fill: none; stroke: #e74c3c; stroke-width: 1.5; stroke-linecap: square"/>
    <defs>
     <path id="m743a54e4db" d="M 0 1.5 
C 0.397805 1.5 0.77937 1.341951 1.06066 1.06066 
C 1.341951 0.77937 1.5 0.397805 1.5 0 
C 1.5 -0.397805 1.341951 -0.77937 1.06066 -1.06066 
C 0.77937 -1.341951 0.397805 -1.5 0 -1.5 
C -0.397805 -1.5 -0.77937 -1.341951 -1.06066 -1.06066 
C -1.341951 -0.77937 -1.5 -0.397805 -1.5 0 
C -1.5 0.397805 -1.341951 0.77937 -1.06066 1.06066 
C -0.77937 1.341951 -0.397805 1.5 0 1.5 
z
" style="stroke: #e74c3c"/>
    </defs>
    <g clip-path="url(#pb1fa2068cd)">
     <use xlink:href="#m743a54e4db" x="53.288188" y="66.993568" style="fill: #e74c3c; stroke: #e74c3c"/>
     <use xlink:href="#m743a54e4db" x="94.672188" y="89.943906" style="fill: #e74c3c; stroke: #e74c3c"/>
     <use xlink:href="#m743a54e4db" x="172.267187" y="122.730104" style="fill: #e74c3c; stroke: #e74c3c"/>
     <use xlink:href="#m743a54e4db" x="213.651187" y="155.516302" style="fill: #e74c3c; stroke: #e74c3c"/>
     <use xlink:href="#m743a54e4db" x="203.305187" y="152.237682" style="fill: #e74c3c; stroke: #e74c3c"/>
     <use xlink:href="#m743a54e4db" x="198.132187" y="148.959062" style="fill: #e74c3c; stroke: #e74c3c"/>
    </g>
   </g>
   <g id="line2d_16">
    <path d="M 68.807187 83.386667 
L 136.056187 116.172865 
L 182.613187 142.401823 
L 198.132187 148.959062 
" clip-path="url(#pb1fa2068cd)" style="fill: none; stroke: #3498db; stroke-width: 2; stroke-linecap: square"/>
    <defs>
     <path id="m14ccf13d42" d="M -2 2 
L 2 2 
L 2 -2 
L -2 -2 
z
" style="stroke: #3498db; stroke-linejoin: miter"/>
    </defs>
    <g clip-path="url(#pb1fa2068cd)">
     <use xlink:href="#m14ccf13d42" x="68.807187" y="83.386667" style="fill: #3498db; stroke: #3498db; stroke-linejoin: miter"/>
     <use xlink:href="#m14ccf13d42" x="136.056187" y="116.172865" style="fill: #3498db; stroke: #3498db; stroke-linejoin: miter"/>
     <use xlink:href="#m14ccf13d42" x="182.613187" y="142.401823" style="fill: #3498db; stroke: #3498db; stroke-linejoin: miter"/>
     <use xlink:href="#m14ccf13d42" x="198.132187" y="148.959062" style="fill: #3498db; stroke: #3498db; stroke-linejoin: miter"/>
    </g>
   </g>
   <g id="patch_3">
    <path d="M 42.942188 247.317656 
L 42.942188 50.600469 
" style="fill: none; stroke: #000000; stroke-width: 0.8; stroke-linejoin: miter; stroke-linecap: square"/>
   </g>
   <g id="patch_4">
    <path d="M 353.322187 247.317656 
L 353.322187 50.600469 
" style="fill: none; stroke: #000000; stroke-width: 0.8; stroke-linejoin: miter; stroke-linecap: square"/>
   </g>
   <g id="patch_5">
    <path d="M 42.942188 247.317656 
L 353.322187 247.317656 
" style="fill: none; stroke: #000000; stroke-width: 0.8; stroke-linejoin: miter; stroke-linecap: square"/>
   </g>
   <g id="patch_6">
    <path d="M 42.942188 50.600469 
L 353.322187 50.600469 
" style="fill: none; stroke: #000000; stroke-width: 0.8; stroke-linejoin: miter; stroke-linecap: square"/>
   </g>
   <g id="text_17">
    <!-- GD Paths on Loss Surface -->
    <g style="fill: #1a1a1a" transform="translate(118.773203 44.600469) scale(0.11 -0.11)">
     <defs>
      <path id="DejaVuSans-Bold-2a" d="M 4781 347 
Q 4331 128 3847 18 
Q 3363 -91 2847 -91 
Q 1681 -91 1000 561 
Q 319 1213 319 2328 
Q 319 3456 1012 4103 
Q 1706 4750 2913 4750 
Q 3378 4750 3804 4662 
Q 4231 4575 4609 4403 
L 4609 3438 
Q 4219 3659 3833 3768 
Q 3447 3878 3059 3878 
Q 2341 3878 1952 3476 
Q 1563 3075 1563 2328 
Q 1563 1588 1938 1184 
Q 2313 781 3003 781 
Q 3191 781 3352 804 
Q 3513 828 3641 878 
L 3641 1784 
L 2906 1784 
L 2906 2591 
L 4781 2591 
L 4781 347 
z
" transform="scale(0.015625)"/>
      <path id="DejaVuSans-Bold-27" d="M 1791 3756 
L 1791 909 
L 2222 909 
Q 2959 909 3348 1275 
Q 3738 1641 3738 2338 
Q 3738 3031 3350 3393 
Q 2963 3756 2222 3756 
L 1791 3756 
z
M 588 4666 
L 1856 4666 
Q 2919 4666 3439 4514 
Q 3959 4363 4331 4000 
Q 4659 3684 4818 3271 
Q 4978 2859 4978 2338 
Q 4978 1809 4818 1395 
Q 4659 981 4331 666 
Q 3956 303 3431 151 
Q 2906 0 1856 0 
L 588 0 
L 588 4666 
z
" transform="scale(0.015625)"/>
      <path id="DejaVuSans-Bold-3" transform="scale(0.015625)"/>
      <path id="DejaVuSans-Bold-33" d="M 588 4666 
L 2584 4666 
Q 3475 4666 3951 4270 
Q 4428 3875 4428 3144 
Q 4428 2409 3951 2014 
Q 3475 1619 2584 1619 
L 1791 1619 
L 1791 0 
L 588 0 
L 588 4666 
z
M 1791 3794 
L 1791 2491 
L 2456 2491 
Q 2806 2491 2997 2661 
Q 3188 2831 3188 3144 
Q 3188 3456 2997 3625 
Q 2806 3794 2456 3794 
L 1791 3794 
z
" transform="scale(0.015625)"/>
      <path id="DejaVuSans-Bold-44" d="M 2106 1575 
Q 1756 1575 1579 1456 
Q 1403 1338 1403 1106 
Q 1403 894 1545 773 
Q 1688 653 1941 653 
Q 2256 653 2472 879 
Q 2688 1106 2688 1447 
L 2688 1575 
L 2106 1575 
z
M 3816 1997 
L 3816 0 
L 2688 0 
L 2688 519 
Q 2463 200 2181 54 
Q 1900 -91 1497 -91 
Q 953 -91 614 226 
Q 275 544 275 1050 
Q 275 1666 698 1953 
Q 1122 2241 2028 2241 
L 2688 2241 
L 2688 2328 
Q 2688 2594 2478 2717 
Q 2269 2841 1825 2841 
Q 1466 2841 1156 2769 
Q 847 2697 581 2553 
L 581 3406 
Q 941 3494 1303 3539 
Q 1666 3584 2028 3584 
Q 2975 3584 3395 3211 
Q 3816 2838 3816 1997 
z
" transform="scale(0.015625)"/>
      <path id="DejaVuSans-Bold-57" d="M 1759 4494 
L 1759 3500 
L 2913 3500 
L 2913 2700 
L 1759 2700 
L 1759 1216 
Q 1759 972 1856 886 
Q 1953 800 2241 800 
L 2816 800 
L 2816 0 
L 1856 0 
Q 1194 0 917 276 
Q 641 553 641 1216 
L 641 2700 
L 84 2700 
L 84 3500 
L 641 3500 
L 641 4494 
L 1759 4494 
z
" transform="scale(0.015625)"/>
      <path id="DejaVuSans-Bold-4b" d="M 4056 2131 
L 4056 0 
L 2931 0 
L 2931 347 
L 2931 1625 
Q 2931 2084 2911 2256 
Q 2891 2428 2841 2509 
Q 2775 2619 2662 2680 
Q 2550 2741 2406 2741 
Q 2056 2741 1856 2470 
Q 1656 2200 1656 1722 
L 1656 0 
L 538 0 
L 538 4863 
L 1656 4863 
L 1656 2988 
Q 1909 3294 2193 3439 
Q 2478 3584 2822 3584 
Q 3428 3584 3742 3212 
Q 4056 2841 4056 2131 
z
" transform="scale(0.015625)"/>
      <path id="DejaVuSans-Bold-56" d="M 3272 3391 
L 3272 2541 
Q 2913 2691 2578 2766 
Q 2244 2841 1947 2841 
Q 1628 2841 1473 2761 
Q 1319 2681 1319 2516 
Q 1319 2381 1436 2309 
Q 1553 2238 1856 2203 
L 2053 2175 
Q 2913 2066 3209 1816 
Q 3506 1566 3506 1031 
Q 3506 472 3093 190 
Q 2681 -91 1863 -91 
Q 1516 -91 1145 -36 
Q 775 19 384 128 
L 384 978 
Q 719 816 1070 734 
Q 1422 653 1784 653 
Q 2113 653 2278 743 
Q 2444 834 2444 1013 
Q 2444 1163 2330 1236 
Q 2216 1309 1875 1350 
L 1678 1375 
Q 931 1469 631 1722 
Q 331 1975 331 2491 
Q 331 3047 712 3315 
Q 1094 3584 1881 3584 
Q 2191 3584 2531 3537 
Q 2872 3491 3272 3391 
z
" transform="scale(0.015625)"/>
      <path id="DejaVuSans-Bold-52" d="M 2203 2784 
Q 1831 2784 1636 2517 
Q 1441 2250 1441 1747 
Q 1441 1244 1636 976 
Q 1831 709 2203 709 
Q 2569 709 2762 976 
Q 2956 1244 2956 1747 
Q 2956 2250 2762 2517 
Q 2569 2784 2203 2784 
z
M 2203 3584 
Q 3106 3584 3614 3096 
Q 4122 2609 4122 1747 
Q 4122 884 3614 396 
Q 3106 -91 2203 -91 
Q 1297 -91 786 396 
Q 275 884 275 1747 
Q 275 2609 786 3096 
Q 1297 3584 2203 3584 
z
" transform="scale(0.015625)"/>
      <path id="DejaVuSans-Bold-51" d="M 4056 2131 
L 4056 0 
L 2931 0 
L 2931 347 
L 2931 1631 
Q 2931 2084 2911 2256 
Q 2891 2428 2841 2509 
Q 2775 2619 2662 2680 
Q 2550 2741 2406 2741 
Q 2056 2741 1856 2470 
Q 1656 2200 1656 1722 
L 1656 0 
L 538 0 
L 538 3500 
L 1656 3500 
L 1656 2988 
Q 1909 3294 2193 3439 
Q 2478 3584 2822 3584 
Q 3428 3584 3742 3212 
Q 4056 2841 4056 2131 
z
" transform="scale(0.015625)"/>
      <path id="DejaVuSans-Bold-2f" d="M 588 4666 
L 1791 4666 
L 1791 909 
L 3903 909 
L 3903 0 
L 588 0 
L 588 4666 
z
" transform="scale(0.015625)"/>
      <path id="DejaVuSans-Bold-36" d="M 3834 4519 
L 3834 3531 
Q 3450 3703 3084 3790 
Q 2719 3878 2394 3878 
Q 1963 3878 1756 3759 
Q 1550 3641 1550 3391 
Q 1550 3203 1689 3098 
Q 1828 2994 2194 2919 
L 2706 2816 
Q 3484 2659 3812 2340 
Q 4141 2022 4141 1434 
Q 4141 663 3683 286 
Q 3225 -91 2284 -91 
Q 1841 -91 1394 -6 
Q 947 78 500 244 
L 500 1259 
Q 947 1022 1364 901 
Q 1781 781 2169 781 
Q 2563 781 2772 912 
Q 2981 1044 2981 1288 
Q 2981 1506 2839 1625 
Q 2697 1744 2272 1838 
L 1806 1941 
Q 1106 2091 782 2419 
Q 459 2747 459 3303 
Q 459 4000 909 4375 
Q 1359 4750 2203 4750 
Q 2588 4750 2994 4692 
Q 3400 4634 3834 4519 
z
" transform="scale(0.015625)"/>
      <path id="DejaVuSans-Bold-58" d="M 500 1363 
L 500 3500 
L 1625 3500 
L 1625 3150 
Q 1625 2866 1622 2436 
Q 1619 2006 1619 1863 
Q 1619 1441 1641 1255 
Q 1663 1069 1716 984 
Q 1784 875 1895 815 
Q 2006 756 2150 756 
Q 2500 756 2700 1025 
Q 2900 1294 2900 1772 
L 2900 3500 
L 4019 3500 
L 4019 0 
L 2900 0 
L 2900 506 
Q 2647 200 2364 54 
Q 2081 -91 1741 -91 
Q 1134 -91 817 281 
Q 500 653 500 1363 
z
" transform="scale(0.015625)"/>
      <path id="DejaVuSans-Bold-55" d="M 3138 2547 
Q 2991 2616 2845 2648 
Q 2700 2681 2553 2681 
Q 2122 2681 1889 2404 
Q 1656 2128 1656 1613 
L 1656 0 
L 538 0 
L 538 3500 
L 1656 3500 
L 1656 2925 
Q 1872 3269 2151 3426 
Q 2431 3584 2822 3584 
Q 2878 3584 2943 3579 
Q 3009 3575 3134 3559 
L 3138 2547 
z
" transform="scale(0.015625)"/>
      <path id="DejaVuSans-Bold-49" d="M 2841 4863 
L 2841 4128 
L 2222 4128 
Q 1984 4128 1890 4042 
Q 1797 3956 1797 3744 
L 1797 3500 
L 2753 3500 
L 2753 2700 
L 1797 2700 
L 1797 0 
L 678 0 
L 678 2700 
L 122 2700 
L 122 3500 
L 678 3500 
L 678 3744 
Q 678 4316 997 4589 
Q 1316 4863 1984 4863 
L 2841 4863 
z
" transform="scale(0.015625)"/>
      <path id="DejaVuSans-Bold-46" d="M 3366 3391 
L 3366 2478 
Q 3138 2634 2908 2709 
Q 2678 2784 2431 2784 
Q 1963 2784 1702 2511 
Q 1441 2238 1441 1747 
Q 1441 1256 1702 982 
Q 1963 709 2431 709 
Q 2694 709 2930 787 
Q 3166 866 3366 1019 
L 3366 103 
Q 3103 6 2833 -42 
Q 2563 -91 2291 -91 
Q 1344 -91 809 395 
Q 275 881 275 1747 
Q 275 2613 809 3098 
Q 1344 3584 2291 3584 
Q 2566 3584 2833 3536 
Q 3100 3488 3366 3391 
z
" transform="scale(0.015625)"/>
      <path id="DejaVuSans-Bold-48" d="M 4031 1759 
L 4031 1441 
L 1416 1441 
Q 1456 1047 1700 850 
Q 1944 653 2381 653 
Q 2734 653 3104 758 
Q 3475 863 3866 1075 
L 3866 213 
Q 3469 63 3072 -14 
Q 2675 -91 2278 -91 
Q 1328 -91 801 392 
Q 275 875 275 1747 
Q 275 2603 792 3093 
Q 1309 3584 2216 3584 
Q 3041 3584 3536 3087 
Q 4031 2591 4031 1759 
z
M 2881 2131 
Q 2881 2450 2695 2645 
Q 2509 2841 2209 2841 
Q 1884 2841 1681 2658 
Q 1478 2475 1428 2131 
L 2881 2131 
z
" transform="scale(0.015625)"/>
     </defs>
     <use xlink:href="#DejaVuSans-Bold-2a"/>
     <use xlink:href="#DejaVuSans-Bold-27" transform="translate(82.078125 0)"/>
     <use xlink:href="#DejaVuSans-Bold-3" transform="translate(165.09375 0)"/>
     <use xlink:href="#DejaVuSans-Bold-33" transform="translate(199.90625 0)"/>
     <use xlink:href="#DejaVuSans-Bold-44" transform="translate(270.515625 0)"/>
     <use xlink:href="#DejaVuSans-Bold-57" transform="translate(338 0)"/>
     <use xlink:href="#DejaVuSans-Bold-4b" transform="translate(385.796875 0)"/>
     <use xlink:href="#DejaVuSans-Bold-56" transform="translate(456.984375 0)"/>
     <use xlink:href="#DejaVuSans-Bold-3" transform="translate(516.5 0)"/>
     <use xlink:href="#DejaVuSans-Bold-52" transform="translate(551.3125 0)"/>
     <use xlink:href="#DejaVuSans-Bold-51" transform="translate(620.015625 0)"/>
     <use xlink:href="#DejaVuSans-Bold-3" transform="translate(691.203125 0)"/>
     <use xlink:href="#DejaVuSans-Bold-2f" transform="translate(726.015625 0)"/>
     <use xlink:href="#DejaVuSans-Bold-52" transform="translate(789.734375 0)"/>
     <use xlink:href="#DejaVuSans-Bold-56" transform="translate(858.4375 0)"/>
     <use xlink:href="#DejaVuSans-Bold-56" transform="translate(917.953125 0)"/>
     <use xlink:href="#DejaVuSans-Bold-3" transform="translate(977.46875 0)"/>
     <use xlink:href="#DejaVuSans-Bold-36" transform="translate(1012.28125 0)"/>
     <use xlink:href="#DejaVuSans-Bold-58" transform="translate(1084.296875 0)"/>
     <use xlink:href="#DejaVuSans-Bold-55" transform="translate(1155.484375 0)"/>
     <use xlink:href="#DejaVuSans-Bold-49" transform="translate(1204.796875 0)"/>
     <use xlink:href="#DejaVuSans-Bold-44" transform="translate(1248.296875 0)"/>
     <use xlink:href="#DejaVuSans-Bold-46" transform="translate(1315.78125 0)"/>
     <use xlink:href="#DejaVuSans-Bold-48" transform="translate(1375.0625 0)"/>
    </g>
   </g>
   <g id="PathCollection_1">
    <defs>
     <path id="mdbd5a95e73" d="M 0 -5 
L -1.12257 -1.545085 
L -4.755283 -1.545085 
L -1.816356 0.59017 
L -2.938926 4.045085 
L -0 1.90983 
L 2.938926 4.045085 
L 1.816356 0.59017 
L 4.755283 -1.545085 
L 1.12257 -1.545085 
z
" style="stroke: #2ecc71"/>
    </defs>
    <g clip-path="url(#pb1fa2068cd)">
     <use xlink:href="#mdbd5a95e73" x="198.132187" y="148.959062" style="fill: #2ecc71; stroke: #2ecc71"/>
    </g>
   </g>
   <g id="legend_1">
    <g id="patch_7">
     <path d="M 274.809687 93.002344 
L 347.722187 93.002344 
Q 349.322187 93.002344 349.322187 91.402344 
L 349.322187 56.200469 
Q 349.322187 54.600469 347.722187 54.600469 
L 274.809687 54.600469 
Q 273.209687 54.600469 273.209687 56.200469 
L 273.209687 91.402344 
Q 273.209687 93.002344 274.809687 93.002344 
z
" style="fill: #ffffff; opacity: 0.9; stroke: #cccccc; stroke-linejoin: miter"/>
    </g>
    <g id="line2d_17">
     <path d="M 276.409687 61.079219 
L 284.409687 61.079219 
L 292.409687 61.079219 
" style="fill: none; stroke: #e74c3c; stroke-width: 1.5; stroke-linecap: square"/>
     <g>
      <use xlink:href="#m743a54e4db" x="284.409687" y="61.079219" style="fill: #e74c3c; stroke: #e74c3c"/>
     </g>
    </g>
    <g id="text_18">
     <!-- SGD (noisy) -->
     <g style="fill: #1a1a1a" transform="translate(298.809687 63.879219) scale(0.08 -0.08)">
      <defs>
       <path id="DejaVuSans-36" d="M 3425 4513 
L 3425 3897 
Q 3066 4069 2747 4153 
Q 2428 4238 2131 4238 
Q 1616 4238 1336 4038 
Q 1056 3838 1056 3469 
Q 1056 3159 1242 3001 
Q 1428 2844 1947 2747 
L 2328 2669 
Q 3034 2534 3370 2195 
Q 3706 1856 3706 1288 
Q 3706 609 3251 259 
Q 2797 -91 1919 -91 
Q 1588 -91 1214 -16 
Q 841 59 441 206 
L 441 856 
Q 825 641 1194 531 
Q 1563 422 1919 422 
Q 2459 422 2753 634 
Q 3047 847 3047 1241 
Q 3047 1584 2836 1778 
Q 2625 1972 2144 2069 
L 1759 2144 
Q 1053 2284 737 2584 
Q 422 2884 422 3419 
Q 422 4038 858 4394 
Q 1294 4750 2059 4750 
Q 2388 4750 2728 4690 
Q 3069 4631 3425 4513 
z
" transform="scale(0.015625)"/>
       <path id="DejaVuSans-2a" d="M 3809 666 
L 3809 1919 
L 2778 1919 
L 2778 2438 
L 4434 2438 
L 4434 434 
Q 4069 175 3628 42 
Q 3188 -91 2688 -91 
Q 1594 -91 976 548 
Q 359 1188 359 2328 
Q 359 3472 976 4111 
Q 1594 4750 2688 4750 
Q 3144 4750 3555 4637 
Q 3966 4525 4313 4306 
L 4313 3634 
Q 3963 3931 3569 4081 
Q 3175 4231 2741 4231 
Q 1884 4231 1454 3753 
Q 1025 3275 1025 2328 
Q 1025 1384 1454 906 
Q 1884 428 2741 428 
Q 3075 428 3337 486 
Q 3600 544 3809 666 
z
" transform="scale(0.015625)"/>
       <path id="DejaVuSans-27" d="M 1259 4147 
L 1259 519 
L 2022 519 
Q 2988 519 3436 956 
Q 3884 1394 3884 2338 
Q 3884 3275 3436 3711 
Q 2988 4147 2022 4147 
L 1259 4147 
z
M 628 4666 
L 1925 4666 
Q 3281 4666 3915 4102 
Q 4550 3538 4550 2338 
Q 4550 1131 3912 565 
Q 3275 0 1925 0 
L 628 0 
L 628 4666 
z
" transform="scale(0.015625)"/>
       <path id="DejaVuSans-3" transform="scale(0.015625)"/>
       <path id="DejaVuSans-b" d="M 1984 4856 
Q 1566 4138 1362 3434 
Q 1159 2731 1159 2009 
Q 1159 1288 1364 580 
Q 1569 -128 1984 -844 
L 1484 -844 
Q 1016 -109 783 600 
Q 550 1309 550 2009 
Q 550 2706 781 3412 
Q 1013 4119 1484 4856 
L 1984 4856 
z
" transform="scale(0.015625)"/>
       <path id="DejaVuSans-51" d="M 3513 2113 
L 3513 0 
L 2938 0 
L 2938 2094 
Q 2938 2591 2744 2837 
Q 2550 3084 2163 3084 
Q 1697 3084 1428 2787 
Q 1159 2491 1159 1978 
L 1159 0 
L 581 0 
L 581 3500 
L 1159 3500 
L 1159 2956 
Q 1366 3272 1645 3428 
Q 1925 3584 2291 3584 
Q 2894 3584 3203 3211 
Q 3513 2838 3513 2113 
z
" transform="scale(0.015625)"/>
       <path id="DejaVuSans-52" d="M 1959 3097 
Q 1497 3097 1228 2736 
Q 959 2375 959 1747 
Q 959 1119 1226 758 
Q 1494 397 1959 397 
Q 2419 397 2687 759 
Q 2956 1122 2956 1747 
Q 2956 2369 2687 2733 
Q 2419 3097 1959 3097 
z
M 1959 3584 
Q 2709 3584 3137 3096 
Q 3566 2609 3566 1747 
Q 3566 888 3137 398 
Q 2709 -91 1959 -91 
Q 1206 -91 779 398 
Q 353 888 353 1747 
Q 353 2609 779 3096 
Q 1206 3584 1959 3584 
z
" transform="scale(0.015625)"/>
       <path id="DejaVuSans-4c" d="M 603 3500 
L 1178 3500 
L 1178 0 
L 603 0 
L 603 3500 
z
M 603 4863 
L 1178 4863 
L 1178 4134 
L 603 4134 
L 603 4863 
z
" transform="scale(0.015625)"/>
       <path id="DejaVuSans-56" d="M 2834 3397 
L 2834 2853 
Q 2591 2978 2328 3040 
Q 2066 3103 1784 3103 
Q 1356 3103 1142 2972 
Q 928 2841 928 2578 
Q 928 2378 1081 2264 
Q 1234 2150 1697 2047 
L 1894 2003 
Q 2506 1872 2764 1633 
Q 3022 1394 3022 966 
Q 3022 478 2636 193 
Q 2250 -91 1575 -91 
Q 1294 -91 989 -36 
Q 684 19 347 128 
L 347 722 
Q 666 556 975 473 
Q 1284 391 1588 391 
Q 1994 391 2212 530 
Q 2431 669 2431 922 
Q 2431 1156 2273 1281 
Q 2116 1406 1581 1522 
L 1381 1569 
Q 847 1681 609 1914 
Q 372 2147 372 2553 
Q 372 3047 722 3315 
Q 1072 3584 1716 3584 
Q 2034 3584 2315 3537 
Q 2597 3491 2834 3397 
z
" transform="scale(0.015625)"/>
       <path id="DejaVuSans-5c" d="M 2059 -325 
Q 1816 -950 1584 -1140 
Q 1353 -1331 966 -1331 
L 506 -1331 
L 506 -850 
L 844 -850 
Q 1081 -850 1212 -737 
Q 1344 -625 1503 -206 
L 1606 56 
L 191 3500 
L 800 3500 
L 1894 763 
L 2988 3500 
L 3597 3500 
L 2059 -325 
z
" transform="scale(0.015625)"/>
       <path id="DejaVuSans-c" d="M 513 4856 
L 1013 4856 
Q 1481 4119 1714 3412 
Q 1947 2706 1947 2009 
Q 1947 1309 1714 600 
Q 1481 -109 1013 -844 
L 513 -844 
Q 928 -128 1133 580 
Q 1338 1288 1338 2009 
Q 1338 2731 1133 3434 
Q 928 4138 513 4856 
z
" transform="scale(0.015625)"/>
      </defs>
      <use xlink:href="#DejaVuSans-36"/>
      <use xlink:href="#DejaVuSans-2a" transform="translate(63.484375 0)"/>
      <use xlink:href="#DejaVuSans-27" transform="translate(140.96875 0)"/>
      <use xlink:href="#DejaVuSans-3" transform="translate(217.96875 0)"/>
      <use xlink:href="#DejaVuSans-b" transform="translate(249.75 0)"/>
      <use xlink:href="#DejaVuSans-51" transform="translate(288.765625 0)"/>
      <use xlink:href="#DejaVuSans-52" transform="translate(352.140625 0)"/>
      <use xlink:href="#DejaVuSans-4c" transform="translate(413.328125 0)"/>
      <use xlink:href="#DejaVuSans-56" transform="translate(441.109375 0)"/>
      <use xlink:href="#DejaVuSans-5c" transform="translate(493.203125 0)"/>
      <use xlink:href="#DejaVuSans-c" transform="translate(552.390625 0)"/>
     </g>
    </g>
    <g id="line2d_18">
     <path d="M 276.409687 73.079844 
L 284.409687 73.079844 
L 292.409687 73.079844 
" style="fill: none; stroke: #3498db; stroke-width: 2; stroke-linecap: square"/>
     <g>
      <use xlink:href="#m14ccf13d42" x="284.409687" y="73.079844" style="fill: #3498db; stroke: #3498db; stroke-linejoin: miter"/>
     </g>
    </g>
    <g id="text_19">
     <!-- Batch GD -->
     <g style="fill: #1a1a1a" transform="translate(298.809687 75.879844) scale(0.08 -0.08)">
      <defs>
       <path id="DejaVuSans-25" d="M 1259 2228 
L 1259 519 
L 2272 519 
Q 2781 519 3026 730 
Q 3272 941 3272 1375 
Q 3272 1813 3026 2020 
Q 2781 2228 2272 2228 
L 1259 2228 
z
M 1259 4147 
L 1259 2741 
L 2194 2741 
Q 2656 2741 2882 2914 
Q 3109 3088 3109 3444 
Q 3109 3797 2882 3972 
Q 2656 4147 2194 4147 
L 1259 4147 
z
M 628 4666 
L 2241 4666 
Q 2963 4666 3353 4366 
Q 3744 4066 3744 3513 
Q 3744 3084 3544 2831 
Q 3344 2578 2956 2516 
Q 3422 2416 3680 2098 
Q 3938 1781 3938 1306 
Q 3938 681 3513 340 
Q 3088 0 2303 0 
L 628 0 
L 628 4666 
z
" transform="scale(0.015625)"/>
       <path id="DejaVuSans-44" d="M 2194 1759 
Q 1497 1759 1228 1600 
Q 959 1441 959 1056 
Q 959 750 1161 570 
Q 1363 391 1709 391 
Q 2188 391 2477 730 
Q 2766 1069 2766 1631 
L 2766 1759 
L 2194 1759 
z
M 3341 1997 
L 3341 0 
L 2766 0 
L 2766 531 
Q 2569 213 2275 61 
Q 1981 -91 1556 -91 
Q 1019 -91 701 211 
Q 384 513 384 1019 
Q 384 1609 779 1909 
Q 1175 2209 1959 2209 
L 2766 2209 
L 2766 2266 
Q 2766 2663 2505 2880 
Q 2244 3097 1772 3097 
Q 1472 3097 1187 3025 
Q 903 2953 641 2809 
L 641 3341 
Q 956 3463 1253 3523 
Q 1550 3584 1831 3584 
Q 2591 3584 2966 3190 
Q 3341 2797 3341 1997 
z
" transform="scale(0.015625)"/>
       <path id="DejaVuSans-57" d="M 1172 4494 
L 1172 3500 
L 2356 3500 
L 2356 3053 
L 1172 3053 
L 1172 1153 
Q 1172 725 1289 603 
Q 1406 481 1766 481 
L 2356 481 
L 2356 0 
L 1766 0 
Q 1100 0 847 248 
Q 594 497 594 1153 
L 594 3053 
L 172 3053 
L 172 3500 
L 594 3500 
L 594 4494 
L 1172 4494 
z
" transform="scale(0.015625)"/>
       <path id="DejaVuSans-46" d="M 3122 3366 
L 3122 2828 
Q 2878 2963 2633 3030 
Q 2388 3097 2138 3097 
Q 1578 3097 1268 2742 
Q 959 2388 959 1747 
Q 959 1106 1268 751 
Q 1578 397 2138 397 
Q 2388 397 2633 464 
Q 2878 531 3122 666 
L 3122 134 
Q 2881 22 2623 -34 
Q 2366 -91 2075 -91 
Q 1284 -91 818 406 
Q 353 903 353 1747 
Q 353 2603 823 3093 
Q 1294 3584 2113 3584 
Q 2378 3584 2631 3529 
Q 2884 3475 3122 3366 
z
" transform="scale(0.015625)"/>
       <path id="DejaVuSans-4b" d="M 3513 2113 
L 3513 0 
L 2938 0 
L 2938 2094 
Q 2938 2591 2744 2837 
Q 2550 3084 2163 3084 
Q 1697 3084 1428 2787 
Q 1159 2491 1159 1978 
L 1159 0 
L 581 0 
L 581 4863 
L 1159 4863 
L 1159 2956 
Q 1366 3272 1645 3428 
Q 1925 3584 2291 3584 
Q 2894 3584 3203 3211 
Q 3513 2838 3513 2113 
z
" transform="scale(0.015625)"/>
      </defs>
      <use xlink:href="#DejaVuSans-25"/>
      <use xlink:href="#DejaVuSans-44" transform="translate(68.609375 0)"/>
      <use xlink:href="#DejaVuSans-57" transform="translate(129.890625 0)"/>
      <use xlink:href="#DejaVuSans-46" transform="translate(169.09375 0)"/>
      <use xlink:href="#DejaVuSans-4b" transform="translate(224.078125 0)"/>
      <use xlink:href="#DejaVuSans-3" transform="translate(287.453125 0)"/>
      <use xlink:href="#DejaVuSans-2a" transform="translate(319.234375 0)"/>
      <use xlink:href="#DejaVuSans-27" transform="translate(396.71875 0)"/>
     </g>
    </g>
    <g id="PathCollection_2">
     <g>
      <use xlink:href="#mdbd5a95e73" x="284.409687" y="85.780469" style="fill: #2ecc71; stroke: #2ecc71"/>
     </g>
    </g>
    <g id="text_20">
     <!-- Minimum -->
     <g style="fill: #1a1a1a" transform="translate(298.809687 87.880469) scale(0.08 -0.08)">
      <defs>
       <path id="DejaVuSans-30" d="M 628 4666 
L 1569 4666 
L 2759 1491 
L 3956 4666 
L 4897 4666 
L 4897 0 
L 4281 0 
L 4281 4097 
L 3078 897 
L 2444 897 
L 1241 4097 
L 1241 0 
L 628 0 
L 628 4666 
z
" transform="scale(0.015625)"/>
       <path id="DejaVuSans-50" d="M 3328 2828 
Q 3544 3216 3844 3400 
Q 4144 3584 4550 3584 
Q 5097 3584 5394 3201 
Q 5691 2819 5691 2113 
L 5691 0 
L 5113 0 
L 5113 2094 
Q 5113 2597 4934 2840 
Q 4756 3084 4391 3084 
Q 3944 3084 3684 2787 
Q 3425 2491 3425 1978 
L 3425 0 
L 2847 0 
L 2847 2094 
Q 2847 2600 2669 2842 
Q 2491 3084 2119 3084 
Q 1678 3084 1418 2786 
Q 1159 2488 1159 1978 
L 1159 0 
L 581 0 
L 581 3500 
L 1159 3500 
L 1159 2956 
Q 1356 3278 1631 3431 
Q 1906 3584 2284 3584 
Q 2666 3584 2933 3390 
Q 3200 3197 3328 2828 
z
" transform="scale(0.015625)"/>
       <path id="DejaVuSans-58" d="M 544 1381 
L 544 3500 
L 1119 3500 
L 1119 1403 
Q 1119 906 1312 657 
Q 1506 409 1894 409 
Q 2359 409 2629 706 
Q 2900 1003 2900 1516 
L 2900 3500 
L 3475 3500 
L 3475 0 
L 2900 0 
L 2900 538 
Q 2691 219 2414 64 
Q 2138 -91 1772 -91 
Q 1169 -91 856 284 
Q 544 659 544 1381 
z
M 1991 3584 
L 1991 3584 
z
" transform="scale(0.015625)"/>
      </defs>
      <use xlink:href="#DejaVuSans-30"/>
      <use xlink:href="#DejaVuSans-4c" transform="translate(86.28125 0)"/>
      <use xlink:href="#DejaVuSans-51" transform="translate(114.0625 0)"/>
      <use xlink:href="#DejaVuSans-4c" transform="translate(177.4375 0)"/>
      <use xlink:href="#DejaVuSans-50" transform="translate(205.21875 0)"/>
      <use xlink:href="#DejaVuSans-58" transform="translate(302.625 0)"/>
      <use xlink:href="#DejaVuSans-50" transform="translate(366 0)"/>
     </g>
    </g>
   </g>
  </g>
  <g id="axes_2">
   <g id="patch_8">
    <path d="M 394.842187 247.317656 
L 705.222188 247.317656 
L 705.222188 50.600469 
L 394.842187 50.600469 
L 394.842187 247.317656 
z
" style="fill: none"/>
   </g>
   <g id="matplotlib.axis_3">
    <g id="xtick_8">
     <g id="line2d_19">
      <g>
       <use xlink:href="#m75d4e066be" x="399.220589" y="247.317656" style="fill: #1a1a1a; stroke: #1a1a1a; stroke-width: 0.8"/>
      </g>
     </g>
     <g id="text_21">
      <!-- 0 -->
      <g style="fill: #1a1a1a" transform="translate(396.039339 261.915313) scale(0.1 -0.1)">
       <use xlink:href="#DejaVuSans-13"/>
      </g>
     </g>
    </g>
    <g id="xtick_9">
     <g id="line2d_20">
      <g>
       <use xlink:href="#m75d4e066be" x="447.869492" y="247.317656" style="fill: #1a1a1a; stroke: #1a1a1a; stroke-width: 0.8"/>
      </g>
     </g>
     <g id="text_22">
      <!-- 5 -->
      <g style="fill: #1a1a1a" transform="translate(444.688242 261.915313) scale(0.1 -0.1)">
       <defs>
        <path id="DejaVuSans-18" d="M 691 4666 
L 3169 4666 
L 3169 4134 
L 1269 4134 
L 1269 2991 
Q 1406 3038 1543 3061 
Q 1681 3084 1819 3084 
Q 2600 3084 3056 2656 
Q 3513 2228 3513 1497 
Q 3513 744 3044 326 
Q 2575 -91 1722 -91 
Q 1428 -91 1123 -41 
Q 819 9 494 109 
L 494 744 
Q 775 591 1075 516 
Q 1375 441 1709 441 
Q 2250 441 2565 725 
Q 2881 1009 2881 1497 
Q 2881 1984 2565 2268 
Q 2250 2553 1709 2553 
Q 1456 2553 1204 2497 
Q 953 2441 691 2322 
L 691 4666 
z
" transform="scale(0.015625)"/>
       </defs>
       <use xlink:href="#DejaVuSans-18"/>
      </g>
     </g>
    </g>
    <g id="xtick_10">
     <g id="line2d_21">
      <g>
       <use xlink:href="#m75d4e066be" x="496.518394" y="247.317656" style="fill: #1a1a1a; stroke: #1a1a1a; stroke-width: 0.8"/>
      </g>
     </g>
     <g id="text_23">
      <!-- 10 -->
      <g style="fill: #1a1a1a" transform="translate(490.155894 261.915313) scale(0.1 -0.1)">
       <use xlink:href="#DejaVuSans-14"/>
       <use xlink:href="#DejaVuSans-13" transform="translate(63.625 0)"/>
      </g>
     </g>
    </g>
    <g id="xtick_11">
     <g id="line2d_22">
      <g>
       <use xlink:href="#m75d4e066be" x="545.167297" y="247.317656" style="fill: #1a1a1a; stroke: #1a1a1a; stroke-width: 0.8"/>
      </g>
     </g>
     <g id="text_24">
      <!-- 15 -->
      <g style="fill: #1a1a1a" transform="translate(538.804797 261.915313) scale(0.1 -0.1)">
       <use xlink:href="#DejaVuSans-14"/>
       <use xlink:href="#DejaVuSans-18" transform="translate(63.625 0)"/>
      </g>
     </g>
    </g>
    <g id="xtick_12">
     <g id="line2d_23">
      <g>
       <use xlink:href="#m75d4e066be" x="593.8162" y="247.317656" style="fill: #1a1a1a; stroke: #1a1a1a; stroke-width: 0.8"/>
      </g>
     </g>
     <g id="text_25">
      <!-- 20 -->
      <g style="fill: #1a1a1a" transform="translate(587.4537 261.915313) scale(0.1 -0.1)">
       <use xlink:href="#DejaVuSans-15"/>
       <use xlink:href="#DejaVuSans-13" transform="translate(63.625 0)"/>
      </g>
     </g>
    </g>
    <g id="xtick_13">
     <g id="line2d_24">
      <g>
       <use xlink:href="#m75d4e066be" x="642.465103" y="247.317656" style="fill: #1a1a1a; stroke: #1a1a1a; stroke-width: 0.8"/>
      </g>
     </g>
     <g id="text_26">
      <!-- 25 -->
      <g style="fill: #1a1a1a" transform="translate(636.102603 261.915313) scale(0.1 -0.1)">
       <use xlink:href="#DejaVuSans-15"/>
       <use xlink:href="#DejaVuSans-18" transform="translate(63.625 0)"/>
      </g>
     </g>
    </g>
    <g id="xtick_14">
     <g id="line2d_25">
      <g>
       <use xlink:href="#m75d4e066be" x="691.114006" y="247.317656" style="fill: #1a1a1a; stroke: #1a1a1a; stroke-width: 0.8"/>
      </g>
     </g>
     <g id="text_27">
      <!-- 30 -->
      <g style="fill: #1a1a1a" transform="translate(684.751506 261.915313) scale(0.1 -0.1)">
       <use xlink:href="#DejaVuSans-16"/>
       <use xlink:href="#DejaVuSans-13" transform="translate(63.625 0)"/>
      </g>
     </g>
    </g>
    <g id="text_28">
     <!-- Epoch -->
     <g style="fill: #1a1a1a" transform="translate(534.72125 275.916094) scale(0.1 -0.1)">
      <defs>
       <path id="DejaVuSans-28" d="M 628 4666 
L 3578 4666 
L 3578 4134 
L 1259 4134 
L 1259 2753 
L 3481 2753 
L 3481 2222 
L 1259 2222 
L 1259 531 
L 3634 531 
L 3634 0 
L 628 0 
L 628 4666 
z
" transform="scale(0.015625)"/>
       <path id="DejaVuSans-53" d="M 1159 525 
L 1159 -1331 
L 581 -1331 
L 581 3500 
L 1159 3500 
L 1159 2969 
Q 1341 3281 1617 3432 
Q 1894 3584 2278 3584 
Q 2916 3584 3314 3078 
Q 3713 2572 3713 1747 
Q 3713 922 3314 415 
Q 2916 -91 2278 -91 
Q 1894 -91 1617 61 
Q 1341 213 1159 525 
z
M 3116 1747 
Q 3116 2381 2855 2742 
Q 2594 3103 2138 3103 
Q 1681 3103 1420 2742 
Q 1159 2381 1159 1747 
Q 1159 1113 1420 752 
Q 1681 391 2138 391 
Q 2594 391 2855 752 
Q 3116 1113 3116 1747 
z
" transform="scale(0.015625)"/>
      </defs>
      <use xlink:href="#DejaVuSans-28"/>
      <use xlink:href="#DejaVuSans-53" transform="translate(63.1875 0)"/>
      <use xlink:href="#DejaVuSans-52" transform="translate(126.671875 0)"/>
      <use xlink:href="#DejaVuSans-46" transform="translate(187.859375 0)"/>
      <use xlink:href="#DejaVuSans-4b" transform="translate(242.84375 0)"/>
     </g>
    </g>
   </g>
   <g id="matplotlib.axis_4">
    <g id="ytick_8">
     <g id="line2d_26">
      <g>
       <use xlink:href="#mca55428549" x="394.842187" y="242.427304" style="fill: #1a1a1a; stroke: #1a1a1a; stroke-width: 0.8"/>
      </g>
     </g>
     <g id="text_29">
      <!-- 0 -->
      <g style="fill: #1a1a1a" transform="translate(381.479687 246.226133) scale(0.1 -0.1)">
       <use xlink:href="#DejaVuSans-13"/>
      </g>
     </g>
    </g>
    <g id="ytick_9">
     <g id="line2d_27">
      <g>
       <use xlink:href="#mca55428549" x="394.842187" y="204.042357" style="fill: #1a1a1a; stroke: #1a1a1a; stroke-width: 0.8"/>
      </g>
     </g>
     <g id="text_30">
      <!-- 1 -->
      <g style="fill: #1a1a1a" transform="translate(381.479687 207.841185) scale(0.1 -0.1)">
       <use xlink:href="#DejaVuSans-14"/>
      </g>
     </g>
    </g>
    <g id="ytick_10">
     <g id="line2d_28">
      <g>
       <use xlink:href="#mca55428549" x="394.842187" y="165.65741" style="fill: #1a1a1a; stroke: #1a1a1a; stroke-width: 0.8"/>
      </g>
     </g>
     <g id="text_31">
      <!-- 2 -->
      <g style="fill: #1a1a1a" transform="translate(381.479687 169.456238) scale(0.1 -0.1)">
       <use xlink:href="#DejaVuSans-15"/>
      </g>
     </g>
    </g>
    <g id="ytick_11">
     <g id="line2d_29">
      <g>
       <use xlink:href="#mca55428549" x="394.842187" y="127.272463" style="fill: #1a1a1a; stroke: #1a1a1a; stroke-width: 0.8"/>
      </g>
     </g>
     <g id="text_32">
      <!-- 3 -->
      <g style="fill: #1a1a1a" transform="translate(381.479687 131.071291) scale(0.1 -0.1)">
       <use xlink:href="#DejaVuSans-16"/>
      </g>
     </g>
    </g>
    <g id="ytick_12">
     <g id="line2d_30">
      <g>
       <use xlink:href="#mca55428549" x="394.842187" y="88.887516" style="fill: #1a1a1a; stroke: #1a1a1a; stroke-width: 0.8"/>
      </g>
     </g>
     <g id="text_33">
      <!-- 4 -->
      <g style="fill: #1a1a1a" transform="translate(381.479687 92.686344) scale(0.1 -0.1)">
       <defs>
        <path id="DejaVuSans-17" d="M 2419 4116 
L 825 1625 
L 2419 1625 
L 2419 4116 
z
M 2253 4666 
L 3047 4666 
L 3047 1625 
L 3713 1625 
L 3713 1100 
L 3047 1100 
L 3047 0 
L 2419 0 
L 2419 1100 
L 313 1100 
L 313 1709 
L 2253 4666 
z
" transform="scale(0.015625)"/>
       </defs>
       <use xlink:href="#DejaVuSans-17"/>
      </g>
     </g>
    </g>
    <g id="text_34">
     <!-- Loss -->
     <g style="fill: #1a1a1a" transform="translate(375.077344 159.92625) rotate(-90) scale(0.1 -0.1)">
      <defs>
       <path id="DejaVuSans-2f" d="M 628 4666 
L 1259 4666 
L 1259 531 
L 3531 531 
L 3531 0 
L 628 0 
L 628 4666 
z
" transform="scale(0.015625)"/>
      </defs>
      <use xlink:href="#DejaVuSans-2f"/>
      <use xlink:href="#DejaVuSans-52" transform="translate(53.96875 0)"/>
      <use xlink:href="#DejaVuSans-56" transform="translate(115.15625 0)"/>
      <use xlink:href="#DejaVuSans-56" transform="translate(167.25 0)"/>
     </g>
    </g>
   </g>
   <g id="line2d_31">
    <path d="M 408.950369 75.316906 
L 418.68015 98.326716 
L 428.40993 118.131443 
L 438.139711 135.177529 
L 447.869492 149.849231 
L 457.599272 162.477283 
L 467.329053 173.346347 
L 477.058833 182.701438 
L 486.788614 190.753439 
L 496.518394 197.68386 
L 506.248175 203.648929 
L 515.977956 208.783112 
L 525.707736 213.202144 
L 535.437517 217.005639 
L 545.167297 220.279339 
L 554.897078 223.097038 
L 564.626858 225.522254 
L 574.356639 227.609657 
L 584.086419 229.406301 
L 593.8162 230.952687 
L 603.545981 232.283674 
L 613.275761 233.429265 
L 623.005542 234.415284 
L 632.735322 235.263959 
L 642.465103 235.99442 
L 652.194883 236.623134 
L 661.924664 237.164272 
L 671.654445 237.630035 
L 681.384225 238.030921 
L 691.114006 238.375966 
" clip-path="url(#pc4aa3bdd73)" style="fill: none; stroke: #3498db; stroke-width: 2; stroke-linecap: square"/>
   </g>
   <g id="line2d_32">
    <path d="M 408.950369 59.542159 
L 418.68015 82.244928 
L 428.40993 82.295156 
L 438.139711 100.287467 
L 447.869492 112.947516 
L 457.599272 113.789046 
L 467.329053 133.01509 
L 477.058833 145.497907 
L 486.788614 154.131681 
L 496.518394 148.862218 
L 506.248175 166.354091 
L 515.977956 154.998542 
L 525.707736 182.739326 
L 535.437517 166.199888 
L 545.167297 179.567206 
L 554.897078 185.783424 
L 564.626858 192.466762 
L 574.356639 190.818389 
L 584.086419 196.82928 
L 593.8162 193.487346 
L 603.545981 202.16134 
L 613.275761 204.703746 
L 623.005542 210.201403 
L 632.735322 210.779186 
L 642.465103 210.842378 
L 652.194883 224.45832 
L 661.924664 224.21757 
L 671.654445 213.877267 
L 681.384225 218.743879 
L 691.114006 222.237119 
" clip-path="url(#pc4aa3bdd73)" style="fill: none; stroke: #e74c3c; stroke-opacity: 0.7; stroke-width: 1.5; stroke-linecap: square"/>
   </g>
   <g id="line2d_33">
    <path d="M 408.950369 70.250707 
L 418.68015 88.867617 
L 428.40993 107.642645 
L 438.139711 123.241977 
L 447.869492 134.801653 
L 457.599272 148.965998 
L 467.329053 156.868591 
L 477.058833 170.28912 
L 486.788614 173.356071 
L 496.518394 181.794406 
L 506.248175 188.7468 
L 515.977956 193.149733 
L 525.707736 196.98129 
L 535.437517 202.791454 
L 545.167297 212.316205 
L 554.897078 214.826379 
L 564.626858 216.751513 
L 574.356639 218.324239 
L 584.086419 219.883672 
L 593.8162 224.48992 
L 603.545981 224.707417 
L 613.275761 228.261831 
L 623.005542 229.534455 
L 632.735322 232.434138 
L 642.465103 232.7246 
L 652.194883 234.627421 
L 661.924664 234.864479 
L 671.654445 231.819303 
L 681.384225 236.417484 
L 691.114006 230.211767 
" clip-path="url(#pc4aa3bdd73)" style="fill: none; stroke: #2ecc71; stroke-width: 2; stroke-linecap: square"/>
   </g>
   <g id="patch_9">
    <path d="M 394.842187 247.317656 
L 394.842187 50.600469 
" style="fill: none; stroke: #000000; stroke-width: 0.8; stroke-linejoin: miter; stroke-linecap: square"/>
   </g>
   <g id="patch_10">
    <path d="M 705.222188 247.317656 
L 705.222188 50.600469 
" style="fill: none; stroke: #000000; stroke-width: 0.8; stroke-linejoin: miter; stroke-linecap: square"/>
   </g>
   <g id="patch_11">
    <path d="M 394.842187 247.317656 
L 705.222188 247.317656 
" style="fill: none; stroke: #000000; stroke-width: 0.8; stroke-linejoin: miter; stroke-linecap: square"/>
   </g>
   <g id="patch_12">
    <path d="M 394.842187 50.600469 
L 705.222188 50.600469 
" style="fill: none; stroke: #000000; stroke-width: 0.8; stroke-linejoin: miter; stroke-linecap: square"/>
   </g>
   <g id="text_35">
    <!-- Convergence Rate -->
    <g style="fill: #1a1a1a" transform="translate(493.479297 44.600469) scale(0.11 -0.11)">
     <defs>
      <path id="DejaVuSans-Bold-26" d="M 4288 256 
Q 3956 84 3597 -3 
Q 3238 -91 2847 -91 
Q 1681 -91 1000 561 
Q 319 1213 319 2328 
Q 319 3447 1000 4098 
Q 1681 4750 2847 4750 
Q 3238 4750 3597 4662 
Q 3956 4575 4288 4403 
L 4288 3438 
Q 3953 3666 3628 3772 
Q 3303 3878 2944 3878 
Q 2300 3878 1931 3465 
Q 1563 3053 1563 2328 
Q 1563 1606 1931 1193 
Q 2300 781 2944 781 
Q 3303 781 3628 887 
Q 3953 994 4288 1222 
L 4288 256 
z
" transform="scale(0.015625)"/>
      <path id="DejaVuSans-Bold-59" d="M 97 3500 
L 1216 3500 
L 2088 1081 
L 2956 3500 
L 4078 3500 
L 2700 0 
L 1472 0 
L 97 3500 
z
" transform="scale(0.015625)"/>
      <path id="DejaVuSans-Bold-4a" d="M 2919 594 
Q 2688 288 2409 144 
Q 2131 0 1766 0 
Q 1125 0 706 504 
Q 288 1009 288 1791 
Q 288 2575 706 3076 
Q 1125 3578 1766 3578 
Q 2131 3578 2409 3434 
Q 2688 3291 2919 2981 
L 2919 3500 
L 4044 3500 
L 4044 353 
Q 4044 -491 3511 -936 
Q 2978 -1381 1966 -1381 
Q 1638 -1381 1331 -1331 
Q 1025 -1281 716 -1178 
L 716 -306 
Q 1009 -475 1290 -558 
Q 1572 -641 1856 -641 
Q 2406 -641 2662 -400 
Q 2919 -159 2919 353 
L 2919 594 
z
M 2181 2772 
Q 1834 2772 1640 2515 
Q 1447 2259 1447 1791 
Q 1447 1309 1634 1061 
Q 1822 813 2181 813 
Q 2531 813 2725 1069 
Q 2919 1325 2919 1791 
Q 2919 2259 2725 2515 
Q 2531 2772 2181 2772 
z
" transform="scale(0.015625)"/>
      <path id="DejaVuSans-Bold-35" d="M 2297 2597 
Q 2675 2597 2839 2737 
Q 3003 2878 3003 3200 
Q 3003 3519 2839 3656 
Q 2675 3794 2297 3794 
L 1791 3794 
L 1791 2597 
L 2297 2597 
z
M 1791 1766 
L 1791 0 
L 588 0 
L 588 4666 
L 2425 4666 
Q 3347 4666 3776 4356 
Q 4206 4047 4206 3378 
Q 4206 2916 3982 2619 
Q 3759 2322 3309 2181 
Q 3556 2125 3751 1926 
Q 3947 1728 4147 1325 
L 4800 0 
L 3519 0 
L 2950 1159 
Q 2778 1509 2601 1637 
Q 2425 1766 2131 1766 
L 1791 1766 
z
" transform="scale(0.015625)"/>
     </defs>
     <use xlink:href="#DejaVuSans-Bold-26"/>
     <use xlink:href="#DejaVuSans-Bold-52" transform="translate(73.390625 0)"/>
     <use xlink:href="#DejaVuSans-Bold-51" transform="translate(142.09375 0)"/>
     <use xlink:href="#DejaVuSans-Bold-59" transform="translate(213.28125 0)"/>
     <use xlink:href="#DejaVuSans-Bold-48" transform="translate(278.46875 0)"/>
     <use xlink:href="#DejaVuSans-Bold-55" transform="translate(346.296875 0)"/>
     <use xlink:href="#DejaVuSans-Bold-4a" transform="translate(395.609375 0)"/>
     <use xlink:href="#DejaVuSans-Bold-48" transform="translate(467.1875 0)"/>
     <use xlink:href="#DejaVuSans-Bold-51" transform="translate(535.015625 0)"/>
     <use xlink:href="#DejaVuSans-Bold-46" transform="translate(606.203125 0)"/>
     <use xlink:href="#DejaVuSans-Bold-48" transform="translate(665.484375 0)"/>
     <use xlink:href="#DejaVuSans-Bold-3" transform="translate(733.3125 0)"/>
     <use xlink:href="#DejaVuSans-Bold-35" transform="translate(768.125 0)"/>
     <use xlink:href="#DejaVuSans-Bold-44" transform="translate(845.125 0)"/>
     <use xlink:href="#DejaVuSans-Bold-57" transform="translate(912.609375 0)"/>
     <use xlink:href="#DejaVuSans-Bold-48" transform="translate(960.40625 0)"/>
    </g>
   </g>
   <g id="legend_2">
    <g id="patch_13">
     <path d="M 632.132187 93.002344 
L 699.622187 93.002344 
Q 701.222188 93.002344 701.222188 91.402344 
L 701.222188 56.200469 
Q 701.222188 54.600469 699.622187 54.600469 
L 632.132187 54.600469 
Q 630.532187 54.600469 630.532187 56.200469 
L 630.532187 91.402344 
Q 630.532187 93.002344 632.132187 93.002344 
z
" style="fill: #ffffff; opacity: 0.9; stroke: #cccccc; stroke-linejoin: miter"/>
    </g>
    <g id="line2d_34">
     <path d="M 633.732188 61.079219 
L 641.732188 61.079219 
L 649.732188 61.079219 
" style="fill: none; stroke: #3498db; stroke-width: 2; stroke-linecap: square"/>
    </g>
    <g id="text_36">
     <!-- Batch GD -->
     <g style="fill: #1a1a1a" transform="translate(656.132187 63.879219) scale(0.08 -0.08)">
      <use xlink:href="#DejaVuSans-25"/>
      <use xlink:href="#DejaVuSans-44" transform="translate(68.609375 0)"/>
      <use xlink:href="#DejaVuSans-57" transform="translate(129.890625 0)"/>
      <use xlink:href="#DejaVuSans-46" transform="translate(169.09375 0)"/>
      <use xlink:href="#DejaVuSans-4b" transform="translate(224.078125 0)"/>
      <use xlink:href="#DejaVuSans-3" transform="translate(287.453125 0)"/>
      <use xlink:href="#DejaVuSans-2a" transform="translate(319.234375 0)"/>
      <use xlink:href="#DejaVuSans-27" transform="translate(396.71875 0)"/>
     </g>
    </g>
    <g id="line2d_35">
     <path d="M 633.732188 73.079844 
L 641.732188 73.079844 
L 649.732188 73.079844 
" style="fill: none; stroke: #e74c3c; stroke-opacity: 0.7; stroke-width: 1.5; stroke-linecap: square"/>
    </g>
    <g id="text_37">
     <!-- SGD -->
     <g style="fill: #1a1a1a" transform="translate(656.132187 75.879844) scale(0.08 -0.08)">
      <use xlink:href="#DejaVuSans-36"/>
      <use xlink:href="#DejaVuSans-2a" transform="translate(63.484375 0)"/>
      <use xlink:href="#DejaVuSans-27" transform="translate(140.96875 0)"/>
     </g>
    </g>
    <g id="line2d_36">
     <path d="M 633.732188 85.080469 
L 641.732188 85.080469 
L 649.732188 85.080469 
" style="fill: none; stroke: #2ecc71; stroke-width: 2; stroke-linecap: square"/>
    </g>
    <g id="text_38">
     <!-- Mini-batch -->
     <g style="fill: #1a1a1a" transform="translate(656.132187 87.880469) scale(0.08 -0.08)">
      <defs>
       <path id="DejaVuSans-10" d="M 313 2009 
L 1997 2009 
L 1997 1497 
L 313 1497 
L 313 2009 
z
" transform="scale(0.015625)"/>
       <path id="DejaVuSans-45" d="M 3116 1747 
Q 3116 2381 2855 2742 
Q 2594 3103 2138 3103 
Q 1681 3103 1420 2742 
Q 1159 2381 1159 1747 
Q 1159 1113 1420 752 
Q 1681 391 2138 391 
Q 2594 391 2855 752 
Q 3116 1113 3116 1747 
z
M 1159 2969 
Q 1341 3281 1617 3432 
Q 1894 3584 2278 3584 
Q 2916 3584 3314 3078 
Q 3713 2572 3713 1747 
Q 3713 922 3314 415 
Q 2916 -91 2278 -91 
Q 1894 -91 1617 61 
Q 1341 213 1159 525 
L 1159 0 
L 581 0 
L 581 4863 
L 1159 4863 
L 1159 2969 
z
" transform="scale(0.015625)"/>
      </defs>
      <use xlink:href="#DejaVuSans-30"/>
      <use xlink:href="#DejaVuSans-4c" transform="translate(86.28125 0)"/>
      <use xlink:href="#DejaVuSans-51" transform="translate(114.0625 0)"/>
      <use xlink:href="#DejaVuSans-4c" transform="translate(177.4375 0)"/>
      <use xlink:href="#DejaVuSans-10" transform="translate(205.21875 0)"/>
      <use xlink:href="#DejaVuSans-45" transform="translate(241.296875 0)"/>
      <use xlink:href="#DejaVuSans-44" transform="translate(304.78125 0)"/>
      <use xlink:href="#DejaVuSans-57" transform="translate(366.0625 0)"/>
      <use xlink:href="#DejaVuSans-46" transform="translate(405.265625 0)"/>
      <use xlink:href="#DejaVuSans-4b" transform="translate(460.25 0)"/>
     </g>
    </g>
   </g>
  </g>
  <g id="text_39">
   <!-- Gradient Descent Variants -->
   <g style="fill: #1a1a1a" transform="translate(259.392578 17.077969) scale(0.13 -0.13)">
    <defs>
     <path id="DejaVuSans-Bold-47" d="M 2919 2988 
L 2919 4863 
L 4044 4863 
L 4044 0 
L 2919 0 
L 2919 506 
Q 2688 197 2409 53 
Q 2131 -91 1766 -91 
Q 1119 -91 703 423 
Q 288 938 288 1747 
Q 288 2556 703 3070 
Q 1119 3584 1766 3584 
Q 2128 3584 2408 3439 
Q 2688 3294 2919 2988 
z
M 2181 722 
Q 2541 722 2730 984 
Q 2919 1247 2919 1747 
Q 2919 2247 2730 2509 
Q 2541 2772 2181 2772 
Q 1825 2772 1636 2509 
Q 1447 2247 1447 1747 
Q 1447 1247 1636 984 
Q 1825 722 2181 722 
z
" transform="scale(0.015625)"/>
     <path id="DejaVuSans-Bold-4c" d="M 538 3500 
L 1656 3500 
L 1656 0 
L 538 0 
L 538 3500 
z
M 538 4863 
L 1656 4863 
L 1656 3950 
L 538 3950 
L 538 4863 
z
" transform="scale(0.015625)"/>
     <path id="DejaVuSans-Bold-39" d="M 31 4666 
L 1241 4666 
L 2478 1222 
L 3713 4666 
L 4922 4666 
L 3194 0 
L 1759 0 
L 31 4666 
z
" transform="scale(0.015625)"/>
    </defs>
    <use xlink:href="#DejaVuSans-Bold-2a"/>
    <use xlink:href="#DejaVuSans-Bold-55" transform="translate(82.078125 0)"/>
    <use xlink:href="#DejaVuSans-Bold-44" transform="translate(131.390625 0)"/>
    <use xlink:href="#DejaVuSans-Bold-47" transform="translate(198.875 0)"/>
    <use xlink:href="#DejaVuSans-Bold-4c" transform="translate(270.453125 0)"/>
    <use xlink:href="#DejaVuSans-Bold-48" transform="translate(304.734375 0)"/>
    <use xlink:href="#DejaVuSans-Bold-51" transform="translate(372.5625 0)"/>
    <use xlink:href="#DejaVuSans-Bold-57" transform="translate(443.75 0)"/>
    <use xlink:href="#DejaVuSans-Bold-3" transform="translate(491.546875 0)"/>
    <use xlink:href="#DejaVuSans-Bold-27" transform="translate(526.359375 0)"/>
    <use xlink:href="#DejaVuSans-Bold-48" transform="translate(609.375 0)"/>
    <use xlink:href="#DejaVuSans-Bold-56" transform="translate(677.203125 0)"/>
    <use xlink:href="#DejaVuSans-Bold-46" transform="translate(736.71875 0)"/>
    <use xlink:href="#DejaVuSans-Bold-48" transform="translate(796 0)"/>
    <use xlink:href="#DejaVuSans-Bold-51" transform="translate(863.828125 0)"/>
    <use xlink:href="#DejaVuSans-Bold-57" transform="translate(935.015625 0)"/>
    <use xlink:href="#DejaVuSans-Bold-3" transform="translate(982.8125 0)"/>
    <use xlink:href="#DejaVuSans-Bold-39" transform="translate(1017.625 0)"/>
    <use xlink:href="#DejaVuSans-Bold-44" transform="translate(1089.546875 0)"/>
    <use xlink:href="#DejaVuSans-Bold-55" transform="translate(1157.03125 0)"/>
    <use xlink:href="#DejaVuSans-Bold-4c" transform="translate(1206.34375 0)"/>
    <use xlink:href="#DejaVuSans-Bold-44" transform="translate(1240.625 0)"/>
    <use xlink:href="#DejaVuSans-Bold-51" transform="translate(1308.109375 0)"/>
    <use xlink:href="#DejaVuSans-Bold-57" transform="translate(1379.296875 0)"/>
    <use xlink:href="#DejaVuSans-Bold-56" transform="translate(1427.09375 0)"/>
   </g>
  </g>
 </g>
 <defs>
  <clipPath id="pb1fa2068cd">
   <rect x="42.942188" y="50.600469" width="310.38" height="196.717188"/>
  </clipPath>
  <clipPath id="pc4aa3bdd73">
   <rect x="394.842187" y="50.600469" width="310.38" height="196.717188"/>
  </clipPath>
 </defs>
</svg>
