<?xml version="1.0" encoding="utf-8" standalone="no"?>
<!DOCTYPE svg PUBLIC "-//W3C//DTD SVG 1.1//EN"
  "http://www.w3.org/Graphics/SVG/1.1/DTD/svg11.dtd">
<svg xmlns:xlink="http://www.w3.org/1999/xlink" width="640.242656pt" height="280.235781pt" viewBox="0 0 640.242656 280.235781" xmlns="http://www.w3.org/2000/svg" version="1.1">
 <metadata>
  <rdf:RDF xmlns:dc="http://purl.org/dc/elements/1.1/" xmlns:cc="http://creativecommons.org/ns#" xmlns:rdf="http://www.w3.org/1999/02/22-rdf-syntax-ns#">
   <cc:Work>
    <dc:type rdf:resource="http://purl.org/dc/dcmitype/StillImage"/>
    <dc:date>2026-07-06T21:00:03.588551</dc:date>
    <dc:format>image/svg+xml</dc:format>
    <dc:creator>
     <cc:Agent>
      <dc:title>Matplotlib v3.11.0, https://matplotlib.org/</dc:title>
     </cc:Agent>
    </dc:creator>
   </cc:Work>
  </rdf:RDF>
 </metadata>
 <defs>
  <style type="text/css">*{stroke-linejoin: round; stroke-linecap: butt}</style>
 </defs>
 <g id="figure_1">
  <g id="patch_1">
   <path d="M 0 280.235781 
L 640.242656 280.235781 
L 640.242656 0 
L 0 0 
L 0 280.235781 
z
" style="fill: none"/>
  </g>
  <g id="axes_1">
   <g id="patch_2">
    <path d="M 40.925 242.035781 
L 313.002656 242.035781 
L 313.002656 22.318125 
L 40.925 22.318125 
L 40.925 242.035781 
z
" style="fill: none"/>
   </g>
   <g id="PathCollection_1">
    <defs>
     <path id="m6ce09e2f93" d="M 0 2.236068 
C 0.593012 2.236068 1.161816 2.000462 1.581139 1.581139 
C 2.000462 1.161816 2.236068 0.593012 2.236068 0 
C 2.236068 -0.593012 2.000462 -1.161816 1.581139 -1.581139 
C 1.161816 -2.000462 0.593012 -2.236068 0 -2.236068 
C -0.593012 -2.236068 -1.161816 -2.000462 -1.581139 -1.581139 
C -2.000462 -1.161816 -2.236068 -0.593012 -2.236068 0 
C -2.236068 0.593012 -2.000462 1.161816 -1.581139 1.581139 
C -1.161816 2.000462 -0.593012 2.236068 0 2.236068 
z
" style="stroke: #3498db; stroke-opacity: 0.7"/>
    </defs>
    <g clip-path="url(#p3291c65c3d)">
     <use xlink:href="#m6ce09e2f93" x="53.292166" y="212.919451" style="fill: #3498db; fill-opacity: 0.7; stroke: #3498db; stroke-opacity: 0.7"/>
     <use xlink:href="#m6ce09e2f93" x="58.339989" y="225.876056" style="fill: #3498db; fill-opacity: 0.7; stroke: #3498db; stroke-opacity: 0.7"/>
     <use xlink:href="#m6ce09e2f93" x="63.387812" y="201.932363" style="fill: #3498db; fill-opacity: 0.7; stroke: #3498db; stroke-opacity: 0.7"/>
     <use xlink:href="#m6ce09e2f93" x="68.435635" y="175.667333" style="fill: #3498db; fill-opacity: 0.7; stroke: #3498db; stroke-opacity: 0.7"/>
     <use xlink:href="#m6ce09e2f93" x="73.483458" y="217.766578" style="fill: #3498db; fill-opacity: 0.7; stroke: #3498db; stroke-opacity: 0.7"/>
     <use xlink:href="#m6ce09e2f93" x="78.531281" y="214.232942" style="fill: #3498db; fill-opacity: 0.7; stroke: #3498db; stroke-opacity: 0.7"/>
     <use xlink:href="#m6ce09e2f93" x="83.579104" y="163.608682" style="fill: #3498db; fill-opacity: 0.7; stroke: #3498db; stroke-opacity: 0.7"/>
     <use xlink:href="#m6ce09e2f93" x="88.626927" y="181.156613" style="fill: #3498db; fill-opacity: 0.7; stroke: #3498db; stroke-opacity: 0.7"/>
     <use xlink:href="#m6ce09e2f93" x="93.67475" y="209.744812" style="fill: #3498db; fill-opacity: 0.7; stroke: #3498db; stroke-opacity: 0.7"/>
     <use xlink:href="#m6ce09e2f93" x="98.722573" y="179.929985" style="fill: #3498db; fill-opacity: 0.7; stroke: #3498db; stroke-opacity: 0.7"/>
     <use xlink:href="#m6ce09e2f93" x="103.770396" y="202.521105" style="fill: #3498db; fill-opacity: 0.7; stroke: #3498db; stroke-opacity: 0.7"/>
     <use xlink:href="#m6ce09e2f93" x="108.818218" y="199.047937" style="fill: #3498db; fill-opacity: 0.7; stroke: #3498db; stroke-opacity: 0.7"/>
     <use xlink:href="#m6ce09e2f93" x="113.866041" y="177.136606" style="fill: #3498db; fill-opacity: 0.7; stroke: #3498db; stroke-opacity: 0.7"/>
     <use xlink:href="#m6ce09e2f93" x="118.913864" y="229.573091" style="fill: #3498db; fill-opacity: 0.7; stroke: #3498db; stroke-opacity: 0.7"/>
     <use xlink:href="#m6ce09e2f93" x="123.961687" y="221.14828" style="fill: #3498db; fill-opacity: 0.7; stroke: #3498db; stroke-opacity: 0.7"/>
     <use xlink:href="#m6ce09e2f93" x="129.00951" y="187.422615" style="fill: #3498db; fill-opacity: 0.7; stroke: #3498db; stroke-opacity: 0.7"/>
     <use xlink:href="#m6ce09e2f93" x="134.057333" y="195.589613" style="fill: #3498db; fill-opacity: 0.7; stroke: #3498db; stroke-opacity: 0.7"/>
     <use xlink:href="#m6ce09e2f93" x="139.105156" y="157.593379" style="fill: #3498db; fill-opacity: 0.7; stroke: #3498db; stroke-opacity: 0.7"/>
     <use xlink:href="#m6ce09e2f93" x="144.152979" y="185.801449" style="fill: #3498db; fill-opacity: 0.7; stroke: #3498db; stroke-opacity: 0.7"/>
     <use xlink:href="#m6ce09e2f93" x="149.200802" y="195.363924" style="fill: #3498db; fill-opacity: 0.7; stroke: #3498db; stroke-opacity: 0.7"/>
     <use xlink:href="#m6ce09e2f93" x="154.248625" y="117.092897" style="fill: #3498db; fill-opacity: 0.7; stroke: #3498db; stroke-opacity: 0.7"/>
     <use xlink:href="#m6ce09e2f93" x="159.296448" y="157.484463" style="fill: #3498db; fill-opacity: 0.7; stroke: #3498db; stroke-opacity: 0.7"/>
     <use xlink:href="#m6ce09e2f93" x="164.344271" y="146.334401" style="fill: #3498db; fill-opacity: 0.7; stroke: #3498db; stroke-opacity: 0.7"/>
     <use xlink:href="#m6ce09e2f93" x="169.392094" y="181.554256" style="fill: #3498db; fill-opacity: 0.7; stroke: #3498db; stroke-opacity: 0.7"/>
     <use xlink:href="#m6ce09e2f93" x="174.439917" y="155.158753" style="fill: #3498db; fill-opacity: 0.7; stroke: #3498db; stroke-opacity: 0.7"/>
     <use xlink:href="#m6ce09e2f93" x="179.48774" y="134.607858" style="fill: #3498db; fill-opacity: 0.7; stroke: #3498db; stroke-opacity: 0.7"/>
     <use xlink:href="#m6ce09e2f93" x="184.535563" y="163.845467" style="fill: #3498db; fill-opacity: 0.7; stroke: #3498db; stroke-opacity: 0.7"/>
     <use xlink:href="#m6ce09e2f93" x="189.583385" y="120.66546" style="fill: #3498db; fill-opacity: 0.7; stroke: #3498db; stroke-opacity: 0.7"/>
     <use xlink:href="#m6ce09e2f93" x="194.631208" y="142.48683" style="fill: #3498db; fill-opacity: 0.7; stroke: #3498db; stroke-opacity: 0.7"/>
     <use xlink:href="#m6ce09e2f93" x="199.679031" y="130.9306" style="fill: #3498db; fill-opacity: 0.7; stroke: #3498db; stroke-opacity: 0.7"/>
     <use xlink:href="#m6ce09e2f93" x="204.726854" y="135.448143" style="fill: #3498db; fill-opacity: 0.7; stroke: #3498db; stroke-opacity: 0.7"/>
     <use xlink:href="#m6ce09e2f93" x="209.774677" y="68.187172" style="fill: #3498db; fill-opacity: 0.7; stroke: #3498db; stroke-opacity: 0.7"/>
     <use xlink:href="#m6ce09e2f93" x="214.8225" y="113.106458" style="fill: #3498db; fill-opacity: 0.7; stroke: #3498db; stroke-opacity: 0.7"/>
     <use xlink:href="#m6ce09e2f93" x="219.870323" y="136.690531" style="fill: #3498db; fill-opacity: 0.7; stroke: #3498db; stroke-opacity: 0.7"/>
     <use xlink:href="#m6ce09e2f93" x="224.918146" y="84.328781" style="fill: #3498db; fill-opacity: 0.7; stroke: #3498db; stroke-opacity: 0.7"/>
     <use xlink:href="#m6ce09e2f93" x="229.965969" y="133.86052" style="fill: #3498db; fill-opacity: 0.7; stroke: #3498db; stroke-opacity: 0.7"/>
     <use xlink:href="#m6ce09e2f93" x="235.013792" y="93.199109" style="fill: #3498db; fill-opacity: 0.7; stroke: #3498db; stroke-opacity: 0.7"/>
     <use xlink:href="#m6ce09e2f93" x="240.061615" y="145.980754" style="fill: #3498db; fill-opacity: 0.7; stroke: #3498db; stroke-opacity: 0.7"/>
     <use xlink:href="#m6ce09e2f93" x="245.109438" y="126.048475" style="fill: #3498db; fill-opacity: 0.7; stroke: #3498db; stroke-opacity: 0.7"/>
     <use xlink:href="#m6ce09e2f93" x="250.157261" y="82.911169" style="fill: #3498db; fill-opacity: 0.7; stroke: #3498db; stroke-opacity: 0.7"/>
     <use xlink:href="#m6ce09e2f93" x="255.205084" y="65.31296" style="fill: #3498db; fill-opacity: 0.7; stroke: #3498db; stroke-opacity: 0.7"/>
     <use xlink:href="#m6ce09e2f93" x="260.252907" y="76.506778" style="fill: #3498db; fill-opacity: 0.7; stroke: #3498db; stroke-opacity: 0.7"/>
     <use xlink:href="#m6ce09e2f93" x="265.30073" y="80.427128" style="fill: #3498db; fill-opacity: 0.7; stroke: #3498db; stroke-opacity: 0.7"/>
     <use xlink:href="#m6ce09e2f93" x="270.348552" y="81.710027" style="fill: #3498db; fill-opacity: 0.7; stroke: #3498db; stroke-opacity: 0.7"/>
     <use xlink:href="#m6ce09e2f93" x="275.396375" y="108.753303" style="fill: #3498db; fill-opacity: 0.7; stroke: #3498db; stroke-opacity: 0.7"/>
     <use xlink:href="#m6ce09e2f93" x="280.444198" y="85.517919" style="fill: #3498db; fill-opacity: 0.7; stroke: #3498db; stroke-opacity: 0.7"/>
     <use xlink:href="#m6ce09e2f93" x="285.492021" y="75.253378" style="fill: #3498db; fill-opacity: 0.7; stroke: #3498db; stroke-opacity: 0.7"/>
     <use xlink:href="#m6ce09e2f93" x="290.539844" y="32.305291" style="fill: #3498db; fill-opacity: 0.7; stroke: #3498db; stroke-opacity: 0.7"/>
     <use xlink:href="#m6ce09e2f93" x="295.587667" y="47.301132" style="fill: #3498db; fill-opacity: 0.7; stroke: #3498db; stroke-opacity: 0.7"/>
     <use xlink:href="#m6ce09e2f93" x="300.63549" y="98.475932" style="fill: #3498db; fill-opacity: 0.7; stroke: #3498db; stroke-opacity: 0.7"/>
    </g>
   </g>
   <g id="matplotlib.axis_1">
    <g id="xtick_1">
     <g id="line2d_1">
      <defs>
       <path id="m89ca58f8f2" d="M 0 0 
L 0 3.5 
" style="stroke: #1a1a1a; stroke-width: 0.8"/>
      </defs>
      <g>
       <use xlink:href="#m89ca58f8f2" x="53.292166" y="242.035781" style="fill: #1a1a1a; stroke: #1a1a1a; stroke-width: 0.8"/>
      </g>
     </g>
     <g id="text_1">
      <!-- 0 -->
      <g style="fill: #1a1a1a" transform="translate(50.110916 256.633438) scale(0.1 -0.1)">
       <defs>
        <path id="DejaVuSans-13" d="M 2034 4250 
Q 1547 4250 1301 3770 
Q 1056 3291 1056 2328 
Q 1056 1369 1301 889 
Q 1547 409 2034 409 
Q 2525 409 2770 889 
Q 3016 1369 3016 2328 
Q 3016 3291 2770 3770 
Q 2525 4250 2034 4250 
z
M 2034 4750 
Q 2819 4750 3233 4129 
Q 3647 3509 3647 2328 
Q 3647 1150 3233 529 
Q 2819 -91 2034 -91 
Q 1250 -91 836 529 
Q 422 1150 422 2328 
Q 422 3509 836 4129 
Q 1250 4750 2034 4750 
z
" transform="scale(0.015625)"/>
       </defs>
       <use xlink:href="#DejaVuSans-13"/>
      </g>
     </g>
    </g>
    <g id="xtick_2">
     <g id="line2d_2">
      <g>
       <use xlink:href="#m89ca58f8f2" x="102.760831" y="242.035781" style="fill: #1a1a1a; stroke: #1a1a1a; stroke-width: 0.8"/>
      </g>
     </g>
     <g id="text_2">
      <!-- 2 -->
      <g style="fill: #1a1a1a" transform="translate(99.579581 256.633438) scale(0.1 -0.1)">
       <defs>
        <path id="DejaVuSans-15" d="M 1228 531 
L 3431 531 
L 3431 0 
L 469 0 
L 469 531 
Q 828 903 1448 1529 
Q 2069 2156 2228 2338 
Q 2531 2678 2651 2914 
Q 2772 3150 2772 3378 
Q 2772 3750 2511 3984 
Q 2250 4219 1831 4219 
Q 1534 4219 1204 4116 
Q 875 4013 500 3803 
L 500 4441 
Q 881 4594 1212 4672 
Q 1544 4750 1819 4750 
Q 2544 4750 2975 4387 
Q 3406 4025 3406 3419 
Q 3406 3131 3298 2873 
Q 3191 2616 2906 2266 
Q 2828 2175 2409 1742 
Q 1991 1309 1228 531 
z
" transform="scale(0.015625)"/>
       </defs>
       <use xlink:href="#DejaVuSans-15"/>
      </g>
     </g>
    </g>
    <g id="xtick_3">
     <g id="line2d_3">
      <g>
       <use xlink:href="#m89ca58f8f2" x="152.229496" y="242.035781" style="fill: #1a1a1a; stroke: #1a1a1a; stroke-width: 0.8"/>
      </g>
     </g>
     <g id="text_3">
      <!-- 4 -->
      <g style="fill: #1a1a1a" transform="translate(149.048246 256.633438) scale(0.1 -0.1)">
       <defs>
        <path id="DejaVuSans-17" d="M 2419 4116 
L 825 1625 
L 2419 1625 
L 2419 4116 
z
M 2253 4666 
L 3047 4666 
L 3047 1625 
L 3713 1625 
L 3713 1100 
L 3047 1100 
L 3047 0 
L 2419 0 
L 2419 1100 
L 313 1100 
L 313 1709 
L 2253 4666 
z
" transform="scale(0.015625)"/>
       </defs>
       <use xlink:href="#DejaVuSans-17"/>
      </g>
     </g>
    </g>
    <g id="xtick_4">
     <g id="line2d_4">
      <g>
       <use xlink:href="#m89ca58f8f2" x="201.698161" y="242.035781" style="fill: #1a1a1a; stroke: #1a1a1a; stroke-width: 0.8"/>
      </g>
     </g>
     <g id="text_4">
      <!-- 6 -->
      <g style="fill: #1a1a1a" transform="translate(198.516911 256.633438) scale(0.1 -0.1)">
       <defs>
        <path id="DejaVuSans-19" d="M 2113 2584 
Q 1688 2584 1439 2293 
Q 1191 2003 1191 1497 
Q 1191 994 1439 701 
Q 1688 409 2113 409 
Q 2538 409 2786 701 
Q 3034 994 3034 1497 
Q 3034 2003 2786 2293 
Q 2538 2584 2113 2584 
z
M 3366 4563 
L 3366 3988 
Q 3128 4100 2886 4159 
Q 2644 4219 2406 4219 
Q 1781 4219 1451 3797 
Q 1122 3375 1075 2522 
Q 1259 2794 1537 2939 
Q 1816 3084 2150 3084 
Q 2853 3084 3261 2657 
Q 3669 2231 3669 1497 
Q 3669 778 3244 343 
Q 2819 -91 2113 -91 
Q 1303 -91 875 529 
Q 447 1150 447 2328 
Q 447 3434 972 4092 
Q 1497 4750 2381 4750 
Q 2619 4750 2861 4703 
Q 3103 4656 3366 4563 
z
" transform="scale(0.015625)"/>
       </defs>
       <use xlink:href="#DejaVuSans-19"/>
      </g>
     </g>
    </g>
    <g id="xtick_5">
     <g id="line2d_5">
      <g>
       <use xlink:href="#m89ca58f8f2" x="251.166825" y="242.035781" style="fill: #1a1a1a; stroke: #1a1a1a; stroke-width: 0.8"/>
      </g>
     </g>
     <g id="text_5">
      <!-- 8 -->
      <g style="fill: #1a1a1a" transform="translate(247.985575 256.633438) scale(0.1 -0.1)">
       <defs>
        <path id="DejaVuSans-1b" d="M 2034 2216 
Q 1584 2216 1326 1975 
Q 1069 1734 1069 1313 
Q 1069 891 1326 650 
Q 1584 409 2034 409 
Q 2484 409 2743 651 
Q 3003 894 3003 1313 
Q 3003 1734 2745 1975 
Q 2488 2216 2034 2216 
z
M 1403 2484 
Q 997 2584 770 2862 
Q 544 3141 544 3541 
Q 544 4100 942 4425 
Q 1341 4750 2034 4750 
Q 2731 4750 3128 4425 
Q 3525 4100 3525 3541 
Q 3525 3141 3298 2862 
Q 3072 2584 2669 2484 
Q 3125 2378 3379 2068 
Q 3634 1759 3634 1313 
Q 3634 634 3220 271 
Q 2806 -91 2034 -91 
Q 1263 -91 848 271 
Q 434 634 434 1313 
Q 434 1759 690 2068 
Q 947 2378 1403 2484 
z
M 1172 3481 
Q 1172 3119 1398 2916 
Q 1625 2713 2034 2713 
Q 2441 2713 2670 2916 
Q 2900 3119 2900 3481 
Q 2900 3844 2670 4047 
Q 2441 4250 2034 4250 
Q 1625 4250 1398 4047 
Q 1172 3844 1172 3481 
z
" transform="scale(0.015625)"/>
       </defs>
       <use xlink:href="#DejaVuSans-1b"/>
      </g>
     </g>
    </g>
    <g id="xtick_6">
     <g id="line2d_6">
      <g>
       <use xlink:href="#m89ca58f8f2" x="300.63549" y="242.035781" style="fill: #1a1a1a; stroke: #1a1a1a; stroke-width: 0.8"/>
      </g>
     </g>
     <g id="text_6">
      <!-- 10 -->
      <g style="fill: #1a1a1a" transform="translate(294.27299 256.633438) scale(0.1 -0.1)">
       <defs>
        <path id="DejaVuSans-14" d="M 794 531 
L 1825 531 
L 1825 4091 
L 703 3866 
L 703 4441 
L 1819 4666 
L 2450 4666 
L 2450 531 
L 3481 531 
L 3481 0 
L 794 0 
L 794 531 
z
" transform="scale(0.015625)"/>
       </defs>
       <use xlink:href="#DejaVuSans-14"/>
       <use xlink:href="#DejaVuSans-13" transform="translate(63.625 0)"/>
      </g>
     </g>
    </g>
    <g id="text_7">
     <!-- Feature $x$ -->
     <g style="fill: #1a1a1a" transform="translate(153.463828 270.633438) scale(0.1 -0.1)">
      <defs>
       <path id="DejaVuSans-29" d="M 628 4666 
L 3309 4666 
L 3309 4134 
L 1259 4134 
L 1259 2759 
L 3109 2759 
L 3109 2228 
L 1259 2228 
L 1259 0 
L 628 0 
L 628 4666 
z
" transform="scale(0.015625)"/>
       <path id="DejaVuSans-48" d="M 3597 1894 
L 3597 1613 
L 953 1613 
Q 991 1019 1311 708 
Q 1631 397 2203 397 
Q 2534 397 2845 478 
Q 3156 559 3463 722 
L 3463 178 
Q 3153 47 2828 -22 
Q 2503 -91 2169 -91 
Q 1331 -91 842 396 
Q 353 884 353 1716 
Q 353 2575 817 3079 
Q 1281 3584 2069 3584 
Q 2775 3584 3186 3129 
Q 3597 2675 3597 1894 
z
M 3022 2063 
Q 3016 2534 2758 2815 
Q 2500 3097 2075 3097 
Q 1594 3097 1305 2825 
Q 1016 2553 972 2059 
L 3022 2063 
z
" transform="scale(0.015625)"/>
       <path id="DejaVuSans-44" d="M 2194 1759 
Q 1497 1759 1228 1600 
Q 959 1441 959 1056 
Q 959 750 1161 570 
Q 1363 391 1709 391 
Q 2188 391 2477 730 
Q 2766 1069 2766 1631 
L 2766 1759 
L 2194 1759 
z
M 3341 1997 
L 3341 0 
L 2766 0 
L 2766 531 
Q 2569 213 2275 61 
Q 1981 -91 1556 -91 
Q 1019 -91 701 211 
Q 384 513 384 1019 
Q 384 1609 779 1909 
Q 1175 2209 1959 2209 
L 2766 2209 
L 2766 2266 
Q 2766 2663 2505 2880 
Q 2244 3097 1772 3097 
Q 1472 3097 1187 3025 
Q 903 2953 641 2809 
L 641 3341 
Q 956 3463 1253 3523 
Q 1550 3584 1831 3584 
Q 2591 3584 2966 3190 
Q 3341 2797 3341 1997 
z
" transform="scale(0.015625)"/>
       <path id="DejaVuSans-57" d="M 1172 4494 
L 1172 3500 
L 2356 3500 
L 2356 3053 
L 1172 3053 
L 1172 1153 
Q 1172 725 1289 603 
Q 1406 481 1766 481 
L 2356 481 
L 2356 0 
L 1766 0 
Q 1100 0 847 248 
Q 594 497 594 1153 
L 594 3053 
L 172 3053 
L 172 3500 
L 594 3500 
L 594 4494 
L 1172 4494 
z
" transform="scale(0.015625)"/>
       <path id="DejaVuSans-58" d="M 544 1381 
L 544 3500 
L 1119 3500 
L 1119 1403 
Q 1119 906 1312 657 
Q 1506 409 1894 409 
Q 2359 409 2629 706 
Q 2900 1003 2900 1516 
L 2900 3500 
L 3475 3500 
L 3475 0 
L 2900 0 
L 2900 538 
Q 2691 219 2414 64 
Q 2138 -91 1772 -91 
Q 1169 -91 856 284 
Q 544 659 544 1381 
z
M 1991 3584 
L 1991 3584 
z
" transform="scale(0.015625)"/>
       <path id="DejaVuSans-55" d="M 2631 2963 
Q 2534 3019 2420 3045 
Q 2306 3072 2169 3072 
Q 1681 3072 1420 2755 
Q 1159 2438 1159 1844 
L 1159 0 
L 581 0 
L 581 3500 
L 1159 3500 
L 1159 2956 
Q 1341 3275 1631 3429 
Q 1922 3584 2338 3584 
Q 2397 3584 2469 3576 
Q 2541 3569 2628 3553 
L 2631 2963 
z
" transform="scale(0.015625)"/>
       <path id="DejaVuSans-3" transform="scale(0.015625)"/>
       <path id="DejaVuSans-Oblique-5b" d="M 3841 3500 
L 2234 1784 
L 3219 0 
L 2559 0 
L 1819 1388 
L 531 0 
L -166 0 
L 1556 1844 
L 641 3500 
L 1300 3500 
L 1972 2234 
L 3144 3500 
L 3841 3500 
z
" transform="scale(0.015625)"/>
      </defs>
      <use xlink:href="#DejaVuSans-29" transform="translate(0 0.09375)"/>
      <use xlink:href="#DejaVuSans-48" transform="translate(52.519531 0.09375)"/>
      <use xlink:href="#DejaVuSans-44" transform="translate(114.042969 0.09375)"/>
      <use xlink:href="#DejaVuSans-57" transform="translate(175.322266 0.09375)"/>
      <use xlink:href="#DejaVuSans-58" transform="translate(214.53125 0.09375)"/>
      <use xlink:href="#DejaVuSans-55" transform="translate(277.910156 0.09375)"/>
      <use xlink:href="#DejaVuSans-48" transform="translate(317.023438 0.09375)"/>
      <use xlink:href="#DejaVuSans-3" transform="translate(378.546875 0.09375)"/>
      <use xlink:href="#DejaVuSans-Oblique-5b" transform="translate(410.333984 0.09375)"/>
     </g>
    </g>
   </g>
   <g id="matplotlib.axis_2">
    <g id="ytick_1">
     <g id="line2d_7">
      <defs>
       <path id="mc0a849d356" d="M 0 0 
L -3.5 0 
" style="stroke: #1a1a1a; stroke-width: 0.8"/>
      </defs>
      <g>
       <use xlink:href="#mc0a849d356" x="40.925" y="225.818667" style="fill: #1a1a1a; stroke: #1a1a1a; stroke-width: 0.8"/>
      </g>
     </g>
     <g id="text_8">
      <!-- 2 -->
      <g style="fill: #1a1a1a" transform="translate(27.5625 229.617496) scale(0.1 -0.1)">
       <use xlink:href="#DejaVuSans-15"/>
      </g>
     </g>
    </g>
    <g id="ytick_2">
     <g id="line2d_8">
      <g>
       <use xlink:href="#mc0a849d356" x="40.925" y="182.536845" style="fill: #1a1a1a; stroke: #1a1a1a; stroke-width: 0.8"/>
      </g>
     </g>
     <g id="text_9">
      <!-- 4 -->
      <g style="fill: #1a1a1a" transform="translate(27.5625 186.335673) scale(0.1 -0.1)">
       <use xlink:href="#DejaVuSans-17"/>
      </g>
     </g>
    </g>
    <g id="ytick_3">
     <g id="line2d_9">
      <g>
       <use xlink:href="#mc0a849d356" x="40.925" y="139.255022" style="fill: #1a1a1a; stroke: #1a1a1a; stroke-width: 0.8"/>
      </g>
     </g>
     <g id="text_10">
      <!-- 6 -->
      <g style="fill: #1a1a1a" transform="translate(27.5625 143.05385) scale(0.1 -0.1)">
       <use xlink:href="#DejaVuSans-19"/>
      </g>
     </g>
    </g>
    <g id="ytick_4">
     <g id="line2d_10">
      <g>
       <use xlink:href="#mc0a849d356" x="40.925" y="95.9732" style="fill: #1a1a1a; stroke: #1a1a1a; stroke-width: 0.8"/>
      </g>
     </g>
     <g id="text_11">
      <!-- 8 -->
      <g style="fill: #1a1a1a" transform="translate(27.5625 99.772028) scale(0.1 -0.1)">
       <use xlink:href="#DejaVuSans-1b"/>
      </g>
     </g>
    </g>
    <g id="ytick_5">
     <g id="line2d_11">
      <g>
       <use xlink:href="#mc0a849d356" x="40.925" y="52.691377" style="fill: #1a1a1a; stroke: #1a1a1a; stroke-width: 0.8"/>
      </g>
     </g>
     <g id="text_12">
      <!-- 10 -->
      <g style="fill: #1a1a1a" transform="translate(21.2 56.490205) scale(0.1 -0.1)">
       <use xlink:href="#DejaVuSans-14"/>
       <use xlink:href="#DejaVuSans-13" transform="translate(63.625 0)"/>
      </g>
     </g>
    </g>
    <g id="text_13">
     <!-- Target $y$ -->
     <g style="fill: #1a1a1a" transform="translate(14.797656 152.176953) rotate(-90) scale(0.1 -0.1)">
      <defs>
       <path id="DejaVuSans-37" d="M -19 4666 
L 3928 4666 
L 3928 4134 
L 2272 4134 
L 2272 0 
L 1638 0 
L 1638 4134 
L -19 4134 
L -19 4666 
z
" transform="scale(0.015625)"/>
       <path id="DejaVuSans-4a" d="M 2906 1791 
Q 2906 2416 2648 2759 
Q 2391 3103 1925 3103 
Q 1463 3103 1205 2759 
Q 947 2416 947 1791 
Q 947 1169 1205 825 
Q 1463 481 1925 481 
Q 2391 481 2648 825 
Q 2906 1169 2906 1791 
z
M 3481 434 
Q 3481 -459 3084 -895 
Q 2688 -1331 1869 -1331 
Q 1566 -1331 1297 -1286 
Q 1028 -1241 775 -1147 
L 775 -588 
Q 1028 -725 1275 -790 
Q 1522 -856 1778 -856 
Q 2344 -856 2625 -561 
Q 2906 -266 2906 331 
L 2906 616 
Q 2728 306 2450 153 
Q 2172 0 1784 0 
Q 1141 0 747 490 
Q 353 981 353 1791 
Q 353 2603 747 3093 
Q 1141 3584 1784 3584 
Q 2172 3584 2450 3431 
Q 2728 3278 2906 2969 
L 2906 3500 
L 3481 3500 
L 3481 434 
z
" transform="scale(0.015625)"/>
       <path id="DejaVuSans-Oblique-5c" d="M 1588 -325 
Q 1188 -997 936 -1164 
Q 684 -1331 294 -1331 
L -159 -1331 
L -63 -850 
L 269 -850 
Q 509 -850 678 -719 
Q 847 -588 1056 -206 
L 1234 128 
L 459 3500 
L 1069 3500 
L 1650 819 
L 3256 3500 
L 3859 3500 
L 1588 -325 
z
" transform="scale(0.015625)"/>
      </defs>
      <use xlink:href="#DejaVuSans-37" transform="translate(0 0.09375)"/>
      <use xlink:href="#DejaVuSans-44" transform="translate(44.083984 0.09375)"/>
      <use xlink:href="#DejaVuSans-55" transform="translate(105.363281 0.09375)"/>
      <use xlink:href="#DejaVuSans-4a" transform="translate(144.476562 0.09375)"/>
      <use xlink:href="#DejaVuSans-48" transform="translate(207.953125 0.09375)"/>
      <use xlink:href="#DejaVuSans-57" transform="translate(269.476562 0.09375)"/>
      <use xlink:href="#DejaVuSans-3" transform="translate(308.685547 0.09375)"/>
      <use xlink:href="#DejaVuSans-Oblique-5c" transform="translate(340.472656 0.09375)"/>
     </g>
    </g>
   </g>
   <g id="line2d_12">
    <path d="M 40.925 232.048615 
L 313.002656 58.172135 
L 313.002656 58.172135 
" clip-path="url(#p3291c65c3d)" style="fill: none; stroke: #e74c3c; stroke-width: 2; stroke-linecap: square"/>
   </g>
   <g id="patch_3">
    <path d="M 40.925 242.035781 
L 40.925 22.318125 
" style="fill: none; stroke: #000000; stroke-width: 0.8; stroke-linejoin: miter; stroke-linecap: square"/>
   </g>
   <g id="patch_4">
    <path d="M 313.002656 242.035781 
L 313.002656 22.318125 
" style="fill: none; stroke: #000000; stroke-width: 0.8; stroke-linejoin: miter; stroke-linecap: square"/>
   </g>
   <g id="patch_5">
    <path d="M 40.925 242.035781 
L 313.002656 242.035781 
" style="fill: none; stroke: #000000; stroke-width: 0.8; stroke-linejoin: miter; stroke-linecap: square"/>
   </g>
   <g id="patch_6">
    <path d="M 40.925 22.318125 
L 313.002656 22.318125 
" style="fill: none; stroke: #000000; stroke-width: 0.8; stroke-linejoin: miter; stroke-linecap: square"/>
   </g>
   <g id="text_14">
    <!-- Linear Regression -->
    <g style="fill: #1a1a1a" transform="translate(116.041328 16.318125) scale(0.12 -0.12)">
     <defs>
      <path id="DejaVuSans-Bold-2f" d="M 588 4666 
L 1791 4666 
L 1791 909 
L 3903 909 
L 3903 0 
L 588 0 
L 588 4666 
z
" transform="scale(0.015625)"/>
      <path id="DejaVuSans-Bold-4c" d="M 538 3500 
L 1656 3500 
L 1656 0 
L 538 0 
L 538 3500 
z
M 538 4863 
L 1656 4863 
L 1656 3950 
L 538 3950 
L 538 4863 
z
" transform="scale(0.015625)"/>
      <path id="DejaVuSans-Bold-51" d="M 4056 2131 
L 4056 0 
L 2931 0 
L 2931 347 
L 2931 1631 
Q 2931 2084 2911 2256 
Q 2891 2428 2841 2509 
Q 2775 2619 2662 2680 
Q 2550 2741 2406 2741 
Q 2056 2741 1856 2470 
Q 1656 2200 1656 1722 
L 1656 0 
L 538 0 
L 538 3500 
L 1656 3500 
L 1656 2988 
Q 1909 3294 2193 3439 
Q 2478 3584 2822 3584 
Q 3428 3584 3742 3212 
Q 4056 2841 4056 2131 
z
" transform="scale(0.015625)"/>
      <path id="DejaVuSans-Bold-48" d="M 4031 1759 
L 4031 1441 
L 1416 1441 
Q 1456 1047 1700 850 
Q 1944 653 2381 653 
Q 2734 653 3104 758 
Q 3475 863 3866 1075 
L 3866 213 
Q 3469 63 3072 -14 
Q 2675 -91 2278 -91 
Q 1328 -91 801 392 
Q 275 875 275 1747 
Q 275 2603 792 3093 
Q 1309 3584 2216 3584 
Q 3041 3584 3536 3087 
Q 4031 2591 4031 1759 
z
M 2881 2131 
Q 2881 2450 2695 2645 
Q 2509 2841 2209 2841 
Q 1884 2841 1681 2658 
Q 1478 2475 1428 2131 
L 2881 2131 
z
" transform="scale(0.015625)"/>
      <path id="DejaVuSans-Bold-44" d="M 2106 1575 
Q 1756 1575 1579 1456 
Q 1403 1338 1403 1106 
Q 1403 894 1545 773 
Q 1688 653 1941 653 
Q 2256 653 2472 879 
Q 2688 1106 2688 1447 
L 2688 1575 
L 2106 1575 
z
M 3816 1997 
L 3816 0 
L 2688 0 
L 2688 519 
Q 2463 200 2181 54 
Q 1900 -91 1497 -91 
Q 953 -91 614 226 
Q 275 544 275 1050 
Q 275 1666 698 1953 
Q 1122 2241 2028 2241 
L 2688 2241 
L 2688 2328 
Q 2688 2594 2478 2717 
Q 2269 2841 1825 2841 
Q 1466 2841 1156 2769 
Q 847 2697 581 2553 
L 581 3406 
Q 941 3494 1303 3539 
Q 1666 3584 2028 3584 
Q 2975 3584 3395 3211 
Q 3816 2838 3816 1997 
z
" transform="scale(0.015625)"/>
      <path id="DejaVuSans-Bold-55" d="M 3138 2547 
Q 2991 2616 2845 2648 
Q 2700 2681 2553 2681 
Q 2122 2681 1889 2404 
Q 1656 2128 1656 1613 
L 1656 0 
L 538 0 
L 538 3500 
L 1656 3500 
L 1656 2925 
Q 1872 3269 2151 3426 
Q 2431 3584 2822 3584 
Q 2878 3584 2943 3579 
Q 3009 3575 3134 3559 
L 3138 2547 
z
" transform="scale(0.015625)"/>
      <path id="DejaVuSans-Bold-3" transform="scale(0.015625)"/>
      <path id="DejaVuSans-Bold-35" d="M 2297 2597 
Q 2675 2597 2839 2737 
Q 3003 2878 3003 3200 
Q 3003 3519 2839 3656 
Q 2675 3794 2297 3794 
L 1791 3794 
L 1791 2597 
L 2297 2597 
z
M 1791 1766 
L 1791 0 
L 588 0 
L 588 4666 
L 2425 4666 
Q 3347 4666 3776 4356 
Q 4206 4047 4206 3378 
Q 4206 2916 3982 2619 
Q 3759 2322 3309 2181 
Q 3556 2125 3751 1926 
Q 3947 1728 4147 1325 
L 4800 0 
L 3519 0 
L 2950 1159 
Q 2778 1509 2601 1637 
Q 2425 1766 2131 1766 
L 1791 1766 
z
" transform="scale(0.015625)"/>
      <path id="DejaVuSans-Bold-4a" d="M 2919 594 
Q 2688 288 2409 144 
Q 2131 0 1766 0 
Q 1125 0 706 504 
Q 288 1009 288 1791 
Q 288 2575 706 3076 
Q 1125 3578 1766 3578 
Q 2131 3578 2409 3434 
Q 2688 3291 2919 2981 
L 2919 3500 
L 4044 3500 
L 4044 353 
Q 4044 -491 3511 -936 
Q 2978 -1381 1966 -1381 
Q 1638 -1381 1331 -1331 
Q 1025 -1281 716 -1178 
L 716 -306 
Q 1009 -475 1290 -558 
Q 1572 -641 1856 -641 
Q 2406 -641 2662 -400 
Q 2919 -159 2919 353 
L 2919 594 
z
M 2181 2772 
Q 1834 2772 1640 2515 
Q 1447 2259 1447 1791 
Q 1447 1309 1634 1061 
Q 1822 813 2181 813 
Q 2531 813 2725 1069 
Q 2919 1325 2919 1791 
Q 2919 2259 2725 2515 
Q 2531 2772 2181 2772 
z
" transform="scale(0.015625)"/>
      <path id="DejaVuSans-Bold-56" d="M 3272 3391 
L 3272 2541 
Q 2913 2691 2578 2766 
Q 2244 2841 1947 2841 
Q 1628 2841 1473 2761 
Q 1319 2681 1319 2516 
Q 1319 2381 1436 2309 
Q 1553 2238 1856 2203 
L 2053 2175 
Q 2913 2066 3209 1816 
Q 3506 1566 3506 1031 
Q 3506 472 3093 190 
Q 2681 -91 1863 -91 
Q 1516 -91 1145 -36 
Q 775 19 384 128 
L 384 978 
Q 719 816 1070 734 
Q 1422 653 1784 653 
Q 2113 653 2278 743 
Q 2444 834 2444 1013 
Q 2444 1163 2330 1236 
Q 2216 1309 1875 1350 
L 1678 1375 
Q 931 1469 631 1722 
Q 331 1975 331 2491 
Q 331 3047 712 3315 
Q 1094 3584 1881 3584 
Q 2191 3584 2531 3537 
Q 2872 3491 3272 3391 
z
" transform="scale(0.015625)"/>
      <path id="DejaVuSans-Bold-52" d="M 2203 2784 
Q 1831 2784 1636 2517 
Q 1441 2250 1441 1747 
Q 1441 1244 1636 976 
Q 1831 709 2203 709 
Q 2569 709 2762 976 
Q 2956 1244 2956 1747 
Q 2956 2250 2762 2517 
Q 2569 2784 2203 2784 
z
M 2203 3584 
Q 3106 3584 3614 3096 
Q 4122 2609 4122 1747 
Q 4122 884 3614 396 
Q 3106 -91 2203 -91 
Q 1297 -91 786 396 
Q 275 884 275 1747 
Q 275 2609 786 3096 
Q 1297 3584 2203 3584 
z
" transform="scale(0.015625)"/>
     </defs>
     <use xlink:href="#DejaVuSans-Bold-2f"/>
     <use xlink:href="#DejaVuSans-Bold-4c" transform="translate(63.71875 0)"/>
     <use xlink:href="#DejaVuSans-Bold-51" transform="translate(98 0)"/>
     <use xlink:href="#DejaVuSans-Bold-48" transform="translate(169.1875 0)"/>
     <use xlink:href="#DejaVuSans-Bold-44" transform="translate(237.015625 0)"/>
     <use xlink:href="#DejaVuSans-Bold-55" transform="translate(304.5 0)"/>
     <use xlink:href="#DejaVuSans-Bold-3" transform="translate(353.8125 0)"/>
     <use xlink:href="#DejaVuSans-Bold-35" transform="translate(388.625 0)"/>
     <use xlink:href="#DejaVuSans-Bold-48" transform="translate(465.625 0)"/>
     <use xlink:href="#DejaVuSans-Bold-4a" transform="translate(533.453125 0)"/>
     <use xlink:href="#DejaVuSans-Bold-55" transform="translate(605.03125 0)"/>
     <use xlink:href="#DejaVuSans-Bold-48" transform="translate(654.34375 0)"/>
     <use xlink:href="#DejaVuSans-Bold-56" transform="translate(722.171875 0)"/>
     <use xlink:href="#DejaVuSans-Bold-56" transform="translate(781.6875 0)"/>
     <use xlink:href="#DejaVuSans-Bold-4c" transform="translate(841.203125 0)"/>
     <use xlink:href="#DejaVuSans-Bold-52" transform="translate(875.484375 0)"/>
     <use xlink:href="#DejaVuSans-Bold-51" transform="translate(944.1875 0)"/>
    </g>
   </g>
   <g id="legend_1">
    <g id="PathCollection_2">
     <g>
      <use xlink:href="#m6ce09e2f93" x="56.125" y="33.496875" style="fill: #3498db; fill-opacity: 0.7; stroke: #3498db; stroke-opacity: 0.7"/>
     </g>
    </g>
    <g id="text_15">
     <!-- Data -->
     <g style="fill: #1a1a1a" transform="translate(70.525 35.596875) scale(0.08 -0.08)">
      <defs>
       <path id="DejaVuSans-27" d="M 1259 4147 
L 1259 519 
L 2022 519 
Q 2988 519 3436 956 
Q 3884 1394 3884 2338 
Q 3884 3275 3436 3711 
Q 2988 4147 2022 4147 
L 1259 4147 
z
M 628 4666 
L 1925 4666 
Q 3281 4666 3915 4102 
Q 4550 3538 4550 2338 
Q 4550 1131 3912 565 
Q 3275 0 1925 0 
L 628 0 
L 628 4666 
z
" transform="scale(0.015625)"/>
      </defs>
      <use xlink:href="#DejaVuSans-27"/>
      <use xlink:href="#DejaVuSans-44" transform="translate(77 0)"/>
      <use xlink:href="#DejaVuSans-57" transform="translate(138.28125 0)"/>
      <use xlink:href="#DejaVuSans-44" transform="translate(177.484375 0)"/>
     </g>
    </g>
    <g id="line2d_13">
     <path d="M 48.125 44.7975 
L 56.125 44.7975 
L 64.125 44.7975 
" style="fill: none; stroke: #e74c3c; stroke-width: 2; stroke-linecap: square"/>
    </g>
    <g id="text_16">
     <!-- Linear fit -->
     <g style="fill: #1a1a1a" transform="translate(70.525 47.5975) scale(0.08 -0.08)">
      <defs>
       <path id="DejaVuSans-2f" d="M 628 4666 
L 1259 4666 
L 1259 531 
L 3531 531 
L 3531 0 
L 628 0 
L 628 4666 
z
" transform="scale(0.015625)"/>
       <path id="DejaVuSans-4c" d="M 603 3500 
L 1178 3500 
L 1178 0 
L 603 0 
L 603 3500 
z
M 603 4863 
L 1178 4863 
L 1178 4134 
L 603 4134 
L 603 4863 
z
" transform="scale(0.015625)"/>
       <path id="DejaVuSans-51" d="M 3513 2113 
L 3513 0 
L 2938 0 
L 2938 2094 
Q 2938 2591 2744 2837 
Q 2550 3084 2163 3084 
Q 1697 3084 1428 2787 
Q 1159 2491 1159 1978 
L 1159 0 
L 581 0 
L 581 3500 
L 1159 3500 
L 1159 2956 
Q 1366 3272 1645 3428 
Q 1925 3584 2291 3584 
Q 2894 3584 3203 3211 
Q 3513 2838 3513 2113 
z
" transform="scale(0.015625)"/>
       <path id="DejaVuSans-13af" d="M 3431 3500 
L 3431 0 
L 2853 0 
L 2853 3053 
L 1275 3053 
L 1275 0 
L 697 0 
L 697 3053 
L 147 3053 
L 147 3500 
L 697 3500 
L 697 3744 
Q 697 4316 967 4589 
Q 1238 4863 1797 4863 
L 2375 4863 
L 2375 4384 
L 1825 4384 
Q 1516 4384 1395 4259 
Q 1275 4134 1275 3809 
L 1275 3500 
L 3431 3500 
z
M 2853 4856 
L 3431 4856 
L 3431 4128 
L 2853 4128 
L 2853 4856 
z
" transform="scale(0.015625)"/>
      </defs>
      <use xlink:href="#DejaVuSans-2f"/>
      <use xlink:href="#DejaVuSans-4c" transform="translate(55.71875 0)"/>
      <use xlink:href="#DejaVuSans-51" transform="translate(83.5 0)"/>
      <use xlink:href="#DejaVuSans-48" transform="translate(146.875 0)"/>
      <use xlink:href="#DejaVuSans-44" transform="translate(208.40625 0)"/>
      <use xlink:href="#DejaVuSans-55" transform="translate(269.6875 0)"/>
      <use xlink:href="#DejaVuSans-3" transform="translate(310.796875 0)"/>
      <use xlink:href="#DejaVuSans-13af" transform="translate(342.578125 0)"/>
      <use xlink:href="#DejaVuSans-57" transform="translate(405.5625 0)"/>
     </g>
    </g>
   </g>
  </g>
  <g id="axes_2">
   <g id="patch_7">
    <path d="M 360.965 242.035781 
L 633.042656 242.035781 
L 633.042656 22.318125 
L 360.965 22.318125 
L 360.965 242.035781 
z
" style="fill: none"/>
   </g>
   <g id="PathCollection_3">
    <defs>
     <path id="maa3e3d0dd6" d="M 0 1.936492 
C 0.513564 1.936492 1.006162 1.732451 1.369306 1.369306 
C 1.732451 1.006162 1.936492 0.513564 1.936492 0 
C 1.936492 -0.513564 1.732451 -1.006162 1.369306 -1.369306 
C 1.006162 -1.732451 0.513564 -1.936492 0 -1.936492 
C -0.513564 -1.936492 -1.006162 -1.732451 -1.369306 -1.369306 
C -1.732451 -1.006162 -1.936492 -0.513564 -1.936492 0 
C -1.936492 0.513564 -1.732451 1.006162 -1.369306 1.369306 
C -1.006162 1.732451 -0.513564 1.936492 0 1.936492 
z
" style="stroke: #3498db; stroke-opacity: 0.6"/>
    </defs>
    <g clip-path="url(#pc741abab35)">
     <use xlink:href="#maa3e3d0dd6" x="380.60697" y="231.04793" style="fill: #3498db; fill-opacity: 0.6; stroke: #3498db; stroke-opacity: 0.6"/>
     <use xlink:href="#maa3e3d0dd6" x="382.958422" y="230.664601" style="fill: #3498db; fill-opacity: 0.6; stroke: #3498db; stroke-opacity: 0.6"/>
     <use xlink:href="#maa3e3d0dd6" x="385.309873" y="234.765223" style="fill: #3498db; fill-opacity: 0.6; stroke: #3498db; stroke-opacity: 0.6"/>
     <use xlink:href="#maa3e3d0dd6" x="387.661325" y="231.120793" style="fill: #3498db; fill-opacity: 0.6; stroke: #3498db; stroke-opacity: 0.6"/>
     <use xlink:href="#maa3e3d0dd6" x="390.012777" y="230.87783" style="fill: #3498db; fill-opacity: 0.6; stroke: #3498db; stroke-opacity: 0.6"/>
     <use xlink:href="#maa3e3d0dd6" x="392.364228" y="234.902354" style="fill: #3498db; fill-opacity: 0.6; stroke: #3498db; stroke-opacity: 0.6"/>
     <use xlink:href="#maa3e3d0dd6" x="394.71568" y="224.595095" style="fill: #3498db; fill-opacity: 0.6; stroke: #3498db; stroke-opacity: 0.6"/>
     <use xlink:href="#maa3e3d0dd6" x="397.067132" y="230.155716" style="fill: #3498db; fill-opacity: 0.6; stroke: #3498db; stroke-opacity: 0.6"/>
     <use xlink:href="#maa3e3d0dd6" x="399.418583" y="236.807713" style="fill: #3498db; fill-opacity: 0.6; stroke: #3498db; stroke-opacity: 0.6"/>
     <use xlink:href="#maa3e3d0dd6" x="401.770035" y="229.425771" style="fill: #3498db; fill-opacity: 0.6; stroke: #3498db; stroke-opacity: 0.6"/>
     <use xlink:href="#maa3e3d0dd6" x="404.121487" y="235.942338" style="fill: #3498db; fill-opacity: 0.6; stroke: #3498db; stroke-opacity: 0.6"/>
     <use xlink:href="#maa3e3d0dd6" x="406.472938" y="228.904317" style="fill: #3498db; fill-opacity: 0.6; stroke: #3498db; stroke-opacity: 0.6"/>
     <use xlink:href="#maa3e3d0dd6" x="408.82439" y="227.42018" style="fill: #3498db; fill-opacity: 0.6; stroke: #3498db; stroke-opacity: 0.6"/>
     <use xlink:href="#maa3e3d0dd6" x="411.175842" y="235.327131" style="fill: #3498db; fill-opacity: 0.6; stroke: #3498db; stroke-opacity: 0.6"/>
     <use xlink:href="#maa3e3d0dd6" x="413.527293" y="228.200056" style="fill: #3498db; fill-opacity: 0.6; stroke: #3498db; stroke-opacity: 0.6"/>
     <use xlink:href="#maa3e3d0dd6" x="415.878745" y="230.39961" style="fill: #3498db; fill-opacity: 0.6; stroke: #3498db; stroke-opacity: 0.6"/>
     <use xlink:href="#maa3e3d0dd6" x="418.230197" y="228.764594" style="fill: #3498db; fill-opacity: 0.6; stroke: #3498db; stroke-opacity: 0.6"/>
     <use xlink:href="#maa3e3d0dd6" x="420.581648" y="224.47118" style="fill: #3498db; fill-opacity: 0.6; stroke: #3498db; stroke-opacity: 0.6"/>
     <use xlink:href="#maa3e3d0dd6" x="422.9331" y="233.028908" style="fill: #3498db; fill-opacity: 0.6; stroke: #3498db; stroke-opacity: 0.6"/>
     <use xlink:href="#maa3e3d0dd6" x="425.284552" y="235.05969" style="fill: #3498db; fill-opacity: 0.6; stroke: #3498db; stroke-opacity: 0.6"/>
     <use xlink:href="#maa3e3d0dd6" x="427.636003" y="235.602106" style="fill: #3498db; fill-opacity: 0.6; stroke: #3498db; stroke-opacity: 0.6"/>
     <use xlink:href="#maa3e3d0dd6" x="429.987455" y="235.307668" style="fill: #3498db; fill-opacity: 0.6; stroke: #3498db; stroke-opacity: 0.6"/>
     <use xlink:href="#maa3e3d0dd6" x="432.338907" y="232.356626" style="fill: #3498db; fill-opacity: 0.6; stroke: #3498db; stroke-opacity: 0.6"/>
     <use xlink:href="#maa3e3d0dd6" x="434.690359" y="230.685758" style="fill: #3498db; fill-opacity: 0.6; stroke: #3498db; stroke-opacity: 0.6"/>
     <use xlink:href="#maa3e3d0dd6" x="437.04181" y="230.943272" style="fill: #3498db; fill-opacity: 0.6; stroke: #3498db; stroke-opacity: 0.6"/>
     <use xlink:href="#maa3e3d0dd6" x="439.393262" y="228.744128" style="fill: #3498db; fill-opacity: 0.6; stroke: #3498db; stroke-opacity: 0.6"/>
     <use xlink:href="#maa3e3d0dd6" x="441.744714" y="231.996674" style="fill: #3498db; fill-opacity: 0.6; stroke: #3498db; stroke-opacity: 0.6"/>
     <use xlink:href="#maa3e3d0dd6" x="444.096165" y="226.24194" style="fill: #3498db; fill-opacity: 0.6; stroke: #3498db; stroke-opacity: 0.6"/>
     <use xlink:href="#maa3e3d0dd6" x="446.447617" y="233.105884" style="fill: #3498db; fill-opacity: 0.6; stroke: #3498db; stroke-opacity: 0.6"/>
     <use xlink:href="#maa3e3d0dd6" x="448.799069" y="221.181902" style="fill: #3498db; fill-opacity: 0.6; stroke: #3498db; stroke-opacity: 0.6"/>
     <use xlink:href="#maa3e3d0dd6" x="451.15052" y="229.549158" style="fill: #3498db; fill-opacity: 0.6; stroke: #3498db; stroke-opacity: 0.6"/>
     <use xlink:href="#maa3e3d0dd6" x="453.501972" y="235.472845" style="fill: #3498db; fill-opacity: 0.6; stroke: #3498db; stroke-opacity: 0.6"/>
     <use xlink:href="#maa3e3d0dd6" x="455.853424" y="236.326688" style="fill: #3498db; fill-opacity: 0.6; stroke: #3498db; stroke-opacity: 0.6"/>
     <use xlink:href="#maa3e3d0dd6" x="458.204875" y="230.121202" style="fill: #3498db; fill-opacity: 0.6; stroke: #3498db; stroke-opacity: 0.6"/>
     <use xlink:href="#maa3e3d0dd6" x="460.556327" y="232.941319" style="fill: #3498db; fill-opacity: 0.6; stroke: #3498db; stroke-opacity: 0.6"/>
     <use xlink:href="#maa3e3d0dd6" x="462.907779" y="229.196278" style="fill: #3498db; fill-opacity: 0.6; stroke: #3498db; stroke-opacity: 0.6"/>
     <use xlink:href="#maa3e3d0dd6" x="465.25923" y="230.158094" style="fill: #3498db; fill-opacity: 0.6; stroke: #3498db; stroke-opacity: 0.6"/>
     <use xlink:href="#maa3e3d0dd6" x="467.610682" y="232.339557" style="fill: #3498db; fill-opacity: 0.6; stroke: #3498db; stroke-opacity: 0.6"/>
     <use xlink:href="#maa3e3d0dd6" x="469.962134" y="235.431443" style="fill: #3498db; fill-opacity: 0.6; stroke: #3498db; stroke-opacity: 0.6"/>
     <use xlink:href="#maa3e3d0dd6" x="472.313585" y="238.100227" style="fill: #3498db; fill-opacity: 0.6; stroke: #3498db; stroke-opacity: 0.6"/>
     <use xlink:href="#maa3e3d0dd6" x="474.665037" y="233.832383" style="fill: #3498db; fill-opacity: 0.6; stroke: #3498db; stroke-opacity: 0.6"/>
     <use xlink:href="#maa3e3d0dd6" x="477.016489" y="228.627416" style="fill: #3498db; fill-opacity: 0.6; stroke: #3498db; stroke-opacity: 0.6"/>
     <use xlink:href="#maa3e3d0dd6" x="479.367941" y="231.193339" style="fill: #3498db; fill-opacity: 0.6; stroke: #3498db; stroke-opacity: 0.6"/>
     <use xlink:href="#maa3e3d0dd6" x="481.719392" y="237.025175" style="fill: #3498db; fill-opacity: 0.6; stroke: #3498db; stroke-opacity: 0.6"/>
     <use xlink:href="#maa3e3d0dd6" x="484.070844" y="231.35678" style="fill: #3498db; fill-opacity: 0.6; stroke: #3498db; stroke-opacity: 0.6"/>
     <use xlink:href="#maa3e3d0dd6" x="486.422296" y="230.509324" style="fill: #3498db; fill-opacity: 0.6; stroke: #3498db; stroke-opacity: 0.6"/>
     <use xlink:href="#maa3e3d0dd6" x="488.773747" y="235.579507" style="fill: #3498db; fill-opacity: 0.6; stroke: #3498db; stroke-opacity: 0.6"/>
     <use xlink:href="#maa3e3d0dd6" x="491.125199" y="231.434504" style="fill: #3498db; fill-opacity: 0.6; stroke: #3498db; stroke-opacity: 0.6"/>
     <use xlink:href="#maa3e3d0dd6" x="493.476651" y="231.816079" style="fill: #3498db; fill-opacity: 0.6; stroke: #3498db; stroke-opacity: 0.6"/>
     <use xlink:href="#maa3e3d0dd6" x="495.828102" y="236.614629" style="fill: #3498db; fill-opacity: 0.6; stroke: #3498db; stroke-opacity: 0.6"/>
     <use xlink:href="#maa3e3d0dd6" x="498.179554" y="230.619302" style="fill: #3498db; fill-opacity: 0.6; stroke: #3498db; stroke-opacity: 0.6"/>
     <use xlink:href="#maa3e3d0dd6" x="500.531006" y="229.808356" style="fill: #3498db; fill-opacity: 0.6; stroke: #3498db; stroke-opacity: 0.6"/>
     <use xlink:href="#maa3e3d0dd6" x="502.882457" y="227.72197" style="fill: #3498db; fill-opacity: 0.6; stroke: #3498db; stroke-opacity: 0.6"/>
     <use xlink:href="#maa3e3d0dd6" x="505.233909" y="227.838817" style="fill: #3498db; fill-opacity: 0.6; stroke: #3498db; stroke-opacity: 0.6"/>
     <use xlink:href="#maa3e3d0dd6" x="507.585361" y="37.808896" style="fill: #3498db; fill-opacity: 0.6; stroke: #3498db; stroke-opacity: 0.6"/>
     <use xlink:href="#maa3e3d0dd6" x="509.936812" y="36.051777" style="fill: #3498db; fill-opacity: 0.6; stroke: #3498db; stroke-opacity: 0.6"/>
     <use xlink:href="#maa3e3d0dd6" x="512.288264" y="30.247794" style="fill: #3498db; fill-opacity: 0.6; stroke: #3498db; stroke-opacity: 0.6"/>
     <use xlink:href="#maa3e3d0dd6" x="514.639716" y="30.252785" style="fill: #3498db; fill-opacity: 0.6; stroke: #3498db; stroke-opacity: 0.6"/>
     <use xlink:href="#maa3e3d0dd6" x="516.991167" y="30.247744" style="fill: #3498db; fill-opacity: 0.6; stroke: #3498db; stroke-opacity: 0.6"/>
     <use xlink:href="#maa3e3d0dd6" x="519.342619" y="16.914143" style="fill: #3498db; fill-opacity: 0.6; stroke: #3498db; stroke-opacity: 0.6"/>
     <use xlink:href="#maa3e3d0dd6" x="521.694071" y="30.02466" style="fill: #3498db; fill-opacity: 0.6; stroke: #3498db; stroke-opacity: 0.6"/>
     <use xlink:href="#maa3e3d0dd6" x="524.045522" y="27.768858" style="fill: #3498db; fill-opacity: 0.6; stroke: #3498db; stroke-opacity: 0.6"/>
     <use xlink:href="#maa3e3d0dd6" x="526.396974" y="28.494182" style="fill: #3498db; fill-opacity: 0.6; stroke: #3498db; stroke-opacity: 0.6"/>
     <use xlink:href="#maa3e3d0dd6" x="528.748426" y="29.70307" style="fill: #3498db; fill-opacity: 0.6; stroke: #3498db; stroke-opacity: 0.6"/>
     <use xlink:href="#maa3e3d0dd6" x="531.099878" y="33.56475" style="fill: #3498db; fill-opacity: 0.6; stroke: #3498db; stroke-opacity: 0.6"/>
     <use xlink:href="#maa3e3d0dd6" x="533.451329" y="29.27331" style="fill: #3498db; fill-opacity: 0.6; stroke: #3498db; stroke-opacity: 0.6"/>
     <use xlink:href="#maa3e3d0dd6" x="535.802781" y="35.392625" style="fill: #3498db; fill-opacity: 0.6; stroke: #3498db; stroke-opacity: 0.6"/>
     <use xlink:href="#maa3e3d0dd6" x="538.154233" y="33.25135" style="fill: #3498db; fill-opacity: 0.6; stroke: #3498db; stroke-opacity: 0.6"/>
     <use xlink:href="#maa3e3d0dd6" x="540.505684" y="34.244254" style="fill: #3498db; fill-opacity: 0.6; stroke: #3498db; stroke-opacity: 0.6"/>
     <use xlink:href="#maa3e3d0dd6" x="542.857136" y="31.978215" style="fill: #3498db; fill-opacity: 0.6; stroke: #3498db; stroke-opacity: 0.6"/>
     <use xlink:href="#maa3e3d0dd6" x="545.208588" y="23.058539" style="fill: #3498db; fill-opacity: 0.6; stroke: #3498db; stroke-opacity: 0.6"/>
     <use xlink:href="#maa3e3d0dd6" x="547.560039" y="39.764766" style="fill: #3498db; fill-opacity: 0.6; stroke: #3498db; stroke-opacity: 0.6"/>
     <use xlink:href="#maa3e3d0dd6" x="549.911491" y="29.563773" style="fill: #3498db; fill-opacity: 0.6; stroke: #3498db; stroke-opacity: 0.6"/>
     <use xlink:href="#maa3e3d0dd6" x="552.262943" y="38.747876" style="fill: #3498db; fill-opacity: 0.6; stroke: #3498db; stroke-opacity: 0.6"/>
     <use xlink:href="#maa3e3d0dd6" x="554.614394" y="34.190596" style="fill: #3498db; fill-opacity: 0.6; stroke: #3498db; stroke-opacity: 0.6"/>
     <use xlink:href="#maa3e3d0dd6" x="556.965846" y="27.955079" style="fill: #3498db; fill-opacity: 0.6; stroke: #3498db; stroke-opacity: 0.6"/>
     <use xlink:href="#maa3e3d0dd6" x="559.317298" y="32.048501" style="fill: #3498db; fill-opacity: 0.6; stroke: #3498db; stroke-opacity: 0.6"/>
     <use xlink:href="#maa3e3d0dd6" x="561.668749" y="36.610738" style="fill: #3498db; fill-opacity: 0.6; stroke: #3498db; stroke-opacity: 0.6"/>
     <use xlink:href="#maa3e3d0dd6" x="564.020201" y="35.162834" style="fill: #3498db; fill-opacity: 0.6; stroke: #3498db; stroke-opacity: 0.6"/>
     <use xlink:href="#maa3e3d0dd6" x="566.371653" y="29.590389" style="fill: #3498db; fill-opacity: 0.6; stroke: #3498db; stroke-opacity: 0.6"/>
     <use xlink:href="#maa3e3d0dd6" x="568.723104" y="35.223008" style="fill: #3498db; fill-opacity: 0.6; stroke: #3498db; stroke-opacity: 0.6"/>
     <use xlink:href="#maa3e3d0dd6" x="571.074556" y="31.440568" style="fill: #3498db; fill-opacity: 0.6; stroke: #3498db; stroke-opacity: 0.6"/>
     <use xlink:href="#maa3e3d0dd6" x="573.426008" y="32.123238" style="fill: #3498db; fill-opacity: 0.6; stroke: #3498db; stroke-opacity: 0.6"/>
     <use xlink:href="#maa3e3d0dd6" x="575.777459" y="34.908348" style="fill: #3498db; fill-opacity: 0.6; stroke: #3498db; stroke-opacity: 0.6"/>
     <use xlink:href="#maa3e3d0dd6" x="578.128911" y="23.740521" style="fill: #3498db; fill-opacity: 0.6; stroke: #3498db; stroke-opacity: 0.6"/>
     <use xlink:href="#maa3e3d0dd6" x="580.480363" y="29.772869" style="fill: #3498db; fill-opacity: 0.6; stroke: #3498db; stroke-opacity: 0.6"/>
     <use xlink:href="#maa3e3d0dd6" x="582.831815" y="40.395465" style="fill: #3498db; fill-opacity: 0.6; stroke: #3498db; stroke-opacity: 0.6"/>
     <use xlink:href="#maa3e3d0dd6" x="585.183266" y="31.560431" style="fill: #3498db; fill-opacity: 0.6; stroke: #3498db; stroke-opacity: 0.6"/>
     <use xlink:href="#maa3e3d0dd6" x="587.534718" y="34.94904" style="fill: #3498db; fill-opacity: 0.6; stroke: #3498db; stroke-opacity: 0.6"/>
     <use xlink:href="#maa3e3d0dd6" x="589.88617" y="28.899934" style="fill: #3498db; fill-opacity: 0.6; stroke: #3498db; stroke-opacity: 0.6"/>
     <use xlink:href="#maa3e3d0dd6" x="592.237621" y="35.471306" style="fill: #3498db; fill-opacity: 0.6; stroke: #3498db; stroke-opacity: 0.6"/>
     <use xlink:href="#maa3e3d0dd6" x="594.589073" y="32.763648" style="fill: #3498db; fill-opacity: 0.6; stroke: #3498db; stroke-opacity: 0.6"/>
     <use xlink:href="#maa3e3d0dd6" x="596.940525" y="30.287934" style="fill: #3498db; fill-opacity: 0.6; stroke: #3498db; stroke-opacity: 0.6"/>
     <use xlink:href="#maa3e3d0dd6" x="599.291976" y="28.846715" style="fill: #3498db; fill-opacity: 0.6; stroke: #3498db; stroke-opacity: 0.6"/>
     <use xlink:href="#maa3e3d0dd6" x="601.643428" y="37.100315" style="fill: #3498db; fill-opacity: 0.6; stroke: #3498db; stroke-opacity: 0.6"/>
     <use xlink:href="#maa3e3d0dd6" x="603.99488" y="33.641579" style="fill: #3498db; fill-opacity: 0.6; stroke: #3498db; stroke-opacity: 0.6"/>
     <use xlink:href="#maa3e3d0dd6" x="606.346331" y="34.202634" style="fill: #3498db; fill-opacity: 0.6; stroke: #3498db; stroke-opacity: 0.6"/>
     <use xlink:href="#maa3e3d0dd6" x="608.697783" y="34.915254" style="fill: #3498db; fill-opacity: 0.6; stroke: #3498db; stroke-opacity: 0.6"/>
     <use xlink:href="#maa3e3d0dd6" x="611.049235" y="25.252537" style="fill: #3498db; fill-opacity: 0.6; stroke: #3498db; stroke-opacity: 0.6"/>
     <use xlink:href="#maa3e3d0dd6" x="613.400686" y="30.687443" style="fill: #3498db; fill-opacity: 0.6; stroke: #3498db; stroke-opacity: 0.6"/>
    </g>
   </g>
   <g id="matplotlib.axis_3">
    <g id="xtick_7">
     <g id="line2d_14">
      <g>
       <use xlink:href="#m89ca58f8f2" x="387.881773" y="242.035781" style="fill: #1a1a1a; stroke: #1a1a1a; stroke-width: 0.8"/>
      </g>
     </g>
     <g id="text_17">
      <!-- −7.5 -->
      <g style="fill: #1a1a1a" transform="translate(375.740367 256.633438) scale(0.1 -0.1)">
       <defs>
        <path id="DejaVuSans-c9c" d="M 678 2272 
L 4684 2272 
L 4684 1741 
L 678 1741 
L 678 2272 
z
" transform="scale(0.015625)"/>
        <path id="DejaVuSans-1a" d="M 525 4666 
L 3525 4666 
L 3525 4397 
L 1831 0 
L 1172 0 
L 2766 4134 
L 525 4134 
L 525 4666 
z
" transform="scale(0.015625)"/>
        <path id="DejaVuSans-11" d="M 684 794 
L 1344 794 
L 1344 0 
L 684 0 
L 684 794 
z
" transform="scale(0.015625)"/>
        <path id="DejaVuSans-18" d="M 691 4666 
L 3169 4666 
L 3169 4134 
L 1269 4134 
L 1269 2991 
Q 1406 3038 1543 3061 
Q 1681 3084 1819 3084 
Q 2600 3084 3056 2656 
Q 3513 2228 3513 1497 
Q 3513 744 3044 326 
Q 2575 -91 1722 -91 
Q 1428 -91 1123 -41 
Q 819 9 494 109 
L 494 744 
Q 775 591 1075 516 
Q 1375 441 1709 441 
Q 2250 441 2565 725 
Q 2881 1009 2881 1497 
Q 2881 1984 2565 2268 
Q 2250 2553 1709 2553 
Q 1456 2553 1204 2497 
Q 953 2441 691 2322 
L 691 4666 
z
" transform="scale(0.015625)"/>
       </defs>
       <use xlink:href="#DejaVuSans-c9c"/>
       <use xlink:href="#DejaVuSans-1a" transform="translate(83.796875 0)"/>
       <use xlink:href="#DejaVuSans-11" transform="translate(147.421875 0)"/>
       <use xlink:href="#DejaVuSans-18" transform="translate(179.203125 0)"/>
      </g>
     </g>
    </g>
    <g id="xtick_8">
     <g id="line2d_15">
      <g>
       <use xlink:href="#m89ca58f8f2" x="424.255792" y="242.035781" style="fill: #1a1a1a; stroke: #1a1a1a; stroke-width: 0.8"/>
      </g>
     </g>
     <g id="text_18">
      <!-- −5.0 -->
      <g style="fill: #1a1a1a" transform="translate(412.114385 256.633438) scale(0.1 -0.1)">
       <use xlink:href="#DejaVuSans-c9c"/>
       <use xlink:href="#DejaVuSans-18" transform="translate(83.796875 0)"/>
       <use xlink:href="#DejaVuSans-11" transform="translate(147.421875 0)"/>
       <use xlink:href="#DejaVuSans-13" transform="translate(179.203125 0)"/>
      </g>
     </g>
    </g>
    <g id="xtick_9">
     <g id="line2d_16">
      <g>
       <use xlink:href="#m89ca58f8f2" x="460.62981" y="242.035781" style="fill: #1a1a1a; stroke: #1a1a1a; stroke-width: 0.8"/>
      </g>
     </g>
     <g id="text_19">
      <!-- −2.5 -->
      <g style="fill: #1a1a1a" transform="translate(448.488404 256.633438) scale(0.1 -0.1)">
       <use xlink:href="#DejaVuSans-c9c"/>
       <use xlink:href="#DejaVuSans-15" transform="translate(83.796875 0)"/>
       <use xlink:href="#DejaVuSans-11" transform="translate(147.421875 0)"/>
       <use xlink:href="#DejaVuSans-18" transform="translate(179.203125 0)"/>
      </g>
     </g>
    </g>
    <g id="xtick_10">
     <g id="line2d_17">
      <g>
       <use xlink:href="#m89ca58f8f2" x="497.003828" y="242.035781" style="fill: #1a1a1a; stroke: #1a1a1a; stroke-width: 0.8"/>
      </g>
     </g>
     <g id="text_20">
      <!-- 0.0 -->
      <g style="fill: #1a1a1a" transform="translate(489.052266 256.633438) scale(0.1 -0.1)">
       <use xlink:href="#DejaVuSans-13"/>
       <use xlink:href="#DejaVuSans-11" transform="translate(63.625 0)"/>
       <use xlink:href="#DejaVuSans-13" transform="translate(95.40625 0)"/>
      </g>
     </g>
    </g>
    <g id="xtick_11">
     <g id="line2d_18">
      <g>
       <use xlink:href="#m89ca58f8f2" x="533.377846" y="242.035781" style="fill: #1a1a1a; stroke: #1a1a1a; stroke-width: 0.8"/>
      </g>
     </g>
     <g id="text_21">
      <!-- 2.5 -->
      <g style="fill: #1a1a1a" transform="translate(525.426284 256.633438) scale(0.1 -0.1)">
       <use xlink:href="#DejaVuSans-15"/>
       <use xlink:href="#DejaVuSans-11" transform="translate(63.625 0)"/>
       <use xlink:href="#DejaVuSans-18" transform="translate(95.40625 0)"/>
      </g>
     </g>
    </g>
    <g id="xtick_12">
     <g id="line2d_19">
      <g>
       <use xlink:href="#m89ca58f8f2" x="569.751865" y="242.035781" style="fill: #1a1a1a; stroke: #1a1a1a; stroke-width: 0.8"/>
      </g>
     </g>
     <g id="text_22">
      <!-- 5.0 -->
      <g style="fill: #1a1a1a" transform="translate(561.800302 256.633438) scale(0.1 -0.1)">
       <use xlink:href="#DejaVuSans-18"/>
       <use xlink:href="#DejaVuSans-11" transform="translate(63.625 0)"/>
       <use xlink:href="#DejaVuSans-13" transform="translate(95.40625 0)"/>
      </g>
     </g>
    </g>
    <g id="xtick_13">
     <g id="line2d_20">
      <g>
       <use xlink:href="#m89ca58f8f2" x="606.125883" y="242.035781" style="fill: #1a1a1a; stroke: #1a1a1a; stroke-width: 0.8"/>
      </g>
     </g>
     <g id="text_23">
      <!-- 7.5 -->
      <g style="fill: #1a1a1a" transform="translate(598.17432 256.633438) scale(0.1 -0.1)">
       <use xlink:href="#DejaVuSans-1a"/>
       <use xlink:href="#DejaVuSans-11" transform="translate(63.625 0)"/>
       <use xlink:href="#DejaVuSans-18" transform="translate(95.40625 0)"/>
      </g>
     </g>
    </g>
    <g id="text_24">
     <!-- Feature $x$ -->
     <g style="fill: #1a1a1a" transform="translate(473.503828 270.633438) scale(0.1 -0.1)">
      <use xlink:href="#DejaVuSans-29" transform="translate(0 0.09375)"/>
      <use xlink:href="#DejaVuSans-48" transform="translate(52.519531 0.09375)"/>
      <use xlink:href="#DejaVuSans-44" transform="translate(114.042969 0.09375)"/>
      <use xlink:href="#DejaVuSans-57" transform="translate(175.322266 0.09375)"/>
      <use xlink:href="#DejaVuSans-58" transform="translate(214.53125 0.09375)"/>
      <use xlink:href="#DejaVuSans-55" transform="translate(277.910156 0.09375)"/>
      <use xlink:href="#DejaVuSans-48" transform="translate(317.023438 0.09375)"/>
      <use xlink:href="#DejaVuSans-3" transform="translate(378.546875 0.09375)"/>
      <use xlink:href="#DejaVuSans-Oblique-5b" transform="translate(410.333984 0.09375)"/>
     </g>
    </g>
   </g>
   <g id="matplotlib.axis_4">
    <g id="ytick_6">
     <g id="line2d_21">
      <g>
       <use xlink:href="#mc0a849d356" x="360.965" y="232.048615" style="fill: #1a1a1a; stroke: #1a1a1a; stroke-width: 0.8"/>
      </g>
     </g>
     <g id="text_25">
      <!-- 0.0 -->
      <g style="fill: #1a1a1a" transform="translate(338.061875 235.847443) scale(0.1 -0.1)">
       <use xlink:href="#DejaVuSans-13"/>
       <use xlink:href="#DejaVuSans-11" transform="translate(63.625 0)"/>
       <use xlink:href="#DejaVuSans-13" transform="translate(95.40625 0)"/>
      </g>
     </g>
    </g>
    <g id="ytick_7">
     <g id="line2d_22">
      <g>
       <use xlink:href="#mc0a849d356" x="360.965" y="192.09995" style="fill: #1a1a1a; stroke: #1a1a1a; stroke-width: 0.8"/>
      </g>
     </g>
     <g id="text_26">
      <!-- 0.2 -->
      <g style="fill: #1a1a1a" transform="translate(338.061875 195.898778) scale(0.1 -0.1)">
       <use xlink:href="#DejaVuSans-13"/>
       <use xlink:href="#DejaVuSans-11" transform="translate(63.625 0)"/>
       <use xlink:href="#DejaVuSans-15" transform="translate(95.40625 0)"/>
      </g>
     </g>
    </g>
    <g id="ytick_8">
     <g id="line2d_23">
      <g>
       <use xlink:href="#mc0a849d356" x="360.965" y="152.151286" style="fill: #1a1a1a; stroke: #1a1a1a; stroke-width: 0.8"/>
      </g>
     </g>
     <g id="text_27">
      <!-- 0.4 -->
      <g style="fill: #1a1a1a" transform="translate(338.061875 155.950114) scale(0.1 -0.1)">
       <use xlink:href="#DejaVuSans-13"/>
       <use xlink:href="#DejaVuSans-11" transform="translate(63.625 0)"/>
       <use xlink:href="#DejaVuSans-17" transform="translate(95.40625 0)"/>
      </g>
     </g>
    </g>
    <g id="ytick_9">
     <g id="line2d_24">
      <g>
       <use xlink:href="#mc0a849d356" x="360.965" y="112.202621" style="fill: #1a1a1a; stroke: #1a1a1a; stroke-width: 0.8"/>
      </g>
     </g>
     <g id="text_28">
      <!-- 0.6 -->
      <g style="fill: #1a1a1a" transform="translate(338.061875 116.001449) scale(0.1 -0.1)">
       <use xlink:href="#DejaVuSans-13"/>
       <use xlink:href="#DejaVuSans-11" transform="translate(63.625 0)"/>
       <use xlink:href="#DejaVuSans-19" transform="translate(95.40625 0)"/>
      </g>
     </g>
    </g>
    <g id="ytick_10">
     <g id="line2d_25">
      <g>
       <use xlink:href="#mc0a849d356" x="360.965" y="72.253956" style="fill: #1a1a1a; stroke: #1a1a1a; stroke-width: 0.8"/>
      </g>
     </g>
     <g id="text_29">
      <!-- 0.8 -->
      <g style="fill: #1a1a1a" transform="translate(338.061875 76.052784) scale(0.1 -0.1)">
       <use xlink:href="#DejaVuSans-13"/>
       <use xlink:href="#DejaVuSans-11" transform="translate(63.625 0)"/>
       <use xlink:href="#DejaVuSans-1b" transform="translate(95.40625 0)"/>
      </g>
     </g>
    </g>
    <g id="ytick_11">
     <g id="line2d_26">
      <g>
       <use xlink:href="#mc0a849d356" x="360.965" y="32.305291" style="fill: #1a1a1a; stroke: #1a1a1a; stroke-width: 0.8"/>
      </g>
     </g>
     <g id="text_30">
      <!-- 1.0 -->
      <g style="fill: #1a1a1a" transform="translate(338.061875 36.104119) scale(0.1 -0.1)">
       <use xlink:href="#DejaVuSans-14"/>
       <use xlink:href="#DejaVuSans-11" transform="translate(63.625 0)"/>
       <use xlink:href="#DejaVuSans-13" transform="translate(95.40625 0)"/>
      </g>
     </g>
    </g>
    <g id="text_31">
     <!-- $P(y=1)$ -->
     <g style="fill: #1a1a1a" transform="translate(331.659531 151.376953) rotate(-90) scale(0.1 -0.1)">
      <defs>
       <path id="DejaVuSans-Oblique-33" d="M 1081 4666 
L 2541 4666 
Q 3178 4666 3512 4369 
Q 3847 4072 3847 3500 
Q 3847 2731 3353 2303 
Q 2859 1875 1966 1875 
L 1172 1875 
L 806 0 
L 172 0 
L 1081 4666 
z
M 1613 4147 
L 1275 2394 
L 2069 2394 
Q 2606 2394 2893 2669 
Q 3181 2944 3181 3456 
Q 3181 3784 2986 3965 
Q 2791 4147 2438 4147 
L 1613 4147 
z
" transform="scale(0.015625)"/>
       <path id="DejaVuSans-b" d="M 1984 4856 
Q 1566 4138 1362 3434 
Q 1159 2731 1159 2009 
Q 1159 1288 1364 580 
Q 1569 -128 1984 -844 
L 1484 -844 
Q 1016 -109 783 600 
Q 550 1309 550 2009 
Q 550 2706 781 3412 
Q 1013 4119 1484 4856 
L 1984 4856 
z
" transform="scale(0.015625)"/>
       <path id="DejaVuSans-20" d="M 678 2906 
L 4684 2906 
L 4684 2381 
L 678 2381 
L 678 2906 
z
M 678 1631 
L 4684 1631 
L 4684 1100 
L 678 1100 
L 678 1631 
z
" transform="scale(0.015625)"/>
       <path id="DejaVuSans-c" d="M 513 4856 
L 1013 4856 
Q 1481 4119 1714 3412 
Q 1947 2706 1947 2009 
Q 1947 1309 1714 600 
Q 1481 -109 1013 -844 
L 513 -844 
Q 928 -128 1133 580 
Q 1338 1288 1338 2009 
Q 1338 2731 1133 3434 
Q 928 4138 513 4856 
z
" transform="scale(0.015625)"/>
      </defs>
      <use xlink:href="#DejaVuSans-Oblique-33" transform="translate(0 0.125)"/>
      <use xlink:href="#DejaVuSans-b" transform="translate(60.302734 0.125)"/>
      <use xlink:href="#DejaVuSans-Oblique-5c" transform="translate(99.316406 0.125)"/>
      <use xlink:href="#DejaVuSans-20" transform="translate(177.978516 0.125)"/>
      <use xlink:href="#DejaVuSans-14" transform="translate(281.25 0.125)"/>
      <use xlink:href="#DejaVuSans-c" transform="translate(344.873047 0.125)"/>
     </g>
    </g>
   </g>
   <g id="line2d_27">
    <path d="M 373.332166 232.048615 
L 456.055686 231.939274 
L 463.500803 231.717059 
L 468.464214 231.354755 
L 471.773155 230.914527 
L 474.25486 230.410683 
L 476.736566 229.685658 
L 478.391036 229.034301 
L 480.045507 228.206891 
L 481.699977 227.158007 
L 483.354447 225.831841 
L 485.008918 224.160621 
L 486.663388 222.063317 
L 488.317859 219.445004 
L 489.972329 216.197476 
L 491.626799 212.201912 
L 493.28127 207.33455 
L 494.93574 201.476341 
L 496.590211 194.527189 
L 498.244681 186.424472 
L 499.899151 177.163983 
L 501.553622 166.819395 
L 504.035327 149.653321 
L 511.480444 96.09068 
L 513.134914 85.883863 
L 514.789385 76.77609 
L 516.443855 68.829661 
L 518.098326 62.031331 
L 519.752796 56.312265 
L 521.407266 51.568836 
L 523.061737 47.68064 
L 524.716207 44.524113 
L 526.370678 41.981604 
L 528.025148 39.946586 
L 529.679618 38.325994 
L 531.334089 37.04063 
L 532.988559 36.024411 
L 534.64303 35.223013 
L 537.124735 34.329516 
L 539.606441 33.707686 
L 542.915382 33.163757 
L 547.051558 32.769446 
L 552.842204 32.501247 
L 561.941791 32.355763 
L 584.277141 32.307096 
L 620.67549 32.305299 
L 620.67549 32.305299 
" clip-path="url(#pc741abab35)" style="fill: none; stroke: #e74c3c; stroke-width: 2; stroke-linecap: square"/>
   </g>
   <g id="line2d_28">
    <path d="M 360.965 132.176953 
L 633.042656 132.176953 
" clip-path="url(#pc741abab35)" style="fill: none; stroke-dasharray: 3.7,1.6; stroke-dashoffset: 0; stroke: #808080; stroke-opacity: 0.4"/>
   </g>
   <g id="patch_8">
    <path d="M 360.965 242.035781 
L 360.965 22.318125 
" style="fill: none; stroke: #000000; stroke-width: 0.8; stroke-linejoin: miter; stroke-linecap: square"/>
   </g>
   <g id="patch_9">
    <path d="M 633.042656 242.035781 
L 633.042656 22.318125 
" style="fill: none; stroke: #000000; stroke-width: 0.8; stroke-linejoin: miter; stroke-linecap: square"/>
   </g>
   <g id="patch_10">
    <path d="M 360.965 242.035781 
L 633.042656 242.035781 
" style="fill: none; stroke: #000000; stroke-width: 0.8; stroke-linejoin: miter; stroke-linecap: square"/>
   </g>
   <g id="patch_11">
    <path d="M 360.965 22.318125 
L 633.042656 22.318125 
" style="fill: none; stroke: #000000; stroke-width: 0.8; stroke-linejoin: miter; stroke-linecap: square"/>
   </g>
   <g id="text_32">
    <!-- Decision boundary -->
    <g style="fill: #808080" transform="translate(548.020686 128.182087) scale(0.07 -0.07)">
     <defs>
      <path id="DejaVuSans-Oblique-27" d="M 1081 4666 
L 2438 4666 
Q 3519 4666 4070 4208 
Q 4622 3750 4622 2847 
Q 4622 2250 4412 1698 
Q 4203 1147 3834 769 
Q 3463 381 2891 190 
Q 2319 0 1538 0 
L 172 0 
L 1081 4666 
z
M 1613 4147 
L 909 519 
L 1734 519 
Q 2794 519 3375 1128 
Q 3956 1738 3956 2847 
Q 3956 3519 3581 3833 
Q 3206 4147 2406 4147 
L 1613 4147 
z
" transform="scale(0.015625)"/>
      <path id="DejaVuSans-Oblique-48" d="M 3078 2063 
Q 3088 2113 3092 2166 
Q 3097 2219 3097 2272 
Q 3097 2653 2873 2875 
Q 2650 3097 2266 3097 
Q 1838 3097 1509 2826 
Q 1181 2556 1013 2059 
L 3078 2063 
z
M 3578 1613 
L 903 1613 
Q 884 1494 878 1425 
Q 872 1356 872 1306 
Q 872 872 1139 634 
Q 1406 397 1894 397 
Q 2269 397 2603 481 
Q 2938 566 3225 728 
L 3116 159 
Q 2806 34 2476 -28 
Q 2147 -91 1806 -91 
Q 1078 -91 686 257 
Q 294 606 294 1247 
Q 294 1794 489 2264 
Q 684 2734 1063 3103 
Q 1306 3334 1642 3459 
Q 1978 3584 2356 3584 
Q 2950 3584 3301 3228 
Q 3653 2872 3653 2272 
Q 3653 2128 3634 1964 
Q 3616 1800 3578 1613 
z
" transform="scale(0.015625)"/>
      <path id="DejaVuSans-Oblique-46" d="M 3431 3366 
L 3316 2797 
Q 3109 2947 2876 3022 
Q 2644 3097 2394 3097 
Q 2119 3097 1870 3000 
Q 1622 2903 1453 2725 
Q 1184 2453 1037 2087 
Q 891 1722 891 1331 
Q 891 859 1127 628 
Q 1363 397 1844 397 
Q 2081 397 2348 469 
Q 2616 541 2906 684 
L 2797 116 
Q 2547 13 2283 -39 
Q 2019 -91 1741 -91 
Q 1044 -91 669 257 
Q 294 606 294 1253 
Q 294 1797 489 2255 
Q 684 2713 1069 3078 
Q 1331 3328 1684 3456 
Q 2038 3584 2456 3584 
Q 2700 3584 2940 3529 
Q 3181 3475 3431 3366 
z
" transform="scale(0.015625)"/>
      <path id="DejaVuSans-Oblique-4c" d="M 1172 4863 
L 1747 4863 
L 1606 4134 
L 1031 4134 
L 1172 4863 
z
M 909 3500 
L 1484 3500 
L 800 0 
L 225 0 
L 909 3500 
z
" transform="scale(0.015625)"/>
      <path id="DejaVuSans-Oblique-56" d="M 3200 3397 
L 3091 2853 
Q 2863 2978 2609 3040 
Q 2356 3103 2088 3103 
Q 1634 3103 1373 2948 
Q 1113 2794 1113 2528 
Q 1113 2219 1719 2053 
Q 1766 2041 1788 2034 
L 1972 1978 
Q 2547 1819 2739 1644 
Q 2931 1469 2931 1166 
Q 2931 609 2489 259 
Q 2047 -91 1331 -91 
Q 1053 -91 747 -37 
Q 441 16 72 128 
L 184 722 
Q 500 559 806 475 
Q 1113 391 1394 391 
Q 1816 391 2080 572 
Q 2344 753 2344 1031 
Q 2344 1331 1650 1516 
L 1591 1531 
L 1394 1581 
Q 956 1697 753 1886 
Q 550 2075 550 2369 
Q 550 2928 970 3256 
Q 1391 3584 2113 3584 
Q 2397 3584 2667 3537 
Q 2938 3491 3200 3397 
z
" transform="scale(0.015625)"/>
      <path id="DejaVuSans-Oblique-52" d="M 1625 -91 
Q 1009 -91 651 289 
Q 294 669 294 1325 
Q 294 1706 417 2101 
Q 541 2497 738 2766 
Q 1047 3184 1428 3384 
Q 1809 3584 2291 3584 
Q 2888 3584 3255 3212 
Q 3622 2841 3622 2241 
Q 3622 1825 3500 1412 
Q 3378 1000 3181 728 
Q 2875 309 2494 109 
Q 2113 -91 1625 -91 
z
M 891 1344 
Q 891 869 1089 633 
Q 1288 397 1691 397 
Q 2269 397 2648 901 
Q 3028 1406 3028 2181 
Q 3028 2634 2825 2865 
Q 2622 3097 2228 3097 
Q 1903 3097 1650 2945 
Q 1397 2794 1197 2484 
Q 1050 2253 970 1956 
Q 891 1659 891 1344 
z
" transform="scale(0.015625)"/>
      <path id="DejaVuSans-Oblique-51" d="M 3566 2113 
L 3156 0 
L 2578 0 
L 2988 2091 
Q 3016 2238 3031 2350 
Q 3047 2463 3047 2528 
Q 3047 2791 2881 2937 
Q 2716 3084 2419 3084 
Q 1956 3084 1622 2776 
Q 1288 2469 1184 1941 
L 800 0 
L 225 0 
L 903 3500 
L 1478 3500 
L 1363 2950 
Q 1603 3253 1940 3418 
Q 2278 3584 2650 3584 
Q 3113 3584 3367 3334 
Q 3622 3084 3622 2631 
Q 3622 2519 3608 2391 
Q 3594 2263 3566 2113 
z
" transform="scale(0.015625)"/>
      <path id="DejaVuSans-Oblique-3" transform="scale(0.015625)"/>
      <path id="DejaVuSans-Oblique-45" d="M 3169 2138 
Q 3169 2591 2961 2847 
Q 2753 3103 2388 3103 
Q 2122 3103 1889 2973 
Q 1656 2844 1484 2597 
Q 1303 2338 1198 1995 
Q 1094 1653 1094 1313 
Q 1094 881 1298 636 
Q 1503 391 1863 391 
Q 2134 391 2365 517 
Q 2597 644 2772 891 
Q 2950 1147 3059 1487 
Q 3169 1828 3169 2138 
z
M 1381 2969 
Q 1594 3256 1914 3420 
Q 2234 3584 2584 3584 
Q 3122 3584 3439 3221 
Q 3756 2859 3756 2241 
Q 3756 1734 3570 1259 
Q 3384 784 3041 416 
Q 2816 172 2522 40 
Q 2228 -91 1906 -91 
Q 1566 -91 1316 65 
Q 1066 222 909 531 
L 806 0 
L 231 0 
L 1178 4863 
L 1753 4863 
L 1381 2969 
z
" transform="scale(0.015625)"/>
      <path id="DejaVuSans-Oblique-58" d="M 428 1388 
L 838 3500 
L 1416 3500 
L 1006 1409 
Q 975 1256 961 1147 
Q 947 1038 947 966 
Q 947 700 1109 554 
Q 1272 409 1569 409 
Q 2031 409 2368 721 
Q 2706 1034 2809 1563 
L 3194 3500 
L 3769 3500 
L 3091 0 
L 2516 0 
L 2631 550 
Q 2388 244 2052 76 
Q 1716 -91 1338 -91 
Q 878 -91 622 161 
Q 366 413 366 863 
Q 366 956 381 1097 
Q 397 1238 428 1388 
z
" transform="scale(0.015625)"/>
      <path id="DejaVuSans-Oblique-47" d="M 2675 525 
Q 2444 222 2128 65 
Q 1813 -91 1428 -91 
Q 903 -91 598 267 
Q 294 625 294 1247 
Q 294 1766 478 2236 
Q 663 2706 1013 3078 
Q 1244 3325 1534 3454 
Q 1825 3584 2144 3584 
Q 2481 3584 2739 3421 
Q 2997 3259 3138 2956 
L 3513 4863 
L 4091 4863 
L 3144 0 
L 2566 0 
L 2675 525 
z
M 891 1350 
Q 891 897 1095 644 
Q 1300 391 1663 391 
Q 1931 391 2161 520 
Q 2391 650 2566 903 
Q 2750 1166 2856 1509 
Q 2963 1853 2963 2188 
Q 2963 2622 2758 2865 
Q 2553 3109 2194 3109 
Q 1922 3109 1687 2981 
Q 1453 2853 1288 2613 
Q 1106 2353 998 2009 
Q 891 1666 891 1350 
z
" transform="scale(0.015625)"/>
      <path id="DejaVuSans-Oblique-44" d="M 3438 1997 
L 3047 0 
L 2472 0 
L 2578 531 
Q 2325 219 2001 64 
Q 1678 -91 1281 -91 
Q 834 -91 548 182 
Q 263 456 263 884 
Q 263 1497 752 1853 
Q 1241 2209 2100 2209 
L 2900 2209 
L 2931 2363 
Q 2938 2388 2941 2417 
Q 2944 2447 2944 2509 
Q 2944 2788 2717 2942 
Q 2491 3097 2081 3097 
Q 1800 3097 1504 3025 
Q 1209 2953 897 2809 
L 997 3341 
Q 1322 3463 1633 3523 
Q 1944 3584 2234 3584 
Q 2853 3584 3176 3315 
Q 3500 3047 3500 2534 
Q 3500 2431 3484 2292 
Q 3469 2153 3438 1997 
z
M 2816 1759 
L 2241 1759 
Q 1534 1759 1195 1570 
Q 856 1381 856 984 
Q 856 709 1029 553 
Q 1203 397 1509 397 
Q 1978 397 2328 733 
Q 2678 1069 2791 1631 
L 2816 1759 
z
" transform="scale(0.015625)"/>
      <path id="DejaVuSans-Oblique-55" d="M 2853 2969 
Q 2766 3016 2653 3041 
Q 2541 3066 2413 3066 
Q 1953 3066 1609 2717 
Q 1266 2369 1153 1784 
L 800 0 
L 225 0 
L 909 3500 
L 1484 3500 
L 1375 2956 
Q 1603 3259 1920 3421 
Q 2238 3584 2597 3584 
Q 2691 3584 2781 3573 
Q 2872 3563 2963 3538 
L 2853 2969 
z
" transform="scale(0.015625)"/>
     </defs>
     <use xlink:href="#DejaVuSans-Oblique-27"/>
     <use xlink:href="#DejaVuSans-Oblique-48" transform="translate(77 0)"/>
     <use xlink:href="#DejaVuSans-Oblique-46" transform="translate(138.53125 0)"/>
     <use xlink:href="#DejaVuSans-Oblique-4c" transform="translate(193.515625 0)"/>
     <use xlink:href="#DejaVuSans-Oblique-56" transform="translate(221.296875 0)"/>
     <use xlink:href="#DejaVuSans-Oblique-4c" transform="translate(273.390625 0)"/>
     <use xlink:href="#DejaVuSans-Oblique-52" transform="translate(301.171875 0)"/>
     <use xlink:href="#DejaVuSans-Oblique-51" transform="translate(362.359375 0)"/>
     <use xlink:href="#DejaVuSans-Oblique-3" transform="translate(425.734375 0)"/>
     <use xlink:href="#DejaVuSans-Oblique-45" transform="translate(457.515625 0)"/>
     <use xlink:href="#DejaVuSans-Oblique-52" transform="translate(521 0)"/>
     <use xlink:href="#DejaVuSans-Oblique-58" transform="translate(582.1875 0)"/>
     <use xlink:href="#DejaVuSans-Oblique-51" transform="translate(645.5625 0)"/>
     <use xlink:href="#DejaVuSans-Oblique-47" transform="translate(708.9375 0)"/>
     <use xlink:href="#DejaVuSans-Oblique-44" transform="translate(772.421875 0)"/>
     <use xlink:href="#DejaVuSans-Oblique-55" transform="translate(833.703125 0)"/>
     <use xlink:href="#DejaVuSans-Oblique-5c" transform="translate(874.8125 0)"/>
    </g>
   </g>
   <g id="text_33">
    <!-- Logistic Regression -->
    <g style="fill: #1a1a1a" transform="translate(430.960703 16.318125) scale(0.12 -0.12)">
     <defs>
      <path id="DejaVuSans-Bold-57" d="M 1759 4494 
L 1759 3500 
L 2913 3500 
L 2913 2700 
L 1759 2700 
L 1759 1216 
Q 1759 972 1856 886 
Q 1953 800 2241 800 
L 2816 800 
L 2816 0 
L 1856 0 
Q 1194 0 917 276 
Q 641 553 641 1216 
L 641 2700 
L 84 2700 
L 84 3500 
L 641 3500 
L 641 4494 
L 1759 4494 
z
" transform="scale(0.015625)"/>
      <path id="DejaVuSans-Bold-46" d="M 3366 3391 
L 3366 2478 
Q 3138 2634 2908 2709 
Q 2678 2784 2431 2784 
Q 1963 2784 1702 2511 
Q 1441 2238 1441 1747 
Q 1441 1256 1702 982 
Q 1963 709 2431 709 
Q 2694 709 2930 787 
Q 3166 866 3366 1019 
L 3366 103 
Q 3103 6 2833 -42 
Q 2563 -91 2291 -91 
Q 1344 -91 809 395 
Q 275 881 275 1747 
Q 275 2613 809 3098 
Q 1344 3584 2291 3584 
Q 2566 3584 2833 3536 
Q 3100 3488 3366 3391 
z
" transform="scale(0.015625)"/>
     </defs>
     <use xlink:href="#DejaVuSans-Bold-2f"/>
     <use xlink:href="#DejaVuSans-Bold-52" transform="translate(63.71875 0)"/>
     <use xlink:href="#DejaVuSans-Bold-4a" transform="translate(132.421875 0)"/>
     <use xlink:href="#DejaVuSans-Bold-4c" transform="translate(204 0)"/>
     <use xlink:href="#DejaVuSans-Bold-56" transform="translate(238.28125 0)"/>
     <use xlink:href="#DejaVuSans-Bold-57" transform="translate(297.796875 0)"/>
     <use xlink:href="#DejaVuSans-Bold-4c" transform="translate(345.59375 0)"/>
     <use xlink:href="#DejaVuSans-Bold-46" transform="translate(379.875 0)"/>
     <use xlink:href="#DejaVuSans-Bold-3" transform="translate(439.15625 0)"/>
     <use xlink:href="#DejaVuSans-Bold-35" transform="translate(473.96875 0)"/>
     <use xlink:href="#DejaVuSans-Bold-48" transform="translate(550.96875 0)"/>
     <use xlink:href="#DejaVuSans-Bold-4a" transform="translate(618.796875 0)"/>
     <use xlink:href="#DejaVuSans-Bold-55" transform="translate(690.375 0)"/>
     <use xlink:href="#DejaVuSans-Bold-48" transform="translate(739.6875 0)"/>
     <use xlink:href="#DejaVuSans-Bold-56" transform="translate(807.515625 0)"/>
     <use xlink:href="#DejaVuSans-Bold-56" transform="translate(867.03125 0)"/>
     <use xlink:href="#DejaVuSans-Bold-4c" transform="translate(926.546875 0)"/>
     <use xlink:href="#DejaVuSans-Bold-52" transform="translate(960.828125 0)"/>
     <use xlink:href="#DejaVuSans-Bold-51" transform="translate(1029.53125 0)"/>
    </g>
   </g>
   <g id="legend_2">
    <g id="PathCollection_4">
     <g>
      <use xlink:href="#maa3e3d0dd6" x="376.165" y="33.496875" style="fill: #3498db; fill-opacity: 0.6; stroke: #3498db; stroke-opacity: 0.6"/>
     </g>
    </g>
    <g id="text_34">
     <!-- Data -->
     <g style="fill: #1a1a1a" transform="translate(390.565 35.596875) scale(0.08 -0.08)">
      <use xlink:href="#DejaVuSans-27"/>
      <use xlink:href="#DejaVuSans-44" transform="translate(77 0)"/>
      <use xlink:href="#DejaVuSans-57" transform="translate(138.28125 0)"/>
      <use xlink:href="#DejaVuSans-44" transform="translate(177.484375 0)"/>
     </g>
    </g>
    <g id="line2d_29">
     <path d="M 368.165 44.7975 
L 376.165 44.7975 
L 384.165 44.7975 
" style="fill: none; stroke: #e74c3c; stroke-width: 2; stroke-linecap: square"/>
    </g>
    <g id="text_35">
     <!-- Sigmoid fit -->
     <g style="fill: #1a1a1a" transform="translate(390.565 47.5975) scale(0.08 -0.08)">
      <defs>
       <path id="DejaVuSans-36" d="M 3425 4513 
L 3425 3897 
Q 3066 4069 2747 4153 
Q 2428 4238 2131 4238 
Q 1616 4238 1336 4038 
Q 1056 3838 1056 3469 
Q 1056 3159 1242 3001 
Q 1428 2844 1947 2747 
L 2328 2669 
Q 3034 2534 3370 2195 
Q 3706 1856 3706 1288 
Q 3706 609 3251 259 
Q 2797 -91 1919 -91 
Q 1588 -91 1214 -16 
Q 841 59 441 206 
L 441 856 
Q 825 641 1194 531 
Q 1563 422 1919 422 
Q 2459 422 2753 634 
Q 3047 847 3047 1241 
Q 3047 1584 2836 1778 
Q 2625 1972 2144 2069 
L 1759 2144 
Q 1053 2284 737 2584 
Q 422 2884 422 3419 
Q 422 4038 858 4394 
Q 1294 4750 2059 4750 
Q 2388 4750 2728 4690 
Q 3069 4631 3425 4513 
z
" transform="scale(0.015625)"/>
       <path id="DejaVuSans-50" d="M 3328 2828 
Q 3544 3216 3844 3400 
Q 4144 3584 4550 3584 
Q 5097 3584 5394 3201 
Q 5691 2819 5691 2113 
L 5691 0 
L 5113 0 
L 5113 2094 
Q 5113 2597 4934 2840 
Q 4756 3084 4391 3084 
Q 3944 3084 3684 2787 
Q 3425 2491 3425 1978 
L 3425 0 
L 2847 0 
L 2847 2094 
Q 2847 2600 2669 2842 
Q 2491 3084 2119 3084 
Q 1678 3084 1418 2786 
Q 1159 2488 1159 1978 
L 1159 0 
L 581 0 
L 581 3500 
L 1159 3500 
L 1159 2956 
Q 1356 3278 1631 3431 
Q 1906 3584 2284 3584 
Q 2666 3584 2933 3390 
Q 3200 3197 3328 2828 
z
" transform="scale(0.015625)"/>
       <path id="DejaVuSans-52" d="M 1959 3097 
Q 1497 3097 1228 2736 
Q 959 2375 959 1747 
Q 959 1119 1226 758 
Q 1494 397 1959 397 
Q 2419 397 2687 759 
Q 2956 1122 2956 1747 
Q 2956 2369 2687 2733 
Q 2419 3097 1959 3097 
z
M 1959 3584 
Q 2709 3584 3137 3096 
Q 3566 2609 3566 1747 
Q 3566 888 3137 398 
Q 2709 -91 1959 -91 
Q 1206 -91 779 398 
Q 353 888 353 1747 
Q 353 2609 779 3096 
Q 1206 3584 1959 3584 
z
" transform="scale(0.015625)"/>
       <path id="DejaVuSans-47" d="M 2906 2969 
L 2906 4863 
L 3481 4863 
L 3481 0 
L 2906 0 
L 2906 525 
Q 2725 213 2448 61 
Q 2172 -91 1784 -91 
Q 1150 -91 751 415 
Q 353 922 353 1747 
Q 353 2572 751 3078 
Q 1150 3584 1784 3584 
Q 2172 3584 2448 3432 
Q 2725 3281 2906 2969 
z
M 947 1747 
Q 947 1113 1208 752 
Q 1469 391 1925 391 
Q 2381 391 2643 752 
Q 2906 1113 2906 1747 
Q 2906 2381 2643 2742 
Q 2381 3103 1925 3103 
Q 1469 3103 1208 2742 
Q 947 2381 947 1747 
z
" transform="scale(0.015625)"/>
      </defs>
      <use xlink:href="#DejaVuSans-36"/>
      <use xlink:href="#DejaVuSans-4c" transform="translate(63.484375 0)"/>
      <use xlink:href="#DejaVuSans-4a" transform="translate(91.265625 0)"/>
      <use xlink:href="#DejaVuSans-50" transform="translate(154.75 0)"/>
      <use xlink:href="#DejaVuSans-52" transform="translate(252.15625 0)"/>
      <use xlink:href="#DejaVuSans-4c" transform="translate(313.34375 0)"/>
      <use xlink:href="#DejaVuSans-47" transform="translate(341.125 0)"/>
      <use xlink:href="#DejaVuSans-3" transform="translate(404.609375 0)"/>
      <use xlink:href="#DejaVuSans-13af" transform="translate(436.390625 0)"/>
      <use xlink:href="#DejaVuSans-57" transform="translate(499.375 0)"/>
     </g>
    </g>
   </g>
  </g>
 </g>
 <defs>
  <clipPath id="p3291c65c3d">
   <rect x="40.925" y="22.318125" width="272.077656" height="219.717656"/>
  </clipPath>
  <clipPath id="pc741abab35">
   <rect x="360.965" y="22.318125" width="272.077656" height="219.717656"/>
  </clipPath>
 </defs>
</svg>
