<?xml version="1.0" encoding="utf-8" standalone="no"?>
<!DOCTYPE svg PUBLIC "-//W3C//DTD SVG 1.1//EN"
  "http://www.w3.org/Graphics/SVG/1.1/DTD/svg11.dtd">
<svg xmlns:xlink="http://www.w3.org/1999/xlink" width="336.455469pt" height="338.477734pt" viewBox="0 0 336.455469 338.477734" xmlns="http://www.w3.org/2000/svg" version="1.1">
 <metadata>
  <rdf:RDF xmlns:dc="http://purl.org/dc/elements/1.1/" xmlns:cc="http://creativecommons.org/ns#" xmlns:rdf="http://www.w3.org/1999/02/22-rdf-syntax-ns#">
   <cc:Work>
    <dc:type rdf:resource="http://purl.org/dc/dcmitype/StillImage"/>
    <dc:date>2026-07-06T13:40:38.803466</dc:date>
    <dc:format>image/svg+xml</dc:format>
    <dc:creator>
     <cc:Agent>
      <dc:title>Matplotlib v3.11.0, https://matplotlib.org/</dc:title>
     </cc:Agent>
    </dc:creator>
   </cc:Work>
  </rdf:RDF>
 </metadata>
 <defs>
  <style type="text/css">*{stroke-linejoin: round; stroke-linecap: butt}</style>
 </defs>
 <g id="figure_1">
  <g id="patch_1">
   <path d="M -0 338.477734 
L 336.455469 338.477734 
L 336.455469 0 
L -0 0 
z
" style="fill: #ffffff"/>
  </g>
  <g id="axes_1">
   <g id="patch_2">
    <path d="M 44.103906 300.276953 
L 321.303906 300.276953 
L 321.303906 23.076953 
L 44.103906 23.076953 
z
" style="fill: #ffffff"/>
   </g>
   <g id="FillBetweenPolyCollection_1">
    <defs>
     <path id="m77bfe293fd" d="M 44.103906 -38.200781 
L 44.103906 -38.200781 
L 44.103906 -38.200781 
L 44.103906 -38.200781 
L 44.103906 -43.744781 
L 44.103906 -54.832781 
L 44.103906 -60.376781 
L 44.103906 -63.148781 
L 44.103906 -71.464781 
L 44.103906 -82.552781 
L 44.103906 -88.096781 
L 44.103906 -101.956781 
L 44.103906 -110.272781 
L 44.103906 -113.044781 
L 44.103906 -121.360781 
L 44.103906 -129.676781 
L 44.103906 -146.308781 
L 44.103906 -154.624781 
L 44.103906 -168.484781 
L 44.103906 -179.572781 
L 44.103906 -190.660781 
L 44.103906 -198.976781 
L 44.103906 -204.520781 
L 44.103906 -207.292781 
L 44.103906 -221.152781 
L 44.103906 -232.240781 
L 44.103906 -237.784781 
L 44.103906 -248.872781 
L 44.103906 -251.644781 
L 44.103906 -259.960781 
L 44.103906 -268.276781 
L 44.103906 -273.820781 
L 44.103906 -279.364781 
L 44.103906 -287.680781 
L 44.103906 -290.452781 
L 44.103906 -290.452781 
L 44.103906 -293.224781 
L 44.103906 -298.768781 
L 44.103906 -301.540781 
L 44.103906 -304.312781 
L 44.103906 -304.312781 
L 44.103906 -304.312781 
L 44.103906 -304.312781 
L 44.103906 -304.312781 
L 44.103906 -304.312781 
L 44.103906 -304.312781 
L 44.103906 -304.312781 
L 46.875906 -307.084781 
L 49.647906 -307.084781 
L 52.419906 -309.856781 
L 52.419906 -312.628781 
L 57.963906 -312.628781 
L 57.963906 -312.628781 
L 57.963906 -315.400781 
L 57.963906 -315.400781 
L 57.963906 -315.400781 
L 57.963906 -315.400781 
L 57.963906 -315.400781 
L 60.735906 -315.400781 
L 60.735906 -315.400781 
L 60.735906 -315.400781 
L 63.507906 -315.400781 
L 63.507906 -315.400781 
L 63.507906 -315.400781 
L 69.051906 -315.400781 
L 74.595906 -315.400781 
L 85.683906 -315.400781 
L 91.227906 -315.400781 
L 96.771906 -315.400781 
L 96.771906 -315.400781 
L 102.315906 -315.400781 
L 107.859906 -315.400781 
L 107.859906 -315.400781 
L 116.175906 -315.400781 
L 121.719906 -315.400781 
L 127.263906 -315.400781 
L 135.579906 -315.400781 
L 141.123906 -315.400781 
L 146.667906 -315.400781 
L 152.211906 -315.400781 
L 171.615906 -315.400781 
L 179.931906 -315.400781 
L 182.703906 -315.400781 
L 188.247906 -315.400781 
L 196.563906 -315.400781 
L 204.879906 -315.400781 
L 215.967906 -315.400781 
L 227.055906 -315.400781 
L 229.827906 -315.400781 
L 240.915906 -315.400781 
L 260.319906 -315.400781 
L 274.179906 -315.400781 
L 285.267906 -315.400781 
L 288.039906 -315.400781 
L 293.583906 -315.400781 
L 293.583906 -315.400781 
L 301.899906 -315.400781 
L 315.759906 -315.400781 
L 321.303906 -315.400781 
L 321.303906 -315.400781 
L 321.303906 -315.400781 
L 321.303906 -38.200781 
L 321.303906 -38.200781 
L 321.303906 -38.200781 
L 321.303906 -38.200781 
L 315.759906 -38.200781 
L 301.899906 -38.200781 
L 293.583906 -38.200781 
L 293.583906 -38.200781 
L 288.039906 -38.200781 
L 285.267906 -38.200781 
L 274.179906 -38.200781 
L 260.319906 -38.200781 
L 240.915906 -38.200781 
L 229.827906 -38.200781 
L 227.055906 -38.200781 
L 215.967906 -38.200781 
L 204.879906 -38.200781 
L 196.563906 -38.200781 
L 188.247906 -38.200781 
L 182.703906 -38.200781 
L 179.931906 -38.200781 
L 171.615906 -38.200781 
L 152.211906 -38.200781 
L 146.667906 -38.200781 
L 141.123906 -38.200781 
L 135.579906 -38.200781 
L 127.263906 -38.200781 
L 121.719906 -38.200781 
L 116.175906 -38.200781 
L 107.859906 -38.200781 
L 107.859906 -38.200781 
L 102.315906 -38.200781 
L 96.771906 -38.200781 
L 96.771906 -38.200781 
L 91.227906 -38.200781 
L 85.683906 -38.200781 
L 74.595906 -38.200781 
L 69.051906 -38.200781 
L 63.507906 -38.200781 
L 63.507906 -38.200781 
L 63.507906 -38.200781 
L 60.735906 -38.200781 
L 60.735906 -38.200781 
L 60.735906 -38.200781 
L 57.963906 -38.200781 
L 57.963906 -38.200781 
L 57.963906 -38.200781 
L 57.963906 -38.200781 
L 57.963906 -38.200781 
L 57.963906 -38.200781 
L 57.963906 -38.200781 
L 52.419906 -38.200781 
L 52.419906 -38.200781 
L 49.647906 -38.200781 
L 46.875906 -38.200781 
L 44.103906 -38.200781 
L 44.103906 -38.200781 
L 44.103906 -38.200781 
L 44.103906 -38.200781 
L 44.103906 -38.200781 
L 44.103906 -38.200781 
L 44.103906 -38.200781 
L 44.103906 -38.200781 
L 44.103906 -38.200781 
L 44.103906 -38.200781 
L 44.103906 -38.200781 
L 44.103906 -38.200781 
L 44.103906 -38.200781 
L 44.103906 -38.200781 
L 44.103906 -38.200781 
L 44.103906 -38.200781 
L 44.103906 -38.200781 
L 44.103906 -38.200781 
L 44.103906 -38.200781 
L 44.103906 -38.200781 
L 44.103906 -38.200781 
L 44.103906 -38.200781 
L 44.103906 -38.200781 
L 44.103906 -38.200781 
L 44.103906 -38.200781 
L 44.103906 -38.200781 
L 44.103906 -38.200781 
L 44.103906 -38.200781 
L 44.103906 -38.200781 
L 44.103906 -38.200781 
L 44.103906 -38.200781 
L 44.103906 -38.200781 
L 44.103906 -38.200781 
L 44.103906 -38.200781 
L 44.103906 -38.200781 
L 44.103906 -38.200781 
L 44.103906 -38.200781 
L 44.103906 -38.200781 
L 44.103906 -38.200781 
L 44.103906 -38.200781 
L 44.103906 -38.200781 
L 44.103906 -38.200781 
L 44.103906 -38.200781 
L 44.103906 -38.200781 
L 44.103906 -38.200781 
L 44.103906 -38.200781 
z
" style="stroke: #3498db; stroke-opacity: 0.1"/>
    </defs>
    <g clip-path="url(#p4680224f0c)">
     <use xlink:href="#m77bfe293fd" x="0" y="338.477734" style="fill: #3498db; fill-opacity: 0.1; stroke: #3498db; stroke-opacity: 0.1"/>
    </g>
   </g>
   <g id="matplotlib.axis_1">
    <g id="xtick_1">
     <g id="line2d_1">
      <defs>
       <path id="m531b09bba7" d="M 0 0 
L 0 3.5 
" style="stroke: #000000; stroke-width: 0.8"/>
      </defs>
      <g>
       <use xlink:href="#m531b09bba7" x="44.103906" y="300.276953" style="stroke: #000000; stroke-width: 0.8"/>
      </g>
     </g>
     <g id="text_1">
      <!-- 0.0 -->
      <g transform="translate(36.152344 314.874609) scale(0.1 -0.1)">
       <defs>
        <path id="DejaVuSans-13" d="M 2034 4250 
Q 1547 4250 1301 3770 
Q 1056 3291 1056 2328 
Q 1056 1369 1301 889 
Q 1547 409 2034 409 
Q 2525 409 2770 889 
Q 3016 1369 3016 2328 
Q 3016 3291 2770 3770 
Q 2525 4250 2034 4250 
z
M 2034 4750 
Q 2819 4750 3233 4129 
Q 3647 3509 3647 2328 
Q 3647 1150 3233 529 
Q 2819 -91 2034 -91 
Q 1250 -91 836 529 
Q 422 1150 422 2328 
Q 422 3509 836 4129 
Q 1250 4750 2034 4750 
z
" transform="scale(0.015625)"/>
        <path id="DejaVuSans-11" d="M 684 794 
L 1344 794 
L 1344 0 
L 684 0 
L 684 794 
z
" transform="scale(0.015625)"/>
       </defs>
       <use xlink:href="#DejaVuSans-13"/>
       <use xlink:href="#DejaVuSans-11" transform="translate(63.625 0)"/>
       <use xlink:href="#DejaVuSans-13" transform="translate(95.40625 0)"/>
      </g>
     </g>
    </g>
    <g id="xtick_2">
     <g id="line2d_2">
      <g>
       <use xlink:href="#m531b09bba7" x="99.543906" y="300.276953" style="stroke: #000000; stroke-width: 0.8"/>
      </g>
     </g>
     <g id="text_2">
      <!-- 0.2 -->
      <g transform="translate(91.592344 314.874609) scale(0.1 -0.1)">
       <defs>
        <path id="DejaVuSans-15" d="M 1228 531 
L 3431 531 
L 3431 0 
L 469 0 
L 469 531 
Q 828 903 1448 1529 
Q 2069 2156 2228 2338 
Q 2531 2678 2651 2914 
Q 2772 3150 2772 3378 
Q 2772 3750 2511 3984 
Q 2250 4219 1831 4219 
Q 1534 4219 1204 4116 
Q 875 4013 500 3803 
L 500 4441 
Q 881 4594 1212 4672 
Q 1544 4750 1819 4750 
Q 2544 4750 2975 4387 
Q 3406 4025 3406 3419 
Q 3406 3131 3298 2873 
Q 3191 2616 2906 2266 
Q 2828 2175 2409 1742 
Q 1991 1309 1228 531 
z
" transform="scale(0.015625)"/>
       </defs>
       <use xlink:href="#DejaVuSans-13"/>
       <use xlink:href="#DejaVuSans-11" transform="translate(63.625 0)"/>
       <use xlink:href="#DejaVuSans-15" transform="translate(95.40625 0)"/>
      </g>
     </g>
    </g>
    <g id="xtick_3">
     <g id="line2d_3">
      <g>
       <use xlink:href="#m531b09bba7" x="154.983906" y="300.276953" style="stroke: #000000; stroke-width: 0.8"/>
      </g>
     </g>
     <g id="text_3">
      <!-- 0.4 -->
      <g transform="translate(147.032344 314.874609) scale(0.1 -0.1)">
       <defs>
        <path id="DejaVuSans-17" d="M 2419 4116 
L 825 1625 
L 2419 1625 
L 2419 4116 
z
M 2253 4666 
L 3047 4666 
L 3047 1625 
L 3713 1625 
L 3713 1100 
L 3047 1100 
L 3047 0 
L 2419 0 
L 2419 1100 
L 313 1100 
L 313 1709 
L 2253 4666 
z
" transform="scale(0.015625)"/>
       </defs>
       <use xlink:href="#DejaVuSans-13"/>
       <use xlink:href="#DejaVuSans-11" transform="translate(63.625 0)"/>
       <use xlink:href="#DejaVuSans-17" transform="translate(95.40625 0)"/>
      </g>
     </g>
    </g>
    <g id="xtick_4">
     <g id="line2d_4">
      <g>
       <use xlink:href="#m531b09bba7" x="210.423906" y="300.276953" style="stroke: #000000; stroke-width: 0.8"/>
      </g>
     </g>
     <g id="text_4">
      <!-- 0.6 -->
      <g transform="translate(202.472344 314.874609) scale(0.1 -0.1)">
       <defs>
        <path id="DejaVuSans-19" d="M 2113 2584 
Q 1688 2584 1439 2293 
Q 1191 2003 1191 1497 
Q 1191 994 1439 701 
Q 1688 409 2113 409 
Q 2538 409 2786 701 
Q 3034 994 3034 1497 
Q 3034 2003 2786 2293 
Q 2538 2584 2113 2584 
z
M 3366 4563 
L 3366 3988 
Q 3128 4100 2886 4159 
Q 2644 4219 2406 4219 
Q 1781 4219 1451 3797 
Q 1122 3375 1075 2522 
Q 1259 2794 1537 2939 
Q 1816 3084 2150 3084 
Q 2853 3084 3261 2657 
Q 3669 2231 3669 1497 
Q 3669 778 3244 343 
Q 2819 -91 2113 -91 
Q 1303 -91 875 529 
Q 447 1150 447 2328 
Q 447 3434 972 4092 
Q 1497 4750 2381 4750 
Q 2619 4750 2861 4703 
Q 3103 4656 3366 4563 
z
" transform="scale(0.015625)"/>
       </defs>
       <use xlink:href="#DejaVuSans-13"/>
       <use xlink:href="#DejaVuSans-11" transform="translate(63.625 0)"/>
       <use xlink:href="#DejaVuSans-19" transform="translate(95.40625 0)"/>
      </g>
     </g>
    </g>
    <g id="xtick_5">
     <g id="line2d_5">
      <g>
       <use xlink:href="#m531b09bba7" x="265.863906" y="300.276953" style="stroke: #000000; stroke-width: 0.8"/>
      </g>
     </g>
     <g id="text_5">
      <!-- 0.8 -->
      <g transform="translate(257.912344 314.874609) scale(0.1 -0.1)">
       <defs>
        <path id="DejaVuSans-1b" d="M 2034 2216 
Q 1584 2216 1326 1975 
Q 1069 1734 1069 1313 
Q 1069 891 1326 650 
Q 1584 409 2034 409 
Q 2484 409 2743 651 
Q 3003 894 3003 1313 
Q 3003 1734 2745 1975 
Q 2488 2216 2034 2216 
z
M 1403 2484 
Q 997 2584 770 2862 
Q 544 3141 544 3541 
Q 544 4100 942 4425 
Q 1341 4750 2034 4750 
Q 2731 4750 3128 4425 
Q 3525 4100 3525 3541 
Q 3525 3141 3298 2862 
Q 3072 2584 2669 2484 
Q 3125 2378 3379 2068 
Q 3634 1759 3634 1313 
Q 3634 634 3220 271 
Q 2806 -91 2034 -91 
Q 1263 -91 848 271 
Q 434 634 434 1313 
Q 434 1759 690 2068 
Q 947 2378 1403 2484 
z
M 1172 3481 
Q 1172 3119 1398 2916 
Q 1625 2713 2034 2713 
Q 2441 2713 2670 2916 
Q 2900 3119 2900 3481 
Q 2900 3844 2670 4047 
Q 2441 4250 2034 4250 
Q 1625 4250 1398 4047 
Q 1172 3844 1172 3481 
z
" transform="scale(0.015625)"/>
       </defs>
       <use xlink:href="#DejaVuSans-13"/>
       <use xlink:href="#DejaVuSans-11" transform="translate(63.625 0)"/>
       <use xlink:href="#DejaVuSans-1b" transform="translate(95.40625 0)"/>
      </g>
     </g>
    </g>
    <g id="xtick_6">
     <g id="line2d_6">
      <g>
       <use xlink:href="#m531b09bba7" x="321.303906" y="300.276953" style="stroke: #000000; stroke-width: 0.8"/>
      </g>
     </g>
     <g id="text_6">
      <!-- 1.0 -->
      <g transform="translate(313.352344 314.874609) scale(0.1 -0.1)">
       <defs>
        <path id="DejaVuSans-14" d="M 794 531 
L 1825 531 
L 1825 4091 
L 703 3866 
L 703 4441 
L 1819 4666 
L 2450 4666 
L 2450 531 
L 3481 531 
L 3481 0 
L 794 0 
L 794 531 
z
" transform="scale(0.015625)"/>
       </defs>
       <use xlink:href="#DejaVuSans-14"/>
       <use xlink:href="#DejaVuSans-11" transform="translate(63.625 0)"/>
       <use xlink:href="#DejaVuSans-13" transform="translate(95.40625 0)"/>
      </g>
     </g>
    </g>
    <g id="text_7">
     <!-- False Positive Rate (1 - Specificity) -->
     <g transform="translate(96.810156 328.875391) scale(0.1 -0.1)">
      <defs>
       <path id="DejaVuSans-29" d="M 628 4666 
L 3309 4666 
L 3309 4134 
L 1259 4134 
L 1259 2759 
L 3109 2759 
L 3109 2228 
L 1259 2228 
L 1259 0 
L 628 0 
L 628 4666 
z
" transform="scale(0.015625)"/>
       <path id="DejaVuSans-44" d="M 2194 1759 
Q 1497 1759 1228 1600 
Q 959 1441 959 1056 
Q 959 750 1161 570 
Q 1363 391 1709 391 
Q 2188 391 2477 730 
Q 2766 1069 2766 1631 
L 2766 1759 
L 2194 1759 
z
M 3341 1997 
L 3341 0 
L 2766 0 
L 2766 531 
Q 2569 213 2275 61 
Q 1981 -91 1556 -91 
Q 1019 -91 701 211 
Q 384 513 384 1019 
Q 384 1609 779 1909 
Q 1175 2209 1959 2209 
L 2766 2209 
L 2766 2266 
Q 2766 2663 2505 2880 
Q 2244 3097 1772 3097 
Q 1472 3097 1187 3025 
Q 903 2953 641 2809 
L 641 3341 
Q 956 3463 1253 3523 
Q 1550 3584 1831 3584 
Q 2591 3584 2966 3190 
Q 3341 2797 3341 1997 
z
" transform="scale(0.015625)"/>
       <path id="DejaVuSans-4f" d="M 603 4863 
L 1178 4863 
L 1178 0 
L 603 0 
L 603 4863 
z
" transform="scale(0.015625)"/>
       <path id="DejaVuSans-56" d="M 2834 3397 
L 2834 2853 
Q 2591 2978 2328 3040 
Q 2066 3103 1784 3103 
Q 1356 3103 1142 2972 
Q 928 2841 928 2578 
Q 928 2378 1081 2264 
Q 1234 2150 1697 2047 
L 1894 2003 
Q 2506 1872 2764 1633 
Q 3022 1394 3022 966 
Q 3022 478 2636 193 
Q 2250 -91 1575 -91 
Q 1294 -91 989 -36 
Q 684 19 347 128 
L 347 722 
Q 666 556 975 473 
Q 1284 391 1588 391 
Q 1994 391 2212 530 
Q 2431 669 2431 922 
Q 2431 1156 2273 1281 
Q 2116 1406 1581 1522 
L 1381 1569 
Q 847 1681 609 1914 
Q 372 2147 372 2553 
Q 372 3047 722 3315 
Q 1072 3584 1716 3584 
Q 2034 3584 2315 3537 
Q 2597 3491 2834 3397 
z
" transform="scale(0.015625)"/>
       <path id="DejaVuSans-48" d="M 3597 1894 
L 3597 1613 
L 953 1613 
Q 991 1019 1311 708 
Q 1631 397 2203 397 
Q 2534 397 2845 478 
Q 3156 559 3463 722 
L 3463 178 
Q 3153 47 2828 -22 
Q 2503 -91 2169 -91 
Q 1331 -91 842 396 
Q 353 884 353 1716 
Q 353 2575 817 3079 
Q 1281 3584 2069 3584 
Q 2775 3584 3186 3129 
Q 3597 2675 3597 1894 
z
M 3022 2063 
Q 3016 2534 2758 2815 
Q 2500 3097 2075 3097 
Q 1594 3097 1305 2825 
Q 1016 2553 972 2059 
L 3022 2063 
z
" transform="scale(0.015625)"/>
       <path id="DejaVuSans-3" transform="scale(0.015625)"/>
       <path id="DejaVuSans-33" d="M 1259 4147 
L 1259 2394 
L 2053 2394 
Q 2494 2394 2734 2622 
Q 2975 2850 2975 3272 
Q 2975 3691 2734 3919 
Q 2494 4147 2053 4147 
L 1259 4147 
z
M 628 4666 
L 2053 4666 
Q 2838 4666 3239 4311 
Q 3641 3956 3641 3272 
Q 3641 2581 3239 2228 
Q 2838 1875 2053 1875 
L 1259 1875 
L 1259 0 
L 628 0 
L 628 4666 
z
" transform="scale(0.015625)"/>
       <path id="DejaVuSans-52" d="M 1959 3097 
Q 1497 3097 1228 2736 
Q 959 2375 959 1747 
Q 959 1119 1226 758 
Q 1494 397 1959 397 
Q 2419 397 2687 759 
Q 2956 1122 2956 1747 
Q 2956 2369 2687 2733 
Q 2419 3097 1959 3097 
z
M 1959 3584 
Q 2709 3584 3137 3096 
Q 3566 2609 3566 1747 
Q 3566 888 3137 398 
Q 2709 -91 1959 -91 
Q 1206 -91 779 398 
Q 353 888 353 1747 
Q 353 2609 779 3096 
Q 1206 3584 1959 3584 
z
" transform="scale(0.015625)"/>
       <path id="DejaVuSans-4c" d="M 603 3500 
L 1178 3500 
L 1178 0 
L 603 0 
L 603 3500 
z
M 603 4863 
L 1178 4863 
L 1178 4134 
L 603 4134 
L 603 4863 
z
" transform="scale(0.015625)"/>
       <path id="DejaVuSans-57" d="M 1172 4494 
L 1172 3500 
L 2356 3500 
L 2356 3053 
L 1172 3053 
L 1172 1153 
Q 1172 725 1289 603 
Q 1406 481 1766 481 
L 2356 481 
L 2356 0 
L 1766 0 
Q 1100 0 847 248 
Q 594 497 594 1153 
L 594 3053 
L 172 3053 
L 172 3500 
L 594 3500 
L 594 4494 
L 1172 4494 
z
" transform="scale(0.015625)"/>
       <path id="DejaVuSans-59" d="M 191 3500 
L 800 3500 
L 1894 563 
L 2988 3500 
L 3597 3500 
L 2284 0 
L 1503 0 
L 191 3500 
z
" transform="scale(0.015625)"/>
       <path id="DejaVuSans-35" d="M 2841 2188 
Q 3044 2119 3236 1894 
Q 3428 1669 3622 1275 
L 4263 0 
L 3584 0 
L 2988 1197 
Q 2756 1666 2539 1819 
Q 2322 1972 1947 1972 
L 1259 1972 
L 1259 0 
L 628 0 
L 628 4666 
L 2053 4666 
Q 2853 4666 3247 4331 
Q 3641 3997 3641 3322 
Q 3641 2881 3436 2590 
Q 3231 2300 2841 2188 
z
M 1259 4147 
L 1259 2491 
L 2053 2491 
Q 2509 2491 2742 2702 
Q 2975 2913 2975 3322 
Q 2975 3731 2742 3939 
Q 2509 4147 2053 4147 
L 1259 4147 
z
" transform="scale(0.015625)"/>
       <path id="DejaVuSans-b" d="M 1984 4856 
Q 1566 4138 1362 3434 
Q 1159 2731 1159 2009 
Q 1159 1288 1364 580 
Q 1569 -128 1984 -844 
L 1484 -844 
Q 1016 -109 783 600 
Q 550 1309 550 2009 
Q 550 2706 781 3412 
Q 1013 4119 1484 4856 
L 1984 4856 
z
" transform="scale(0.015625)"/>
       <path id="DejaVuSans-10" d="M 313 2009 
L 1997 2009 
L 1997 1497 
L 313 1497 
L 313 2009 
z
" transform="scale(0.015625)"/>
       <path id="DejaVuSans-36" d="M 3425 4513 
L 3425 3897 
Q 3066 4069 2747 4153 
Q 2428 4238 2131 4238 
Q 1616 4238 1336 4038 
Q 1056 3838 1056 3469 
Q 1056 3159 1242 3001 
Q 1428 2844 1947 2747 
L 2328 2669 
Q 3034 2534 3370 2195 
Q 3706 1856 3706 1288 
Q 3706 609 3251 259 
Q 2797 -91 1919 -91 
Q 1588 -91 1214 -16 
Q 841 59 441 206 
L 441 856 
Q 825 641 1194 531 
Q 1563 422 1919 422 
Q 2459 422 2753 634 
Q 3047 847 3047 1241 
Q 3047 1584 2836 1778 
Q 2625 1972 2144 2069 
L 1759 2144 
Q 1053 2284 737 2584 
Q 422 2884 422 3419 
Q 422 4038 858 4394 
Q 1294 4750 2059 4750 
Q 2388 4750 2728 4690 
Q 3069 4631 3425 4513 
z
" transform="scale(0.015625)"/>
       <path id="DejaVuSans-53" d="M 1159 525 
L 1159 -1331 
L 581 -1331 
L 581 3500 
L 1159 3500 
L 1159 2969 
Q 1341 3281 1617 3432 
Q 1894 3584 2278 3584 
Q 2916 3584 3314 3078 
Q 3713 2572 3713 1747 
Q 3713 922 3314 415 
Q 2916 -91 2278 -91 
Q 1894 -91 1617 61 
Q 1341 213 1159 525 
z
M 3116 1747 
Q 3116 2381 2855 2742 
Q 2594 3103 2138 3103 
Q 1681 3103 1420 2742 
Q 1159 2381 1159 1747 
Q 1159 1113 1420 752 
Q 1681 391 2138 391 
Q 2594 391 2855 752 
Q 3116 1113 3116 1747 
z
" transform="scale(0.015625)"/>
       <path id="DejaVuSans-46" d="M 3122 3366 
L 3122 2828 
Q 2878 2963 2633 3030 
Q 2388 3097 2138 3097 
Q 1578 3097 1268 2742 
Q 959 2388 959 1747 
Q 959 1106 1268 751 
Q 1578 397 2138 397 
Q 2388 397 2633 464 
Q 2878 531 3122 666 
L 3122 134 
Q 2881 22 2623 -34 
Q 2366 -91 2075 -91 
Q 1284 -91 818 406 
Q 353 903 353 1747 
Q 353 2603 823 3093 
Q 1294 3584 2113 3584 
Q 2378 3584 2631 3529 
Q 2884 3475 3122 3366 
z
" transform="scale(0.015625)"/>
       <path id="DejaVuSans-13af" d="M 3431 3500 
L 3431 0 
L 2853 0 
L 2853 3053 
L 1275 3053 
L 1275 0 
L 697 0 
L 697 3053 
L 147 3053 
L 147 3500 
L 697 3500 
L 697 3744 
Q 697 4316 967 4589 
Q 1238 4863 1797 4863 
L 2375 4863 
L 2375 4384 
L 1825 4384 
Q 1516 4384 1395 4259 
Q 1275 4134 1275 3809 
L 1275 3500 
L 3431 3500 
z
M 2853 4856 
L 3431 4856 
L 3431 4128 
L 2853 4128 
L 2853 4856 
z
" transform="scale(0.015625)"/>
       <path id="DejaVuSans-5c" d="M 2059 -325 
Q 1816 -950 1584 -1140 
Q 1353 -1331 966 -1331 
L 506 -1331 
L 506 -850 
L 844 -850 
Q 1081 -850 1212 -737 
Q 1344 -625 1503 -206 
L 1606 56 
L 191 3500 
L 800 3500 
L 1894 763 
L 2988 3500 
L 3597 3500 
L 2059 -325 
z
" transform="scale(0.015625)"/>
       <path id="DejaVuSans-c" d="M 513 4856 
L 1013 4856 
Q 1481 4119 1714 3412 
Q 1947 2706 1947 2009 
Q 1947 1309 1714 600 
Q 1481 -109 1013 -844 
L 513 -844 
Q 928 -128 1133 580 
Q 1338 1288 1338 2009 
Q 1338 2731 1133 3434 
Q 928 4138 513 4856 
z
" transform="scale(0.015625)"/>
      </defs>
      <use xlink:href="#DejaVuSans-29"/>
      <use xlink:href="#DejaVuSans-44" transform="translate(48.34375 0)"/>
      <use xlink:href="#DejaVuSans-4f" transform="translate(109.625 0)"/>
      <use xlink:href="#DejaVuSans-56" transform="translate(137.40625 0)"/>
      <use xlink:href="#DejaVuSans-48" transform="translate(189.5 0)"/>
      <use xlink:href="#DejaVuSans-3" transform="translate(251.03125 0)"/>
      <use xlink:href="#DejaVuSans-33" transform="translate(282.8125 0)"/>
      <use xlink:href="#DejaVuSans-52" transform="translate(339.546875 0)"/>
      <use xlink:href="#DejaVuSans-56" transform="translate(400.734375 0)"/>
      <use xlink:href="#DejaVuSans-4c" transform="translate(452.828125 0)"/>
      <use xlink:href="#DejaVuSans-57" transform="translate(480.609375 0)"/>
      <use xlink:href="#DejaVuSans-4c" transform="translate(519.8125 0)"/>
      <use xlink:href="#DejaVuSans-59" transform="translate(547.59375 0)"/>
      <use xlink:href="#DejaVuSans-48" transform="translate(606.78125 0)"/>
      <use xlink:href="#DejaVuSans-3" transform="translate(668.3125 0)"/>
      <use xlink:href="#DejaVuSans-35" transform="translate(700.09375 0)"/>
      <use xlink:href="#DejaVuSans-44" transform="translate(767.375 0)"/>
      <use xlink:href="#DejaVuSans-57" transform="translate(828.65625 0)"/>
      <use xlink:href="#DejaVuSans-48" transform="translate(867.859375 0)"/>
      <use xlink:href="#DejaVuSans-3" transform="translate(929.390625 0)"/>
      <use xlink:href="#DejaVuSans-b" transform="translate(961.171875 0)"/>
      <use xlink:href="#DejaVuSans-14" transform="translate(1000.1875 0)"/>
      <use xlink:href="#DejaVuSans-3" transform="translate(1063.8125 0)"/>
      <use xlink:href="#DejaVuSans-10" transform="translate(1095.59375 0)"/>
      <use xlink:href="#DejaVuSans-3" transform="translate(1131.671875 0)"/>
      <use xlink:href="#DejaVuSans-36" transform="translate(1163.453125 0)"/>
      <use xlink:href="#DejaVuSans-53" transform="translate(1226.9375 0)"/>
      <use xlink:href="#DejaVuSans-48" transform="translate(1290.421875 0)"/>
      <use xlink:href="#DejaVuSans-46" transform="translate(1351.953125 0)"/>
      <use xlink:href="#DejaVuSans-4c" transform="translate(1406.9375 0)"/>
      <use xlink:href="#DejaVuSans-13af" transform="translate(1434.71875 0)"/>
      <use xlink:href="#DejaVuSans-46" transform="translate(1497.703125 0)"/>
      <use xlink:href="#DejaVuSans-4c" transform="translate(1552.6875 0)"/>
      <use xlink:href="#DejaVuSans-57" transform="translate(1580.46875 0)"/>
      <use xlink:href="#DejaVuSans-5c" transform="translate(1619.671875 0)"/>
      <use xlink:href="#DejaVuSans-c" transform="translate(1678.859375 0)"/>
     </g>
    </g>
   </g>
   <g id="matplotlib.axis_2">
    <g id="ytick_1">
     <g id="line2d_7">
      <defs>
       <path id="mfef855473f" d="M 0 0 
L -3.5 0 
" style="stroke: #000000; stroke-width: 0.8"/>
      </defs>
      <g>
       <use xlink:href="#mfef855473f" x="44.103906" y="300.276953" style="stroke: #000000; stroke-width: 0.8"/>
      </g>
     </g>
     <g id="text_8">
      <!-- 0.0 -->
      <g transform="translate(21.200781 304.075781) scale(0.1 -0.1)">
       <use xlink:href="#DejaVuSans-13"/>
       <use xlink:href="#DejaVuSans-11" transform="translate(63.625 0)"/>
       <use xlink:href="#DejaVuSans-13" transform="translate(95.40625 0)"/>
      </g>
     </g>
    </g>
    <g id="ytick_2">
     <g id="line2d_8">
      <g>
       <use xlink:href="#mfef855473f" x="44.103906" y="244.836953" style="stroke: #000000; stroke-width: 0.8"/>
      </g>
     </g>
     <g id="text_9">
      <!-- 0.2 -->
      <g transform="translate(21.200781 248.635781) scale(0.1 -0.1)">
       <use xlink:href="#DejaVuSans-13"/>
       <use xlink:href="#DejaVuSans-11" transform="translate(63.625 0)"/>
       <use xlink:href="#DejaVuSans-15" transform="translate(95.40625 0)"/>
      </g>
     </g>
    </g>
    <g id="ytick_3">
     <g id="line2d_9">
      <g>
       <use xlink:href="#mfef855473f" x="44.103906" y="189.396953" style="stroke: #000000; stroke-width: 0.8"/>
      </g>
     </g>
     <g id="text_10">
      <!-- 0.4 -->
      <g transform="translate(21.200781 193.195781) scale(0.1 -0.1)">
       <use xlink:href="#DejaVuSans-13"/>
       <use xlink:href="#DejaVuSans-11" transform="translate(63.625 0)"/>
       <use xlink:href="#DejaVuSans-17" transform="translate(95.40625 0)"/>
      </g>
     </g>
    </g>
    <g id="ytick_4">
     <g id="line2d_10">
      <g>
       <use xlink:href="#mfef855473f" x="44.103906" y="133.956953" style="stroke: #000000; stroke-width: 0.8"/>
      </g>
     </g>
     <g id="text_11">
      <!-- 0.6 -->
      <g transform="translate(21.200781 137.755781) scale(0.1 -0.1)">
       <use xlink:href="#DejaVuSans-13"/>
       <use xlink:href="#DejaVuSans-11" transform="translate(63.625 0)"/>
       <use xlink:href="#DejaVuSans-19" transform="translate(95.40625 0)"/>
      </g>
     </g>
    </g>
    <g id="ytick_5">
     <g id="line2d_11">
      <g>
       <use xlink:href="#mfef855473f" x="44.103906" y="78.516953" style="stroke: #000000; stroke-width: 0.8"/>
      </g>
     </g>
     <g id="text_12">
      <!-- 0.8 -->
      <g transform="translate(21.200781 82.315781) scale(0.1 -0.1)">
       <use xlink:href="#DejaVuSans-13"/>
       <use xlink:href="#DejaVuSans-11" transform="translate(63.625 0)"/>
       <use xlink:href="#DejaVuSans-1b" transform="translate(95.40625 0)"/>
      </g>
     </g>
    </g>
    <g id="ytick_6">
     <g id="line2d_12">
      <g>
       <use xlink:href="#mfef855473f" x="44.103906" y="23.076953" style="stroke: #000000; stroke-width: 0.8"/>
      </g>
     </g>
     <g id="text_13">
      <!-- 1.0 -->
      <g transform="translate(21.200781 26.875781) scale(0.1 -0.1)">
       <use xlink:href="#DejaVuSans-14"/>
       <use xlink:href="#DejaVuSans-11" transform="translate(63.625 0)"/>
       <use xlink:href="#DejaVuSans-13" transform="translate(95.40625 0)"/>
      </g>
     </g>
    </g>
    <g id="text_14">
     <!-- True Positive Rate (Recall) -->
     <g transform="translate(14.798438 226.623047) rotate(-90) scale(0.1 -0.1)">
      <defs>
       <path id="DejaVuSans-37" d="M -19 4666 
L 3928 4666 
L 3928 4134 
L 2272 4134 
L 2272 0 
L 1638 0 
L 1638 4134 
L -19 4134 
L -19 4666 
z
" transform="scale(0.015625)"/>
       <path id="DejaVuSans-55" d="M 2631 2963 
Q 2534 3019 2420 3045 
Q 2306 3072 2169 3072 
Q 1681 3072 1420 2755 
Q 1159 2438 1159 1844 
L 1159 0 
L 581 0 
L 581 3500 
L 1159 3500 
L 1159 2956 
Q 1341 3275 1631 3429 
Q 1922 3584 2338 3584 
Q 2397 3584 2469 3576 
Q 2541 3569 2628 3553 
L 2631 2963 
z
" transform="scale(0.015625)"/>
       <path id="DejaVuSans-58" d="M 544 1381 
L 544 3500 
L 1119 3500 
L 1119 1403 
Q 1119 906 1312 657 
Q 1506 409 1894 409 
Q 2359 409 2629 706 
Q 2900 1003 2900 1516 
L 2900 3500 
L 3475 3500 
L 3475 0 
L 2900 0 
L 2900 538 
Q 2691 219 2414 64 
Q 2138 -91 1772 -91 
Q 1169 -91 856 284 
Q 544 659 544 1381 
z
M 1991 3584 
L 1991 3584 
z
" transform="scale(0.015625)"/>
      </defs>
      <use xlink:href="#DejaVuSans-37"/>
      <use xlink:href="#DejaVuSans-55" transform="translate(46.375 0)"/>
      <use xlink:href="#DejaVuSans-58" transform="translate(87.484375 0)"/>
      <use xlink:href="#DejaVuSans-48" transform="translate(150.859375 0)"/>
      <use xlink:href="#DejaVuSans-3" transform="translate(212.390625 0)"/>
      <use xlink:href="#DejaVuSans-33" transform="translate(244.171875 0)"/>
      <use xlink:href="#DejaVuSans-52" transform="translate(300.90625 0)"/>
      <use xlink:href="#DejaVuSans-56" transform="translate(362.09375 0)"/>
      <use xlink:href="#DejaVuSans-4c" transform="translate(414.1875 0)"/>
      <use xlink:href="#DejaVuSans-57" transform="translate(441.96875 0)"/>
      <use xlink:href="#DejaVuSans-4c" transform="translate(481.171875 0)"/>
      <use xlink:href="#DejaVuSans-59" transform="translate(508.953125 0)"/>
      <use xlink:href="#DejaVuSans-48" transform="translate(568.140625 0)"/>
      <use xlink:href="#DejaVuSans-3" transform="translate(629.671875 0)"/>
      <use xlink:href="#DejaVuSans-35" transform="translate(661.453125 0)"/>
      <use xlink:href="#DejaVuSans-44" transform="translate(728.734375 0)"/>
      <use xlink:href="#DejaVuSans-57" transform="translate(790.015625 0)"/>
      <use xlink:href="#DejaVuSans-48" transform="translate(829.21875 0)"/>
      <use xlink:href="#DejaVuSans-3" transform="translate(890.75 0)"/>
      <use xlink:href="#DejaVuSans-b" transform="translate(922.53125 0)"/>
      <use xlink:href="#DejaVuSans-35" transform="translate(961.546875 0)"/>
      <use xlink:href="#DejaVuSans-48" transform="translate(1026.546875 0)"/>
      <use xlink:href="#DejaVuSans-46" transform="translate(1088.078125 0)"/>
      <use xlink:href="#DejaVuSans-44" transform="translate(1143.0625 0)"/>
      <use xlink:href="#DejaVuSans-4f" transform="translate(1204.34375 0)"/>
      <use xlink:href="#DejaVuSans-4f" transform="translate(1232.125 0)"/>
      <use xlink:href="#DejaVuSans-c" transform="translate(1259.90625 0)"/>
     </g>
    </g>
   </g>
   <g id="line2d_13">
    <path d="M 44.103906 300.276953 
L 44.103906 300.276953 
L 44.103906 300.276953 
L 44.103906 294.732953 
L 44.103906 283.644953 
L 44.103906 278.100953 
L 44.103906 275.328953 
L 44.103906 267.012953 
L 44.103906 255.924953 
L 44.103906 250.380953 
L 44.103906 236.520953 
L 44.103906 228.204953 
L 44.103906 225.432953 
L 44.103906 217.116953 
L 44.103906 208.800953 
L 44.103906 192.168953 
L 44.103906 183.852953 
L 44.103906 169.992953 
L 44.103906 158.904953 
L 44.103906 147.816953 
L 44.103906 139.500953 
L 44.103906 133.956953 
L 44.103906 131.184953 
L 44.103906 117.324953 
L 44.103906 106.236953 
L 44.103906 100.692953 
L 44.103906 89.604953 
L 44.103906 86.832953 
L 44.103906 78.516953 
L 44.103906 70.200953 
L 44.103906 64.656953 
L 44.103906 59.112953 
L 44.103906 50.796953 
L 44.103906 48.024953 
L 44.103906 48.024953 
L 44.103906 45.252953 
L 44.103906 39.708953 
L 44.103906 36.936953 
L 44.103906 34.164953 
L 44.103906 34.164953 
L 44.103906 34.164953 
L 44.103906 34.164953 
L 44.103906 34.164953 
L 44.103906 34.164953 
L 44.103906 34.164953 
L 44.103906 34.164953 
L 46.875906 31.392953 
L 49.647906 31.392953 
L 52.419906 28.620953 
L 52.419906 25.848953 
L 57.963906 25.848953 
L 57.963906 25.848953 
L 57.963906 23.076953 
L 57.963906 23.076953 
L 57.963906 23.076953 
L 57.963906 23.076953 
L 57.963906 23.076953 
L 60.735906 23.076953 
L 60.735906 23.076953 
L 60.735906 23.076953 
L 63.507906 23.076953 
L 63.507906 23.076953 
L 63.507906 23.076953 
L 69.051906 23.076953 
L 74.595906 23.076953 
L 85.683906 23.076953 
L 91.227906 23.076953 
L 96.771906 23.076953 
L 96.771906 23.076953 
L 102.315906 23.076953 
L 107.859906 23.076953 
L 107.859906 23.076953 
L 116.175906 23.076953 
L 121.719906 23.076953 
L 127.263906 23.076953 
L 135.579906 23.076953 
L 141.123906 23.076953 
L 146.667906 23.076953 
L 152.211906 23.076953 
L 171.615906 23.076953 
L 179.931906 23.076953 
L 182.703906 23.076953 
L 188.247906 23.076953 
L 196.563906 23.076953 
L 204.879906 23.076953 
L 215.967906 23.076953 
L 227.055906 23.076953 
L 229.827906 23.076953 
L 240.915906 23.076953 
L 260.319906 23.076953 
L 274.179906 23.076953 
L 285.267906 23.076953 
L 288.039906 23.076953 
L 293.583906 23.076953 
L 293.583906 23.076953 
L 301.899906 23.076953 
L 315.759906 23.076953 
L 321.303906 23.076953 
L 321.303906 23.076953 
L 321.303906 23.076953 
" clip-path="url(#p4680224f0c)" style="fill: none; stroke: #3498db; stroke-width: 2; stroke-linecap: square"/>
   </g>
   <g id="line2d_14">
    <path d="M 44.103906 300.276953 
L 321.303906 23.076953 
" clip-path="url(#p4680224f0c)" style="fill: none; stroke-dasharray: 5.55,2.4; stroke-dashoffset: 0; stroke: #808080; stroke-opacity: 0.5; stroke-width: 1.5"/>
   </g>
   <g id="patch_3">
    <path d="M 44.103906 300.276953 
L 44.103906 23.076953 
" style="fill: none; stroke: #000000; stroke-width: 0.8; stroke-linejoin: miter; stroke-linecap: square"/>
   </g>
   <g id="patch_4">
    <path d="M 321.303906 300.276953 
L 321.303906 23.076953 
" style="fill: none; stroke: #000000; stroke-width: 0.8; stroke-linejoin: miter; stroke-linecap: square"/>
   </g>
   <g id="patch_5">
    <path d="M 44.103906 300.276953 
L 321.303906 300.276953 
" style="fill: none; stroke: #000000; stroke-width: 0.8; stroke-linejoin: miter; stroke-linecap: square"/>
   </g>
   <g id="patch_6">
    <path d="M 44.103906 23.076953 
L 321.303906 23.076953 
" style="fill: none; stroke: #000000; stroke-width: 0.8; stroke-linejoin: miter; stroke-linecap: square"/>
   </g>
   <g id="text_15">
    <!-- ROC Curve -->
    <g transform="translate(143.890781 17.076953) scale(0.13 -0.13)">
     <defs>
      <path id="DejaVuSans-Bold-35" d="M 2297 2597 
Q 2675 2597 2839 2737 
Q 3003 2878 3003 3200 
Q 3003 3519 2839 3656 
Q 2675 3794 2297 3794 
L 1791 3794 
L 1791 2597 
L 2297 2597 
z
M 1791 1766 
L 1791 0 
L 588 0 
L 588 4666 
L 2425 4666 
Q 3347 4666 3776 4356 
Q 4206 4047 4206 3378 
Q 4206 2916 3982 2619 
Q 3759 2322 3309 2181 
Q 3556 2125 3751 1926 
Q 3947 1728 4147 1325 
L 4800 0 
L 3519 0 
L 2950 1159 
Q 2778 1509 2601 1637 
Q 2425 1766 2131 1766 
L 1791 1766 
z
" transform="scale(0.015625)"/>
      <path id="DejaVuSans-Bold-32" d="M 2719 3878 
Q 2169 3878 1866 3472 
Q 1563 3066 1563 2328 
Q 1563 1594 1866 1187 
Q 2169 781 2719 781 
Q 3272 781 3575 1187 
Q 3878 1594 3878 2328 
Q 3878 3066 3575 3472 
Q 3272 3878 2719 3878 
z
M 2719 4750 
Q 3844 4750 4481 4106 
Q 5119 3463 5119 2328 
Q 5119 1197 4481 553 
Q 3844 -91 2719 -91 
Q 1597 -91 958 553 
Q 319 1197 319 2328 
Q 319 3463 958 4106 
Q 1597 4750 2719 4750 
z
" transform="scale(0.015625)"/>
      <path id="DejaVuSans-Bold-26" d="M 4288 256 
Q 3956 84 3597 -3 
Q 3238 -91 2847 -91 
Q 1681 -91 1000 561 
Q 319 1213 319 2328 
Q 319 3447 1000 4098 
Q 1681 4750 2847 4750 
Q 3238 4750 3597 4662 
Q 3956 4575 4288 4403 
L 4288 3438 
Q 3953 3666 3628 3772 
Q 3303 3878 2944 3878 
Q 2300 3878 1931 3465 
Q 1563 3053 1563 2328 
Q 1563 1606 1931 1193 
Q 2300 781 2944 781 
Q 3303 781 3628 887 
Q 3953 994 4288 1222 
L 4288 256 
z
" transform="scale(0.015625)"/>
      <path id="DejaVuSans-Bold-3" transform="scale(0.015625)"/>
      <path id="DejaVuSans-Bold-58" d="M 500 1363 
L 500 3500 
L 1625 3500 
L 1625 3150 
Q 1625 2866 1622 2436 
Q 1619 2006 1619 1863 
Q 1619 1441 1641 1255 
Q 1663 1069 1716 984 
Q 1784 875 1895 815 
Q 2006 756 2150 756 
Q 2500 756 2700 1025 
Q 2900 1294 2900 1772 
L 2900 3500 
L 4019 3500 
L 4019 0 
L 2900 0 
L 2900 506 
Q 2647 200 2364 54 
Q 2081 -91 1741 -91 
Q 1134 -91 817 281 
Q 500 653 500 1363 
z
" transform="scale(0.015625)"/>
      <path id="DejaVuSans-Bold-55" d="M 3138 2547 
Q 2991 2616 2845 2648 
Q 2700 2681 2553 2681 
Q 2122 2681 1889 2404 
Q 1656 2128 1656 1613 
L 1656 0 
L 538 0 
L 538 3500 
L 1656 3500 
L 1656 2925 
Q 1872 3269 2151 3426 
Q 2431 3584 2822 3584 
Q 2878 3584 2943 3579 
Q 3009 3575 3134 3559 
L 3138 2547 
z
" transform="scale(0.015625)"/>
      <path id="DejaVuSans-Bold-59" d="M 97 3500 
L 1216 3500 
L 2088 1081 
L 2956 3500 
L 4078 3500 
L 2700 0 
L 1472 0 
L 97 3500 
z
" transform="scale(0.015625)"/>
      <path id="DejaVuSans-Bold-48" d="M 4031 1759 
L 4031 1441 
L 1416 1441 
Q 1456 1047 1700 850 
Q 1944 653 2381 653 
Q 2734 653 3104 758 
Q 3475 863 3866 1075 
L 3866 213 
Q 3469 63 3072 -14 
Q 2675 -91 2278 -91 
Q 1328 -91 801 392 
Q 275 875 275 1747 
Q 275 2603 792 3093 
Q 1309 3584 2216 3584 
Q 3041 3584 3536 3087 
Q 4031 2591 4031 1759 
z
M 2881 2131 
Q 2881 2450 2695 2645 
Q 2509 2841 2209 2841 
Q 1884 2841 1681 2658 
Q 1478 2475 1428 2131 
L 2881 2131 
z
" transform="scale(0.015625)"/>
     </defs>
     <use xlink:href="#DejaVuSans-Bold-35"/>
     <use xlink:href="#DejaVuSans-Bold-32" transform="translate(77 0)"/>
     <use xlink:href="#DejaVuSans-Bold-26" transform="translate(162.015625 0)"/>
     <use xlink:href="#DejaVuSans-Bold-3" transform="translate(235.40625 0)"/>
     <use xlink:href="#DejaVuSans-Bold-26" transform="translate(270.21875 0)"/>
     <use xlink:href="#DejaVuSans-Bold-58" transform="translate(343.609375 0)"/>
     <use xlink:href="#DejaVuSans-Bold-55" transform="translate(414.796875 0)"/>
     <use xlink:href="#DejaVuSans-Bold-59" transform="translate(464.109375 0)"/>
     <use xlink:href="#DejaVuSans-Bold-48" transform="translate(529.296875 0)"/>
    </g>
   </g>
   <g id="legend_1">
    <g id="patch_7">
     <path d="M 176.291406 295.776953 
L 315.003906 295.776953 
Q 316.803906 295.776953 316.803906 293.976953 
L 316.803906 267.875547 
Q 316.803906 266.075547 315.003906 266.075547 
L 176.291406 266.075547 
Q 174.491406 266.075547 174.491406 267.875547 
L 174.491406 293.976953 
Q 174.491406 295.776953 176.291406 295.776953 
z
" style="fill: #ffffff; opacity: 0.8; stroke: #cccccc; stroke-linejoin: miter"/>
    </g>
    <g id="line2d_15">
     <path d="M 178.091406 273.364141 
L 187.091406 273.364141 
L 196.091406 273.364141 
" style="fill: none; stroke: #3498db; stroke-width: 2; stroke-linecap: square"/>
    </g>
    <g id="text_16">
     <!-- ROC curve (AUC = 0.92) -->
     <g transform="translate(203.291406 276.514141) scale(0.09 -0.09)">
      <defs>
       <path id="DejaVuSans-32" d="M 2522 4238 
Q 1834 4238 1429 3725 
Q 1025 3213 1025 2328 
Q 1025 1447 1429 934 
Q 1834 422 2522 422 
Q 3209 422 3611 934 
Q 4013 1447 4013 2328 
Q 4013 3213 3611 3725 
Q 3209 4238 2522 4238 
z
M 2522 4750 
Q 3503 4750 4090 4092 
Q 4678 3434 4678 2328 
Q 4678 1225 4090 567 
Q 3503 -91 2522 -91 
Q 1538 -91 948 565 
Q 359 1222 359 2328 
Q 359 3434 948 4092 
Q 1538 4750 2522 4750 
z
" transform="scale(0.015625)"/>
       <path id="DejaVuSans-26" d="M 4122 4306 
L 4122 3641 
Q 3803 3938 3442 4084 
Q 3081 4231 2675 4231 
Q 1875 4231 1450 3742 
Q 1025 3253 1025 2328 
Q 1025 1406 1450 917 
Q 1875 428 2675 428 
Q 3081 428 3442 575 
Q 3803 722 4122 1019 
L 4122 359 
Q 3791 134 3420 21 
Q 3050 -91 2638 -91 
Q 1578 -91 968 557 
Q 359 1206 359 2328 
Q 359 3453 968 4101 
Q 1578 4750 2638 4750 
Q 3056 4750 3426 4639 
Q 3797 4528 4122 4306 
z
" transform="scale(0.015625)"/>
       <path id="DejaVuSans-24" d="M 2188 4044 
L 1331 1722 
L 3047 1722 
L 2188 4044 
z
M 1831 4666 
L 2547 4666 
L 4325 0 
L 3669 0 
L 3244 1197 
L 1141 1197 
L 716 0 
L 50 0 
L 1831 4666 
z
" transform="scale(0.015625)"/>
       <path id="DejaVuSans-38" d="M 556 4666 
L 1191 4666 
L 1191 1831 
Q 1191 1081 1462 751 
Q 1734 422 2344 422 
Q 2950 422 3222 751 
Q 3494 1081 3494 1831 
L 3494 4666 
L 4128 4666 
L 4128 1753 
Q 4128 841 3676 375 
Q 3225 -91 2344 -91 
Q 1459 -91 1007 375 
Q 556 841 556 1753 
L 556 4666 
z
" transform="scale(0.015625)"/>
       <path id="DejaVuSans-20" d="M 678 2906 
L 4684 2906 
L 4684 2381 
L 678 2381 
L 678 2906 
z
M 678 1631 
L 4684 1631 
L 4684 1100 
L 678 1100 
L 678 1631 
z
" transform="scale(0.015625)"/>
       <path id="DejaVuSans-1c" d="M 703 97 
L 703 672 
Q 941 559 1184 500 
Q 1428 441 1663 441 
Q 2288 441 2617 861 
Q 2947 1281 2994 2138 
Q 2813 1869 2534 1725 
Q 2256 1581 1919 1581 
Q 1219 1581 811 2004 
Q 403 2428 403 3163 
Q 403 3881 828 4315 
Q 1253 4750 1959 4750 
Q 2769 4750 3195 4129 
Q 3622 3509 3622 2328 
Q 3622 1225 3098 567 
Q 2575 -91 1691 -91 
Q 1453 -91 1209 -44 
Q 966 3 703 97 
z
M 1959 2075 
Q 2384 2075 2632 2365 
Q 2881 2656 2881 3163 
Q 2881 3666 2632 3958 
Q 2384 4250 1959 4250 
Q 1534 4250 1286 3958 
Q 1038 3666 1038 3163 
Q 1038 2656 1286 2365 
Q 1534 2075 1959 2075 
z
" transform="scale(0.015625)"/>
      </defs>
      <use xlink:href="#DejaVuSans-35"/>
      <use xlink:href="#DejaVuSans-32" transform="translate(69.484375 0)"/>
      <use xlink:href="#DejaVuSans-26" transform="translate(148.203125 0)"/>
      <use xlink:href="#DejaVuSans-3" transform="translate(218.03125 0)"/>
      <use xlink:href="#DejaVuSans-46" transform="translate(249.8125 0)"/>
      <use xlink:href="#DejaVuSans-58" transform="translate(304.796875 0)"/>
      <use xlink:href="#DejaVuSans-55" transform="translate(368.171875 0)"/>
      <use xlink:href="#DejaVuSans-59" transform="translate(409.28125 0)"/>
      <use xlink:href="#DejaVuSans-48" transform="translate(468.46875 0)"/>
      <use xlink:href="#DejaVuSans-3" transform="translate(530 0)"/>
      <use xlink:href="#DejaVuSans-b" transform="translate(561.78125 0)"/>
      <use xlink:href="#DejaVuSans-24" transform="translate(600.796875 0)"/>
      <use xlink:href="#DejaVuSans-38" transform="translate(669.203125 0)"/>
      <use xlink:href="#DejaVuSans-26" transform="translate(742.390625 0)"/>
      <use xlink:href="#DejaVuSans-3" transform="translate(812.21875 0)"/>
      <use xlink:href="#DejaVuSans-20" transform="translate(844 0)"/>
      <use xlink:href="#DejaVuSans-3" transform="translate(927.796875 0)"/>
      <use xlink:href="#DejaVuSans-13" transform="translate(959.578125 0)"/>
      <use xlink:href="#DejaVuSans-11" transform="translate(1023.203125 0)"/>
      <use xlink:href="#DejaVuSans-1c" transform="translate(1054.984375 0)"/>
      <use xlink:href="#DejaVuSans-15" transform="translate(1118.609375 0)"/>
      <use xlink:href="#DejaVuSans-c" transform="translate(1182.234375 0)"/>
     </g>
    </g>
    <g id="line2d_16">
     <path d="M 178.091406 286.864844 
L 187.091406 286.864844 
L 196.091406 286.864844 
" style="fill: none; stroke-dasharray: 5.55,2.4; stroke-dashoffset: 0; stroke: #808080; stroke-opacity: 0.5; stroke-width: 1.5"/>
    </g>
    <g id="text_17">
     <!-- Random classifier -->
     <g transform="translate(203.291406 290.014844) scale(0.09 -0.09)">
      <defs>
       <path id="DejaVuSans-51" d="M 3513 2113 
L 3513 0 
L 2938 0 
L 2938 2094 
Q 2938 2591 2744 2837 
Q 2550 3084 2163 3084 
Q 1697 3084 1428 2787 
Q 1159 2491 1159 1978 
L 1159 0 
L 581 0 
L 581 3500 
L 1159 3500 
L 1159 2956 
Q 1366 3272 1645 3428 
Q 1925 3584 2291 3584 
Q 2894 3584 3203 3211 
Q 3513 2838 3513 2113 
z
" transform="scale(0.015625)"/>
       <path id="DejaVuSans-47" d="M 2906 2969 
L 2906 4863 
L 3481 4863 
L 3481 0 
L 2906 0 
L 2906 525 
Q 2725 213 2448 61 
Q 2172 -91 1784 -91 
Q 1150 -91 751 415 
Q 353 922 353 1747 
Q 353 2572 751 3078 
Q 1150 3584 1784 3584 
Q 2172 3584 2448 3432 
Q 2725 3281 2906 2969 
z
M 947 1747 
Q 947 1113 1208 752 
Q 1469 391 1925 391 
Q 2381 391 2643 752 
Q 2906 1113 2906 1747 
Q 2906 2381 2643 2742 
Q 2381 3103 1925 3103 
Q 1469 3103 1208 2742 
Q 947 2381 947 1747 
z
" transform="scale(0.015625)"/>
       <path id="DejaVuSans-50" d="M 3328 2828 
Q 3544 3216 3844 3400 
Q 4144 3584 4550 3584 
Q 5097 3584 5394 3201 
Q 5691 2819 5691 2113 
L 5691 0 
L 5113 0 
L 5113 2094 
Q 5113 2597 4934 2840 
Q 4756 3084 4391 3084 
Q 3944 3084 3684 2787 
Q 3425 2491 3425 1978 
L 3425 0 
L 2847 0 
L 2847 2094 
Q 2847 2600 2669 2842 
Q 2491 3084 2119 3084 
Q 1678 3084 1418 2786 
Q 1159 2488 1159 1978 
L 1159 0 
L 581 0 
L 581 3500 
L 1159 3500 
L 1159 2956 
Q 1356 3278 1631 3431 
Q 1906 3584 2284 3584 
Q 2666 3584 2933 3390 
Q 3200 3197 3328 2828 
z
" transform="scale(0.015625)"/>
      </defs>
      <use xlink:href="#DejaVuSans-35"/>
      <use xlink:href="#DejaVuSans-44" transform="translate(67.28125 0)"/>
      <use xlink:href="#DejaVuSans-51" transform="translate(128.5625 0)"/>
      <use xlink:href="#DejaVuSans-47" transform="translate(191.9375 0)"/>
      <use xlink:href="#DejaVuSans-52" transform="translate(255.421875 0)"/>
      <use xlink:href="#DejaVuSans-50" transform="translate(316.609375 0)"/>
      <use xlink:href="#DejaVuSans-3" transform="translate(414.015625 0)"/>
      <use xlink:href="#DejaVuSans-46" transform="translate(445.796875 0)"/>
      <use xlink:href="#DejaVuSans-4f" transform="translate(500.78125 0)"/>
      <use xlink:href="#DejaVuSans-44" transform="translate(528.5625 0)"/>
      <use xlink:href="#DejaVuSans-56" transform="translate(589.84375 0)"/>
      <use xlink:href="#DejaVuSans-56" transform="translate(641.9375 0)"/>
      <use xlink:href="#DejaVuSans-4c" transform="translate(694.03125 0)"/>
      <use xlink:href="#DejaVuSans-13af" transform="translate(721.8125 0)"/>
      <use xlink:href="#DejaVuSans-48" transform="translate(784.796875 0)"/>
      <use xlink:href="#DejaVuSans-55" transform="translate(846.328125 0)"/>
     </g>
    </g>
   </g>
  </g>
 </g>
 <defs>
  <clipPath id="p4680224f0c">
   <rect x="44.103906" y="23.076953" width="277.2" height="277.2"/>
  </clipPath>
 </defs>
</svg>
